<svg xmlns="http://www.w3.org/2000/svg" class="context figure cross-sectional-box-plot" width="240" height="160" viewBox="0 0 240 160" preserveAspectRatio="xMidYMid"><style>@page {
  size: 240px 160px;  margin: 0px;  padding: 0px;}</style><style>svg{--background:white;--c0:#4e79a7;--c1:#f28e2c;--c2:#e15759;--c3:#76b7b2;--c4:#59a14f;--c5:#edc949;--c6:#af7aa1;--c7:#ff9da7;--c8:#9c755f;--c9:#bab0ab;font-size:12px}.fill-c0{fill:var(--c0)}.fill-c1{fill:var(--c1)}.fill-c2{fill:var(--c2)}.fill-c3{fill:var(--c3)}.fill-c4{fill:var(--c4)}.fill-c5{fill:var(--c5)}.fill-c6{fill:var(--c6)}.fill-c7{fill:var(--c7)}.fill-c8{fill:var(--c8)}.fill-c9{fill:var(--c9)}.stroke-c0{stroke:var(--c0)}.stroke-c1{stroke:var(--c1)}.stroke-c2{stroke:var(--c2)}.stroke-c3{stroke:var(--c3)}.stroke-c4{stroke:var(--c4)}.stroke-c5{stroke:var(--c5)}.stroke-c6{stroke:var(--c6)}.stroke-c7{stroke:var(--c7)}.stroke-c8{stroke:var(--c8)}.stroke-c9{stroke:var(--c9)}.fill-black{fill:#000}.fill-white{fill:#fff}.fill-gray{fill:gray}.stroke-black{stroke:#000}.stroke-white{stroke:#fff}.stroke-gray{stroke:gray}.weak{opacity:.5}.weaker{opacity:.25}.weakest{opacity:.125}.dashed{stroke-dasharray:2px 2px}.small{font-size:.75em}.smaller{font-size:.6em}text{stroke:none}.mono{font-family:monospace}.figure>.background{fill:var(--background)}.curve{fill:none;stroke-width:1.75px}.assoc,.span{fill:none;stroke-width:1px;stroke-linecap:round}.assoc.thick{stroke-width:calc(1px*1.5)}.span{fill:#aaa;stroke:#aaa}.label,.panel,.span{font-family:sans-serif}.label,.panel{fill:#777}.panel .frame{stroke:#aaa;fill:var(--background);fill-opacity:.5}.grid line,.tick{stroke-width:1px;stroke-linecap:round}.tick.major{font-size:.75em}.grid line{stroke:#ccc;stroke-dasharray:0 2.4px}.grid line.origin{stroke-dasharray:none}</style><g class="context plot"><g class="grid"><g class="span x-axis"/><g class="span y-axis"><g class="tick grid"><g><line x1="20" y1="104.38347034726799" x2="220" y2="104.38347034726799"/></g><g><line x1="20" y1="81.75944006928222" x2="220" y2="81.75944006928222"/></g><g><line x1="20" y1="59.13540979129646" x2="220" y2="59.13540979129646"/></g><g><line x1="20" y1="36.5113795133107" x2="220" y2="36.5113795133107"/></g><g><line x1="20" y1="13.887349235324919" x2="220" y2="13.887349235324919"/></g></g></g></g><g class="content"><g><g class="box-plot"><g class="scatter"><circle class="marker fill-c0 weak" cx="59.39393939393939" cy="79.57715949120353" r="2.5"/></g><path class="area fill-c0 weak" d="M38.182,96.499L80.606,96.499L80.606,105.61L38.182,105.61Z"/><g class="span"><g class="tick major"><g><line x1="59.39393939393939" y1="112.61437908496733" x2="64.39393939393939" y2="112.61437908496733"/><line x1="59.39393939393939" y1="112.61437908496733" x2="54.39393939393939" y2="112.61437908496733"/></g></g><line x1="59.39393939393939" y1="112.61437908496733" x2="59.39393939393939" y2="105.6096388935168"/></g><g class="span"><g class="tick major"><g><line x1="59.39393939393939" y1="87.43760075222768" x2="64.39393939393939" y2="87.43760075222768"/><line x1="59.39393939393939" y1="87.43760075222768" x2="54.39393939393939" y2="87.43760075222768"/></g></g><line x1="59.39393939393939" y1="96.49924336398433" x2="59.39393939393939" y2="87.43760075222768"/></g><g class="span"><g class="tick major"><g><line x1="38.18181818181819" y1="105.6096388935168" x2="80.60606060606061" y2="105.6096388935168"/></g><g><line x1="38.18181818181819" y1="98.96707241473315" x2="80.60606060606061" y2="98.96707241473315"/></g><g><line x1="38.18181818181819" y1="96.49924336398433" x2="80.60606060606061" y2="96.49924336398433"/></g></g><line x1="38.18181818181819" y1="105.6096388935168" x2="38.18181818181819" y2="96.49924336398433"/></g><g class="span"><line x1="80.60606060606061" y1="105.6096388935168" x2="80.60606060606061" y2="96.49924336398433"/></g></g><g class="box-plot"><g class="scatter"/><path class="area fill-c1 weak" d="M98.788,84.919L141.212,84.919L141.212,100.449L98.788,100.449Z"/><g class="span"><g class="tick major"><g><line x1="120" y1="106.15064705064054" x2="125" y2="106.15064705064054"/><line x1="120" y1="106.15064705064054" x2="115" y2="106.15064705064054"/></g></g><line x1="120" y1="106.15064705064054" x2="120" y2="100.44904301625486"/></g><g class="span"><g class="tick major"><g><line x1="120" y1="71.5245995071644" x2="125" y2="71.5245995071644"/><line x1="120" y1="71.5245995071644" x2="115" y2="71.5245995071644"/></g></g><line x1="120" y1="84.91865838669207" x2="120" y2="71.5245995071644"/></g><g class="span"><g class="tick major"><g><line x1="98.78787878787878" y1="100.44904301625486" x2="141.21212121212122" y2="100.44904301625486"/></g><g><line x1="98.78787878787878" y1="95.15454715260816" x2="141.21212121212122" y2="95.15454715260816"/></g><g><line x1="98.78787878787878" y1="84.91865838669207" x2="141.21212121212122" y2="84.91865838669207"/></g></g><line x1="98.78787878787878" y1="100.44904301625486" x2="98.78787878787878" y2="84.91865838669207"/></g><g class="span"><line x1="141.21212121212122" y1="100.44904301625486" x2="141.21212121212122" y2="84.91865838669207"/></g></g><g class="box-plot"><g class="scatter"><circle class="marker fill-c2 weak" cx="180.60606060606062" cy="29.156862745098035" r="2.5"/></g><path class="area fill-c2 weak" d="M159.394,73.044L201.818,73.044L201.818,89.578L159.394,89.578Z"/><g class="span"><g class="tick major"><g><line x1="180.60606060606062" y1="99.58664686834847" x2="185.60606060606062" y2="99.58664686834847"/><line x1="180.60606060606062" y1="99.58664686834847" x2="175.60606060606062" y2="99.58664686834847"/></g></g><line x1="180.60606060606062" y1="99.58664686834847" x2="180.60606060606062" y2="89.57770176791274"/></g><g class="span"><g class="tick major"><g><line x1="180.60606060606062" y1="53.013212550079906" x2="185.60606060606062" y2="53.013212550079906"/><line x1="180.60606060606062" y1="53.013212550079906" x2="175.60606060606062" y2="53.013212550079906"/></g></g><line x1="180.60606060606062" y1="73.04383551518887" x2="180.60606060606062" y2="53.013212550079906"/></g><g class="span"><g class="tick major"><g><line x1="159.39393939393938" y1="89.57770176791274" x2="201.81818181818184" y2="89.57770176791274"/></g><g><line x1="159.39393939393938" y1="80.1780962373783" x2="201.81818181818184" y2="80.1780962373783"/></g><g><line x1="159.39393939393938" y1="73.04383551518887" x2="201.81818181818184" y2="73.04383551518887"/></g></g><line x1="159.39393939393938" y1="89.57770176791274" x2="159.39393939393938" y2="73.04383551518887"/></g><g class="span"><line x1="201.81818181818184" y1="89.57770176791274" x2="201.81818181818184" y2="73.04383551518887"/></g></g></g><g><g class="span"><g class="tick major"><g><text class="" text-anchor="middle" alignment-baseline="text-top" dominant-baseline="text-top" transform="translate(89.69696969696972, 20) rotate(0)"><tspan x="0" y="0em" text-anchor="middle" alignment-baseline="text-top" dominant-baseline="text-top">*</tspan></text></g></g><g class="tick delimiter"><g><line x1="71.51515151515152" y1="19" x2="71.51515151515152" y2="21"/></g><g><line x1="107.8787878787879" y1="19" x2="107.8787878787879" y2="21"/></g></g><line x1="71.51515151515152" y1="19" x2="107.8787878787879" y2="19"/></g><g class="span"><g class="tick major"><g><text class="" text-anchor="middle" alignment-baseline="text-top" dominant-baseline="text-top" transform="translate(150.3030303030303, 20) rotate(0)"><tspan x="0" y="0em" text-anchor="middle" alignment-baseline="text-top" dominant-baseline="text-top">*</tspan></text></g></g><g class="tick delimiter"><g><line x1="132.12121212121212" y1="19" x2="132.12121212121212" y2="21"/></g><g><line x1="168.4848484848485" y1="19" x2="168.4848484848485" y2="21"/></g></g><line x1="132.12121212121212" y1="19" x2="168.4848484848485" y2="19"/></g></g></g><g class="frame"><g class="span x-axis"><g class="tick major"><g><line x1="59.3939393939394" y1="7" x2="59.3939393939394" y2="11"/></g><g><line x1="120" y1="7" x2="120" y2="11"/></g><g><line x1="180.60606060606062" y1="7" x2="180.60606060606062" y2="11"/></g></g><line x1="20" y1="7" x2="220" y2="7"/></g><g class="span x-axis"><g class="tick major"><g><line x1="59.3939393939394" y1="120" x2="59.3939393939394" y2="116"/></g><g><line x1="120" y1="120" x2="120" y2="116"/></g><g><line x1="180.60606060606062" y1="120" x2="180.60606060606062" y2="116"/></g></g><g class="tick label"><g><text class="small" text-anchor="middle" alignment-baseline="hanging" dominant-baseline="hanging" transform="translate(120, 124) rotate(0)"><tspan x="0" y="0em" text-anchor="middle" alignment-baseline="hanging" dominant-baseline="hanging"><tspan class="mono" text-anchor="middle" alignment-baseline="hanging" dominant-baseline="hanging">stride_length_apdm_μ</tspan></tspan><tspan x="0" y="1em" text-anchor="middle" alignment-baseline="hanging" dominant-baseline="hanging"><tspan class="mono" text-anchor="middle" alignment-baseline="hanging" dominant-baseline="hanging">cv</tspan></tspan><tspan x="0" y="2em" text-anchor="middle" alignment-baseline="hanging" dominant-baseline="hanging"><tspan class="mono" text-anchor="middle" alignment-baseline="hanging" dominant-baseline="hanging">all</tspan></tspan><tspan x="0" y="3em" text-anchor="middle" alignment-baseline="hanging" dominant-baseline="hanging"><tspan class="mono" text-anchor="middle" alignment-baseline="hanging" dominant-baseline="hanging">μ</tspan></tspan></text></g></g><line x1="20" y1="120" x2="220" y2="120"/></g><g class="span y-axis"><g class="tick minor"><g><line x1="20" y1="98.72746277777154" x2="22" y2="98.72746277777154"/></g><g><line x1="20" y1="93.07145520827511" x2="22" y2="93.07145520827511"/></g><g><line x1="20" y1="87.41544763877866" x2="22" y2="87.41544763877866"/></g><g><line x1="20" y1="76.10343249978578" x2="22" y2="76.10343249978578"/></g><g><line x1="20" y1="70.44742493028934" x2="22" y2="70.44742493028934"/></g><g><line x1="20" y1="64.7914173607929" x2="22" y2="64.7914173607929"/></g><g><line x1="20" y1="53.479402221800015" x2="22" y2="53.479402221800015"/></g><g><line x1="20" y1="47.82339465230358" x2="22" y2="47.82339465230358"/></g><g><line x1="20" y1="42.16738708280714" x2="22" y2="42.16738708280714"/></g><g><line x1="20" y1="30.855371943814248" x2="22" y2="30.855371943814248"/></g><g><line x1="20" y1="25.199364374317824" x2="22" y2="25.199364374317824"/></g><g><line x1="20" y1="19.54335680482137" x2="22" y2="19.54335680482137"/></g></g><g class="tick major"><g><line x1="20" y1="104.38347034726799" x2="24" y2="104.38347034726799"/><text class="" text-anchor="end" alignment-baseline="middle" dominant-baseline="middle" transform="translate(16, 104.38347034726799) rotate(0)"><tspan x="0" y="0em" text-anchor="end" alignment-baseline="middle" dominant-baseline="middle">.02</tspan></text></g><g><line x1="20" y1="81.75944006928222" x2="24" y2="81.75944006928222"/><text class="" text-anchor="end" alignment-baseline="middle" dominant-baseline="middle" transform="translate(16, 81.75944006928222) rotate(0)"><tspan x="0" y="0em" text-anchor="end" alignment-baseline="middle" dominant-baseline="middle">.04</tspan></text></g><g><line x1="20" y1="59.13540979129646" x2="24" y2="59.13540979129646"/><text class="" text-anchor="end" alignment-baseline="middle" dominant-baseline="middle" transform="translate(16, 59.13540979129646) rotate(0)"><tspan x="0" y="0em" text-anchor="end" alignment-baseline="middle" dominant-baseline="middle">.06</tspan></text></g><g><line x1="20" y1="36.5113795133107" x2="24" y2="36.5113795133107"/><text class="" text-anchor="end" alignment-baseline="middle" dominant-baseline="middle" transform="translate(16, 36.5113795133107) rotate(0)"><tspan x="0" y="0em" text-anchor="end" alignment-baseline="middle" dominant-baseline="middle">.08</tspan></text></g><g><line x1="20" y1="13.887349235324919" x2="24" y2="13.887349235324919"/><text class="" text-anchor="end" alignment-baseline="middle" dominant-baseline="middle" transform="translate(16, 13.887349235324919) rotate(0)"><tspan x="0" y="0em" text-anchor="end" alignment-baseline="middle" dominant-baseline="middle">.1</tspan></text></g></g><line x1="20" y1="120" x2="20" y2="7"/></g><g class="span y-axis"><g class="tick minor"><g><line x1="220" y1="98.72746277777154" x2="218" y2="98.72746277777154"/></g><g><line x1="220" y1="93.07145520827511" x2="218" y2="93.07145520827511"/></g><g><line x1="220" y1="87.41544763877866" x2="218" y2="87.41544763877866"/></g><g><line x1="220" y1="76.10343249978578" x2="218" y2="76.10343249978578"/></g><g><line x1="220" y1="70.44742493028934" x2="218" y2="70.44742493028934"/></g><g><line x1="220" y1="64.7914173607929" x2="218" y2="64.7914173607929"/></g><g><line x1="220" y1="53.479402221800015" x2="218" y2="53.479402221800015"/></g><g><line x1="220" y1="47.82339465230358" x2="218" y2="47.82339465230358"/></g><g><line x1="220" y1="42.16738708280714" x2="218" y2="42.16738708280714"/></g><g><line x1="220" y1="30.855371943814248" x2="218" y2="30.855371943814248"/></g><g><line x1="220" y1="25.199364374317824" x2="218" y2="25.199364374317824"/></g><g><line x1="220" y1="19.54335680482137" x2="218" y2="19.54335680482137"/></g></g><g class="tick major"><g><line x1="220" y1="104.38347034726799" x2="216" y2="104.38347034726799"/><text class="" text-anchor="start" alignment-baseline="middle" dominant-baseline="middle" transform="translate(224, 104.38347034726799) rotate(0)"><tspan x="0" y="0em" text-anchor="start" alignment-baseline="middle" dominant-baseline="middle">.02</tspan></text></g><g><line x1="220" y1="81.75944006928222" x2="216" y2="81.75944006928222"/><text class="" text-anchor="start" alignment-baseline="middle" dominant-baseline="middle" transform="translate(224, 81.75944006928222) rotate(0)"><tspan x="0" y="0em" text-anchor="start" alignment-baseline="middle" dominant-baseline="middle">.04</tspan></text></g><g><line x1="220" y1="59.13540979129646" x2="216" y2="59.13540979129646"/><text class="" text-anchor="start" alignment-baseline="middle" dominant-baseline="middle" transform="translate(224, 59.13540979129646) rotate(0)"><tspan x="0" y="0em" text-anchor="start" alignment-baseline="middle" dominant-baseline="middle">.06</tspan></text></g><g><line x1="220" y1="36.5113795133107" x2="216" y2="36.5113795133107"/><text class="" text-anchor="start" alignment-baseline="middle" dominant-baseline="middle" transform="translate(224, 36.5113795133107) rotate(0)"><tspan x="0" y="0em" text-anchor="start" alignment-baseline="middle" dominant-baseline="middle">.08</tspan></text></g><g><line x1="220" y1="13.887349235324919" x2="216" y2="13.887349235324919"/><text class="" text-anchor="start" alignment-baseline="middle" dominant-baseline="middle" transform="translate(224, 13.887349235324919) rotate(0)"><tspan x="0" y="0em" text-anchor="start" alignment-baseline="middle" dominant-baseline="middle">.1</tspan></text></g></g><line x1="220" y1="120" x2="220" y2="7"/></g></g></g></svg>