<svg xmlns="http://www.w3.org/2000/svg" class="context figure cross-sectional-box-plot" width="240" height="160" viewBox="0 0 240 160" preserveAspectRatio="xMidYMid"><style>@page {
  size: 240px 160px;  margin: 0px;  padding: 0px;}</style><style>svg{--background:white;--c0:#4e79a7;--c1:#f28e2c;--c2:#e15759;--c3:#76b7b2;--c4:#59a14f;--c5:#edc949;--c6:#af7aa1;--c7:#ff9da7;--c8:#9c755f;--c9:#bab0ab;font-size:12px}.fill-c0{fill:var(--c0)}.fill-c1{fill:var(--c1)}.fill-c2{fill:var(--c2)}.fill-c3{fill:var(--c3)}.fill-c4{fill:var(--c4)}.fill-c5{fill:var(--c5)}.fill-c6{fill:var(--c6)}.fill-c7{fill:var(--c7)}.fill-c8{fill:var(--c8)}.fill-c9{fill:var(--c9)}.stroke-c0{stroke:var(--c0)}.stroke-c1{stroke:var(--c1)}.stroke-c2{stroke:var(--c2)}.stroke-c3{stroke:var(--c3)}.stroke-c4{stroke:var(--c4)}.stroke-c5{stroke:var(--c5)}.stroke-c6{stroke:var(--c6)}.stroke-c7{stroke:var(--c7)}.stroke-c8{stroke:var(--c8)}.stroke-c9{stroke:var(--c9)}.fill-black{fill:#000}.fill-white{fill:#fff}.fill-gray{fill:gray}.stroke-black{stroke:#000}.stroke-white{stroke:#fff}.stroke-gray{stroke:gray}.weak{opacity:.5}.weaker{opacity:.25}.weakest{opacity:.125}.dashed{stroke-dasharray:2px 2px}.small{font-size:.75em}.smaller{font-size:.6em}text{stroke:none}.mono{font-family:monospace}.figure>.background{fill:var(--background)}.curve{fill:none;stroke-width:1.75px}.assoc,.span{fill:none;stroke-width:1px;stroke-linecap:round}.assoc.thick{stroke-width:calc(1px*1.5)}.span{fill:#aaa;stroke:#aaa}.label,.panel,.span{font-family:sans-serif}.label,.panel{fill:#777}.panel .frame{stroke:#aaa;fill:var(--background);fill-opacity:.5}.grid line,.tick{stroke-width:1px;stroke-linecap:round}.tick.major{font-size:.75em}.grid line{stroke:#ccc;stroke-dasharray:0 2.4px}.grid line.origin{stroke-dasharray:none}</style><g class="context plot"><g class="grid"><g class="span x-axis"/><g class="span y-axis"><g class="tick grid"><g><line x1="20" y1="101.19493084324417" x2="220" y2="101.19493084324417"/></g><g><line x1="20" y1="74.27639182257958" x2="220" y2="74.27639182257958"/></g><g><line x1="20" y1="47.357852801915" x2="220" y2="47.357852801915"/></g><g><line x1="20" y1="20.439313781250434" x2="220" y2="20.439313781250434"/></g></g></g></g><g class="content"><g><g class="box-plot"><g class="scatter"><circle class="marker fill-c0 weak" cx="59.39393939393939" cy="59.02793173557832" r="2.5"/><circle class="marker fill-c0 weak" cx="59.39393939393939" cy="36.78539537534497" r="2.5"/></g><path class="area fill-c0 weak" d="M38.182,82.149L80.606,82.149L80.606,94.582L38.182,94.582Z"/><g class="span"><g class="tick major"><g><line x1="59.39393939393939" y1="112.61437908496733" x2="64.39393939393939" y2="112.61437908496733"/><line x1="59.39393939393939" y1="112.61437908496733" x2="54.39393939393939" y2="112.61437908496733"/></g></g><line x1="59.39393939393939" y1="112.61437908496733" x2="59.39393939393939" y2="94.58164472834866"/></g><g class="span"><g class="tick major"><g><line x1="59.39393939393939" y1="72.00024682035034" x2="64.39393939393939" y2="72.00024682035034"/><line x1="59.39393939393939" y1="72.00024682035034" x2="54.39393939393939" y2="72.00024682035034"/></g></g><line x1="59.39393939393939" y1="82.14920119304169" x2="59.39393939393939" y2="72.00024682035034"/></g><g class="span"><g class="tick major"><g><line x1="38.18181818181819" y1="94.58164472834866" x2="80.60606060606061" y2="94.58164472834866"/></g><g><line x1="38.18181818181819" y1="87.85282740048552" x2="80.60606060606061" y2="87.85282740048552"/></g><g><line x1="38.18181818181819" y1="82.14920119304169" x2="80.60606060606061" y2="82.14920119304169"/></g></g><line x1="38.18181818181819" y1="94.58164472834866" x2="38.18181818181819" y2="82.14920119304169"/></g><g class="span"><line x1="80.60606060606061" y1="94.58164472834866" x2="80.60606060606061" y2="82.14920119304169"/></g></g><g class="box-plot"><g class="scatter"/><path class="area fill-c1 weak" d="M98.788,63.325L141.212,63.325L141.212,90.823L98.788,90.823Z"/><g class="span"><g class="tick major"><g><line x1="120" y1="99.08456709756297" x2="125" y2="99.08456709756297"/><line x1="120" y1="99.08456709756297" x2="115" y2="99.08456709756297"/></g></g><line x1="120" y1="99.08456709756297" x2="120" y2="90.82317009547556"/></g><g class="span"><g class="tick major"><g><line x1="120" y1="29.15686274509803" x2="125" y2="29.15686274509803"/><line x1="120" y1="29.15686274509803" x2="115" y2="29.15686274509803"/></g></g><line x1="120" y1="63.32489406257924" x2="120" y2="29.156862745098035"/></g><g class="span"><g class="tick major"><g><line x1="98.78787878787878" y1="90.82317009547556" x2="141.21212121212122" y2="90.82317009547556"/></g><g><line x1="98.78787878787878" y1="84.94592268988083" x2="141.21212121212122" y2="84.94592268988083"/></g><g><line x1="98.78787878787878" y1="63.32489406257924" x2="141.21212121212122" y2="63.32489406257924"/></g></g><line x1="98.78787878787878" y1="90.82317009547556" x2="98.78787878787878" y2="63.32489406257924"/></g><g class="span"><line x1="141.21212121212122" y1="90.82317009547556" x2="141.21212121212122" y2="63.32489406257924"/></g></g><g class="box-plot"><g class="scatter"/><path class="area fill-c2 weak" d="M159.394,56.882L201.818,56.882L201.818,78.366L159.394,78.366Z"/><g class="span"><g class="tick major"><g><line x1="180.60606060606062" y1="88.42212467824884" x2="185.60606060606062" y2="88.42212467824884"/><line x1="180.60606060606062" y1="88.42212467824884" x2="175.60606060606062" y2="88.42212467824884"/></g></g><line x1="180.60606060606062" y1="88.42212467824884" x2="180.60606060606062" y2="78.36597635760208"/></g><g class="span"><g class="tick major"><g><line x1="180.60606060606062" y1="35.69719371136452" x2="185.60606060606062" y2="35.69719371136452"/><line x1="180.60606060606062" y1="35.69719371136452" x2="175.60606060606062" y2="35.69719371136452"/></g></g><line x1="180.60606060606062" y1="56.88245456602319" x2="180.60606060606062" y2="35.69719371136452"/></g><g class="span"><g class="tick major"><g><line x1="159.39393939393938" y1="78.36597635760208" x2="201.81818181818184" y2="78.36597635760208"/></g><g><line x1="159.39393939393938" y1="63.939780849957366" x2="201.81818181818184" y2="63.939780849957366"/></g><g><line x1="159.39393939393938" y1="56.88245456602319" x2="201.81818181818184" y2="56.88245456602319"/></g></g><line x1="159.39393939393938" y1="78.36597635760208" x2="159.39393939393938" y2="56.88245456602319"/></g><g class="span"><line x1="201.81818181818184" y1="78.36597635760208" x2="201.81818181818184" y2="56.88245456602319"/></g></g></g><g/></g><g class="frame"><g class="span x-axis"><g class="tick major"><g><line x1="59.3939393939394" y1="7" x2="59.3939393939394" y2="11"/></g><g><line x1="120" y1="7" x2="120" y2="11"/></g><g><line x1="180.60606060606062" y1="7" x2="180.60606060606062" y2="11"/></g></g><line x1="20" y1="7" x2="220" y2="7"/></g><g class="span x-axis"><g class="tick major"><g><line x1="59.3939393939394" y1="120" x2="59.3939393939394" y2="116"/></g><g><line x1="120" y1="120" x2="120" y2="116"/></g><g><line x1="180.60606060606062" y1="120" x2="180.60606060606062" y2="116"/></g></g><g class="tick label"><g><text class="small" text-anchor="middle" alignment-baseline="hanging" dominant-baseline="hanging" transform="translate(120, 124) rotate(0)"><tspan x="0" y="0em" text-anchor="middle" alignment-baseline="hanging" dominant-baseline="hanging"><tspan class="mono" text-anchor="middle" alignment-baseline="hanging" dominant-baseline="hanging">stride_length_apdm_μ</tspan></tspan><tspan x="0" y="1em" text-anchor="middle" alignment-baseline="hanging" dominant-baseline="hanging"><tspan class="mono" text-anchor="middle" alignment-baseline="hanging" dominant-baseline="hanging">cv</tspan></tspan><tspan x="0" y="2em" text-anchor="middle" alignment-baseline="hanging" dominant-baseline="hanging"><tspan class="mono" text-anchor="middle" alignment-baseline="hanging" dominant-baseline="hanging">all</tspan></tspan><tspan x="0" y="3em" text-anchor="middle" alignment-baseline="hanging" dominant-baseline="hanging"><tspan class="mono" text-anchor="middle" alignment-baseline="hanging" dominant-baseline="hanging">μ</tspan></tspan></text></g></g><line x1="20" y1="120" x2="220" y2="120"/></g><g class="span y-axis"><g class="tick minor"><g><line x1="20" y1="94.46529608807802" x2="22" y2="94.46529608807802"/></g><g><line x1="20" y1="87.73566133291187" x2="22" y2="87.73566133291187"/></g><g><line x1="20" y1="81.00602657774573" x2="22" y2="81.00602657774573"/></g><g><line x1="20" y1="67.54675706741344" x2="22" y2="67.54675706741344"/></g><g><line x1="20" y1="60.8171223122473" x2="22" y2="60.8171223122473"/></g><g><line x1="20" y1="54.08748755708115" x2="22" y2="54.08748755708115"/></g><g><line x1="20" y1="40.628218046748856" x2="22" y2="40.628218046748856"/></g><g><line x1="20" y1="33.898583291582696" x2="22" y2="33.898583291582696"/></g><g><line x1="20" y1="27.16894853641658" x2="22" y2="27.16894853641658"/></g></g><g class="tick major"><g><line x1="20" y1="101.19493084324417" x2="24" y2="101.19493084324417"/><text class="" text-anchor="end" alignment-baseline="middle" dominant-baseline="middle" transform="translate(16, 101.19493084324417) rotate(0)"><tspan x="0" y="0em" text-anchor="end" alignment-baseline="middle" dominant-baseline="middle">.01</tspan></text></g><g><line x1="20" y1="74.27639182257958" x2="24" y2="74.27639182257958"/><text class="" text-anchor="end" alignment-baseline="middle" dominant-baseline="middle" transform="translate(16, 74.27639182257958) rotate(0)"><tspan x="0" y="0em" text-anchor="end" alignment-baseline="middle" dominant-baseline="middle">.02</tspan></text></g><g><line x1="20" y1="47.357852801915" x2="24" y2="47.357852801915"/><text class="" text-anchor="end" alignment-baseline="middle" dominant-baseline="middle" transform="translate(16, 47.357852801915) rotate(0)"><tspan x="0" y="0em" text-anchor="end" alignment-baseline="middle" dominant-baseline="middle">.03</tspan></text></g><g><line x1="20" y1="20.439313781250434" x2="24" y2="20.439313781250434"/><text class="" text-anchor="end" alignment-baseline="middle" dominant-baseline="middle" transform="translate(16, 20.439313781250434) rotate(0)"><tspan x="0" y="0em" text-anchor="end" alignment-baseline="middle" dominant-baseline="middle">.04</tspan></text></g></g><line x1="20" y1="120" x2="20" y2="7"/></g><g class="span y-axis"><g class="tick minor"><g><line x1="220" y1="94.46529608807802" x2="218" y2="94.46529608807802"/></g><g><line x1="220" y1="87.73566133291187" x2="218" y2="87.73566133291187"/></g><g><line x1="220" y1="81.00602657774573" x2="218" y2="81.00602657774573"/></g><g><line x1="220" y1="67.54675706741344" x2="218" y2="67.54675706741344"/></g><g><line x1="220" y1="60.8171223122473" x2="218" y2="60.8171223122473"/></g><g><line x1="220" y1="54.08748755708115" x2="218" y2="54.08748755708115"/></g><g><line x1="220" y1="40.628218046748856" x2="218" y2="40.628218046748856"/></g><g><line x1="220" y1="33.898583291582696" x2="218" y2="33.898583291582696"/></g><g><line x1="220" y1="27.16894853641658" x2="218" y2="27.16894853641658"/></g></g><g class="tick major"><g><line x1="220" y1="101.19493084324417" x2="216" y2="101.19493084324417"/><text class="" text-anchor="start" alignment-baseline="middle" dominant-baseline="middle" transform="translate(224, 101.19493084324417) rotate(0)"><tspan x="0" y="0em" text-anchor="start" alignment-baseline="middle" dominant-baseline="middle">.01</tspan></text></g><g><line x1="220" y1="74.27639182257958" x2="216" y2="74.27639182257958"/><text class="" text-anchor="start" alignment-baseline="middle" dominant-baseline="middle" transform="translate(224, 74.27639182257958) rotate(0)"><tspan x="0" y="0em" text-anchor="start" alignment-baseline="middle" dominant-baseline="middle">.02</tspan></text></g><g><line x1="220" y1="47.357852801915" x2="216" y2="47.357852801915"/><text class="" text-anchor="start" alignment-baseline="middle" dominant-baseline="middle" transform="translate(224, 47.357852801915) rotate(0)"><tspan x="0" y="0em" text-anchor="start" alignment-baseline="middle" dominant-baseline="middle">.03</tspan></text></g><g><line x1="220" y1="20.439313781250434" x2="216" y2="20.439313781250434"/><text class="" text-anchor="start" alignment-baseline="middle" dominant-baseline="middle" transform="translate(224, 20.439313781250434) rotate(0)"><tspan x="0" y="0em" text-anchor="start" alignment-baseline="middle" dominant-baseline="middle">.04</tspan></text></g></g><line x1="220" y1="120" x2="220" y2="7"/></g></g></g></svg>