<svg xmlns="http://www.w3.org/2000/svg" class="context figure cross-sectional-box-plot" width="240" height="160" viewBox="0 0 240 160" preserveAspectRatio="xMidYMid"><style>@page {
  size: 240px 160px;  margin: 0px;  padding: 0px;}</style><style>svg{--background:white;--c0:#4e79a7;--c1:#f28e2c;--c2:#e15759;--c3:#76b7b2;--c4:#59a14f;--c5:#edc949;--c6:#af7aa1;--c7:#ff9da7;--c8:#9c755f;--c9:#bab0ab;font-size:12px}.fill-c0{fill:var(--c0)}.fill-c1{fill:var(--c1)}.fill-c2{fill:var(--c2)}.fill-c3{fill:var(--c3)}.fill-c4{fill:var(--c4)}.fill-c5{fill:var(--c5)}.fill-c6{fill:var(--c6)}.fill-c7{fill:var(--c7)}.fill-c8{fill:var(--c8)}.fill-c9{fill:var(--c9)}.stroke-c0{stroke:var(--c0)}.stroke-c1{stroke:var(--c1)}.stroke-c2{stroke:var(--c2)}.stroke-c3{stroke:var(--c3)}.stroke-c4{stroke:var(--c4)}.stroke-c5{stroke:var(--c5)}.stroke-c6{stroke:var(--c6)}.stroke-c7{stroke:var(--c7)}.stroke-c8{stroke:var(--c8)}.stroke-c9{stroke:var(--c9)}.fill-black{fill:#000}.fill-white{fill:#fff}.fill-gray{fill:gray}.stroke-black{stroke:#000}.stroke-white{stroke:#fff}.stroke-gray{stroke:gray}.weak{opacity:.5}.weaker{opacity:.25}.weakest{opacity:.125}.dashed{stroke-dasharray:2px 2px}.small{font-size:.75em}.smaller{font-size:.6em}text{stroke:none}.mono{font-family:monospace}.figure>.background{fill:var(--background)}.curve{fill:none;stroke-width:1.75px}.assoc,.span{fill:none;stroke-width:1px;stroke-linecap:round}.assoc.thick{stroke-width:calc(1px*1.5)}.span{fill:#aaa;stroke:#aaa}.label,.panel,.span{font-family:sans-serif}.label,.panel{fill:#777}.panel .frame{stroke:#aaa;fill:var(--background);fill-opacity:.5}.grid line,.tick{stroke-width:1px;stroke-linecap:round}.tick.major{font-size:.75em}.grid line{stroke:#ccc;stroke-dasharray:0 2.4px}.grid line.origin{stroke-dasharray:none}</style><g class="context plot"><g class="grid"><g class="span x-axis"/><g class="span y-axis"><g class="tick grid"><g><line x1="20" y1="109.05399597023391" x2="220" y2="109.05399597023391"/></g><g><line x1="20" y1="83.25172440846237" x2="220" y2="83.25172440846237"/></g><g><line x1="20" y1="57.44945284669084" x2="220" y2="57.44945284669084"/></g><g><line x1="20" y1="31.6471812849193" x2="220" y2="31.6471812849193"/></g></g></g></g><g class="content"><g><g class="box-plot"><g class="scatter"><circle class="marker fill-c0 weak" cx="59.39393939393939" cy="72.4593563944156" r="2.5"/></g><path class="area fill-c0 weak" d="M38.182,89.814L80.606,89.814L80.606,101.198L38.182,101.198Z"/><g class="span"><g class="tick major"><g><line x1="59.39393939393939" y1="112.61437908496733" x2="64.39393939393939" y2="112.61437908496733"/><line x1="59.39393939393939" y1="112.61437908496733" x2="54.39393939393939" y2="112.61437908496733"/></g></g><line x1="59.39393939393939" y1="112.61437908496733" x2="59.39393939393939" y2="101.1983279193766"/></g><g class="span"><g class="tick major"><g><line x1="59.39393939393939" y1="75.44730982741034" x2="64.39393939393939" y2="75.44730982741034"/><line x1="59.39393939393939" y1="75.44730982741034" x2="54.39393939393939" y2="75.44730982741034"/></g></g><line x1="59.39393939393939" y1="89.81350284653139" x2="59.39393939393939" y2="75.44730982741034"/></g><g class="span"><g class="tick major"><g><line x1="38.18181818181819" y1="101.1983279193766" x2="80.60606060606061" y2="101.1983279193766"/></g><g><line x1="38.18181818181819" y1="96.13437218933348" x2="80.60606060606061" y2="96.13437218933348"/></g><g><line x1="38.18181818181819" y1="89.81350284653139" x2="80.60606060606061" y2="89.81350284653139"/></g></g><line x1="38.18181818181819" y1="101.1983279193766" x2="38.18181818181819" y2="89.81350284653139"/></g><g class="span"><line x1="80.60606060606061" y1="101.1983279193766" x2="80.60606060606061" y2="89.81350284653139"/></g></g><g class="box-plot"><g class="scatter"><circle class="marker fill-c1 weak" cx="120" cy="36.792547760588235" r="2.5"/></g><path class="area fill-c1 weak" d="M98.788,73.431L141.212,73.431L141.212,91.381L98.788,91.381Z"/><g class="span"><g class="tick major"><g><line x1="120" y1="103.68835199266164" x2="125" y2="103.68835199266164"/><line x1="120" y1="103.68835199266164" x2="115" y2="103.68835199266164"/></g></g><line x1="120" y1="103.68835199266164" x2="120" y2="91.38112022732412"/></g><g class="span"><g class="tick major"><g><line x1="120" y1="51.740134365001346" x2="125" y2="51.740134365001346"/><line x1="120" y1="51.740134365001346" x2="115" y2="51.740134365001346"/></g></g><line x1="120" y1="73.43145281300671" x2="120" y2="51.740134365001346"/></g><g class="span"><g class="tick major"><g><line x1="98.78787878787878" y1="91.38112022732412" x2="141.21212121212122" y2="91.38112022732412"/></g><g><line x1="98.78787878787878" y1="87.12968451601805" x2="141.21212121212122" y2="87.12968451601805"/></g><g><line x1="98.78787878787878" y1="73.43145281300671" x2="141.21212121212122" y2="73.43145281300671"/></g></g><line x1="98.78787878787878" y1="91.38112022732412" x2="98.78787878787878" y2="73.43145281300671"/></g><g class="span"><line x1="141.21212121212122" y1="91.38112022732412" x2="141.21212121212122" y2="73.43145281300671"/></g></g><g class="box-plot"><g class="scatter"><circle class="marker fill-c2 weak" cx="180.60606060606062" cy="96.7360725272321" r="2.5"/></g><path class="area fill-c2 weak" d="M159.394,44.939L201.818,44.939L201.818,64.387L159.394,64.387Z"/><g class="span"><g class="tick major"><g><line x1="180.60606060606062" y1="84.05846871144003" x2="185.60606060606062" y2="84.05846871144003"/><line x1="180.60606060606062" y1="84.05846871144003" x2="175.60606060606062" y2="84.05846871144003"/></g></g><line x1="180.60606060606062" y1="84.05846871144003" x2="180.60606060606062" y2="64.38707559712859"/></g><g class="span"><g class="tick major"><g><line x1="180.60606060606062" y1="29.156862745098046" x2="185.60606060606062" y2="29.156862745098046"/><line x1="180.60606060606062" y1="29.156862745098046" x2="175.60606060606062" y2="29.156862745098046"/></g></g><line x1="180.60606060606062" y1="44.9392213686194" x2="180.60606060606062" y2="29.156862745098046"/></g><g class="span"><g class="tick major"><g><line x1="159.39393939393938" y1="64.38707559712859" x2="201.81818181818184" y2="64.38707559712859"/></g><g><line x1="159.39393939393938" y1="61.405643970722096" x2="201.81818181818184" y2="61.405643970722096"/></g><g><line x1="159.39393939393938" y1="44.9392213686194" x2="201.81818181818184" y2="44.9392213686194"/></g></g><line x1="159.39393939393938" y1="64.38707559712859" x2="159.39393939393938" y2="44.9392213686194"/></g><g class="span"><line x1="201.81818181818184" y1="64.38707559712859" x2="201.81818181818184" y2="44.9392213686194"/></g></g></g><g><g class="span"><g class="tick major"><g><text class="" text-anchor="middle" alignment-baseline="text-top" dominant-baseline="text-top" transform="translate(89.69696969696972, 20) rotate(0)"><tspan x="0" y="0em" text-anchor="middle" alignment-baseline="text-top" dominant-baseline="text-top">*</tspan></text></g></g><g class="tick delimiter"><g><line x1="71.51515151515152" y1="19" x2="71.51515151515152" y2="21"/></g><g><line x1="107.8787878787879" y1="19" x2="107.8787878787879" y2="21"/></g></g><line x1="71.51515151515152" y1="19" x2="107.8787878787879" y2="19"/></g><g class="span"><g class="tick major"><g><text class="" text-anchor="middle" alignment-baseline="text-top" dominant-baseline="text-top" transform="translate(150.3030303030303, 20) rotate(0)"><tspan x="0" y="0em" text-anchor="middle" alignment-baseline="text-top" dominant-baseline="text-top">*</tspan></text></g></g><g class="tick delimiter"><g><line x1="132.12121212121212" y1="19" x2="132.12121212121212" y2="21"/></g><g><line x1="168.4848484848485" y1="19" x2="168.4848484848485" y2="21"/></g></g><line x1="132.12121212121212" y1="19" x2="168.4848484848485" y2="19"/></g></g></g><g class="frame"><g class="span x-axis"><g class="tick major"><g><line x1="59.3939393939394" y1="7" x2="59.3939393939394" y2="11"/></g><g><line x1="120" y1="7" x2="120" y2="11"/></g><g><line x1="180.60606060606062" y1="7" x2="180.60606060606062" y2="11"/></g></g><line x1="20" y1="7" x2="220" y2="7"/></g><g class="span x-axis"><g class="tick major"><g><line x1="59.3939393939394" y1="120" x2="59.3939393939394" y2="116"/></g><g><line x1="120" y1="120" x2="120" y2="116"/></g><g><line x1="180.60606060606062" y1="120" x2="180.60606060606062" y2="116"/></g></g><g class="tick label"><g><text class="small" text-anchor="middle" alignment-baseline="hanging" dominant-baseline="hanging" transform="translate(120, 124) rotate(0)"><tspan x="0" y="0em" text-anchor="middle" alignment-baseline="hanging" dominant-baseline="hanging"><tspan class="mono" text-anchor="middle" alignment-baseline="hanging" dominant-baseline="hanging">stride_length_apdm_d2_abs_μ</tspan></tspan><tspan x="0" y="1em" text-anchor="middle" alignment-baseline="hanging" dominant-baseline="hanging"><tspan class="mono" text-anchor="middle" alignment-baseline="hanging" dominant-baseline="hanging">μ</tspan></tspan><tspan x="0" y="2em" text-anchor="middle" alignment-baseline="hanging" dominant-baseline="hanging"><tspan class="mono" text-anchor="middle" alignment-baseline="hanging" dominant-baseline="hanging">all</tspan></tspan><tspan x="0" y="3em" text-anchor="middle" alignment-baseline="hanging" dominant-baseline="hanging"><tspan class="mono" text-anchor="middle" alignment-baseline="hanging" dominant-baseline="hanging">μ</tspan></tspan></text></g></g><line x1="20" y1="120" x2="220" y2="120"/></g><g class="span y-axis"><g class="tick minor"><g><line x1="20" y1="102.60342807979103" x2="22" y2="102.60342807979103"/></g><g><line x1="20" y1="96.15286018934815" x2="22" y2="96.15286018934815"/></g><g><line x1="20" y1="89.70229229890526" x2="22" y2="89.70229229890526"/></g><g><line x1="20" y1="76.8011565180195" x2="22" y2="76.8011565180195"/></g><g><line x1="20" y1="70.3505886275766" x2="22" y2="70.3505886275766"/></g><g><line x1="20" y1="63.90002073713372" x2="22" y2="63.90002073713372"/></g><g><line x1="20" y1="50.99888495624795" x2="22" y2="50.99888495624795"/></g><g><line x1="20" y1="44.548317065805065" x2="22" y2="44.548317065805065"/></g><g><line x1="20" y1="38.09774917536218" x2="22" y2="38.09774917536218"/></g></g><g class="tick major"><g><line x1="20" y1="109.05399597023391" x2="24" y2="109.05399597023391"/><text class="" text-anchor="end" alignment-baseline="middle" dominant-baseline="middle" transform="translate(16, 109.05399597023391) rotate(0)"><tspan x="0" y="0em" text-anchor="end" alignment-baseline="middle" dominant-baseline="middle">.005</tspan></text></g><g><line x1="20" y1="83.25172440846237" x2="24" y2="83.25172440846237"/><text class="" text-anchor="end" alignment-baseline="middle" dominant-baseline="middle" transform="translate(16, 83.25172440846237) rotate(0)"><tspan x="0" y="0em" text-anchor="end" alignment-baseline="middle" dominant-baseline="middle">.01</tspan></text></g><g><line x1="20" y1="57.44945284669084" x2="24" y2="57.44945284669084"/><text class="" text-anchor="end" alignment-baseline="middle" dominant-baseline="middle" transform="translate(16, 57.44945284669084) rotate(0)"><tspan x="0" y="0em" text-anchor="end" alignment-baseline="middle" dominant-baseline="middle">.015</tspan></text></g><g><line x1="20" y1="31.6471812849193" x2="24" y2="31.6471812849193"/><text class="" text-anchor="end" alignment-baseline="middle" dominant-baseline="middle" transform="translate(16, 31.6471812849193) rotate(0)"><tspan x="0" y="0em" text-anchor="end" alignment-baseline="middle" dominant-baseline="middle">.02</tspan></text></g></g><line x1="20" y1="120" x2="20" y2="7"/></g><g class="span y-axis"><g class="tick minor"><g><line x1="220" y1="102.60342807979103" x2="218" y2="102.60342807979103"/></g><g><line x1="220" y1="96.15286018934815" x2="218" y2="96.15286018934815"/></g><g><line x1="220" y1="89.70229229890526" x2="218" y2="89.70229229890526"/></g><g><line x1="220" y1="76.8011565180195" x2="218" y2="76.8011565180195"/></g><g><line x1="220" y1="70.3505886275766" x2="218" y2="70.3505886275766"/></g><g><line x1="220" y1="63.90002073713372" x2="218" y2="63.90002073713372"/></g><g><line x1="220" y1="50.99888495624795" x2="218" y2="50.99888495624795"/></g><g><line x1="220" y1="44.548317065805065" x2="218" y2="44.548317065805065"/></g><g><line x1="220" y1="38.09774917536218" x2="218" y2="38.09774917536218"/></g></g><g class="tick major"><g><line x1="220" y1="109.05399597023391" x2="216" y2="109.05399597023391"/><text class="" text-anchor="start" alignment-baseline="middle" dominant-baseline="middle" transform="translate(224, 109.05399597023391) rotate(0)"><tspan x="0" y="0em" text-anchor="start" alignment-baseline="middle" dominant-baseline="middle">.005</tspan></text></g><g><line x1="220" y1="83.25172440846237" x2="216" y2="83.25172440846237"/><text class="" text-anchor="start" alignment-baseline="middle" dominant-baseline="middle" transform="translate(224, 83.25172440846237) rotate(0)"><tspan x="0" y="0em" text-anchor="start" alignment-baseline="middle" dominant-baseline="middle">.01</tspan></text></g><g><line x1="220" y1="57.44945284669084" x2="216" y2="57.44945284669084"/><text class="" text-anchor="start" alignment-baseline="middle" dominant-baseline="middle" transform="translate(224, 57.44945284669084) rotate(0)"><tspan x="0" y="0em" text-anchor="start" alignment-baseline="middle" dominant-baseline="middle">.015</tspan></text></g><g><line x1="220" y1="31.6471812849193" x2="216" y2="31.6471812849193"/><text class="" text-anchor="start" alignment-baseline="middle" dominant-baseline="middle" transform="translate(224, 31.6471812849193) rotate(0)"><tspan x="0" y="0em" text-anchor="start" alignment-baseline="middle" dominant-baseline="middle">.02</tspan></text></g></g><line x1="220" y1="120" x2="220" y2="7"/></g></g></g></svg>