<svg xmlns="http://www.w3.org/2000/svg" class="context figure cross-sectional-box-plot" width="240" height="160" viewBox="0 0 240 160" preserveAspectRatio="xMidYMid"><style>@page {
  size: 240px 160px;  margin: 0px;  padding: 0px;}</style><style>svg{--background:white;--c0:#4e79a7;--c1:#f28e2c;--c2:#e15759;--c3:#76b7b2;--c4:#59a14f;--c5:#edc949;--c6:#af7aa1;--c7:#ff9da7;--c8:#9c755f;--c9:#bab0ab;font-size:12px}.fill-c0{fill:var(--c0)}.fill-c1{fill:var(--c1)}.fill-c2{fill:var(--c2)}.fill-c3{fill:var(--c3)}.fill-c4{fill:var(--c4)}.fill-c5{fill:var(--c5)}.fill-c6{fill:var(--c6)}.fill-c7{fill:var(--c7)}.fill-c8{fill:var(--c8)}.fill-c9{fill:var(--c9)}.stroke-c0{stroke:var(--c0)}.stroke-c1{stroke:var(--c1)}.stroke-c2{stroke:var(--c2)}.stroke-c3{stroke:var(--c3)}.stroke-c4{stroke:var(--c4)}.stroke-c5{stroke:var(--c5)}.stroke-c6{stroke:var(--c6)}.stroke-c7{stroke:var(--c7)}.stroke-c8{stroke:var(--c8)}.stroke-c9{stroke:var(--c9)}.fill-black{fill:#000}.fill-white{fill:#fff}.fill-gray{fill:gray}.stroke-black{stroke:#000}.stroke-white{stroke:#fff}.stroke-gray{stroke:gray}.weak{opacity:.5}.weaker{opacity:.25}.weakest{opacity:.125}.dashed{stroke-dasharray:2px 2px}.small{font-size:.75em}.smaller{font-size:.6em}text{stroke:none}.mono{font-family:monospace}.figure>.background{fill:var(--background)}.curve{fill:none;stroke-width:1.75px}.assoc,.span{fill:none;stroke-width:1px;stroke-linecap:round}.assoc.thick{stroke-width:calc(1px*1.5)}.span{fill:#aaa;stroke:#aaa}.label,.panel,.span{font-family:sans-serif}.label,.panel{fill:#777}.panel .frame{stroke:#aaa;fill:var(--background);fill-opacity:.5}.grid line,.tick{stroke-width:1px;stroke-linecap:round}.tick.major{font-size:.75em}.grid line{stroke:#ccc;stroke-dasharray:0 2.4px}.grid line.origin{stroke-dasharray:none}</style><rect class="background" x="0" y="0" width="240" height="160"/><g class="context plot"><g class="grid"><g class="span x-axis"/><g class="span y-axis"><g class="tick grid"><g><line x1="20" y1="115.07808195566398" x2="220" y2="115.07808195566398"/></g><g><line x1="20" y1="90.52986441908078" x2="220" y2="90.52986441908078"/></g><g><line x1="20" y1="65.98164688249757" x2="220" y2="65.98164688249757"/></g><g><line x1="20" y1="41.43342934591438" x2="220" y2="41.43342934591438"/></g><g><line x1="20" y1="16.885211809331167" x2="220" y2="16.885211809331167"/></g></g></g></g><g class="content"><g><g class="box-plot"/><g class="box-plot"><g class="scatter"/><path class="area fill-c1 weak" d="M98.788,88.671L141.212,88.671L141.212,104.649L98.788,104.649Z"/><g class="span"><g class="tick major"><g><line x1="120" y1="112.61437908496733" x2="125" y2="112.61437908496733"/><line x1="120" y1="112.61437908496733" x2="115" y2="112.61437908496733"/></g></g><line x1="120" y1="112.61437908496733" x2="120" y2="104.6491595894757"/></g><g class="span"><g class="tick major"><g><line x1="120" y1="78.258313597562" x2="125" y2="78.258313597562"/><line x1="120" y1="78.258313597562" x2="115" y2="78.258313597562"/></g></g><line x1="120" y1="88.67081764936891" x2="120" y2="78.258313597562"/></g><g class="span"><g class="tick major"><g><line x1="98.78787878787878" y1="104.6491595894757" x2="141.21212121212122" y2="104.6491595894757"/></g><g><line x1="98.78787878787878" y1="92.97808856593491" x2="141.21212121212122" y2="92.97808856593491"/></g><g><line x1="98.78787878787878" y1="88.67081764936891" x2="141.21212121212122" y2="88.67081764936891"/></g></g><line x1="98.78787878787878" y1="104.6491595894757" x2="98.78787878787878" y2="88.67081764936891"/></g><g class="span"><line x1="141.21212121212122" y1="104.6491595894757" x2="141.21212121212122" y2="88.67081764936891"/></g></g><g class="box-plot"><g class="scatter"><circle class="marker fill-c2 weak" cx="180.60606060606062" cy="29.156862745098046" r="2.5"/></g><path class="area fill-c2 weak" d="M159.394,58.614L201.818,58.614L201.818,68.448L159.394,68.448Z"/><g class="span"><g class="tick major"><g><line x1="180.60606060606062" y1="74.16759780828744" x2="185.60606060606062" y2="74.16759780828744"/><line x1="180.60606060606062" y1="74.16759780828744" x2="175.60606060606062" y2="74.16759780828744"/></g></g><line x1="180.60606060606062" y1="74.16759780828744" x2="180.60606060606062" y2="68.4479024013496"/></g><g class="span"><g class="tick major"><g><line x1="180.60606060606062" y1="51.23224862423655" x2="185.60606060606062" y2="51.23224862423655"/><line x1="180.60606060606062" y1="51.23224862423655" x2="175.60606060606062" y2="51.23224862423655"/></g></g><line x1="180.60606060606062" y1="58.614491855030565" x2="180.60606060606062" y2="51.23224862423655"/></g><g class="span"><g class="tick major"><g><line x1="159.39393939393938" y1="68.4479024013496" x2="201.81818181818184" y2="68.4479024013496"/></g><g><line x1="159.39393939393938" y1="65.97790615781045" x2="201.81818181818184" y2="65.97790615781045"/></g><g><line x1="159.39393939393938" y1="58.614491855030565" x2="201.81818181818184" y2="58.614491855030565"/></g></g><line x1="159.39393939393938" y1="68.4479024013496" x2="159.39393939393938" y2="58.614491855030565"/></g><g class="span"><line x1="201.81818181818184" y1="68.4479024013496" x2="201.81818181818184" y2="58.614491855030565"/></g></g></g><g><g class="span"><g class="tick major"><g><text class="" text-anchor="middle" alignment-baseline="text-top" dominant-baseline="text-top" transform="translate(150.3030303030303, 20) rotate(0)"><tspan x="0" y="0em" text-anchor="middle" alignment-baseline="text-top" dominant-baseline="text-top">*</tspan></text></g></g><g class="tick delimiter"><g><line x1="132.12121212121212" y1="19" x2="132.12121212121212" y2="21"/></g><g><line x1="168.4848484848485" y1="19" x2="168.4848484848485" y2="21"/></g></g><line x1="132.12121212121212" y1="19" x2="168.4848484848485" y2="19"/></g></g></g><g class="frame"><g class="span x-axis"><g class="tick major"><g><line x1="59.3939393939394" y1="7" x2="59.3939393939394" y2="11"/></g><g><line x1="120" y1="7" x2="120" y2="11"/></g><g><line x1="180.60606060606062" y1="7" x2="180.60606060606062" y2="11"/></g></g><line x1="20" y1="7" x2="220" y2="7"/></g><g class="span x-axis"><g class="tick major"><g><line x1="59.3939393939394" y1="120" x2="59.3939393939394" y2="116"/></g><g><line x1="120" y1="120" x2="120" y2="116"/></g><g><line x1="180.60606060606062" y1="120" x2="180.60606060606062" y2="116"/></g></g><g class="tick label"><g><text class="small" text-anchor="middle" alignment-baseline="hanging" dominant-baseline="hanging" transform="translate(120, 124) rotate(0)"><tspan x="0" y="0em" text-anchor="middle" alignment-baseline="hanging" dominant-baseline="hanging"><tspan class="mono" text-anchor="middle" alignment-baseline="hanging" dominant-baseline="hanging">sara</tspan></tspan></text></g></g><line x1="20" y1="120" x2="220" y2="120"/></g><g class="span y-axis"><g class="tick minor"><g><line x1="20" y1="108.94102757151818" x2="22" y2="108.94102757151818"/></g><g><line x1="20" y1="102.80397318737238" x2="22" y2="102.80397318737238"/></g><g><line x1="20" y1="96.66691880322658" x2="22" y2="96.66691880322658"/></g><g><line x1="20" y1="84.39281003493497" x2="22" y2="84.39281003493497"/></g><g><line x1="20" y1="78.25575565078918" x2="22" y2="78.25575565078918"/></g><g><line x1="20" y1="72.11870126664337" x2="22" y2="72.11870126664337"/></g><g><line x1="20" y1="59.84459249835178" x2="22" y2="59.84459249835178"/></g><g><line x1="20" y1="53.707538114205974" x2="22" y2="53.707538114205974"/></g><g><line x1="20" y1="47.570483730060175" x2="22" y2="47.570483730060175"/></g><g><line x1="20" y1="35.29637496176858" x2="22" y2="35.29637496176858"/></g><g><line x1="20" y1="29.15932057762278" x2="22" y2="29.15932057762278"/></g><g><line x1="20" y1="23.02226619347698" x2="22" y2="23.02226619347698"/></g></g><g class="tick major"><g><line x1="20" y1="115.07808195566398" x2="24" y2="115.07808195566398"/><text class="" text-anchor="end" alignment-baseline="middle" dominant-baseline="middle" transform="translate(16, 115.07808195566398) rotate(0)"><tspan x="0" y="0em" text-anchor="end" alignment-baseline="middle" dominant-baseline="middle">0</tspan></text></g><g><line x1="20" y1="90.52986441908078" x2="24" y2="90.52986441908078"/><text class="" text-anchor="end" alignment-baseline="middle" dominant-baseline="middle" transform="translate(16, 90.52986441908078) rotate(0)"><tspan x="0" y="0em" text-anchor="end" alignment-baseline="middle" dominant-baseline="middle">5</tspan></text></g><g><line x1="20" y1="65.98164688249757" x2="24" y2="65.98164688249757"/><text class="" text-anchor="end" alignment-baseline="middle" dominant-baseline="middle" transform="translate(16, 65.98164688249757) rotate(0)"><tspan x="0" y="0em" text-anchor="end" alignment-baseline="middle" dominant-baseline="middle">10</tspan></text></g><g><line x1="20" y1="41.43342934591438" x2="24" y2="41.43342934591438"/><text class="" text-anchor="end" alignment-baseline="middle" dominant-baseline="middle" transform="translate(16, 41.43342934591438) rotate(0)"><tspan x="0" y="0em" text-anchor="end" alignment-baseline="middle" dominant-baseline="middle">15</tspan></text></g><g><line x1="20" y1="16.885211809331167" x2="24" y2="16.885211809331167"/><text class="" text-anchor="end" alignment-baseline="middle" dominant-baseline="middle" transform="translate(16, 16.885211809331167) rotate(0)"><tspan x="0" y="0em" text-anchor="end" alignment-baseline="middle" dominant-baseline="middle">20</tspan></text></g></g><line x1="20" y1="120" x2="20" y2="7"/></g><g class="span y-axis"><g class="tick minor"><g><line x1="220" y1="108.94102757151818" x2="218" y2="108.94102757151818"/></g><g><line x1="220" y1="102.80397318737238" x2="218" y2="102.80397318737238"/></g><g><line x1="220" y1="96.66691880322658" x2="218" y2="96.66691880322658"/></g><g><line x1="220" y1="84.39281003493497" x2="218" y2="84.39281003493497"/></g><g><line x1="220" y1="78.25575565078918" x2="218" y2="78.25575565078918"/></g><g><line x1="220" y1="72.11870126664337" x2="218" y2="72.11870126664337"/></g><g><line x1="220" y1="59.84459249835178" x2="218" y2="59.84459249835178"/></g><g><line x1="220" y1="53.707538114205974" x2="218" y2="53.707538114205974"/></g><g><line x1="220" y1="47.570483730060175" x2="218" y2="47.570483730060175"/></g><g><line x1="220" y1="35.29637496176858" x2="218" y2="35.29637496176858"/></g><g><line x1="220" y1="29.15932057762278" x2="218" y2="29.15932057762278"/></g><g><line x1="220" y1="23.02226619347698" x2="218" y2="23.02226619347698"/></g></g><g class="tick major"><g><line x1="220" y1="115.07808195566398" x2="216" y2="115.07808195566398"/><text class="" text-anchor="start" alignment-baseline="middle" dominant-baseline="middle" transform="translate(224, 115.07808195566398) rotate(0)"><tspan x="0" y="0em" text-anchor="start" alignment-baseline="middle" dominant-baseline="middle">0</tspan></text></g><g><line x1="220" y1="90.52986441908078" x2="216" y2="90.52986441908078"/><text class="" text-anchor="start" alignment-baseline="middle" dominant-baseline="middle" transform="translate(224, 90.52986441908078) rotate(0)"><tspan x="0" y="0em" text-anchor="start" alignment-baseline="middle" dominant-baseline="middle">5</tspan></text></g><g><line x1="220" y1="65.98164688249757" x2="216" y2="65.98164688249757"/><text class="" text-anchor="start" alignment-baseline="middle" dominant-baseline="middle" transform="translate(224, 65.98164688249757) rotate(0)"><tspan x="0" y="0em" text-anchor="start" alignment-baseline="middle" dominant-baseline="middle">10</tspan></text></g><g><line x1="220" y1="41.43342934591438" x2="216" y2="41.43342934591438"/><text class="" text-anchor="start" alignment-baseline="middle" dominant-baseline="middle" transform="translate(224, 41.43342934591438) rotate(0)"><tspan x="0" y="0em" text-anchor="start" alignment-baseline="middle" dominant-baseline="middle">15</tspan></text></g><g><line x1="220" y1="16.885211809331167" x2="216" y2="16.885211809331167"/><text class="" text-anchor="start" alignment-baseline="middle" dominant-baseline="middle" transform="translate(224, 16.885211809331167) rotate(0)"><tspan x="0" y="0em" text-anchor="start" alignment-baseline="middle" dominant-baseline="middle">20</tspan></text></g></g><line x1="220" y1="120" x2="220" y2="7"/></g></g></g></svg>