<svg xmlns="http://www.w3.org/2000/svg" class="context figure cross-sectional-box-plot" width="240" height="160" viewBox="0 0 240 160" preserveAspectRatio="xMidYMid"><style>@page {
  size: 240px 160px;  margin: 0px;  padding: 0px;}</style><style>svg{--background:white;--c0:#4e79a7;--c1:#f28e2c;--c2:#e15759;--c3:#76b7b2;--c4:#59a14f;--c5:#edc949;--c6:#af7aa1;--c7:#ff9da7;--c8:#9c755f;--c9:#bab0ab;font-size:12px}.fill-c0{fill:var(--c0)}.fill-c1{fill:var(--c1)}.fill-c2{fill:var(--c2)}.fill-c3{fill:var(--c3)}.fill-c4{fill:var(--c4)}.fill-c5{fill:var(--c5)}.fill-c6{fill:var(--c6)}.fill-c7{fill:var(--c7)}.fill-c8{fill:var(--c8)}.fill-c9{fill:var(--c9)}.stroke-c0{stroke:var(--c0)}.stroke-c1{stroke:var(--c1)}.stroke-c2{stroke:var(--c2)}.stroke-c3{stroke:var(--c3)}.stroke-c4{stroke:var(--c4)}.stroke-c5{stroke:var(--c5)}.stroke-c6{stroke:var(--c6)}.stroke-c7{stroke:var(--c7)}.stroke-c8{stroke:var(--c8)}.stroke-c9{stroke:var(--c9)}.fill-black{fill:#000}.fill-white{fill:#fff}.fill-gray{fill:gray}.stroke-black{stroke:#000}.stroke-white{stroke:#fff}.stroke-gray{stroke:gray}.weak{opacity:.5}.weaker{opacity:.25}.weakest{opacity:.125}.dashed{stroke-dasharray:2px 2px}.small{font-size:.75em}.smaller{font-size:.6em}text{stroke:none}.mono{font-family:monospace}.figure>.background{fill:var(--background)}.curve{fill:none;stroke-width:1.75px}.assoc,.span{fill:none;stroke-width:1px;stroke-linecap:round}.assoc.thick{stroke-width:calc(1px*1.5)}.span{fill:#aaa;stroke:#aaa}.label,.panel,.span{font-family:sans-serif}.label,.panel{fill:#777}.panel .frame{stroke:#aaa;fill:var(--background);fill-opacity:.5}.grid line,.tick{stroke-width:1px;stroke-linecap:round}.tick.major{font-size:.75em}.grid line{stroke:#ccc;stroke-dasharray:0 2.4px}.grid line.origin{stroke-dasharray:none}</style><g class="context plot"><g class="grid"><g class="span x-axis"/><g class="span y-axis"><g class="tick grid"><g><line x1="20" y1="112.61437908496733" x2="220" y2="112.61437908496733"/></g><g><line x1="20" y1="88.77005651834666" x2="220" y2="88.77005651834666"/></g><g><line x1="20" y1="64.92573395172599" x2="220" y2="64.92573395172599"/></g><g><line x1="20" y1="41.08141138510534" x2="220" y2="41.08141138510534"/></g><g><line x1="20" y1="17.23708881848468" x2="220" y2="17.23708881848468"/></g></g></g></g><g class="content"><g><g class="box-plot"><g class="scatter"><circle class="marker fill-c0 weak" cx="59.39393939393939" cy="98.30778554499491" r="2.5"/><circle class="marker fill-c0 weak" cx="59.39393939393939" cy="98.30778554499491" r="2.5"/></g><path class="area fill-c0 weak" d="M38.182,107.249L80.606,107.249L80.606,112.614L38.182,112.614Z"/><g class="span"/><g class="span"><g class="tick major"><g><line x1="59.39393939393939" y1="100.692217801657" x2="64.39393939393939" y2="100.692217801657"/><line x1="59.39393939393939" y1="100.692217801657" x2="54.39393939393939" y2="100.692217801657"/></g></g><line x1="59.39393939393939" y1="107.24940650747767" x2="59.39393939393939" y2="100.692217801657"/></g><g class="span"><g class="tick major"><g><line x1="38.18181818181819" y1="112.61437908496733" x2="80.60606060606061" y2="112.61437908496733"/></g><g><line x1="38.18181818181819" y1="110.22994682830526" x2="80.60606060606061" y2="110.22994682830526"/></g><g><line x1="38.18181818181819" y1="107.24940650747767" x2="80.60606060606061" y2="107.24940650747767"/></g></g><line x1="38.18181818181819" y1="112.61437908496733" x2="38.18181818181819" y2="107.24940650747767"/></g><g class="span"><line x1="80.60606060606061" y1="112.61437908496733" x2="80.60606060606061" y2="107.24940650747767"/></g></g><g class="box-plot"><g class="scatter"/><path class="area fill-c1 weak" d="M98.788,86.964L141.212,86.964L141.212,102.484L98.788,102.484Z"/><g class="span"><g class="tick major"><g><line x1="120" y1="110.22132036819269" x2="125" y2="110.22132036819269"/><line x1="120" y1="110.22132036819269" x2="115" y2="110.22132036819269"/></g></g><line x1="120" y1="110.22132036819269" x2="120" y2="102.48449537544526"/></g><g class="span"><g class="tick major"><g><line x1="120" y1="76.85037983530795" x2="125" y2="76.85037983530795"/><line x1="120" y1="76.85037983530795" x2="115" y2="76.85037983530795"/></g></g><line x1="120" y1="86.96431600878078" x2="120" y2="76.85037983530795"/></g><g class="span"><g class="tick major"><g><line x1="98.78787878787878" y1="102.48449537544526" x2="141.21212121212122" y2="102.48449537544526"/></g><g><line x1="98.78787878787878" y1="91.1480803478155" x2="141.21212121212122" y2="91.1480803478155"/></g><g><line x1="98.78787878787878" y1="86.96431600878078" x2="141.21212121212122" y2="86.96431600878078"/></g></g><line x1="98.78787878787878" y1="102.48449537544526" x2="98.78787878787878" y2="86.96431600878078"/></g><g class="span"><line x1="141.21212121212122" y1="102.48449537544526" x2="141.21212121212122" y2="86.96431600878078"/></g></g><g class="box-plot"><g class="scatter"><circle class="marker fill-c2 weak" cx="180.60606060606062" cy="29.156862745098046" r="2.5"/></g><path class="area fill-c2 weak" d="M159.394,57.77L201.818,57.77L201.818,67.321L159.394,67.321Z"/><g class="span"><g class="tick major"><g><line x1="180.60606060606062" y1="72.87696112731132" x2="185.60606060606062" y2="72.87696112731132"/><line x1="180.60606060606062" y1="72.87696112731132" x2="175.60606060606062" y2="72.87696112731132"/></g></g><line x1="180.60606060606062" y1="72.87696112731132" x2="180.60606060606062" y2="67.32127212208724"/></g><g class="span"><g class="tick major"><g><line x1="180.60606060606062" y1="50.59925956679681" x2="185.60606060606062" y2="50.59925956679681"/><line x1="180.60606060606062" y1="50.59925956679681" x2="175.60606060606062" y2="50.59925956679681"/></g></g><line x1="180.60606060606062" y1="57.76982454154424" x2="180.60606060606062" y2="50.59925956679681"/></g><g class="span"><g class="tick major"><g><line x1="159.39393939393938" y1="67.32127212208724" x2="201.81818181818184" y2="67.32127212208724"/></g><g><line x1="159.39393939393938" y1="64.92210048848413" x2="201.81818181818184" y2="64.92210048848413"/></g><g><line x1="159.39393939393938" y1="57.76982454154424" x2="201.81818181818184" y2="57.76982454154424"/></g></g><line x1="159.39393939393938" y1="67.32127212208724" x2="159.39393939393938" y2="57.76982454154424"/></g><g class="span"><line x1="201.81818181818184" y1="67.32127212208724" x2="201.81818181818184" y2="57.76982454154424"/></g></g></g><g><g class="span"><g class="tick major"><g><text class="" text-anchor="middle" alignment-baseline="text-top" dominant-baseline="text-top" transform="translate(89.69696969696972, 20) rotate(0)"><tspan x="0" y="0em" text-anchor="middle" alignment-baseline="text-top" dominant-baseline="text-top">*</tspan></text></g></g><g class="tick delimiter"><g><line x1="71.51515151515152" y1="19" x2="71.51515151515152" y2="21"/></g><g><line x1="107.8787878787879" y1="19" x2="107.8787878787879" y2="21"/></g></g><line x1="71.51515151515152" y1="19" x2="107.8787878787879" y2="19"/></g><g class="span"><g class="tick major"><g><text class="" text-anchor="middle" alignment-baseline="text-top" dominant-baseline="text-top" transform="translate(150.3030303030303, 20) rotate(0)"><tspan x="0" y="0em" text-anchor="middle" alignment-baseline="text-top" dominant-baseline="text-top">*</tspan></text></g></g><g class="tick delimiter"><g><line x1="132.12121212121212" y1="19" x2="132.12121212121212" y2="21"/></g><g><line x1="168.4848484848485" y1="19" x2="168.4848484848485" y2="21"/></g></g><line x1="132.12121212121212" y1="19" x2="168.4848484848485" y2="19"/></g></g></g><g class="frame"><g class="span x-axis"><g class="tick major"><g><line x1="59.3939393939394" y1="7" x2="59.3939393939394" y2="11"/></g><g><line x1="120" y1="7" x2="120" y2="11"/></g><g><line x1="180.60606060606062" y1="7" x2="180.60606060606062" y2="11"/></g></g><line x1="20" y1="7" x2="220" y2="7"/></g><g class="span x-axis"><g class="tick major"><g><line x1="59.3939393939394" y1="120" x2="59.3939393939394" y2="116"/></g><g><line x1="120" y1="120" x2="120" y2="116"/></g><g><line x1="180.60606060606062" y1="120" x2="180.60606060606062" y2="116"/></g></g><g class="tick label"><g><text class="small" text-anchor="middle" alignment-baseline="hanging" dominant-baseline="hanging" transform="translate(120, 124) rotate(0)"><tspan x="0" y="0em" text-anchor="middle" alignment-baseline="hanging" dominant-baseline="hanging"><tspan class="mono" text-anchor="middle" alignment-baseline="hanging" dominant-baseline="hanging">sara_sim_1</tspan></tspan></text></g></g><line x1="20" y1="120" x2="220" y2="120"/></g><g class="span y-axis"><g class="tick minor"><g><line x1="20" y1="106.65329844331215" x2="22" y2="106.65329844331215"/></g><g><line x1="20" y1="100.692217801657" x2="22" y2="100.692217801657"/></g><g><line x1="20" y1="94.73113716000182" x2="22" y2="94.73113716000182"/></g><g><line x1="20" y1="82.8089758766915" x2="22" y2="82.8089758766915"/></g><g><line x1="20" y1="76.84789523503633" x2="22" y2="76.84789523503633"/></g><g><line x1="20" y1="70.88681459338116" x2="22" y2="70.88681459338116"/></g><g><line x1="20" y1="58.96465331007084" x2="22" y2="58.96465331007084"/></g><g><line x1="20" y1="53.00357266841567" x2="22" y2="53.00357266841567"/></g><g><line x1="20" y1="47.04249202676051" x2="22" y2="47.04249202676051"/></g><g><line x1="20" y1="35.12033074345017" x2="22" y2="35.12033074345017"/></g><g><line x1="20" y1="29.15925010179501" x2="22" y2="29.15925010179501"/></g><g><line x1="20" y1="23.198169460139837" x2="22" y2="23.198169460139837"/></g></g><g class="tick major"><g><line x1="20" y1="112.61437908496733" x2="24" y2="112.61437908496733"/><text class="" text-anchor="end" alignment-baseline="middle" dominant-baseline="middle" transform="translate(16, 112.61437908496733) rotate(0)"><tspan x="0" y="0em" text-anchor="end" alignment-baseline="middle" dominant-baseline="middle">0</tspan></text></g><g><line x1="20" y1="88.77005651834666" x2="24" y2="88.77005651834666"/><text class="" text-anchor="end" alignment-baseline="middle" dominant-baseline="middle" transform="translate(16, 88.77005651834666) rotate(0)"><tspan x="0" y="0em" text-anchor="end" alignment-baseline="middle" dominant-baseline="middle">5</tspan></text></g><g><line x1="20" y1="64.92573395172599" x2="24" y2="64.92573395172599"/><text class="" text-anchor="end" alignment-baseline="middle" dominant-baseline="middle" transform="translate(16, 64.92573395172599) rotate(0)"><tspan x="0" y="0em" text-anchor="end" alignment-baseline="middle" dominant-baseline="middle">10</tspan></text></g><g><line x1="20" y1="41.08141138510534" x2="24" y2="41.08141138510534"/><text class="" text-anchor="end" alignment-baseline="middle" dominant-baseline="middle" transform="translate(16, 41.08141138510534) rotate(0)"><tspan x="0" y="0em" text-anchor="end" alignment-baseline="middle" dominant-baseline="middle">15</tspan></text></g><g><line x1="20" y1="17.23708881848468" x2="24" y2="17.23708881848468"/><text class="" text-anchor="end" alignment-baseline="middle" dominant-baseline="middle" transform="translate(16, 17.23708881848468) rotate(0)"><tspan x="0" y="0em" text-anchor="end" alignment-baseline="middle" dominant-baseline="middle">20</tspan></text></g></g><line x1="20" y1="120" x2="20" y2="7"/></g><g class="span y-axis"><g class="tick minor"><g><line x1="220" y1="106.65329844331215" x2="218" y2="106.65329844331215"/></g><g><line x1="220" y1="100.692217801657" x2="218" y2="100.692217801657"/></g><g><line x1="220" y1="94.73113716000182" x2="218" y2="94.73113716000182"/></g><g><line x1="220" y1="82.8089758766915" x2="218" y2="82.8089758766915"/></g><g><line x1="220" y1="76.84789523503633" x2="218" y2="76.84789523503633"/></g><g><line x1="220" y1="70.88681459338116" x2="218" y2="70.88681459338116"/></g><g><line x1="220" y1="58.96465331007084" x2="218" y2="58.96465331007084"/></g><g><line x1="220" y1="53.00357266841567" x2="218" y2="53.00357266841567"/></g><g><line x1="220" y1="47.04249202676051" x2="218" y2="47.04249202676051"/></g><g><line x1="220" y1="35.12033074345017" x2="218" y2="35.12033074345017"/></g><g><line x1="220" y1="29.15925010179501" x2="218" y2="29.15925010179501"/></g><g><line x1="220" y1="23.198169460139837" x2="218" y2="23.198169460139837"/></g></g><g class="tick major"><g><line x1="220" y1="112.61437908496733" x2="216" y2="112.61437908496733"/><text class="" text-anchor="start" alignment-baseline="middle" dominant-baseline="middle" transform="translate(224, 112.61437908496733) rotate(0)"><tspan x="0" y="0em" text-anchor="start" alignment-baseline="middle" dominant-baseline="middle">0</tspan></text></g><g><line x1="220" y1="88.77005651834666" x2="216" y2="88.77005651834666"/><text class="" text-anchor="start" alignment-baseline="middle" dominant-baseline="middle" transform="translate(224, 88.77005651834666) rotate(0)"><tspan x="0" y="0em" text-anchor="start" alignment-baseline="middle" dominant-baseline="middle">5</tspan></text></g><g><line x1="220" y1="64.92573395172599" x2="216" y2="64.92573395172599"/><text class="" text-anchor="start" alignment-baseline="middle" dominant-baseline="middle" transform="translate(224, 64.92573395172599) rotate(0)"><tspan x="0" y="0em" text-anchor="start" alignment-baseline="middle" dominant-baseline="middle">10</tspan></text></g><g><line x1="220" y1="41.08141138510534" x2="216" y2="41.08141138510534"/><text class="" text-anchor="start" alignment-baseline="middle" dominant-baseline="middle" transform="translate(224, 41.08141138510534) rotate(0)"><tspan x="0" y="0em" text-anchor="start" alignment-baseline="middle" dominant-baseline="middle">15</tspan></text></g><g><line x1="220" y1="17.23708881848468" x2="216" y2="17.23708881848468"/><text class="" text-anchor="start" alignment-baseline="middle" dominant-baseline="middle" transform="translate(224, 17.23708881848468) rotate(0)"><tspan x="0" y="0em" text-anchor="start" alignment-baseline="middle" dominant-baseline="middle">20</tspan></text></g></g><line x1="220" y1="120" x2="220" y2="7"/></g></g></g></svg>