<svg xmlns="http://www.w3.org/2000/svg" class="context figure cross-sectional-box-plot" width="240" height="160" viewBox="0 0 240 160" preserveAspectRatio="xMidYMid"><style>@page {
  size: 240px 160px;  margin: 0px;  padding: 0px;}</style><style>svg{--background:white;--c0:#4e79a7;--c1:#f28e2c;--c2:#e15759;--c3:#76b7b2;--c4:#59a14f;--c5:#edc949;--c6:#af7aa1;--c7:#ff9da7;--c8:#9c755f;--c9:#bab0ab;font-size:12px}.fill-c0{fill:var(--c0)}.fill-c1{fill:var(--c1)}.fill-c2{fill:var(--c2)}.fill-c3{fill:var(--c3)}.fill-c4{fill:var(--c4)}.fill-c5{fill:var(--c5)}.fill-c6{fill:var(--c6)}.fill-c7{fill:var(--c7)}.fill-c8{fill:var(--c8)}.fill-c9{fill:var(--c9)}.stroke-c0{stroke:var(--c0)}.stroke-c1{stroke:var(--c1)}.stroke-c2{stroke:var(--c2)}.stroke-c3{stroke:var(--c3)}.stroke-c4{stroke:var(--c4)}.stroke-c5{stroke:var(--c5)}.stroke-c6{stroke:var(--c6)}.stroke-c7{stroke:var(--c7)}.stroke-c8{stroke:var(--c8)}.stroke-c9{stroke:var(--c9)}.fill-black{fill:#000}.fill-white{fill:#fff}.fill-gray{fill:gray}.stroke-black{stroke:#000}.stroke-white{stroke:#fff}.stroke-gray{stroke:gray}.weak{opacity:.5}.weaker{opacity:.25}.weakest{opacity:.125}.dashed{stroke-dasharray:2px 2px}.small{font-size:.75em}.smaller{font-size:.6em}text{stroke:none}.mono{font-family:monospace}.figure>.background{fill:var(--background)}.curve{fill:none;stroke-width:1.75px}.assoc,.span{fill:none;stroke-width:1px;stroke-linecap:round}.assoc.thick{stroke-width:calc(1px*1.5)}.span{fill:#aaa;stroke:#aaa}.label,.panel,.span{font-family:sans-serif}.label,.panel{fill:#777}.panel .frame{stroke:#aaa;fill:var(--background);fill-opacity:.5}.grid line,.tick{stroke-width:1px;stroke-linecap:round}.tick.major{font-size:.75em}.grid line{stroke:#ccc;stroke-dasharray:0 2.4px}.grid line.origin{stroke-dasharray:none}</style><rect class="background" x="0" y="0" width="240" height="160"/><g class="context plot"><g class="grid"><g class="span x-axis"/><g class="span y-axis"><g class="tick grid"><g><line x1="20" y1="115.19858576052282" x2="220" y2="115.19858576052282"/></g><g><line x1="20" y1="95.74586611575045" x2="220" y2="95.74586611575045"/></g><g><line x1="20" y1="76.29314647097809" x2="220" y2="76.29314647097809"/></g><g><line x1="20" y1="56.84042682620572" x2="220" y2="56.84042682620572"/></g><g><line x1="20" y1="37.387707181433356" x2="220" y2="37.387707181433356"/></g><g><line x1="20" y1="17.934987536660984" x2="220" y2="17.934987536660984"/></g></g></g></g><g class="content"><g><g class="box-plot"><g class="scatter"><circle class="marker fill-c0 weak" cx="59.39393939393939" cy="68.08199451463749" r="2.5"/></g><path class="area fill-c0 weak" d="M38.182,94.29L80.606,94.29L80.606,105.597L38.182,105.597Z"/><g class="span"><g class="tick major"><g><line x1="59.39393939393939" y1="112.61437908496733" x2="64.39393939393939" y2="112.61437908496733"/><line x1="59.39393939393939" y1="112.61437908496733" x2="54.39393939393939" y2="112.61437908496733"/></g></g><line x1="59.39393939393939" y1="112.61437908496733" x2="59.39393939393939" y2="105.59735794353867"/></g><g class="span"><g class="tick major"><g><line x1="59.39393939393939" y1="83.06065320053789" x2="64.39393939393939" y2="83.06065320053789"/><line x1="59.39393939393939" y1="83.06065320053789" x2="54.39393939393939" y2="83.06065320053789"/></g></g><line x1="59.39393939393939" y1="94.28980177961832" x2="59.39393939393939" y2="83.06065320053789"/></g><g class="span"><g class="tick major"><g><line x1="38.18181818181819" y1="105.59735794353867" x2="80.60606060606061" y2="105.59735794353867"/></g><g><line x1="38.18181818181819" y1="99.0537088195993" x2="80.60606060606061" y2="99.0537088195993"/></g><g><line x1="38.18181818181819" y1="94.28980177961832" x2="80.60606060606061" y2="94.28980177961832"/></g></g><line x1="38.18181818181819" y1="105.59735794353867" x2="38.18181818181819" y2="94.28980177961832"/></g><g class="span"><line x1="80.60606060606061" y1="105.59735794353867" x2="80.60606060606061" y2="94.28980177961832"/></g></g><g class="box-plot"><g class="scatter"><circle class="marker fill-c1 weak" cx="120" cy="46.564041103562396" r="2.5"/></g><path class="area fill-c1 weak" d="M98.788,77.858L141.212,77.858L141.212,96.678L98.788,96.678Z"/><g class="span"><g class="tick major"><g><line x1="120" y1="106.17333341683641" x2="125" y2="106.17333341683641"/><line x1="120" y1="106.17333341683641" x2="115" y2="106.17333341683641"/></g></g><line x1="120" y1="106.17333341683641" x2="120" y2="96.67844371640399"/></g><g class="span"><g class="tick major"><g><line x1="120" y1="54.923466396085445" x2="125" y2="54.923466396085445"/><line x1="120" y1="54.923466396085445" x2="115" y2="54.923466396085445"/></g></g><line x1="120" y1="77.85819426004369" x2="120" y2="54.923466396085445"/></g><g class="span"><g class="tick major"><g><line x1="98.78787878787878" y1="96.67844371640399" x2="141.21212121212122" y2="96.67844371640399"/></g><g><line x1="98.78787878787878" y1="85.53966789805291" x2="141.21212121212122" y2="85.53966789805291"/></g><g><line x1="98.78787878787878" y1="77.85819426004369" x2="141.21212121212122" y2="77.85819426004369"/></g></g><line x1="98.78787878787878" y1="96.67844371640399" x2="98.78787878787878" y2="77.85819426004369"/></g><g class="span"><line x1="141.21212121212122" y1="96.67844371640399" x2="141.21212121212122" y2="77.85819426004369"/></g></g><g class="box-plot"><g class="scatter"/><path class="area fill-c2 weak" d="M159.394,46.615L201.818,46.615L201.818,77.645L159.394,77.645Z"/><g class="span"><g class="tick major"><g><line x1="180.60606060606062" y1="90.72277176503373" x2="185.60606060606062" y2="90.72277176503373"/><line x1="180.60606060606062" y1="90.72277176503373" x2="175.60606060606062" y2="90.72277176503373"/></g></g><line x1="180.60606060606062" y1="90.72277176503373" x2="180.60606060606062" y2="77.64509597897055"/></g><g class="span"><g class="tick major"><g><line x1="180.60606060606062" y1="29.156862745098046" x2="185.60606060606062" y2="29.156862745098046"/><line x1="180.60606060606062" y1="29.156862745098046" x2="175.60606060606062" y2="29.156862745098046"/></g></g><line x1="180.60606060606062" y1="46.6154753011934" x2="180.60606060606062" y2="29.156862745098046"/></g><g class="span"><g class="tick major"><g><line x1="159.39393939393938" y1="77.64509597897055" x2="201.81818181818184" y2="77.64509597897055"/></g><g><line x1="159.39393939393938" y1="66.77860835050384" x2="201.81818181818184" y2="66.77860835050384"/></g><g><line x1="159.39393939393938" y1="46.6154753011934" x2="201.81818181818184" y2="46.6154753011934"/></g></g><line x1="159.39393939393938" y1="77.64509597897055" x2="159.39393939393938" y2="46.6154753011934"/></g><g class="span"><line x1="201.81818181818184" y1="77.64509597897055" x2="201.81818181818184" y2="46.6154753011934"/></g></g></g><g><g class="span"><g class="tick major"><g><text class="" text-anchor="middle" alignment-baseline="text-top" dominant-baseline="text-top" transform="translate(89.69696969696972, 20) rotate(0)"><tspan x="0" y="0em" text-anchor="middle" alignment-baseline="text-top" dominant-baseline="text-top">*</tspan></text></g></g><g class="tick delimiter"><g><line x1="71.51515151515152" y1="19" x2="71.51515151515152" y2="21"/></g><g><line x1="107.8787878787879" y1="19" x2="107.8787878787879" y2="21"/></g></g><line x1="71.51515151515152" y1="19" x2="107.8787878787879" y2="19"/></g><g class="span"><g class="tick major"><g><text class="" text-anchor="middle" alignment-baseline="text-top" dominant-baseline="text-top" transform="translate(150.3030303030303, 20) rotate(0)"><tspan x="0" y="0em" text-anchor="middle" alignment-baseline="text-top" dominant-baseline="text-top">*</tspan></text></g></g><g class="tick delimiter"><g><line x1="132.12121212121212" y1="19" x2="132.12121212121212" y2="21"/></g><g><line x1="168.4848484848485" y1="19" x2="168.4848484848485" y2="21"/></g></g><line x1="132.12121212121212" y1="19" x2="168.4848484848485" y2="19"/></g></g></g><g class="frame"><g class="span x-axis"><g class="tick major"><g><line x1="59.3939393939394" y1="7" x2="59.3939393939394" y2="11"/></g><g><line x1="120" y1="7" x2="120" y2="11"/></g><g><line x1="180.60606060606062" y1="7" x2="180.60606060606062" y2="11"/></g></g><line x1="20" y1="7" x2="220" y2="7"/></g><g class="span x-axis"><g class="tick major"><g><line x1="59.3939393939394" y1="120" x2="59.3939393939394" y2="116"/></g><g><line x1="120" y1="120" x2="120" y2="116"/></g><g><line x1="180.60606060606062" y1="120" x2="180.60606060606062" y2="116"/></g></g><g class="tick label"><g><text class="small" text-anchor="middle" alignment-baseline="hanging" dominant-baseline="hanging" transform="translate(120, 124) rotate(0)"><tspan x="0" y="0em" text-anchor="middle" alignment-baseline="hanging" dominant-baseline="hanging"><tspan class="mono" text-anchor="middle" alignment-baseline="hanging" dominant-baseline="hanging">lateral_step_deviation_apdm_abs_normed_μ</tspan></tspan><tspan x="0" y="1em" text-anchor="middle" alignment-baseline="hanging" dominant-baseline="hanging"><tspan class="mono" text-anchor="middle" alignment-baseline="hanging" dominant-baseline="hanging">μ</tspan></tspan><tspan x="0" y="2em" text-anchor="middle" alignment-baseline="hanging" dominant-baseline="hanging"><tspan class="mono" text-anchor="middle" alignment-baseline="hanging" dominant-baseline="hanging">all</tspan></tspan><tspan x="0" y="3em" text-anchor="middle" alignment-baseline="hanging" dominant-baseline="hanging"><tspan class="mono" text-anchor="middle" alignment-baseline="hanging" dominant-baseline="hanging">μ</tspan></tspan></text></g></g><line x1="20" y1="120" x2="220" y2="120"/></g><g class="span y-axis"><g class="tick minor"><g><line x1="20" y1="110.33540584932973" x2="22" y2="110.33540584932973"/></g><g><line x1="20" y1="105.47222593813663" x2="22" y2="105.47222593813663"/></g><g><line x1="20" y1="100.60904602694355" x2="22" y2="100.60904602694355"/></g><g><line x1="20" y1="90.88268620455736" x2="22" y2="90.88268620455736"/></g><g><line x1="20" y1="86.01950629336426" x2="22" y2="86.01950629336426"/></g><g><line x1="20" y1="81.15632638217117" x2="22" y2="81.15632638217117"/></g><g><line x1="20" y1="71.42996655978499" x2="22" y2="71.42996655978499"/></g><g><line x1="20" y1="66.5667866485919" x2="22" y2="66.5667866485919"/></g><g><line x1="20" y1="61.703606737398815" x2="22" y2="61.703606737398815"/></g><g><line x1="20" y1="51.97724691501263" x2="22" y2="51.97724691501263"/></g><g><line x1="20" y1="47.11406700381954" x2="22" y2="47.11406700381954"/></g><g><line x1="20" y1="42.25088709262644" x2="22" y2="42.25088709262644"/></g><g><line x1="20" y1="32.52452727024027" x2="22" y2="32.52452727024027"/></g><g><line x1="20" y1="27.66134735904717" x2="22" y2="27.66134735904717"/></g><g><line x1="20" y1="22.798167447854084" x2="22" y2="22.798167447854084"/></g></g><g class="tick major"><g><line x1="20" y1="115.19858576052282" x2="24" y2="115.19858576052282"/><text class="" text-anchor="end" alignment-baseline="middle" dominant-baseline="middle" transform="translate(16, 115.19858576052282) rotate(0)"><tspan x="0" y="0em" text-anchor="end" alignment-baseline="middle" dominant-baseline="middle">1</tspan></text></g><g><line x1="20" y1="95.74586611575045" x2="24" y2="95.74586611575045"/><text class="" text-anchor="end" alignment-baseline="middle" dominant-baseline="middle" transform="translate(16, 95.74586611575045) rotate(0)"><tspan x="0" y="0em" text-anchor="end" alignment-baseline="middle" dominant-baseline="middle">2</tspan></text></g><g><line x1="20" y1="76.29314647097809" x2="24" y2="76.29314647097809"/><text class="" text-anchor="end" alignment-baseline="middle" dominant-baseline="middle" transform="translate(16, 76.29314647097809) rotate(0)"><tspan x="0" y="0em" text-anchor="end" alignment-baseline="middle" dominant-baseline="middle">3</tspan></text></g><g><line x1="20" y1="56.84042682620572" x2="24" y2="56.84042682620572"/><text class="" text-anchor="end" alignment-baseline="middle" dominant-baseline="middle" transform="translate(16, 56.84042682620572) rotate(0)"><tspan x="0" y="0em" text-anchor="end" alignment-baseline="middle" dominant-baseline="middle">4</tspan></text></g><g><line x1="20" y1="37.387707181433356" x2="24" y2="37.387707181433356"/><text class="" text-anchor="end" alignment-baseline="middle" dominant-baseline="middle" transform="translate(16, 37.387707181433356) rotate(0)"><tspan x="0" y="0em" text-anchor="end" alignment-baseline="middle" dominant-baseline="middle">5</tspan></text></g><g><line x1="20" y1="17.934987536660984" x2="24" y2="17.934987536660984"/><text class="" text-anchor="end" alignment-baseline="middle" dominant-baseline="middle" transform="translate(16, 17.934987536660984) rotate(0)"><tspan x="0" y="0em" text-anchor="end" alignment-baseline="middle" dominant-baseline="middle">6</tspan></text></g></g><line x1="20" y1="120" x2="20" y2="7"/></g><g class="span y-axis"><g class="tick minor"><g><line x1="220" y1="110.33540584932973" x2="218" y2="110.33540584932973"/></g><g><line x1="220" y1="105.47222593813663" x2="218" y2="105.47222593813663"/></g><g><line x1="220" y1="100.60904602694355" x2="218" y2="100.60904602694355"/></g><g><line x1="220" y1="90.88268620455736" x2="218" y2="90.88268620455736"/></g><g><line x1="220" y1="86.01950629336426" x2="218" y2="86.01950629336426"/></g><g><line x1="220" y1="81.15632638217117" x2="218" y2="81.15632638217117"/></g><g><line x1="220" y1="71.42996655978499" x2="218" y2="71.42996655978499"/></g><g><line x1="220" y1="66.5667866485919" x2="218" y2="66.5667866485919"/></g><g><line x1="220" y1="61.703606737398815" x2="218" y2="61.703606737398815"/></g><g><line x1="220" y1="51.97724691501263" x2="218" y2="51.97724691501263"/></g><g><line x1="220" y1="47.11406700381954" x2="218" y2="47.11406700381954"/></g><g><line x1="220" y1="42.25088709262644" x2="218" y2="42.25088709262644"/></g><g><line x1="220" y1="32.52452727024027" x2="218" y2="32.52452727024027"/></g><g><line x1="220" y1="27.66134735904717" x2="218" y2="27.66134735904717"/></g><g><line x1="220" y1="22.798167447854084" x2="218" y2="22.798167447854084"/></g></g><g class="tick major"><g><line x1="220" y1="115.19858576052282" x2="216" y2="115.19858576052282"/><text class="" text-anchor="start" alignment-baseline="middle" dominant-baseline="middle" transform="translate(224, 115.19858576052282) rotate(0)"><tspan x="0" y="0em" text-anchor="start" alignment-baseline="middle" dominant-baseline="middle">1</tspan></text></g><g><line x1="220" y1="95.74586611575045" x2="216" y2="95.74586611575045"/><text class="" text-anchor="start" alignment-baseline="middle" dominant-baseline="middle" transform="translate(224, 95.74586611575045) rotate(0)"><tspan x="0" y="0em" text-anchor="start" alignment-baseline="middle" dominant-baseline="middle">2</tspan></text></g><g><line x1="220" y1="76.29314647097809" x2="216" y2="76.29314647097809"/><text class="" text-anchor="start" alignment-baseline="middle" dominant-baseline="middle" transform="translate(224, 76.29314647097809) rotate(0)"><tspan x="0" y="0em" text-anchor="start" alignment-baseline="middle" dominant-baseline="middle">3</tspan></text></g><g><line x1="220" y1="56.84042682620572" x2="216" y2="56.84042682620572"/><text class="" text-anchor="start" alignment-baseline="middle" dominant-baseline="middle" transform="translate(224, 56.84042682620572) rotate(0)"><tspan x="0" y="0em" text-anchor="start" alignment-baseline="middle" dominant-baseline="middle">4</tspan></text></g><g><line x1="220" y1="37.387707181433356" x2="216" y2="37.387707181433356"/><text class="" text-anchor="start" alignment-baseline="middle" dominant-baseline="middle" transform="translate(224, 37.387707181433356) rotate(0)"><tspan x="0" y="0em" text-anchor="start" alignment-baseline="middle" dominant-baseline="middle">5</tspan></text></g><g><line x1="220" y1="17.934987536660984" x2="216" y2="17.934987536660984"/><text class="" text-anchor="start" alignment-baseline="middle" dominant-baseline="middle" transform="translate(224, 17.934987536660984) rotate(0)"><tspan x="0" y="0em" text-anchor="start" alignment-baseline="middle" dominant-baseline="middle">6</tspan></text></g></g><line x1="220" y1="120" x2="220" y2="7"/></g></g></g></svg>