<svg xmlns="http://www.w3.org/2000/svg" class="context figure cross-sectional-box-plot" width="240" height="160" viewBox="0 0 240 160" preserveAspectRatio="xMidYMid"><style>@page {
  size: 240px 160px;  margin: 0px;  padding: 0px;}</style><style>svg{--background:white;--c0:#4e79a7;--c1:#f28e2c;--c2:#e15759;--c3:#76b7b2;--c4:#59a14f;--c5:#edc949;--c6:#af7aa1;--c7:#ff9da7;--c8:#9c755f;--c9:#bab0ab;font-size:12px}.fill-c0{fill:var(--c0)}.fill-c1{fill:var(--c1)}.fill-c2{fill:var(--c2)}.fill-c3{fill:var(--c3)}.fill-c4{fill:var(--c4)}.fill-c5{fill:var(--c5)}.fill-c6{fill:var(--c6)}.fill-c7{fill:var(--c7)}.fill-c8{fill:var(--c8)}.fill-c9{fill:var(--c9)}.stroke-c0{stroke:var(--c0)}.stroke-c1{stroke:var(--c1)}.stroke-c2{stroke:var(--c2)}.stroke-c3{stroke:var(--c3)}.stroke-c4{stroke:var(--c4)}.stroke-c5{stroke:var(--c5)}.stroke-c6{stroke:var(--c6)}.stroke-c7{stroke:var(--c7)}.stroke-c8{stroke:var(--c8)}.stroke-c9{stroke:var(--c9)}.fill-black{fill:#000}.fill-white{fill:#fff}.fill-gray{fill:gray}.stroke-black{stroke:#000}.stroke-white{stroke:#fff}.stroke-gray{stroke:gray}.weak{opacity:.5}.weaker{opacity:.25}.weakest{opacity:.125}.dashed{stroke-dasharray:2px 2px}.small{font-size:.75em}.smaller{font-size:.6em}text{stroke:none}.mono{font-family:monospace}.figure>.background{fill:var(--background)}.curve{fill:none;stroke-width:1.75px}.assoc,.span{fill:none;stroke-width:1px;stroke-linecap:round}.assoc.thick{stroke-width:calc(1px*1.5)}.span{fill:#aaa;stroke:#aaa}.label,.panel,.span{font-family:sans-serif}.label,.panel{fill:#777}.panel .frame{stroke:#aaa;fill:var(--background);fill-opacity:.5}.grid line,.tick{stroke-width:1px;stroke-linecap:round}.tick.major{font-size:.75em}.grid line{stroke:#ccc;stroke-dasharray:0 2.4px}.grid line.origin{stroke-dasharray:none}</style><g class="context plot"><g class="grid"><g class="span x-axis"/><g class="span y-axis"><g class="tick grid"><g><line x1="20" y1="111.60996403629795" x2="220" y2="111.60996403629795"/></g><g><line x1="20" y1="81.95564010695963" x2="220" y2="81.95564010695963"/></g><g><line x1="20" y1="52.3013161776213" x2="220" y2="52.3013161776213"/></g><g><line x1="20" y1="22.646992248283" x2="220" y2="22.646992248283"/></g></g></g></g><g class="content"><g><g class="box-plot"/><g class="box-plot"><g class="scatter"/><path class="area fill-c1 weak" d="M98.788,30.068L141.212,30.068L141.212,64.352L98.788,64.352Z"/><g class="span"><g class="tick major"><g><line x1="120" y1="70.72839071497613" x2="125" y2="70.72839071497613"/><line x1="120" y1="70.72839071497613" x2="115" y2="70.72839071497613"/></g></g><line x1="120" y1="70.72839071497613" x2="120" y2="64.35224413280314"/></g><g class="span"><g class="tick major"><g><line x1="120" y1="29.156862745098046" x2="125" y2="29.156862745098046"/><line x1="120" y1="29.156862745098046" x2="115" y2="29.156862745098046"/></g></g><line x1="120" y1="30.067905420758905" x2="120" y2="29.156862745098046"/></g><g class="span"><g class="tick major"><g><line x1="98.78787878787878" y1="64.35224413280314" x2="141.21212121212122" y2="64.35224413280314"/></g><g><line x1="98.78787878787878" y1="43.26135453356246" x2="141.21212121212122" y2="43.26135453356246"/></g><g><line x1="98.78787878787878" y1="30.067905420758905" x2="141.21212121212122" y2="30.067905420758905"/></g></g><line x1="98.78787878787878" y1="64.35224413280314" x2="98.78787878787878" y2="30.067905420758905"/></g><g class="span"><line x1="141.21212121212122" y1="64.35224413280314" x2="141.21212121212122" y2="30.067905420758905"/></g></g><g class="box-plot"><g class="scatter"><circle class="marker fill-c2 weak" cx="180.60606060606062" cy="39.83209580240208" r="2.5"/><circle class="marker fill-c2 weak" cx="180.60606060606062" cy="112.61437908496733" r="2.5"/></g><path class="area fill-c2 weak" d="M159.394,68.455L201.818,68.455L201.818,78.887L159.394,78.887Z"/><g class="span"><g class="tick major"><g><line x1="180.60606060606062" y1="81.23236460333106" x2="185.60606060606062" y2="81.23236460333106"/><line x1="180.60606060606062" y1="81.23236460333106" x2="175.60606060606062" y2="81.23236460333106"/></g></g><line x1="180.60606060606062" y1="81.23236460333106" x2="180.60606060606062" y2="78.88667092190877"/></g><g class="span"><g class="tick major"><g><line x1="180.60606060606062" y1="68.27924803488212" x2="185.60606060606062" y2="68.27924803488212"/><line x1="180.60606060606062" y1="68.27924803488212" x2="175.60606060606062" y2="68.27924803488212"/></g></g><line x1="180.60606060606062" y1="68.45484404572565" x2="180.60606060606062" y2="68.27924803488212"/></g><g class="span"><g class="tick major"><g><line x1="159.39393939393938" y1="78.88667092190877" x2="201.81818181818184" y2="78.88667092190877"/></g><g><line x1="159.39393939393938" y1="72.36154554964509" x2="201.81818181818184" y2="72.36154554964509"/></g><g><line x1="159.39393939393938" y1="68.45484404572565" x2="201.81818181818184" y2="68.45484404572565"/></g></g><line x1="159.39393939393938" y1="78.88667092190877" x2="159.39393939393938" y2="68.45484404572565"/></g><g class="span"><line x1="201.81818181818184" y1="78.88667092190877" x2="201.81818181818184" y2="68.45484404572565"/></g></g></g><g><g class="span"><g class="tick major"><g><text class="" text-anchor="middle" alignment-baseline="text-top" dominant-baseline="text-top" transform="translate(150.3030303030303, 20) rotate(0)"><tspan x="0" y="0em" text-anchor="middle" alignment-baseline="text-top" dominant-baseline="text-top">*</tspan></text></g></g><g class="tick delimiter"><g><line x1="132.12121212121212" y1="19" x2="132.12121212121212" y2="21"/></g><g><line x1="168.4848484848485" y1="19" x2="168.4848484848485" y2="21"/></g></g><line x1="132.12121212121212" y1="19" x2="168.4848484848485" y2="19"/></g></g></g><g class="frame"><g class="span x-axis"><g class="tick major"><g><line x1="59.3939393939394" y1="7" x2="59.3939393939394" y2="11"/></g><g><line x1="120" y1="7" x2="120" y2="11"/></g><g><line x1="180.60606060606062" y1="7" x2="180.60606060606062" y2="11"/></g></g><line x1="20" y1="7" x2="220" y2="7"/></g><g class="span x-axis"><g class="tick major"><g><line x1="59.3939393939394" y1="120" x2="59.3939393939394" y2="116"/></g><g><line x1="120" y1="120" x2="120" y2="116"/></g><g><line x1="180.60606060606062" y1="120" x2="180.60606060606062" y2="116"/></g></g><g class="tick label"><g><text class="small" text-anchor="middle" alignment-baseline="hanging" dominant-baseline="hanging" transform="translate(120, 124) rotate(0)"><tspan x="0" y="0em" text-anchor="middle" alignment-baseline="hanging" dominant-baseline="hanging"><tspan class="mono" text-anchor="middle" alignment-baseline="hanging" dominant-baseline="hanging">abc41</tspan></tspan></text></g></g><line x1="20" y1="120" x2="220" y2="120"/></g><g class="span y-axis"><g class="tick minor"><g><line x1="20" y1="104.19638305396336" x2="22" y2="104.19638305396336"/></g><g><line x1="20" y1="96.7828020716288" x2="22" y2="96.7828020716288"/></g><g><line x1="20" y1="89.3692210892942" x2="22" y2="89.3692210892942"/></g><g><line x1="20" y1="74.54205912462504" x2="22" y2="74.54205912462504"/></g><g><line x1="20" y1="67.12847814229048" x2="22" y2="67.12847814229048"/></g><g><line x1="20" y1="59.714897159955896" x2="22" y2="59.714897159955896"/></g><g><line x1="20" y1="44.88773519528672" x2="22" y2="44.88773519528672"/></g><g><line x1="20" y1="37.47415421295216" x2="22" y2="37.47415421295216"/></g><g><line x1="20" y1="30.060573230617578" x2="22" y2="30.060573230617578"/></g></g><g class="tick major"><g><line x1="20" y1="111.60996403629795" x2="24" y2="111.60996403629795"/><text class="" text-anchor="end" alignment-baseline="middle" dominant-baseline="middle" transform="translate(16, 111.60996403629795) rotate(0)"><tspan x="0" y="0em" text-anchor="end" alignment-baseline="middle" dominant-baseline="middle">40</tspan></text></g><g><line x1="20" y1="81.95564010695963" x2="24" y2="81.95564010695963"/><text class="" text-anchor="end" alignment-baseline="middle" dominant-baseline="middle" transform="translate(16, 81.95564010695963) rotate(0)"><tspan x="0" y="0em" text-anchor="end" alignment-baseline="middle" dominant-baseline="middle">60</tspan></text></g><g><line x1="20" y1="52.3013161776213" x2="24" y2="52.3013161776213"/><text class="" text-anchor="end" alignment-baseline="middle" dominant-baseline="middle" transform="translate(16, 52.3013161776213) rotate(0)"><tspan x="0" y="0em" text-anchor="end" alignment-baseline="middle" dominant-baseline="middle">80</tspan></text></g><g><line x1="20" y1="22.646992248283" x2="24" y2="22.646992248283"/><text class="" text-anchor="end" alignment-baseline="middle" dominant-baseline="middle" transform="translate(16, 22.646992248283) rotate(0)"><tspan x="0" y="0em" text-anchor="end" alignment-baseline="middle" dominant-baseline="middle">1e+2</tspan></text></g></g><line x1="20" y1="120" x2="20" y2="7"/></g><g class="span y-axis"><g class="tick minor"><g><line x1="220" y1="104.19638305396336" x2="218" y2="104.19638305396336"/></g><g><line x1="220" y1="96.7828020716288" x2="218" y2="96.7828020716288"/></g><g><line x1="220" y1="89.3692210892942" x2="218" y2="89.3692210892942"/></g><g><line x1="220" y1="74.54205912462504" x2="218" y2="74.54205912462504"/></g><g><line x1="220" y1="67.12847814229048" x2="218" y2="67.12847814229048"/></g><g><line x1="220" y1="59.714897159955896" x2="218" y2="59.714897159955896"/></g><g><line x1="220" y1="44.88773519528672" x2="218" y2="44.88773519528672"/></g><g><line x1="220" y1="37.47415421295216" x2="218" y2="37.47415421295216"/></g><g><line x1="220" y1="30.060573230617578" x2="218" y2="30.060573230617578"/></g></g><g class="tick major"><g><line x1="220" y1="111.60996403629795" x2="216" y2="111.60996403629795"/><text class="" text-anchor="start" alignment-baseline="middle" dominant-baseline="middle" transform="translate(224, 111.60996403629795) rotate(0)"><tspan x="0" y="0em" text-anchor="start" alignment-baseline="middle" dominant-baseline="middle">40</tspan></text></g><g><line x1="220" y1="81.95564010695963" x2="216" y2="81.95564010695963"/><text class="" text-anchor="start" alignment-baseline="middle" dominant-baseline="middle" transform="translate(224, 81.95564010695963) rotate(0)"><tspan x="0" y="0em" text-anchor="start" alignment-baseline="middle" dominant-baseline="middle">60</tspan></text></g><g><line x1="220" y1="52.3013161776213" x2="216" y2="52.3013161776213"/><text class="" text-anchor="start" alignment-baseline="middle" dominant-baseline="middle" transform="translate(224, 52.3013161776213) rotate(0)"><tspan x="0" y="0em" text-anchor="start" alignment-baseline="middle" dominant-baseline="middle">80</tspan></text></g><g><line x1="220" y1="22.646992248283" x2="216" y2="22.646992248283"/><text class="" text-anchor="start" alignment-baseline="middle" dominant-baseline="middle" transform="translate(224, 22.646992248283) rotate(0)"><tspan x="0" y="0em" text-anchor="start" alignment-baseline="middle" dominant-baseline="middle">1e+2</tspan></text></g></g><line x1="220" y1="120" x2="220" y2="7"/></g></g></g></svg>