<?xml version="1.0" encoding="UTF-8" standalone="no"?>
<!-- Created with Inkscape (http://www.inkscape.org/) -->

<svg
   width="660"
   height="360"
   viewBox="0 0 174.62544 95.250002"
   version="1.1"
   id="svg1"
   inkscape:version="1.4.2 (ebf0e940, 2025-05-08)"
   sodipodi:docname="discrete-transform-coefficients.svg"
   xmlns:inkscape="http://www.inkscape.org/namespaces/inkscape"
   xmlns:sodipodi="http://sodipodi.sourceforge.net/DTD/sodipodi-0.dtd"
   xmlns="http://www.w3.org/2000/svg"
   xmlns:svg="http://www.w3.org/2000/svg">
  <sodipodi:namedview
     id="namedview1"
     pagecolor="#ffffff"
     bordercolor="#000000"
     borderopacity="0.25"
     inkscape:showpageshadow="2"
     inkscape:pageopacity="0.0"
     inkscape:pagecheckerboard="0"
     inkscape:deskcolor="#d1d1d1"
     inkscape:document-units="mm"
     inkscape:zoom="1.2374069"
     inkscape:cx="342.65205"
     inkscape:cy="181.02372"
     inkscape:window-width="1920"
     inkscape:window-height="747"
     inkscape:window-x="0"
     inkscape:window-y="25"
     inkscape:window-maximized="0"
     inkscape:current-layer="layer1" />
  <defs
     id="defs1">
    <rect
       x="62.746189"
       y="137.44403"
       width="132.21519"
       height="31.373095"
       id="rect4" />
    <rect
       x="30.901775"
       y="117.42675"
       width="153.32172"
       height="66.109756"
       id="rect3" />
    <rect
       x="238.81142"
       y="17.194422"
       width="119.40571"
       height="43.941299"
       id="rect2" />
    <rect
       x="238.81142"
       y="17.194422"
       width="181.49667"
       height="45.851791"
       id="rect2-6" />
    <rect
       x="238.81142"
       y="17.194422"
       width="198.90755"
       height="125.56148"
       id="rect2-68" />
    <rect
       x="238.81142"
       y="17.194422"
       width="209.44539"
       height="40.026531"
       id="rect2-68-3" />
    <rect
       x="238.81142"
       y="17.194422"
       width="132.67271"
       height="50.965008"
       id="rect2-7" />
    <rect
       x="238.81142"
       y="17.194422"
       width="132.67271"
       height="50.965008"
       id="rect2-7-6" />
  </defs>
  <g
     inkscape:label="Layer 1"
     inkscape:groupmode="layer"
     id="layer1">
    <g
       id="g2"
       inkscape:label="single stride plot 1"
       transform="matrix(1.6677791,0,0,1.6677791,22.425488,-151.94735)">
      <path
         class="curve weak stroke-c2"
         d="m 14.513284,116.07093 c 0.02872,-0.12568 0.143216,0.55813 0.171933,0.71645 0.02872,0.15813 0.143216,1.09388 0.171933,1.18227 0.02872,0.0882 0.143402,-0.1102 0.171933,-0.12195 0.02872,-0.0117 0.143402,-3.6e-4 0.171933,-0.02 0.02872,-0.0194 0.143402,-0.1971 0.172119,-0.21389 0.02853,-0.0168 0.143216,0.0157 0.171933,0.0114 0.02853,-0.004 0.143216,-0.0559 0.171933,-0.0623 0.02853,-0.006 0.143216,-0.0213 0.171933,-0.0134 0.02872,0.008 0.143215,0.0923 0.171933,0.10629 0.02872,0.0142 0.143215,0.0593 0.171933,0.063 0.02872,0.004 0.143402,-0.0149 0.171933,-0.019 0.02872,-0.004 0.143401,-0.0259 0.171932,-0.0295 0.02872,-0.003 0.143402,-0.0119 0.172119,-0.0121 0.02853,-1.8e-4 0.143216,0.007 0.171933,0.0103 0.02853,0.004 0.143216,0.0287 0.171933,0.0321 0.02853,0.003 0.143216,0.008 0.171933,0.007 0.02853,-8.8e-4 0.143216,-0.0166 0.171933,-0.019 0.02872,-0.003 0.143215,-0.0103 0.171933,-0.0106 0.02872,-5.3e-4 0.143402,0.004 0.171933,0.006 0.02872,0.002 0.143402,0.0117 0.171933,0.0158 0.02872,0.004 0.143402,0.0284 0.171933,0.0332 0.02872,0.005 0.143402,0.0222 0.172119,0.0252 0.02853,0.003 0.143216,0.007 0.171933,0.009 0.02853,0.002 0.143215,0.0103 0.171933,0.0119 0.02853,0.001 0.143215,0.007 0.171933,0.007 0.02872,1.7e-4 0.143215,-0.004 0.171933,-0.004 0.02872,-5.3e-4 0.143215,-0.001 0.171933,-0.001 0.02872,0 0.143402,0.002 0.171933,0.002 0.02872,-1.8e-4 0.143402,-0.004 0.171933,-0.004 0.02872,1.8e-4 0.143402,0.002 0.171933,0.005 0.02872,0.003 0.143402,0.0261 0.172119,0.0298 0.02853,0.004 0.143215,0.0129 0.171933,0.0145 0.02853,0.002 0.143215,0.003 0.171933,0.005 0.02872,0.002 0.143215,0.016 0.171933,0.0172 0.02872,0.001 0.143215,-0.003 0.171933,-0.004 0.02872,-8.8e-4 0.143402,-0.006 0.171933,-0.006 0.02872,-3.6e-4 0.143402,0.002 0.171933,0.001 0.02872,-8.8e-4 0.143401,-0.0136 0.171933,-0.0142 0.02872,-7.1e-4 0.143401,0.005 0.172119,0.007 0.02853,0.002 0.143215,0.0136 0.171933,0.0157 0.02853,0.002 0.143215,0.007 0.171933,0.0101 0.02872,0.003 0.143215,0.0254 0.171933,0.0298 0.02872,0.004 0.143215,0.0241 0.171933,0.0229 0.02872,-10e-4 0.143215,-0.0291 0.171933,-0.0362 0.02872,-0.007 0.143402,-0.0412 0.171932,-0.0492 0.02872,-0.008 0.143402,-0.0377 0.171934,-0.047 0.02872,-0.01 0.143401,-0.0537 0.172118,-0.0651 0.02853,-0.0112 0.143217,-0.0585 0.171934,-0.0703 0.02853,-0.0117 0.143216,-0.0554 0.171933,-0.0701 0.02853,-0.0145 0.143215,-0.0886 0.171934,-0.10592 0.02872,-0.0171 0.143214,-0.0886 0.171932,-0.10107 0.02872,-0.0125 0.143216,-0.0405 0.171933,-0.0492 0.02872,-0.009 0.143402,-0.0395 0.171934,-0.0554 0.02872,-0.0159 0.143401,-0.11319 0.171932,-0.13445 0.02872,-0.0211 0.143401,-0.10723 0.17212,-0.11953 0.02853,-0.0121 0.143215,-0.0211 0.171932,-0.0265 0.02853,-0.005 0.143216,-0.0261 0.171933,-0.0384 0.02853,-0.0123 0.143215,-0.0843 0.171934,-0.10928 0.02872,-0.025 0.143214,-0.15925 0.171932,-0.19095 0.02872,-0.0317 0.143216,-0.16037 0.171933,-0.18946 0.02872,-0.0289 0.143402,-0.1421 0.171934,-0.15795 0.02872,-0.016 0.143401,-0.0472 0.171932,-0.0339 0.02872,0.0134 0.143401,0.15683 0.171933,0.19319 0.02872,0.0365 0.143402,0.22303 0.172119,0.24429 0.02853,0.0213 0.143216,0.0131 0.171933,0.0108 0.02853,-0.002 0.143215,-0.0349 0.171934,-0.0373 0.02853,-0.003 0.143214,-0.014 0.171932,0.007 0.02872,0.0211 0.143216,0.12345 0.171933,0.24727 0.02872,0.12383 0.143402,1.03906 0.171934,1.23859 0.02872,0.19953 0.143401,1.14572 0.171932,1.15598 0.02872,0.0103 0.143401,-0.76642 0.171933,-1.03272 0.02872,-0.2661 0.143401,-1.80585 0.171934,-2.16165 0.02872,-0.3558 0.143401,-1.78329 0.172118,-2.10832 0.02853,-0.32504 0.143215,-1.68577 0.171934,-1.7915 0.02853,-0.10555 0.143214,0.50685 0.171932,0.52438 0.02872,0.0177 0.143216,-0.15777 0.171933,-0.31329 0.02872,-0.15533 0.143215,-1.37192 0.171934,-1.55187 0.02872,-0.18014 0.143401,-0.68568 0.171931,-0.60792 0.02872,0.0778 0.143402,1.20241 0.171934,1.54087 0.02872,0.33865 0.143401,2.2094 0.171934,2.52156 0.02872,0.31235 0.143401,1.07225 0.172118,1.22479 0.02853,0.15254 0.143215,0.49901 0.171934,0.60512 0.02853,0.10611 0.143214,0.5723 0.171932,0.66741 0.02872,0.0953 0.143216,0.41286 0.171933,0.47496 0.02872,0.0621 0.143215,0.22284 0.171934,0.26983 0.02872,0.047 0.143214,0.24802 0.171931,0.29352 0.02872,0.0455 0.143402,0.22582 0.171934,0.25211 0.02872,0.0263 0.143401,0.066 0.171934,0.0632 0.02872,-0.003 0.143401,-0.0809 0.172118,-0.0968 0.02853,-0.0159 0.143215,-0.0848 0.171934,-0.0938 0.02853,-0.009 0.143214,-0.0125 0.171931,-0.0138 0.02853,-0.001 0.143217,0.002 0.171934,-0.001 0.02872,-0.004 0.143215,-0.0334 0.171934,-0.0444 0.02872,-0.0112 0.143214,-0.0712 0.171931,-0.0893 0.02872,-0.0179 0.143402,-0.0992 0.171934,-0.12699 0.02872,-0.028 0.143401,-0.16447 0.171933,-0.20699 0.02872,-0.0425 0.143402,-0.251 0.172119,-0.30396 0.02853,-0.053 0.143215,-0.27748 0.171934,-0.33118 0.02853,-0.0539 0.143214,-0.26424 0.171931,-0.31441 0.02853,-0.05 0.143217,-0.24428 0.171934,-0.28661 0.02872,-0.0423 0.143214,-0.19003 0.171934,-0.22135 0.02872,-0.0315 0.143214,-0.1352 0.171931,-0.15515 0.02872,-0.02 0.143402,-0.0753 0.171934,-0.0849 0.02872,-0.01 0.143401,-0.0228 0.171932,-0.0289 0.02872,-0.006 0.143403,-0.0388 0.171933,-0.0444 0.02872,-0.006 0.143402,-0.0332 0.172121,-0.0224 0.02853,0.0108 0.143214,0.0949 0.171931,0.15291 0.02853,0.0582 0.143217,0.41715 0.171934,0.54339 0.02853,0.12644 0.143214,0.79347 0.171933,0.97324 0.02872,0.17957 0.143215,0.98348 0.171932,1.18245 0.02872,0.19916 0.143402,1.01239 0.171934,1.20596 0.02872,0.19375 0.143401,0.93276 0.171932,1.11849 0.02872,0.18592 0.143403,0.91766 0.171933,1.1116 0.02872,0.19413 0.143401,1.01482 0.171934,1.21621 0.02872,0.20159 0.143401,1.01612 0.172118,1.20148 0.02853,0.18536 0.143217,0.87887 0.171934,1.02283 0.02853,0.14378 0.143214,0.60326 0.171933,0.70359 0.02872,0.10032 0.143215,0.42666 0.171932,0.5005 0.02872,0.0737 0.143216,0.3241 0.171934,0.38434 0.02872,0.06 0.143401,0.33808 0.171932,0.33659 0.02872,-10e-4 0.143403,-0.36401 0.171933,-0.35543 0.02872,0.008 0.143401,0.49286 0.171934,0.45743 0.02872,-0.0354 0.143401,-0.17659 0.172118,-0.8826 0.02853,-0.706 0.143217,-6.22893 0.171934,-7.58966 0.02853,-1.36092 0.143214,-8.07395 0.171933,-8.73986 0.02872,-0.66592 0.143215,0.0617 0.171932,0.74908 0.02872,0.68736 0.143216,6.61028 0.171934,7.49922 0.02872,0.88894 0.143214,3.1733 0.171931,3.16789 0.02872,-0.006 0.143404,-2.51895 0.171934,-3.23428 0.02872,-0.71514 0.143401,-4.88088 0.171934,-5.34968 0.02872,-0.46862 0.143401,-0.64018 0.172118,-0.27524 0.02853,0.36512 0.143216,4.28955 0.171934,4.65542"
         id="path385"
         style="fill:none;stroke:#ff7f2a;stroke-width:0.432616;stroke-dasharray:none;stroke-opacity:1"
         sodipodi:nodetypes="ccccccccccsccssssccccccccsccsccsscscsccscscscccccccsccccccsscccccsccscccccccccccccccssscsccscccsccccscsccccccccccccccsccsccccsssccccc" />
      <rect
         style="fill:none;stroke:#999999;stroke-width:1.5;stroke-linejoin:round;stroke-dasharray:none;stroke-opacity:1"
         id="rect378"
         width="23.832258"
         height="20.559475"
         x="13.924398"
         y="108.23355" />
    </g>
    <g
       id="g1"
       inkscape:label="transformed stride plot"
       transform="matrix(1.6677791,0,0,1.6677791,61.255163,-151.94735)">
      <path
         class="curve weak stroke-c2"
         d="m 39.801079,125.79659 c 0.02853,0.36568 0.59197,-10.35425 2.613336,-13.80424 2.419534,-4.12956 2.011142,0.34315 3.888189,7.09745 0.19513,0.70215 1.367632,3.93103 2.705119,2.77138 1.436859,-1.2458 1.851174,-5.86923 3.386283,-5.4276 0.910592,0.26197 1.724756,4.83976 3.415416,7.63918 1.730227,2.86495 4.355335,3.95139 6.894861,4.08467"
         id="path385-9"
         style="display:inline;fill:none;stroke:#ff7f2a;stroke-width:0.432616;stroke-dasharray:none;stroke-opacity:1"
         sodipodi:nodetypes="csssssc" />
      <rect
         style="fill:none;stroke:#999999;stroke-width:1.5;stroke-linejoin:round;stroke-dasharray:none;stroke-opacity:1"
         id="rect378-1"
         width="23.832258"
         height="20.559475"
         x="39.256657"
         y="108.23355" />
    </g>
    <g
       id="g390"
       inkscape:label="footprints"
       transform="matrix(1.6677791,0,0,1.6677791,2.5948827,-264.14686)"
       style="fill:#333333">
      <path
         style="fill:#333333;stroke-width:0.0401415"
         d="m 26.842399,168.1013 c 0.05459,-0.2663 0.188261,-0.49148 0.377115,-0.63532 0.03516,-0.0268 0.06639,-0.0513 0.0693,-0.0545 0.01138,-0.0126 0.154748,-0.1067 0.162322,-0.1067 0.0044,0 0.02589,-0.0108 0.04766,-0.0244 0.02178,-0.0134 0.07785,-0.0403 0.124585,-0.0598 0.04671,-0.0195 0.100025,-0.0419 0.118442,-0.0498 0.01843,-0.007 0.04034,-0.0146 0.04868,-0.0146 0.0084,0 0.01862,-0.004 0.02279,-0.007 0.0044,-0.005 0.02771,-0.0132 0.05221,-0.02 0.02455,-0.006 0.0733,-0.0206 0.108347,-0.0308 0.234677,-0.0677 0.637719,-0.1284 0.888569,-0.13376 0.04614,-0.001 0.08591,1.6e-4 0.08828,0.002 0.0044,0.005 0.02121,0.14743 0.03743,0.32244 0.0057,0.0584 0.0147,0.14682 0.02063,0.19648 0.0115,0.0964 0.03832,0.34622 0.04843,0.45138 0.0031,0.0351 0.01314,0.12825 0.02172,0.20711 0.0085,0.0789 0.0202,0.19355 0.02588,0.2549 0.0057,0.0613 0.01503,0.14976 0.02084,0.19648 0.0057,0.0467 0.01805,0.15905 0.02722,0.24959 0.0092,0.0905 0.0214,0.20044 0.02715,0.24423 0.01174,0.0897 0.0096,0.0936 -0.06123,0.11424 -0.349448,0.10179 -0.752514,0.16195 -1.084836,0.1619 -0.204964,-4e-5 -0.383637,-0.0193 -0.490231,-0.0529 -0.02045,-0.006 -0.05391,-0.0169 -0.07435,-0.0231 -0.158314,-0.0487 -0.273053,-0.11951 -0.395196,-0.24396 -0.06732,-0.0686 -0.09126,-0.10274 -0.134591,-0.1924 -0.105377,-0.2179 -0.14452,-0.52063 -0.09718,-0.75155 z m 3.230842,-1.2928 c 0.01584,-0.013 0.226376,-0.10298 0.391198,-0.16684 0.151149,-0.0587 0.183804,-0.0714 0.207103,-0.0813 0.01173,-0.006 0.04754,-0.0188 0.07964,-0.0308 0.06224,-0.0232 0.07784,-0.0296 0.141093,-0.0569 0.02209,-0.01 0.0493,-0.0174 0.06041,-0.0174 0.01114,0 0.02297,-0.005 0.02632,-0.01 0.0031,-0.006 0.02141,-0.0132 0.04008,-0.0172 0.01869,-0.005 0.04135,-0.012 0.05032,-0.0172 0.0207,-0.0123 0.395922,-0.14139 0.494214,-0.16996 0.04091,-0.012 0.09107,-0.0278 0.11152,-0.0354 0.02045,-0.007 0.06585,-0.0219 0.100887,-0.0317 0.0351,-0.01 0.07806,-0.0221 0.09559,-0.0272 0.126297,-0.0365 0.332877,-0.0862 0.477935,-0.11496 0.137154,-0.0272 0.335085,-0.0439 0.637251,-0.054 0.270661,-0.008 0.368923,-0.008 0.552278,0.006 0.249727,0.018 0.510059,0.0493 0.653179,0.0789 0.225336,0.0465 0.215242,0.0442 0.377041,0.0874 0.133834,0.0358 0.365305,0.11364 0.43545,0.14647 0.01174,0.006 0.04513,0.0204 0.07435,0.0331 0.115363,0.05 0.204086,0.0978 0.350482,0.18851 0.08137,0.0504 0.210621,0.1414 0.228353,0.16079 0.0025,0.004 0.04116,0.0389 0.08496,0.0793 0.161622,0.14912 0.294017,0.32689 0.400068,0.5372 0.02499,0.0497 0.04565,0.0968 0.04577,0.10454 1.59e-4,0.007 0.01162,0.0485 0.02564,0.0903 0.04495,0.13496 0.05719,0.18114 0.06454,0.24324 0.0038,0.0335 0.01162,0.0636 0.01704,0.0671 0.01244,0.007 0.0132,0.40051 6.32e-4,0.41428 -0.005,0.006 -0.01749,0.046 -0.0279,0.0898 -0.02576,0.10909 -0.0541,0.19657 -0.08542,0.26315 -0.01451,0.0309 -0.02632,0.0583 -0.02632,0.0609 0,0.006 -0.06602,0.11496 -0.07406,0.12201 -0.0031,0.004 -0.01515,0.0195 -0.0262,0.0368 -0.03977,0.0624 -0.144975,0.18217 -0.2155,0.2454 -0.305095,0.27356 -0.757381,0.47177 -1.330484,0.58308 -0.447212,0.0868 -0.605229,0.10203 -1.061264,0.10203 -0.197933,-5e-5 -0.402153,-0.006 -0.453834,-0.0108 -0.05169,-0.006 -0.144142,-0.0157 -0.205476,-0.0214 -0.06136,-0.006 -0.161704,-0.0175 -0.223044,-0.0261 -0.0613,-0.008 -0.147355,-0.0207 -0.19117,-0.0266 -0.04381,-0.006 -0.10594,-0.0161 -0.13807,-0.0222 -0.190306,-0.0366 -0.234519,-0.0454 -0.292072,-0.0576 -0.03504,-0.007 -0.0924,-0.0195 -0.127452,-0.0265 -0.03504,-0.007 -0.08612,-0.0195 -0.113519,-0.0278 -0.0274,-0.008 -0.05802,-0.015 -0.0681,-0.015 -0.01006,0 -0.04262,-0.006 -0.07235,-0.0153 -0.02973,-0.008 -0.08155,-0.0226 -0.115172,-0.0316 -0.05517,-0.0147 -0.125835,-0.0344 -0.215007,-0.0597 -0.01748,-0.006 -0.05814,-0.0165 -0.09028,-0.0256 -0.185515,-0.0526 -0.634355,-0.20156 -0.716905,-0.23801 -0.01174,-0.006 -0.04274,-0.018 -0.06903,-0.0286 -0.06224,-0.0249 -0.07433,-0.0411 -0.07442,-0.0996 -3.7e-5,-0.0266 -0.0044,-0.0771 -0.0103,-0.11208 -0.0057,-0.0351 -0.01496,-0.11627 -0.0209,-0.18055 -0.0057,-0.0643 -0.01793,-0.18374 -0.02664,-0.26553 -0.0087,-0.0818 -0.01856,-0.17735 -0.0219,-0.2124 -0.0093,-0.0978 -0.03629,-0.35066 -0.04829,-0.45139 -0.0057,-0.0497 -0.01522,-0.13808 -0.0207,-0.19649 -0.0057,-0.0584 -0.01736,-0.17551 -0.02639,-0.26021 -0.0091,-0.0847 -0.02096,-0.20178 -0.02632,-0.26021 -0.005,-0.0584 -0.013,-0.13265 -0.01685,-0.16499 -0.005,-0.0441 -0.0038,-0.0619 0.0077,-0.071 z"
         id="path389" />
      <path
         style="fill:#333333;stroke-width:0.0401415"
         d="m 38.970815,171.33458 c 0.05459,0.2663 0.188261,0.49148 0.377115,0.63532 0.03516,0.0268 0.06639,0.0513 0.0693,0.0545 0.01138,0.0126 0.154748,0.1067 0.162322,0.1067 0.0044,0 0.02589,0.0108 0.04766,0.0244 0.02178,0.0134 0.07785,0.0403 0.124585,0.0598 0.04671,0.0195 0.100025,0.0419 0.118442,0.0498 0.01843,0.007 0.04034,0.0146 0.04868,0.0146 0.0084,0 0.01862,0.004 0.02279,0.007 0.0044,0.005 0.02771,0.0132 0.05221,0.02 0.02455,0.006 0.0733,0.0206 0.108347,0.0308 0.234677,0.0677 0.637719,0.1284 0.888569,0.13376 0.04614,0.001 0.08591,-1.6e-4 0.08828,-0.002 0.0044,-0.005 0.02121,-0.14743 0.03743,-0.32244 0.0057,-0.0584 0.0147,-0.14682 0.02063,-0.19648 0.0115,-0.0964 0.03832,-0.34622 0.04843,-0.45138 0.0031,-0.0351 0.01314,-0.12825 0.02172,-0.20711 0.0085,-0.0789 0.0202,-0.19355 0.02588,-0.2549 0.0057,-0.0613 0.01503,-0.14976 0.02084,-0.19648 0.0057,-0.0467 0.01805,-0.15905 0.02722,-0.24959 0.0092,-0.0905 0.0214,-0.20044 0.02715,-0.24423 0.01174,-0.0897 0.0096,-0.0936 -0.06123,-0.11424 -0.349448,-0.10179 -0.752514,-0.16195 -1.084836,-0.1619 -0.204964,4e-5 -0.383637,0.0193 -0.490231,0.0529 -0.02045,0.006 -0.05391,0.0169 -0.07435,0.0231 -0.158314,0.0487 -0.273053,0.11951 -0.395196,0.24396 -0.06732,0.0686 -0.09126,0.10274 -0.134591,0.1924 -0.105377,0.2179 -0.14452,0.52063 -0.09718,0.75155 z m 3.230842,1.2928 c 0.01584,0.013 0.226376,0.10298 0.391198,0.16684 0.151149,0.0587 0.183804,0.0714 0.207103,0.0813 0.01173,0.006 0.04754,0.0188 0.07964,0.0308 0.06224,0.0232 0.07784,0.0296 0.141093,0.0569 0.02209,0.01 0.0493,0.0174 0.06041,0.0174 0.01114,0 0.02297,0.005 0.02632,0.01 0.0031,0.006 0.02141,0.0132 0.04008,0.0172 0.01869,0.005 0.04135,0.012 0.05032,0.0172 0.0207,0.0123 0.395922,0.14139 0.494214,0.16996 0.04091,0.012 0.09107,0.0278 0.11152,0.0354 0.02045,0.007 0.06585,0.0219 0.100887,0.0317 0.0351,0.01 0.07806,0.0221 0.09559,0.0272 0.126297,0.0365 0.332877,0.0862 0.477935,0.11496 0.137154,0.0272 0.335085,0.0439 0.637251,0.054 0.270661,0.008 0.368923,0.008 0.552278,-0.006 0.249727,-0.018 0.510059,-0.0493 0.653179,-0.0789 0.225336,-0.0465 0.215242,-0.0442 0.377041,-0.0874 0.133834,-0.0358 0.365305,-0.11364 0.43545,-0.14647 0.01174,-0.006 0.04513,-0.0204 0.07435,-0.0331 0.115363,-0.05 0.204086,-0.0978 0.350482,-0.18851 0.08137,-0.0504 0.210621,-0.1414 0.228353,-0.16079 0.0025,-0.004 0.04116,-0.0389 0.08496,-0.0793 0.161622,-0.14912 0.294017,-0.32689 0.400068,-0.5372 0.02499,-0.0497 0.04565,-0.0968 0.04577,-0.10454 1.59e-4,-0.007 0.01162,-0.0485 0.02564,-0.0903 0.04495,-0.13496 0.05719,-0.18114 0.06454,-0.24324 0.0038,-0.0335 0.01162,-0.0636 0.01704,-0.0671 0.01244,-0.007 0.0132,-0.40051 6.32e-4,-0.41428 -0.005,-0.006 -0.01749,-0.046 -0.0279,-0.0898 -0.02576,-0.10909 -0.0541,-0.19657 -0.08542,-0.26315 -0.01451,-0.0309 -0.02632,-0.0583 -0.02632,-0.0609 0,-0.006 -0.06602,-0.11496 -0.07406,-0.12201 -0.0031,-0.004 -0.01515,-0.0195 -0.0262,-0.0368 -0.03977,-0.0624 -0.144975,-0.18217 -0.2155,-0.2454 -0.305095,-0.27356 -0.757381,-0.47177 -1.330484,-0.58308 -0.447212,-0.0868 -0.605229,-0.10203 -1.061264,-0.10203 -0.197933,5e-5 -0.402153,0.006 -0.453834,0.0108 -0.05169,0.006 -0.144142,0.0157 -0.205476,0.0214 -0.06136,0.006 -0.161704,0.0175 -0.223044,0.0261 -0.0613,0.008 -0.147355,0.0207 -0.19117,0.0266 -0.04381,0.006 -0.10594,0.0161 -0.13807,0.0222 -0.190306,0.0366 -0.234519,0.0454 -0.292072,0.0576 -0.03504,0.007 -0.0924,0.0195 -0.127452,0.0265 -0.03504,0.007 -0.08612,0.0195 -0.113519,0.0278 -0.0274,0.008 -0.05802,0.015 -0.0681,0.015 -0.01006,0 -0.04262,0.006 -0.07235,0.0153 -0.02973,0.008 -0.08155,0.0226 -0.115172,0.0316 -0.05517,0.0147 -0.125835,0.0344 -0.215007,0.0597 -0.01748,0.006 -0.05814,0.0165 -0.09028,0.0256 -0.185515,0.0526 -0.634355,0.20156 -0.716905,0.23801 -0.01174,0.006 -0.04274,0.018 -0.06903,0.0286 -0.06224,0.0249 -0.07433,0.0411 -0.07442,0.0996 -3.7e-5,0.0266 -0.0044,0.0771 -0.0103,0.11208 -0.0057,0.0351 -0.01496,0.11627 -0.0209,0.18055 -0.0057,0.0643 -0.01793,0.18374 -0.02664,0.26553 -0.0087,0.0818 -0.01856,0.17735 -0.0219,0.2124 -0.0093,0.0978 -0.03629,0.35066 -0.04829,0.45139 -0.0057,0.0497 -0.01522,0.13808 -0.0207,0.19649 -0.0057,0.0584 -0.01736,0.17551 -0.02639,0.26021 -0.0091,0.0847 -0.02096,0.20178 -0.02632,0.26021 -0.005,0.0584 -0.013,0.13265 -0.01685,0.16499 -0.005,0.0441 -0.0038,0.0619 0.0077,0.071 z"
         id="path389-3" />
    </g>
    <text
       xml:space="preserve"
       transform="matrix(0.26458333,0,0,0.26458333,-8.290784,-3.8226835)"
       id="text2"
       style="font-size:32px;font-family:sans-serif;-inkscape-font-specification:sans-serif;text-align:start;writing-mode:lr-tb;direction:ltr;white-space:pre;shape-inside:url(#rect2);display:inline;fill:#b3b3b3;stroke-width:4.92094;stroke-linecap:round;stroke-linejoin:round"><tspan
         x="238.81055"
         y="46.389883"
         id="tspan2">Stride</tspan></text>
    <text
       xml:space="preserve"
       transform="matrix(0.26458333,0,0,0.26458333,30.052777,24.68477)"
       id="text2-4"
       style="font-size:18.6667px;font-family:sans-serif;-inkscape-font-specification:sans-serif;text-align:start;writing-mode:lr-tb;direction:ltr;white-space:pre;shape-inside:url(#rect2-7);display:inline;fill:#b3b3b3;stroke-width:4.92094;stroke-linecap:round;stroke-linejoin:round"
       x="-1.7057173e-06"
       y="0"><tspan
         x="238.81055"
         y="34.225509"
         id="tspan3">Discrete </tspan><tspan
         x="238.81055"
         y="57.558883"
         id="tspan4">transform</tspan></text>
    <text
       xml:space="preserve"
       transform="matrix(0.26458333,0,0,0.26458333,27.741247,45.532313)"
       id="text2-4-6"
       style="font-size:18.6667px;font-family:sans-serif;-inkscape-font-specification:sans-serif;text-align:start;writing-mode:lr-tb;direction:ltr;white-space:pre;shape-inside:url(#rect2-7-6);display:inline;fill:#b3b3b3;stroke-width:4.92094;stroke-linecap:round;stroke-linejoin:round"
       x="0.30078146"
       y="0"><tspan
         x="238.81055"
         y="34.225509"
         id="tspan6">(e.g. Fourier, </tspan><tspan
         x="238.81055"
         y="57.558883"
         id="tspan7">Chebyshev)</tspan></text>
    <text
       xml:space="preserve"
       transform="matrix(0.26458333,0,0,0.26458333,62.526919,70.682249)"
       id="text2-7"
       style="font-size:21.3334px;font-family:sans-serif;-inkscape-font-specification:sans-serif;text-align:start;writing-mode:lr-tb;direction:ltr;white-space:pre;shape-inside:url(#rect2-68);display:inline;fill:#b3b3b3;stroke-width:4.92094;stroke-linecap:round;stroke-linejoin:round"
       x="0.44270909"
       y="0"><tspan
         x="238.81055"
         y="36.658421"
         id="tspan14">Coefficients,
</tspan><tspan
         x="238.81055"
         y="63.325173"
         id="tspan15">Harmonic ratios,
</tspan><tspan
         x="238.81055"
         y="89.991924"
         id="tspan16">…</tspan></text>
    <text
       xml:space="preserve"
       transform="matrix(0.26458333,0,0,0.26458333,-2.9937144,8.4080972)"
       id="text3"
       style="font-size:13.3333px;font-family:sans-serif;-inkscape-font-specification:sans-serif;text-align:start;writing-mode:lr-tb;direction:ltr;white-space:pre;shape-inside:url(#rect3);display:inline;fill:#b3b3b3;stroke-width:4.92094;stroke-linecap:round;stroke-linejoin:round"><tspan
         x="30.902344"
         y="129.59015"
         id="tspan17">Position: Left foot
</tspan><tspan
         x="30.902344"
         y="146.25678"
         id="tspan18">Frame: Sensor
</tspan><tspan
         x="30.902344"
         y="162.92341"
         id="tspan19">Quantity: Acceleration
</tspan><tspan
         x="30.902344"
         y="179.59003"
         id="tspan20">Dimension: x</tspan></text>
    <text
       xml:space="preserve"
       transform="matrix(0.26458333,0,0,0.26458333,-11.632439,-3.8454616)"
       id="text4"
       style="font-size:18.6667px;font-family:sans-serif;-inkscape-font-specification:sans-serif;text-align:start;writing-mode:lr-tb;direction:ltr;white-space:pre;shape-inside:url(#rect4);display:inline;fill:#ff7f2a;fill-opacity:1;stroke-width:4.92094;stroke-linecap:round;stroke-linejoin:round"><tspan
         x="62.746094"
         y="154.47356"
         id="tspan22"><tspan
           style="font-weight:bold;-inkscape-font-specification:'sans-serif Bold'"
           id="tspan21">Signal, e.g.:</tspan></tspan></text>
    <g
       id="g448"
       inkscape:label="arrow"
       transform="matrix(0,-1.1746229,1.1746229,0,-60.52174,341.28833)"
       style="fill:#b3b3b3;stroke-width:0.899555;stroke-dasharray:none">
      <path
         sodipodi:type="star"
         style="opacity:1;fill:#999999;fill-opacity:1;stroke:none;stroke-width:0.899555;stroke-linecap:round;stroke-linejoin:round;stroke-dasharray:none;stroke-dashoffset:0;stroke-opacity:1"
         id="path447"
         inkscape:flatsided="false"
         sodipodi:sides="3"
         sodipodi:cx="254.95695"
         sodipodi:cy="147.50256"
         sodipodi:r1="4.3883338"
         sodipodi:r2="2.1941669"
         sodipodi:arg1="-0.52359878"
         sodipodi:arg2="0.52359878"
         inkscape:rounded="0"
         inkscape:randomized="0"
         d="m 258.75736,145.3084 -1.9002,3.29125 -1.90021,3.29125 -1.9002,-3.29125 -1.9002,-3.29125 3.8004,0 z"
         inkscape:transform-center-y="0.89565748"
         transform="matrix(0.81639888,0,0,0.81639888,43.493083,32.505526)"
         inkscape:transform-center-x="1.77393e-06" />
      <path
         style="opacity:1;fill:none;fill-opacity:1;stroke:#999999;stroke-width:0.899555;stroke-linecap:round;stroke-linejoin:round;stroke-dasharray:none;stroke-dashoffset:0;stroke-opacity:1"
         d="M 251.63965,151.55952 V 127.72976"
         id="path448" />
    </g>
    <g
       id="g394-9-7-1"
       transform="matrix(1.0830094,0,0,1.0830094,115.13772,-90.20311)"
       style="display:inline"
       inkscape:label="curly brace">
      <path
         style="opacity:1;fill:none;stroke:#333333;stroke-width:1;stroke-linecap:round;stroke-linejoin:round;stroke-dasharray:none;stroke-dashoffset:1.15654;stroke-opacity:1"
         d="m 10.576193,144.11014 c 0,0 0.01512,3.84455 3.880474,3.80438 1.68543,-0.0175 8.582766,0 8.582766,0"
         id="path394-6-0-2"
         sodipodi:nodetypes="csc" />
      <path
         style="fill:none;stroke:#333333;stroke-width:1;stroke-linecap:round;stroke-linejoin:round;stroke-dasharray:none;stroke-dashoffset:1.15654;stroke-opacity:1"
         d="m 28.358246,151.71113 c 0,0 -0.0151,-3.84455 -3.88048,-3.80438 -1.68543,0.0175 -5.479231,0 -5.479231,0"
         id="path394-9-1-97-8"
         sodipodi:nodetypes="csc" />
      <path
         style="display:inline;fill:none;stroke:#333333;stroke-width:1;stroke-linecap:round;stroke-linejoin:round;stroke-dasharray:none;stroke-dashoffset:1.15654;stroke-opacity:1"
         d="m 47.362904,144.11014 c 0,0 -0.01512,3.84455 -3.880474,3.80438 -1.68543,-0.0175 -8.582766,0 -8.582766,0"
         id="path394-6-0-2-0"
         sodipodi:nodetypes="csc" />
      <path
         style="display:inline;fill:none;stroke:#333333;stroke-width:1;stroke-linecap:round;stroke-linejoin:round;stroke-dasharray:none;stroke-dashoffset:1.15654;stroke-opacity:1"
         d="m 28.358246,151.71113 c 0,0 0.0151,-3.84455 3.88048,-3.80438 1.68543,0.0175 5.479231,0 5.479231,0"
         id="path394-9-1-97-8-1"
         sodipodi:nodetypes="csc" />
    </g>
  </g>
</svg>
