<?xml version="1.0" encoding="UTF-8" standalone="no"?>
<!-- Created with Inkscape (http://www.inkscape.org/) -->

<svg
   version="1.1"
   id="svg1"
   width="154.60899"
   height="220.907"
   viewBox="0 0 154.60899 220.907"
   sodipodi:docname="fixed-effects-panel-model-assumption-violations-legend.svg"
   inkscape:version="1.4.2 (ebf0e940, 2025-05-08)"
   xmlns:inkscape="http://www.inkscape.org/namespaces/inkscape"
   xmlns:sodipodi="http://sodipodi.sourceforge.net/DTD/sodipodi-0.dtd"
   xmlns="http://www.w3.org/2000/svg"
   xmlns:svg="http://www.w3.org/2000/svg">
  <defs
     id="defs1">
    <clipPath
       clipPathUnits="userSpaceOnUse"
       id="clipPath4">
      <path
         d="M 39.152,5.48 H 299.605 V 254.851 H 39.152 Z"
         id="path4" />
    </clipPath>
    <clipPath
       clipPathUnits="userSpaceOnUse"
       id="clipPath6">
      <path
         d="m 39.152,234 h 260.453 v 2 H 39.152 Z"
         id="path6" />
    </clipPath>
    <clipPath
       clipPathUnits="userSpaceOnUse"
       id="clipPath8">
      <path
         d="m 39.152,147 h 260.453 v 2 H 39.152 Z"
         id="path8" />
    </clipPath>
    <clipPath
       clipPathUnits="userSpaceOnUse"
       id="clipPath10">
      <path
         d="m 39.152,60 h 260.453 v 1 H 39.152 Z"
         id="path10" />
    </clipPath>
    <clipPath
       clipPathUnits="userSpaceOnUse"
       id="clipPath12">
      <path
         d="m 80,5.48 h 1 v 249.371 h -1 z"
         id="path12" />
    </clipPath>
    <clipPath
       clipPathUnits="userSpaceOnUse"
       id="clipPath14">
      <path
         d="m 139,5.48 h 2 v 249.371 h -2 z"
         id="path14" />
    </clipPath>
    <clipPath
       clipPathUnits="userSpaceOnUse"
       id="clipPath16">
      <path
         d="m 198,5.48 h 2 v 249.371 h -2 z"
         id="path16" />
    </clipPath>
    <clipPath
       clipPathUnits="userSpaceOnUse"
       id="clipPath18">
      <path
         d="m 257,5.48 h 2 v 249.371 h -2 z"
         id="path18" />
    </clipPath>
    <clipPath
       clipPathUnits="userSpaceOnUse"
       id="clipPath20">
      <path
         d="m 39.152,191 h 260.453 v 2 H 39.152 Z"
         id="path20" />
    </clipPath>
    <clipPath
       clipPathUnits="userSpaceOnUse"
       id="clipPath22">
      <path
         d="m 39.152,103 h 260.453 v 2 H 39.152 Z"
         id="path22" />
    </clipPath>
    <clipPath
       clipPathUnits="userSpaceOnUse"
       id="clipPath24">
      <path
         d="m 39.152,16 h 260.453 v 2 H 39.152 Z"
         id="path24" />
    </clipPath>
    <clipPath
       clipPathUnits="userSpaceOnUse"
       id="clipPath26">
      <path
         d="m 50,5.48 h 2 v 249.371 h -2 z"
         id="path26" />
    </clipPath>
    <clipPath
       clipPathUnits="userSpaceOnUse"
       id="clipPath28">
      <path
         d="m 109,5.48 h 2 v 249.371 h -2 z"
         id="path28" />
    </clipPath>
    <clipPath
       clipPathUnits="userSpaceOnUse"
       id="clipPath30">
      <path
         d="m 168,5.48 h 2 v 249.371 h -2 z"
         id="path30" />
    </clipPath>
    <clipPath
       clipPathUnits="userSpaceOnUse"
       id="clipPath32">
      <path
         d="m 228,5.48 h 2 v 249.371 h -2 z"
         id="path32" />
    </clipPath>
    <clipPath
       clipPathUnits="userSpaceOnUse"
       id="clipPath34">
      <path
         d="m 287,5.48 h 2 v 249.371 h -2 z"
         id="path34" />
    </clipPath>
    <clipPath
       clipPathUnits="userSpaceOnUse"
       id="clipPath44">
      <path
         d="M 39.152,5.48 H 299.605 V 254.851 H 39.152 Z"
         id="path44" />
    </clipPath>
  </defs>
  <sodipodi:namedview
     id="namedview1"
     pagecolor="#ffffff"
     bordercolor="#000000"
     borderopacity="0.25"
     inkscape:showpageshadow="2"
     inkscape:pageopacity="0.0"
     inkscape:pagecheckerboard="0"
     inkscape:deskcolor="#d1d1d1"
     inkscape:zoom="0.84589041"
     inkscape:cx="253.57895"
     inkscape:cy="166.68826"
     inkscape:window-width="1280"
     inkscape:window-height="747"
     inkscape:window-x="0"
     inkscape:window-y="25"
     inkscape:window-maximized="0"
     inkscape:current-layer="g1">
    <inkscape:page
       x="0"
       y="0"
       inkscape:label="1"
       id="page1"
       width="154.60899"
       height="220.907"
       margin="0"
       bleed="0" />
  </sodipodi:namedview>
  <g
     id="g1"
     inkscape:groupmode="layer"
     inkscape:label="1">
    <path
       id="path57"
       d="M 0,0 H 154.60933 V 220.90666 H 0 Z"
       style="fill:#ffffff;fill-opacity:1;fill-rule:nonzero;stroke:none;stroke-width:1.33333" />
    <path
       id="path58"
       d="m 15.667348,19.91696 -1.15625,-2.953125 H 9.9173483 l -1.15625,2.953125 H 7.3392234 L 11.448598,9.8232104 h 1.5625 L 17.057973,19.91696 Z m -3.453125,-9.0625 -0.0625,0.203125 c -0.125,0.398438 -0.304687,0.902344 -0.53125,1.515625 l -1.296875,3.328125 h 3.78125 L 12.807973,12.57321 c -0.136719,-0.332031 -0.273437,-0.707031 -0.40625,-1.125 z m 11.21875,6.921875 c 0,0.730469 -0.277344,1.292969 -0.828125,1.6875 -0.554688,0.398438 -1.328125,0.59375 -2.328125,0.59375 -0.960937,0 -1.703125,-0.15625 -2.234375,-0.46875 -0.523437,-0.320312 -0.859375,-0.816406 -1.015625,-1.484375 l 1.140625,-0.234375 c 0.113281,0.417969 0.34375,0.726563 0.6875,0.921875 0.34375,0.1875 0.816406,0.28125 1.421875,0.28125 0.65625,0 1.132813,-0.09766 1.4375,-0.296875 0.300781,-0.195312 0.453125,-0.5 0.453125,-0.90625 0,-0.300781 -0.105467,-0.546875 -0.3125,-0.734375 -0.210937,-0.195312 -0.546875,-0.359375 -1.015625,-0.484375 L 19.917348,16.41696 c -0.742187,-0.195312 -1.265625,-0.382812 -1.578125,-0.5625 -0.3125,-0.1875 -0.558594,-0.410156 -0.734375,-0.671875 -0.179687,-0.257812 -0.265625,-0.582031 -0.265625,-0.96875 0,-0.707031 0.25,-1.242187 0.75,-1.609375 0.507813,-0.375 1.242188,-0.5625 2.203125,-0.5625 0.851563,0 1.531251,0.152344 2.031251,0.453125 0.507812,0.304688 0.83203,0.789063 0.968749,1.453125 l -1.156249,0.140625 c -0.07421,-0.34375 -0.265626,-0.609375 -0.578126,-0.796875 -0.3125,-0.1875 -0.734374,-0.28125 -1.265625,-0.28125 -0.585937,0 -1.015625,0.08984 -1.296875,0.265625 -0.273437,0.179688 -0.40625,0.449219 -0.40625,0.8125 0,0.21875 0.05469,0.402344 0.171875,0.546875 0.113281,0.136719 0.28125,0.257813 0.5,0.359375 0.226563,0.10547 0.703125,0.246094 1.421875,0.421875 0.6875,0.167969 1.179687,0.324219 1.484375,0.46875 0.300781,0.148438 0.535156,0.308594 0.703125,0.484375 0.175782,0.179688 0.3125,0.382813 0.40625,0.609375 0.10156,0.230469 0.15625,0.496094 0.15625,0.796875 z m 8.007812,0 c 0,0.730469 -0.277344,1.292969 -0.828125,1.6875 -0.554687,0.398438 -1.328124,0.59375 -2.328124,0.59375 -0.960937,0 -1.703125,-0.15625 -2.234376,-0.46875 -0.523437,-0.320312 -0.859375,-0.816406 -1.015624,-1.484375 l 1.140624,-0.234375 c 0.11328,0.417969 0.343751,0.726563 0.6875,0.921875 0.343751,0.1875 0.816407,0.28125 1.421876,0.28125 0.656249,0 1.132812,-0.09766 1.4375,-0.296875 0.300781,-0.195312 0.453124,-0.5 0.453124,-0.90625 0,-0.300781 -0.105467,-0.546875 -0.3125,-0.734375 -0.210938,-0.195312 -0.546875,-0.359375 -1.015624,-0.484375 L 27.92516,16.41696 c -0.742187,-0.195312 -1.265624,-0.382812 -1.578124,-0.5625 -0.3125,-0.1875 -0.558595,-0.410156 -0.734376,-0.671875 -0.179687,-0.257812 -0.265624,-0.582031 -0.265624,-0.96875 0,-0.707031 0.25,-1.242187 0.75,-1.609375 0.507812,-0.375 1.242187,-0.5625 2.203124,-0.5625 0.851562,0 1.53125,0.152344 2.03125,0.453125 0.507812,0.304688 0.832031,0.789063 0.96875,1.453125 l -1.15625,0.140625 c -0.07421,-0.34375 -0.265625,-0.609375 -0.578125,-0.796875 -0.3125,-0.1875 -0.734375,-0.28125 -1.265625,-0.28125 -0.585937,0 -1.015624,0.08984 -1.296875,0.265625 -0.273437,0.179688 -0.406249,0.449219 -0.406249,0.8125 0,0.21875 0.05468,0.402344 0.171875,0.546875 0.11328,0.136719 0.281249,0.257813 0.5,0.359375 0.226562,0.10547 0.703125,0.246094 1.421874,0.421875 0.6875,0.167969 1.179688,0.324219 1.484375,0.46875 0.300781,0.148438 0.535157,0.308594 0.703125,0.484375 0.175781,0.179688 0.3125,0.382813 0.406251,0.609375 0.10156,0.230469 0.156249,0.496094 0.156249,0.796875 z m 3.433593,-5.609375 v 4.90625 c 0,0.511719 0.04688,0.914063 0.140626,1.203125 0.10156,0.28125 0.265625,0.484375 0.484374,0.609375 0.218751,0.117188 0.539063,0.171875 0.968751,0.171875 0.625,0 1.113281,-0.207031 1.468749,-0.625 0.363282,-0.425781 0.546876,-1.019531 0.546876,-1.78125 V 12.16696 h 1.28125 v 6.09375 c 0,0.90625 0.01563,1.460938 0.04688,1.65625 h -1.21875 c -0.01173,-0.01953 -0.01563,-0.08203 -0.01563,-0.1875 0,-0.101562 -0.0079,-0.222656 -0.01563,-0.359375 -0.01173,-0.144531 -0.02344,-0.40625 -0.03125,-0.78125 h -0.01563 c -0.304687,0.542969 -0.648437,0.921875 -1.031249,1.140625 -0.386719,0.21875 -0.871095,0.328125 -1.453126,0.328125 -0.84375,0 -1.464844,-0.207031 -1.859374,-0.625 -0.398438,-0.425781 -0.593751,-1.128906 -0.593751,-2.109375 v -5.15625 z m 11.257813,7.75 v -4.921875 c 0,-0.75 -0.105466,-1.265625 -0.3125,-1.546875 -0.199218,-0.289062 -0.570313,-0.4375 -1.109374,-0.4375 -0.54297,0 -0.976563,0.214844 -1.296876,0.640625 -0.324219,0.417969 -0.484375,1.011719 -0.484375,1.78125 v 4.484375 h -1.281249 v -6.09375 c 0,-0.90625 -0.01563,-1.457031 -0.04688,-1.65625 h 1.21875 c 0.0079,0.02344 0.01563,0.08594 0.01563,0.1875 0.0079,0.10547 0.01563,0.230469 0.01563,0.375 0.0079,0.136719 0.01953,0.390625 0.03125,0.765625 h 0.01563 c 0.281249,-0.550781 0.597656,-0.929687 0.953124,-1.140625 0.363281,-0.21875 0.800781,-0.328125 1.3125,-0.328125 0.59375,0 1.054688,0.121094 1.390625,0.359375 0.343751,0.230469 0.582032,0.601563 0.718751,1.109375 h 0.01563 c 0.269532,-0.519531 0.593751,-0.894531 0.968751,-1.125 0.382812,-0.226562 0.847656,-0.34375 1.390625,-0.34375 0.78125,0 1.347656,0.214844 1.703124,0.640625 0.351563,0.417969 0.531251,1.109375 0.531251,2.078125 v 5.171875 h -1.265632 v -4.921875 c 0,-0.75 -0.105467,-1.265625 -0.3125,-1.546875 -0.210937,-0.289062 -0.578125,-0.4375 -1.109375,-0.4375 -0.5625,0 -1,0.214844 -1.3125,0.640625 -0.3125,0.417969 -0.46875,1.011719 -0.46875,1.78125 v 4.484375 z m 14.042968,-3.90625 c 0,2.699219 -0.953124,4.046875 -2.859375,4.046875 -1.1875,0 -1.992186,-0.445312 -2.406249,-1.34375 h -0.03125 c 0.01953,0.04297 0.03125,0.449219 0.03125,1.21875 v 3.03125 h -1.296876 v -9.21875 c 0,-0.789062 -0.01173,-1.316406 -0.03125,-1.578125 h 1.234374 c 0.0079,0.02344 0.01953,0.08984 0.03125,0.203125 0.0079,0.117188 0.01953,0.296875 0.03125,0.546875 0.0079,0.242188 0.01563,0.40625 0.01563,0.5 h 0.03125 c 0.226563,-0.476562 0.531251,-0.828125 0.906251,-1.046875 0.375,-0.226562 0.867188,-0.34375 1.484374,-0.34375 0.957032,0 1.671875,0.324219 2.140626,0.96875 0.476562,0.636719 0.718749,1.640625 0.718749,3.015625 z m -1.359375,0.01563 c 0,-1.070313 -0.148437,-1.835938 -0.4375,-2.296875 -0.292968,-0.46875 -0.757812,-0.703125 -1.390625,-0.703125 -0.511719,0 -0.914061,0.109374 -1.203124,0.328125 -0.281251,0.210937 -0.5,0.542968 -0.656251,1 -0.148437,0.460937 -0.218749,1.054687 -0.218749,1.78125 0,1.023437 0.160156,1.773437 0.484375,2.249999 0.320312,0.480469 0.847656,0.718751 1.578125,0.718751 0.644531,0 1.113281,-0.234375 1.406249,-0.703125 0.289063,-0.46875 0.4375,-1.257813 0.4375,-2.375 z m 5.773438,3.828125 c -0.429687,0.11328 -0.859375,0.171874 -1.296875,0.171874 -1.031249,0 -1.546875,-0.582031 -1.546875,-1.75 V 13.10446 h -0.90625 v -0.9375 h 0.953125 l 0.375,-1.734375 h 0.859375 v 1.734375 h 1.4375 v 0.9375 h -1.4375 v 4.890625 c 0,0.375 0.05469,0.640625 0.171876,0.796875 0.125,0.148438 0.335937,0.21875 0.640624,0.21875 0.175781,0 0.425781,-0.03516 0.75,-0.109375 z m 1.003906,-9.34375 V 9.2919607 h 1.28125 v 1.2187503 z m 0,9.40625 V 12.16696 h 1.28125 v 7.75 z m 9.234375,-3.890626 c 0,1.367188 -0.304687,2.382813 -0.90625,3.046875 -0.59375,0.65625 -1.460937,0.984375 -2.59375,0.984375 -1.136719,0 -1.996094,-0.34375 -2.578126,-1.03125 -0.574218,-0.6875 -0.859374,-1.6875 -0.859374,-3 0,-2.664062 1.160156,-4 3.484374,-4 1.1875,0 2.054688,0.328125 2.609376,0.984375 0.5625,0.648438 0.84375,1.652344 0.84375,3.015625 z m -1.359375,0 c 0,-1.0625 -0.164063,-1.832031 -0.484375,-2.3125 -0.3125,-0.488281 -0.84375,-0.734375 -1.59375,-0.734375 -0.75,0 -1.296875,0.25 -1.640626,0.75 -0.335937,0.492188 -0.5,1.257813 -0.5,2.296875 0,1.03125 0.164063,1.804688 0.5,2.3125 0.332032,0.511719 0.851563,0.765625 1.5625,0.765625 0.769532,0 1.320314,-0.242187 1.656251,-0.734375 0.332031,-0.5 0.5,-1.28125 0.5,-2.34375 z m 7.710937,3.890625 v -4.921875 c 0,-0.507812 -0.05469,-0.90625 -0.156249,-1.1875 -0.09375,-0.28125 -0.25,-0.484375 -0.468751,-0.609375 -0.218749,-0.125 -0.542968,-0.1875 -0.968749,-0.1875 -0.625,0 -1.117188,0.214844 -1.468751,0.640625 -0.355468,0.429688 -0.531249,1.023438 -0.531249,1.78125 V 19.91696 H 76.28844 v -6.09375 c 0,-0.90625 -0.01563,-1.457031 -0.04688,-1.65625 h 1.218751 c 0.0079,0.02344 0.01563,0.08594 0.01563,0.1875 0.0079,0.10547 0.01563,0.230469 0.01563,0.375 0.0079,0.136719 0.01953,0.390625 0.03125,0.765625 h 0.01563 c 0.300781,-0.539062 0.644532,-0.921875 1.031251,-1.140625 0.39453,-0.21875 0.878906,-0.328125 1.453125,-0.328125 0.851561,0 1.472656,0.214844 1.859374,0.640625 0.394531,0.417969 0.59375,1.109375 0.59375,2.078125 v 5.171875 z m 10.468751,0 h -1.531251 l -2.8125,-7.75 h 1.375 l 1.703125,5.046875 c 0.06249,0.1875 0.226563,0.75 0.5,1.6875 l 0.25,-0.828125 0.28125,-0.84375 1.765625,-5.0625 h 1.359375 z m 4.601561,-9.40625 V 9.2919604 h 1.28125 V 10.51071 Z m 0,9.40625 v -7.75 h 1.28125 v 7.75 z m 9.214843,-3.890625 c 0,1.367188 -0.30469,2.382813 -0.90625,3.046875 -0.59375,0.65625 -1.46094,0.984375 -2.59375,0.984375 -1.13672,0 -1.996093,-0.34375 -2.578123,-1.03125 -0.57422,-0.6875 -0.859376,-1.6875 -0.859376,-3 0,-2.664062 1.160156,-4 3.484379,-4 1.1875,0 2.05468,0.328125 2.60937,0.984375 0.5625,0.648438 0.84375,1.652344 0.84375,3.015625 z m -1.35937,0 c 0,-1.0625 -0.16407,-1.832031 -0.48438,-2.3125 -0.3125,-0.488281 -0.84375,-0.734375 -1.59375,-0.734375 -0.75,0 -1.29687,0.25 -1.64062,0.75 -0.33594,0.492188 -0.500003,1.257813 -0.500003,2.296875 0,1.03125 0.164063,1.804688 0.500003,2.3125 0.33203,0.511719 0.85156,0.765625 1.5625,0.765625 0.76953,0 1.32031,-0.242187 1.65625,-0.734375 0.33203,-0.5 0.5,-1.28125 0.5,-2.34375 z m 2.80468,3.890625 V 9.2919604 h 1.29688 V 19.91696 Z m 4.64063,0.140625 c -0.78125,0 -1.3711,-0.203125 -1.76563,-0.609375 -0.38671,-0.414062 -0.57812,-0.976562 -0.57812,-1.6875 0,-0.800781 0.25781,-1.414062 0.78125,-1.84375 0.53125,-0.4375 1.38281,-0.671875 2.5625,-0.703125 l 1.73437,-0.03125 v -0.421875 c 0,-0.625 -0.13671,-1.070312 -0.40625,-1.34375 -0.26172,-0.269531 -0.67968,-0.40625 -1.25,-0.40625 -0.57422,0 -0.99609,0.101563 -1.26562,0.296875 -0.26172,0.1875 -0.41797,0.496094 -0.46875,0.921875 l -1.34375,-0.109375 c 0.21875,-1.394531 1.2539,-2.09375 3.10937,-2.09375 0.96875,0 1.69532,0.226563 2.1875,0.671875 0.5,0.4375 0.75,1.085938 0.75,1.9375 v 3.328124 c 0,0.386719 0.0469,0.679688 0.14063,0.875 0.10156,0.1875 0.29687,0.28125 0.57812,0.28125 0.125,0 0.26563,-0.01563 0.42188,-0.04687 v 0.796875 c -0.32422,0.08203 -0.65625,0.125 -1,0.125 -0.46875,0 -0.8125,-0.125 -1.03125,-0.375 -0.21875,-0.257812 -0.34375,-0.65625 -0.375,-1.1875 h -0.0469 c -0.32421,0.59375 -0.70312,1.015625 -1.14062,1.265625 -0.4375,0.238281 -0.96875,0.359375 -1.59375,0.359375 z m 0.29687,-0.96875 c 0.46875,0 0.88282,-0.101562 1.25,-0.3125 0.375,-0.21875 0.66407,-0.515625 0.875,-0.890625 0.20703,-0.375 0.3125,-0.757812 0.3125,-1.15625 v -0.640625 l -1.40625,0.03125 c -0.60546,0.01172 -1.0625,0.07422 -1.375,0.1875 -0.3125,0.117188 -0.55468,0.292968 -0.71875,0.53125 -0.16797,0.242187 -0.25,0.554687 -0.25,0.9375 0,0.417968 0.10938,0.742187 0.32813,0.96875 0.22656,0.230468 0.55469,0.34375 0.98437,0.34375 z m 8.69532,0.765625 c -0.42969,0.113281 -0.85938,0.171875 -1.29688,0.171875 -1.03125,0 -1.54687,-0.582031 -1.54687,-1.75 V 13.10446 h -0.90625 v -0.9375 h 0.95312 l 0.375,-1.734375 h 0.85938 v 1.734375 h 1.4375 v 0.9375 h -1.4375 v 4.890625 c 0,0.375 0.0547,0.640625 0.17187,0.796875 0.125,0.148438 0.33594,0.21875 0.64063,0.21875 0.17578,0 0.42578,-0.03516 0.75,-0.109375 z m 1.00781,-9.34375 V 9.2919604 h 1.28125 V 10.51071 Z m 0,9.40625 v -7.75 h 1.28125 v 7.75 z m 9.23047,-3.890625 c 0,1.367188 -0.30469,2.382813 -0.90625,3.046875 -0.59375,0.65625 -1.46094,0.984375 -2.59375,0.984375 -1.13672,0 -1.9961,-0.34375 -2.57813,-1.03125 -0.57422,-0.6875 -0.85937,-1.6875 -0.85937,-3 0,-2.664062 1.16015,-4 3.48437,-4 1.1875,0 2.05469,0.328125 2.60938,0.984375 0.5625,0.648438 0.84375,1.652344 0.84375,3.015625 z m -1.35938,0 c 0,-1.0625 -0.16406,-1.832031 -0.48437,-2.3125 -0.3125,-0.488281 -0.84375,-0.734375 -1.59375,-0.734375 -0.75,0 -1.29688,0.25 -1.64063,0.75 -0.33594,0.492188 -0.5,1.257813 -0.5,2.296875 0,1.03125 0.16406,1.804688 0.5,2.3125 0.33203,0.511719 0.85156,0.765625 1.5625,0.765625 0.76953,0 1.32031,-0.242187 1.65625,-0.734375 0.33203,-0.5 0.5,-1.28125 0.5,-2.34375 z m 7.71094,3.890625 v -4.921875 c 0,-0.507812 -0.0547,-0.90625 -0.15625,-1.1875 -0.0937,-0.28125 -0.25,-0.484375 -0.46875,-0.609375 -0.21875,-0.125 -0.54297,-0.1875 -0.96875,-0.1875 -0.625,0 -1.11719,0.214844 -1.46875,0.640625 -0.35547,0.429688 -0.53125,1.023438 -0.53125,1.78125 v 4.484375 h -1.29688 v -6.09375 c 0,-0.90625 -0.0156,-1.457031 -0.0469,-1.65625 h 1.21875 c 0.008,0.02344 0.0156,0.08594 0.0156,0.1875 0.008,0.10547 0.0156,0.230469 0.0156,0.375 0.008,0.136719 0.0195,0.390625 0.0312,0.765625 h 0.0156 c 0.30078,-0.539062 0.64453,-0.921875 1.03125,-1.140625 0.39453,-0.21875 0.8789,-0.328125 1.45312,-0.328125 0.85156,0 1.47266,0.214844 1.85938,0.640625 0.39453,0.417969 0.59375,1.109375 0.59375,2.078125 v 5.171875 z m 8.91406,-2.140625 c 0,0.730469 -0.27735,1.292969 -0.82812,1.6875 -0.55469,0.398438 -1.32813,0.59375 -2.32813,0.59375 -0.96094,0 -1.70312,-0.15625 -2.23438,-0.46875 -0.52343,-0.320312 -0.85937,-0.816406 -1.01562,-1.484375 l 1.14062,-0.234375 c 0.11334,0.417969 0.34375,0.726563 0.68751,0.921875 0.34375,0.1875 0.8164,0.28125 1.42187,0.28125 0.65625,0 1.13281,-0.09766 1.4375,-0.296875 0.30078,-0.195312 0.45312,-0.5 0.45312,-0.90625 0,-0.300781 -0.10546,-0.546875 -0.31249,-0.734375 -0.21095,-0.195312 -0.54688,-0.359375 -1.01563,-0.484375 l -0.92188,-0.234375 c -0.74218,-0.195312 -1.26562,-0.382812 -1.57812,-0.5625 -0.3125,-0.1875 -0.55859,-0.410156 -0.73437,-0.671875 -0.17969,-0.257812 -0.26563,-0.582031 -0.26563,-0.96875 0,-0.707031 0.25,-1.242187 0.75,-1.609375 0.50782,-0.375 1.24219,-0.5625 2.20312,-0.5625 0.85156,0 1.53126,0.152344 2.03126,0.453125 0.50781,0.304688 0.83202,0.789063 0.96874,1.453125 l -1.15625,0.140625 c -0.0743,-0.34375 -0.26561,-0.609375 -0.57812,-0.796875 -0.31249,-0.1875 -0.73437,-0.28125 -1.26563,-0.28125 -0.58593,0 -1.01562,0.08984 -1.29686,0.265625 -0.27344,0.179688 -0.40626,0.449219 -0.40626,0.8125 0,0.21875 0.0547,0.402344 0.17187,0.546875 0.11333,0.136719 0.28125,0.257813 0.5,0.359375 0.22657,0.10547 0.70313,0.246094 1.42188,0.421875 0.68751,0.167969 1.17969,0.324219 1.48437,0.46875 0.30079,0.148438 0.53516,0.308594 0.70314,0.484375 0.17577,0.179688 0.31249,0.382813 0.40624,0.609375 0.1016,0.230469 0.15625,0.496094 0.15625,0.796875 z m 0,0"
       style="fill:#000000;fill-opacity:1;fill-rule:nonzero;stroke:none;stroke-width:1.33333"
       aria-label="Assumption violations" />
    <path
       id="path59"
       d="M 7.3079998,29.275999 H 30.349333 V 52.317332 H 7.3079998 Z"
       style="fill:#ffffff;fill-opacity:1;fill-rule:nonzero;stroke:none;stroke-width:1.33333" />
    <path
       id="path60"
       d="M 9.6106664,40.802666 H 28.042666"
       style="fill:none;stroke:#00ff00;stroke-width:1.42264;stroke-linecap:butt;stroke-linejoin:round;stroke-miterlimit:10;stroke-dasharray:none;stroke-opacity:1" />
    <path
       id="path61"
       d="M 7.3079998,52.317332 H 30.349333 V 75.358665 H 7.3079998 Z"
       style="fill:#ffffff;fill-opacity:1;fill-rule:nonzero;stroke:none;stroke-width:1.33333" />
    <path
       id="path62"
       d="M 9.6106664,63.838665 H 28.042666"
       style="fill:none;stroke:#1f77b4;stroke-width:1.42264;stroke-linecap:butt;stroke-linejoin:round;stroke-miterlimit:10;stroke-dasharray:none;stroke-opacity:1" />
    <path
       id="path63"
       d="M 7.3079998,75.359998 H 30.349333 V 98.401331 H 7.3079998 Z"
       style="fill:#ffffff;fill-opacity:1;fill-rule:nonzero;stroke:none;stroke-width:1.33333" />
    <path
       id="path64"
       d="M 9.6106664,86.879998 H 28.042666"
       style="fill:none;stroke:#ff7f0e;stroke-width:1.42264;stroke-linecap:butt;stroke-linejoin:round;stroke-miterlimit:10;stroke-dasharray:none;stroke-opacity:1" />
    <path
       id="path65"
       d="M 7.3079998,98.395998 H 30.349333 V 121.43733 H 7.3079998 Z"
       style="fill:#ffffff;fill-opacity:1;fill-rule:nonzero;stroke:none;stroke-width:1.33333" />
    <path
       id="path66"
       d="M 9.6106664,109.92266 H 28.042666"
       style="fill:none;stroke:#9467bd;stroke-width:1.42264;stroke-linecap:butt;stroke-linejoin:round;stroke-miterlimit:10;stroke-dasharray:none;stroke-opacity:1" />
    <path
       id="path67"
       d="M 7.3079998,121.43733 H 30.349333 v 23.04133 H 7.3079998 Z"
       style="fill:#ffffff;fill-opacity:1;fill-rule:nonzero;stroke:none;stroke-width:1.33333" />
    <path
       id="path68"
       d="M 9.6106664,132.95866 H 28.042666"
       style="fill:none;stroke:#8c564b;stroke-width:1.42264;stroke-linecap:butt;stroke-linejoin:round;stroke-miterlimit:10;stroke-dasharray:none;stroke-opacity:1" />
    <path
       id="path69"
       d="M 7.3079998,144.48 H 30.349333 v 23.04133 H 7.3079998 Z"
       style="fill:#ffffff;fill-opacity:1;fill-rule:nonzero;stroke:none;stroke-width:1.33333" />
    <path
       id="path70"
       d="M 9.6106664,156 H 28.042666"
       style="fill:none;stroke:#17becf;stroke-width:1.42264;stroke-linecap:butt;stroke-linejoin:round;stroke-miterlimit:10;stroke-dasharray:none;stroke-opacity:1" />
    <path
       id="path71"
       d="M 7.3079998,167.516 H 30.349333 v 23.04133 H 7.3079998 Z"
       style="fill:#ffffff;fill-opacity:1;fill-rule:nonzero;stroke:none;stroke-width:1.33333" />
    <path
       id="path72"
       d="M 9.6106664,179.04133 H 28.042666"
       style="fill:none;stroke:#ff0000;stroke-width:1.42264;stroke-linecap:butt;stroke-linejoin:round;stroke-miterlimit:10;stroke-dasharray:none;stroke-opacity:1" />
    <path
       id="path73"
       d="M 7.3079998,190.55733 H 30.349333 v 23.04133 H 7.3079998 Z"
       style="fill:#ffffff;fill-opacity:1;fill-rule:nonzero;stroke:none;stroke-width:1.33333" />
    <path
       id="path74"
       d="M 9.6106664,202.07866 H 28.042666"
       style="fill:none;stroke:#000000;stroke-width:1.42264;stroke-linecap:butt;stroke-linejoin:round;stroke-miterlimit:10;stroke-dasharray:none;stroke-opacity:1" />
    <path
       id="path75"
       d="m 43.854839,45.424776 -4.328125,-6.874999 0.03125,0.5625 0.03125,0.953125 v 5.359374 h -0.968749 v -8.078124 h 1.265625 l 4.359375,6.921874 c -0.04297,-0.75 -0.0625,-1.289062 -0.0625,-1.625 v -5.296874 h 0.984375 v 8.078124 z m 7.83203,-3.109374 c 0,1.085937 -0.242186,1.890624 -0.718749,2.421874 -0.480469,0.53125 -1.171875,0.796875 -2.078125,0.796875 -0.90625,0 -1.589844,-0.273437 -2.046875,-0.828125 -0.460937,-0.550781 -0.6875,-1.347656 -0.6875,-2.390624 0,-2.132813 0.921875,-3.203125 2.765625,-3.203125 0.945313,0 1.644531,0.261718 2.09375,0.78125 0.445313,0.523437 0.671874,1.328125 0.671874,2.421875 z m -1.078124,0 c 0,-0.851563 -0.132812,-1.472657 -0.390625,-1.859375 -0.25,-0.382813 -0.679688,-0.578125 -1.28125,-0.578125 -0.59375,0 -1.027344,0.199218 -1.296875,0.59375 -0.273437,0.398437 -0.40625,1.011718 -0.40625,1.84375 0,0.824218 0.128907,1.445312 0.390625,1.859374 0.269531,0.40625 0.6875,0.609375 1.25,0.609375 0.625,0 1.066406,-0.195312 1.328125,-0.59375 0.269531,-0.40625 0.40625,-1.031249 0.40625,-1.874999 z m 6.445312,3.109374 v -3.9375 c 0,-0.40625 -0.04297,-0.71875 -0.125,-0.9375 -0.08593,-0.226562 -0.214844,-0.390624 -0.390625,-0.484374 -0.179687,-0.101563 -0.433593,-0.15625 -0.765624,-0.15625 -0.5,0 -0.898439,0.171875 -1.1875,0.515625 -0.281251,0.335937 -0.421876,0.804687 -0.421876,1.406249 v 3.59375 h -1.031249 v -4.875 c 0,-0.718749 -0.01173,-1.160156 -0.03125,-1.328124 h 0.968751 c 0.0079,0.02344 0.01563,0.07422 0.01563,0.15625 0,0.08594 0,0.183593 0,0.296875 0.0079,0.105469 0.01953,0.308593 0.03125,0.609375 h 0.01563 c 0.238281,-0.425782 0.515625,-0.726563 0.828125,-0.90625 0.3125,-0.175782 0.695312,-0.265625 1.156249,-0.265625 0.675782,0 1.171875,0.171875 1.484375,0.515625 0.320313,0.335937 0.484376,0.890625 0.484376,1.671874 v 4.125 z m 3.507812,-2.875 c 0,0.710938 0.144532,1.257813 0.4375,1.640625 0.300781,0.386719 0.734376,0.578125 1.296876,0.578125 0.445312,0 0.804687,-0.08594 1.078124,-0.265625 0.269532,-0.1875 0.453125,-0.414062 0.546876,-0.6875 l 0.906249,0.25 c -0.375,0.980469 -1.218749,1.46875 -2.531249,1.46875 -0.917969,0 -1.617188,-0.269531 -2.093751,-0.8125 -0.480468,-0.550781 -0.718749,-1.363281 -0.718749,-2.437499 0,-1.019532 0.238281,-1.800782 0.718749,-2.34375 0.476563,-0.550782 1.160156,-0.828125 2.046875,-0.828125 1.820313,0 2.734376,1.101562 2.734376,3.296875 v 0.140624 z m 3.359376,-0.796874 c -0.05469,-0.65625 -0.218751,-1.128907 -0.5,-1.421875 -0.273437,-0.300782 -0.667969,-0.453125 -1.1875,-0.453125 -0.5,0 -0.898437,0.167968 -1.1875,0.5 -0.292969,0.335937 -0.449219,0.792968 -0.468751,1.375 z m -25.300781,26.70703 v -8.078124 h 6.125 v 0.906249 h -5.03125 v 2.578125 h 4.6875 v 0.890626 h -4.6875 v 2.8125 h 5.265625 v 0.890624 z m 14.925781,-4.125 c 0,0.835937 -0.164062,1.5625 -0.484376,2.1875 -0.324218,0.625 -0.781249,1.105469 -1.375,1.4375 -0.593749,0.335937 -1.281249,0.5 -2.062499,0.5 h -3.015625 v -8.078124 h 2.65625 c 1.375,0 2.429688,0.343749 3.171874,1.031249 0.738282,0.6875 1.109376,1.664063 1.109376,2.921875 z m -1.09375,0 c 0,-1 -0.277344,-1.757812 -0.828126,-2.28125 -0.542968,-0.53125 -1.335937,-0.796874 -2.374999,-0.796874 h -1.546875 v 6.328124 h 1.796875 c 0.59375,0 1.113281,-0.128907 1.562499,-0.390624 0.445314,-0.257814 0.789063,-0.632814 1.031251,-1.125 0.238281,-0.488282 0.359375,-1.066407 0.359375,-1.734376 z m 9.753906,0.04688 c 0,0.843749 -0.164063,1.585937 -0.484375,2.218749 -0.324218,0.636719 -0.789062,1.125 -1.390625,1.468751 -0.605469,0.335937 -1.3125,0.5 -2.125,0.5 -0.835937,0 -1.554688,-0.164063 -2.15625,-0.5 -0.605468,-0.332032 -1.0625,-0.816407 -1.375,-1.453126 -0.3125,-0.632813 -0.46875,-1.378906 -0.46875,-2.234374 0,-1.289063 0.347656,-2.296876 1.046875,-3.015625 0.707032,-0.726563 1.691407,-1.093751 2.953125,-1.093751 0.820312,0 1.535156,0.164063 2.140625,0.484376 0.601562,0.324219 1.0625,0.796875 1.375,1.421874 0.320312,0.625 0.484375,1.359375 0.484375,2.203126 z m -1.109375,0 c 0,-1 -0.257813,-1.785158 -0.765625,-2.359376 -0.5,-0.570312 -1.210937,-0.859375 -2.125,-0.859375 -0.917969,0 -1.632813,0.281251 -2.140625,0.843751 -0.5,0.5625 -0.75,1.355468 -0.75,2.375 0,1.011718 0.253907,1.8125 0.765625,2.406249 0.507812,0.593751 1.21875,0.890625 2.125,0.890625 0.925781,0 1.640625,-0.285156 2.140625,-0.859374 0.5,-0.570314 0.75,-1.382814 0.75,-2.4375 z m 6.105468,1.203124 c 0,0.710937 0.144532,1.257813 0.4375,1.640625 0.300782,0.386719 0.734375,0.578125 1.296875,0.578125 0.445313,0 0.804688,-0.08593 1.078125,-0.265625 0.269532,-0.1875 0.453126,-0.414063 0.546875,-0.6875 l 0.906251,0.25 c -0.375,0.980469 -1.218751,1.468751 -2.531251,1.468751 -0.917968,0 -1.617187,-0.269532 -2.093749,-0.8125 -0.48047,-0.550782 -0.718751,-1.363282 -0.718751,-2.4375 0,-1.019532 0.238281,-1.800782 0.718751,-2.343751 0.476562,-0.550781 1.160156,-0.828125 2.046874,-0.828125 1.820314,0 2.734375,1.101562 2.734375,3.296876 v 0.140624 z m 3.359375,-0.796875 c -0.05469,-0.656249 -0.218749,-1.128907 -0.5,-1.421875 -0.273437,-0.300781 -0.667968,-0.453125 -1.1875,-0.453125 -0.5,0 -0.898437,0.167969 -1.1875,0.5 -0.292968,0.335937 -0.449219,0.792969 -0.468749,1.375 z m 2.539062,3.671875 v -4.75 c 0,-0.4375 -0.01173,-0.921875 -0.03125,-1.453124 h 0.968749 c 0.03125,0.710937 0.04688,1.132812 0.04688,1.265624 h 0.03125 c 0.15625,-0.53125 0.335937,-0.890624 0.546874,-1.078124 0.218751,-0.195314 0.523438,-0.296876 0.921876,-0.296876 0.132814,0 0.273438,0.02344 0.421875,0.06249 v 0.9375 c -0.148437,-0.03907 -0.335937,-0.06249 -0.5625,-0.06249 -0.429688,0 -0.757813,0.1875 -0.984375,0.5625 -0.21875,0.367188 -0.328125,0.890625 -0.328125,1.578125 v 3.234375 z m 4,0 v -4.75 c 0,-0.4375 -0.01173,-0.921875 -0.03125,-1.453124 h 0.968749 c 0.03125,0.710937 0.04688,1.132812 0.04688,1.265624 h 0.03125 c 0.15625,-0.53125 0.335937,-0.890624 0.546874,-1.078124 0.218751,-0.195314 0.523438,-0.296876 0.921876,-0.296876 0.132814,0 0.273438,0.02344 0.421875,0.06249 v 0.9375 c -0.148437,-0.03907 -0.335937,-0.06249 -0.5625,-0.06249 -0.429688,0 -0.757813,0.1875 -0.984375,0.5625 -0.21875,0.367188 -0.328125,0.890625 -0.328125,1.578125 v 3.234375 z m 9.207032,-3.109375 c 0,1.085937 -0.242188,1.890625 -0.718751,2.421875 -0.480468,0.53125 -1.171874,0.796876 -2.078125,0.796876 -0.906249,0 -1.589842,-0.273439 -2.046874,-0.828126 -0.460938,-0.550781 -0.6875,-1.347656 -0.6875,-2.390625 0,-2.132812 0.921874,-3.203125 2.765625,-3.203125 0.945312,0 1.64453,0.261718 2.093749,0.78125 0.445313,0.523438 0.671876,1.328126 0.671876,2.421875 z m -1.078125,0 c 0,-0.851563 -0.132814,-1.472656 -0.390625,-1.859375 -0.25,-0.382813 -0.679687,-0.578125 -1.28125,-0.578125 -0.59375,0 -1.027344,0.199219 -1.296876,0.593751 -0.273437,0.398437 -0.406249,1.011718 -0.406249,1.843749 0,0.824219 0.128907,1.445312 0.390625,1.859375 0.269531,0.40625 0.6875,0.609376 1.25,0.609376 0.625,0 1.066406,-0.195314 1.328124,-0.593751 0.269532,-0.406249 0.406251,-1.031249 0.406251,-1.875 z m 2.523437,3.109375 v -4.75 c 0,-0.4375 -0.01173,-0.921875 -0.03125,-1.453124 h 0.968749 c 0.03125,0.710937 0.04688,1.132812 0.04688,1.265624 h 0.03125 c 0.15625,-0.53125 0.335938,-0.890624 0.546875,-1.078124 0.218751,-0.195314 0.523437,-0.296876 0.921875,-0.296876 0.132813,0 0.273437,0.02344 0.421876,0.06249 v 0.9375 c -0.148439,-0.03907 -0.335939,-0.06249 -0.5625,-0.06249 -0.429688,0 -0.757814,0.1875 -0.984376,0.5625 -0.21875,0.367188 -0.328124,0.890625 -0.328124,1.578125 v 3.234375 z m -42.820311,20.80859 c 0,0.75 -0.292969,1.328124 -0.875,1.734374 -0.574219,0.40625 -1.390625,0.609375 -2.453125,0.609375 -1.96875,0 -3.109375,-0.679688 -3.421875,-2.046875 l 1.0625,-0.21875 c 0.125,0.492188 0.382812,0.851562 0.78125,1.078125 0.394531,0.230469 0.9375,0.343751 1.625,0.343751 0.695312,0 1.238281,-0.117187 1.625,-0.359376 0.382812,-0.25 0.578125,-0.609375 0.578125,-1.078124 0,-0.257814 -0.0625,-0.472658 -0.1875,-0.640626 -0.117188,-0.164062 -0.28125,-0.300781 -0.5,-0.40625 -0.21875,-0.101563 -0.480469,-0.191405 -0.78125,-0.265624 -0.304688,-0.07031 -0.636719,-0.148439 -1,-0.234376 -0.636719,-0.144531 -1.121094,-0.285156 -1.453125,-0.421875 -0.335938,-0.14453 -0.59375,-0.300781 -0.78125,-0.468749 -0.1875,-0.175781 -0.335938,-0.378907 -0.4375,-0.609376 -0.105469,-0.238281 -0.15625,-0.507812 -0.15625,-0.8125 0,-0.695312 0.265625,-1.226563 0.796875,-1.593749 0.53125,-0.375 1.285156,-0.5625 2.265625,-0.5625 0.914062,0 1.617187,0.140625 2.109375,0.421874 0.488281,0.281251 0.828125,0.757812 1.015625,1.421875 l -1.078125,0.203125 c -0.117188,-0.4375 -0.339844,-0.75 -0.671875,-0.9375 -0.335938,-0.195312 -0.792969,-0.296874 -1.375,-0.296874 -0.648438,0 -1.140625,0.109373 -1.484375,0.328125 -0.335938,0.210937 -0.5,0.527343 -0.5,0.953124 0,0.25 0.0625,0.460937 0.1875,0.625 0.132812,0.156251 0.320312,0.292969 0.5625,0.406251 0.25,0.117186 0.75,0.257812 1.5,0.421874 0.238281,0.05469 0.484375,0.109374 0.734375,0.171875 0.25,0.05469 0.484375,0.121093 0.703125,0.203125 0.226562,0.08593 0.441406,0.183594 0.640625,0.296875 0.195312,0.117187 0.367187,0.25 0.515625,0.406251 0.144531,0.156249 0.253906,0.343749 0.328125,0.5625 0.08203,0.218749 0.125,0.476562 0.125,0.765625 z M 47.21812,88.6279 c 0,0.710938 0.144531,1.257812 0.4375,1.640626 0.300781,0.386718 0.734375,0.578124 1.296875,0.578124 0.445313,0 0.804687,-0.08593 1.078125,-0.265624 0.269531,-0.1875 0.453125,-0.414063 0.546875,-0.6875 l 0.90625,0.25 c -0.375,0.980468 -1.21875,1.468749 -2.53125,1.468749 -0.917969,0 -1.617187,-0.269531 -2.09375,-0.8125 -0.480469,-0.550781 -0.71875,-1.363281 -0.71875,-2.4375 0,-1.01953 0.238281,-1.800781 0.71875,-2.343749 0.476563,-0.550781 1.160156,-0.828125 2.046875,-0.828125 1.820312,0 2.734375,1.101562 2.734375,3.296874 V 88.6279 Z m 3.359375,-0.796874 c -0.05469,-0.656251 -0.21875,-1.128907 -0.5,-1.421876 -0.273437,-0.300781 -0.667969,-0.453124 -1.1875,-0.453124 -0.5,0 -0.898437,0.167968 -1.1875,0.5 -0.292969,0.335937 -0.449219,0.792968 -0.46875,1.375 z m 2.527344,3.671874 v -8.499999 h 1.031249 V 91.5029 Z m 3.441406,-2.875 c 0,0.710938 0.144531,1.257812 0.4375,1.640626 0.300782,0.386718 0.734375,0.578124 1.296875,0.578124 0.445312,0 0.804688,-0.08593 1.078125,-0.265624 0.269531,-0.1875 0.453124,-0.414063 0.546875,-0.6875 l 0.906249,0.25 c -0.375,0.980468 -1.218749,1.468749 -2.531249,1.468749 -0.917969,0 -1.617188,-0.269531 -2.093751,-0.8125 -0.480468,-0.550781 -0.718749,-1.363281 -0.718749,-2.4375 0,-1.01953 0.238281,-1.800781 0.718749,-2.343749 0.476563,-0.550781 1.160158,-0.828125 2.046876,-0.828125 1.820312,0 2.734375,1.101562 2.734375,3.296874 V 88.6279 Z m 3.359375,-0.796874 c -0.05469,-0.656251 -0.218751,-1.128907 -0.5,-1.421876 -0.273438,-0.300781 -0.66797,-0.453124 -1.1875,-0.453124 -0.5,0 -0.898437,0.167968 -1.1875,0.5 -0.292969,0.335937 -0.449219,0.792968 -0.468751,1.375 z m 3.304688,0.546875 c 0,0.824218 0.128906,1.433593 0.390624,1.828125 0.257813,0.398437 0.648437,0.593749 1.171876,0.593749 0.36328,0 0.664061,-0.09765 0.906249,-0.296875 0.25,-0.195313 0.406251,-0.5 0.468751,-0.90625 l 1.046874,0.06249 c -0.08593,0.593751 -0.339844,1.070313 -0.765625,1.421876 -0.429688,0.355468 -0.968749,0.531249 -1.625,0.531249 -0.867188,0 -1.527344,-0.26953 -1.984375,-0.8125 -0.460937,-0.550781 -0.6875,-1.351562 -0.6875,-2.406249 0,-1.039062 0.226563,-1.832032 0.6875,-2.375 0.457031,-0.550781 1.113282,-0.828125 1.96875,-0.828125 0.632813,0 1.160156,0.167968 1.578125,0.5 0.414063,0.324219 0.675781,0.773437 0.781251,1.343749 l -1.046876,0.07812 c -0.05469,-0.343749 -0.1875,-0.613281 -0.40625,-0.8125 -0.21875,-0.195312 -0.53125,-0.296874 -0.9375,-0.296874 -0.542969,0 -0.9375,0.183593 -1.1875,0.546874 -0.242188,0.35547 -0.359374,0.964844 -0.359374,1.828126 z m 6.933593,3.078125 c -0.335937,0.09375 -0.683593,0.140624 -1.046875,0.140624 -0.824218,0 -1.234376,-0.46875 -1.234376,-1.40625 v -4.140625 h -0.718749 v -0.75 h 0.765625 l 0.296875,-1.390625 h 0.6875 v 1.390625 h 1.156249 v 0.75 h -1.156249 v 3.921875 c 0,0.292969 0.04688,0.5 0.140625,0.625 0.10156,0.117186 0.273438,0.171876 0.515624,0.171876 0.132814,0 0.332032,-0.02344 0.593751,-0.07812 z m 0.261719,-7.468751 v -0.984374 h 1.031249 v 0.984374 z m 0,7.515625 v -6.203125 h 1.031249 V 91.5029 Z m 7.914062,-3.109374 c 0,1.085937 -0.242188,1.890624 -0.718751,2.421874 -0.480468,0.53125 -1.171874,0.796875 -2.078124,0.796875 -0.90625,0 -1.589844,-0.273437 -2.046876,-0.828125 -0.460937,-0.550782 -0.6875,-1.347656 -0.6875,-2.390624 0,-2.132813 0.921876,-3.203125 2.765626,-3.203125 0.945312,0 1.64453,0.261718 2.09375,0.781249 0.445312,0.523437 0.671875,1.328125 0.671875,2.421876 z m -1.078125,0 c 0,-0.851563 -0.132814,-1.472657 -0.390626,-1.859376 -0.25,-0.382812 -0.679686,-0.578124 -1.281249,-0.578124 -0.593751,0 -1.027344,0.199219 -1.296875,0.593749 -0.273438,0.398438 -0.40625,1.011719 -0.40625,1.843751 0,0.824218 0.128906,1.445312 0.390625,1.859374 0.269531,0.40625 0.6875,0.609375 1.25,0.609375 0.625,0 1.066405,-0.195312 1.328125,-0.593749 0.269531,-0.406251 0.40625,-1.031251 0.40625,-1.875 z m 6.445312,3.109374 v -3.937499 c 0,-0.406251 -0.04297,-0.718751 -0.125,-0.9375 -0.08593,-0.226563 -0.214843,-0.390626 -0.390624,-0.484375 -0.179688,-0.10156 -0.433595,-0.156251 -0.765626,-0.156251 -0.5,0 -0.898437,0.171875 -1.1875,0.515626 -0.28125,0.335937 -0.421874,0.804686 -0.421874,1.406249 v 3.59375 h -1.031251 v -4.874999 c 0,-0.718751 -0.01173,-1.160156 -0.03125,-1.328126 h 0.968749 c 0.0079,0.02344 0.01563,0.07421 0.01563,0.156251 0,0.08593 0,0.183593 0,0.296875 0.0079,0.105466 0.01953,0.308593 0.03125,0.609374 h 0.01563 c 0.238281,-0.425781 0.515625,-0.726562 0.828125,-0.906249 0.3125,-0.175781 0.695312,-0.265625 1.156249,-0.265625 0.675782,0 1.171876,0.171874 1.484376,0.515625 0.320312,0.335937 0.484375,0.890624 0.484375,1.671875 V 91.5029 Z m 10.624999,-3.124999 c 0,2.156249 -0.761718,3.234374 -2.281249,3.234374 -0.468751,0 -0.859375,-0.08593 -1.171875,-0.25 -0.3125,-0.164063 -0.5625,-0.441407 -0.75,-0.828125 h -0.01563 c 0,0.125 -0.01173,0.308594 -0.03125,0.546876 -0.01173,0.242186 -0.02344,0.382812 -0.03125,0.421874 h -1 c 0.03125,-0.207032 0.04688,-0.632813 0.04688,-1.28125 v -7.218749 h 1.031251 v 2.421874 c 0,0.25 -0.01173,0.54297 -0.03125,0.875 h 0.03125 c 0.1875,-0.39453 0.4375,-0.675781 0.75,-0.843749 0.3125,-0.175781 0.703124,-0.265625 1.171874,-0.265625 0.78125,0 1.351563,0.265625 1.71875,0.796874 0.375,0.523438 0.5625,1.320312 0.562499,2.390626 z m -1.078124,0.03125 c 0,-0.863281 -0.117186,-1.484375 -0.34375,-1.859375 -0.230468,-0.375 -0.605468,-0.5625 -1.125,-0.5625 -0.574219,0 -0.996094,0.199219 -1.265626,0.593751 -0.261718,0.398437 -0.390624,1.027343 -0.390624,1.890624 0,0.8125 0.125,1.417969 0.375,1.8125 0.257812,0.386718 0.6875,0.578125 1.28125,0.578125 0.507813,0 0.878906,-0.191407 1.109374,-0.578125 0.238282,-0.382812 0.359376,-1.007812 0.359376,-1.875 z m 2.492187,-4.421875 v -0.984378 h 1.031251 v 0.984374 z m 0,7.515625 v -6.203125 h 1.031251 v 6.203125 z m 4.257813,0.109374 c -0.625,0 -1.093751,-0.160156 -1.406251,-0.484375 -0.312499,-0.332032 -0.468749,-0.785156 -0.468749,-1.359375 0,-0.632813 0.207031,-1.125 0.625,-1.46875 0.425781,-0.343749 1.109375,-0.531249 2.046876,-0.5625 l 1.39062,-0.01563 v -0.34375 c 0,-0.5 -0.10937,-0.859375 -0.32812,-1.078126 -0.21094,-0.218749 -0.54297,-0.328125 -1,-0.328125 -0.46094,0 -0.79688,0.07812 -1.015627,0.234376 -0.210937,0.156249 -0.335937,0.406249 -0.375,0.75 l -1.062499,-0.09375 c 0.164062,-1.113281 0.992187,-1.671874 2.484376,-1.671874 0.76953,0 1.35156,0.179686 1.75,0.531249 0.39453,0.355469 0.59375,0.871095 0.59375,1.546876 v 2.671874 c 0,0.3125 0.0352,0.546875 0.10937,0.703126 0.082,0.148437 0.23828,0.218749 0.46875,0.218749 0.10156,0 0.21875,-0.0079 0.34375,-0.03125 v 0.640624 c -0.26172,0.06249 -0.52734,0.09375 -0.79687,0.09375 -0.38672,0 -0.66797,-0.09765 -0.84375,-0.296874 -0.16797,-0.207032 -0.26563,-0.523439 -0.29688,-0.953126 h -0.0312 c -0.26172,0.480468 -0.57031,0.820312 -0.92188,1.015626 -0.34375,0.1875 -0.76562,0.281249 -1.265621,0.281249 z m 0.234376,-0.765626 c 0.375,0 0.70703,-0.08203 1,-0.25 0.30078,-0.175781 0.53515,-0.414062 0.70312,-0.718749 0.16407,-0.300781 0.25,-0.609375 0.25,-0.921875 V 88.4404 l -1.125,0.03125 c -0.49218,0 -0.85937,0.04688 -1.109372,0.140625 -0.25,0.09375 -0.445312,0.242188 -0.578124,0.4375 -0.125,0.1875 -0.1875,0.433593 -0.1875,0.734374 0,0.343751 0.08593,0.609376 0.265624,0.796876 0.1875,0.179687 0.445313,0.265624 0.781252,0.265624 z m 9.49219,-1.0625 c 0,0.585938 -0.21875,1.039063 -0.65625,1.359376 -0.4375,0.3125 -1.0586,0.46875 -1.85938,0.46875 -0.77344,0 -1.36719,-0.125 -1.78125,-0.375 -0.41797,-0.25 -0.6875,-0.644531 -0.8125,-1.1875 l 0.90625,-0.1875 c 0.0937,0.335937 0.27344,0.578125 0.54688,0.734374 0.26953,0.156251 0.64843,0.234376 1.14062,0.234376 0.53125,0 0.91406,-0.07812 1.15625,-0.234376 0.23828,-0.164062 0.35938,-0.410156 0.35938,-0.734374 0,-0.238282 -0.0859,-0.429688 -0.25,-0.578126 -0.16797,-0.156249 -0.4375,-0.285156 -0.8125,-0.390624 l -0.73438,-0.1875 c -0.59375,-0.15625 -1.01562,-0.304687 -1.26562,-0.453125 -0.25,-0.144532 -0.44922,-0.320313 -0.59375,-0.53125 -0.13672,-0.21875 -0.20313,-0.476563 -0.20313,-0.78125 0,-0.5625 0.19531,-0.988281 0.59375,-1.28125 0.40625,-0.300782 0.99219,-0.453124 1.76563,-0.453124 0.6875,0 1.22656,0.121093 1.625,0.359374 0.40625,0.242187 0.66015,0.625 0.76562,1.15625 l -0.92187,0.125 c -0.0625,-0.28125 -0.21875,-0.492187 -0.46875,-0.640624 -0.25,-0.144532 -0.58594,-0.218751 -1,-0.218751 -0.46875,0 -0.8125,0.07421 -1.03125,0.218751 -0.21875,0.136718 -0.32813,0.351561 -0.32813,0.640624 0,0.167969 0.0391,0.308594 0.125,0.421876 0.0937,0.117186 0.22656,0.214842 0.40625,0.296874 0.1875,0.08593 0.56641,0.195312 1.14063,0.328126 0.55078,0.148437 0.94531,0.277342 1.1875,0.390624 0.23828,0.117186 0.42578,0.246094 0.5625,0.390625 0.14453,0.136718 0.2539,0.296874 0.32812,0.484374 0.0703,0.1875 0.10937,0.398438 0.10937,0.625 z M 44.073589,114.54196 v -3.73437 h -4.359375 v 3.73437 h -1.09375 v -8.07812 h 1.09375 v 3.42187 h 4.359375 v -3.42187 h 1.09375 v 8.07812 z m 3.160156,-2.875 c 0,0.71094 0.144531,1.25781 0.4375,1.64063 0.300781,0.38672 0.734375,0.57812 1.296875,0.57812 0.445312,0 0.804688,-0.0859 1.078125,-0.26562 0.269531,-0.1875 0.453125,-0.41406 0.546875,-0.6875 l 0.906249,0.25 c -0.375,0.98047 -1.218749,1.46875 -2.531249,1.46875 -0.917969,0 -1.617187,-0.26953 -2.09375,-0.8125 -0.480469,-0.55078 -0.71875,-1.36328 -0.71875,-2.4375 0,-1.01953 0.238281,-1.80078 0.71875,-2.34375 0.476563,-0.55078 1.160156,-0.82813 2.046875,-0.82813 1.820312,0 2.734375,1.10157 2.734375,3.29688 v 0.14062 z m 3.359375,-0.79687 c -0.05469,-0.65625 -0.21875,-1.12891 -0.5,-1.42188 -0.273438,-0.30078 -0.667969,-0.45312 -1.1875,-0.45312 -0.5,0 -0.898438,0.16797 -1.1875,0.5 -0.292969,0.33594 -0.449219,0.79297 -0.46875,1.375 z m 4.898437,3.625 c -0.335937,0.0937 -0.683593,0.14062 -1.046874,0.14062 -0.824219,0 -1.234375,-0.46875 -1.234375,-1.40625 v -4.14062 h -0.718751 v -0.75 h 0.765626 l 0.296874,-1.39063 h 0.6875 v 1.39063 h 1.156251 v 0.75 h -1.156251 v 3.92187 c 0,0.29297 0.04688,0.5 0.140626,0.625 0.10156,0.11719 0.273437,0.17188 0.515625,0.17188 0.132813,0 0.332031,-0.0234 0.593749,-0.0781 z m 1.054688,-2.82813 c 0,0.71094 0.144531,1.25781 0.4375,1.64063 0.300782,0.38672 0.734375,0.57812 1.296875,0.57812 0.445312,0 0.804688,-0.0859 1.078125,-0.26562 0.269531,-0.1875 0.453124,-0.41406 0.546875,-0.6875 l 0.906249,0.25 c -0.375,0.98047 -1.218749,1.46875 -2.531249,1.46875 -0.917969,0 -1.617188,-0.26953 -2.093751,-0.8125 -0.480468,-0.55078 -0.718749,-1.36328 -0.718749,-2.4375 0,-1.01953 0.238281,-1.80078 0.718749,-2.34375 0.476563,-0.55078 1.160158,-0.82813 2.046876,-0.82813 1.820312,0 2.734375,1.10157 2.734375,3.29688 v 0.14062 z m 3.359375,-0.79687 c -0.05469,-0.65625 -0.218751,-1.12891 -0.5,-1.42188 -0.273438,-0.30078 -0.66797,-0.45312 -1.1875,-0.45312 -0.5,0 -0.898437,0.16797 -1.1875,0.5 -0.292969,0.33594 -0.449219,0.79297 -0.468751,1.375 z m 2.539062,3.67187 v -4.75 c 0,-0.4375 -0.01173,-0.92187 -0.03125,-1.45312 h 0.968751 c 0.03125,0.71093 0.04688,1.13281 0.04688,1.26562 h 0.03125 c 0.156249,-0.53125 0.335937,-0.89062 0.546875,-1.07812 0.218749,-0.19531 0.523437,-0.29688 0.921874,-0.29688 0.132814,0 0.273438,0.0234 0.421875,0.0625 v 0.9375 c -0.148437,-0.0391 -0.335937,-0.0625 -0.5625,-0.0625 -0.429687,0 -0.757812,0.1875 -0.984375,0.5625 -0.218749,0.36719 -0.328125,0.89063 -0.328125,1.57813 v 3.23437 z m 9.222656,-3.10937 c 0,1.08594 -0.242188,1.89062 -0.71875,2.42187 -0.480468,0.53125 -1.171875,0.79688 -2.078124,0.79688 -0.906251,0 -1.589844,-0.27344 -2.046876,-0.82813 -0.460938,-0.55078 -0.6875,-1.34765 -0.6875,-2.39062 0,-2.13282 0.921876,-3.20313 2.765625,-3.20313 0.945313,0 1.644532,0.26172 2.093751,0.78125 0.445312,0.52344 0.671874,1.32813 0.671874,2.42188 z m -1.078125,0 c 0,-0.85156 -0.132813,-1.47266 -0.390625,-1.85938 -0.25,-0.38281 -0.679687,-0.57812 -1.28125,-0.57812 -0.59375,0 -1.027344,0.19922 -1.296874,0.59375 -0.273438,0.39843 -0.406251,1.01172 -0.406251,1.84375 0,0.82422 0.128907,1.44531 0.390625,1.85937 0.269531,0.40625 0.6875,0.60938 1.25,0.60938 0.625,0 1.066407,-0.19531 1.328126,-0.59375 0.26953,-0.40625 0.406249,-1.03125 0.406249,-1.875 z m 7.148437,1.39062 c 0,0.58594 -0.218749,1.03906 -0.656249,1.35938 -0.4375,0.3125 -1.058594,0.46875 -1.859375,0.46875 -0.773439,0 -1.367188,-0.125 -1.781251,-0.375 -0.417968,-0.25 -0.6875,-0.64453 -0.8125,-1.1875 l 0.906251,-0.1875 c 0.09375,0.33593 0.273437,0.57812 0.546875,0.73437 0.26953,0.15625 0.648437,0.23438 1.140625,0.23438 0.531249,0 0.914061,-0.0781 1.156249,-0.23438 0.238282,-0.16406 0.359375,-0.41015 0.359375,-0.73437 0,-0.23828 -0.08593,-0.42969 -0.25,-0.57813 -0.167968,-0.15625 -0.4375,-0.28515 -0.8125,-0.39062 l -0.734375,-0.1875 c -0.593749,-0.15625 -1.015625,-0.30469 -1.265625,-0.45313 -0.25,-0.14453 -0.449219,-0.32031 -0.593749,-0.53125 -0.136719,-0.21875 -0.203126,-0.47656 -0.203126,-0.78125 0,-0.5625 0.195312,-0.98828 0.593751,-1.28125 0.406249,-0.30078 0.992187,-0.45312 1.765624,-0.45312 0.6875,0 1.226563,0.12109 1.625,0.35937 0.406251,0.24219 0.660157,0.625 0.765625,1.15625 l -0.921874,0.125 c -0.06249,-0.28125 -0.218751,-0.49218 -0.468751,-0.64062 -0.25,-0.14453 -0.585937,-0.21875 -1,-0.21875 -0.468749,0 -0.8125,0.0742 -1.031249,0.21875 -0.218751,0.13672 -0.328126,0.35156 -0.328126,0.64062 0,0.16797 0.03907,0.3086 0.125,0.42188 0.09375,0.11718 0.226563,0.21484 0.406251,0.29687 0.1875,0.0859 0.566405,0.19531 1.140624,0.32813 0.550781,0.14844 0.945313,0.27734 1.1875,0.39062 0.238281,0.11719 0.425781,0.2461 0.5625,0.39063 0.144532,0.13672 0.253907,0.29687 0.328125,0.48437 0.07031,0.1875 0.109374,0.39844 0.109375,0.625 z m 4.570313,1.71875 -2.09375,-2.82812 -0.75,0.625 v 2.20312 h -1.03125 v -8.5 h 1.03125 v 5.3125 l 2.71875,-3.01562 h 1.203124 l -2.515624,2.67187 2.65625,3.53125 z m 2.234375,-2.875 c 0,0.71094 0.144531,1.25781 0.4375,1.64063 0.300781,0.38672 0.734374,0.57812 1.296874,0.57812 0.445314,0 0.804688,-0.0859 1.078126,-0.26562 0.26953,-0.1875 0.453125,-0.41406 0.546874,-0.6875 l 0.906251,0.25 c -0.375,0.98047 -1.218751,1.46875 -2.531251,1.46875 -0.917968,0 -1.617186,-0.26953 -2.093749,-0.8125 -0.480469,-0.55078 -0.71875,-1.36328 -0.71875,-2.4375 0,-1.01953 0.238281,-1.80078 0.71875,-2.34375 0.476563,-0.55078 1.160156,-0.82813 2.046875,-0.82813 1.820312,0 2.734374,1.10157 2.734374,3.29688 v 0.14062 z m 3.359374,-0.79687 c -0.05469,-0.65625 -0.218749,-1.12891 -0.5,-1.42188 -0.273437,-0.30078 -0.667968,-0.45312 -1.1875,-0.45312 -0.5,0 -0.898437,0.16797 -1.187499,0.5 -0.292968,0.33594 -0.449219,0.79297 -0.46875,1.375 z m 6.429688,2.67187 c -0.1875,0.39844 -0.445313,0.6836 -0.765625,0.85938 -0.3125,0.16406 -0.703125,0.25 -1.171875,0.25 -0.78125,0 -1.355469,-0.25781 -1.71875,-0.78125 -0.367187,-0.53125 -0.546875,-1.33203 -0.546875,-2.40625 0,-2.15625 0.753907,-3.23438 2.265625,-3.23438 0.476563,0 0.875,0.0898 1.1875,0.26563 0.3125,0.16797 0.5625,0.4375 0.75,0.8125 h 0.01563 l -0.01563,-0.70313 v -2.5625 h 1.03125 v 7.21875 c 0,0.64844 0.0079,1.07422 0.03125,1.28125 h -0.984377 c -0.01173,-0.0625 -0.02344,-0.20312 -0.03125,-0.42187 -0.01173,-0.21875 -0.01563,-0.41016 -0.01563,-0.57813 z m -3.125,-2.10937 c 0,0.86718 0.11328,1.48437 0.34375,1.85937 0.226562,0.375 0.597657,0.5625 1.109376,0.5625 0.58203,0 1.003905,-0.19531 1.265624,-0.59375 0.269532,-0.40625 0.40625,-1.03515 0.40625,-1.89062 0,-0.82032 -0.136718,-1.42188 -0.40625,-1.79688 -0.261719,-0.38281 -0.679687,-0.57812 -1.25,-0.57812 -0.523438,0 -0.898438,0.19531 -1.125,0.57812 -0.230468,0.375 -0.34375,0.9961 -0.34375,1.85938 z m 7.460937,3.21875 c -0.624999,0 -1.09375,-0.16016 -1.40625,-0.48438 -0.3125,-0.33203 -0.468749,-0.78515 -0.468749,-1.35937 0,-0.63282 0.20703,-1.125 0.625,-1.46875 0.425781,-0.34375 1.109374,-0.53125 2.046874,-0.5625 l 1.390628,-0.0156 v -0.34375 c 0,-0.5 -0.10938,-0.85937 -0.32813,-1.07812 -0.21094,-0.21875 -0.542966,-0.32813 -0.999998,-0.32813 -0.460937,0 -0.796875,0.0781 -1.015625,0.23438 -0.210937,0.15625 -0.335937,0.40625 -0.375,0.75 l -1.0625,-0.0937 c 0.164063,-1.11328 0.992188,-1.67188 2.484376,-1.67188 0.769527,0 1.351567,0.17969 1.749997,0.53125 0.39453,0.35547 0.59375,0.8711 0.59375,1.54688 v 2.67187 c 0,0.3125 0.0352,0.54688 0.10938,0.70313 0.082,0.14844 0.23828,0.21875 0.46875,0.21875 0.10156,0 0.21875,-0.008 0.34375,-0.0312 v 0.64062 c -0.26172,0.0625 -0.52735,0.0937 -0.79688,0.0937 -0.38672,0 -0.66797,-0.0977 -0.84375,-0.29688 -0.16797,-0.20703 -0.26562,-0.52344 -0.29687,-0.95312 h -0.0313 c -0.26172,0.48047 -0.57031,0.82031 -0.921873,1.01562 -0.34375,0.1875 -0.765625,0.28125 -1.265625,0.28125 z m 0.234375,-0.76563 c 0.375,0 0.707032,-0.082 1,-0.25 0.300778,-0.17578 0.535158,-0.41406 0.703128,-0.71875 0.16406,-0.30078 0.25,-0.60937 0.25,-0.92187 v -0.51563 l -1.125003,0.0313 c -0.492188,0 -0.859374,0.0469 -1.109374,0.14062 -0.25,0.0937 -0.445313,0.24219 -0.578125,0.4375 -0.125,0.1875 -0.1875,0.43359 -0.1875,0.73438 0,0.34375 0.08593,0.60937 0.265625,0.79687 0.1875,0.17969 0.445312,0.26563 0.781249,0.26563 z m 9.492188,-1.0625 c 0,0.58594 -0.21875,1.03906 -0.65625,1.35938 -0.4375,0.3125 -1.05859,0.46875 -1.85938,0.46875 -0.77343,0 -1.36718,-0.125 -1.78124,-0.375 -0.41797,-0.25 -0.6875,-0.64453 -0.8125,-1.1875 l 0.90624,-0.1875 c 0.0937,0.33593 0.27344,0.57812 0.54688,0.73437 0.26953,0.15625 0.64844,0.23438 1.14062,0.23438 0.53126,0 0.91407,-0.0781 1.15626,-0.23438 0.23828,-0.16406 0.35937,-0.41015 0.35937,-0.73437 0,-0.23828 -0.0859,-0.42969 -0.25,-0.57813 -0.16797,-0.15625 -0.4375,-0.28515 -0.8125,-0.39062 l -0.73437,-0.1875 c -0.59376,-0.15625 -1.01563,-0.30469 -1.26563,-0.45313 -0.25,-0.14453 -0.44922,-0.32031 -0.59375,-0.53125 -0.13672,-0.21875 -0.20312,-0.47656 -0.20312,-0.78125 0,-0.5625 0.19531,-0.98828 0.59374,-1.28125 0.40626,-0.30078 0.99219,-0.45312 1.76563,-0.45312 0.6875,0 1.22656,0.12109 1.625,0.35937 0.40625,0.24219 0.66016,0.625 0.76563,1.15625 l -0.92188,0.125 c -0.0625,-0.28125 -0.21875,-0.49218 -0.46875,-0.64062 -0.25,-0.14453 -0.58594,-0.21875 -1,-0.21875 -0.46875,0 -0.8125,0.0742 -1.03125,0.21875 -0.21875,0.13672 -0.32812,0.35156 -0.32812,0.64062 0,0.16797 0.0391,0.3086 0.125,0.42188 0.0937,0.11718 0.22656,0.21484 0.40624,0.29687 0.1875,0.0859 0.56641,0.19531 1.14063,0.32813 0.55078,0.14844 0.94531,0.27734 1.1875,0.39062 0.23828,0.11719 0.42578,0.2461 0.5625,0.39063 0.14453,0.13672 0.25391,0.29687 0.32813,0.48437 0.0703,0.1875 0.10937,0.39844 0.10937,0.625 z m 3.07422,1.67188 c -0.33594,0.0937 -0.68359,0.14062 -1.04688,0.14062 -0.82421,0 -1.23437,-0.46875 -1.23437,-1.40625 v -4.14062 h -0.71875 v -0.75 h 0.76562 l 0.29688,-1.39063 h 0.6875 v 1.39063 h 1.15625 v 0.75 h -1.15625 v 3.92187 c 0,0.29297 0.0469,0.5 0.14062,0.625 0.10156,0.11719 0.27344,0.17188 0.51563,0.17188 0.13281,0 0.33203,-0.0234 0.59375,-0.0781 z m 0.26172,-7.46875 v -0.98438 h 1.03125 v 0.98438 z m 0,7.51562 v -6.20312 h 1.03125 v 6.20312 z m 3.46093,-3.125 c 0,0.82422 0.12891,1.4336 0.39063,1.82813 0.25781,0.39844 0.64844,0.59375 1.17187,0.59375 0.36329,0 0.66407,-0.0977 0.90626,-0.29688 0.25,-0.19531 0.40624,-0.5 0.46874,-0.90625 l 1.04688,0.0625 c -0.0859,0.59375 -0.33984,1.07031 -0.76563,1.42187 -0.42968,0.35547 -0.96875,0.53125 -1.62499,0.53125 -0.86719,0 -1.52735,-0.26953 -1.98438,-0.8125 -0.46094,-0.55078 -0.6875,-1.35156 -0.6875,-2.40625 0,-1.03906 0.22656,-1.83203 0.6875,-2.375 0.45703,-0.55078 1.11328,-0.82812 1.96875,-0.82812 0.63281,0 1.16016,0.16796 1.57813,0.5 0.41406,0.32421 0.67578,0.77343 0.78124,1.34375 l -1.04687,0.0781 c -0.0547,-0.34376 -0.1875,-0.61329 -0.40625,-0.8125 -0.21875,-0.19532 -0.53125,-0.29688 -0.9375,-0.29688 -0.54297,0 -0.9375,0.18359 -1.1875,0.54688 -0.24219,0.35546 -0.35938,0.96484 -0.35938,1.82812 z m 4.53907,-4.39062 v -0.98438 h 1.03125 v 0.98438 z m 0,7.51562 v -6.20312 h 1.03125 v 6.20312 z m 5.05468,-0.0469 c -0.33593,0.0937 -0.68359,0.14063 -1.04687,0.14063 -0.82422,0 -1.23438,-0.46875 -1.23438,-1.40625 v -4.14062 h -0.71875 v -0.75 h 0.76563 l 0.29687,-1.39063 h 0.6875 v 1.39063 h 1.15625 v 0.75 h -1.15625 v 3.92187 c 0,0.29297 0.0469,0.5 0.14063,0.625 0.10156,0.11719 0.27344,0.17188 0.51562,0.17188 0.13282,0 0.33204,-0.0234 0.59375,-0.0781 z m 0.58594,2.48438 c -0.28125,0 -0.51562,-0.0234 -0.70312,-0.0625 v -0.78126 c 0.14453,0.0313 0.30078,0.0469 0.46875,0.0469 0.64453,0 1.15625,-0.47656 1.53125,-1.42187 l 0.0937,-0.25 -2.45312,-6.17187 h 1.09375 l 1.3125,3.4375 c 0.0195,0.0547 0.0391,0.11718 0.0625,0.1875 0.0313,0.0742 0.11719,0.32421 0.26563,0.75 0.14453,0.41796 0.22266,0.65234 0.23437,0.70312 l 0.39063,-1.125 1.35937,-3.95312 h 1.09376 l -2.39063,6.20312 c -0.25,0.65625 -0.49219,1.14453 -0.71875,1.46875 -0.21875,0.32031 -0.46484,0.5625 -0.73438,0.71875 -0.26171,0.16406 -0.5625,0.25 -0.90624,0.25 z m -81.515621,20.60156 -4.328125,-6.875 0.03125,0.5625 0.03125,0.95312 v 5.35938 h -0.968749 v -8.07812 h 1.265625 l 4.359375,6.92187 c -0.04297,-0.75 -0.0625,-1.28906 -0.0625,-1.625 v -5.29687 h 0.984375 v 8.07812 z m 7.83203,-3.10938 c 0,1.08594 -0.242186,1.89063 -0.718749,2.42188 -0.480469,0.53125 -1.171875,0.79688 -2.078125,0.79688 -0.90625,0 -1.589844,-0.27344 -2.046875,-0.82813 -0.460937,-0.55078 -0.6875,-1.34766 -0.6875,-2.39063 0,-2.13281 0.921875,-3.20312 2.765625,-3.20312 0.945313,0 1.644531,0.26172 2.09375,0.78125 0.445313,0.52344 0.671874,1.32813 0.671874,2.42187 z m -1.078124,0 c 0,-0.85156 -0.132812,-1.47265 -0.390625,-1.85937 -0.25,-0.38281 -0.679688,-0.57813 -1.28125,-0.57813 -0.59375,0 -1.027344,0.19922 -1.296875,0.59376 -0.273437,0.39843 -0.40625,1.01171 -0.40625,1.84374 0,0.82422 0.128907,1.44532 0.390625,1.85938 0.269531,0.40625 0.6875,0.60938 1.25,0.60938 0.625,0 1.066406,-0.19532 1.328125,-0.59376 0.269531,-0.40624 0.40625,-1.03124 0.40625,-1.875 z m 6.445312,3.10938 v -3.9375 c 0,-0.40625 -0.04297,-0.71875 -0.125,-0.9375 -0.08593,-0.22656 -0.214844,-0.39062 -0.390625,-0.48438 -0.179687,-0.10156 -0.433593,-0.15624 -0.765624,-0.15624 -0.5,0 -0.898439,0.17187 -1.1875,0.51562 -0.281251,0.33594 -0.421876,0.80469 -0.421876,1.40625 v 3.59375 h -1.031249 v -4.875 c 0,-0.71875 -0.01173,-1.16016 -0.03125,-1.32812 h 0.968751 c 0.0079,0.0234 0.01563,0.0742 0.01563,0.15624 0,0.0859 0,0.1836 0,0.29688 0.0079,0.10547 0.01953,0.30859 0.03125,0.60938 h 0.01563 c 0.238281,-0.42579 0.515625,-0.72657 0.828125,-0.90626 0.3125,-0.17578 0.695312,-0.26562 1.156249,-0.26562 0.675782,0 1.171875,0.17188 1.484375,0.51562 0.320313,0.33594 0.484376,0.89063 0.484376,1.67188 v 4.125 z m 2.445312,-2.65625 v -0.92187 h 2.875 v 0.92187 z m 8.218751,2.65625 v -3.9375 c 0,-0.40625 -0.04297,-0.71875 -0.125,-0.9375 -0.08593,-0.22656 -0.214844,-0.39062 -0.390626,-0.48438 -0.179686,-0.10156 -0.433593,-0.15624 -0.765625,-0.15624 -0.5,0 -0.898437,0.17187 -1.1875,0.51562 -0.281249,0.33594 -0.421875,0.80469 -0.421875,1.40625 v 3.59375 h -1.031249 v -4.875 c 0,-0.71875 -0.01173,-1.16016 -0.03125,-1.32812 h 0.96875 c 0.0079,0.0234 0.01563,0.0742 0.01563,0.15624 0,0.0859 0,0.1836 0,0.29688 0.0079,0.10547 0.01953,0.30859 0.03125,0.60938 h 0.01563 c 0.238281,-0.42579 0.515624,-0.72657 0.828124,-0.90626 0.3125,-0.17578 0.695313,-0.26562 1.156251,-0.26562 0.675781,0 1.171874,0.17188 1.484374,0.51562 0.320314,0.33594 0.484375,0.89063 0.484375,1.67188 v 4.125 z m 7.960937,-3.10938 c 0,1.08594 -0.242188,1.89063 -0.71875,2.42188 -0.480469,0.53125 -1.171876,0.79688 -2.078125,0.79688 -0.906251,0 -1.589844,-0.27344 -2.046874,-0.82813 -0.460939,-0.55078 -0.6875,-1.34766 -0.6875,-2.39063 0,-2.13281 0.921874,-3.20312 2.765623,-3.20312 0.945314,0 1.644532,0.26172 2.093751,0.78125 0.445312,0.52344 0.671875,1.32813 0.671875,2.42187 z m -1.078126,0 c 0,-0.85156 -0.132813,-1.47265 -0.390624,-1.85937 -0.25,-0.38281 -0.679688,-0.57813 -1.28125,-0.57813 -0.59375,0 -1.027344,0.19922 -1.296875,0.59376 -0.273437,0.39843 -0.40625,1.01171 -0.40625,1.84374 0,0.82422 0.128906,1.44532 0.390625,1.85938 0.26953,0.40625 0.6875,0.60938 1.25,0.60938 0.625,0 1.066406,-0.19532 1.328125,-0.59376 0.269531,-0.40624 0.406249,-1.03124 0.406249,-1.875 z m 2.523438,3.10938 v -4.75 c 0,-0.4375 -0.01173,-0.92188 -0.03125,-1.45312 h 0.96875 c 0.03125,0.71093 0.04688,1.13281 0.04688,1.26562 h 0.03125 c 0.156251,-0.53125 0.335937,-0.89062 0.546875,-1.07812 0.21875,-0.19532 0.523438,-0.29688 0.921876,-0.29688 0.132813,0 0.273437,0.0234 0.421874,0.0625 v 0.9375 c -0.148437,-0.0391 -0.335937,-0.0625 -0.5625,-0.0625 -0.429688,0 -0.757812,0.1875 -0.984374,0.5625 -0.218751,0.36719 -0.328126,0.89062 -0.328126,1.57812 v 3.23438 z m 7.59375,0 v -3.9375 c 0,-0.59375 -0.08593,-1.00391 -0.25,-1.23438 -0.167969,-0.22656 -0.464844,-0.34374 -0.890625,-0.34374 -0.4375,0 -0.789063,0.16796 -1.046875,0.5 -0.25,0.33593 -0.375,0.80859 -0.375,1.42187 v 3.59375 h -1.03125 v -4.875 c 0,-0.71875 -0.01173,-1.16016 -0.03125,-1.32812 h 0.96875 c 0.0079,0.0234 0.01563,0.0742 0.01563,0.15624 0,0.0859 0,0.1836 0,0.29688 0.0079,0.10547 0.01953,0.30859 0.03125,0.60938 h 0.01563 c 0.226563,-0.4375 0.484376,-0.73829 0.765626,-0.90626 0.289062,-0.17578 0.640625,-0.26562 1.046874,-0.26562 0.468751,0 0.835939,0.0937 1.109376,0.28125 0.281249,0.1875 0.472656,0.48437 0.578124,0.89063 h 0.01563 c 0.21875,-0.41407 0.476562,-0.71094 0.78125,-0.89063 0.300782,-0.1875 0.664063,-0.28125 1.09375,-0.28125 0.625,0 1.078125,0.17188 1.359374,0.51562 0.289063,0.33594 0.4375,0.89063 0.4375,1.67188 v 4.125 h -1.015624 v -3.9375 c 0,-0.59375 -0.08593,-1.00391 -0.25,-1.23438 -0.167969,-0.22656 -0.464844,-0.34374 -0.890625,-0.34374 -0.449219,0 -0.796875,0.16796 -1.046875,0.5 -0.25,0.33593 -0.375,0.80859 -0.375,1.42187 v 3.59375 z m 7.296875,0.10937 c -0.625,0 -1.09375,-0.16015 -1.40625,-0.48437 -0.3125,-0.33203 -0.46875,-0.78516 -0.46875,-1.35938 0,-0.63281 0.207032,-1.125 0.625,-1.46875 0.425781,-0.34375 1.109374,-0.53125 2.046874,-0.5625 l 1.390626,-0.0156 v -0.34375 c 0,-0.5 -0.109374,-0.85938 -0.328126,-1.07813 -0.210937,-0.21875 -0.542968,-0.32812 -1,-0.32812 -0.460937,0 -0.796874,0.0781 -1.015624,0.23437 -0.210937,0.15625 -0.335937,0.40625 -0.375,0.75 l -1.0625,-0.0937 c 0.164063,-1.11329 0.992187,-1.67188 2.484375,-1.67188 0.769531,0 1.351563,0.17969 1.75,0.53125 0.394531,0.35547 0.593749,0.87109 0.593749,1.54687 v 2.67188 c 0,0.3125 0.03516,0.54688 0.109374,0.70312 0.08203,0.14844 0.238281,0.21876 0.468749,0.21876 0.10156,0 0.218751,-0.008 0.343751,-0.0313 v 0.64063 c -0.261719,0.0625 -0.527344,0.0937 -0.796876,0.0937 -0.386719,0 -0.667968,-0.0976 -0.84375,-0.29687 -0.167969,-0.20703 -0.265625,-0.52344 -0.296874,-0.95313 h -0.03125 c -0.261718,0.48047 -0.570312,0.82032 -0.921874,1.01563 -0.343751,0.1875 -0.765626,0.28125 -1.265626,0.28125 z m 0.234374,-0.76562 c 0.375,0 0.707032,-0.082 1,-0.25 0.300782,-0.17578 0.535158,-0.41406 0.703126,-0.71875 0.164062,-0.30078 0.25,-0.60938 0.25,-0.92188 v -0.51562 l -1.125,0.0312 c -0.492187,0 -0.859375,0.0469 -1.109375,0.14063 -0.25,0.0937 -0.445312,0.24218 -0.578125,0.4375 -0.125,0.1875 -0.1875,0.43359 -0.1875,0.73437 0,0.34375 0.08593,0.60938 0.265625,0.79688 0.1875,0.17969 0.445312,0.26562 0.781249,0.26562 z m 4.851563,0.65625 v -8.5 h 1.031251 v 8.5 z m 2.648437,-7.51563 V 129.081 h 1.031252 v 0.98437 z m 0,7.51563 v -6.20312 h 1.031252 v 6.20312 z m 5.054692,-0.0469 c -0.33594,0.0937 -0.6836,0.14062 -1.04688,0.14062 -0.82422,0 -1.23437,-0.46874 -1.23437,-1.40624 v -4.14062 h -0.71875 v -0.75 h 0.76562 l 0.29688,-1.39063 h 0.6875 v 1.39063 h 1.15625 v 0.75 h -1.15625 v 3.92187 c 0,0.29297 0.0469,0.5 0.14062,0.625 0.10156,0.11719 0.27344,0.17188 0.51563,0.17188 0.13281,0 0.33203,-0.0234 0.59375,-0.0781 z m 0.58593,2.48438 c -0.28125,0 -0.51562,-0.0234 -0.70312,-0.0625 v -0.78125 c 0.14453,0.0312 0.30078,0.0469 0.46875,0.0469 0.64453,0 1.15625,-0.47656 1.53125,-1.42187 l 0.0937,-0.25 -2.45312,-6.17188 h 1.09375 l 1.3125,3.4375 c 0.0195,0.0547 0.0391,0.11719 0.0625,0.1875 0.0313,0.0742 0.11719,0.32422 0.26563,0.75 0.14453,0.41797 0.22265,0.65235 0.23437,0.70313 l 0.39063,-1.125 1.35937,-3.95313 h 1.09375 l -2.39062,6.20313 c -0.25,0.65625 -0.49219,1.14453 -0.71875,1.46875 -0.21875,0.32031 -0.46485,0.5625 -0.73438,0.71875 -0.26172,0.16406 -0.5625,0.25 -0.90625,0.25 z m -60.457026,18.36719 c 0,0.75 -0.292969,1.32813 -0.875,1.73438 -0.574219,0.40625 -1.390625,0.60937 -2.453125,0.60937 -1.96875,0 -3.109375,-0.67969 -3.421875,-2.04687 l 1.0625,-0.21875 c 0.125,0.49218 0.382812,0.85156 0.78125,1.07812 0.394531,0.23047 0.9375,0.34375 1.625,0.34375 0.695312,0 1.238281,-0.11719 1.625,-0.35937 0.382812,-0.25 0.578125,-0.60938 0.578125,-1.07813 0,-0.25781 -0.0625,-0.47266 -0.1875,-0.64062 -0.117188,-0.16407 -0.28125,-0.30078 -0.5,-0.40625 -0.21875,-0.10157 -0.480469,-0.19141 -0.78125,-0.26563 -0.304688,-0.0703 -0.636719,-0.14844 -1,-0.23437 -0.636719,-0.14453 -1.121094,-0.28516 -1.453125,-0.42188 -0.335938,-0.14453 -0.59375,-0.30078 -0.78125,-0.46875 -0.1875,-0.17578 -0.335938,-0.3789 -0.4375,-0.60937 -0.105469,-0.23829 -0.15625,-0.50782 -0.15625,-0.8125 0,-0.69532 0.265625,-1.22657 0.796875,-1.59375 0.53125,-0.375 1.285156,-0.5625 2.265625,-0.5625 0.914062,0 1.617187,0.14062 2.109375,0.42187 0.488281,0.28125 0.828125,0.75781 1.015625,1.42188 l -1.078125,0.20312 c -0.117188,-0.4375 -0.339844,-0.75 -0.671875,-0.9375 -0.335938,-0.19531 -0.792969,-0.29687 -1.375,-0.29687 -0.648438,0 -1.140625,0.10937 -1.484375,0.32812 -0.335938,0.21094 -0.5,0.52734 -0.5,0.95313 0,0.25 0.0625,0.46093 0.1875,0.625 0.132812,0.15625 0.320312,0.29297 0.5625,0.40625 0.25,0.11718 0.75,0.25781 1.5,0.42187 0.238281,0.0547 0.484375,0.10937 0.734375,0.17188 0.25,0.0547 0.484375,0.12109 0.703125,0.20312 0.226562,0.0859 0.441406,0.18359 0.640625,0.29688 0.195312,0.11718 0.367187,0.25 0.515625,0.40625 0.144531,0.15625 0.253906,0.34375 0.328125,0.5625 0.08203,0.21875 0.125,0.47656 0.125,0.76562 z m 2.285156,-0.64062 c 0,0.71093 0.144531,1.25781 0.4375,1.64062 0.300781,0.38672 0.734375,0.57813 1.296875,0.57813 0.445313,0 0.804687,-0.0859 1.078125,-0.26563 0.269531,-0.1875 0.453125,-0.41406 0.546875,-0.6875 l 0.90625,0.25 c -0.375,0.98047 -1.21875,1.46875 -2.53125,1.46875 -0.917969,0 -1.617187,-0.26953 -2.09375,-0.8125 -0.480469,-0.55078 -0.71875,-1.36328 -0.71875,-2.4375 0,-1.01953 0.238281,-1.80078 0.71875,-2.34375 0.476563,-0.55078 1.160156,-0.82812 2.046875,-0.82812 1.820312,0 2.734375,1.10156 2.734375,3.29687 v 0.14063 z m 3.359375,-0.79688 c -0.05469,-0.65625 -0.21875,-1.1289 -0.5,-1.42187 -0.273437,-0.30079 -0.667969,-0.45313 -1.1875,-0.45313 -0.5,0 -0.898437,0.16797 -1.1875,0.5 -0.292969,0.33594 -0.449219,0.79297 -0.46875,1.375 z m 2.542969,3.67188 v -4.75 c 0,-0.4375 -0.01173,-0.92188 -0.03125,-1.45313 h 0.96875 c 0.03125,0.71094 0.04688,1.13281 0.04688,1.26563 h 0.03125 c 0.15625,-0.53125 0.335938,-0.89063 0.546876,-1.07813 0.218749,-0.19531 0.523437,-0.29687 0.921874,-0.29687 0.132814,0 0.273438,0.0234 0.421875,0.0625 v 0.9375 c -0.148437,-0.0391 -0.335937,-0.0625 -0.5625,-0.0625 -0.429687,0 -0.757812,0.1875 -0.984375,0.5625 -0.218757,0.36718 -0.328132,0.89062 -0.328132,1.57812 v 3.23438 z m 3.968749,-7.51563 v -0.98437 h 1.031251 v 0.98437 z m 0,7.51563 v -6.20313 h 1.031251 v 6.20313 z m 4.257813,0.10937 c -0.625,0 -1.09375,-0.16016 -1.40625,-0.48438 -0.3125,-0.33203 -0.46875,-0.78515 -0.46875,-1.35937 0,-0.63281 0.207031,-1.125 0.625,-1.46875 0.425782,-0.34375 1.109375,-0.53125 2.046875,-0.5625 l 1.390625,-0.0156 v -0.34374 c 0,-0.5 -0.109373,-0.85938 -0.328125,-1.07813 -0.210937,-0.21875 -0.542969,-0.32812 -1,-0.32812 -0.460937,0 -0.796875,0.0781 -1.015625,0.23437 -0.210938,0.15625 -0.335938,0.40625 -0.375,0.75 l -1.0625,-0.0937 c 0.164062,-1.11328 0.992188,-1.67187 2.484374,-1.67187 0.769532,0 1.351563,0.17969 1.75,0.53125 0.394532,0.35547 0.593751,0.87109 0.593751,1.54687 v 2.67188 c 0,0.3125 0.03516,0.54687 0.109373,0.70312 0.08203,0.14844 0.238282,0.21875 0.468751,0.21875 0.10156,0 0.218749,-0.008 0.343749,-0.0312 v 0.64063 c -0.261718,0.0625 -0.527344,0.0937 -0.796874,0.0937 -0.386719,0 -0.66797,-0.0976 -0.843751,-0.29687 -0.167968,-0.20703 -0.265624,-0.52344 -0.296875,-0.95313 h -0.03125 c -0.261719,0.48047 -0.570313,0.82032 -0.921876,1.01563 -0.343749,0.1875 -0.765624,0.28125 -1.265624,0.28125 z m 0.234375,-0.76563 c 0.375,0 0.707031,-0.082 1,-0.25 0.300781,-0.17578 0.535156,-0.41406 0.703125,-0.71875 0.164062,-0.30078 0.25,-0.60937 0.25,-0.92187 v -0.51563 l -1.125,0.0313 c -0.492188,0 -0.859376,0.0469 -1.109376,0.14062 -0.25,0.0937 -0.445312,0.24219 -0.578124,0.4375 -0.125,0.1875 -0.1875,0.43359 -0.1875,0.73438 0,0.34375 0.08593,0.60937 0.265624,0.79687 0.1875,0.17969 0.445314,0.26563 0.781251,0.26563 z m 4.851563,0.65625 v -8.5 h 1.031249 v 8.5 z m 6.093749,-3.125 c 0,0.82422 0.128906,1.4336 0.390625,1.82813 0.257812,0.39844 0.648437,0.59375 1.171875,0.59375 0.363281,0 0.664062,-0.0976 0.90625,-0.29688 0.25,-0.19531 0.40625,-0.5 0.46875,-0.90625 l 1.046874,0.0625 c -0.08593,0.59375 -0.339842,1.07031 -0.765624,1.42187 -0.429688,0.35547 -0.96875,0.53125 -1.625,0.53125 -0.867188,0 -1.527344,-0.26953 -1.984376,-0.8125 -0.460937,-0.55078 -0.687499,-1.35156 -0.687499,-2.40625 0,-1.03906 0.226562,-1.83203 0.687499,-2.375 0.457032,-0.55078 1.113282,-0.82812 1.968751,-0.82812 0.632812,0 1.160156,0.16797 1.578125,0.5 0.414063,0.32422 0.675782,0.77343 0.78125,1.34375 l -1.046875,0.0781 c -0.05469,-0.34375 -0.1875,-0.61328 -0.406251,-0.8125 -0.218749,-0.19532 -0.531249,-0.29688 -0.9375,-0.29688 -0.542968,0 -0.9375,0.1836 -1.1875,0.54688 -0.242186,0.35546 -0.359374,0.96484 -0.359374,1.82812 z m 9.792969,0.0156 c 0,1.08594 -0.242188,1.89062 -0.718751,2.42187 -0.480468,0.53125 -1.171874,0.79688 -2.078124,0.79688 -0.90625,0 -1.589844,-0.27344 -2.046876,-0.82813 -0.460937,-0.55078 -0.6875,-1.34765 -0.6875,-2.39062 0,-2.13281 0.921876,-3.20313 2.765626,-3.20313 0.945312,0 1.64453,0.26172 2.09375,0.78125 0.445312,0.52344 0.671875,1.32813 0.671875,2.42188 z m -1.078125,0 c 0,-0.85156 -0.132814,-1.47266 -0.390626,-1.85938 -0.25,-0.38281 -0.679686,-0.57812 -1.281249,-0.57812 -0.593751,0 -1.027344,0.19922 -1.296875,0.59375 -0.273438,0.39844 -0.40625,1.01172 -0.40625,1.84375 0,0.82422 0.128906,1.44531 0.390625,1.85937 0.269531,0.40625 0.6875,0.60938 1.25,0.60938 0.625,0 1.066405,-0.19531 1.328125,-0.59375 0.269531,-0.40625 0.40625,-1.03125 0.40625,-1.875 z m 2.523437,3.10937 v -4.75 c 0,-0.4375 -0.01173,-0.92187 -0.03125,-1.45312 h 0.968749 c 0.03125,0.71094 0.04688,1.13281 0.04688,1.26562 h 0.03125 c 0.15625,-0.53125 0.335937,-0.89062 0.546875,-1.07812 0.21875,-0.19531 0.523437,-0.29688 0.921874,-0.29688 0.132814,0 0.273439,0.0234 0.421876,0.0625 v 0.9375 c -0.148437,-0.0391 -0.335937,-0.0625 -0.5625,-0.0625 -0.429688,0 -0.757813,0.1875 -0.984376,0.5625 -0.218749,0.36719 -0.328123,0.89063 -0.328123,1.57813 v 3.23437 z m 4,0 v -4.75 c 0,-0.4375 -0.01173,-0.92187 -0.03125,-1.45312 h 0.96875 c 0.03125,0.71094 0.04688,1.13281 0.04688,1.26562 h 0.03125 c 0.156249,-0.53125 0.335937,-0.89062 0.546875,-1.07812 0.21875,-0.19531 0.523437,-0.29688 0.921874,-0.29688 0.132814,0 0.273439,0.0234 0.421876,0.0625 v 0.9375 c -0.148437,-0.0391 -0.335937,-0.0625 -0.5625,-0.0625 -0.429688,0 -0.757813,0.1875 -0.984376,0.5625 -0.218749,0.36719 -0.328124,0.89063 -0.328124,1.57813 v 3.23437 z m 4.769532,-2.875 c 0,0.71094 0.14453,1.25782 0.4375,1.64063 0.300781,0.38672 0.734374,0.57812 1.296874,0.57812 0.445312,0 0.804687,-0.0859 1.078126,-0.26562 0.26953,-0.1875 0.453124,-0.41406 0.546874,-0.6875 l 0.90625,0.25 c -0.375,0.98047 -1.21875,1.46875 -2.53125,1.46875 -0.917969,0 -1.617188,-0.26953 -2.09375,-0.8125 -0.480468,-0.55078 -0.71875,-1.36328 -0.71875,-2.4375 0,-1.01953 0.238282,-1.80078 0.71875,-2.34375 0.476562,-0.55078 1.160157,-0.82813 2.046876,-0.82813 1.820312,0 2.734374,1.10157 2.734374,3.29688 v 0.14062 z m 3.359374,-0.79687 c -0.05469,-0.65625 -0.21875,-1.12891 -0.5,-1.42188 -0.273437,-0.30078 -0.667969,-0.45312 -1.1875,-0.45312 -0.5,0 -0.898437,0.16797 -1.1875,0.5 -0.292969,0.33594 -0.449218,0.79297 -0.46875,1.375 z m 2.523437,3.67187 v -8.5 h 1.03125 v 8.5 z m 4.242193,0.10938 c -0.625,0 -1.09376,-0.16016 -1.40626,-0.48438 -0.3125,-0.33203 -0.46874,-0.78515 -0.46874,-1.35937 0,-0.63282 0.20703,-1.125 0.625,-1.46875 0.42578,-0.34375 1.10937,-0.53125 2.04687,-0.5625 l 1.39063,-0.0156 v -0.34374 c 0,-0.5 -0.10938,-0.85938 -0.32813,-1.07813 -0.21094,-0.21875 -0.54297,-0.32812 -1,-0.32812 -0.46094,0 -0.79687,0.0781 -1.01563,0.23437 -0.21093,0.15625 -0.33593,0.40625 -0.375,0.75 l -1.0625,-0.0937 c 0.16407,-1.11328 0.99219,-1.67187 2.48438,-1.67187 0.76953,0 1.35156,0.17969 1.75,0.53125 0.39453,0.35547 0.59375,0.87109 0.59375,1.54687 v 2.67188 c 0,0.3125 0.0352,0.54687 0.10937,0.70312 0.082,0.14844 0.23828,0.21875 0.46875,0.21875 0.10156,0 0.21875,-0.008 0.34375,-0.0312 v 0.64063 c -0.26172,0.0625 -0.52734,0.0937 -0.79687,0.0937 -0.38672,0 -0.66797,-0.0976 -0.84375,-0.29687 -0.16797,-0.20703 -0.26563,-0.52344 -0.29688,-0.95313 h -0.0312 c -0.26172,0.48047 -0.57031,0.82032 -0.92188,1.01563 -0.34375,0.1875 -0.76562,0.28125 -1.26562,0.28125 z m 0.23437,-0.76563 c 0.375,0 0.70703,-0.082 1,-0.25 0.30078,-0.17578 0.53516,-0.41406 0.70313,-0.71875 0.16406,-0.30078 0.25,-0.60937 0.25,-0.92187 v -0.51563 l -1.125,0.0312 c -0.49219,0 -0.85938,0.0469 -1.10938,0.14063 -0.25,0.0937 -0.44531,0.24219 -0.57812,0.4375 -0.125,0.1875 -0.1875,0.43359 -0.1875,0.73437 0,0.34375 0.0859,0.60938 0.26562,0.79688 0.1875,0.17969 0.44531,0.26562 0.78125,0.26562 z m 7.22656,0.60938 c -0.33593,0.0937 -0.68359,0.14062 -1.04687,0.14062 -0.82422,0 -1.23438,-0.46875 -1.23438,-1.40625 v -4.14062 h -0.71875 v -0.75 h 0.76563 l 0.29687,-1.39063 h 0.6875 v 1.39063 h 1.15625 v 0.75 h -1.15625 v 3.92187 c 0,0.29297 0.0469,0.5 0.14063,0.625 0.10156,0.11719 0.27344,0.17188 0.51562,0.17188 0.13282,0 0.33203,-0.0234 0.59375,-0.0781 z m 0.26953,-7.46875 v -0.98437 h 1.03125 v 0.98437 z m 0,7.51562 v -6.20312 h 1.03125 v 6.20312 z m 7.91407,-3.10937 c 0,1.08593 -0.24219,1.89062 -0.71875,2.42187 -0.48047,0.53125 -1.17188,0.79688 -2.07813,0.79688 -0.90625,0 -1.58984,-0.27344 -2.04687,-0.82813 -0.46094,-0.55078 -0.6875,-1.34765 -0.6875,-2.39062 0,-2.13282 0.92187,-3.20313 2.76562,-3.20313 0.94531,0 1.64453,0.26172 2.09375,0.78125 0.44531,0.52344 0.67188,1.32813 0.67188,2.42188 z m -1.07813,0 c 0,-0.85157 -0.13281,-1.47266 -0.39062,-1.85938 -0.25,-0.38281 -0.67969,-0.57812 -1.28125,-0.57812 -0.59375,0 -1.02735,0.19922 -1.29688,0.59375 -0.27344,0.39843 -0.40625,1.01172 -0.40625,1.84375 0,0.82422 0.12891,1.44531 0.39063,1.85937 0.26953,0.40625 0.6875,0.60938 1.25,0.60938 0.625,0 1.0664,-0.19532 1.32812,-0.59375 0.26953,-0.40625 0.40625,-1.03125 0.40625,-1.875 z m 6.44531,3.10937 v -3.9375 c 0,-0.40625 -0.043,-0.71875 -0.125,-0.9375 -0.0859,-0.22656 -0.21484,-0.39062 -0.39062,-0.48437 -0.17969,-0.10156 -0.4336,-0.15625 -0.76563,-0.15625 -0.5,0 -0.89843,0.17187 -1.1875,0.51562 -0.28125,0.33594 -0.42187,0.80469 -0.42187,1.40625 v 3.59375 h -1.03125 v -4.875 c 0,-0.71875 -0.0117,-1.16015 -0.0313,-1.32812 h 0.96875 c 0.008,0.0234 0.0156,0.0742 0.0156,0.15625 0,0.0859 0,0.18359 0,0.29687 0.008,0.10547 0.0195,0.3086 0.0312,0.60938 h 0.0156 c 0.23828,-0.42578 0.51563,-0.72657 0.82813,-0.90625 0.3125,-0.17578 0.69531,-0.26563 1.15625,-0.26563 0.67578,0 1.17187,0.17188 1.48437,0.51563 0.32031,0.33593 0.48438,0.89062 0.48438,1.67187 v 4.125 z m -79.332026,23.04298 -0.921875,-2.35938 h -3.6875 l -0.921875,2.35938 h -1.140625 l 3.296875,-8.07813 h 1.25 l 3.234375,8.07813 z m -2.765625,-7.25001 -0.04687,0.15625 c -0.09375,0.32422 -0.234375,0.73047 -0.421875,1.21875 l -1.03125,2.65625 h 3.015625 l -1.03125,-2.65625 c -0.117188,-0.26953 -0.226563,-0.5664 -0.328125,-0.89062 z m 4.863281,7.25001 v -8.50001 h 1.03125 v 8.50001 z m 2.664062,0 v -8.50001 h 1.03125 v 8.50001 z M 38.729839,206.6982 v -8.07812 h 1.09375 v 8.07812 z m 6.277344,-1 c -0.1875,0.39844 -0.445313,0.6836 -0.765625,0.85939 -0.3125,0.16405 -0.703125,0.25 -1.171875,0.25 -0.78125,0 -1.355469,-0.25781 -1.71875,-0.78125 -0.367188,-0.53126 -0.546875,-1.33204 -0.546875,-2.40626 0,-2.15625 0.753906,-3.23437 2.265625,-3.23437 0.476562,0 0.875,0.0899 1.1875,0.26563 0.3125,0.16796 0.5625,0.43749 0.75,0.81249 h 0.01563 l -0.01563,-0.70312 v -2.56251 h 1.03125 v 7.21876 c 0,0.64843 0.0078,1.07422 0.03125,1.28124 h -0.984374 c -0.01172,-0.0625 -0.02344,-0.20312 -0.03125,-0.42186 -0.01172,-0.21875 -0.01563,-0.41016 -0.01563,-0.57814 z m -3.125,-2.10937 c 0,0.86719 0.113281,1.48437 0.34375,1.85937 0.226562,0.375 0.597656,0.56251 1.109375,0.56251 0.582031,0 1.003906,-0.19532 1.265625,-0.59375 0.269531,-0.40625 0.40625,-1.03516 0.40625,-1.89062 0,-0.82032 -0.136719,-1.42188 -0.40625,-1.79688 -0.261719,-0.38282 -0.679688,-0.57812 -1.25,-0.57812 -0.523438,0 -0.898438,0.1953 -1.125,0.57812 -0.230469,0.375 -0.34375,0.99609 -0.34375,1.85937 z m 6.664062,0.23437 c 0,0.71095 0.144531,1.25782 0.4375,1.64063 0.300781,0.38672 0.734375,0.57813 1.296875,0.57813 0.445312,0 0.804688,-0.086 1.078125,-0.26562 0.269531,-0.18751 0.453124,-0.41407 0.546875,-0.68751 l 0.906249,0.25 c -0.375,0.98047 -1.218749,1.46876 -2.531249,1.46876 -0.917969,0 -1.617188,-0.26953 -2.09375,-0.81251 -0.480469,-0.55078 -0.71875,-1.36328 -0.71875,-2.43749 0,-1.01953 0.238281,-1.80079 0.71875,-2.34376 0.476562,-0.55077 1.160156,-0.82812 2.046875,-0.82812 1.820312,0 2.734375,1.10156 2.734375,3.29688 v 0.14061 z m 3.359375,-0.79686 c -0.05469,-0.65626 -0.218751,-1.12891 -0.5,-1.42188 -0.273437,-0.30078 -0.667969,-0.45312 -1.1875,-0.45312 -0.5,0 -0.898438,0.16796 -1.1875,0.5 -0.292969,0.33593 -0.449219,0.79296 -0.46875,1.375 z m 4.113281,3.78125 c -0.625,0 -1.09375,-0.16016 -1.40625,-0.48439 -0.3125,-0.33202 -0.46875,-0.78514 -0.46875,-1.35937 0,-0.63281 0.207031,-1.125 0.625,-1.46875 0.425782,-0.34374 1.109375,-0.53125 2.046875,-0.56249 l 1.390625,-0.0156 v -0.34376 c 0,-0.5 -0.109373,-0.85937 -0.328125,-1.07812 -0.210937,-0.21875 -0.542968,-0.32812 -1,-0.32812 -0.460937,0 -0.796875,0.0781 -1.015625,0.23437 -0.210938,0.15626 -0.335938,0.40626 -0.375,0.75 l -1.0625,-0.0937 c 0.164062,-1.11329 0.992188,-1.67188 2.484376,-1.67188 0.76953,0 1.351561,0.17968 1.749999,0.53125 0.394531,0.35547 0.59375,0.8711 0.59375,1.54687 v 2.67188 c 0,0.31249 0.03516,0.54688 0.109373,0.70312 0.08203,0.14844 0.238281,0.21876 0.468751,0.21876 0.10156,0 0.218749,-0.008 0.343749,-0.0312 v 0.64063 c -0.261719,0.0625 -0.527343,0.0937 -0.796875,0.0937 -0.386718,0 -0.667968,-0.0976 -0.843749,-0.29688 -0.167969,-0.20703 -0.265625,-0.52344 -0.296876,-0.95312 h -0.03125 c -0.261719,0.48047 -0.570313,0.82031 -0.921875,1.01563 -0.34375,0.18749 -0.765625,0.28125 -1.265625,0.28125 z m 0.234375,-0.76563 c 0.375,0 0.707032,-0.082 1,-0.25 0.300781,-0.17578 0.535156,-0.41406 0.703125,-0.71876 0.164063,-0.30077 0.25,-0.60937 0.25,-0.92186 v -0.51563 l -1.125,0.0312 c -0.492188,0 -0.859374,0.0469 -1.109374,0.14063 -0.25,0.0937 -0.445314,0.24218 -0.578126,0.43749 -0.125,0.18751 -0.1875,0.4336 -0.1875,0.73437 0,0.34375 0.08593,0.60938 0.265626,0.79688 0.1875,0.17968 0.445312,0.26563 0.781249,0.26563 z m 4.851562,0.65624 v -8.5 h 1.03125 v 8.5 z m 8.035156,0 h -1.218749 l -2.25,-6.20312 h 1.093749 l 1.359375,4.03126 c 0.05079,0.15625 0.1875,0.60937 0.406251,1.35937 l 0.1875,-0.67188 0.234374,-0.67187 1.406251,-4.04688 h 1.093749 z m 4.195313,0.10934 c -0.625,0 -1.09375,-0.16016 -1.40625,-0.48439 -0.3125,-0.33203 -0.468749,-0.78515 -0.468749,-1.35937 0,-0.63282 0.20703,-1.125 0.624999,-1.46875 0.42578,-0.34375 1.109375,-0.53125 2.046875,-0.56249 l 1.390625,-0.0156 v -0.34376 c 0,-0.5 -0.109373,-0.85938 -0.328125,-1.07812 -0.210937,-0.21875 -0.542969,-0.32812 -1,-0.32812 -0.460937,0 -0.796875,0.0781 -1.015625,0.23437 -0.210938,0.15625 -0.335938,0.40625 -0.375,0.75 l -1.0625,-0.0937 c 0.164062,-1.1133 0.992188,-1.67188 2.484374,-1.67188 0.769532,0 1.351563,0.17968 1.75,0.53125 0.394532,0.35547 0.593751,0.87109 0.593751,1.54687 v 2.67188 c 0,0.31249 0.03516,0.54688 0.109373,0.70312 0.08203,0.14844 0.238282,0.21876 0.468751,0.21876 0.10156,0 0.218749,-0.008 0.343749,-0.0312 v 0.64062 c -0.261718,0.0625 -0.527344,0.0937 -0.796874,0.0937 -0.386719,0 -0.66797,-0.0976 -0.843751,-0.29688 -0.167968,-0.20703 -0.265624,-0.52344 -0.296875,-0.95312 h -0.03125 c -0.26172,0.48046 -0.570313,0.8203 -0.921876,1.01562 -0.343749,0.1875 -0.765624,0.28126 -1.265624,0.28126 z m 0.234375,-0.76563 c 0.375,0 0.707031,-0.082 1,-0.25 0.300781,-0.17579 0.535156,-0.41407 0.703125,-0.71876 0.164062,-0.30077 0.25,-0.60937 0.25,-0.92187 v -0.51562 l -1.125,0.0312 c -0.492188,0 -0.859376,0.0469 -1.109376,0.14062 -0.25,0.0937 -0.445312,0.24219 -0.578124,0.4375 -0.125,0.1875 -0.1875,0.4336 -0.1875,0.73437 0,0.34375 0.08593,0.60937 0.265624,0.79688 0.1875,0.17968 0.445314,0.26563 0.781251,0.26563 z m 4.851563,0.65624 v -8.5 h 1.031249 v 8.5 z m 3.664062,-6.20312 v 3.93751 c 0,0.40624 0.03907,0.72656 0.125,0.95312 0.08203,0.21874 0.207031,0.38281 0.375,0.48437 0.17578,0.0937 0.4375,0.14063 0.78125,0.14063 0.5,0 0.890625,-0.16407 1.171874,-0.5 0.289063,-0.34375 0.4375,-0.81642 0.4375,-1.42188 v -3.59375 h 1.031251 v 4.875 c 0,0.73047 0.0079,1.17188 0.03125,1.32812 h -0.984374 c 0,-0.0195 -0.0079,-0.0703 -0.01563,-0.15624 0,-0.082 -0.0079,-0.17579 -0.01563,-0.28125 0,-0.11334 0,-0.32032 0,-0.625 h -0.03125 c -0.230469,0.42968 -0.5,0.73046 -0.8125,0.90625 -0.3125,0.17577 -0.699219,0.26563 -1.156249,0.26563 -0.6875,0 -1.1875,-0.16407 -1.5,-0.5 -0.3125,-0.34376 -0.468751,-0.89844 -0.468751,-1.67188 v -4.14063 z m 6.445312,3.32812 c 0,0.71095 0.144531,1.25781 0.4375,1.64063 0.300781,0.38672 0.734375,0.57813 1.296875,0.57813 0.445313,0 0.804688,-0.086 1.078125,-0.26563 0.269531,-0.1875 0.453125,-0.41406 0.546875,-0.6875 l 0.90625,0.25 c -0.375,0.98046 -1.21875,1.46876 -2.53125,1.46876 -0.917968,0 -1.617187,-0.26954 -2.09375,-0.81251 -0.480469,-0.55079 -0.71875,-1.36328 -0.71875,-2.43749 0,-1.01954 0.238281,-1.80079 0.71875,-2.34376 0.476563,-0.55078 1.160156,-0.82812 2.046875,-0.82812 1.820312,0 2.734375,1.10156 2.734375,3.29688 v 0.14061 z m 3.359375,-0.79687 c -0.05469,-0.65625 -0.21875,-1.1289 -0.5,-1.42188 -0.273438,-0.30077 -0.667968,-0.45312 -1.1875,-0.45312 -0.5,0 -0.898438,0.16796 -1.1875,0.5 -0.292968,0.33594 -0.449219,0.79296 -0.46875,1.375 z m 5.113281,0.625 c 0,-1.10156 0.171875,-2.09374 0.515625,-2.96874 0.34375,-0.88282 0.875,-1.71095 1.593749,-2.48439 h 1.000001 c -0.71875,0.79297 -1.246094,1.63672 -1.578125,2.53125 -0.335938,0.89844 -0.499999,1.875 -0.499999,2.93751 0,1.05468 0.160156,2.02733 0.484374,2.92187 0.332031,0.88281 0.863281,1.72656 1.59375,2.53125 h -1.000001 c -0.718749,-0.77344 -1.249999,-1.59375 -1.593749,-2.46875 -0.34375,-0.88281 -0.515625,-1.8789 -0.515625,-2.98437 z m 9.332035,-1 c 0,1.35547 -0.24219,2.38672 -0.71875,3.09375 -0.46875,0.71093 -1.16797,1.06251 -2.09375,1.06251 -0.92969,0 -1.625,-0.34767 -2.09375,-1.04688 -0.46875,-0.70703 -0.70313,-1.74219 -0.70313,-3.10938 0,-1.38281 0.22266,-2.42188 0.67188,-3.10937 0.45703,-0.68751 1.17578,-1.03125 2.15625,-1.03125 0.94531,0 1.64453,0.35156 2.09375,1.04688 0.45703,0.69921 0.6875,1.73046 0.6875,3.09374 z m -1.04688,0 c 0,-1.15625 -0.13672,-1.99218 -0.40625,-2.51562 -0.26172,-0.53126 -0.70312,-0.79688 -1.32812,-0.79688 -0.63672,0 -1.09375,0.26172 -1.375,0.78125 -0.27344,0.51172 -0.40625,1.35547 -0.40625,2.53125 0,1.14844 0.14062,1.98438 0.42187,2.51563 0.28125,0.53124 0.72656,0.79687 1.34375,0.79687 0.60156,0 1.04688,-0.26954 1.32813,-0.8125 0.28125,-0.53906 0.42187,-1.375 0.42187,-2.5 z m 4.83594,1.01563 c 0,1.10547 -0.17969,2.10156 -0.53125,2.98437 -0.34375,0.875 -0.875,1.69531 -1.59375,2.46875 h -1 c 0.71875,-0.80469 1.24219,-1.64844 1.57812,-2.53125 0.33204,-0.88282 0.5,-1.85938 0.5,-2.92187 0,-1.07032 -0.16796,-2.05079 -0.5,-2.93751 -0.33593,-0.89453 -0.85937,-1.73828 -1.57812,-2.53125 h 1 c 0.72656,0.78125 1.26562,1.61719 1.60937,2.5 0.34375,0.875 0.51563,1.85939 0.51563,2.95313 z m 0,0"
       style="fill:#000000;fill-opacity:1;fill-rule:nonzero;stroke:none;stroke-width:1.33333"
       aria-label="None&#10;EDO error&#10;Selection bias&#10;Heteroskedasticity&#10;Non-normality&#10;Serial correlation&#10;All&#10;Ideal value (0)" />
  </g>
</svg>
