<?xml version="1.0" encoding="UTF-8" standalone="no"?>
<!-- Generator: Adobe Illustrator 19.1.1, SVG Export Plug-In . SVG Version: 6.00 Build 0)  -->

<svg
   version="1.1"
   id="Layer_1"
   x="0px"
   y="0px"
   viewBox="0 0 202.80001 192.43601"
   xml:space="preserve"
   sodipodi:docname="logo-university-of-uppsala.svg"
   width="202.8"
   height="192.436"
   inkscape:version="1.4.2 (ebf0e940, 2025-05-08)"
   xmlns:inkscape="http://www.inkscape.org/namespaces/inkscape"
   xmlns:sodipodi="http://sodipodi.sourceforge.net/DTD/sodipodi-0.dtd"
   xmlns="http://www.w3.org/2000/svg"
   xmlns:svg="http://www.w3.org/2000/svg"><defs
   id="defs79" /><sodipodi:namedview
   id="namedview79"
   pagecolor="#ffffff"
   bordercolor="#000000"
   borderopacity="0.25"
   inkscape:showpageshadow="2"
   inkscape:pageopacity="0.0"
   inkscape:pagecheckerboard="0"
   inkscape:deskcolor="#d1d1d1"
   inkscape:zoom="0.8419675"
   inkscape:cx="111.64326"
   inkscape:cy="144.8987"
   inkscape:window-width="1096"
   inkscape:window-height="589"
   inkscape:window-x="0"
   inkscape:window-y="25"
   inkscape:window-maximized="0"
   inkscape:current-layer="g79" />
<style
   type="text/css"
   id="style1">
	.st0{fill-rule:evenodd;clip-rule:evenodd;}
	.st1{fill-rule:evenodd;clip-rule:evenodd;fill:#BD2B30;}
	.st2{fill:#BD2B30;}
	.st3{fill:none;}
</style>
<g
   id="g79"
   inkscape:groupmode="layer">
	<g
   id="g78"
   transform="translate(-43.7,-49.1)">
		<path
   class="st0"
   d="m 161.6,240.6 c -1,-0.4 -1.7,-0.9 -2.3,-1.8 -1.1,-1.7 -4.9,-7.2 -5.5,-8.2 -0.1,-0.1 -0.1,-0.4 0.1,-0.5 l 1,-0.3 c 1.2,-0.2 2.3,-1.3 2.7,-2.4 0.5,-1.4 0.4,-3.1 0,-4.5 -0.2,-1 -1,-1.9 -1.9,-2.5 -0.3,-0.2 -0.6,-0.3 -1.1,-0.4 -0.5,-0.1 -0.9,-0.2 -1.6,-0.2 -3.2,0 -6,0 -9.1,0 -0.2,0 -0.3,0.1 -0.3,0.3 0,0.2 0.3,0.2 0.6,0.3 0.5,0.2 0.8,0.9 0.8,1.7 v 16.6 c 0.1,1.1 -0.7,1.7 -1.3,1.7 -0.3,0 -0.4,0.5 0.1,0.5 1.7,-0.1 3.6,-0.1 5.3,0.1 0.1,0 0.4,-0.1 0.4,-0.3 0,-0.1 -0.1,-0.2 -0.3,-0.3 -0.9,-0.3 -1.3,-0.4 -1.4,-1.6 v -6.5 c 0,-0.1 0,-1.2 0,-1.4 0,-0.5 1.6,-0.3 2.3,-0.2 0.6,0 0.8,0.5 1.1,0.9 2,2.9 3.2,4.8 4.8,7.3 0.5,0.7 1.1,1.2 1.8,1.5 1.1,0.6 2.1,0.7 3.3,0.8 0.1,0 0.3,-0.1 0.3,-0.2 0.4,-0.1 0.5,-0.3 0.2,-0.4 z m -10.9,-11.5 c -0.7,0 -1.6,-0.1 -2.3,-0.2 -0.2,0 -0.2,-0.2 -0.2,-0.5 0,-3.3 0.1,-6.2 0.1,-6.7 0,-0.5 0.9,-0.4 1.4,-0.4 1.6,0 3.3,-0.2 4.3,0.5 0.6,0.4 1,1.1 1.2,1.6 0.3,0.8 0.2,1.9 0.2,2.7 -0.1,0.9 -0.7,1.8 -1.5,2.4 -0.5,0.1 -1.9,0.5 -3.2,0.6 z"
   id="path1" />
		<path
   class="st0"
   d="m 172.4,202.3 c -0.7,-0.2 -1.2,-0.6 -1.6,-1.2 -2,-4 -6.5,-15.6 -6.5,-15.6 -0.8,-1.8 -1.7,-4.2 -2,-4.8 -0.1,-0.4 -0.4,-0.1 -0.5,0.1 -2.1,4.8 -8.3,18 -9.1,19.5 -0.5,1 -1.2,1.5 -1.5,1.7 -0.4,0.3 -0.9,0.2 -0.9,0.5 0,0.1 0.1,0.3 0.3,0.3 0.7,0 3.2,-0.3 4.9,-0.1 0.2,0 0.3,-0.2 0.3,-0.3 0,-0.2 -0.4,-0.3 -0.6,-0.5 -0.4,-0.4 -0.5,-0.9 -0.4,-1.3 0.7,-2 1.6,-3.7 2.3,-5.5 0.1,-0.2 0.3,-0.4 0.5,-0.4 h 7.5 c 0.2,0 0.2,0.1 0.2,0.2 l 1.7,4.3 c 0.2,0.8 0.6,1.6 0.4,2.6 -0.2,0.6 -1,0.4 -1,0.8 0,0.1 0.1,0.2 0.3,0.2 2,-0.1 3.8,-0.2 5.7,0 0.2,0 0.3,-0.1 0.3,-0.3 0.1,-0.1 -0.1,-0.2 -0.3,-0.2 z m -8.9,-9.3 h -5.2 c -0.1,0 -0.1,-0.2 -0.1,-0.2 1.1,-2.4 2.2,-4.7 3.2,-7.1 0.1,-0.1 0.2,-0.2 0.3,-0.1 0.4,1 2.5,6.4 2.7,6.8 0.2,0.6 0,0.6 -0.9,0.6 z"
   id="path2" />
		<path
   class="st0"
   d="m 212.8,202.3 c -0.7,-0.2 -1.3,-0.6 -1.6,-1.2 -2,-4 -6.5,-15.6 -6.5,-15.6 -0.8,-1.8 -1.7,-4.2 -2,-4.8 -0.1,-0.4 -0.4,-0.1 -0.5,0.1 -2.1,4.8 -8.3,18 -9.1,19.5 -0.6,1 -1.2,1.5 -1.5,1.7 -0.4,0.3 -0.9,0.2 -0.9,0.5 0,0.1 0.1,0.3 0.3,0.3 0.7,0 3.2,-0.3 4.9,-0.1 0.2,0 0.3,-0.2 0.3,-0.3 0,-0.2 -0.4,-0.3 -0.6,-0.5 -0.5,-0.4 -0.5,-0.9 -0.4,-1.3 0.7,-2 1.5,-3.7 2.3,-5.5 0.1,-0.2 0.3,-0.4 0.5,-0.4 h 7.6 c 0.2,0 0.2,0.1 0.2,0.2 l 1.7,4.3 c 0.2,0.8 0.6,1.6 0.4,2.6 -0.2,0.6 -1,0.4 -1,0.8 0,0.1 0.1,0.2 0.3,0.2 2,-0.1 3.8,-0.2 5.7,0 0.2,0 0.3,-0.1 0.3,-0.3 0,-0.1 -0.2,-0.2 -0.4,-0.2 z m -9,-9.3 h -5.2 c -0.1,0 -0.1,-0.2 -0.1,-0.2 1.1,-2.4 2.2,-4.7 3.2,-7.1 0.1,-0.1 0.2,-0.2 0.3,-0.1 0.4,1 2.5,6.4 2.7,6.8 0.3,0.6 0,0.6 -0.9,0.6 z"
   id="path3" />
		<path
   d="m 146.3,181.5 c 0.5,0.1 0.4,0.4 0.4,0.8 0,1 0,1.7 0,2.9 0,0.2 0.1,0.6 -0.2,0.6 -0.5,0 -0.5,-1.2 -0.9,-1.6 -0.5,-0.6 -1.9,-1.6 -3.5,-1.6 -2,0 -3.4,1.2 -3.4,2.8 0,2 0.4,2.7 3,3.9 1.6,0.8 5.4,1.8 6.7,3.9 0.7,1 0.8,2.1 0.8,3.4 -0.1,1.6 -0.6,3.1 -1.6,4.3 -2.2,2.8 -7.8,2.4 -10.6,2 -0.4,0 -0.9,0.2 -0.9,-0.3 0.1,-1.4 0,-2.7 0,-4.1 0,-0.4 0.2,-0.5 0.4,-0.4 0.2,0.2 0.2,0.5 0.3,0.7 1,1.9 2.5,2.6 5.5,2.6 1.9,0 3.8,-1 4.5,-3 0.4,-1.2 0.2,-2.6 -0.7,-3.4 -1.6,-2 -4.1,-2.7 -6.3,-3.5 -1.3,-0.5 -3.5,-1.9 -3.5,-5.5 0,-1.5 0.9,-3.1 2,-3.8 2.2,-1.5 5.8,-1.2 8,-0.7 z"
   id="path4" />
		<path
   d="m 180.7,181.6 c 0.2,0 0.2,0.3 0,0.5 -0.5,0.3 -1,0.3 -1.2,0.9 -0.4,1.3 -0.2,2.7 -0.3,4 v 8 c 0.1,3.1 -0.4,4.5 1.4,5.9 0.7,0.5 4.2,0.4 5.1,0.3 1.9,-0.2 2.6,-1.2 3,-2 0.1,-0.2 0.2,-0.4 0.4,-0.4 0.3,0 0.3,0.2 0.2,0.5 -0.1,1 -0.3,2.3 -0.4,3.1 -0.1,0.2 -0.3,0.5 -0.5,0.5 -4,0.2 -10.1,-0.1 -13.3,0.1 -0.2,0 -0.4,0 -0.4,-0.3 0,-0.3 0.2,-0.4 0.4,-0.5 0.5,-0.2 0.8,-0.2 1.1,-0.8 0.3,-0.5 0.4,-1.1 0.4,-1.8 0.1,-6.6 0.1,-14.3 -0.2,-16.4 -0.1,-0.6 -0.9,-0.8 -1.4,-1.1 -0.2,-0.1 -0.1,-0.5 0.2,-0.5 0.9,0 4.2,0.1 5.5,0 z"
   id="path5" />
		<path
   d="m 86.4,236.2 v -13.1 c 0,-0.6 -0.1,-0.8 -0.2,-1.2 -0.2,-0.7 -0.6,-1.2 -1.3,-1.6 -0.3,-0.1 -0.2,-0.5 0,-0.5 1.6,0.1 3,0 4.5,0 0.2,0 0.3,0.1 0.3,0.2 0,0.4 -0.4,0.4 -0.7,0.7 -0.4,0.4 -0.7,0.8 -0.8,1.5 -0.2,2.8 0,15.4 0,15.4 0,1.2 0,2.2 0.1,3.5 0,0.4 -0.3,0.5 -0.4,0.4 -0.8,-0.8 -1.7,-1.6 -2.7,-2.7 -3.5,-3.2 -11.1,-10.8 -14.6,-14 -0.1,-0.1 -0.2,0 -0.2,0.1 0,0 -0.1,12.3 0.3,14.3 0.1,0.5 0.8,1.2 1.3,1.4 0.1,0 0.2,0.1 0.2,0.2 0,0.1 -0.1,0.2 -0.3,0.2 -1.7,-0.2 -3.4,-0.3 -5.1,0 -0.2,0 -0.2,-0.1 -0.2,-0.2 0,-0.5 1.1,-0.3 1.6,-1.4 0.4,-0.9 0.3,-18.5 0.3,-18.5 v -2 c 0,-0.2 0.2,-0.2 0.3,-0.1 -0.1,-0.1 16,16 17.6,17.4 z"
   id="path6" />
		<path
   d="m 207.7,219.7 c 0.1,0 0.2,0.1 0.2,0.2 v 3.5 c 0,0.7 -0.5,0.6 -0.7,0.1 -0.2,-0.6 -0.4,-1.1 -0.6,-1.3 -0.6,-0.7 -1.3,-1.1 -2.2,-1.2 h -4 c -0.5,0 -0.7,0.2 -0.7,0.7 -0.1,6.3 -0.3,15.8 0.1,17.1 0.4,1.3 1.1,1.4 1.6,1.6 0.3,0.1 0.4,0.5 -0.1,0.5 -1.5,0 -6,0 -6,0 -0.5,0 -0.4,-0.5 -0.1,-0.5 0.6,-0.2 1,-0.3 1.3,-0.8 0.3,-0.4 0.4,-0.8 0.4,-1.5 0,-1 0.1,-11.8 0.1,-15.4 0,-1.2 -0.2,-1.5 -0.4,-1.6 -0.7,-0.2 -4,-0.3 -5.5,0.2 -0.9,0.3 -1.4,1.2 -1.4,2.1 0,0.2 -0.1,0.3 -0.3,0.3 -0.1,0 -0.2,0 -0.2,-0.3 v -3.5 c 0,-0.2 0.2,-0.3 0.6,-0.3 z"
   id="path7" />
		<path
   d="m 138,220.1 c 0,1 0,1.5 0,2.4 0,0.1 -0.1,0.2 -0.2,0.2 -0.3,0 -0.6,-0.9 -1.1,-1.2 -1.6,-0.9 -3.5,-0.6 -5.5,-0.6 0,0 -1.1,0 -1.2,0.3 0,0.1 -0.1,4.9 -0.1,7.3 0,0.1 0.1,0.2 0.2,0.2 0.3,0 6.4,0 6.4,0 0.5,0 0.7,-0.6 0.7,-0.7 0.1,-0.3 0.5,-0.3 0.5,0 -0.1,1.2 -0.1,2.4 -0.1,3.5 0,0.1 -0.2,0.1 -0.3,-0.1 -0.5,-0.8 -1.1,-1.2 -2.1,-1.2 -1.8,0 -3.4,-0.1 -5.2,0.1 -0.1,0 -0.1,0.1 -0.1,0.3 0,2.2 -0.1,4 0,6.3 0,0.8 0.2,1.5 0.8,2 1.2,0.8 2.9,0.6 4.3,0.5 1.1,0 2.4,0.1 3.1,-0.9 0.4,-0.6 0.2,-0.9 0.7,-1.5 0.1,-0.1 0.3,-0.1 0.3,0.1 -0.1,1.5 -0.1,1.9 -0.1,3.6 0,0.2 -0.2,0.2 -0.2,0.2 0,0 -12.4,0 -12.9,0 -0.2,0 -0.3,-0.4 0,-0.5 0.7,-0.2 1.5,-0.3 1.5,-1.7 v -6.5 c 0.1,-3.4 0.3,-7 -0.1,-10.5 -0.1,-0.6 -0.3,-1.2 -0.9,-1.4 -0.2,-0.1 -0.6,0 -0.6,-0.3 0,-0.3 0.1,-0.4 0.5,-0.4 3.7,0 7.4,0 11.1,0 0.3,0 0.6,0.1 0.6,0.5 z"
   id="path8" />
		<path
   d="m 122.5,219.7 c 0.3,0 0.4,0.3 0.2,0.4 -0.4,0.3 -1.2,0.4 -1.4,1.1 -2.7,6.8 -5.6,13.3 -8.4,20.1 0,0.1 -0.2,0.2 -0.3,0 0,0 -5.4,-11.8 -9.5,-20.1 -0.3,-0.7 -1.1,-0.6 -1.6,-0.9 -0.1,-0.1 -0.1,-0.2 -0.1,-0.3 0,0 0,-0.2 0.3,-0.2 1.3,0 3.9,0 5.4,-0.1 0.1,0 0.3,0.1 0.3,0.3 -0.1,0.5 -1.2,0.6 -0.7,1.6 1.2,2.9 3.2,7.7 6.5,14.2 0.1,0.2 0.3,-0.4 0.4,-0.6 1.8,-4.1 3.4,-8.4 5.1,-12.5 0.2,-0.4 0.6,-1.8 -0.3,-2.3 -0.2,-0.1 -0.6,-0.2 -0.6,-0.4 0,-0.1 0,-0.3 0.2,-0.3 1.5,0 2.8,0 4.5,0 z"
   id="path9" />
		<path
   d="m 99.2,219.7 c 0.3,0 0.4,0.5 0,0.6 -1,0.1 -1.4,0.6 -1.4,2.4 -0.1,2.2 -0.1,14.7 -0.1,14.7 0,1 0.3,2.1 0.5,2.3 0.5,0.7 1.3,0.6 1.3,0.9 0,0.1 0,0.3 -0.2,0.3 -1.9,-0.2 -3.8,0.1 -5.6,0.1 -0.2,0 -0.2,-0.2 -0.2,-0.3 0,-0.5 0.7,-0.2 1,-0.5 0.3,-0.3 0.5,-0.8 0.5,-1.2 0.1,-8.3 0.2,-11.3 0.1,-17.2 0,-1.2 -1.5,-1.4 -1.9,-1.6 -0.1,-0.1 -0.1,-0.5 0.2,-0.5 1.9,0 3.8,0 5.8,0 z"
   id="path10" />
		<path
   d="m 95.7,181.5 c 0.2,0 0.3,0.1 0.3,0.2 0,0.1 -0.1,0.2 -0.3,0.3 -1.2,0.4 -1.5,1.7 -1.6,2.8 0,3.4 0,7.1 0,10.6 -0.1,1.9 -0.4,3.6 -1.6,5 -0.9,1.1 -2.3,2.1 -4.7,2.5 -1.6,0.3 -3.2,0.4 -4.8,0.1 -2.3,-0.4 -3.1,-0.8 -4.6,-2.3 -1.3,-1.3 -1.6,-2.8 -1.7,-5.1 v -11.7 c -0.1,-1.1 -0.2,-1.7 -1.3,-2.1 -0.1,0 -0.1,-0.2 -0.1,-0.3 0.1,-0.2 0.6,-0.1 0.9,-0.1 1.6,0 3.1,0 4.8,0 0.1,0 0.2,0.1 0.2,0.2 0,0.2 -0.4,0.2 -0.6,0.3 -1.4,0.7 -1,2.1 -1.1,3.5 v 7.3 c 0,2.8 -0.4,6.7 2.8,8 1.1,0.5 2.4,0.4 3.4,0.4 4.6,0 6.1,-2.9 6.2,-4.8 0.1,-3.2 0.1,-11.7 -0.1,-12.4 -0.2,-1.1 -1.2,-1.7 -1.8,-2.1 -0.1,-0.2 0,-0.4 0.3,-0.4 1.1,0.2 4.5,0.2 5.4,0.1 z"
   id="path11" />
		<path
   class="st0"
   d="m 110.1,181.6 c -3.2,-0.4 -6.7,0 -10,-0.1 -0.3,0 -0.6,0 -0.6,0.2 0,0.4 0.5,0.3 0.8,0.4 0.5,0.2 1.2,0.9 1.2,2.4 0,1.2 0.1,11.4 0,13.4 0,1.3 0.2,3.9 -1.4,4.4 -0.2,0.1 -0.5,0.2 -0.5,0.3 0,0.1 0,0.2 0.2,0.2 1.3,0 3.7,-0.2 5.8,0 0.2,0 0.2,-0.1 0.2,-0.3 0,-0.2 -0.5,-0.3 -0.8,-0.4 -0.8,-0.4 -0.8,-1.6 -0.8,-2.5 0,-2.5 -0.1,-4.5 -0.1,-6.6 0,-0.4 0.2,-0.5 0.4,-0.5 8.2,0.7 9.3,-3.2 9.3,-6.1 0,-2.2 -1,-4.5 -3.7,-4.8 z m -1.7,9.5 c -0.7,0 -2.7,0.1 -3.7,0 -0.3,0 -0.4,-0.4 -0.4,-0.6 -0.1,-2.5 -0.2,-5.2 0,-7.3 0,-0.4 0.5,-0.3 0.7,-0.3 1.6,-0.1 2.9,-0.1 4.2,0.1 0.6,0.1 1.2,0.5 1.5,1 0.5,0.9 0.5,1.9 0.6,2.9 0.2,2.4 -1.4,4.1 -2.9,4.2 z"
   id="path12" />
		<path
   class="st0"
   d="m 128.3,181.6 c -3.2,-0.4 -6.7,0 -10,-0.1 -0.3,0 -0.6,0 -0.6,0.2 0,0.4 0.5,0.3 0.8,0.4 0.5,0.2 1.2,0.9 1.2,2.4 0,1.2 0.1,11.4 0,13.4 0,1.3 0.2,3.9 -1.4,4.4 -0.2,0.1 -0.5,0.2 -0.5,0.3 0,0.1 0,0.2 0.2,0.2 1.3,0 3.7,-0.2 5.8,0 0.2,0 0.2,-0.1 0.2,-0.3 0,-0.2 -0.5,-0.3 -0.8,-0.4 -0.8,-0.4 -0.8,-1.6 -0.8,-2.5 0,-2.5 -0.1,-4.5 -0.1,-6.6 0,-0.4 0.2,-0.5 0.4,-0.5 8.2,0.7 9.3,-3.2 9.3,-6.1 -0.1,-2.2 -1,-4.5 -3.7,-4.8 z m -1.7,9.5 c -0.7,0 -2.7,0.1 -3.7,0 -0.3,0 -0.4,-0.4 -0.4,-0.6 -0.1,-2.5 -0.2,-5.2 0,-7.3 0,-0.4 0.5,-0.3 0.7,-0.3 1.6,-0.1 2.9,-0.1 4.2,0.1 0.6,0.1 1.2,0.5 1.5,1 0.5,0.9 0.5,1.9 0.6,2.9 0.2,2.4 -1.5,4.1 -2.9,4.2 z"
   id="path13" />
		<path
   d="m 64.1,219.9 c 0.2,0 0.3,0.1 0.3,0.2 0,0.1 -0.1,0.2 -0.3,0.2 -1.2,0.4 -1.5,1.7 -1.6,2.8 0,3.4 0,7.1 0,10.6 -0.1,1.9 -0.4,3.6 -1.6,5 -0.9,1.1 -2.3,2.1 -4.7,2.5 -1.6,0.3 -3.2,0.4 -4.8,0.1 -2.3,-0.4 -3.1,-0.8 -4.6,-2.3 -1.3,-1.3 -1.6,-2.8 -1.7,-5.1 v -11.7 c -0.1,-1.1 -0.2,-1.7 -1.3,-2.1 -0.1,0 -0.1,-0.2 -0.1,-0.3 0.1,-0.2 0.6,-0.1 0.9,-0.1 1.6,0 3.1,0 4.8,0 0.1,0 0.2,0.1 0.2,0.2 0,0.2 -0.4,0.2 -0.6,0.3 -1.4,0.7 -1,2.1 -1.1,3.5 v 7.3 c 0,2.8 -0.4,6.7 2.8,8 1.1,0.5 2.4,0.4 3.4,0.4 4.6,0 6.1,-2.9 6.2,-4.8 0.1,-3.2 0.1,-11.7 -0.1,-12.4 -0.2,-1.1 -1.2,-1.7 -1.8,-2.1 -0.1,-0.2 0,-0.4 0.3,-0.4 1.1,0.2 4.6,0.3 5.4,0.2 z"
   id="path14" />
		<path
   d="m 173.9,219.6 c 0.5,0.1 0.4,0.4 0.4,0.8 0,1 0,1.7 0,2.9 0,0.2 0,0.6 -0.2,0.6 -0.5,0 -0.5,-1.2 -0.9,-1.6 -0.5,-0.6 -1.9,-1.6 -3.5,-1.6 -2,0 -3.4,1.2 -3.4,2.8 0,2 0.4,2.6 3,3.9 1.6,0.8 5.4,1.8 6.7,3.9 0.7,1 0.8,2.1 0.8,3.4 -0.1,1.6 -0.6,3.1 -1.6,4.3 -2.2,2.8 -7.8,2.4 -10.6,2 -0.4,0 -0.9,0.2 -0.9,-0.3 0.1,-1.4 0,-2.7 0,-4.1 0,-0.4 0.2,-0.5 0.4,-0.4 0.2,0.2 0.2,0.5 0.3,0.7 1,1.9 2.5,2.6 5.5,2.6 1.9,0 3.8,-1 4.5,-3 0.4,-1.2 0.2,-2.6 -0.7,-3.4 -1.6,-2 -4.1,-2.7 -6.3,-3.5 -1.3,-0.5 -3.5,-1.9 -3.5,-5.5 0,-1.5 0.9,-3.1 2,-3.8 2.1,-1.5 5.7,-1.2 8,-0.7 z"
   id="path15" />
		<path
   d="m 185.6,219.6 c 0.2,0 0.4,0.5 0,0.6 -1,0.1 -1.4,0.6 -1.4,2.4 0,2.2 0,14.7 0,14.7 0,1 0.3,2.1 0.5,2.3 0.5,0.7 1.3,0.6 1.3,0.9 0,0.1 0,0.3 -0.2,0.3 -1.9,-0.2 -3.8,0.1 -5.6,0.1 -0.2,0 -0.2,-0.2 -0.2,-0.3 0,-0.5 0.7,-0.2 1,-0.5 0.3,-0.3 0.5,-0.8 0.5,-1.2 0.1,-8.3 0.2,-11.3 0.1,-17.2 0,-1.2 -1.5,-1.4 -1.9,-1.6 -0.1,-0.1 -0.1,-0.5 0.2,-0.5 1.8,0 3.7,0 5.7,0 z"
   id="path16" />
		<path
   d="m 223.9,220.1 c 0,1 0,1.5 0,2.4 0,0.1 -0.1,0.2 -0.2,0.2 -0.3,0 -0.6,-0.9 -1.2,-1.2 -1.6,-0.9 -3.5,-0.6 -5.5,-0.6 0,0 -1.1,0 -1.2,0.3 0,0.1 -0.1,4.9 -0.1,7.3 0,0.1 0.1,0.2 0.2,0.1 0.3,0 6.4,0 6.4,0 0.5,0 0.7,-0.6 0.7,-0.7 0.1,-0.3 0.5,-0.3 0.5,0 -0.1,1.2 -0.1,2.4 -0.1,3.5 0,0.1 -0.2,0.1 -0.3,-0.1 -0.5,-0.8 -1.1,-1.2 -2.1,-1.2 -1.8,0 -3.4,-0.1 -5.2,0.1 -0.1,0 -0.1,0.1 -0.1,0.3 0,2.2 -0.1,4 -0.1,6.3 0,0.8 0.2,1.5 0.8,2 1.2,0.8 2.9,0.6 4.3,0.5 1.1,0 2.4,0.1 3.1,-0.9 0.4,-0.6 0.2,-0.9 0.7,-1.5 0.1,-0.1 0.3,-0.1 0.3,0.1 -0.1,1.5 -0.1,1.9 -0.1,3.6 0,0.2 -0.2,0.2 -0.2,0.2 0,0 -12.4,0 -12.9,0 -0.2,0 -0.3,-0.4 0,-0.5 0.7,-0.2 1.5,-0.3 1.5,-1.7 v -6.5 c 0.1,-3.4 0.3,-7 -0.1,-10.5 -0.1,-0.6 -0.3,-1.2 -0.9,-1.4 -0.2,-0.1 -0.6,0 -0.6,-0.3 0,-0.3 0.1,-0.4 0.5,-0.4 3.7,0 7.4,0 11.1,0 0.5,0.1 0.8,0.2 0.8,0.6 z"
   id="path17" />
		<path
   d="m 246.3,219.6 c 0.1,0 0.2,0.1 0.2,0.2 v 3.5 c 0,0.7 -0.5,0.6 -0.7,0.1 -0.2,-0.6 -0.4,-1.1 -0.6,-1.3 -0.6,-0.7 -1.3,-1.1 -2.2,-1.2 h -4 c -0.5,0 -0.7,0.2 -0.7,0.7 -0.1,6.3 -0.3,15.8 0.1,17.1 0.4,1.3 1.1,1.4 1.6,1.6 0.3,0.1 0.4,0.5 -0.2,0.5 -1.5,0 -6,0 -6,0 -0.5,0 -0.4,-0.5 -0.1,-0.5 0.6,-0.2 1,-0.3 1.3,-0.8 0.3,-0.4 0.4,-0.8 0.4,-1.5 0,-1 0.1,-11.8 0,-15.4 0,-1.2 -0.2,-1.5 -0.4,-1.6 -0.7,-0.2 -4,-0.3 -5.5,0.2 -0.9,0.3 -1.4,1.2 -1.4,2.1 0,0.2 -0.1,0.3 -0.3,0.3 -0.1,0 -0.2,-0.1 -0.2,-0.3 v -3.5 c 0,-0.2 0.2,-0.3 0.6,-0.3 z"
   id="path18" />
		<path
   class="st1"
   d="m 122.7,139.5 c -0.9,-0.7 -1.8,-1.3 -2.8,-1.7 -1.1,-0.1 -2.2,0 -2.8,0.9 -0.6,0.7 -0.5,1.8 -0.2,2.6 0.2,0.5 -1.1,0.8 -1.3,1.2 -0.6,0.7 0,1.9 0.5,2.3 0.5,0.4 1,0.8 1.5,1.1 0.8,0.7 1.8,1 2.7,1.4 0.1,0 0.4,0.1 0.5,-0.1 0.3,-0.4 0,-0.3 -0.3,-0.7 -0.4,-0.7 0.4,-1.8 0.7,-2.4 0.5,-1.1 0.8,-2.1 1.9,-2.7 0.5,-0.2 1.2,0.2 1.4,-0.4 -0.3,-0.7 -1.2,-0.8 -1.8,-1.5 z m -4.1,5.6 c -0.5,0.3 -1,-0.5 -1.4,-0.8 0,-0.3 0,-0.7 0.2,-1 0.2,-0.2 0.7,-0.7 1,-0.6 0.2,0.3 0.7,0.6 1,0.8 0,0.5 -0.6,1.3 -0.8,1.6 z m 1.8,-3.5 c -0.1,0.2 -0.4,0.8 -0.6,0.9 -0.4,-0.1 -0.8,-0.5 -1.2,-0.9 -0.7,-0.8 0.1,-1.5 0.2,-1.9 0.6,-0.4 1.9,-0.4 2.5,0 0.3,0.7 -0.8,1.3 -0.9,1.9 z"
   id="path19" />
		<path
   class="st1"
   d="m 139,105.8 c -0.5,0.2 0,1 -0.9,1 -0.7,0.1 -1.6,-0.5 -2,-1.2 0.3,-0.4 1.2,-0.5 1.2,-1.6 0,-1 -0.3,-1.6 -1.5,-2 -0.8,-0.3 -1.8,-0.1 -2.7,-0.1 -0.3,0.1 -0.9,-0.1 -1.1,0.2 -0.1,0.3 0.3,0.3 0.5,0.5 0.2,1.2 0,3.3 -0.1,4.5 0,0.4 -0.8,0.5 -0.4,0.9 0.3,0.4 1.1,0.1 1.5,0.2 0.2,0 0.4,0.1 0.6,0 0.4,-0.3 0,-0.7 0.1,-1 0,-0.3 -0.4,-1.3 0.9,-0.5 0.7,0.5 1.3,1.2 2.1,1.4 0.5,0.1 1.5,0.3 1.8,-0.3 0.3,-0.5 0.6,-1 0.4,-1.6 -0.1,-0.2 -0.2,-0.5 -0.4,-0.4 z m -3.6,-1 c -0.2,0.4 -0.7,0.5 -1.1,0.4 -0.4,-0.2 0,-1.3 -0.2,-1.6 -0.1,-0.2 0,-0.6 0.1,-0.8 0.4,-0.2 1,-0.2 1.2,0.3 0.1,0.5 0.1,1.4 0,1.7 z"
   id="path20" />
		<path
   class="st1"
   d="m 135.2,72.9 c -0.3,-0.3 -1.9,0.2 -2.2,0.3 -0.8,0.6 -0.4,1.6 -0.2,2.3 l -0.1,2.3 c -0.1,0.8 -0.3,1.5 -0.6,2.2 0.4,0.4 0.9,0 1.4,-0.2 0.3,-0.2 0.7,-0.2 0.8,-0.6 0,-0.2 -0.3,-0.1 -0.4,-0.2 -0.1,-0.1 -0.2,-0.3 -0.2,-0.5 0,-0.5 0.4,-0.8 0.8,-1.1 0.4,-0.1 1.8,-0.9 2.2,-0.6 0.2,0.2 0.3,0.4 0.3,0.6 0.1,0.4 -0.9,0.9 -0.1,1.1 0.8,0.2 1.9,-0.8 2.6,-1.1 v -0.1 c -0.7,-0.6 -0.5,-0.1 -1.1,-0.9 0.2,0.1 -2.4,-3 -3.2,-3.5 z m 0.5,3.3 c -0.2,0.1 -1.6,0.8 -1.8,0.6 -0.2,-0.6 -0.4,-2 0,-2.6 0.7,-0.3 1.5,1 1.9,1.4 0,0.2 0,0.5 -0.1,0.6 z"
   id="path21" />
		<path
   class="st1"
   d="m 128.1,80.4 c -0.3,-0.1 -0.6,0 -0.8,0.3 -0.1,0.3 -0.1,0.6 -0.1,0.9 -0.1,0.3 -0.3,0.7 -0.7,0.8 -0.3,0 -1.1,0 -1.1,0 0.3,-0.8 0.3,-2 -0.4,-2.6 -0.5,-0.5 -0.9,-0.9 -1.6,-0.7 -0.8,0 -1.6,0.3 -2,1 -0.6,0.6 -1.5,1.1 -2.1,1.7 -0.1,0.2 0,0.4 0.2,0.5 0.6,-0.1 1.1,0.3 1.5,0.6 0.6,0.7 1.3,1.7 1.8,2.4 0.5,0.5 -0.2,1.1 0.4,1.6 0.1,0.1 0.4,0.1 0.5,0.1 l 1.8,-1.8 c 0.1,-0.3 -0.1,-0.7 -0.5,-0.6 -0.2,0 -0.5,-0.1 -0.6,-0.4 0.8,-0.5 2,-0.2 3,-0.6 0.6,-0.3 1.2,-0.8 1.3,-1.4 0.1,-0.7 0,-1.4 -0.6,-1.8 z m -4.5,2.6 c -0.6,0 -1.3,-1.5 -1.8,-1.7 0,-0.2 0.5,-0.7 0.7,-0.8 0.9,-0.6 1.6,0.6 1.7,1.3 0.1,0.4 -0.4,1 -0.6,1.2 z"
   id="path22" />
		<path
   class="st1"
   d="m 140.5,148.3 c -0.2,0.8 -0.5,1.5 -1.1,2.1 -0.6,0.7 -1.4,1 -2.2,1.3 -1.2,0.3 -1.6,-0.5 -2.5,0.5 -0.1,0.2 0,0.4 0.2,0.6 1,0.5 1.3,0.3 2.4,0.3 0.7,0.1 1.6,0.1 2.4,0.1 0.7,-0.3 1.5,-0.4 2.2,-0.7 0.7,-0.3 1.8,-1.2 2.6,-1.1 l 2.2,1.1 c 2.2,0.6 3.1,0.4 4.7,0.4 0.7,-0.1 1.1,-0.6 1.5,-1.2 0,-0.3 0.1,-0.6 -0.1,-0.8 -0.3,-0.3 -0.6,0 -1,-0.1 -1.2,-0.3 -2.5,-0.3 -3.3,-1.5 -0.2,-0.3 -0.5,-0.6 -0.7,-0.9 h -1.5 c 0.5,0.9 1.1,1.7 1.7,2.5 0.1,0.2 0.5,0.3 0.3,0.5 -0.4,0.1 -1.3,-0.6 -1.7,-0.8 -1,-0.5 -2,-2 -3.7,-1.1 -0.4,0.2 -0.6,0.3 -1,0.6 -0.2,0.1 -1.1,0.9 -1.3,0.8 l 0.8,-1.4 c 0.1,-0.4 0.2,-0.8 0.4,-1.2 z"
   id="path23" />
		<path
   class="st1"
   d="m 135.7,143.4 c 0.1,0 0.1,0 0,0 1.2,0.2 2.5,0.1 3.6,0.4 0.5,0.5 1.4,0.5 1.7,1.3 0.2,0.4 0.2,0.8 0.1,1.2 -0.2,0.7 -0.4,1.3 -0.6,2 h 1.5 c 0.2,-0.6 0.5,-1.2 0.5,-1.8 0.1,-0.6 0.3,-1.4 -0.1,-2.1 -0.2,-0.3 -0.5,-0.7 -0.8,-1 z m 10.6,0 c -0.4,0.8 -0.7,1.6 -0.7,2.2 0.1,1 0.4,1.8 0.9,2.6 h 1.5 c -0.7,-1 -1,-2.3 -0.6,-3.5 0.4,-0.7 1.2,-0.7 1.9,-0.7 0.9,-0.3 1.9,-0.5 2.9,-0.7 h -5.9 z"
   id="path24" />
		<path
   class="st1"
   d="m 116.2,133.6 c 0,0.1 0.1,0.1 0,0 1.2,1.6 2.9,2.4 4.2,3.7 2,1.3 4,2.3 6.1,3.4 1.2,0.6 2.5,1 3.8,1.3 1.7,0.8 3.7,0.8 5.5,1.4 h 5.9 c -0.8,-0.8 -1.9,-1.6 -2.3,-2 0,-0.2 0.2,-0.2 0.4,-0.3 0.9,0 3.2,1.4 3.9,0.7 0.2,-0.2 0.4,-0.7 0.7,-0.6 0.5,0.8 1.6,0.6 2.3,0.5 0.3,0 1,-0.4 1.4,-0.5 0.1,0.1 0.1,0.2 0.1,0.3 -0.7,0.4 -1.3,1.2 -1.8,2 h 5.9 c 1.6,-0.3 3.1,-0.7 4.5,-1.4 1.9,-0.5 3.7,-1.4 5.5,-2.2 1.6,-0.9 3.1,-1.8 4.6,-2.9 1.3,-0.9 2.4,-2.1 3.5,-3.2 h -2 c -1.5,1.5 -3.4,2.4 -5.1,3.5 -2.5,1.4 -5,2.7 -7.6,3.6 -1.5,0.8 -3.3,1 -4.9,1.6 -0.4,0.1 -0.9,0.1 -1.1,-0.3 -0.1,-0.2 -0.2,-0.4 0,-0.6 0.5,-0.4 1.3,-0.3 1.6,-1.1 0.1,-0.5 -0.4,-0.6 -0.8,-0.8 -0.7,-0.3 -1.5,0.2 -2.2,0.2 -0.9,0.3 -1.6,0.7 -2.6,0.4 -0.3,-0.2 -0.6,-0.4 -0.9,-0.7 v -0.1 c 0.8,0.1 1.5,-0.1 2.3,-0.1 1.4,0.1 2.7,-0.4 4.1,-0.4 2.3,-0.1 4.4,-0.7 6.4,-1.8 2,-0.9 4,-1.9 5.8,-3.3 0,0 0,0 0,0 h -2.6 c -1.4,0.8 -2.8,1.7 -4.3,2.4 l -3.1,1.1 -0.9,0.2 -7.6,0.8 c -0.9,0.2 -1.8,-0.1 -2.8,-0.1 -1.3,-0.2 -2.6,-0.3 -3.9,-0.6 -4.3,-0.6 -8.6,-1.5 -12.2,-3.8 h -2.6 c 1.7,1.2 3.4,2.4 5.4,2.9 2,0.8 4.2,1.2 6.3,1.7 2.7,0.6 5.7,0.7 8.6,1 l 0.1,0.1 c -0.9,0.3 -0.9,2 -2.1,1.4 -1.2,-0.4 -2.1,-0.9 -3.3,-1.4 -0.6,0 -1.6,-0.3 -1.9,0.3 -0.1,0.4 -0.3,0.8 -0.2,1.2 0.1,0.2 0.3,0.3 0.5,0.2 0.2,-0.3 0.7,-0.1 1,0 0.1,0.1 0.1,0.3 0.1,0.4 -0.9,0.6 -2.1,0.1 -3.2,0.1 -1.4,-0.4 -2.9,-0.6 -4.2,-1.2 -0.9,-0.3 -1.7,-0.7 -2.6,-0.9 -1.9,-1 -3.9,-1.9 -5.7,-3.1 -1.2,-0.7 -2.5,-1.6 -3.6,-2.6 z"
   id="path25" />
		<path
   class="st1"
   d="m 105.7,114.1 c 0.5,1.7 1.1,3.4 1.7,5.1 0.8,1.3 1.1,2.9 1.9,4.2 2.2,3.5 4.3,6.9 6.9,10.2 h 2.6 c -1.3,-1.1 -2.4,-2.4 -3.3,-3.8 -2.3,-2.8 -4,-5.8 -5.4,-8.9 -0.4,-1.1 -1.1,-2.1 -1.4,-3.2 -0.5,-1.2 -0.9,-2.4 -1.3,-3.6 z m 4.9,0 0.6,2.1 c 0.5,1.6 1.3,3 1.7,4.6 0.8,2.4 2.7,4.4 4.2,6.5 1.2,1.8 2.9,3.2 4.5,4.8 0.7,0.5 1.4,1.1 2.1,1.6 h 2.6 c -0.5,-0.3 -1,-0.6 -1.5,-1 -2,-1.4 -4.1,-3.1 -5.6,-5 -1.2,-1.3 -2.2,-2.7 -3.2,-4.1 -1,-1.1 -1.4,-2.4 -2.1,-3.6 -0.7,-1.9 -1.3,-3.8 -1.5,-5.8 z m 8.8,0 c 0.6,1.1 1.2,2.1 1.8,3.2 1,1.8 2.7,3.3 4,5 1,1 2.1,1.9 3.1,2.8 3,2.4 6.5,3.5 10,4.7 1.9,0.6 3.9,0.8 6,0.9 1.9,0 3.7,-0.3 5.5,-0.6 0.7,0.1 1.3,-0.3 1.9,-0.5 1.5,-0.1 2.7,-1.1 4.1,-1.5 1.6,-0.7 3,-1.7 4.6,-2.4 1.8,-1.3 3.2,-3.3 4.8,-4.9 0.7,-1.4 2.1,-2.5 2.7,-4 0.4,-0.9 1,-1.8 1.4,-2.7 h -1.6 c -0.4,0.8 -1,1.5 -1.5,2.2 -0.7,0.1 -1.1,-0.6 -1.6,-1 -0.4,-0.4 -0.7,-0.8 -1.1,-1.3 h -2.1 c 0.8,0.8 1.6,1.6 2.5,2.4 0.5,0.7 1.3,1.5 0.7,2.4 -0.7,1.5 -2.2,2.5 -3.3,3.6 -0.2,0.2 -0.5,0.3 -0.8,0.2 -1,-1.7 -1.8,-3.5 -2.7,-5.3 -0.5,-0.7 -0.7,-1.6 -1.1,-2.4 -0.2,-0.3 -0.4,-0.6 -0.6,-1 h -1.6 c 0.2,0.5 0.5,1 0.7,1.4 0.8,1.3 1.2,2.7 1.9,4.1 0.8,1.3 1.5,2.6 2.4,3.8 0.1,0.2 0.1,0.3 0,0.5 -0.9,0.9 -2.1,1.3 -3.2,1.8 -0.9,0.3 -1.8,0.7 -2.8,0.6 -0.3,-0.1 -0.5,-0.3 -0.5,-0.6 -0.6,-3.1 -0.6,-6.4 -1.2,-9.5 -0.1,-0.7 -0.1,-1.5 -0.2,-2.2 h -3.7 l 0.4,0.3 c 0.8,0.7 1.9,1.3 1.9,2.5 0.4,1.3 0.6,3.2 -0.3,4.4 -0.5,1.4 -1.6,3 -3,3.6 -1.3,0.8 -4.1,0.9 -5.4,0 -2,-1.2 -2.9,-5.7 -2,-7.6 0.4,-1 1.6,-2.3 2.8,-3 h -3.4 c -1.8,1.7 -2.7,3.8 -2.8,6.2 l -0.3,2.3 c -0.7,0.8 -0.8,1.9 -1.6,2.7 -1.1,0.2 -1.9,-0.6 -2.7,-1.2 -0.6,-0.5 -0.5,-1.5 -0.2,-2.1 0.6,-1.5 1.8,-2.8 2.4,-4.4 0.7,-1.1 1.1,-2.4 1.8,-3.5 h -1.4 c -0.6,1.3 -1.2,2.7 -2,4 -0.6,0.8 -0.8,1.7 -1.3,2.5 -0.5,0.5 -0.5,1.5 -1.4,1.6 -1.4,-0.4 -2.6,-1.6 -3.5,-2.7 -0.3,-1.3 0.6,-2.2 1.2,-3.2 0.6,-0.7 1.1,-1.4 1.6,-2.1 h -1.8 c -0.4,0.4 -0.8,0.9 -1.3,1.3 -0.6,0.3 -0.9,1.1 -1.6,0.8 -0.6,-0.6 -1,-1.3 -1.4,-2.1 z m 56.9,0 c 0,0.2 -0.1,0.3 -0.1,0.5 -0.4,1.2 -0.8,2.4 -1.3,3.5 -0.6,1.2 -0.9,2.5 -1.8,3.6 -1,1.4 -1.8,2.9 -3,4.1 l -1.5,1.7 c -1.4,0.9 -2.5,2.4 -3.9,3.4 -0.8,0.6 -1.5,1.3 -2.4,1.8 -0.5,0.3 -1,0.6 -1.5,0.9 h 2.6 c 1.1,-0.7 2,-1.6 3.1,-2.3 2.1,-2.5 5,-4.5 6.7,-7.3 1.8,-2.3 3,-4.9 4,-7.5 0.4,-0.8 0.7,-1.6 1,-2.4 z m 4.4,0 c -0.2,0.4 -0.3,0.9 -0.5,1.3 -0.9,2.4 -1.9,4.8 -3.3,7 -1.2,2.4 -2.9,4.7 -4.4,6.9 -1.1,1.4 -2.5,2.4 -3.7,3.6 -0.2,0.2 -0.4,0.4 -0.6,0.6 h 2 c 0.8,-0.8 1.5,-1.6 2.3,-2.3 0.7,-1 1.5,-1.9 2.3,-2.9 1.2,-1.7 2.5,-3.4 3.3,-5.2 0.6,-1.1 1.2,-2.1 1.7,-3.2 1.1,-1.8 1.7,-3.9 2.2,-5.9 z m -43.3,10 c 0.6,1.4 2.1,1.8 3.3,2.4 1,0.2 1.9,0.7 3,0.8 0.3,0.1 0.2,0.4 0.2,0.6 -0.3,0.8 -1.4,0.3 -2.1,0.4 -1.2,-0.4 -2.5,-0.5 -3.6,-1 -1,-0.2 -2,-0.5 -2.8,-1.2 -0.2,-0.1 -0.1,-0.3 0,-0.5 0.2,-0.7 0.5,-1.4 0.9,-2 0.1,-0.2 0.3,-0.5 0.3,-0.5 z m 13.9,-1.3 c 0.1,1.4 0.4,2.7 0.5,4.1 0,0.3 -0.3,0.6 -0.6,0.7 -0.8,0.4 -1.6,0.5 -2.5,0.6 -0.9,0 -1.9,0.4 -2.7,0 -0.3,-0.4 -0.2,-0.9 0.1,-1.2 0.9,-0.8 2.2,-0.8 3.1,-1.8 0.9,-0.7 1.2,-1.7 1.8,-2.5 0,-0.3 0.3,-0.1 0.3,0.1 z"
   id="path26" />
		<path
   class="st1"
   d="m 104.7,109.2 c 0.2,1.7 0.6,3.3 1,4.9 h 1.7 c -0.5,-1.6 -0.9,-3.3 -1.3,-4.9 z m 4.8,0 c 0,0.2 0.1,0.4 0,0.6 -0.2,0.6 0.7,2.3 0.8,2.9 l 0.4,1.3 h 1.7 c 0,-0.2 0,-0.3 -0.1,-0.4 -0.2,-0.9 -0.5,-1.8 -0.6,-2.7 0.2,-0.9 1.2,-0.4 1.8,-0.5 0.6,0 1.1,-0.3 1.7,-0.3 1,0.1 2.5,-0.4 2.9,0.8 0.3,1.1 0.8,2.1 1.3,3.1 h 3 c -0.3,-0.7 -0.5,-1.4 -0.6,-2 0.1,-0.4 0.1,-1 0.6,-1.1 1.1,-0.5 2.8,0.2 4,0 l 1,0.1 c 0.4,0.1 0.8,0.1 1.1,0.4 0,0.6 -0.6,1 -0.8,1.5 -0.4,0.4 -0.7,0.8 -1.1,1.2 h 1.8 c 0.6,-0.7 1.1,-1.5 1.8,-2.2 1.2,-1.1 3,-1.4 4.6,-0.9 0.2,0.1 0.2,0.3 0.2,0.5 -0.1,0.6 -0.6,1.1 -0.8,1.8 -0.1,0.3 -0.2,0.5 -0.4,0.8 h 1.4 c 0.1,-0.1 0.2,-0.3 0.3,-0.4 0.6,-1 1,-2.1 2.1,-2.8 1.1,-0.5 2.5,-0.2 3.3,0.8 0.3,0.2 0.5,-0.2 0.8,-0.3 0.6,-0.2 1.1,-0.3 1.7,0 0.2,0.3 0.5,0.5 0.9,0.4 0.7,0 1.1,-0.5 1.8,-0.7 0.9,-0.1 2.1,-0.3 2.9,0.2 0.4,0.5 0.4,1.2 0.6,1.9 0,0.2 0,0.4 -0.1,0.6 -0.5,0.2 -0.4,-0.3 -1.2,-0.6 0,0 -1.3,-0.6 -1.8,-0.8 -0.9,-0.4 -2.1,-0.1 -3.1,-0.1 -1.4,0.4 -3,0.5 -4.2,1.4 -0.1,0.1 -0.2,0.2 -0.4,0.3 h 3.4 c 0.6,-0.4 1.2,-0.6 1.8,-0.6 1.3,-0.1 2.5,0.1 3.6,0.5 l 0.2,0.1 h 3.7 c 0,-0.4 -0.1,-0.7 -0.1,-1.1 -0.1,-0.4 -0.1,-1 0.1,-1.4 0.5,-0.5 1.3,-0.3 1.7,0.2 0.5,0.7 0.9,1.5 1.3,2.3 h 1.6 c -0.4,-0.6 -0.7,-1.1 -0.8,-1.9 0,-0.3 0.3,-0.5 0.5,-0.6 0.9,-0.1 1.9,-0.1 2.9,0 l 0.7,0.3 c 0.7,0.7 1.4,1.4 2.1,2.1 h 2.1 c -0.5,-0.6 -1.1,-1.2 -1.7,-1.7 -0.3,-0.3 -0.7,-0.7 -0.7,-1.1 l 0.3,-0.2 c 1.9,-0.1 3.9,-0.6 5.8,-0.1 l 0.7,0.3 0.2,0.3 c 0.2,1 0,1.8 -0.4,2.6 h 1.6 c 0.2,-0.4 0.4,-0.8 0.5,-1.2 0.4,-0.9 0.6,-1.8 1.2,-2.6 1.2,-0.4 2.6,-0.3 3.9,-0.4 h 2.3 c 0.3,0.3 0.1,0.8 0,1.2 -0.2,1 -0.5,1.9 -0.8,2.9 h 1.9 c 0.4,-1.2 0.6,-2.4 1.1,-3.6 0.2,-0.1 0.4,-0.7 0.4,-1.3 h -70.4 z m 72.4,0 c 0,0.1 0,0.1 0,0.2 -0.2,1.7 -0.6,3.2 -1.1,4.7 h 1.5 c 0.1,-0.3 0.1,-0.5 0.2,-0.8 0.3,-1.3 0.5,-2.7 0.7,-4.1 z"
   id="path27" />
		<path
   class="st1"
   d="m 104,104.4 c 0.1,1.6 0,3.2 0.6,4.5 0,0.1 0,0.2 0,0.3 h 1.5 c -0.1,-0.2 -0.1,-0.4 -0.2,-0.7 -0.1,-0.4 -0.3,-0.9 0.1,-1.3 0.5,-0.3 1,0.9 1.5,0.4 0.3,-0.5 1.2,-1.1 1.4,-0.5 0.2,0.7 0.4,1.5 0.5,2 h 70.2 c 0.1,-0.5 0.1,-0.9 0.1,-1.1 0,-0.2 0,-0.5 0.2,-0.6 0.3,-0.2 0.7,0.3 1.1,0.3 0.4,0.1 0.8,-0.2 1.1,-0.1 0.2,0.3 -0.2,1.1 -0.3,1.5 h 1.3 c 0.1,-0.7 0.2,-1.4 0.4,-2.1 0.3,-0.9 0.3,-1.8 0.3,-2.8 H 182 c 0.1,0 0.1,0.1 0.2,0.1 l 0.1,0.5 c 0.1,0.3 0,0.7 -0.2,0.9 -0.3,0.3 -0.7,0.5 -1.1,0.4 -0.4,0 -0.8,-0.5 -1,-0.8 -0.1,-0.2 0.2,-1 0.3,-1.2 0,0 0,0 0,0 H 178 c 0.1,1.1 0.4,2.2 0.3,3.3 -0.1,0.3 -0.5,0.4 -0.8,0.5 -0.6,0.2 -1.3,-0.1 -1.9,0 -2,0.1 -4,0.4 -6,0.2 -0.9,0.1 -2,0 -2.9,0.2 -0.9,0.3 -2,0.1 -3,0.3 -0.9,-0.1 -1.8,0.1 -2.7,0 -1.4,-0.2 -3.1,-0.1 -4.5,0 -2.4,-0.2 -4.9,0 -7.4,-0.1 -1.4,-0.2 -2.9,0.1 -4.4,0 -2.2,-0.2 -4.5,0.1 -6.7,0 -3.6,-0.1 -7.3,0 -11,-0.1 -1.6,0 -2.9,-0.5 -4.5,-0.3 -2.5,-0.2 -5.1,-0.1 -7.4,-0.7 -1,0.1 -2,0 -3,0.1 -0.3,0 -0.3,-0.3 -0.4,-0.5 -0.2,-1 -0.6,-2 -0.8,-3 h -2.5 c 0.1,0.2 0.1,0.4 0.1,0.5 l -0.6,0.8 c -0.3,0.3 -0.9,0.2 -1.3,0.2 -0.3,0 -0.4,-0.3 -0.6,-0.5 -0.1,-0.1 -0.2,-0.5 -0.2,-0.9 H 104 Z"
   id="path28" />
		<path
   class="st1"
   d="m 104.2,99.5 c -0.2,1 -0.2,2.1 -0.3,3.2 0.1,0.5 0.1,1.1 0.1,1.7 h 1.8 c 0,-0.2 0,-0.4 0,-0.5 0.1,-0.1 0.3,-0.6 0.5,-0.6 0.4,-0.1 1.1,0 1.4,0.1 0.3,0.1 0.6,0.6 0.8,1 h 2.5 c -0.1,-0.7 -0.2,-1.5 0.1,-2.3 0.1,-0.3 0.4,-0.6 0.8,-0.7 2.5,0 5,-0.1 7.5,0 0.5,-0.2 1.1,0.1 1.6,-0.1 1.8,-0.3 3.6,0.1 5.5,0.1 1.7,-0.3 3.2,0.5 5,0.4 1.5,-0.5 3.4,-0.2 5,-0.2 0.9,0 1.9,-0.3 2.7,0 1,0.1 2,0.1 2.9,-0.1 1.8,0.1 3.7,-0.1 5.5,-0.2 0.5,-0.1 1,0.1 1.5,0 1.5,-0.1 2.8,0 4.3,-0.2 2.4,0.2 4.9,0 7.2,0.2 0.7,-0.2 1.5,0 2.3,0 3.4,-0.3 7.1,-0.3 10.5,-0.3 1.1,-0.2 2.3,-0.1 3.4,-0.2 0.3,0 0.6,0.1 0.9,0.3 0.4,0.7 0.4,1.7 0.5,2.6 0,0.2 0,0.4 0,0.6 h 2.3 c 0.5,-0.4 1.2,-0.3 1.7,0 h 1.8 c 0,-0.3 0,-0.6 0.1,-0.9 -0.1,-1.3 -0.1,-2.7 -0.3,-4 h -1.4 c 0.2,1.7 0.4,3.6 0.4,3.6 0,0 -0.6,-0.4 -0.9,-0.4 -0.4,0 -1.3,0.6 -1.4,0.5 0,-0.9 0,-1.9 -0.2,-2.9 -0.1,-0.2 -0.2,-0.5 -0.2,-0.8 h -3.7 c -0.1,0 -0.2,0.1 -0.3,0.1 -0.9,0.1 -1.8,0.1 -2.6,0.2 -0.9,-0.2 -1.8,0.1 -2.7,0 l -0.1,-0.1 c 0,-0.1 0,-0.1 0,-0.2 h -1.3 c 0,0.1 0,0.2 0,0.2 -0.3,0.4 -0.8,0.3 -1.2,0.3 -0.3,0 -0.5,-0.2 -0.8,-0.3 l -1.2,-0.1 c -0.1,0 -0.2,-0.1 -0.3,-0.1 h -1.8 c 0.2,0.1 0.5,0.3 0.7,0.5 0.1,0.2 -0.2,0.2 -0.3,0.3 -0.9,-0.1 -1.8,-0.1 -2.7,-0.2 -0.5,-0.2 -1,-0.5 -1.6,-0.5 -0.1,0 -0.2,-0.1 -0.2,-0.1 h -1.6 c 0.2,0.2 0.5,0.3 0.7,0.4 -0.1,0.1 -0.3,0.1 -0.5,0.1 -0.7,-0.1 -1.5,0 -2.2,-0.2 -0.2,-0.1 -0.5,-0.2 -0.7,-0.3 h -2.8 c 0,0.1 0,0.1 0,0.1 -0.3,0.2 -0.6,0.3 -1,0.3 -0.3,0 -0.7,0 -0.9,-0.2 -0.1,-0.1 -0.1,-0.2 -0.2,-0.2 H 149 c -0.1,0.2 -0.2,0.4 -0.5,0.4 -0.3,-0.1 -0.7,-0.1 -1,-0.4 h -1.3 c 0,0.1 0,0.2 0,0.3 -0.1,0.3 -0.4,0.2 -0.6,0.3 -0.3,0 -0.5,-0.3 -0.6,-0.6 h -1.1 c 0,0.4 -0.1,0.7 -0.4,0.9 -0.3,0 -0.7,0.1 -0.8,-0.2 -0.2,-0.2 -0.2,-0.4 -0.2,-0.6 h -1.1 c -0.1,0.4 -0.3,0.7 -0.7,0.9 -0.5,0.1 -1,0 -1.5,-0.2 -0.1,-0.1 -0.1,-0.3 0,-0.4 0.1,-0.1 0.1,-0.2 0.2,-0.3 H 138 c -0.1,0.1 -0.1,0.2 -0.2,0.3 -0.4,0.6 -1.2,0.2 -1.7,0.3 -0.2,0 -0.1,-0.3 -0.1,-0.4 0,-0.1 0.1,-0.2 0.1,-0.2 h -1.4 c -0.1,0.1 -0.2,0.3 -0.4,0.4 -0.9,0.5 -2.1,0.4 -3.1,0.3 -0.2,-0.1 -0.3,-0.3 -0.1,-0.5 0.1,-0.1 0.2,-0.1 0.3,-0.2 h -3.2 c -1,0.3 -2.2,0.3 -3.2,0 h -7.4 c -0.2,0.1 -0.6,0 -0.8,0.1 -0.9,0.2 -1.9,0.1 -2.8,0 -0.4,0 -0.8,0 -1.2,-0.1 h -3.4 c -0.2,0.9 -0.3,1.7 -0.5,2.5 -0.3,0.2 -0.6,-0.2 -0.9,-0.3 -0.3,-0.3 -0.6,-0.7 -1.1,-0.5 -0.3,0.1 -0.6,0.1 -0.8,0.4 -0.1,0 -0.2,0 -0.3,-0.2 0,-0.7 0.1,-1.4 0.2,-2 h -1.8 z"
   id="path29" />
		<path
   class="st1"
   d="m 105.1,94.6 c -0.1,0.6 -0.2,1.2 -0.2,1.8 -0.5,0.7 -0.4,1.6 -0.5,2.4 -0.1,0.2 -0.1,0.4 -0.2,0.6 h 1.7 c 0.2,-1.3 0.5,-2.6 0.7,-3.8 0.1,-0.3 0.2,-0.7 0.3,-1 z m 5.1,0 c -0.2,1 -0.4,2.1 -0.5,3.1 -0.1,0.6 -0.2,1.2 -0.3,1.8 h 3.4 c -0.4,-0.1 -0.9,-0.1 -1.3,-0.3 -0.3,-0.3 -0.5,-0.7 -0.4,-1.1 0,-1.3 0.2,-2.4 0.6,-3.5 z m 9,0 c -0.6,1.5 -0.9,3.2 -1.5,4.7 0,0.1 -0.1,0.1 -0.2,0.2 h 7.4 c 0,0 -0.1,0 -0.1,0 -0.2,-0.1 -0.1,-0.3 0,-0.5 1.6,-1.3 3.6,-1.7 5.4,-2.6 1.1,-0.3 2,-1.1 3.1,-1.4 0.3,-0.1 0.6,-0.2 0.9,-0.4 H 132 c -0.4,0.2 -0.9,0.4 -1.3,0.5 -1.6,0.6 -3.3,1.3 -4.8,2.1 -1.3,0.5 -2.4,1.5 -3.9,1.3 -0.2,-0.1 -0.3,-0.3 -0.2,-0.5 1.3,-1.1 3,-1.4 4.5,-2.1 0.5,-0.2 1.7,-0.7 3.1,-1.3 h -3.2 c -1.3,0.4 -2.5,1 -4,1.1 -0.2,-0.1 -0.5,-0.2 -0.5,-0.5 0,-0.2 0,-0.4 0.1,-0.6 z m 17.1,0 c -0.3,0.2 -0.6,0.4 -1,0.6 -2,1.6 -4.3,2.6 -6.5,4 -0.2,0.1 -0.4,0.2 -0.7,0.3 h 3.2 c 1.8,-1.2 3.4,-2.9 5.2,-4.2 0.3,-0.4 0.7,-0.5 0.9,-0.7 z m 2.4,0 c 0,0 0,0 0,0 -0.5,0.6 -0.9,1.2 -1.2,1.8 -0.8,1.1 -1.8,2.1 -2.7,3.1 h 1.4 c 0.4,-0.7 1.1,-1.2 1.6,-1.8 0.4,-0.6 0.9,-1.1 1.3,-1.8 0.3,-0.2 0.4,-0.5 0.4,-0.8 0,-0.2 -0.1,-0.2 -0.2,-0.3 -0.1,0 -0.2,-0.1 -0.3,-0.1 h -0.3 z m 2.2,0 c 0.6,0.3 1.1,0.5 1.8,0.6 0.6,0 1.2,0.1 1.8,-0.1 0.3,0.2 0.8,-0.1 1,0.3 0.1,0.6 0.4,1.1 0.6,1.6 -0.2,0.9 0.3,1.6 0.2,2.4 h 1.3 c 0,0 -0.1,-0.1 -0.1,-0.1 -0.3,-1 -0.6,-2.1 -0.7,-3.2 -0.1,-0.3 -0.4,-0.7 -0.4,-1.1 0.3,-0.2 0.5,0.1 0.6,0.3 0.6,1.3 2,2.4 1.9,4 0,0 0,0.1 0,0.1 h 1.6 c -1.1,-1.5 -1.9,-3.1 -2.9,-4.6 -0.1,-0.1 0,-0.2 0.1,-0.3 h -6.8 z m 7.4,0 c 0.2,0.1 0.2,0.5 0.6,0.6 0.7,0.6 1.5,1.4 2.2,2.1 0.6,0.6 1.1,1.3 1.7,1.9 0,0.1 0.1,0.2 0.1,0.2 h 2.8 c -0.7,-0.4 -1.4,-0.8 -2.1,-1.3 -1.4,-1.1 -2.5,-2.6 -3.9,-3.6 z m 2.5,0 c 1.2,0.5 2,1.5 3.2,2.1 1.1,0.8 2.4,1.1 3.3,2.1 0.3,0.2 0.6,0.5 0.9,0.7 h 1.6 c -1.4,-0.7 -2.6,-1.7 -3.9,-2.7 -1.3,-0.2 -2.2,-1.3 -3.3,-2 -0.1,0 -0.1,-0.1 -0.2,-0.1 z m 3.5,0 c 0.2,0.1 0.4,0.2 0.5,0.2 1,0.3 1.9,0.6 2.8,1.2 0.6,0.2 1.1,0.8 1.7,1.1 1.1,0.7 2.5,0.5 3.5,1.6 0.3,0.4 0.7,0.6 1.1,0.8 h 1.8 c -0.5,-0.3 -0.8,-0.8 -1.3,-1 -0.4,-0.1 -0.8,-0.4 -1.1,-0.7 -0.8,-0.1 -1.3,-0.7 -2,-0.9 -0.7,-0.4 -1.4,-0.7 -2.1,-1 -0.6,-0.6 -1.4,-0.8 -2,-1.2 z m 4.3,0 c 0.1,0 0.2,0.1 0.3,0.1 l 0.6,0.1 c 0.4,0.5 1.2,0.3 1.7,0.6 0.9,0.3 1.9,0.4 2.7,1 1.2,0.2 2.3,0.7 3.4,1 0.6,0.5 1.4,0.9 1.9,1.4 0.1,0.2 0.1,0.5 0.1,0.7 h 1.3 c -0.1,-1.2 -0.2,-2.4 -0.9,-3.3 -0.2,-0.5 -0.4,-1 -0.6,-1.5 H 167 c 0.5,0.4 0.5,0.9 0.6,1.5 -0.1,0.2 -0.3,0.3 -0.5,0.3 -1.8,-0.3 -3.3,-1.3 -5.1,-1.8 h -3.4 z m 17.8,0 c 0.1,0.2 0.2,0.4 0.3,0.6 0.2,1.2 1,2.2 1,3.4 -0.1,0.7 -0.9,0.6 -1.5,0.8 h 3.7 c 0,-0.4 -0.1,-0.9 -0.2,-1.2 -0.3,-1.2 -0.6,-2.5 -1,-3.7 h -2.3 z m 4.9,0 c 0.3,1.1 0.5,2.1 0.6,3.2 0.1,0.4 0.2,1 0.3,1.7 h 1.4 c -0.1,-1.3 -0.4,-2.7 -0.7,-3.9 -0.1,-0.3 -0.1,-0.6 -0.2,-0.9 z m -41.8,4.9 c 0.7,-1 1.5,-1.9 2,-2.9 0.3,-0.5 -0.2,-0.7 -0.3,-1.1 -0.2,-0.1 -0.3,-0.2 -0.5,-0.2 -0.4,0.5 -0.6,1.1 -0.8,1.7 -0.4,0.9 -1.1,1.7 -1.7,2.6 z m 3.2,0 c 0,-0.2 0.1,-0.5 0.2,-0.7 0.3,-0.7 0.3,-1.5 0.5,-2.3 0,-0.2 -0.2,-0.4 -0.4,-0.5 -0.3,0 -0.7,0 -0.8,0.3 -0.4,0.5 -0.1,1.2 -0.2,1.7 -0.2,0.4 -0.2,1 -0.4,1.5 z m 2.4,0 c 0,0 0,-0.1 -0.1,-0.1 -0.2,-0.9 0.1,-1.8 0.2,-2.6 0,-0.3 -0.2,-0.7 -0.6,-0.8 -0.3,0 -0.5,0 -0.6,0.3 -0.1,0.5 -0.3,1.1 0.1,1.5 0.1,0.4 -0.1,0.8 -0.1,1.1 0,0.2 0.1,0.3 0.1,0.5 z"
   id="path30" />
		<path
   class="st1"
   d="m 105.9,91.6 c 0,0 0,0.1 0,0.1 -0.2,1 -0.5,1.9 -0.8,2.9 h 1.7 c 0.1,-0.6 0.3,-1.3 0.4,-1.9 l 0.4,-1.1 z m 5,0 c -0.1,0.4 -0.2,0.7 -0.3,1.1 -0.1,0.7 -0.2,1.3 -0.4,2 h 1.5 c 0.3,-1 0.7,-2 0.9,-3.1 z m 9.9,0 c -0.4,0.7 -0.7,1.4 -1.2,2 -0.2,0.3 -0.3,0.7 -0.4,1 h 2.6 c 0.1,-0.1 0.2,-0.3 0.3,-0.4 0.6,-0.2 1.1,-0.6 1.8,-0.8 1.9,-0.1 6,-1.3 8.2,-1.9 h -5 c -1,0.2 -2.1,0.3 -3.2,0.4 -0.3,-0.1 -0.6,-0.1 -0.9,-0.2 0,-0.1 0,-0.2 0.1,-0.2 z m 14.5,0 c -0.4,0.1 -0.8,0.2 -0.9,0.2 -1.2,0.2 -6.9,2.3 -8,2.8 0,0 -0.1,0 -0.1,0 h 3.2 c 2.1,-0.9 4.7,-1.9 5.4,-2.2 0.2,-0.2 1.4,-0.6 1.8,-0.9 z m 2.7,0 c 0.2,0.9 0.7,1.7 1.6,2.3 0.5,0.2 0.9,0.5 1.4,0.8 h 7 c 0,0 0.1,0 0.1,0 0.1,0 0.2,0 0.2,0 h 1.3 c 0,0 -0.1,-0.1 -0.1,-0.1 -0.2,-0.1 -0.4,-0.4 -0.4,-0.6 0,-0.1 0.1,-0.2 0.3,-0.3 0.5,0 0.7,0.6 1.2,0.8 0.1,0 0.2,0.1 0.3,0.1 h 1.7 c -0.8,-0.5 -1.6,-1.2 -2.5,-1.5 -0.2,-0.1 -0.4,-0.3 -0.2,-0.6 0.1,-0.3 0.3,-0.7 0.5,-1 h -1 c -0.2,0.6 -0.6,1.1 -1.1,1.5 -0.6,0.5 -1.4,0.5 -2.2,0.7 -1.8,0.4 -3.4,-0.1 -4.8,-1.2 -0.5,-0.2 -0.8,-0.6 -1.1,-1 z m 16.2,0 c 0.3,0.1 0.6,0.2 0.9,0.3 1.7,0.5 3.5,0.5 5.2,1.1 1.3,0.2 2.5,0.7 3.7,0.9 1,0.3 2,0.5 3,0.7 0,0 0.1,0.1 0.1,0.1 h 2.1 c -0.2,-0.5 -0.4,-1.1 -0.8,-1.6 -0.1,-0.5 -0.4,-1 -0.7,-1.5 h -1.6 c 0.3,0.5 0.6,1 0.7,1.6 -0.1,0.2 -0.2,0.3 -0.4,0.3 -0.8,-0.1 -1.6,-0.5 -2.4,-0.7 -1.2,-0.2 -2.3,-0.7 -3.5,-0.7 -0.7,-0.1 -1.3,-0.3 -1.9,-0.5 z m 21,0 c 0.4,1 0.7,2.1 1.1,3 h 2.3 c -0.3,-1 -0.7,-2.1 -1.2,-3 z m 5.2,0 c 0.3,1 0.6,2 0.9,3.1 h 1.4 c -0.3,-1 -0.7,-2 -1.1,-3 h -1.2 z m -46.2,3 c 0.7,-0.4 1.4,-1 2.1,-1.3 0.4,-0.2 0,-0.8 -0.3,-0.7 -1.4,0.5 -2.6,1.4 -4,2 z m 3.3,0 c 0.1,-0.1 0.2,-0.2 0.1,-0.4 -0.2,-0.2 -0.5,-0.3 -0.6,-0.1 -0.2,0.2 -0.4,0.4 -0.7,0.5 z m 1.5,0 c -0.1,0 -0.2,-0.1 -0.3,0 z m 18.1,0 c -0.1,0 -0.1,-0.1 -0.2,-0.1 -0.9,-0.2 -1.8,-0.5 -2.6,-1 -0.8,-0.1 -1.4,-0.4 -2.1,-0.6 -0.2,0 -0.6,-0.1 -0.6,0.2 0.1,0.8 0.9,0.6 1.4,0.9 0.4,0 0.8,0.3 1.2,0.5 z m 5,0 c 0,0 -0.1,0 0,0 -1.5,-0.5 -2.9,-0.9 -4.3,-1.3 -1.2,-0.3 -2.5,-0.4 -3.5,-1 -0.3,-0.1 -0.7,-0.1 -0.9,0.1 -0.1,0.1 -0.2,0.3 -0.1,0.4 0.6,0.6 1.6,0.4 2.3,0.8 1,0.4 2.1,0.7 3.1,1 z"
   id="path31" />
		<path
   class="st1"
   d="m 107.1,88.5 c -0.5,1 -0.9,2 -1.2,3.1 h 1.7 l 0.6,-1.6 c 0.3,-0.5 0.5,-1 0.8,-1.5 z m 4.8,0 c -0.4,1 -0.7,2 -1,3.1 h 1.6 c 0,0 0,0 0,0 0.2,-1.1 0.6,-2.1 1.1,-3 z m 11.2,0 c -0.2,0.2 -0.4,0.5 -0.6,0.7 -0.5,0.5 -1.1,1.1 -1.3,1.8 -0.2,0.2 -0.3,0.4 -0.4,0.6 h 2.3 c 0.2,-0.4 0.5,-0.6 0.9,-1 0.4,-0.5 10.3,-0.4 10.5,-1.3 0.3,-0.5 -9.6,0.2 -8.7,-0.7 0,0 0,0 0,0 z m 14.7,0 c 0,0.1 0,0.3 0,0.4 -0.1,0.9 -0.1,1.8 0.2,2.6 h 2.1 c -0.3,-0.5 -0.4,-1.1 -0.6,-1.6 0,-0.5 0,-1 0.2,-1.5 z m 3.3,0 c -0.1,0.1 -0.2,0.2 -0.2,0.4 -0.2,0.3 -0.2,0.9 -0.7,0.8 -0.4,-0.4 -0.1,-0.8 0.1,-1.2 z m 1.5,0 c -0.1,0.1 -0.3,0.1 -0.5,0.1 0,0 0,0 -0.1,-0.1 z m 2.6,0 c -0.1,0.4 -0.3,0.7 -0.4,1.1 -0.1,0.1 -0.3,0.1 -0.4,0.1 -0.2,-0.4 -0.2,-0.8 -0.3,-1.2 z m 2.5,0 c 0,0 0,0 0,0 0,0.4 -0.2,0.7 -0.5,0.9 -0.4,-0.1 -0.1,-0.7 -0.6,-0.8 -0.4,-0.2 -0.4,0.6 -0.8,0.1 -0.1,-0.1 -0.1,-0.1 -0.1,-0.2 z m 0.9,0 c 0.1,0.3 0.1,0.6 0.3,0.8 0.2,0.1 0.7,0 0.7,0.4 0,0.7 -0.1,1.3 -0.3,1.9 h 1 c 0.1,-0.2 0.2,-0.5 0.2,-0.7 0.3,-0.4 0.7,0 0.9,0.1 0.9,0.3 1.9,0.4 2.8,0.6 h 4.4 c -0.4,-0.1 -0.9,-0.2 -1.4,-0.3 -0.9,-0.3 -1.8,-0.5 -2.8,-0.5 -1.3,-0.3 -2.9,-0.3 -3.8,-1.5 -0.1,-0.3 0.1,-0.6 0.4,-0.6 1.2,0 2.4,-0.1 3.6,-0.2 z m 9.1,0 c 0.4,0 0.9,0 1.3,0.1 l 1.4,-0.1 c 0.2,0 0.3,0 0.5,0 z m 5.2,0 c 0.4,0 0.8,0.1 1.2,0.2 0.1,0.1 0.4,0.3 0.4,0.6 -1.4,0.2 -3.1,0.4 -4.5,0.1 -0.9,0.1 -1.8,0 -2.8,0.1 -0.7,0.2 -1.6,-0.5 -2,0.3 0,0.2 0,0.4 0.3,0.5 1.3,0.2 2.6,0.3 3.9,0.3 0.6,-0.1 1.3,0 2,0 1.6,0 3.5,-0.6 4.6,0.9 0,0.1 0.1,0.1 0.1,0.2 h 1.6 c -0.3,-0.5 -0.7,-1 -1,-1.5 -0.5,-0.5 -0.9,-1 -1.4,-1.5 z m 11.1,0 c 0.1,0.3 0.2,0.6 0.3,0.9 0.4,0.7 0.7,1.4 0.9,2.2 h 2.2 c -0.1,-0.1 -0.1,-0.2 -0.1,-0.3 -0.3,-1 -0.9,-1.9 -1.4,-2.8 z m 5.2,0 c 0.4,0.9 0.8,1.9 1.2,2.8 0,0.1 0,0.1 0.1,0.2 h 1.2 c -0.4,-1 -0.8,-2 -1.2,-3.1 z m -47.1,3.1 c 0.2,-0.1 0.4,-0.1 0.5,-0.1 0.3,-0.4 3.9,-0.4 3.7,-1.2 -0.1,-0.2 -6.9,0.8 -7.6,1 -0.5,0.1 -1,0.2 -1.6,0.3 z m 4.5,0 c 0,-0.1 0.1,-0.1 0,0 0,-0.4 -0.7,-0.2 -1.3,0 z"
   id="path32" />
		<path
   class="st1"
   d="m 109.1,84.8 c -0.8,1.2 -1.4,2.4 -2,3.6 h 1.9 c 0.6,-1.2 1.1,-2.5 2,-3.6 z m 5,0 c -0.3,0.4 -0.5,0.7 -0.8,1.1 -0.6,0.8 -1.1,1.6 -1.5,2.5 h 1.7 c 0.1,-0.1 0.1,-0.2 0.2,-0.4 0.6,-1.1 1.3,-2.2 2,-3.3 z m 12.8,0 c -0.3,0.2 -0.5,0.4 -0.8,0.6 -1,0.9 -2.1,1.9 -3,3 h 2.6 c 0.8,-0.7 2.2,-0.4 3.3,-0.4 l 4.9,0.2 c 0.9,0 1.5,0.2 2.4,0 0.2,-0.2 0.5,0 0.5,-0.3 0,-0.4 -1.1,-0.1 -1.7,-0.4 -1.4,-0.1 -2.7,-0.3 -4.1,-0.2 -1.2,0.1 -2.3,-0.2 -3.4,-0.3 -0.1,-0.1 -0.4,-0.2 -0.2,-0.4 1,-1.1 5.9,-0.1 6.9,-0.2 0.1,0 0.2,-0.2 0.2,-0.3 0,-0.3 -3,-0.7 -4.1,-1.2 z m 7.2,0 c 0.5,0.2 1,0.5 1.5,0.6 l 0.8,0.3 c 0.6,0.4 1.4,0.4 2,0.8 0.4,0.7 -0.4,1.2 -0.5,1.9 h 1.8 c 0.2,-0.6 0.5,-1.1 0.7,-1.6 0.5,-0.8 1.2,-1.6 2,-2.1 h -2.6 c -0.4,0.4 -0.8,1 -1.4,0.8 -0.5,-0.2 -0.9,-0.5 -1.4,-0.8 z m 13.1,0 c 0.2,0.1 0.5,0.3 0.7,0.4 0.5,0.3 0.9,0.7 1.3,1.1 0.2,0.1 0.1,0.4 0.1,0.6 -0.3,0.3 -1,0.4 -0.9,0.9 0.1,0.2 0.1,0.4 0.2,0.7 h 6 c 1,0 2.1,0 3.1,0 h 3.2 c 0.7,0 1.4,-0.1 2,0 h 2.4 c -0.4,-0.5 -0.8,-1 -1.2,-1.5 -0.8,-0.6 -1.4,-1.5 -2.1,-2.1 h -2 c -0.9,0.2 -1.8,0.4 -2.7,0.7 l -1.9,0.1 c -0.8,0 -1.6,0 -2.4,0.2 -1,0.1 -1.8,0.6 -2.7,0.8 -0.6,-0.2 -0.2,-0.9 -0.6,-1.3 -0.1,-0.2 0,-0.3 0,-0.5 z m 4.2,0 c -0.1,0 -0.2,0.1 -0.4,0.2 -0.1,0.1 -0.1,0.2 -0.1,0.3 0.2,0.2 0.4,0.2 0.7,0.2 0.5,-0.2 1,-0.5 1.5,-0.7 z m 20.7,0 0.9,1.3 c 0.3,0.8 0.7,1.6 1,2.3 h 2 c 0,0 -0.1,-0.1 -0.1,-0.1 -0.4,-1.2 -1,-2.4 -1.6,-3.5 z m 5.2,0 c 0.3,0.5 0.5,1 0.7,1.6 0.4,0.7 0.8,1.4 1.1,2.1 h 1.3 c -0.1,-0.2 -0.1,-0.3 -0.2,-0.5 -0.7,-1 -1,-2.1 -1.5,-3.2 z m -37.1,3.7 c 0.1,-0.1 0.2,-0.3 0.2,-0.4 0.2,-0.1 0.8,-0.3 0.8,0.1 0,0.1 -0.1,0.2 -0.2,0.3 z m 1.8,0 c -0.3,-0.3 -0.3,-0.8 -0.7,-0.9 -0.2,0 -0.5,0.1 -0.6,-0.1 -0.1,-0.1 -0.1,-0.3 0,-0.4 0.4,-0.3 1,-0.3 1.6,-0.3 l 0.2,0.3 c 0.4,0.3 0.4,0.9 0.3,1.3 0,0 0,0.1 -0.1,0.1 z m 2.2,0 c 0,-0.1 0,-0.2 -0.1,-0.3 -0.1,-0.4 -0.6,-0.8 -0.4,-1.2 0.1,-0.1 0.1,-0.2 0.3,-0.2 0.6,-0.1 0.9,0.6 1.2,1 0.1,0.2 0.1,0.5 0.1,0.7 z m 1.6,0 c -0.1,-0.2 0,-0.4 0,-0.6 0.1,-0.4 0.4,-0.6 0.7,-0.7 0.3,-0.1 0.6,0.1 0.9,0.3 0.3,0.3 0.4,0.6 0.4,1 z m 11.1,-2.1 c 0.9,-0.2 1.7,-0.4 2.5,-0.6 0.7,0 1.5,-0.4 2.1,0.1 0.5,0.3 1.1,0.6 1,1.3 -0.5,0.4 -1.3,0.5 -2,0.4 -3,-0.1 -5.8,0.2 -8.8,0.2 l -1.3,0.1 c -0.2,-0.1 -0.2,-0.3 -0.2,-0.4 0.6,0 1,-0.5 1.6,-0.5 0.4,-0.2 0.9,-0.1 1.4,-0.2 l 2.2,-0.3 z"
   id="path33" />
		<path
   class="st1"
   d="m 112.4,80 c 0,0 0,0 0,0 -0.6,1.1 -1.6,2 -2.2,3.1 -0.4,0.6 -0.8,1.2 -1.2,1.8 h 1.9 c 0.1,-0.1 0.2,-0.3 0.3,-0.4 0.8,-1.5 2.2,-2.7 3.1,-4.2 0.1,-0.1 0.2,-0.2 0.2,-0.3 z m 5.5,0 c -1.4,1.5 -2.6,3.2 -3.7,4.9 h 1.7 c 0.5,-0.7 1,-1.3 1.6,-2 0.8,-0.9 1.3,-2 2.2,-2.7 0.1,-0.1 0.2,-0.1 0.3,-0.2 z m 16.7,0 c -1.8,0.7 -3.5,1.8 -5.1,2.8 -0.9,0.6 -1.7,1.4 -2.6,2.1 h 3.5 c -0.3,-0.1 -0.4,-0.3 -0.3,-0.5 0.9,-0.9 2.5,-0.2 3.9,0.5 h 2.9 c -0.3,-0.2 -0.7,-0.3 -1.1,-0.3 -1,-0.7 -2.1,-1 -3.2,-1.4 -0.2,-0.1 -0.1,-0.2 -0.1,-0.3 0.3,-0.5 0.7,0 1.1,0 0.5,0.3 1.1,0.3 1.7,0.5 0.8,0.5 1.7,0.7 2.5,1.1 0.2,0 0.3,-0.1 0.4,-0.3 0,-0.2 -0.1,-0.4 -0.3,-0.5 -0.5,0 -0.7,-0.4 -1.2,-0.5 -0.5,-0.4 -1.1,-0.7 -1.6,-1.1 -0.1,-0.1 -0.2,-0.4 0,-0.5 0.2,-0.3 0.5,-0.5 0.8,-0.5 0.9,-0.2 1.2,0.8 1.9,1.1 1,0.5 1.3,1.7 2.1,2.3 v 0.2 c -0.1,0.1 -0.2,0.2 -0.3,0.3 h 2.6 c 0.1,0 0.1,-0.1 0.2,-0.1 1.2,-0.5 2.7,-0.5 4,-0.2 0.2,0.1 0.5,0.2 0.7,0.3 h 2.6 c 0.1,-0.1 0.1,-0.2 0.2,-0.3 1.5,-1.5 3.3,-3.3 5.5,-2.2 l 0.3,0.3 c 0,0.6 -0.8,0.4 -1.1,0.7 -1.1,0.4 -2.2,1 -3.3,1.5 h 1.7 c 0.9,-0.4 1.8,-0.7 2.6,-1.2 1.5,-0.5 3.1,0 4.3,0.9 0,0.1 0.1,0.2 0,0.2 0,0 0,0 -0.1,0 h 2 c -0.3,-0.3 -0.6,-0.5 -0.9,-0.7 -1.1,-0.9 -2.3,-1.5 -3.5,-2.2 -1.1,-0.6 -2.3,-0.8 -3.3,-1.5 -0.4,-0.3 -0.9,-0.4 -1.3,-0.5 h -5.3 c 0,0 0,0 0,0 -0.1,1 -0.5,1.8 -0.8,2.7 -0.1,0.1 -0.1,0.2 -0.3,0.2 -0.4,-1.1 0.3,-1.8 0.3,-2.9 0,0 0,0 0,0 h -1.2 c 0,0.7 -0.1,1.3 -0.3,2 -0.3,0.3 0.1,0.9 -0.4,1.1 -0.6,0.2 -1.3,0.2 -2,0 l -0.2,-0.2 c -0.2,-0.9 -0.1,-1.9 -0.1,-2.7 0,-0.1 -0.1,-0.1 -0.1,-0.2 z m 9.2,0 c 0,0.1 0.1,0.1 0.1,0.2 0,0.5 -0.4,1.4 0.3,1.7 0.2,0 0.4,-0.2 0.5,-0.4 v -1.1 l 0.2,-0.4 z m 24,0 c 1.5,1.2 2.6,2.8 4,4.3 l 0.1,0.3 0.2,0.3 h 2.1 c -0.1,-0.2 -0.2,-0.3 -0.3,-0.5 -0.6,-0.6 -0.9,-1.3 -1.3,-1.9 -0.8,-0.8 -1.3,-1.7 -2,-2.5 z m 6.6,0 c 0.7,0.9 1.3,1.9 2,2.9 0.3,0.7 0.6,1.3 1,2 h 1.4 c -0.1,-0.1 -0.1,-0.3 -0.2,-0.4 -0.4,-0.7 -0.4,-1.5 -1,-2.1 -0.2,-0.8 -0.8,-1.3 -1.3,-2 -0.1,-0.1 -0.3,-0.2 -0.4,-0.3 z m -33.5,1.6 c -0.1,-0.4 -0.4,-1 -0.1,-1.4 0.1,-0.1 0.2,-0.1 0.3,-0.2 0.2,0 0.4,0 0.5,0.2 -0.2,0.9 0,1.9 0.2,2.7 -0.1,0.3 -0.5,0.5 -0.8,0.6 -0.6,0.1 -0.8,-0.7 -1.3,-0.9 -0.6,-0.6 -1,-1.3 -1.6,-1.7 -0.1,-0.1 0,-0.3 0,-0.5 0.2,-0.3 0.5,-0.3 0.8,-0.2 l 0.3,0.2 c 0.5,0.7 0.8,1.6 1.5,2.1 0.2,0.1 0.4,0 0.5,-0.2 0.2,-0.3 -0.2,-0.4 -0.3,-0.7 z m 8.5,1 c 0.1,0 0.3,0.1 0.4,0 0.7,-0.7 1.1,-2.3 2.4,-1.9 0.2,0.1 0.4,0.2 0.5,0.4 0.1,0.4 -0.3,0.3 -0.6,0.5 -0.9,1 -2.1,1.8 -3.1,2.7 -0.3,0.1 -0.5,-0.1 -0.7,-0.3 -0.8,-0.9 -0.1,-2.1 0.2,-3 0.4,-0.4 0.5,-1.2 1.2,-1.1 0.3,-0.1 0.6,0.1 0.8,0.2 v 0.2 c -0.5,0.5 -0.9,1.1 -1.3,1.7 -0.1,0.3 0,0.4 0.2,0.6 z"
   id="path34" />
		<path
   class="st1"
   d="m 116.9,75.1 c -0.1,0.1 -0.3,0.3 -0.4,0.4 -0.7,1 -1.5,1.7 -2.4,2.5 -0.4,0.7 -1.3,1.2 -1.6,1.9 h 2.2 c 1.3,-1.4 2.8,-2.6 4,-4.1 0.4,-0.2 0.7,-0.5 1,-0.8 h -2.8 z m 7.8,0 c -1.2,0.7 -2.3,1.4 -3.6,1.9 -1.2,0.8 -2.3,1.9 -3.3,2.9 h 2.1 c 1.4,-1 2.7,-2.1 4.3,-2.8 0.8,-0.6 1.7,-1.1 2.5,-1.6 0.3,-0.2 0.7,-0.3 1,-0.5 h -3 z m 37.1,0 c 0.1,0.1 0.3,0.2 0.4,0.3 1.9,0.9 3.2,2.8 5,4.1 0.2,0.2 0.4,0.3 0.7,0.5 h 2.9 c -0.1,-0.1 -0.3,-0.3 -0.4,-0.4 -0.9,-0.5 -1.4,-1.5 -2.4,-2 -1.1,-0.7 -2.1,-1.7 -3.2,-2.5 z m 7.8,0 c 0.7,0.7 1.4,1.4 2.1,2 1,0.8 1.9,1.8 2.7,2.9 h 1.4 c -0.6,-0.6 -1,-1.4 -1.7,-2 -0.8,-1 -1.7,-2 -2.7,-2.9 z M 142.7,80 c 0,-0.1 0,-0.2 0,-0.3 0.1,-0.2 0.4,-0.2 0.5,-0.2 0.2,0.1 0.4,0.2 0.6,0.4 h 1.1 l 0.3,-0.5 c 0.2,-0.1 0.5,-0.1 0.6,0.2 0,0.1 0,0.2 0,0.3 h 1.2 c 0.1,-0.1 0.2,-0.3 0.3,-0.3 0.2,0 0.4,0.1 0.4,0.3 h 5.3 c -0.6,-0.2 -1.2,-0.3 -1.8,-0.6 -1.5,-0.4 -3.1,-0.6 -4.7,-0.8 h -4.6 c -1.6,0.1 -3.1,0.4 -4.5,0.8 l -1.8,0.2 c -0.4,0.1 -0.7,0.2 -1.1,0.3 z"
   id="path35" />
		<path
   class="st1"
   d="m 134.5,65.3 c -0.7,0.1 -1.4,0.2 -2.1,0.4 -1.1,0.2 -2.1,0.8 -3.1,1.2 -1.9,1 -4,1.5 -5.8,2.9 -1.3,0.8 -2.4,1.9 -3.6,2.7 -1,0.8 -2.1,1.5 -3,2.5 h 2.7 c 0.3,-0.2 0.6,-0.5 0.8,-0.7 l 3.5,-2.7 c 1.2,-0.8 2.4,-1.4 3.6,-2.2 1,-0.5 2,-0.7 3,-1.1 0.4,-0.1 0.9,-0.1 1.2,0.1 0.8,1.1 2,2.2 3.5,1.8 0.9,-0.3 1.8,-0.5 2.5,-1.2 0.2,-0.2 1,-0.9 1.3,-1 0.4,0 1,0.4 1.4,0.5 1.2,-0.1 1.6,0.1 2.7,-0.4 0.6,-0.3 1.2,-0.5 1.8,-1 0.4,0 1,0.6 1.3,0.7 0.9,0.6 2.8,0.6 3.8,0.8 0.1,0 0.1,0.1 0.1,0.1 -0.3,0.3 -1.9,-0.2 -2.2,-0.1 -2.8,-0.5 -5.6,0.1 -8.3,0.6 -2.3,0.7 -4.8,1 -7.1,2 -1.7,0.6 -3.3,1.5 -4.9,2.3 -1,0.3 -2,0.9 -2.9,1.4 h 3 c 1.3,-0.6 2.7,-1.2 4,-1.8 0.8,-0.5 1.7,-0.6 2.4,-1.2 2.9,-1.2 6.3,-1.4 9.5,-2 0.8,0.1 1.3,-0.2 2,-0.2 2.5,-0.1 4.9,0.4 7.1,0.9 0.9,0.3 1.7,0.7 2.6,1 1.3,0.7 2.6,1.3 3.9,1.9 0.9,0.3 1.7,0.8 2.5,1.3 h 3 c -0.5,-0.3 -0.9,-0.6 -1.4,-0.8 -1.8,-1 -3.7,-1.8 -5.4,-2.9 -1.1,-0.5 -2.2,-0.9 -3.3,-1.2 -0.1,-0.1 -0.2,-0.3 -0.1,-0.4 0.4,-0.3 1,-0.3 1.4,-0.6 0.4,-0.5 1,-0.8 1.3,-1.3 1.6,0.7 3.1,1.5 4.6,2.3 1.9,0.8 3.8,1.7 5.5,3.1 0.9,0.5 1.6,1.2 2.3,1.9 h 1.8 c -0.7,-0.6 -1.4,-1.2 -2.1,-1.9 -0.8,-0.4 -1.5,-1.2 -2.4,-1.7 -1,-0.3 -1.8,-1.1 -2.8,-1.5 -1.4,-0.8 -2.7,-1.6 -4.2,-2.2 -0.4,-0.3 -1,-0.4 -1.4,-0.7 -1.1,-0.5 -2,-1.1 -3.2,-1.4 -0.6,-0.2 -1.2,0.2 -1.8,-0.1 0,-0.1 0,-0.2 -0.1,-0.3 h -1.3 c 0.1,1 0.4,2 0.8,2.8 0.2,0.2 0.5,0.4 0.8,0.3 0.1,-0.1 0.3,-0.1 0.4,-0.2 -0.1,-0.5 -0.3,-1 -0.5,-1.5 0,-0.1 0.2,-0.2 0.3,-0.2 0.6,0 0.9,0.4 1.5,0.5 0.1,0.1 0,0.6 -0.1,1 0,0.3 -0.6,0.4 -0.7,0.6 -0.2,0.2 -0.4,0.3 -0.7,0.3 -1.1,-0.1 -1.8,-1 -2.4,-1.8 L 151,65.2 h -3 c 0.2,0.4 0.5,0.7 0.6,0.8 0.4,0.5 1.2,1.5 0.4,1.3 -1.2,-0.3 -2.4,-1.3 -3.1,-2.1 h -1.2 c -0.8,0.8 -2.1,1.8 -3,2.1 -0.8,0.3 0.1,-0.9 0.5,-1.4 0.1,-0.2 0.3,-0.4 0.5,-0.7 h -2.1 c -0.1,0 -0.1,0.1 -0.2,0.1 -0.3,0.1 -0.6,0 -0.8,-0.1 h -0.5 c -0.1,0.1 -0.2,0.2 -0.3,0.4 -0.1,1.2 -1.1,2.4 -2.3,2.9 -0.6,0.1 -1.5,0.4 -2.1,0 -0.4,-0.4 -0.6,-1 -0.5,-1.6 0.1,-0.7 0.8,-0.8 1.3,-0.9 0.2,0 0.6,-0.1 0.7,0.2 0.2,0.8 -1.6,0.9 -0.6,1.7 0.8,0.1 1.4,-0.5 1.9,-1.1 0.3,-0.4 0.5,-0.9 0.6,-1.5 z"
   id="path36" />
		<path
   class="st1"
   d="m 138,65.3 c 0.2,-0.9 0.1,-2 -0.4,-2.8 0.3,-0.2 1.9,0.4 2,0.8 0,0.5 -0.1,1.2 0.4,1.4 0.3,0.1 0.7,-0.3 0.8,0.1 0,0.2 -0.1,0.4 -0.3,0.4 h 2.1 c 0.4,-0.7 0.8,-1.7 0.8,-3.6 0,-2.8 -1.9,-3.4 -2.6,-3.4 -0.8,0 -1.3,-0.1 -1,-0.4 0.3,-0.3 1.6,-0.4 2.5,-0.2 0.9,0.2 3,2 3,2 0,0 2,-1.8 3,-2 0.9,-0.2 2.7,-0.3 3,0 0.3,0.3 -0.2,0.3 -1,0.3 -0.8,0 -3.1,0.9 -3.1,3.6 0,1.8 0.4,2.9 0.9,3.6 h 3 v -0.2 c -0.4,-0.3 -0.9,-0.1 -1.3,-0.2 -0.4,-0.1 -0.8,-0.2 -1,-0.6 -0.1,-0.3 -0.1,-0.7 0.2,-0.8 l 0.3,-0.2 c 0,-0.2 0.4,-0.2 0.6,-0.1 0.5,0 0.6,0.8 1.2,0.6 0.6,0.1 0.8,-1 1.3,-1.2 1,-0.8 1.3,-0.6 1.9,-0.9 v 0.1 0.1 c -0.9,0.6 -1.9,1.2 -2,2.3 0,0.4 0,0.8 0,1.2 h 1.3 c -0.1,-0.7 0.4,-1.3 0.5,-2 0.6,-1 1.9,-0.4 2.7,-0.9 0.3,-0.2 0.3,-0.7 0.2,-1 -0.6,-0.7 -1.2,-1.3 -2.1,-1.2 -1.4,0.2 -2.6,0.9 -3.6,1.9 -0.6,0.5 -1.2,-0.2 -1.8,-0.3 -0.5,-0.1 -0.9,-0.7 -0.9,-1.3 0,-0.6 0.6,-1 1,-1.3 0.9,-0.8 2.1,-0.4 3.1,-0.1 0.4,-0.1 0.7,-0.5 0.7,-0.8 0.1,-0.4 0,-0.9 -0.3,-1.3 -0.4,-0.2 -0.8,-0.4 -1.3,-0.5 -1.6,-0.1 -3.3,-0.3 -4.6,0.6 -0.6,0.3 -1.1,1.2 -1.9,1.1 -0.8,-0.6 -1.7,-0.8 -2.5,-1.3 l -1.3,-0.5 c -1.3,-0.2 -2.5,0.4 -3.1,1.5 -0.2,0.6 -0.6,1.5 0,2.1 0.2,0.3 0.5,0.3 0.8,0.3 0.5,-0.1 0.6,-0.6 0.8,-0.8 0.2,-0.2 0.5,-0.1 0.7,-0.1 0.4,0.1 0.9,0.5 1.1,1 0.2,0.6 -0.3,1.1 -0.7,1.5 -0.3,0.3 -0.9,0.3 -1.4,0.2 -1.5,-0.9 -3.2,-2.3 -5.2,-1.5 -0.8,0.4 -1.9,1.2 -1.9,2.2 0.4,0.7 1.1,0 1.6,0 0.9,-0.1 1.8,0.1 2.3,0.7 0.2,0.5 -0.1,1.1 -0.5,1.4 -0.6,0.3 -1.2,0.4 -1.8,0.5 z m 1.6,0 c -0.2,0 -0.3,-0.1 -0.5,0 z m 5.2,0 c 0.4,-0.4 0.6,-0.7 0.6,-0.9 0,0.2 0.2,0.5 0.6,0.9 z m -4.2,-2 c 0.3,-0.5 0.9,-0.9 1.5,-0.8 l 0.2,0.2 c 0.1,0.3 0.1,0.9 -0.2,1.2 -0.3,0.3 -1,0.2 -1.4,0 -0.2,-0.1 -0.2,-0.4 -0.1,-0.6 z"
   id="path37" />
		<path
   class="st1"
   d="m 195.5,100.7 c -0.2,-1.2 -0.2,-2.5 -0.4,-3.7 -0.5,-4.3 -1.4,-8.4 -3,-12.3 -0.2,-0.9 -0.6,-1.7 -1.2,-2.5 -0.3,-0.9 -0.8,-1.6 -1.3,-2.4 l -0.1,-0.3 c -2.1,-2.7 -3.3,-5.8 -5.8,-8.4 -2.6,-2.7 -5.2,-5.8 -8.4,-7.8 -2,-1.8 -4.2,-3.2 -6.4,-4.5 -1.2,-0.6 -2.3,-1.3 -3.5,-1.9 -1.2,-0.6 -2.5,-1 -3.7,-1.5 -2.1,-0.9 -4.6,-0.9 -6.7,-1.7 -1.4,-0.2 -2.9,-0.2 -4.3,-0.4 -2.3,-0.1 -4.5,-0.2 -6.7,-0.2 -1.7,-0.3 -3.5,-0.2 -5,0.3 -1,0 -2,0.3 -3,0.4 -1.7,-0.1 -3.1,0.7 -4.7,0.9 -0.6,0.1 -1,0.6 -1.6,0.6 -1.3,0.6 -2.7,0.8 -4,1.2 -1.1,0.2 -2,0.9 -3,1.2 -0.7,0.8 -1.8,0.7 -2.5,1.4 -2.9,1.2 -5.3,3.4 -8.2,4.7 -2.3,2 -5,3.4 -6.8,6 -0.9,0.9 -1.5,1.9 -2.3,2.8 -0.7,0.9 -1,1.9 -1.7,2.8 -0.5,1.3 -1.6,2.4 -2.1,3.8 -0.4,0.4 -0.4,1.1 -0.8,1.5 -0.4,1.1 -1,2 -1.5,3 -0.2,0.9 -0.8,1.5 -0.9,2.4 -0.6,1.1 -1,2.2 -1.3,3.5 -0.5,0.7 -0.6,1.6 -0.8,2.5 -0.5,2.4 -1.3,4.8 -1.5,7.3 -0.5,2 -0.1,3.9 -0.2,6 -0.4,0.6 0.1,1.3 -0.1,1.9 0.4,1.1 0.3,2.4 0.4,3.5 l 0.2,0.3 c 0.3,1.1 0.4,2.1 0.6,3.2 0.3,1.9 1,3.7 1.5,5.5 0.9,2 1.4,4.3 2.3,6.3 0.6,1.2 1.1,2.4 1.9,3.6 1.1,2.2 2.6,4.1 3.8,6.3 1.6,1.9 3.4,3.8 5.3,5.6 2.5,2.6 5.3,4.4 8.1,6.1 2.4,1.7 5,2.6 7.6,3.9 1.6,0.6 3.1,1.2 4.7,1.7 1.4,0.2 2.5,1.1 4,1.2 1.1,0 1.9,0.6 3,0.6 3.9,0.4 7.9,0.6 11.7,0.2 1.9,-0.2 3.8,-0.3 5.7,-0.6 3.4,-0.4 6.6,-1.3 9.7,-2.5 1.6,-1 3.4,-1.6 5.2,-2.3 2.8,-1.5 5.7,-2.8 8.3,-5 1.4,-0.9 2.7,-2.2 4.1,-3.2 1.4,-1.9 3.3,-3.6 4.8,-5.5 0.1,-0.4 0.4,-0.8 0.6,-1.2 1.3,-1.5 2.2,-3.1 3.4,-4.6 0.5,-1.1 1.5,-2.1 1.7,-3.3 0.5,-0.9 2.3,-6.1 2.9,-7.6 0.5,-2.3 1.2,-4.4 1.4,-6.7 0.1,-2.2 0.6,-4.4 0.5,-6.7 0,-2.1 0.2,-3.7 0.1,-5.4 z m -2,10.6 c -0.2,0.4 0,0.9 -0.1,1.4 -0.3,1.3 -0.4,2.7 -1,4 -0.8,3.2 -1.9,6.4 -3.2,9.4 -0.8,1.5 -1.6,2.9 -2.5,4.3 -1.2,1.9 -2.6,3.7 -3.9,5.5 -0.5,0.7 -1.2,1.1 -1.8,1.8 -0.8,1.6 -2.5,2.7 -3.8,3.9 -1.5,1.7 -3.4,2.5 -5.1,3.9 -1.9,1.6 -4.2,2.2 -6.2,3.5 -1,0.6 -2.1,0.9 -3.1,1.6 -0.8,0.2 -1.5,0.7 -2.4,0.9 -2.3,0.8 -4.8,1 -7.3,1.4 -1.4,0.4 -2.7,0.8 -4.2,0.8 -1.2,0.1 -2.4,0.2 -3.6,0.3 -0.9,0.1 -1.9,0.4 -2.8,0.1 -1,-0.3 -2.1,-0.1 -3.2,-0.1 -2.1,0.1 -4.2,-0.1 -6.1,-0.8 -1.6,-0.4 -3.1,-1 -4.8,-1.2 -1.9,-0.9 -4,-1.3 -5.9,-2.2 -2.5,-1 -5,-2.1 -7.1,-3.9 -1.3,-1.1 -2.8,-1.7 -4.1,-3 -1.7,-1.3 -3.5,-2.7 -4.6,-4.5 -0.8,-0.6 -1.3,-1.5 -1.8,-2.2 -0.2,-0.4 -0.7,-0.3 -0.8,-0.7 -0.9,-1.6 -2,-3.2 -3,-4.8 -0.5,-0.3 -0.5,-1 -0.8,-1.4 -1.1,-1.9 -2.1,-3.8 -2.8,-5.8 -0.6,-1.2 -0.9,-2.5 -1.5,-3.7 -0.3,-1.1 -0.6,-2.3 -0.7,-3.5 -0.1,-0.5 -0.5,-0.9 -0.7,-1.4 -0.5,-2.2 -0.6,-4.6 -0.9,-6.9 -0.1,-1 -0.4,-2 -0.4,-3.1 -0.1,-1.4 -0.1,-2.9 0.2,-4.3 0,-2 0.9,-3.8 1.1,-5.7 0.5,-2 0.9,-4.2 1.9,-6 0,-0.7 0.6,-1.2 0.6,-2 0.9,-1.9 1.4,-4 2.5,-5.8 0.7,-1.8 2.1,-3.2 2.7,-5 0.6,-1.4 1.7,-2.5 2.5,-3.7 0.8,-0.9 1.7,-2 2.7,-2.6 0.6,-0.5 1.2,-1 1.7,-1.6 1.9,-1.1 3.4,-2.9 5.3,-4 0.9,-0.4 1.5,-1.3 2.4,-1.6 1.3,-0.9 2.6,-1.5 4,-2.2 2,-0.8 3.7,-2.1 5.9,-2.5 1.6,-0.4 3.2,-0.8 4.8,-1 1,-0.3 2.1,-0.4 3,-0.8 1.5,-0.2 2.9,-0.4 4.4,-0.6 2,-0.4 4.2,-0.4 6.4,-0.5 1.5,0.1 3,0.1 4.5,0.3 l 2.7,0.5 c 0.9,-0.2 1.7,0.1 2.5,0.2 2.6,0.3 5.1,1 7.4,2.1 1.3,0.7 2.7,1.3 4.1,2 2.8,1 5.3,2.9 7.7,4.9 1,1 2.1,1.9 3.1,2.8 2.1,2.1 4.1,4.1 6.1,6.2 0.7,1 1.4,2 2,3 1.1,1.6 2.3,3.1 3.1,4.8 1.7,2.9 2.6,6.2 3.5,9.5 1.6,4.2 1.6,9.1 1.7,13.8 -0.1,1.9 -0.2,4 -0.3,6.2 z"
   id="path38" />
		<path
   class="st2"
   d="m 154.5,102 c 0.2,0.3 -0.1,0.3 -0.1,0.7 0,0.3 0.1,0.7 -0.2,0.8 -0.6,0.1 -0.4,-0.9 -1.1,-0.6 l -0.9,0.2 c -0.1,1.1 0,2.7 -0.2,3.8 0,0.5 0.6,0.2 0.7,0.7 0,0.2 0,0.6 -0.3,0.6 -0.3,0 -0.5,0.1 -0.7,0 -0.6,0.2 -1.3,0.3 -1.9,0 -0.2,-0.1 -0.2,-0.4 -0.1,-0.6 0.2,-0.3 0.8,-0.3 0.8,-0.7 0,-1.2 0.3,-2.6 0,-3.7 -0.2,-0.3 -0.8,-0.3 -1,-0.2 -0.5,0.1 -0.2,1 -0.7,0.9 l -0.2,-0.3 -0.1,-1.4 0.1,-0.1 c 1.7,0 3.5,0.1 5.2,-0.1 0.2,-0.1 0.6,-0.2 0.7,0 z"
   id="path39" />
		<path
   class="st2"
   d="m 170.6,102.2 c 0,0.5 0.1,1 -0.1,1.5 -0.2,0.1 -0.5,0 -0.7,0 -0.1,-0.1 0.1,-0.5 0,-0.6 -0.2,-0.3 -0.5,-0.6 -0.8,-0.6 -0.2,0 -0.9,0.4 -1,0.6 0,1.3 2.2,1.1 2.7,2.1 0.5,0.9 0.3,1.6 -0.3,2.3 -0.7,0.7 -2.1,0.7 -3,0.3 -0.5,0 -1.1,0.6 -1.5,0.1 l 0.5,-0.8 c 0.3,-0.5 0.2,-0.7 0.6,-1.1 h 0.2 c 0.2,0.9 0.4,1.3 1.4,1.3 0.6,0 1,-0.1 1.1,-0.4 0.1,-0.2 0,-0.5 0,-0.7 -0.6,-0.9 -2.6,-0.8 -3,-1.8 -0.2,-0.7 -0.3,-1.7 0.4,-2.2 0.8,-0.5 2.4,-0.8 3.3,-0.3 z"
   id="path40" />
		<path
   class="st2"
   d="m 128.3,102.1 c 0.2,0.4 0.1,1.1 0.1,1.5 -0.1,0.3 -0.4,0.2 -0.6,0.2 -0.4,-0.1 -0.2,-0.6 -0.6,-0.7 -0.3,-0.1 -0.8,-0.1 -1,0.1 -0.2,0.2 -0.2,0.8 -0.2,1 0.2,0.3 0.8,0.1 1.1,0.3 0.4,0.4 0.2,0.4 0.1,0.9 -0.1,0.5 -0.7,0 -1.1,0.1 -0.3,0.3 -0.2,1.4 0,1.7 0.7,0.2 1.5,-0.1 1.9,-0.4 0.3,-0.3 0.4,-0.7 0.7,-0.8 0.2,0 0.4,0.1 0.5,0.3 -0.2,0.5 -0.1,1.3 -0.6,1.7 -1.4,0.6 -3.2,0 -4.8,0.1 -0.3,-0.1 -0.2,-0.4 -0.2,-0.6 1.1,-1 0.7,-3.1 0.7,-4.5 0,-0.4 -0.6,-0.7 -0.4,-1 l 0.2,-0.1 c 1,-0.1 2.3,0.1 3.3,0 0.3,0 0.7,0 0.9,0.2 z"
   id="path41" />
		<path
   class="st2"
   d="m 145.2,102.3 c 0,0.2 0,0.4 -0.1,0.6 -0.3,0.1 -0.6,0.2 -0.8,0.5 0.1,1.1 0,2.3 0,3.3 0.2,0.3 0.7,0.2 0.8,0.6 0.2,0.4 0.1,0.6 -0.2,0.8 -0.5,0.2 -1.5,-0.1 -2.1,0 -0.4,0.2 -0.8,0.1 -1.2,-0.1 -0.2,-0.2 -0.3,-0.4 -0.1,-0.7 0.2,-0.5 0.8,-0.2 1,-0.7 0.4,-0.9 0.1,-2.5 0.2,-3.5 -0.1,-0.4 -0.7,-0.1 -0.9,-0.4 -0.1,-0.1 -0.4,-0.7 -0.2,-0.7 1.1,0 2.2,-0.2 3.3,0 0.2,0 0.3,0.2 0.3,0.3 z"
   id="path42" />
		<path
   class="st2"
   d="m 117.5,102.2 c 0,0.2 -0.1,0.2 -0.3,0.3 -0.2,0 -0.3,0.1 -0.4,0.2 0.1,0.7 0.3,1.7 0.8,2.3 0.3,0.1 0.5,-0.2 0.6,-0.4 l 1.5,-2.1 c -0.6,-0.3 -0.3,-0.6 -0.3,-0.6 0.6,-0.1 1.6,-0.1 2.1,0 0.1,0.1 0.7,-0.2 0.6,0.3 -0.1,0.4 -0.6,0.3 -0.8,0.6 -1.1,1.6 -2.2,3.6 -3.1,5.1 -0.3,0 -0.7,0.1 -0.8,-0.2 v -0.6 l -1.9,-4.1 c -0.1,-0.2 -0.4,-0.1 -0.6,-0.2 -0.2,-0.2 -0.2,-0.3 -0.1,-0.6 0.3,-0.3 0.8,-0.2 1.1,-0.4 0.5,0 1.4,-0.3 1.6,0.4 z"
   id="path43" />
		<path
   class="st1"
   d="m 163.3,106.9 c -0.9,-1.6 -1.8,-3.1 -2.4,-4.7 -0.1,-0.2 -0.3,-0.5 -0.6,-0.5 -0.3,0 -0.9,0.1 -0.9,0.4 -0.3,1.8 -1.4,3.3 -2.3,4.9 -0.3,0.2 -0.6,0.5 -0.9,0.7 -0.1,0.1 -0.1,0.3 0,0.4 0.7,-0.1 1.9,0 2.6,0 0.1,0 0.3,-0.1 0.2,-0.2 0,-0.2 -0.2,-0.2 -0.3,-0.3 -0.1,-0.1 0,-0.2 0,-0.3 0.4,-0.9 1.1,-0.7 1.7,-0.6 0.4,0.1 1.1,-0.2 1.2,0.6 0,0.2 -0.4,0.1 -0.5,0.1 -0.2,0.1 -0.3,0.3 -0.3,0.5 0,0.2 0.2,0.2 0.4,0.2 0.8,-0.1 1.5,-0.1 2.5,-0.1 0.5,-0.1 -0.2,-0.9 -0.4,-1.1 z m -2.4,-1.2 c -0.3,0.2 -1.3,0.2 -1.6,0.2 -0.5,-0.1 0.5,-1.2 0.3,-1.6 0.1,-0.3 0,-0.8 0.4,-0.9 0.3,0 0.3,0.5 0.4,0.9 0,0.3 0.5,1.1 0.5,1.4 z"
   id="path44" />
		<path
   class="st1"
   d="m 163.9,77.6 c -0.1,-0.4 -0.3,-0.4 -0.8,-0.4 -0.8,0.2 -1.5,0.6 -2,1.3 -0.9,0.6 -1.8,1.4 -2.7,1.8 -0.3,0.2 -0.7,0.1 -1,0.3 0,0.1 0,0.2 0.1,0.3 0.3,0.2 0.7,0.4 1.1,0.5 0.4,0.2 0.6,0.9 1.2,0.5 0,-0.3 -0.3,-0.6 -0.1,-0.8 1,-0.3 1.4,0.2 2.1,0.7 0.1,0.2 0.2,0.3 0,0.5 -0.3,0.1 -0.7,0.2 -0.9,0 -0.1,0 -0.2,0.1 -0.2,0.2 0,0.5 0.9,1.1 1.2,1.4 0.2,0.5 1,0.9 1.5,1 0.2,-0.1 0.3,-0.2 0.3,-0.4 -0.3,-0.9 -0.6,-0.2 -0.2,-1.1 0.2,-0.3 0.5,-4.3 0.7,-4.6 -0.4,-0.7 -0.3,-1.2 -0.3,-1.2 z m -1.9,3 c -0.1,0.3 -1.2,-0.4 -1.4,-0.7 -0.1,-0.1 0.8,-0.7 0.8,-0.9 0.4,-0.3 0.5,-0.5 1,-0.7 l 0.1,0.1 c -0.1,0.6 -0.4,1.5 -0.5,2.2 z"
   id="path45" />
		<path
   class="st2"
   d="m 148.5,71.7 c 0,0.6 -0.1,1.2 -0.2,1.8 0,0.1 -0.2,0.2 -0.3,0.2 -0.3,0 -0.7,0 -0.6,-1.3 -0.6,-0.6 -1.4,-0.3 -1.4,0.4 -0.1,2 -0.4,2.3 -0.2,3.6 0.3,0.3 0.3,0.8 0.7,1.1 0.1,0.2 -0.1,0.4 -0.2,0.4 -0.5,0.1 -0.9,-0.2 -1.4,-0.2 -0.6,-0.1 -1.3,0.1 -1.8,-0.1 -0.2,-0.1 -0.1,-0.3 0,-0.4 1.3,-0.8 1,-2.5 1.1,-3.9 0,-0.2 -0.1,-0.4 -0.4,-0.5 -1.1,-0.5 -0.9,0.4 -1.4,0.5 -0.1,0.1 -0.4,0.1 -0.5,0 -0.4,-0.3 -0.1,-0.7 -0.1,-1.1 0.1,-0.3 0.1,-0.7 0.4,-0.7 1.4,-0.2 2.9,0.1 4.3,-0.1 0.7,0 1.6,-0.3 2,0.3 z"
   id="path46" />
		<path
   class="st2"
   d="m 155.9,73.4 c 0.3,0.1 0.7,0.3 0.9,0.6 -0.1,0.7 -1,0.3 -1.3,0.8 -0.4,1.3 -2,2.9 -0.9,4.4 0,0.1 0,0.3 -0.2,0.3 -0.6,0 -1.4,-0.7 -1.9,-1 -0.5,-0.1 -1.1,-0.1 -1.4,-0.6 0,-0.6 0.8,-0.4 1.1,-0.7 0.8,-0.3 0.9,-1.4 1.2,-2.1 0.1,-0.5 0.5,-1 0.4,-1.5 -0.2,-0.3 -0.8,-0.4 -0.6,-0.9 0.2,-0.4 0.7,0 1.1,-0.1 0.3,0.3 1.2,0.5 1.6,0.8 z"
   id="path47" />
		<path
   class="st2"
   d="m 171.4,85.2 c 0.7,0.6 1,1.5 1.4,2.3 0.1,0.3 0.4,0.6 0.1,1 -0.2,0.3 -0.6,0.4 -1,0.4 -0.2,-0.1 -0.1,-0.3 -0.1,-0.5 0.3,-1 -0.1,-1.6 -0.9,-1.6 -0.2,0.5 -1,0.3 -0.8,0.9 0.2,0.3 0.5,0.6 0.4,0.9 0,0.4 -0.4,0.6 -0.6,0.7 h -0.2 c -0.3,-0.4 -0.7,-0.7 -0.8,-1.2 -0.1,-0.1 -0.2,-0.2 -0.3,-0.1 -0.2,0.3 -0.8,0.5 -0.6,1 0.4,0.4 0.4,1.1 1,1.4 0.3,0.1 0.5,-0.1 0.7,-0.1 0.4,0.2 1,-0.1 1.3,0.3 0,0.4 -0.4,0.4 -0.7,0.5 -0.6,0.2 -1.3,0.5 -2,0.2 -0.7,-0.6 -0.7,-1.5 -1.3,-2.1 V 89 c -0.5,-0.5 -0.9,-1 -1.5,-1.2 -0.2,-0.1 -0.1,-0.3 -0.1,-0.5 0.3,-0.7 0.8,0 1.3,-0.1 1,-0.5 2,-0.8 2.8,-1.5 0.4,-0.1 0.6,-0.4 0.8,-0.7 0,-0.3 -0.2,-0.7 -0.1,-1 0.2,-0.1 0.4,-0.2 0.5,-0.1 0.4,0.3 0.5,0.8 0.7,1.3 z"
   id="path48" />
		<path
   class="st2"
   d="m 116.9,87.1 c 0.1,0.6 -0.6,0.9 -0.9,1.3 -0.3,0.5 -0.4,1.5 -0.1,2.1 0.3,0.5 0.7,1.1 1.3,1.2 l 1.2,-0.1 c 0.1,-0.3 0.5,-0.5 0.4,-0.9 -0.1,-1 -1,0.1 -1.3,-0.4 0,-0.6 0.3,-1.4 0.7,-1.8 0.6,-0.1 1.2,0.3 1.7,0.7 0.2,0.1 0.6,0.1 0.6,0.4 V 90 c -0.2,0.8 -0.3,1.7 -0.6,2.4 -0.5,0.6 -1,0.9 -1.9,1.2 -0.5,0.2 -1.1,0.3 -1.6,0.2 -0.7,-0.6 -1.8,-1 -2,-2 -0.8,-1.4 -0.1,-3.6 0.8,-4.7 0.5,-0.4 1.4,-0.8 1.7,0 z"
   id="path49" />
		<path
   class="st1"
   d="m 127.9,126.1 c -0.1,-0.2 -0.3,-0.5 -0.6,-0.4 -1.2,0.5 -2.2,1.3 -3.4,1.6 -0.5,0.3 -1,0.6 -1.6,0.7 -0.5,0.2 -0.9,-0.1 -1.4,-0.1 -0.1,0.1 -0.2,0.2 -0.2,0.3 0.8,0.6 1.5,1.5 2.1,2.2 0.3,-0.3 0.1,-0.8 0.4,-1.1 0.3,-0.1 0.7,0.1 1.1,0.2 0.6,0.4 1.4,1 1.3,1.8 -0.1,0.2 -0.5,0.1 -0.6,0.1 0,0.2 -0.3,0.2 -0.1,0.4 l 1.2,0.7 c 0.5,0.3 0.8,1 1.3,1.1 0.2,0 0.2,-0.3 0.1,-0.5 -1.1,-2.4 0.8,-4.6 0.4,-7 z m -2.1,3.4 c -0.4,0.1 -0.9,-0.6 -1.2,-0.9 -0.1,-0.1 -0.1,-0.3 -0.1,-0.4 0.4,-0.3 1.3,-1.1 1.9,-1.2 l 0.1,0.1 c 0,0.6 -0.6,1.8 -0.7,2.4 z"
   id="path50" />
		<path
   class="st1"
   d="m 167,127.7 c -1,-0.2 -0.4,0.2 -1.4,-0.1 -0.7,-0.2 -2.9,-1.1 -3.5,-1.3 -0.4,-0.2 -0.9,-0.6 -1.4,-0.2 -0.2,0.7 0.2,1.3 0.2,2 0.3,1.1 0.8,2.9 0.4,3.3 -0.4,0.5 -0.7,0.9 -0.4,1.3 0.3,0.1 0.5,-0.2 0.7,-0.3 0.5,-0.4 1.2,-0.7 1.6,-1.3 -0.1,-0.4 -0.5,-0.1 -0.7,-0.4 -0.2,-0.5 0.6,-0.7 0.8,-1.1 0.4,-0.2 0.6,-0.8 1.2,-0.8 0.6,0.2 0,0.6 0,1 0,0.1 0.1,0.2 0.2,0.1 0.9,-0.4 1.5,-1.3 2.3,-1.9 0.1,0 0.1,-0.2 0,-0.3 z m -4.8,1.9 c -0.4,-0.4 -0.6,-1.7 -0.5,-2.1 0.1,-0.1 0.5,0.2 0.6,0.3 l 1.2,0.5 c 0.1,0.1 0.3,0.1 0.3,0.2 -0.4,0.4 -1,1.2 -1.6,1.1 z"
   id="path51" />
		<path
   class="st2"
   d="m 121,118.3 v 0.3 c -0.4,1 -0.9,3 -1,4.2 0.1,0.2 0.7,-0.5 0.8,-0.5 0.6,-0.3 1.1,-1 1.7,-1.2 0.4,0.1 0.5,0.3 0.7,0.6 0.2,0.4 0.7,0.8 0.6,1.3 -0.4,0.4 -0.6,-0.4 -1.1,-0.3 -0.9,0.2 -1.6,0.8 -2.4,1.3 -0.4,0.6 -1.1,0.8 -1.6,1.3 -0.2,-0.1 -0.7,0 -0.7,-0.3 0.1,-1.4 0.9,-2.9 0.7,-4.3 -0.2,-0.2 -1.5,1 -1.7,1.1 -0.7,0.5 -0.4,0.5 -0.6,1.3 -0.2,0.1 -0.4,-0.1 -0.6,-0.3 -0.2,-0.4 -0.3,-0.8 -0.5,-1.2 -0.2,-0.2 -0.5,-0.4 -0.4,-0.7 0.9,0.1 1,0.1 1.8,-0.2 0.6,-0.4 3,-2.1 3,-2.3 0,-0.2 -0.3,-0.4 -0.2,-0.6 0.2,-0.2 0.5,-0.2 0.7,-0.1 0.4,0.1 0.7,0.3 0.8,0.6 z"
   id="path52" />
		<path
   class="st2"
   d="m 169.4,119 c 0.2,0.2 0.4,0.4 0.2,0.6 -0.7,0.2 -1.5,0.2 -2.1,0.7 -0.2,0.2 -0.6,0.4 -0.7,0.8 0.2,0.4 0.8,0.9 1.2,0.9 0.6,-0.2 -0.2,-1.1 0.6,-1.1 0.6,0 0.8,0.1 1.1,0.6 0,0.1 0.1,0.2 0,0.3 -0.2,0.2 -0.7,0 -0.8,0.4 0,0.2 0,0.7 0.2,0.8 0.2,0.3 0.6,0.4 0.9,0.3 0.4,-0.1 0.6,-0.6 0.8,-0.9 0.3,-0.6 -0.4,-1 -0.7,-1.4 0,-0.2 0.1,-0.5 0.4,-0.6 0.8,0.2 1.3,0.8 2,1.1 0.1,0.2 -0.1,0.5 -0.2,0.6 -1.1,1.3 -1.9,2.6 -3.2,3.8 -0.1,0.1 -0.3,0.3 -0.5,0.2 -0.4,-0.3 0.4,-0.9 0.2,-1.2 -0.5,-0.6 -1.8,-2 -2.8,-2.4 -0.6,-0.2 -0.7,0.1 -1,0.5 -0.2,0.2 -0.5,0.2 -0.7,0.1 -0.2,-0.1 -0.2,-0.3 -0.2,-0.5 0.2,-0.6 0.9,-1 1.3,-1.5 0.6,-1 1.3,-1.6 2,-2.6 0.9,-0.5 1.4,0.3 2,0.5 z"
   id="path53" />
		<path
   class="st2"
   d="m 132.9,128.9 c 1.5,0.5 3,1.1 4.6,1.5 0.2,0.1 0.4,0.3 0.6,0.4 0.1,0.6 -0.4,0.9 -0.5,1.4 -0.1,0.1 -0.3,0.1 -0.5,0 -0.4,-0.4 -0.3,-1.5 -1.2,-1.3 -0.6,0.2 -0.7,1 -0.9,1.5 -0.2,0.7 -0.7,1.4 -0.7,2.2 0.2,0.4 0.5,0.6 0.8,1 0.1,0.1 -0.1,0.3 -0.2,0.4 -0.5,0 -0.8,-0.3 -1.2,-0.4 -0.8,-0.3 -1.7,-0.2 -2.3,-0.7 -0.1,-0.1 0,-0.2 0,-0.3 0.3,-0.1 0.7,-0.2 1,-0.4 0.7,-0.8 0.8,-1.9 1.3,-2.8 0.1,-0.3 0.5,-0.6 0.3,-1 -0.3,-0.2 -0.6,-0.3 -0.9,-0.4 -0.5,0.3 -0.7,0.8 -1.1,1.1 -0.1,0 -0.4,-0.1 -0.4,-0.2 0,-0.8 0.3,-1.5 0.6,-2.1 0.2,0 0.5,0.1 0.7,0.1 z"
   id="path54" />
		<path
   class="st2"
   d="m 145.4,131.5 c -0.1,0.2 0.1,0.4 0.2,0.5 0.2,0.1 0.5,0.1 0.5,0.4 0.1,1.3 0.1,2.5 -0.7,3.5 -0.4,0.4 -0.9,0.5 -1.4,0.3 -1.2,-0.7 -0.4,-2 -0.6,-3.1 0,-0.4 -0.2,-1 0.2,-1.3 0.1,-0.1 0.3,-0.1 0.4,-0.3 0,-0.1 0,-0.2 -0.2,-0.3 -0.7,-0.1 -1.6,0.2 -2.3,0 -0.2,0 -0.4,0.1 -0.4,0.2 -0.1,0.2 0.1,0.4 0.2,0.4 0.3,0 0.4,0.2 0.5,0.5 0.4,1.6 -0.4,3.2 0.5,4.6 0.7,0.6 2.4,0.7 3.3,0.5 2,-1 1,-3.3 1.7,-5 0.2,-0.2 0.7,-0.1 0.8,-0.3 0.1,-0.2 0.2,-0.4 0.1,-0.6 -0.7,-0.2 -1.5,-0.1 -2.2,-0.1 -0.2,0 -0.4,-0.1 -0.6,0.1 z"
   id="path55" />
		<path
   class="st1"
   d="m 159,132.8 c -0.2,-0.2 -0.4,-0.3 -0.7,-0.2 -0.4,0.1 -0.4,0.5 -0.5,0.7 -0.1,0.4 -0.6,0.3 -0.9,0.4 -0.3,-0.1 -1.3,-0.7 -1.1,-1 0.4,-0.6 0.8,-1.5 0.1,-2.3 -0.6,-1.3 -2.3,-1 -3.3,-0.6 -0.8,0.5 -1.7,0.7 -2.4,1.2 -0.1,0.2 0,0.4 0.2,0.6 0.3,0.3 0.7,-0.1 1,-0.1 0.4,0.4 0.6,0.9 0.8,1.3 0.3,0.8 0.6,1.6 0.8,2.4 0.1,0.5 -0.4,1 0,1.3 0.5,-0.2 1,-0.3 1.5,-0.5 0.5,-0.3 -0.4,-1.5 -0.3,-1.9 0.1,-0.1 0.2,-0.2 0.4,-0.2 0.4,0.2 1.6,0.9 2,0.9 1.2,0 2,0 2.5,-1.2 0,-0.2 0.2,-0.6 -0.1,-0.8 z m -4.3,-0.3 c -0.2,0.2 -0.6,0.4 -0.8,0.3 -0.3,-0.2 -1.2,-1.9 -0.7,-2.1 0.6,-0.1 1.3,0 1.7,0.6 0.1,0.4 -0.1,0.9 -0.2,1.2 z"
   id="path56" />
		<path
   class="st2"
   d="m 127.2,58.6 c 0,0.9 0.6,1.3 0.3,2.1 -0.2,0.2 -0.1,0.3 -0.4,0.3 -0.1,-0.1 -0.3,0 -0.4,-0.1 -0.1,-0.4 -0.4,-0.8 -0.8,-0.9 -0.4,0 -1.7,0.5 -1.9,1 -0.1,0.3 -0.1,0.6 0.1,0.9 1.1,1.1 2.5,0 3.6,-0.1 0.5,0.1 0.9,0.3 1.3,0.6 0.7,0.8 1.1,1.9 0.8,2.9 -0.6,1.1 -1.6,2.3 -3,2.2 -0.5,0.1 -0.9,-0.5 -1.3,-0.1 0,0.3 0.1,0.6 -0.2,0.8 -0.2,0.1 -0.5,0 -0.7,-0.1 -0.3,-0.4 0.1,-0.9 0,-1.3 -0.1,-0.5 -0.5,-0.8 0.1,-1.2 0.8,-0.1 1.5,1 2.1,0.8 0.6,-0.2 0.9,-0.4 1.2,-1 0.1,-0.3 0.2,-0.6 0,-0.9 -0.2,-0.2 -0.4,-0.4 -0.8,-0.4 -0.8,0.1 -1.3,0.8 -2.1,0.7 -0.8,-0.1 -1.6,-0.4 -2.1,-1.2 -0.4,-0.7 -0.8,-1.5 -0.5,-2.3 0.3,-0.7 0.9,-1.4 1.6,-1.7 0.5,-0.2 1.2,-0.4 1.7,-0.3 0.6,-0.1 0.4,-1.1 1.2,-0.8 z"
   id="path57" />
		<path
   class="st2"
   d="m 167.9,61.6 c 0.3,0.3 0.3,0.9 0.9,1 0.3,0 0.7,-0.1 0.8,0.3 -0.3,0.6 -0.9,0.8 -1.4,1.2 l -0.6,0.5 c -0.1,0.1 -0.3,-0.1 -0.3,-0.2 -0.4,-0.8 0.4,-0.9 -0.1,-1.5 -0.2,-0.3 -0.5,-0.7 -0.9,-0.8 -0.3,0 -0.5,0.2 -0.6,0.4 -0.5,0.9 0.2,1.6 0.5,2.4 0.4,0.4 0.5,1 0.7,1.5 0.2,0.8 -0.1,1.5 -0.7,2 -0.9,0.6 -1.7,0.8 -2.8,0.5 -0.5,-0.3 -1.1,-0.5 -1.5,-1 L 161.3,67 c -0.4,-0.1 -0.8,0 -1.1,-0.3 -0.1,-0.2 0,-0.4 0.2,-0.6 l 1.6,-1.7 c 0.1,-0.1 0.3,-0.1 0.5,0 0.2,0.1 0.2,0.3 0.3,0.5 0,0.5 -0.6,0.8 -0.5,1.4 -0.1,0.7 0.6,1.1 1.1,1.4 0.3,0.1 0.8,0.2 1.1,0 0.4,-0.2 0.6,-0.7 0.4,-1.1 0,-0.9 -1.1,-1.3 -1.2,-2.1 -0.1,-0.7 -0.4,-1.7 0.1,-2.3 0.7,-1.1 2,-1.3 3.2,-1.1 0.2,-0.1 0.6,0.2 0.9,0.5 z"
   id="path58" />
		<path
   class="st2"
   d="m 117.1,64.1 c 0.1,0.7 -0.6,1 -0.1,1.6 0.6,1.1 1.9,1.9 2.4,3 0.3,0.4 0.5,0.9 1,1.1 0.5,0.3 1.2,-0.5 1.4,0.2 -0.2,0.6 -1,0.8 -1.4,1.2 -0.6,0.4 -1.2,1 -1.6,1.6 -0.1,0.1 -0.4,0.2 -0.6,0.1 -0.4,-0.6 0.4,-1.4 0.1,-2.1 -0.2,-0.5 -0.7,-0.9 -0.9,-1.3 -0.7,-1.1 -1.7,-2.2 -2.9,-2.9 -0.4,-0.2 -1,0.4 -1.2,-0.1 0,-0.4 0.4,-0.6 0.6,-0.8 0.8,-0.6 1.7,-1 2.4,-1.8 0.3,-0.1 0.7,-0.1 0.8,0.2 z"
   id="path59" />
		<path
   class="st2"
   d="m 172.2,67.1 c 0.5,0.4 0.5,1.1 0.4,1.7 -0.1,0.7 -0.7,1.1 -1.3,1.2 -0.6,0 -1.4,0 -1.7,-0.7 -0.2,-0.5 -0.1,-1.2 0.3,-1.7 0.3,-0.3 0.6,-0.7 1,-0.8 0.5,0.1 0.9,0.1 1.3,0.3 z"
   id="path60" />
		<path
   class="st2"
   d="m 110.6,69.9 c 0.1,0.2 0.1,0.5 0,0.7 -0.2,0.2 -0.4,0.5 -0.7,0.4 -0.2,-0.1 -0.6,-0.5 -0.8,-0.3 -0.2,0.2 -0.7,1.2 -0.5,1.3 0.2,0.2 0.8,0.5 1.1,0.4 1,-0.1 2.3,-1.3 3.4,-0.9 0.6,0 2.5,0.4 2.5,2.3 0,0.6 0,1.2 -0.2,1.7 -0.4,0.8 -1.1,1.8 -2.1,2 -0.2,0 -0.4,-0.1 -0.6,0 -0.3,0.3 -0.1,0.8 -0.5,1 -0.7,0.2 -0.8,-0.7 -1.1,-1.1 -0.2,-0.5 -0.4,-0.8 -0.5,-1.4 0,-0.1 0.2,-0.1 0.3,-0.2 1.2,-0.5 1.1,1.3 2.9,-0.1 0.3,-0.2 0.4,-0.6 0.4,-1 -0.3,-0.4 -0.1,-1.3 -1.3,-1 -1.2,0.2 -2.1,0.8 -3.2,1 -0.8,0.1 -1.5,-0.4 -2.1,-1 -0.4,-0.7 -0.5,-1.7 -0.1,-2.4 0.4,-0.5 1.3,-2.3 1.7,-2.1 0.5,0.1 1,0.3 1.4,0.7 z"
   id="path61" />
		<path
   class="st2"
   d="m 104.6,75.8 c 0.2,0.4 -0.2,0.7 -0.1,1.2 0.2,0.9 0.9,1.7 1.8,1.9 1.4,0.9 2.6,1.9 4.1,2.7 0.1,0.1 0.1,0.3 0.1,0.4 -0.7,0.7 -1.5,0.5 -2.4,0.5 -1.5,0 -3,0.1 -4.3,0.6 0.4,0.4 0.8,0.9 1.4,1 0.5,0.6 1.2,0.9 2,0.8 0.4,0 0.4,-0.6 0.8,-0.5 0.2,0.1 0.3,0.4 0.2,0.6 -0.7,1.1 -1.1,2.3 -1.7,3.5 -0.1,0.2 -0.3,0.3 -0.5,0.1 -0.4,-0.3 0,-0.8 -0.1,-1.2 0,-0.9 -0.9,-1.3 -1.5,-1.8 -1.1,-0.7 -2.3,-1.3 -3.6,-1.3 -0.5,0 -0.7,0.6 -1.2,0.5 -0.3,-0.2 0,-0.6 0.1,-0.9 0.4,-0.8 0.8,-1.4 1.8,-1.6 1.4,-0.4 3.1,-0.8 4.7,-0.8 0.3,0 0.4,-0.2 0.6,-0.4 -0.6,-0.6 -1.3,-1 -2,-1.4 -0.4,-0.3 -0.7,-0.5 -1.2,-0.6 -0.3,0.1 -0.5,0.5 -0.9,0.3 -0.2,-0.1 -0.4,-0.2 -0.4,-0.5 0,-0.3 0.3,-0.4 0.3,-0.6 0.5,-0.9 0.6,-2 1.5,-2.6 0.1,-0.1 0.3,0 0.5,0.1 z"
   id="path62" />
		<path
   class="st2"
   d="m 98.7,90.3 c 0.3,0.4 1.2,0.1 1.1,0.8 -0.3,0.4 -1.2,0 -1.6,0.2 -0.5,0.3 -0.8,0.9 -0.7,1.6 0,0.3 0.2,0.7 0.4,0.8 0.4,0.1 1.3,0.5 1.6,0 0,-0.3 0,-1.5 0.1,-1.6 0.4,-0.1 0.4,0.1 0.8,0.1 0.4,0 1,0 0.9,0.2 -0.4,0.8 -0.4,1.2 -0.9,1.7 0,0.1 0.1,0.1 0.2,0.2 0.9,-0.1 1.8,0.5 2.6,0.6 0.2,-0.6 0.2,-1.6 0.3,-2.2 0.1,-0.9 -1.5,-1.3 -1.2,-2.3 0.2,-0.3 0.5,-0.3 0.7,-0.2 0.6,0.3 1.2,0.3 1.6,0.9 0.6,0.8 0.1,2.5 -0.2,3.3 -0.5,1 -0.6,3.9 -0.7,4.1 -0.2,0.1 -0.4,0.1 -0.6,0 -0.7,-0.5 -0.1,-1.9 -1.7,-2 -1.4,-0.1 -2.7,-0.6 -4.1,-1 -0.8,-0.1 -0.6,1.3 -1.5,0.9 -0.6,-0.8 0.8,-5.1 1.1,-6.3 0.1,-0.2 0.1,-0.2 0.3,-0.2 0.6,0 1,0.3 1.5,0.4 z"
   id="path63" />
		<path
   class="st2"
   d="m 95.9,102.9 c 1.2,0.3 2.7,0.1 3.9,0.3 0.8,0 1.7,0.2 2.2,-0.5 0.1,-0.2 0.2,-0.5 0.4,-0.6 0.2,0 0.5,-0.1 0.7,0.1 l 0.1,0.2 c -0.1,1.2 -0.2,2.3 0.1,3.4 0,0.3 0,0.6 -0.3,0.8 -0.7,0.1 -1,-1.1 -1.7,-1.2 -1.3,-0.4 -2.7,-0.2 -4.1,-0.2 -0.9,-0.1 -1.3,0.6 -1.9,1.2 -0.1,0.1 -0.7,0 -0.7,-0.4 -0.1,-1 -0.3,-1.7 -0.1,-2.9 0.1,-0.4 0,-0.9 0.5,-1 0.5,-0.1 0.4,0.6 0.9,0.8 z"
   id="path64" />
		<path
   class="st2"
   d="m 103,110.2 c 0.3,0.1 0.7,-0.1 0.8,0.3 -0.1,0.6 0.2,1 0.2,1.5 0.3,1.1 1.3,4.2 1.3,4.6 -0.1,0.2 -0.3,0.4 -0.5,0.5 -1,0.1 -0.4,-0.9 -1.5,-0.7 -1.1,0.3 -3.5,1 -4.7,1 -0.2,0.1 -0.4,0.1 -0.5,0.3 0,0.3 0.1,0.7 -0.3,0.8 -0.4,0 -0.6,-0.4 -0.8,-0.6 -0.4,-1 -1.4,-2 -1,-3.2 0.1,-0.2 0.3,-0.2 0.6,-0.3 0.6,0 0.5,1 1.1,0.9 0.6,-0.2 1.7,-0.2 2.4,-0.3 0.8,-0.5 3.1,0.1 2.9,-1 -0.5,-3.2 -1.5,-2.5 -2.5,-3.6 -0.3,-0.3 0.3,-0.3 0.5,-0.4 0.8,-0.2 1.4,0.1 2,0.2 z"
   id="path65" />
		<path
   class="st2"
   d="m 185.5,111.7 c 1.2,0.8 2.8,0.8 4.3,1.1 0.6,0.1 1.2,0.6 1.7,0.2 0.2,-0.3 0.3,-0.6 0.6,-0.8 0.3,0 0.6,0.1 0.6,0.4 -0.1,0.7 -0.5,1.3 -0.6,2 -0.5,1 -0.8,2 -0.9,3.2 -0.1,0.2 -0.2,0.5 -0.5,0.6 -0.8,0.1 -1.4,-0.1 -2.1,-0.2 -0.2,-0.1 -0.5,-0.6 -0.3,-0.6 1.7,0 2.5,-2.3 2.4,-2.5 -0.1,-0.3 -1.6,-0.3 -2.2,-0.5 -0.4,-0.1 0.3,1.3 -0.5,1.5 -0.6,0.1 -0.3,-0.1 -0.9,-0.1 -0.2,-0.1 -0.4,-0.3 -0.5,-0.5 -0.1,-0.3 0,-0.6 0.2,-0.7 0.1,-0.1 0.2,-0.1 0.3,-0.3 0.1,-0.3 -0.3,-0.4 -0.5,-0.5 -0.7,-0.1 -1.8,-1 -2.2,-0.4 -0.2,0.9 -0.7,2 0.6,3.3 0.1,0.1 0,0.3 -0.2,0.3 l -0.4,-0.1 -1.5,-1 c -0.3,-0.3 -0.1,-0.8 0,-1.2 0.3,-1.1 0.6,-2 1,-3 0.2,-0.4 0.3,-0.9 0.7,-1.2 0.6,0 0.3,0.8 0.9,1 z"
   id="path66" />
		<path
   class="st2"
   d="m 181.9,120.4 v 0.6 c 0.9,1 2,1.7 3.2,2.1 0.9,0.7 1.8,1.2 2.8,1.7 0.3,0.2 0.5,0.4 0.3,0.8 -0.9,1 -2.6,0.6 -3.9,0.6 -0.1,-0.1 -0.8,-0.2 -0.9,-0.2 -0.2,0.2 0.3,0.9 0.4,1.1 0.5,1 1,1.6 1.5,2.6 0,0.2 -0.1,0.3 -0.2,0.5 -0.9,0.1 -1.6,-0.6 -2.4,-1 -0.5,-0.2 -0.8,-0.6 -1.2,-0.7 -0.9,-0.3 -2.1,-1.5 -3,-0.9 -0.3,0.2 -0.6,0 -0.9,-0.2 0,-0.7 0.5,-1.4 0.8,-2 0.4,-0.2 0.2,-1 0.8,-0.7 0.6,0.3 -0.1,1.1 0.6,1.2 0.6,0.3 3,1.4 3.5,2 0.2,0.1 -2,-2.9 -2,-3.6 0,-0.3 4.1,0.3 4.1,0.1 -0.1,-0.3 -2.4,-1.3 -2.6,-1.4 -0.6,0 -1.3,-1 -2.1,0.4 -0.1,0.2 -0.5,0 -0.6,-0.2 0.1,-0.3 0.3,-0.5 0.4,-0.8 0.4,-0.7 0.2,-1.8 1.1,-2.2 0,-0.2 0.1,0 0.3,0.2 z"
   id="path67" />
		<path
   class="st2"
   d="m 176,131 c 0.3,0.8 1.3,1 1.9,1.6 1,0.7 1.6,2.2 2.9,2.2 0.5,0 1.1,-0.3 1.3,0.1 0.2,0.7 -0.6,0.7 -0.9,1 -0.5,0.6 -1.1,1.1 -1.6,1.7 -0.1,0.1 -0.3,0.1 -0.5,0 -0.2,-0.3 0.3,-0.8 0.1,-1.1 -0.3,-0.5 -1.5,-1.4 -2,-1.7 -0.9,-0.7 -1.2,-1.5 -2.3,-1.9 -0.6,-0.2 -1.2,0.7 -1.6,0 0,-0.9 0.9,-1.3 1.3,-2 0.4,-0.3 0.6,-0.8 1,-1.1 0.5,0.2 0.2,0.9 0.4,1.2 z"
   id="path68" />
		<path
   class="st2"
   d="m 115.2,133.3 c 0.1,0.9 0.8,1.6 1.6,1.8 0.1,0.2 -0.1,0.4 -0.3,0.5 -0.4,0.2 -0.9,0.1 -1.4,0.2 -0.4,0.4 -0.5,0.2 -1,0.4 -0.2,0.1 -0.4,0 -0.5,-0.2 v -0.2 c 0.4,-0.3 0.6,-0.4 0.7,-0.9 0.1,-0.8 -0.7,-1.5 -1.3,-1.9 -0.3,-0.1 -0.6,-0.1 -0.9,0.1 -0.4,0.3 -0.2,0.8 0,1.3 0.3,0.7 0.3,1.3 0.4,2.1 0,1 -0.2,1.9 -0.9,2.5 -0.6,0.3 -1.2,0.7 -2,0.5 -0.6,0 -1.1,-0.6 -1.5,-1 -0.4,-0.7 -0.9,-1.3 -1.2,-2 0,-0.5 0.5,-0.6 0.8,-0.8 l 1.1,-0.3 c 0.6,0.4 -0.3,0.7 -0.3,1.1 -0.1,0.6 0.2,1.1 0.7,1.4 0.4,0.2 0.9,0.1 1.3,-0.1 0.3,-0.2 0.1,-0.6 0.2,-1 -0.2,-1.3 -1.1,-2.5 -0.7,-4 0.1,-0.5 0.4,-1 0.9,-1.3 1.3,-0.5 2.7,0.1 3.7,0.9 0.3,0.3 0.5,0.6 0.6,0.9 z"
   id="path69" />
		<path
   class="st2"
   d="m 162.5,141.5 c -0.1,0.4 -0.8,0.5 -0.5,0.9 0.3,0.7 0.2,1.5 0.8,2.1 0.3,0.8 0.6,2.2 1.3,2.8 0.4,0.5 0.9,-0.1 1.4,0 0.2,0.1 0.3,0.4 0.3,0.6 -0.2,0.6 -0.9,0.4 -1.3,0.6 -1.3,0.5 -2.8,1.1 -4,1.6 -0.3,0.1 -0.4,0.8 -0.9,0.5 -0.5,-0.5 -0.5,-1.3 -1,-1.9 0,-0.2 -0.1,-0.4 0.1,-0.5 0.3,-0.1 0.5,0.2 0.7,0.3 0.4,0 0.4,0.6 0.8,0.4 0.3,-0.3 1.4,-0.7 1.4,-0.7 l -0.6,-1.7 c -0.2,-0.2 -0.4,-0.2 -0.6,-0.2 -0.4,0.3 -0.2,0.8 -0.6,1 -0.2,0 -0.3,-0.2 -0.4,-0.4 -0.3,-0.6 -0.4,-0.8 -0.3,-1.5 0.4,-0.4 0.8,0.2 1.3,0.1 0.2,-0.1 0.1,-0.4 0,-0.6 -0.6,-0.5 -0.4,-2.2 -1.6,-1.7 -0.5,0.2 -1.2,0.4 -1.4,1 -0.2,0.3 -0.1,0.9 -0.6,1 -0.2,0 -0.4,0 -0.4,-0.2 -0.1,-0.4 0.1,-0.6 0.2,-0.9 0,-0.3 -0.3,-0.9 0.1,-1.1 1.2,-0.5 2.5,-0.7 3.7,-1.2 0.4,-0.2 1.3,-0.9 1.8,-0.6 z"
   id="path70" />
		<path
   class="st1"
   d="m 191.5,91.4 c -0.1,-0.2 -0.3,-0.4 -0.6,-0.4 -0.8,0.3 -1.5,-0.1 -2.3,-0.1 -0.3,-0.1 -3.2,-0.2 -4.3,-0.7 -1,-0.5 -1.2,-1.3 -1.2,-1.3 -0.1,-0.3 -0.7,-0.5 -0.8,-0.2 -0.1,0.4 -0.1,1 0.2,1.5 0.3,0.7 0.4,1.2 0.7,1.9 0.1,0.2 0.3,0.3 0.5,0.2 0.2,0 0.2,-0.8 0.1,-1 0.1,-0.2 0.5,0.1 0.7,0.1 0.4,0 0.5,0.1 0.8,0.3 0.2,0.5 0.3,1.4 0.5,1.9 0,0.4 0.2,0.8 0.1,1.2 -0.1,0.2 -0.6,0.6 -0.9,0.5 -0.4,-0.1 -0.5,-0.7 -0.9,-0.7 -0.3,0.1 -0.2,0.4 -0.2,0.6 0.2,0.5 0.1,2.5 0.4,3 0.1,0.2 0.3,0.5 0.6,0.4 0.9,-0.6 0,-0.6 0.8,-1.3 0.9,-0.7 4.1,-3.6 4.7,-3.9 0.3,-0.1 0.9,-0.8 1.1,-1.1 0,-0.3 0.1,-0.6 0,-0.9 z m -5,2.6 c -0.2,0 -0.2,-0.2 -0.3,-0.3 l -0.3,-2 c 0.5,-0.4 2.4,0.2 3.2,0.2 0.6,0 -2.1,1.7 -2.6,2.1 z"
   id="path71" />
		<path
   class="st1"
   d="m 180.3,71.5 c -0.1,-0.3 -0.4,-0.3 -0.7,-0.3 -2,0.6 -3.8,1.6 -5.7,2.3 -0.6,0 -1.3,0.1 -1.8,-0.2 -0.2,0 -0.6,-0.2 -0.8,0 -0.1,0.3 0,0.5 0.2,0.7 0.8,0.5 1.3,1.8 2.1,1.8 0.4,0 -0.1,-0.6 0.5,-0.9 0.9,-0.4 1.7,0.8 2.2,1.5 0.1,0.3 0,0.6 -0.1,0.9 -0.1,0.2 -0.4,0 -0.7,0 -0.2,0 -0.4,-0.3 -0.6,0 0,0.1 -0.1,0.4 0,0.5 0.7,0.3 1.1,1 1.5,1.6 0.3,0.2 0.5,0.9 0.8,0.7 0.5,-0.4 0.2,-0.7 0.2,-1.1 0.1,-0.9 0.9,-2 1.3,-3.2 0.3,-1.6 1.4,-3 1.6,-4.3 z m -3.4,3.6 c -0.5,0 -1,-0.7 -1.3,-1.1 0.3,-0.4 1.8,-1.1 2.1,-1.3 0.5,-0.1 -0.5,2.2 -0.8,2.4 z"
   id="path72" />
		<path
   class="st1"
   d="m 173.3,142.8 c -0.4,-1.5 -0.9,-3.1 -1.1,-4.7 -0.1,-0.6 -0.2,-1.4 -0.1,-2 0.2,-0.4 0.6,-0.8 0.7,-1.3 -0.1,-0.2 -0.3,-0.3 -0.5,-0.3 -0.5,0.5 -1.1,0.8 -1.7,1.1 -0.3,0.5 -0.6,0.2 -0.8,0.8 0.1,0.3 0.5,0.3 0.8,0.3 0.3,0.1 0.2,0.4 0.2,0.6 -0.4,0.8 -1.3,1.3 -2,1.7 -0.2,0 -0.4,-0.1 -0.5,-0.3 -0.4,-0.4 -0.1,-0.5 -0.2,-1 -0.1,-0.1 -0.2,-0.2 -0.4,-0.2 -0.7,0.6 -1.6,0.9 -2.3,1.6 -0.2,0.2 -0.5,0.2 -0.4,0.5 0.1,0.2 0.2,0.5 0.4,0.7 0.2,0.1 0.5,0.1 0.6,0 1.5,-0.8 2.4,1.3 3.6,2 0.9,0.2 2.2,1.8 2.8,1.7 0.5,-0.1 0.8,-0.2 1.2,-0.6 0.1,-0.1 -0.2,-0.3 -0.3,-0.6 z m -1.6,-0.9 c -0.4,-0.1 -1.7,-1.7 -2,-1.8 -0.1,-0.1 -0.2,0 -0.3,-0.2 v -0.2 c 0.3,-0.3 1.5,-1.5 1.8,-0.6 0.1,0.4 0.6,2.1 0.7,2.5 0.1,0.2 0,0.3 -0.2,0.3 z"
   id="path73" />
		<path
   class="st1"
   d="m 110.2,127.2 c -0.4,-0.8 -0.9,-2.4 -1.4,-2.4 -0.7,0 0,1.1 -0.6,1.5 -0.3,0.2 -0.6,0.2 -0.9,0.1 -0.7,-0.3 -0.7,-0.6 -1.1,-1.5 -0.2,-0.4 -0.7,-0.8 -0.3,-1.3 0.3,-0.3 0.4,-0.8 0.9,-0.8 0.2,0 0.2,0.3 0.3,0.4 0.1,0.2 0.2,0.6 0.6,0.5 0.1,0 0.3,-0.1 0.3,-0.3 -0.1,-0.9 -0.8,-1.5 -1.1,-2.3 -0.4,-0.4 -0.2,-1.3 -1,-1.4 -0.5,0.2 -0.1,0.8 -0.3,1.2 -0.6,0.7 -1,1.5 -1.7,2.2 -0.6,0.7 -1.2,1.6 -1.9,2.3 l -0.7,1.2 c -0.1,0.3 -0.4,0.8 0,0.9 2.2,0.2 4.1,0.1 6.1,0.1 0.8,0 1.8,-0.2 2.4,0.5 0.2,0.2 0.3,0.5 0.6,0.6 0.2,0.1 0.4,0.1 0.6,-0.1 -0.1,-0.6 -0.6,-1 -0.8,-1.4 z m -5,-0.7 c -0.6,0 -1.5,0 -2,0.1 -0.1,-0.1 1.4,-1.5 1.4,-1.6 0.4,-0.4 0.7,0.5 0.7,0.5 0,0 0.2,0.8 0.5,0.9 0,0 -0.4,0.1 -0.6,0.1 z"
   id="path74" />
		<path
   class="st2"
   d="m 179.7,85 c -0.4,-0.8 -0.6,-1.4 -0.6,-1.9 0,-0.5 0.4,-1 0.5,-1.5 0.2,-0.6 0.8,-1.1 1.3,-1.5 0.5,-0.4 1.1,-0.7 1.8,-0.9 0.6,0 1.3,-0.3 1.8,-0.3 0.5,0 1,0.2 1.4,0.4 0.5,0.2 0.7,0.6 1.1,1 1.2,1.6 1.4,3.4 0.8,3.7 l -0.2,0.1 -0.7,0.3 c -0.3,0.2 -0.5,0.2 -0.6,0.3 -0.1,0.1 -0.2,0.1 -0.3,0.1 -0.1,0 -0.2,0 -0.2,0 -0.1,0 -0.1,-0.1 -0.1,-0.1 0,-0.1 0.1,-0.2 0.3,-0.5 0.1,-0.1 0.2,-0.2 0.2,-0.3 0.3,-0.4 0.5,-0.4 0.6,-0.7 0.1,-0.3 0,-0.9 0,-1.1 -0.1,-0.6 -0.5,-1.1 -1.1,-1.3 -0.6,-0.2 -1.3,-0.1 -2.1,0.2 -0.9,0.3 -1.5,0.5 -2,1.1 -0.5,0.5 -0.7,1.3 -0.4,2 0.1,0.3 0.1,0.4 0.3,0.5 0.1,0.4 1.2,1.8 1.5,1.7 0.3,0.2 -0.2,0.6 -0.2,0.6 -0.4,-0.1 -2.5,-0.8 -3.1,-1.9 z"
   id="path75" />
		<path
   class="st2"
   d="m 129.3,150.7 c -0.2,-0.1 -0.3,-0.2 -0.4,-0.3 -0.1,-0.1 -0.1,-0.2 0,-0.3 0.1,-0.2 0.7,-0.2 0.7,-0.2 0.2,0 0.4,-0.4 0.7,-1.1 0.1,-0.1 0.5,-1.4 0.6,-1.9 0,-0.1 0.2,-0.9 0.2,-1 0.2,-0.6 0,-1 -0.1,-1.3 -0.1,-0.3 -0.4,-0.6 -0.9,-0.8 -0.6,-0.2 -0.8,-0.1 -1.2,0 -0.4,0.2 -0.7,0.3 -0.8,0.8 0,0.1 -0.4,0.7 -0.5,0.8 l -1,1.9 c -0.3,0.8 -0.5,1.4 -0.4,1.5 0,0.1 0.1,0.1 0.2,0.2 0.2,0.2 0.4,0.5 0.3,0.6 0,0.1 -0.1,0.2 -0.2,0.2 -0.1,0 -0.2,0 -0.3,0 l -2.2,-0.9 c -0.1,-0.1 -0.2,-0.1 -0.3,-0.2 -0.1,-0.1 -0.1,-0.2 0,-0.3 0.1,-0.1 0.2,-0.2 0.4,-0.2 0,0 0.6,0.1 0.7,0.1 0.1,0 1.4,-2.6 1.4,-2.6 0,-0.1 0.6,-1.4 0.7,-1.6 0.3,-0.7 0.7,-1.2 1.3,-1.4 0.6,-0.2 1.3,-0.2 2.2,0.2 1.1,0.4 1.8,0.8 2.2,1.4 0.4,0.6 0.5,2.5 0.3,3 -0.1,0.2 -0.2,0.8 -0.3,0.9 l -0.3,1.6 c 0,0.1 -0.1,0.5 -0.1,0.6 0,0.1 -0.1,0.4 -0.1,0.5 0,0.1 0.2,0.3 0.2,0.3 0.2,0.2 0.2,0.3 0.2,0.5 0,0.1 -0.1,0.2 -0.2,0.2 -0.1,0 -0.2,0 -0.3,0 z"
   id="path76" />
		<path
   class="st1"
   d="m 199.2,99.3 c -0.4,-2.1 -0.4,-4.4 -1.2,-6.4 -0.6,-3.4 -1.8,-6.5 -2.9,-9.6 -0.6,-1.2 -1,-2.4 -1.8,-3.4 -0.4,-0.8 -0.9,-1.6 -1.3,-2.4 -0.9,-1.1 -1.3,-2.5 -2.1,-3.6 -1.1,-1.1 -1.8,-2.5 -2.8,-3.7 -0.9,-1.3 -2.2,-2.4 -3.2,-3.7 -0.9,-0.4 -1.2,-1.5 -2.1,-2 -0.3,-0.7 -1.2,-0.8 -1.6,-1.5 -1.1,-1 -2.1,-2.1 -3.3,-3 -1.8,-1.5 -4,-1.9 -5.7,-3.5 l -1.5,-0.7 c -1.3,-1 -2.8,-1.3 -4.2,-2.1 -1.2,-0.6 -2.4,-1.1 -3.6,-1.6 -1,-0.3 -1.9,-0.8 -2.9,-0.9 -0.3,0 -0.5,-0.3 -0.7,-0.2 -2.4,0 -4.4,-0.9 -6.6,-1.2 -2,-0.1 -4,-0.4 -6,-0.7 -0.9,0.1 -1.8,-0.1 -2.6,0.1 -1.6,0.1 -3.2,0.1 -4.8,0.4 -2.3,0.4 -4.7,0.6 -6.8,1.6 -2.3,0.8 -4.6,1.6 -6.9,2.4 -0.5,0.3 -1,0.5 -1.6,0.6 -1.4,0.4 -2.5,1.3 -3.9,1.7 -1.5,0.9 -3.1,1.3 -4.4,2.5 -1.5,0.6 -2.8,1.5 -4.1,2.6 -1.5,0.7 -2.9,1.9 -4.2,3 -1.3,1.6 -3,2.7 -4.3,4.2 -0.5,0.7 -1.1,1.4 -1.5,2.1 -0.7,0.8 -1.3,1.6 -1.9,2.5 -0.8,0.8 -1.4,1.8 -2,2.7 -0.7,1.3 -1.6,2.6 -2.3,3.9 -0.3,1 -0.8,1.9 -1.2,2.8 -0.7,1.1 -1.1,2.4 -1.6,3.6 -0.4,1.3 -1,2.6 -1.3,4 -0.1,0.5 -0.5,0.9 -0.4,1.4 -0.4,1 -0.5,2.2 -0.7,3.3 -0.1,1.8 -0.7,3.4 -0.7,5.2 0,1.5 -0.1,3.1 -0.1,4.6 0.1,2.5 0,5.1 0.3,7.6 0.2,1.1 0.1,2.2 0.5,3.2 0.7,2.8 1.3,5.7 2.4,8.4 0.5,2 1.5,3.8 2.2,5.7 0.6,1 1.5,1.9 1.8,3.1 0.8,1.2 1.3,2.6 2.3,3.7 0.1,0.4 0.7,0.6 0.7,1.1 0.6,0.6 1,1.4 1.5,2.1 0.7,0.7 1.2,1.5 2,2.2 0.2,0.6 0.9,1 1.2,1.5 0.6,0.6 1.4,1 1.8,1.7 1.1,0.4 1.8,1.5 2.8,2.3 2.4,2.1 5,3.9 7.8,5.3 1.2,0.5 2.4,1.3 3.6,1.8 1.6,0.8 3.3,1.4 4.9,2.2 1.5,0.2 2.7,0.9 4.2,0.9 0.6,0 1,0.4 1.6,0.4 2,0.4 4,1 6,1.3 3.2,0.1 6.6,0.7 9.8,0.1 4.4,0.1 8.5,-0.6 12.4,-1.7 1.8,-0.7 3.7,-1.1 5.6,-1.8 2.2,-1.2 4.6,-1.9 6.7,-3.1 0.6,-0.2 1.1,-0.7 1.6,-0.8 1.6,-0.8 3,-2.1 4.5,-3.1 2.2,-1.4 4.2,-3 6.2,-4.7 1.7,-1.9 3.5,-3.9 4.8,-6 1.6,-2 3.1,-4.1 4.2,-6.3 0.2,-0.2 0.3,-0.5 0.4,-0.7 0.1,-0.6 0.4,-1 0.6,-1.5 0.5,-1.7 1.6,-3.1 2.1,-4.8 0.4,-0.9 0.6,-1.9 0.9,-2.9 0.6,-1.7 1.2,-3.5 1.6,-5.3 0.6,-3.3 1.3,-6.6 1.6,-10 0.7,-2.5 0.2,-4.7 0.2,-6.9 z m -1.5,8.8 c -0.3,3 -0.8,6 -1.5,8.8 -0.2,2.2 -1.5,3.7 -1.9,5.8 -0.5,1.2 -0.7,2.8 -1.5,3.9 -0.9,1.7 -1.7,3.2 -2.5,4.9 -1.1,2.1 -5.7,9.6 -10.2,12.4 -1.7,1.2 -3.4,2.4 -5,3.7 L 173,149 c -1.1,0.2 -1.7,1.2 -2.7,1.7 -0.7,0.5 -1.5,0.7 -2.2,1 -2.2,1.2 -4.5,2.4 -6.9,3 -1.8,0.8 -3.9,1 -5.7,1.8 -2.4,0.4 -4.8,0.7 -7.3,1 -2.5,0 -5,0.5 -7.4,0.1 -1.4,-0.4 -3.1,-0.3 -4.6,-0.3 -0.7,0.1 -1.2,-0.3 -1.8,-0.4 -1.7,-0.3 -3.2,-0.9 -5,-1 -2,-0.4 -3.9,-1.2 -5.8,-1.7 -0.4,-0.3 -0.9,-0.3 -1.3,-0.5 -1.9,-1.2 -4.1,-1.8 -6,-3.1 l -0.4,-0.2 c -1.5,-1.2 -3.1,-2.1 -4.6,-3.1 -1.7,-1.4 -3.6,-2.5 -5.3,-4.1 -1.1,-0.9 -2,-2.2 -2.9,-3.2 -0.8,-0.6 -1.4,-1.5 -2.1,-2.2 -1.4,-1.5 -2.1,-3.3 -3.4,-4.9 -1.1,-1.5 -1.6,-3.1 -2.5,-4.7 -0.5,-1.2 -1.2,-2.3 -1.6,-3.6 -0.7,-1.9 -1.1,-4 -2,-5.9 -0.3,-1.3 -0.8,-2.6 -0.9,-4 -0.3,-2.1 -0.8,-4.1 -0.6,-6.4 -0.2,-1.2 -0.3,-2.7 -0.1,-3.9 -0.2,-0.5 0,-1 0.1,-1.5 -0.2,-1 0.3,-2 0,-3 0,-1.8 0.6,-3.2 0.6,-5.1 0.2,-1.1 0.5,-2.3 0.6,-3.5 0.3,-0.7 0.4,-1.4 0.8,-2 0.1,-1.2 0.7,-2.3 1,-3.4 0.5,-1.4 1.1,-2.7 1.8,-3.9 0.8,-1.4 1.4,-2.8 2,-4.3 1.1,-1.5 1.8,-3.1 3.2,-4.5 0.7,-1.3 1.7,-2.5 2.7,-3.6 0.4,-1.1 1.6,-1.8 2.4,-2.7 1.7,-1.7 3.5,-3 5.5,-4.1 1.2,-0.7 2.3,-1.7 3.6,-2.4 0.2,-0.3 0.6,-0.3 0.9,-0.5 2,-1.3 4.1,-2.7 6.3,-3.6 2.8,-1.5 5.8,-2.3 8.8,-3.3 1.1,-0.2 2.2,-0.5 3.2,-0.9 1,-0.1 1.8,-0.4 2.7,-0.6 0.9,-0.2 2,-0.2 2.8,-0.6 2,-0.3 4,0.2 6.1,0.2 0.8,0.1 1.6,-0.2 2.4,-0.1 0.5,0 1,0 1.5,-0.1 1.6,0 3.1,0.3 4.6,0.5 0.7,0.2 1.5,0.4 2.2,0.6 1,0 1.8,0.6 2.7,0.8 1,0.4 2,0.4 3,0.7 2.4,1 4.9,1.9 7.3,3 1.7,1.3 3.7,1.8 5.4,3.3 1.4,0.9 2.8,1.9 4.1,2.9 0.7,0.4 1.2,1.2 1.8,1.7 0.9,0.9 1.8,1.7 2.6,2.5 0.8,0.7 1.4,1.5 2.2,2.1 0.7,0.8 1.3,1.7 2,2.5 1.5,2 2.9,3.9 4,6 1.1,1.3 1.8,2.8 2.5,4.3 0.8,2.3 1.9,4.4 2.4,6.7 0.5,2 1.3,3.8 1.7,5.8 0.3,1.6 0.5,3.4 0.6,5.1 0.2,1.4 0.3,3 0.1,4.4 0,1.6 0,3 -0.4,4.3 z"
   id="path77" />
		<path
   class="st1"
   d="m 193,100.2 c -0.6,-0.9 -0.7,0.5 -0.9,0.8 -0.6,0.2 -1.4,0.4 -2.1,0.4 -1.4,-0.3 -2.4,0.3 -3.8,0 -0.2,-0.1 -0.7,0.2 -0.8,-0.2 -0.2,-0.3 -0.4,-0.6 -0.8,-0.6 -0.1,0 -0.2,0.1 -0.2,0.2 0.3,1.1 0.2,2.7 0.3,3.8 0,0.7 1.4,2.7 1.9,3 0.8,0.5 1.7,0.6 2.7,0.6 0.9,0 1.7,-0.7 2.4,-1.3 l 0.8,-1 c 0.2,-0.3 0.1,-0.6 0.3,-0.9 0.1,-0.7 0.3,-1.6 0.3,-2.5 -0.1,-0.7 0.1,-1.6 -0.1,-2.3 z m -1.5,4.9 c -1,1.4 -2.9,1.1 -4.3,0.9 -0.5,-0.2 -1,-0.6 -1.2,-1.1 -0.1,-0.3 -0.2,-1.1 0,-1.3 0.7,-0.4 1.6,-0.2 2.3,-0.1 0.7,0.1 3,-0.3 3.3,0 0,0.2 0,1.3 -0.1,1.6 z"
   id="path78" />
	</g>
	
</g>
</svg>
