<?xml version="1.0" encoding="UTF-8" standalone="no"?>
<!-- Created with Inkscape (http://www.inkscape.org/) -->

<svg
   width="531.04401mm"
   height="110.218mm"
   viewBox="0 0 531.04401 110.218"
   version="1.1"
   id="svg1"
   inkscape:version="1.4.2 (ebf0e940, 2025-05-08)"
   sodipodi:docname="logo-mobilise-d.svg"
   xmlns:inkscape="http://www.inkscape.org/namespaces/inkscape"
   xmlns:sodipodi="http://sodipodi.sourceforge.net/DTD/sodipodi-0.dtd"
   xmlns="http://www.w3.org/2000/svg"
   xmlns:svg="http://www.w3.org/2000/svg">
  <sodipodi:namedview
     id="namedview1"
     pagecolor="#ffffff"
     bordercolor="#000000"
     borderopacity="0.25"
     inkscape:showpageshadow="2"
     inkscape:pageopacity="0.0"
     inkscape:pagecheckerboard="0"
     inkscape:deskcolor="#d1d1d1"
     inkscape:document-units="mm"
     inkscape:zoom="0.22573192"
     inkscape:cx="567.0443"
     inkscape:cy="465.15352"
     inkscape:window-width="1280"
     inkscape:window-height="747"
     inkscape:window-x="0"
     inkscape:window-y="25"
     inkscape:window-maximized="0"
     inkscape:current-layer="layer1" />
  <defs
     id="defs1">
    <clipPath
       clipPathUnits="userSpaceOnUse"
       id="clipPath2">
      <path
         d="M 0,5952.75 H 2409 V 0 H 0 Z"
         transform="translate(-901.582,-5419.045)"
         id="path2" />
    </clipPath>
    <clipPath
       clipPathUnits="userSpaceOnUse"
       id="clipPath4">
      <path
         d="M 0,5952.75 H 2409 V 0 H 0 Z"
         transform="translate(-1053.2959,-5423.107)"
         id="path4" />
    </clipPath>
    <clipPath
       clipPathUnits="userSpaceOnUse"
       id="clipPath6">
      <path
         d="M 0,5952.75 H 2409 V 0 H 0 Z"
         transform="translate(-1025.523,-5571.5338)"
         id="path6" />
    </clipPath>
    <clipPath
       clipPathUnits="userSpaceOnUse"
       id="clipPath8">
      <path
         d="M 0,5952.75 H 2409 V 0 H 0 Z"
         transform="translate(-1200.3399,-5389.1671)"
         id="path8" />
    </clipPath>
    <clipPath
       clipPathUnits="userSpaceOnUse"
       id="clipPath10">
      <path
         d="M 0,5952.75 H 2409 V 0 H 0 Z"
         transform="translate(-1385.0137,-5389.4601)"
         id="path10" />
    </clipPath>
    <clipPath
       clipPathUnits="userSpaceOnUse"
       id="clipPath12">
      <path
         d="M 0,5952.75 H 2409 V 0 H 0 Z"
         id="path12" />
    </clipPath>
    <clipPath
       clipPathUnits="userSpaceOnUse"
       id="clipPath14">
      <path
         d="M 0,5952.75 H 2409 V 0 H 0 Z"
         id="path14" />
    </clipPath>
    <clipPath
       clipPathUnits="userSpaceOnUse"
       id="clipPath16">
      <path
         d="M 0,5952.75 H 2409 V 0 H 0 Z"
         id="path16" />
    </clipPath>
    <clipPath
       clipPathUnits="userSpaceOnUse"
       id="clipPath18">
      <path
         d="M 0,5952.75 H 2409 V 0 H 0 Z"
         id="path18" />
    </clipPath>
    <clipPath
       clipPathUnits="userSpaceOnUse"
       id="clipPath20">
      <path
         d="M 0,5952.75 H 2409 V 0 H 0 Z"
         id="path20" />
    </clipPath>
    <clipPath
       clipPathUnits="userSpaceOnUse"
       id="clipPath22">
      <path
         d="M 0,5952.75 H 2409 V 0 H 0 Z"
         transform="translate(-1755.001,-5259.6891)"
         id="path22" />
    </clipPath>
    <clipPath
       clipPathUnits="userSpaceOnUse"
       id="clipPath24">
      <path
         d="M 0,5952.75 H 2409 V 0 H 0 Z"
         transform="translate(-1901.8263,-5391.213)"
         id="path24" />
    </clipPath>
    <clipPath
       clipPathUnits="userSpaceOnUse"
       id="clipPath26">
      <path
         d="M 0,5952.75 H 2409 V 0 H 0 Z"
         id="path26" />
    </clipPath>
    <clipPath
       clipPathUnits="userSpaceOnUse"
       id="clipPath28">
      <path
         d="M 0,5952.75 H 2409 V 0 H 0 Z"
         transform="translate(-2162.8906,-5295.3478)"
         id="path28" />
    </clipPath>
    <clipPath
       clipPathUnits="userSpaceOnUse"
       id="clipPath30">
      <path
         d="M 0,5952.75 H 2409 V 0 H 0 Z"
         transform="translate(-1143.7188,-5552.8771)"
         id="path30" />
    </clipPath>
  </defs>
  <g
     inkscape:label="Layer 1"
     inkscape:groupmode="layer"
     id="layer1">
    <g
       id="g1"
       transform="translate(188.24863,-39.519203)">
      <path
         id="path1"
         d="m 0,0 -14.716,34.836 -79.196,-194.489 h -41.372 l 92.371,225.848 c 2.844,6.733 6.553,11.913 10.771,15.472 5.244,4.423 11.154,6.636 17.426,6.636 6.271,0 12.181,-2.213 17.425,-6.636 4.116,-3.473 7.746,-8.488 10.561,-14.98 h 0.124 L 35.548,14.243 Z"
         style="fill:#99d420;fill-opacity:1;fill-rule:nonzero;stroke:none"
         transform="matrix(0.35277776,0,0,-0.35277776,-140.52344,93.313863)"
         clip-path="url(#clipPath2)" />
      <path
         id="path3"
         d="M 0,0 71.956,-163.715 H 30.265 l -58.462,132.357 -26.541,-62.828 h -0.305 l -1.042,-2.466 c -2.844,-6.733 -6.553,-11.913 -10.771,-15.473 -5.244,-4.423 -11.155,-6.637 -17.426,-6.637 -6.272,0 -12.182,2.214 -17.426,6.637 -4.218,3.559 -7.927,8.739 -10.771,15.473 l -27.29,64.598 h -0.12 l -4.916,11.637 35.549,14.243 24.974,-59.12 26.541,62.828 h 0.305 L -56.394,0 c 2.844,6.732 6.553,11.912 10.772,15.472 5.244,4.424 11.154,6.637 17.426,6.637 6.271,0 12.181,-2.213 17.425,-6.637 C -6.553,11.913 -2.844,6.734 0,0"
         style="fill:#316aba;fill-opacity:1;fill-rule:nonzero;stroke:none"
         transform="matrix(0.35277776,0,0,-0.35277776,-87.002152,91.880883)"
         clip-path="url(#clipPath4)" />
      <path
         id="path5"
         d="m 0,0 c 15.929,0 28.847,-12.917 28.847,-28.847 0,-15.929 -12.918,-28.847 -28.847,-28.847 -15.93,0 -28.847,12.918 -28.847,28.847 C -28.847,-12.917 -15.93,0 0,0"
         style="fill:#316aba;fill-opacity:1;fill-rule:evenodd;stroke:none"
         transform="matrix(0.35277776,0,0,-0.35277776,-96.799832,39.519203)"
         clip-path="url(#clipPath6)" />
      <path
         id="path7"
         d="m 0,0 -0.439,0.002 c -7.014,0 -13.395,-1.314 -19.144,-3.945 -5.748,-2.631 -10.668,-6.138 -14.76,-10.522 -4.092,-4.385 -7.21,-9.597 -9.352,-15.638 -2.144,-6.04 -3.216,-12.373 -3.216,-18.998 v -0.585 c 0,-6.819 1.169,-13.201 3.507,-19.144 2.339,-5.942 5.602,-11.204 9.792,-15.783 4.189,-4.579 9.157,-8.183 14.906,-10.814 5.707,-2.612 11.942,-3.927 18.706,-3.946 v -30.688 l -0.439,-0.001 c -11.691,0 -22.554,2.094 -32.588,6.284 -10.036,4.189 -18.707,9.888 -26.014,17.098 -7.307,7.21 -13.006,15.686 -17.098,25.429 -4.092,9.743 -6.138,20.069 -6.138,30.981 v 0.584 c 0,11.108 2.094,21.532 6.284,31.275 4.189,9.742 9.937,18.267 17.244,25.575 7.308,7.307 15.978,13.104 26.014,17.39 9.993,4.269 20.905,6.411 32.735,6.429 z m 0.146,-99.374 c 7.209,0 13.688,1.316 19.436,3.947 5.749,2.631 10.669,6.187 14.761,10.668 4.092,4.482 7.21,9.694 9.353,15.637 2.144,5.943 3.215,12.227 3.215,18.852 v 0.584 c 0,6.82 -1.169,13.25 -3.508,19.291 -2.338,6.041 -5.602,11.302 -9.792,15.784 -4.189,4.481 -9.157,8.037 -14.905,10.668 C 13.077,-1.368 6.843,-0.054 0,0 v 30.983 l 0.146,0.001 c 11.886,0 22.846,-2.095 32.881,-6.284 10.036,-4.189 18.706,-9.937 26.014,-17.245 7.306,-7.307 13.006,-15.783 17.098,-25.428 4.091,-9.645 6.138,-20.021 6.138,-31.128 v -0.585 c 0,-10.911 -2.094,-21.238 -6.284,-30.981 -4.189,-9.743 -9.938,-18.268 -17.245,-25.575 -7.307,-7.307 -16.026,-13.104 -26.159,-17.39 -10.007,-4.235 -20.87,-6.376 -32.589,-6.429 v 30.688 z"
         style="fill:#99d420;fill-opacity:1;fill-rule:nonzero;stroke:none"
         transform="matrix(0.35277776,0,0,-0.35277776,-35.128311,103.85412)"
         clip-path="url(#clipPath8)" />
      <path
         id="path9"
         d="m 0,0 c -5.88,-0.056 -11.482,-1.224 -16.807,-3.506 -5.455,-2.338 -10.228,-5.699 -14.321,-10.083 -4.092,-4.385 -7.355,-9.597 -9.791,-15.637 -2.435,-6.041 -3.654,-12.763 -3.654,-20.168 v -0.585 c 0,-7.404 1.219,-14.175 3.654,-20.313 2.436,-6.138 5.699,-11.35 9.791,-15.637 4.093,-4.286 8.866,-7.599 14.321,-9.937 5.325,-2.282 10.927,-3.45 16.807,-3.505 v -30.234 c -8.898,0.984 -16.546,3.56 -22.944,7.726 -8.378,5.455 -15.296,11.789 -20.751,18.998 v -23.967 H -79.062 V 86.517 h 35.367 V 1.755 c 5.65,8.184 12.665,15.053 21.044,20.606 6.368,4.221 13.919,6.837 22.651,7.85 z m 0.438,-99.374 c 6.041,0 11.741,1.169 17.099,3.508 5.359,2.338 10.035,5.601 14.029,9.791 3.995,4.189 7.162,9.353 9.5,15.491 2.337,6.138 3.507,13.007 3.507,20.605 v 0.585 c 0,7.405 -1.17,14.176 -3.507,20.314 -2.338,6.138 -5.505,11.351 -9.5,15.637 -3.994,4.286 -8.67,7.599 -14.029,9.937 C 12.179,-1.167 6.479,0.002 0.438,0.002 L 0,0 v 30.211 c 2.756,0.319 5.63,0.48 8.622,0.48 9.158,0 18.024,-1.754 26.598,-5.261 8.574,-3.507 16.221,-8.671 22.944,-15.491 6.723,-6.82 12.129,-15.199 16.222,-25.136 4.092,-9.938 6.137,-21.336 6.137,-34.197 v -0.585 c 0,-12.86 -1.998,-24.258 -5.992,-34.196 -3.994,-9.937 -9.352,-18.316 -16.075,-25.137 -6.723,-6.818 -14.419,-11.982 -23.09,-15.49 -8.671,-3.507 -17.586,-5.261 -26.744,-5.261 -2.993,0 -5.868,0.153 -8.622,0.458 v 30.234 z"
         style="fill:#99d420;fill-opacity:1;fill-rule:nonzero;stroke:none"
         transform="matrix(0.35277776,0,0,-0.35277776,30.020518,103.75075)"
         clip-path="url(#clipPath10)" />
      <path
         id="path11"
         d="m 1489.75,5474.222 h 37.997 v -33.612 h -37.997 z"
         style="fill:#f68712;fill-opacity:1;fill-rule:nonzero;stroke:none"
         transform="matrix(0.35277776,0,0,-0.35277776,-458.58152,2005.0325)"
         clip-path="url(#clipPath12)" />
      <path
         id="path13"
         d="m 1491.211,5416.935 h 35.366 v -154.323 h -35.366 z"
         style="fill:#99d420;fill-opacity:1;fill-rule:nonzero;stroke:none"
         transform="matrix(0.35277776,0,0,-0.35277776,-458.58152,2005.0325)"
         clip-path="url(#clipPath14)" />
      <path
         id="path15"
         d="m 1562.189,5475.977 h 35.365 v -213.365 h -35.365 z"
         style="fill:#99d420;fill-opacity:1;fill-rule:nonzero;stroke:none"
         transform="matrix(0.35277776,0,0,-0.35277776,-458.58152,2005.0325)"
         clip-path="url(#clipPath16)" />
      <path
         id="path17"
         d="m 1631.706,5474.222 h 37.996 v -33.612 h -37.996 z"
         style="fill:#f68712;fill-opacity:1;fill-rule:nonzero;stroke:none"
         transform="matrix(0.35277776,0,0,-0.35277776,-458.58152,2005.0325)"
         clip-path="url(#clipPath18)" />
      <path
         id="path19"
         d="m 1633.167,5416.935 h 35.366 v -154.323 h -35.366 z"
         style="fill:#99d420;fill-opacity:1;fill-rule:nonzero;stroke:none"
         transform="matrix(0.35277776,0,0,-0.35277776,-458.58152,2005.0325)"
         clip-path="url(#clipPath20)" />
      <path
         id="path21"
         d="m 0,0 c -11.106,0 -22.358,1.949 -33.758,5.846 -11.399,3.897 -21.97,9.645 -31.713,17.244 l 15.783,23.967 c 8.379,-6.235 16.905,-10.96 25.576,-14.175 8.671,-3.215 17,-4.823 24.989,-4.823 7.6,0 13.494,1.51 17.684,4.53 4.189,3.02 6.283,7.064 6.283,12.13 v 0.584 c 0,2.924 -0.925,5.456 -2.776,7.6 -1.851,2.143 -4.384,3.994 -7.599,5.554 -3.215,1.558 -6.917,3.02 -11.108,4.384 -4.189,1.364 -8.524,2.728 -13.006,4.091 -5.651,1.56 -11.35,3.41 -17.098,5.554 -5.748,2.143 -10.912,4.919 -15.491,8.329 -4.579,3.411 -8.329,7.649 -11.252,12.715 -2.923,5.066 -4.385,11.301 -4.385,18.705 v 0.586 c 0,7.209 1.413,13.737 4.238,19.582 2.825,5.846 6.723,10.814 11.691,14.907 4.969,4.091 10.814,7.209 17.538,9.353 6.721,2.143 13.883,3.214 21.481,3.214 9.743,0 19.583,-1.558 29.521,-4.676 9.937,-3.118 18.999,-7.404 27.182,-12.86 L 39.751,117.205 c -7.404,4.482 -14.907,8.038 -22.506,10.668 -7.599,2.63 -14.614,3.946 -21.044,3.946 -6.82,0 -12.13,-1.462 -15.93,-4.384 -3.799,-2.924 -5.699,-6.626 -5.699,-11.107 v -0.584 c 0,-2.729 0.975,-5.116 2.923,-7.161 1.948,-2.046 4.53,-3.898 7.745,-5.554 3.215,-1.656 6.918,-3.216 11.107,-4.676 4.189,-1.462 8.525,-2.874 13.007,-4.238 5.65,-1.754 11.3,-3.8 16.952,-6.138 5.65,-2.339 10.765,-5.213 15.344,-8.623 4.579,-3.41 8.329,-7.55 11.253,-12.422 2.923,-4.871 4.384,-10.814 4.384,-17.828 v -0.585 c 0,-8.184 -1.461,-15.296 -4.384,-21.336 C 49.979,21.142 45.938,16.124 40.774,12.13 35.61,8.135 29.521,5.115 22.506,3.069 15.491,1.023 7.989,0 0,0"
         style="fill:#99d420;fill-opacity:1;fill-rule:nonzero;stroke:none"
         transform="matrix(0.35277776,0,0,-0.35277776,160.54382,149.53108)"
         clip-path="url(#clipPath22)" />
      <path
         id="path23"
         d="m 0,0 c -10.715,-0.1 -19.58,-3.85 -26.597,-11.25 -7.112,-7.502 -11.448,-17.293 -13.007,-29.374 H 0 v -23.382 h -39.312 c 1.95,-12.666 6.966,-22.361 15.052,-29.082 6.861,-5.703 14.947,-8.987 24.26,-9.852 v -29.058 c -9.41,0.462 -18.275,2.373 -26.597,5.736 -9.645,3.896 -18.024,9.353 -25.135,16.367 -7.114,7.015 -12.715,15.442 -16.807,25.282 -4.093,9.84 -6.138,20.703 -6.138,32.59 v 0.585 c 0,11.106 1.851,21.53 5.553,31.273 3.702,9.743 8.914,18.267 15.637,25.574 6.722,7.308 14.663,13.056 23.821,17.245 8.957,4.097 18.846,6.191 29.666,6.281 z m 0,-131.998 v 29.058 c 1.666,-0.155 3.371,-0.233 5.115,-0.233 8.769,0 16.368,1.559 22.798,4.677 6.431,3.118 12.763,7.697 18.998,13.737 l 20.752,-18.414 c -7.404,-8.767 -16.222,-15.783 -26.452,-21.044 -10.229,-5.261 -22.456,-7.891 -36.68,-7.891 -1.524,0 -3.035,0.037 -4.531,0.11 m 39.604,91.374 c -0.584,5.65 -1.851,10.96 -3.799,15.929 -1.949,4.968 -4.579,9.255 -7.892,12.86 C 24.6,-8.23 20.654,-5.356 16.075,-3.212 11.497,-1.069 6.284,0.002 0.438,0.002 0.292,0.002 0.146,0.001 0,0 v 28.935 c 0.243,0.002 0.486,0.003 0.73,0.003 12.277,0 23.042,-2.241 32.297,-6.722 9.257,-4.482 16.953,-10.523 23.091,-18.122 6.138,-7.599 10.766,-16.416 13.884,-26.451 3.117,-10.035 4.676,-20.606 4.676,-31.712 0,-1.559 -0.049,-3.166 -0.147,-4.823 -0.097,-1.656 -0.243,-3.361 -0.437,-5.114 H 0 v 23.382 z"
         style="fill:#99d420;fill-opacity:1;fill-rule:nonzero;stroke:none"
         transform="matrix(0.35277776,0,0,-0.35277776,212.3405,103.13237)"
         clip-path="url(#clipPath24)" />
      <path
         id="path25"
         d="m 2007.728,5369.585 h 51.183 v -34.781 h -51.183 z"
         style="fill:#316aba;fill-opacity:1;fill-rule:nonzero;stroke:none"
         transform="matrix(0.35277776,0,0,-0.35277776,-458.58152,2005.0325)"
         clip-path="url(#clipPath26)" />
      <path
         id="path27"
         d="M 0,0 C 5.358,0 10.474,0.426 15.345,1.278 V -31.881 C 10.372,-32.451 5.258,-32.736 0,-32.736 H -76.285 V 171.861 H 0 c 5.258,0 10.372,-0.28 15.345,-0.839 V 137.81 C 10.474,138.687 5.358,139.125 0,139.125 H -40.335 V 0 Z m 15.345,1.278 c 4.872,0.852 9.499,2.131 13.884,3.836 8.767,3.41 16.22,8.185 22.359,14.323 6.138,6.138 10.912,13.444 14.321,21.92 3.41,8.476 5.115,17.684 5.115,27.621 v 0.585 c 0,9.937 -1.705,19.193 -5.115,27.767 -3.409,8.573 -8.183,15.928 -14.321,22.066 -6.139,6.138 -13.592,10.961 -22.359,14.468 -4.385,1.754 -9.012,3.069 -13.884,3.946 v 33.212 c 10.139,-1.14 19.688,-3.442 28.643,-6.907 13.348,-5.163 24.844,-12.324 34.489,-21.482 9.646,-9.158 17.098,-19.925 22.36,-32.298 5.261,-12.373 7.892,-25.769 7.892,-40.188 v -0.584 c 0,-14.42 -2.631,-27.864 -7.892,-40.335 C 95.575,16.757 88.123,5.943 78.477,-3.215 68.832,-12.374 57.336,-19.583 43.988,-24.844 35.033,-28.374 25.484,-30.72 15.345,-31.881 Z"
         style="fill:#316aba;fill-opacity:1;fill-rule:nonzero;stroke:none"
         transform="matrix(0.35277776,0,0,-0.35277776,304.4382,136.95148)"
         clip-path="url(#clipPath28)" />
      <path
         id="path29"
         d="m 0,0 -79.785,-79.785 c -10.576,-10.576 -24.499,-15.864 -38.41,-15.864 -13.912,0 -27.835,5.288 -38.411,15.864 L -236.391,0 h 42.995 l 58.288,-58.288 c 4.637,-4.637 10.77,-6.956 16.913,-6.956 6.142,0 12.275,2.319 16.912,6.956 L -42.995,0 Z"
         style="fill:#316aba;fill-opacity:1;fill-rule:nonzero;stroke:none"
         transform="matrix(0.35277776,0,0,-0.35277776,-55.10295,46.100873)"
         clip-path="url(#clipPath30)" />
    </g>
  </g>
</svg>
