<svg xmlns="http://www.w3.org/2000/svg" class="context figure longitudinal-delta-plot" width="640" height="480" viewBox="0 0 640 480" preserveAspectRatio="xMidYMid"><style>@page {
  size: 640px 480px;  margin: 0px;  padding: 0px;}</style><style>svg{--background:white;--c0:#4e79a7;--c1:#f28e2c;--c2:#e15759;--c3:#76b7b2;--c4:#59a14f;--c5:#edc949;--c6:#af7aa1;--c7:#ff9da7;--c8:#9c755f;--c9:#bab0ab;font-size:12px}.fill-c0{fill:var(--c0)}.fill-c1{fill:var(--c1)}.fill-c2{fill:var(--c2)}.fill-c3{fill:var(--c3)}.fill-c4{fill:var(--c4)}.fill-c5{fill:var(--c5)}.fill-c6{fill:var(--c6)}.fill-c7{fill:var(--c7)}.fill-c8{fill:var(--c8)}.fill-c9{fill:var(--c9)}.stroke-c0{stroke:var(--c0)}.stroke-c1{stroke:var(--c1)}.stroke-c2{stroke:var(--c2)}.stroke-c3{stroke:var(--c3)}.stroke-c4{stroke:var(--c4)}.stroke-c5{stroke:var(--c5)}.stroke-c6{stroke:var(--c6)}.stroke-c7{stroke:var(--c7)}.stroke-c8{stroke:var(--c8)}.stroke-c9{stroke:var(--c9)}.fill-black{fill:#000}.fill-white{fill:#fff}.fill-gray{fill:gray}.stroke-black{stroke:#000}.stroke-white{stroke:#fff}.stroke-gray{stroke:gray}.weak{opacity:.5}.weaker{opacity:.25}.weakest{opacity:.125}.dashed{stroke-dasharray:2px 2px}.small{font-size:.75em}.smaller{font-size:.6em}text{stroke:none}.mono{font-family:monospace}.figure>.background{fill:var(--background)}.curve{fill:none;stroke-width:1.75px}.assoc,.span{fill:none;stroke-width:1px;stroke-linecap:round}.assoc.thick{stroke-width:calc(1px*1.5)}.span{fill:#aaa;stroke:#aaa}.label,.panel,.span{font-family:sans-serif}.label,.panel{fill:#777}.panel .frame{stroke:#aaa;fill:var(--background);fill-opacity:.5}.grid line,.tick{stroke-width:1px;stroke-linecap:round}.tick.major{font-size:.75em}.grid line{stroke:#ccc;stroke-dasharray:0 2.4px}.grid line.origin{stroke-dasharray:none}</style><rect class="background" x="0" y="0" width="640" height="480"/><g class="context plot"><g class="grid"><g class="span x-axis"><g class="tick grid"><g><line x1="110.66840281889466" y1="15" x2="110.66840281889466" y2="445"/></g><g><line x1="162.98300376471653" y1="15" x2="162.98300376471653" y2="445"/></g><g><line x1="215.2976047105384" y1="15" x2="215.2976047105384" y2="445"/></g><g><line x1="267.61220565636023" y1="15" x2="267.61220565636023" y2="445"/></g><g><line x1="319.92680660218207" y1="15" x2="319.92680660218207" y2="445"/></g><g><line x1="372.2414075480039" y1="15" x2="372.2414075480039" y2="445"/></g><g><line x1="424.55600849382586" y1="15" x2="424.55600849382586" y2="445"/></g><g><line x1="476.8706094396477" y1="15" x2="476.8706094396477" y2="445"/></g><g><line x1="529.1852103854694" y1="15" x2="529.1852103854694" y2="445"/></g><g><line x1="581.4998113312913" y1="15" x2="581.4998113312913" y2="445"/></g></g></g><g class="span y-axis"><g class="tick grid"><g><line x1="75" y1="418.55804267198494" x2="605" y2="418.55804267198494"/></g><g><line x1="75" y1="378.4093088643983" x2="605" y2="378.4093088643983"/></g><g><line x1="75" y1="338.2605750568117" x2="605" y2="338.2605750568117"/></g><g><line x1="75" y1="298.1118412492251" x2="605" y2="298.1118412492251"/></g><g><line x1="75" y1="257.9631074416385" x2="605" y2="257.9631074416385"/></g><g><line x1="75" y1="217.81437363405192" x2="605" y2="217.81437363405192"/></g><g><line x1="75" y1="177.66563982646528" x2="605" y2="177.66563982646528"/></g><g><line x1="75" y1="137.51690601887873" x2="605" y2="137.51690601887873"/></g><g><line x1="75" y1="97.36817221129218" x2="605" y2="97.36817221129218"/></g><g><line x1="75" y1="57.21943840370557" x2="605" y2="57.21943840370557"/></g><g><line x1="75" y1="17.070704596118958" x2="605" y2="17.070704596118958"/></g></g></g></g><g class="content"><g class="assocs"><path class="assoc weakest stroke-black" d="M292.592,200.124L292.666,208.069L240.419,223.76"/><path class="assoc weakest stroke-black" d="M345.904,222.678L293.84,196.509L268.541,204.663"/><path class="assoc weakest stroke-black" d="M215.298,224.899L345.989,191.094L345.989,198.179"/><path class="assoc weakest stroke-black" d="M333.975,231.084L241.438,435.444L595.364,24.556"/><path class="assoc weakest stroke-black" d="M215.298,192.359L241.428,222.402L189.185,220.747"/><path class="assoc weakest stroke-black" d="M345.955,213.047L529.008,265.491L450.799,136.302"/><path class="assoc weakest stroke-black" d="M215.298,294.893L189.165,270.612L215.27,276.192"/><path class="assoc weakest stroke-black" d="M293.59,269.939L267.457,185.348L345.75,237.473"/><path class="assoc weakest stroke-black" d="M476.647,269.785L424.635,233.014"/><path class="assoc weakest stroke-black" d="M189.168,242.794L241.403,221.355L293.717,259.468"/><path class="assoc weakest stroke-black" d="M215.298,89.742L371.954,169.919"/><path class="assoc weakest stroke-black" d="M241.426,173.799L84.821,136.713"/><path class="assoc weakest stroke-black" d="M476.507,151.332L111.154,201.396L372.363,134.913"/><path class="assoc weakest stroke-black" d="M136.911,123.008L162.96,106.652L189.112,112.233"/><path class="assoc weakest stroke-black" d="M215.298,197.398L241.429,188.573L528.967,121.737"/><path class="assoc weakest stroke-black" d="M424.38,153.438L528.967,201.812"/><path class="assoc weakest stroke-black" d="M163.03,185.046L189.118,233.29L136.851,200.522"/><path class="assoc weakest stroke-black" d="M241.425,250.323L215.319,262.932L163.033,283.266"/><path class="assoc weakest stroke-black" d="M267.56,168.863L267.612,212.043L244.074,184.523"/><path class="assoc weakest stroke-black" d="M267.559,289.89L346.03,190.305L319.957,139.44"/><path class="assoc weakest stroke-black" d="M293.682,252.162L346.035,296.723L372.215,154.542"/><path class="assoc weakest stroke-black" d="M110.794,170.397L189.038,178.266L267.516,138.547"/><path class="assoc weakest stroke-black" d="M84.636,182.643L293.397,117.734L450.551,86.863"/><path class="assoc weakest stroke-black" d="M330.585,204.18Z"/><path class="assoc weakest stroke-black" d="M215.298,184.139L189.168,229.835"/><path class="assoc weakest stroke-black" d="M267.541,270.451L241.486,144.428L319.827,105.307"/><path class="assoc weakest stroke-black" d="M293.73,204.038L267.677,244.279"/></g><g class="scatters"><g class="scatter"><circle class="marker weak fill-c0" cx="292.591961165795" cy="200.12370570366795" r="4"/><circle class="marker weak fill-c0" cx="345.90384126415347" cy="222.67841255313238" r="4"/><circle class="marker weak fill-c0" cx="215.29760471053834" cy="224.8994797794411" r="4"/><circle class="marker weak fill-c0" cx="333.9751453278486" cy="231.08435842113278" r="4"/><circle class="marker weak fill-c0" cx="215.29760471053837" cy="192.35882948645138" r="4"/><circle class="marker weak fill-c0" cx="345.95475127635683" cy="213.04687996519257" r="4"/><circle class="marker weak fill-c0" cx="215.29760471053837" cy="294.8929578987545" r="4"/><circle class="marker weak fill-c0" cx="293.5903094650077" cy="269.93929398259775" r="4"/><circle class="marker weak fill-c0" cx="476.64722087311935" cy="269.78458802046475" r="4"/><circle class="marker weak fill-c0" cx="189.16765040631827" cy="242.79369105710856" r="4"/><circle class="marker weak fill-c0" cx="215.29760471053848" cy="89.741805786927" r="4"/><circle class="marker weak fill-c0" cx="241.4258486131307" cy="173.79858424979292" r="4"/><circle class="marker weak fill-c0" cx="476.50656518092325" cy="151.33162579501195" r="4"/><circle class="marker weak fill-c0" cx="136.91131957369444" cy="123.00801000379717" r="4"/><circle class="marker weak fill-c0" cx="215.29760471053837" cy="197.39831733387828" r="4"/><circle class="marker weak fill-c0" cx="424.3801490875905" cy="153.43781700031101" r="4"/><circle class="marker weak fill-c0" cx="163.0302239961639" cy="185.0457421567953" r="4"/><circle class="marker weak fill-c0" cx="241.42495724881394" cy="250.32278474374348" r="4"/><circle class="marker weak fill-c0" cx="267.5599863978481" cy="168.86277294461715" r="4"/><circle class="marker weak fill-c0" cx="267.55871584545787" cy="289.8898157101705" r="4"/><circle class="marker weak fill-c0" cx="293.6818766323273" cy="252.16231348814046" r="4"/><circle class="marker weak fill-c0" cx="110.79376160592949" cy="170.3966612131506" r="4"/><circle class="marker weak fill-c0" cx="84.63636363636364" cy="182.643071074925" r="4"/><circle class="marker weak fill-c0" cx="330.5849498951892" cy="204.1799750381353" r="4"/><circle class="marker weak fill-c0" cx="215.29760471053834" cy="184.13898640992414" r="4"/><circle class="marker weak fill-c0" cx="267.54107872616714" cy="270.45069855708834" r="4"/><circle class="marker weak fill-c0" cx="293.7296469177086" cy="204.03790438537095" r="4"/></g><g class="scatter"><circle class="marker weak fill-c1" cx="292.6661259702651" cy="208.0693338502841" r="4"/><circle class="marker weak fill-c1" cx="293.8398403199552" cy="196.50911700926613" r="4"/><circle class="marker weak fill-c1" cx="345.98947452323443" cy="191.094293468163" r="4"/><circle class="marker weak fill-c1" cx="241.43813522402365" cy="435.4444444444444" r="4"/><circle class="marker weak fill-c1" cx="241.42777379600562" cy="222.40208216612237" r="4"/><circle class="marker weak fill-c1" cx="529.007987141035" cy="265.4910333193773" r="4"/><circle class="marker weak fill-c1" cx="189.16460323990628" cy="270.612200784109" r="4"/><circle class="marker weak fill-c1" cx="267.4569613499562" cy="185.3478504893581" r="4"/><circle class="marker weak fill-c1" cx="424.63450605118487" cy="233.01411476106654" r="4"/><circle class="marker weak fill-c1" cx="241.40289845170014" cy="221.35538079578964" r="4"/><circle class="marker weak fill-c1" cx="371.9543459043916" cy="169.91851047558924" r="4"/><circle class="marker weak fill-c1" cx="84.82122863783488" cy="136.7125728555258" r="4"/><circle class="marker weak fill-c1" cx="111.15427931707296" cy="201.39570804112873" r="4"/><circle class="marker weak fill-c1" cx="162.9595505798398" cy="106.65238694686009" r="4"/><circle class="marker weak fill-c1" cx="241.42885241685065" cy="188.57278347279916" r="4"/><circle class="marker weak fill-c1" cx="528.9671168608003" cy="201.81167774107" r="4"/><circle class="marker weak fill-c1" cx="189.11805948510258" cy="233.2902919928114" r="4"/><circle class="marker weak fill-c1" cx="215.31889046041235" cy="262.9319237064378" r="4"/><circle class="marker weak fill-c1" cx="267.61220565636023" cy="212.04264089210164" r="4"/><circle class="marker weak fill-c1" cx="346.0301334099245" cy="190.3049120875629" r="4"/><circle class="marker weak fill-c1" cx="346.03521713994854" cy="296.7228378614518" r="4"/><circle class="marker weak fill-c1" cx="189.0376352955111" cy="178.26587445469886" r="4"/><circle class="marker weak fill-c1" cx="293.3973702337699" cy="117.73395529570519" r="4"/><circle class="marker weak fill-c1" cx="189.1675603845272" cy="229.83514750155584" r="4"/><circle class="marker weak fill-c1" cx="241.48556649686168" cy="144.42792248889896" r="4"/><circle class="marker weak fill-c1" cx="267.6765748270874" cy="244.2792971283274" r="4"/></g><g class="scatter"><circle class="marker weak fill-c2" cx="240.4188435528292" cy="223.76017690696298" r="4"/><circle class="marker weak fill-c2" cx="268.541329421579" cy="204.66329476589297" r="4"/><circle class="marker weak fill-c2" cx="345.98947452323443" cy="198.17939961355216" r="4"/><circle class="marker weak fill-c2" cx="595.3636363636365" cy="24.555555555555618" r="4"/><circle class="marker weak fill-c2" cx="189.1851886752703" cy="220.74672262797705" r="4"/><circle class="marker weak fill-c2" cx="450.7992927725665" cy="136.30165727933192" r="4"/><circle class="marker weak fill-c2" cx="215.26973555299057" cy="276.1923171450434" r="4"/><circle class="marker weak fill-c2" cx="345.7496661044256" cy="237.4727708379039" r="4"/><circle class="marker weak fill-c2" cx="293.7168669435629" cy="259.46827909797054" r="4"/><circle class="marker weak fill-c2" cx="372.3632397874578" cy="134.91296020208875" r="4"/><circle class="marker weak fill-c2" cx="189.11164348854055" cy="112.23323079530357" r="4"/><circle class="marker weak fill-c2" cx="528.9670486700293" cy="121.73718504743661" r="4"/><circle class="marker weak fill-c2" cx="136.85067877072817" cy="200.52166051555486" r="4"/><circle class="marker weak fill-c2" cx="163.0328621853144" cy="283.2661950950618" r="4"/><circle class="marker weak fill-c2" cx="244.07395935097904" cy="184.52289879844457" r="4"/><circle class="marker weak fill-c2" cx="319.9568977782933" cy="139.4403829929444" r="4"/><circle class="marker weak fill-c2" cx="372.2152181663246" cy="154.54229619439297" r="4"/><circle class="marker weak fill-c2" cx="267.5160669414315" cy="138.54666458801262" r="4"/><circle class="marker weak fill-c2" cx="450.55084441286226" cy="86.8625442367582" r="4"/><circle class="marker weak fill-c2" cx="319.8274251054284" cy="105.30720510930607" r="4"/></g></g></g><g class="frame"><g class="span x-axis"><g class="tick minor"><g><line x1="123.74705305535014" y1="15" x2="123.74705305535014" y2="17"/></g><g><line x1="136.8257032918056" y1="15" x2="136.8257032918056" y2="17"/></g><g><line x1="149.90435352826105" y1="15" x2="149.90435352826105" y2="17"/></g><g><line x1="176.06165400117197" y1="15" x2="176.06165400117197" y2="17"/></g><g><line x1="189.14030423762745" y1="15" x2="189.14030423762745" y2="17"/></g><g><line x1="202.21895447408292" y1="15" x2="202.21895447408292" y2="17"/></g><g><line x1="228.37625494699387" y1="15" x2="228.37625494699387" y2="17"/></g><g><line x1="241.4549051834493" y1="15" x2="241.4549051834493" y2="17"/></g><g><line x1="254.5335554199048" y1="15" x2="254.5335554199048" y2="17"/></g><g><line x1="280.6908558928157" y1="15" x2="280.6908558928157" y2="17"/></g><g><line x1="293.7695061292712" y1="15" x2="293.7695061292712" y2="17"/></g><g><line x1="306.8481563657266" y1="15" x2="306.8481563657266" y2="17"/></g><g><line x1="333.00545683863754" y1="15" x2="333.00545683863754" y2="17"/></g><g><line x1="346.084107075093" y1="15" x2="346.084107075093" y2="17"/></g><g><line x1="359.16275731154843" y1="15" x2="359.16275731154843" y2="17"/></g><g><line x1="385.3200577844594" y1="15" x2="385.3200577844594" y2="17"/></g><g><line x1="398.39870802091485" y1="15" x2="398.39870802091485" y2="17"/></g><g><line x1="411.4773582573704" y1="15" x2="411.4773582573704" y2="17"/></g><g><line x1="437.6346587302813" y1="15" x2="437.6346587302813" y2="17"/></g><g><line x1="450.71330896673675" y1="15" x2="450.71330896673675" y2="17"/></g><g><line x1="463.7919592031922" y1="15" x2="463.7919592031922" y2="17"/></g><g><line x1="489.94925967610317" y1="15" x2="489.94925967610317" y2="17"/></g><g><line x1="503.0279099125586" y1="15" x2="503.0279099125586" y2="17"/></g><g><line x1="516.1065601490141" y1="15" x2="516.1065601490141" y2="17"/></g><g><line x1="542.263860621925" y1="15" x2="542.263860621925" y2="17"/></g><g><line x1="555.3425108583804" y1="15" x2="555.3425108583804" y2="17"/></g><g><line x1="568.421161094836" y1="15" x2="568.421161094836" y2="17"/></g></g><g class="tick major"><g><line x1="110.66840281889466" y1="15" x2="110.66840281889466" y2="19"/><text class="" text-anchor="middle" alignment-baseline="text-top" dominant-baseline="text-top" transform="translate(110.66840281889466, 11) rotate(0)"><tspan x="0" y="0em" text-anchor="middle" alignment-baseline="text-top" dominant-baseline="text-top">-2</tspan></text></g><g><line x1="162.98300376471653" y1="15" x2="162.98300376471653" y2="19"/><text class="" text-anchor="middle" alignment-baseline="text-top" dominant-baseline="text-top" transform="translate(162.98300376471653, 11) rotate(0)"><tspan x="0" y="0em" text-anchor="middle" alignment-baseline="text-top" dominant-baseline="text-top">-1</tspan></text></g><g><line x1="215.2976047105384" y1="15" x2="215.2976047105384" y2="19"/><text class="" text-anchor="middle" alignment-baseline="text-top" dominant-baseline="text-top" transform="translate(215.2976047105384, 11) rotate(0)"><tspan x="0" y="0em" text-anchor="middle" alignment-baseline="text-top" dominant-baseline="text-top">0</tspan></text></g><g><line x1="267.61220565636023" y1="15" x2="267.61220565636023" y2="19"/><text class="" text-anchor="middle" alignment-baseline="text-top" dominant-baseline="text-top" transform="translate(267.61220565636023, 11) rotate(0)"><tspan x="0" y="0em" text-anchor="middle" alignment-baseline="text-top" dominant-baseline="text-top">1</tspan></text></g><g><line x1="319.92680660218207" y1="15" x2="319.92680660218207" y2="19"/><text class="" text-anchor="middle" alignment-baseline="text-top" dominant-baseline="text-top" transform="translate(319.92680660218207, 11) rotate(0)"><tspan x="0" y="0em" text-anchor="middle" alignment-baseline="text-top" dominant-baseline="text-top">2</tspan></text></g><g><line x1="372.2414075480039" y1="15" x2="372.2414075480039" y2="19"/><text class="" text-anchor="middle" alignment-baseline="text-top" dominant-baseline="text-top" transform="translate(372.2414075480039, 11) rotate(0)"><tspan x="0" y="0em" text-anchor="middle" alignment-baseline="text-top" dominant-baseline="text-top">3</tspan></text></g><g><line x1="424.55600849382586" y1="15" x2="424.55600849382586" y2="19"/><text class="" text-anchor="middle" alignment-baseline="text-top" dominant-baseline="text-top" transform="translate(424.55600849382586, 11) rotate(0)"><tspan x="0" y="0em" text-anchor="middle" alignment-baseline="text-top" dominant-baseline="text-top">4</tspan></text></g><g><line x1="476.8706094396477" y1="15" x2="476.8706094396477" y2="19"/><text class="" text-anchor="middle" alignment-baseline="text-top" dominant-baseline="text-top" transform="translate(476.8706094396477, 11) rotate(0)"><tspan x="0" y="0em" text-anchor="middle" alignment-baseline="text-top" dominant-baseline="text-top">5</tspan></text></g><g><line x1="529.1852103854694" y1="15" x2="529.1852103854694" y2="19"/><text class="" text-anchor="middle" alignment-baseline="text-top" dominant-baseline="text-top" transform="translate(529.1852103854694, 11) rotate(0)"><tspan x="0" y="0em" text-anchor="middle" alignment-baseline="text-top" dominant-baseline="text-top">6</tspan></text></g><g><line x1="581.4998113312913" y1="15" x2="581.4998113312913" y2="19"/><text class="" text-anchor="middle" alignment-baseline="text-top" dominant-baseline="text-top" transform="translate(581.4998113312913, 11) rotate(0)"><tspan x="0" y="0em" text-anchor="middle" alignment-baseline="text-top" dominant-baseline="text-top">7</tspan></text></g></g><line x1="75" y1="15" x2="605" y2="15"/></g><g class="span x-axis"><g class="tick minor"><g><line x1="123.74705305535014" y1="445" x2="123.74705305535014" y2="443"/></g><g><line x1="136.8257032918056" y1="445" x2="136.8257032918056" y2="443"/></g><g><line x1="149.90435352826105" y1="445" x2="149.90435352826105" y2="443"/></g><g><line x1="176.06165400117197" y1="445" x2="176.06165400117197" y2="443"/></g><g><line x1="189.14030423762745" y1="445" x2="189.14030423762745" y2="443"/></g><g><line x1="202.21895447408292" y1="445" x2="202.21895447408292" y2="443"/></g><g><line x1="228.37625494699387" y1="445" x2="228.37625494699387" y2="443"/></g><g><line x1="241.4549051834493" y1="445" x2="241.4549051834493" y2="443"/></g><g><line x1="254.5335554199048" y1="445" x2="254.5335554199048" y2="443"/></g><g><line x1="280.6908558928157" y1="445" x2="280.6908558928157" y2="443"/></g><g><line x1="293.7695061292712" y1="445" x2="293.7695061292712" y2="443"/></g><g><line x1="306.8481563657266" y1="445" x2="306.8481563657266" y2="443"/></g><g><line x1="333.00545683863754" y1="445" x2="333.00545683863754" y2="443"/></g><g><line x1="346.084107075093" y1="445" x2="346.084107075093" y2="443"/></g><g><line x1="359.16275731154843" y1="445" x2="359.16275731154843" y2="443"/></g><g><line x1="385.3200577844594" y1="445" x2="385.3200577844594" y2="443"/></g><g><line x1="398.39870802091485" y1="445" x2="398.39870802091485" y2="443"/></g><g><line x1="411.4773582573704" y1="445" x2="411.4773582573704" y2="443"/></g><g><line x1="437.6346587302813" y1="445" x2="437.6346587302813" y2="443"/></g><g><line x1="450.71330896673675" y1="445" x2="450.71330896673675" y2="443"/></g><g><line x1="463.7919592031922" y1="445" x2="463.7919592031922" y2="443"/></g><g><line x1="489.94925967610317" y1="445" x2="489.94925967610317" y2="443"/></g><g><line x1="503.0279099125586" y1="445" x2="503.0279099125586" y2="443"/></g><g><line x1="516.1065601490141" y1="445" x2="516.1065601490141" y2="443"/></g><g><line x1="542.263860621925" y1="445" x2="542.263860621925" y2="443"/></g><g><line x1="555.3425108583804" y1="445" x2="555.3425108583804" y2="443"/></g><g><line x1="568.421161094836" y1="445" x2="568.421161094836" y2="443"/></g></g><g class="tick major"><g><line x1="110.66840281889466" y1="445" x2="110.66840281889466" y2="441"/><text class="" text-anchor="middle" alignment-baseline="hanging" dominant-baseline="hanging" transform="translate(110.66840281889466, 449) rotate(0)"><tspan x="0" y="0em" text-anchor="middle" alignment-baseline="hanging" dominant-baseline="hanging">-2</tspan></text></g><g><line x1="162.98300376471653" y1="445" x2="162.98300376471653" y2="441"/><text class="" text-anchor="middle" alignment-baseline="hanging" dominant-baseline="hanging" transform="translate(162.98300376471653, 449) rotate(0)"><tspan x="0" y="0em" text-anchor="middle" alignment-baseline="hanging" dominant-baseline="hanging">-1</tspan></text></g><g><line x1="215.2976047105384" y1="445" x2="215.2976047105384" y2="441"/><text class="" text-anchor="middle" alignment-baseline="hanging" dominant-baseline="hanging" transform="translate(215.2976047105384, 449) rotate(0)"><tspan x="0" y="0em" text-anchor="middle" alignment-baseline="hanging" dominant-baseline="hanging">0</tspan></text></g><g><line x1="267.61220565636023" y1="445" x2="267.61220565636023" y2="441"/><text class="" text-anchor="middle" alignment-baseline="hanging" dominant-baseline="hanging" transform="translate(267.61220565636023, 449) rotate(0)"><tspan x="0" y="0em" text-anchor="middle" alignment-baseline="hanging" dominant-baseline="hanging">1</tspan></text></g><g><line x1="319.92680660218207" y1="445" x2="319.92680660218207" y2="441"/><text class="" text-anchor="middle" alignment-baseline="hanging" dominant-baseline="hanging" transform="translate(319.92680660218207, 449) rotate(0)"><tspan x="0" y="0em" text-anchor="middle" alignment-baseline="hanging" dominant-baseline="hanging">2</tspan></text></g><g><line x1="372.2414075480039" y1="445" x2="372.2414075480039" y2="441"/><text class="" text-anchor="middle" alignment-baseline="hanging" dominant-baseline="hanging" transform="translate(372.2414075480039, 449) rotate(0)"><tspan x="0" y="0em" text-anchor="middle" alignment-baseline="hanging" dominant-baseline="hanging">3</tspan></text></g><g><line x1="424.55600849382586" y1="445" x2="424.55600849382586" y2="441"/><text class="" text-anchor="middle" alignment-baseline="hanging" dominant-baseline="hanging" transform="translate(424.55600849382586, 449) rotate(0)"><tspan x="0" y="0em" text-anchor="middle" alignment-baseline="hanging" dominant-baseline="hanging">4</tspan></text></g><g><line x1="476.8706094396477" y1="445" x2="476.8706094396477" y2="441"/><text class="" text-anchor="middle" alignment-baseline="hanging" dominant-baseline="hanging" transform="translate(476.8706094396477, 449) rotate(0)"><tspan x="0" y="0em" text-anchor="middle" alignment-baseline="hanging" dominant-baseline="hanging">5</tspan></text></g><g><line x1="529.1852103854694" y1="445" x2="529.1852103854694" y2="441"/><text class="" text-anchor="middle" alignment-baseline="hanging" dominant-baseline="hanging" transform="translate(529.1852103854694, 449) rotate(0)"><tspan x="0" y="0em" text-anchor="middle" alignment-baseline="hanging" dominant-baseline="hanging">6</tspan></text></g><g><line x1="581.4998113312913" y1="445" x2="581.4998113312913" y2="441"/><text class="" text-anchor="middle" alignment-baseline="hanging" dominant-baseline="hanging" transform="translate(581.4998113312913, 449) rotate(0)"><tspan x="0" y="0em" text-anchor="middle" alignment-baseline="hanging" dominant-baseline="hanging">7</tspan></text></g></g><g class="tick label"><g><text class="" text-anchor="middle" alignment-baseline="hanging" dominant-baseline="hanging" transform="translate(340, 465) rotate(0)"><tspan x="0" y="0em" text-anchor="middle" alignment-baseline="hanging" dominant-baseline="hanging"><tspan class="mono" text-anchor="middle" alignment-baseline="hanging" dominant-baseline="hanging">sara</tspan></tspan></text></g></g><line x1="75" y1="445" x2="605" y2="445"/></g><g class="span y-axis"><g class="tick minor"><g><line x1="75" y1="408.52085922008825" x2="77" y2="408.52085922008825"/></g><g><line x1="75" y1="398.48367576819163" x2="77" y2="398.48367576819163"/></g><g><line x1="75" y1="388.446492316295" x2="77" y2="388.446492316295"/></g><g><line x1="75" y1="368.3721254125017" x2="77" y2="368.3721254125017"/></g><g><line x1="75" y1="358.334941960605" x2="77" y2="358.334941960605"/></g><g><line x1="75" y1="348.2977585087084" x2="77" y2="348.2977585087084"/></g><g><line x1="75" y1="328.22339160491504" x2="77" y2="328.22339160491504"/></g><g><line x1="75" y1="318.1862081530184" x2="77" y2="318.1862081530184"/></g><g><line x1="75" y1="308.1490247011218" x2="77" y2="308.1490247011218"/></g><g><line x1="75" y1="288.0746577973285" x2="77" y2="288.0746577973285"/></g><g><line x1="75" y1="278.03747434543186" x2="77" y2="278.03747434543186"/></g><g><line x1="75" y1="268.0002908935352" x2="77" y2="268.0002908935352"/></g><g><line x1="75" y1="247.92592398974188" x2="77" y2="247.92592398974188"/></g><g><line x1="75" y1="237.88874053784522" x2="77" y2="237.88874053784522"/></g><g><line x1="75" y1="227.85155708594857" x2="77" y2="227.85155708594857"/></g><g><line x1="75" y1="207.77719018215527" x2="77" y2="207.77719018215527"/></g><g><line x1="75" y1="197.74000673025859" x2="77" y2="197.74000673025859"/></g><g><line x1="75" y1="187.70282327836196" x2="77" y2="187.70282327836196"/></g><g><line x1="75" y1="167.62845637456866" x2="77" y2="167.62845637456866"/></g><g><line x1="75" y1="157.59127292267203" x2="77" y2="157.59127292267203"/></g><g><line x1="75" y1="147.55408947077535" x2="77" y2="147.55408947077535"/></g><g><line x1="75" y1="127.47972256698205" x2="77" y2="127.47972256698205"/></g><g><line x1="75" y1="117.44253911508548" x2="77" y2="117.44253911508548"/></g><g><line x1="75" y1="107.4053556631888" x2="77" y2="107.4053556631888"/></g><g><line x1="75" y1="87.3309887593955" x2="77" y2="87.3309887593955"/></g><g><line x1="75" y1="77.29380530749887" x2="77" y2="77.29380530749887"/></g><g><line x1="75" y1="67.25662185560219" x2="77" y2="67.25662185560219"/></g><g><line x1="75" y1="47.182254951808886" x2="77" y2="47.182254951808886"/></g><g><line x1="75" y1="37.14507149991226" x2="77" y2="37.14507149991226"/></g><g><line x1="75" y1="27.10788804801558" x2="77" y2="27.10788804801558"/></g></g><g class="tick major"><g><line x1="75" y1="418.55804267198494" x2="79" y2="418.55804267198494"/><text class="" text-anchor="end" alignment-baseline="middle" dominant-baseline="middle" transform="translate(71, 418.55804267198494) rotate(0)"><tspan x="0" y="0em" text-anchor="end" alignment-baseline="middle" dominant-baseline="middle">-2.5</tspan></text></g><g><line x1="75" y1="378.4093088643983" x2="79" y2="378.4093088643983"/><text class="" text-anchor="end" alignment-baseline="middle" dominant-baseline="middle" transform="translate(71, 378.4093088643983) rotate(0)"><tspan x="0" y="0em" text-anchor="end" alignment-baseline="middle" dominant-baseline="middle">-2</tspan></text></g><g><line x1="75" y1="338.2605750568117" x2="79" y2="338.2605750568117"/><text class="" text-anchor="end" alignment-baseline="middle" dominant-baseline="middle" transform="translate(71, 338.2605750568117) rotate(0)"><tspan x="0" y="0em" text-anchor="end" alignment-baseline="middle" dominant-baseline="middle">-1.5</tspan></text></g><g><line x1="75" y1="298.1118412492251" x2="79" y2="298.1118412492251"/><text class="" text-anchor="end" alignment-baseline="middle" dominant-baseline="middle" transform="translate(71, 298.1118412492251) rotate(0)"><tspan x="0" y="0em" text-anchor="end" alignment-baseline="middle" dominant-baseline="middle">-1</tspan></text></g><g><line x1="75" y1="257.9631074416385" x2="79" y2="257.9631074416385"/><text class="" text-anchor="end" alignment-baseline="middle" dominant-baseline="middle" transform="translate(71, 257.9631074416385) rotate(0)"><tspan x="0" y="0em" text-anchor="end" alignment-baseline="middle" dominant-baseline="middle">-.5</tspan></text></g><g><line x1="75" y1="217.81437363405192" x2="79" y2="217.81437363405192"/><text class="" text-anchor="end" alignment-baseline="middle" dominant-baseline="middle" transform="translate(71, 217.81437363405192) rotate(0)"><tspan x="0" y="0em" text-anchor="end" alignment-baseline="middle" dominant-baseline="middle">0</tspan></text></g><g><line x1="75" y1="177.66563982646528" x2="79" y2="177.66563982646528"/><text class="" text-anchor="end" alignment-baseline="middle" dominant-baseline="middle" transform="translate(71, 177.66563982646528) rotate(0)"><tspan x="0" y="0em" text-anchor="end" alignment-baseline="middle" dominant-baseline="middle">.5</tspan></text></g><g><line x1="75" y1="137.51690601887873" x2="79" y2="137.51690601887873"/><text class="" text-anchor="end" alignment-baseline="middle" dominant-baseline="middle" transform="translate(71, 137.51690601887873) rotate(0)"><tspan x="0" y="0em" text-anchor="end" alignment-baseline="middle" dominant-baseline="middle">1</tspan></text></g><g><line x1="75" y1="97.36817221129218" x2="79" y2="97.36817221129218"/><text class="" text-anchor="end" alignment-baseline="middle" dominant-baseline="middle" transform="translate(71, 97.36817221129218) rotate(0)"><tspan x="0" y="0em" text-anchor="end" alignment-baseline="middle" dominant-baseline="middle">1.5</tspan></text></g><g><line x1="75" y1="57.21943840370557" x2="79" y2="57.21943840370557"/><text class="" text-anchor="end" alignment-baseline="middle" dominant-baseline="middle" transform="translate(71, 57.21943840370557) rotate(0)"><tspan x="0" y="0em" text-anchor="end" alignment-baseline="middle" dominant-baseline="middle">2</tspan></text></g><g><line x1="75" y1="17.070704596118958" x2="79" y2="17.070704596118958"/><text class="" text-anchor="end" alignment-baseline="middle" dominant-baseline="middle" transform="translate(71, 17.070704596118958) rotate(0)"><tspan x="0" y="0em" text-anchor="end" alignment-baseline="middle" dominant-baseline="middle">2.5</tspan></text></g></g><g class="tick label"><g><text class="" text-anchor="middle" alignment-baseline="text-top" dominant-baseline="text-top" transform="translate(55, 230) rotate(-90)"><tspan x="0" y="-3em" text-anchor="middle" alignment-baseline="text-top" dominant-baseline="text-top"><tspan class="mono" text-anchor="middle" alignment-baseline="text-top" dominant-baseline="text-top">lateral_step_deviation_apdm_abs_normed_μ</tspan></tspan><tspan x="0" y="-2em" text-anchor="middle" alignment-baseline="text-top" dominant-baseline="text-top"><tspan class="mono" text-anchor="middle" alignment-baseline="text-top" dominant-baseline="text-top">μ</tspan></tspan><tspan x="0" y="-1em" text-anchor="middle" alignment-baseline="text-top" dominant-baseline="text-top"><tspan class="mono" text-anchor="middle" alignment-baseline="text-top" dominant-baseline="text-top">all</tspan></tspan><tspan x="0" y="0em" text-anchor="middle" alignment-baseline="text-top" dominant-baseline="text-top"><tspan class="mono" text-anchor="middle" alignment-baseline="text-top" dominant-baseline="text-top">μ</tspan></tspan></text></g></g><line x1="75" y1="445" x2="75" y2="15"/></g><g class="span y-axis"><g class="tick minor"><g><line x1="605" y1="408.52085922008825" x2="603" y2="408.52085922008825"/></g><g><line x1="605" y1="398.48367576819163" x2="603" y2="398.48367576819163"/></g><g><line x1="605" y1="388.446492316295" x2="603" y2="388.446492316295"/></g><g><line x1="605" y1="368.3721254125017" x2="603" y2="368.3721254125017"/></g><g><line x1="605" y1="358.334941960605" x2="603" y2="358.334941960605"/></g><g><line x1="605" y1="348.2977585087084" x2="603" y2="348.2977585087084"/></g><g><line x1="605" y1="328.22339160491504" x2="603" y2="328.22339160491504"/></g><g><line x1="605" y1="318.1862081530184" x2="603" y2="318.1862081530184"/></g><g><line x1="605" y1="308.1490247011218" x2="603" y2="308.1490247011218"/></g><g><line x1="605" y1="288.0746577973285" x2="603" y2="288.0746577973285"/></g><g><line x1="605" y1="278.03747434543186" x2="603" y2="278.03747434543186"/></g><g><line x1="605" y1="268.0002908935352" x2="603" y2="268.0002908935352"/></g><g><line x1="605" y1="247.92592398974188" x2="603" y2="247.92592398974188"/></g><g><line x1="605" y1="237.88874053784522" x2="603" y2="237.88874053784522"/></g><g><line x1="605" y1="227.85155708594857" x2="603" y2="227.85155708594857"/></g><g><line x1="605" y1="207.77719018215527" x2="603" y2="207.77719018215527"/></g><g><line x1="605" y1="197.74000673025859" x2="603" y2="197.74000673025859"/></g><g><line x1="605" y1="187.70282327836196" x2="603" y2="187.70282327836196"/></g><g><line x1="605" y1="167.62845637456866" x2="603" y2="167.62845637456866"/></g><g><line x1="605" y1="157.59127292267203" x2="603" y2="157.59127292267203"/></g><g><line x1="605" y1="147.55408947077535" x2="603" y2="147.55408947077535"/></g><g><line x1="605" y1="127.47972256698205" x2="603" y2="127.47972256698205"/></g><g><line x1="605" y1="117.44253911508548" x2="603" y2="117.44253911508548"/></g><g><line x1="605" y1="107.4053556631888" x2="603" y2="107.4053556631888"/></g><g><line x1="605" y1="87.3309887593955" x2="603" y2="87.3309887593955"/></g><g><line x1="605" y1="77.29380530749887" x2="603" y2="77.29380530749887"/></g><g><line x1="605" y1="67.25662185560219" x2="603" y2="67.25662185560219"/></g><g><line x1="605" y1="47.182254951808886" x2="603" y2="47.182254951808886"/></g><g><line x1="605" y1="37.14507149991226" x2="603" y2="37.14507149991226"/></g><g><line x1="605" y1="27.10788804801558" x2="603" y2="27.10788804801558"/></g></g><g class="tick major"><g><line x1="605" y1="418.55804267198494" x2="601" y2="418.55804267198494"/><text class="" text-anchor="start" alignment-baseline="middle" dominant-baseline="middle" transform="translate(609, 418.55804267198494) rotate(0)"><tspan x="0" y="0em" text-anchor="start" alignment-baseline="middle" dominant-baseline="middle">-2.5</tspan></text></g><g><line x1="605" y1="378.4093088643983" x2="601" y2="378.4093088643983"/><text class="" text-anchor="start" alignment-baseline="middle" dominant-baseline="middle" transform="translate(609, 378.4093088643983) rotate(0)"><tspan x="0" y="0em" text-anchor="start" alignment-baseline="middle" dominant-baseline="middle">-2</tspan></text></g><g><line x1="605" y1="338.2605750568117" x2="601" y2="338.2605750568117"/><text class="" text-anchor="start" alignment-baseline="middle" dominant-baseline="middle" transform="translate(609, 338.2605750568117) rotate(0)"><tspan x="0" y="0em" text-anchor="start" alignment-baseline="middle" dominant-baseline="middle">-1.5</tspan></text></g><g><line x1="605" y1="298.1118412492251" x2="601" y2="298.1118412492251"/><text class="" text-anchor="start" alignment-baseline="middle" dominant-baseline="middle" transform="translate(609, 298.1118412492251) rotate(0)"><tspan x="0" y="0em" text-anchor="start" alignment-baseline="middle" dominant-baseline="middle">-1</tspan></text></g><g><line x1="605" y1="257.9631074416385" x2="601" y2="257.9631074416385"/><text class="" text-anchor="start" alignment-baseline="middle" dominant-baseline="middle" transform="translate(609, 257.9631074416385) rotate(0)"><tspan x="0" y="0em" text-anchor="start" alignment-baseline="middle" dominant-baseline="middle">-.5</tspan></text></g><g><line x1="605" y1="217.81437363405192" x2="601" y2="217.81437363405192"/><text class="" text-anchor="start" alignment-baseline="middle" dominant-baseline="middle" transform="translate(609, 217.81437363405192) rotate(0)"><tspan x="0" y="0em" text-anchor="start" alignment-baseline="middle" dominant-baseline="middle">0</tspan></text></g><g><line x1="605" y1="177.66563982646528" x2="601" y2="177.66563982646528"/><text class="" text-anchor="start" alignment-baseline="middle" dominant-baseline="middle" transform="translate(609, 177.66563982646528) rotate(0)"><tspan x="0" y="0em" text-anchor="start" alignment-baseline="middle" dominant-baseline="middle">.5</tspan></text></g><g><line x1="605" y1="137.51690601887873" x2="601" y2="137.51690601887873"/><text class="" text-anchor="start" alignment-baseline="middle" dominant-baseline="middle" transform="translate(609, 137.51690601887873) rotate(0)"><tspan x="0" y="0em" text-anchor="start" alignment-baseline="middle" dominant-baseline="middle">1</tspan></text></g><g><line x1="605" y1="97.36817221129218" x2="601" y2="97.36817221129218"/><text class="" text-anchor="start" alignment-baseline="middle" dominant-baseline="middle" transform="translate(609, 97.36817221129218) rotate(0)"><tspan x="0" y="0em" text-anchor="start" alignment-baseline="middle" dominant-baseline="middle">1.5</tspan></text></g><g><line x1="605" y1="57.21943840370557" x2="601" y2="57.21943840370557"/><text class="" text-anchor="start" alignment-baseline="middle" dominant-baseline="middle" transform="translate(609, 57.21943840370557) rotate(0)"><tspan x="0" y="0em" text-anchor="start" alignment-baseline="middle" dominant-baseline="middle">2</tspan></text></g><g><line x1="605" y1="17.070704596118958" x2="601" y2="17.070704596118958"/><text class="" text-anchor="start" alignment-baseline="middle" dominant-baseline="middle" transform="translate(609, 17.070704596118958) rotate(0)"><tspan x="0" y="0em" text-anchor="start" alignment-baseline="middle" dominant-baseline="middle">2.5</tspan></text></g></g><line x1="605" y1="445" x2="605" y2="15"/></g></g><g class="context panel legend"><rect class="frame" x="85" y="25" width="98" height="50"/><g class="entry"><g class="scatter"><circle class="marker fill-c0 weak" cx="95" cy="35" r="2.5"/></g><text class="label" text-anchor="start" alignment-baseline="middle" dominant-baseline="middle" transform="translate(105, 35) rotate(0)" dy=".09em"><tspan x="0" y="0em" text-anchor="start" alignment-baseline="middle" dominant-baseline="middle">1-year Δ (27)</tspan></text></g><g class="entry"><g class="scatter"><circle class="marker fill-c1 weak" cx="95" cy="50" r="2.5"/></g><text class="label" text-anchor="start" alignment-baseline="middle" dominant-baseline="middle" transform="translate(105, 50) rotate(0)" dy=".09em"><tspan x="0" y="0em" text-anchor="start" alignment-baseline="middle" dominant-baseline="middle">2-year Δ (26)</tspan></text></g><g class="entry"><g class="scatter"><circle class="marker fill-c2 weak" cx="95" cy="65" r="2.5"/></g><text class="label" text-anchor="start" alignment-baseline="middle" dominant-baseline="middle" transform="translate(105, 65) rotate(0)" dy=".09em"><tspan x="0" y="0em" text-anchor="start" alignment-baseline="middle" dominant-baseline="middle">3-year Δ (20)</tspan></text></g></g><g class="context panel associated-values"><rect class="frame" x="85" y="80" width="98" height="65"/><g class="description"><text class="entry" text-anchor="start" alignment-baseline="middle" dominant-baseline="middle" transform="translate(90, 90) rotate(0)" dy=".09em"><tspan x="0" y="0em" text-anchor="start" alignment-baseline="middle" dominant-baseline="middle">1-year ρ:</tspan></text><text class="entry" text-anchor="start" alignment-baseline="middle" dominant-baseline="middle" transform="translate(90, 105) rotate(0)" dy=".09em"><tspan x="0" y="0em" text-anchor="start" alignment-baseline="middle" dominant-baseline="middle">2-year ρ:</tspan></text><text class="entry" text-anchor="start" alignment-baseline="middle" dominant-baseline="middle" transform="translate(90, 120) rotate(0)" dy=".09em"><tspan x="0" y="0em" text-anchor="start" alignment-baseline="middle" dominant-baseline="middle">3-year ρ:</tspan></text><text class="entry" text-anchor="start" alignment-baseline="middle" dominant-baseline="middle" transform="translate(90, 135) rotate(0)" dy=".09em"><tspan x="0" y="0em" text-anchor="start" alignment-baseline="middle" dominant-baseline="middle">Pooled ρ:</tspan></text></g><g class="associated-value"><text class="entry" text-anchor="start" alignment-baseline="middle" dominant-baseline="middle" transform="translate(145, 90) rotate(0)" dy=".09em"><tspan x="0" y="0em" text-anchor="start" alignment-baseline="middle" dominant-baseline="middle">-.21</tspan></text><text class="entry" text-anchor="start" alignment-baseline="middle" dominant-baseline="middle" transform="translate(145, 105) rotate(0)" dy=".09em"><tspan x="0" y="0em" text-anchor="start" alignment-baseline="middle" dominant-baseline="middle">-.14</tspan></text><text class="entry" text-anchor="start" alignment-baseline="middle" dominant-baseline="middle" transform="translate(145, 120) rotate(0)" dy=".09em"><tspan x="0" y="0em" text-anchor="start" alignment-baseline="middle" dominant-baseline="middle">.59</tspan></text><text class="entry" text-anchor="start" alignment-baseline="middle" dominant-baseline="middle" transform="translate(145, 135) rotate(0)" dy=".09em"><tspan x="0" y="0em" text-anchor="start" alignment-baseline="middle" dominant-baseline="middle">-.064</tspan></text></g></g></g></svg>