<svg xmlns="http://www.w3.org/2000/svg" class="context figure outcome-pair-relationship-plot" width="640" height="480" viewBox="0 0 640 480" preserveAspectRatio="xMidYMid"><style>@page {
  size: 640px 480px;  margin: 0px;  padding: 0px;}</style><style>svg{--background:white;--c0:#4e79a7;--c1:#f28e2c;--c2:#e15759;--c3:#76b7b2;--c4:#59a14f;--c5:#edc949;--c6:#af7aa1;--c7:#ff9da7;--c8:#9c755f;--c9:#bab0ab;font-size:12px}.fill-c0{fill:var(--c0)}.fill-c1{fill:var(--c1)}.fill-c2{fill:var(--c2)}.fill-c3{fill:var(--c3)}.fill-c4{fill:var(--c4)}.fill-c5{fill:var(--c5)}.fill-c6{fill:var(--c6)}.fill-c7{fill:var(--c7)}.fill-c8{fill:var(--c8)}.fill-c9{fill:var(--c9)}.stroke-c0{stroke:var(--c0)}.stroke-c1{stroke:var(--c1)}.stroke-c2{stroke:var(--c2)}.stroke-c3{stroke:var(--c3)}.stroke-c4{stroke:var(--c4)}.stroke-c5{stroke:var(--c5)}.stroke-c6{stroke:var(--c6)}.stroke-c7{stroke:var(--c7)}.stroke-c8{stroke:var(--c8)}.stroke-c9{stroke:var(--c9)}.fill-black{fill:#000}.fill-white{fill:#fff}.fill-gray{fill:gray}.stroke-black{stroke:#000}.stroke-white{stroke:#fff}.stroke-gray{stroke:gray}.weak{opacity:.5}.weaker{opacity:.25}.weakest{opacity:.125}.dashed{stroke-dasharray:2px 2px}.small{font-size:.75em}.smaller{font-size:.6em}text{stroke:none}.mono{font-family:monospace}.figure>.background{fill:var(--background)}.curve{fill:none;stroke-width:1.75px}.assoc,.span{fill:none;stroke-width:1px;stroke-linecap:round}.assoc.thick{stroke-width:calc(1px*1.5)}.span{fill:#aaa;stroke:#aaa}.label,.panel,.span{font-family:sans-serif}.label,.panel{fill:#777}.panel .frame{stroke:#aaa;fill:var(--background);fill-opacity:.5}.grid line,.tick{stroke-width:1px;stroke-linecap:round}.tick.major{font-size:.75em}.grid line{stroke:#ccc;stroke-dasharray:0 2.4px}.grid line.origin{stroke-dasharray:none}</style><g class="context plot"><g class="grid"><g class="span x-axis"><g class="tick grid"><g><line x1="103.3158608076799" y1="20" x2="103.3158608076799" y2="445"/></g><g><line x1="137.64374019300493" y1="20" x2="137.64374019300493" y2="445"/></g><g><line x1="171.97161957832998" y1="20" x2="171.97161957832998" y2="445"/></g><g><line x1="206.29949896365497" y1="20" x2="206.29949896365497" y2="445"/></g><g><line x1="240.62737834898" y1="20" x2="240.62737834898" y2="445"/></g><g><line x1="274.95525773430506" y1="20" x2="274.95525773430506" y2="445"/></g><g><line x1="309.28313711963006" y1="20" x2="309.28313711963006" y2="445"/></g><g><line x1="343.6110165049551" y1="20" x2="343.6110165049551" y2="445"/></g><g><line x1="377.9388958902801" y1="20" x2="377.9388958902801" y2="445"/></g><g><line x1="412.2667752756051" y1="20" x2="412.2667752756051" y2="445"/></g><g><line x1="446.59465466093013" y1="20" x2="446.59465466093013" y2="445"/></g><g><line x1="480.9225340462552" y1="20" x2="480.9225340462552" y2="445"/></g><g><line x1="515.2504134315802" y1="20" x2="515.2504134315802" y2="445"/></g><g><line x1="549.5782928169052" y1="20" x2="549.5782928169052" y2="445"/></g><g><line x1="583.9061722022302" y1="20" x2="583.9061722022302" y2="445"/></g></g></g><g class="span y-axis"><g class="tick grid"><g><line x1="75" y1="435.44943820224717" x2="610" y2="435.44943820224717"/></g><g><line x1="75" y1="394.85955056179773" x2="610" y2="394.85955056179773"/></g><g><line x1="75" y1="354.2696629213483" x2="610" y2="354.2696629213483"/></g><g><line x1="75" y1="313.67977528089887" x2="610" y2="313.67977528089887"/></g><g><line x1="75" y1="273.08988764044943" x2="610" y2="273.08988764044943"/></g><g><line x1="75" y1="232.50000000000003" x2="610" y2="232.50000000000003"/></g><g><line x1="75" y1="191.9101123595506" x2="610" y2="191.9101123595506"/></g><g><line x1="75" y1="151.32022471910113" x2="610" y2="151.32022471910113"/></g><g><line x1="75" y1="110.7303370786517" x2="610" y2="110.7303370786517"/></g><g><line x1="75" y1="70.14044943820227" x2="610" y2="70.14044943820227"/></g><g><line x1="75" y1="29.550561797752835" x2="610" y2="29.550561797752835"/></g></g></g></g><g class="content"><g><g><g class="assocs"/><g class="scatters"/></g><g><g class="assocs"><path class="assoc weaker stroke-c1" d="M240.151,48.856L256.273,49.377L272.538,70.127L290.433,61.244L308.763,75.419"/><path class="assoc weaker stroke-c1" d="M347.742,42.412L364.242,34.998L382.38,36.474L399.39,31.531"/><path class="assoc weaker stroke-c1" d="M221.397,31.542L238.597,39.451"/><path class="assoc weaker stroke-c1" d="M534.685,201.792L550.798,184.98"/><path class="assoc weaker stroke-c1" d="M84.64,29.552L102.127,31.529L122.143,29.551L139.251,29.551"/><path class="assoc weaker stroke-c1" d="M403.885,147.383L420.331,168.174L437.437,192.458L455.201,217.65"/><path class="assoc weaker stroke-c1" d="M257.751,151.415L274.761,176.121L291.632,226.575L309.395,241.326L326.55,161.22"/><path class="assoc weaker stroke-c1" d="M360.453,177.087L377.511,201.864L398.284,265.174L417.364,435.449"/><path class="assoc weaker stroke-c1" d="M302.923,31.035L324.164,30.937"/><path class="assoc weaker stroke-c1" d="M362.19,120.636L377.745,125.62L396.49,167.096L411.96,88.035L431.034,153.3"/><path class="assoc weaker stroke-c1" d="M259.212,37.468L274.619,35.985L289.99,35.496L306.483,39.466L325.889,55.29"/><path class="assoc weaker stroke-c1" d="M361.441,35.74L379.199,37.194L400.725,38.955L418.205,38.197"/><path class="assoc weaker stroke-c1" d="M394.967,165.646L412.167,136.465L431.246,130.539"/><path class="assoc weaker stroke-c1" d="M409.48,198.849L426.815,206.255"/><path class="assoc weaker stroke-c1" d="M380.777,76.595L411.885,151.324L428.567,155.28"/><path class="assoc weaker stroke-c1" d="M310.559,51.33L328.418,47.717L346.18,44.121"/><path class="assoc weaker stroke-c1" d="M395.123,155.432L411.24,197.03L427.687,239.487L441.317,281.01"/><path class="assoc weaker stroke-c1" d="M566.762,144.885L578.627,154.47L600.36,207.255"/></g><g class="scatters"><g class="scatter"><circle class="marker weak fill-c1" cx="240.15058769635408" cy="48.85601223173426" r="2.5"/><circle class="marker weak fill-c1" cx="256.2732092704554" cy="49.37727159523321" r="2.5"/><circle class="marker weak fill-c1" cx="272.53771567622937" cy="70.12747895160888" r="2.5"/><circle class="marker weak fill-c1" cx="290.43330836913475" cy="61.24407625326552" r="2.5"/><circle class="marker weak fill-c1" cx="308.7630236979547" cy="75.41941341988374" r="2.5"/></g><g class="scatter"><circle class="marker weak fill-c1" cx="347.74217638238326" cy="42.411811591237566" r="2.5"/><circle class="marker weak fill-c1" cx="364.2415424518443" cy="34.99753415209465" r="2.5"/><circle class="marker weak fill-c1" cx="382.37962267317596" cy="36.473705630951095" r="2.5"/><circle class="marker weak fill-c1" cx="399.39038305633306" cy="31.530569912342578" r="2.5"/></g><g class="scatter"><circle class="marker weak fill-c1" cx="221.39730217811598" cy="31.54208088136302" r="2.5"/><circle class="marker weak fill-c1" cx="238.5973187246094" cy="39.45054043544813" r="2.5"/></g><g class="scatter"><circle class="marker weak fill-c1" cx="534.6854598218957" cy="201.79173122554622" r="2.5"/><circle class="marker weak fill-c1" cx="550.7983583237758" cy="184.98013040992655" r="2.5"/></g><g class="scatter"><circle class="marker weak fill-c1" cx="84.63963963963963" cy="29.55226058832264" r="2.5"/><circle class="marker weak fill-c1" cx="102.12656866070145" cy="31.528516169550734" r="2.5"/><circle class="marker weak fill-c1" cx="122.14339524106191" cy="29.55056179775283" r="2.5"/><circle class="marker weak fill-c1" cx="139.25145182166506" cy="29.55056179775283" r="2.5"/></g><g class="scatter"><circle class="marker weak fill-c1" cx="403.8848977438063" cy="147.38301955212236" r="2.5"/><circle class="marker weak fill-c1" cx="420.33077054724214" cy="168.1736732569301" r="2.5"/><circle class="marker weak fill-c1" cx="437.4369938212985" cy="192.458069761749" r="2.5"/><circle class="marker weak fill-c1" cx="455.2009812942398" cy="217.65004752727037" r="2.5"/></g><g class="scatter"><circle class="marker weak fill-c1" cx="257.75091982237996" cy="151.41499956262575" r="2.5"/><circle class="marker weak fill-c1" cx="274.76079628988055" cy="176.1209589590416" r="2.5"/><circle class="marker weak fill-c1" cx="291.6316688359963" cy="226.57478466880622" r="2.5"/><circle class="marker weak fill-c1" cx="309.3950342942164" cy="241.32614012609864" r="2.5"/><circle class="marker weak fill-c1" cx="326.54957829082673" cy="161.22020335679647" r="2.5"/></g><g class="scatter"><circle class="marker weak fill-c1" cx="360.45294899772546" cy="177.08727857080777" r="2.5"/><circle class="marker weak fill-c1" cx="377.5110807125463" cy="201.86419768171865" r="2.5"/><circle class="marker weak fill-c1" cx="398.2838843425111" cy="265.174444485162" r="2.5"/><circle class="marker weak fill-c1" cx="417.36402222794345" cy="435.44943820224717" r="2.5"/></g><g class="scatter"><circle class="marker weak fill-c1" cx="302.9231348079751" cy="31.035463037290477" r="2.5"/><circle class="marker weak fill-c1" cx="324.16421731017016" cy="30.93654889738965" r="2.5"/></g><g class="scatter"><circle class="marker weak fill-c1" cx="362.1900069507832" cy="120.6357395165927" r="2.5"/><circle class="marker weak fill-c1" cx="377.7452856238952" cy="125.61993271364781" r="2.5"/><circle class="marker weak fill-c1" cx="396.48992841127" cy="167.095716208076" r="2.5"/><circle class="marker weak fill-c1" cx="411.9596636914055" cy="88.03520727762698" r="2.5"/><circle class="marker weak fill-c1" cx="431.0341052314961" cy="153.30023283369087" r="2.5"/></g><g class="scatter"><circle class="marker weak fill-c1" cx="259.21154133827923" cy="37.46839471295918" r="2.5"/><circle class="marker weak fill-c1" cx="274.6191078839093" cy="35.98501777359362" r="2.5"/><circle class="marker weak fill-c1" cx="289.99046662524086" cy="35.495637929705126" r="2.5"/><circle class="marker weak fill-c1" cx="306.4829577951515" cy="39.46635150848233" r="2.5"/><circle class="marker weak fill-c1" cx="325.88932603305693" cy="55.2904814816593" r="2.5"/></g><g class="scatter"><circle class="marker weak fill-c1" cx="361.44149407783345" cy="35.73972202784177" r="2.5"/><circle class="marker weak fill-c1" cx="379.19903224024415" cy="37.19405192660311" r="2.5"/><circle class="marker weak fill-c1" cx="400.72453915812264" cy="38.95474812717909" r="2.5"/><circle class="marker weak fill-c1" cx="418.20537898243987" cy="38.1969881060369" r="2.5"/></g><g class="scatter"><circle class="marker weak fill-c1" cx="394.9673018489498" cy="165.64593442575716" r="2.5"/><circle class="marker weak fill-c1" cx="412.1671219697418" cy="136.4647192864538" r="2.5"/><circle class="marker weak fill-c1" cx="431.2457539247965" cy="130.53942913795515" r="2.5"/></g><g class="scatter"><circle class="marker weak fill-c1" cx="409.479756473123" cy="198.8489700623621" r="2.5"/><circle class="marker weak fill-c1" cx="426.81521672516277" cy="206.25500034863663" r="2.5"/></g><g class="scatter"><circle class="marker weak fill-c1" cx="380.7773454889223" cy="76.59539910467073" r="2.5"/><circle class="marker weak fill-c1" cx="411.88459633583886" cy="151.32432400322216" r="2.5"/><circle class="marker weak fill-c1" cx="428.56657283240435" cy="155.28020998065395" r="2.5"/></g><g class="scatter"><circle class="marker weak fill-c1" cx="310.5587911000078" cy="51.33049622010652" r="2.5"/><circle class="marker weak fill-c1" cx="328.41768492436097" cy="47.71699788093904" r="2.5"/><circle class="marker weak fill-c1" cx="346.1798718283724" cy="44.121294664532954" r="2.5"/></g><g class="scatter"><circle class="marker weak fill-c1" cx="395.1232638558922" cy="155.43189932588524" r="2.5"/><circle class="marker weak fill-c1" cx="411.24045098558713" cy="197.0298581936799" r="2.5"/><circle class="marker weak fill-c1" cx="427.68704401659494" cy="239.48651394832882" r="2.5"/><circle class="marker weak fill-c1" cx="441.3165651128005" cy="281.00985816355507" r="2.5"/></g><g class="scatter"><circle class="marker weak fill-c1" cx="566.761744129244" cy="144.88524479812452" r="2.5"/><circle class="marker weak fill-c1" cx="578.6271660008272" cy="154.47049857134672" r="2.5"/><circle class="marker weak fill-c1" cx="600.3603603603603" cy="207.25506686092768" r="2.5"/></g></g></g></g></g><g class="frame"><g class="span x-axis"><g class="tick minor"><g><line x1="111.89783065401116" y1="20" x2="111.89783065401116" y2="22"/></g><g><line x1="120.4798005003424" y1="20" x2="120.4798005003424" y2="22"/></g><g><line x1="129.06177034667365" y1="20" x2="129.06177034667365" y2="22"/></g><g><line x1="146.2257100393362" y1="20" x2="146.2257100393362" y2="22"/></g><g><line x1="154.80767988566743" y1="20" x2="154.80767988566743" y2="22"/></g><g><line x1="163.3896497319987" y1="20" x2="163.3896497319987" y2="22"/></g><g><line x1="180.5535894246612" y1="20" x2="180.5535894246612" y2="22"/></g><g><line x1="189.13555927099247" y1="20" x2="189.13555927099247" y2="22"/></g><g><line x1="197.7175291173237" y1="20" x2="197.7175291173237" y2="22"/></g><g><line x1="214.88146880998625" y1="20" x2="214.88146880998625" y2="22"/></g><g><line x1="223.4634386563175" y1="20" x2="223.4634386563175" y2="22"/></g><g><line x1="232.04540850264874" y1="20" x2="232.04540850264874" y2="22"/></g><g><line x1="249.20934819531126" y1="20" x2="249.20934819531126" y2="22"/></g><g><line x1="257.7913180416425" y1="20" x2="257.7913180416425" y2="22"/></g><g><line x1="266.3732878879738" y1="20" x2="266.3732878879738" y2="22"/></g><g><line x1="283.5372275806363" y1="20" x2="283.5372275806363" y2="22"/></g><g><line x1="292.1191974269675" y1="20" x2="292.1191974269675" y2="22"/></g><g><line x1="300.7011672732988" y1="20" x2="300.7011672732988" y2="22"/></g><g><line x1="317.86510696596133" y1="20" x2="317.86510696596133" y2="22"/></g><g><line x1="326.44707681229255" y1="20" x2="326.44707681229255" y2="22"/></g><g><line x1="335.0290466586238" y1="20" x2="335.0290466586238" y2="22"/></g><g><line x1="352.1929863512863" y1="20" x2="352.1929863512863" y2="22"/></g><g><line x1="360.7749561976176" y1="20" x2="360.7749561976176" y2="22"/></g><g><line x1="369.3569260439489" y1="20" x2="369.3569260439489" y2="22"/></g><g><line x1="386.52086573661137" y1="20" x2="386.52086573661137" y2="22"/></g><g><line x1="395.1028355829426" y1="20" x2="395.1028355829426" y2="22"/></g><g><line x1="403.68480542927387" y1="20" x2="403.68480542927387" y2="22"/></g><g><line x1="420.84874512193636" y1="20" x2="420.84874512193636" y2="22"/></g><g><line x1="429.43071496826764" y1="20" x2="429.43071496826764" y2="22"/></g><g><line x1="438.0126848145989" y1="20" x2="438.0126848145989" y2="22"/></g><g><line x1="455.1766245072614" y1="20" x2="455.1766245072614" y2="22"/></g><g><line x1="463.7585943535927" y1="20" x2="463.7585943535927" y2="22"/></g><g><line x1="472.34056419992396" y1="20" x2="472.34056419992396" y2="22"/></g><g><line x1="489.5045038925864" y1="20" x2="489.5045038925864" y2="22"/></g><g><line x1="498.0864737389177" y1="20" x2="498.0864737389177" y2="22"/></g><g><line x1="506.66844358524895" y1="20" x2="506.66844358524895" y2="22"/></g><g><line x1="523.8323832779115" y1="20" x2="523.8323832779115" y2="22"/></g><g><line x1="532.4143531242428" y1="20" x2="532.4143531242428" y2="22"/></g><g><line x1="540.996322970574" y1="20" x2="540.996322970574" y2="22"/></g><g><line x1="558.1602626632365" y1="20" x2="558.1602626632365" y2="22"/></g><g><line x1="566.7422325095678" y1="20" x2="566.7422325095678" y2="22"/></g><g><line x1="575.324202355899" y1="20" x2="575.324202355899" y2="22"/></g></g><g class="tick major"><g><line x1="103.3158608076799" y1="20" x2="103.3158608076799" y2="24"/><text class="" text-anchor="middle" alignment-baseline="text-top" dominant-baseline="text-top" transform="translate(103.3158608076799, 16) rotate(0)"><tspan x="0" y="0em" text-anchor="middle" alignment-baseline="text-top" dominant-baseline="text-top">-12</tspan></text></g><g><line x1="137.64374019300493" y1="20" x2="137.64374019300493" y2="24"/><text class="" text-anchor="middle" alignment-baseline="text-top" dominant-baseline="text-top" transform="translate(137.64374019300493, 16) rotate(0)"><tspan x="0" y="0em" text-anchor="middle" alignment-baseline="text-top" dominant-baseline="text-top">-10</tspan></text></g><g><line x1="171.97161957832998" y1="20" x2="171.97161957832998" y2="24"/><text class="" text-anchor="middle" alignment-baseline="text-top" dominant-baseline="text-top" transform="translate(171.97161957832998, 16) rotate(0)"><tspan x="0" y="0em" text-anchor="middle" alignment-baseline="text-top" dominant-baseline="text-top">-8</tspan></text></g><g><line x1="206.29949896365497" y1="20" x2="206.29949896365497" y2="24"/><text class="" text-anchor="middle" alignment-baseline="text-top" dominant-baseline="text-top" transform="translate(206.29949896365497, 16) rotate(0)"><tspan x="0" y="0em" text-anchor="middle" alignment-baseline="text-top" dominant-baseline="text-top">-6</tspan></text></g><g><line x1="240.62737834898" y1="20" x2="240.62737834898" y2="24"/><text class="" text-anchor="middle" alignment-baseline="text-top" dominant-baseline="text-top" transform="translate(240.62737834898, 16) rotate(0)"><tspan x="0" y="0em" text-anchor="middle" alignment-baseline="text-top" dominant-baseline="text-top">-4</tspan></text></g><g><line x1="274.95525773430506" y1="20" x2="274.95525773430506" y2="24"/><text class="" text-anchor="middle" alignment-baseline="text-top" dominant-baseline="text-top" transform="translate(274.95525773430506, 16) rotate(0)"><tspan x="0" y="0em" text-anchor="middle" alignment-baseline="text-top" dominant-baseline="text-top">-2</tspan></text></g><g><line x1="309.28313711963006" y1="20" x2="309.28313711963006" y2="24"/><text class="" text-anchor="middle" alignment-baseline="text-top" dominant-baseline="text-top" transform="translate(309.28313711963006, 16) rotate(0)"><tspan x="0" y="0em" text-anchor="middle" alignment-baseline="text-top" dominant-baseline="text-top">0</tspan></text></g><g><line x1="343.6110165049551" y1="20" x2="343.6110165049551" y2="24"/><text class="" text-anchor="middle" alignment-baseline="text-top" dominant-baseline="text-top" transform="translate(343.6110165049551, 16) rotate(0)"><tspan x="0" y="0em" text-anchor="middle" alignment-baseline="text-top" dominant-baseline="text-top">2</tspan></text></g><g><line x1="377.9388958902801" y1="20" x2="377.9388958902801" y2="24"/><text class="" text-anchor="middle" alignment-baseline="text-top" dominant-baseline="text-top" transform="translate(377.9388958902801, 16) rotate(0)"><tspan x="0" y="0em" text-anchor="middle" alignment-baseline="text-top" dominant-baseline="text-top">4</tspan></text></g><g><line x1="412.2667752756051" y1="20" x2="412.2667752756051" y2="24"/><text class="" text-anchor="middle" alignment-baseline="text-top" dominant-baseline="text-top" transform="translate(412.2667752756051, 16) rotate(0)"><tspan x="0" y="0em" text-anchor="middle" alignment-baseline="text-top" dominant-baseline="text-top">6</tspan></text></g><g><line x1="446.59465466093013" y1="20" x2="446.59465466093013" y2="24"/><text class="" text-anchor="middle" alignment-baseline="text-top" dominant-baseline="text-top" transform="translate(446.59465466093013, 16) rotate(0)"><tspan x="0" y="0em" text-anchor="middle" alignment-baseline="text-top" dominant-baseline="text-top">8</tspan></text></g><g><line x1="480.9225340462552" y1="20" x2="480.9225340462552" y2="24"/><text class="" text-anchor="middle" alignment-baseline="text-top" dominant-baseline="text-top" transform="translate(480.9225340462552, 16) rotate(0)"><tspan x="0" y="0em" text-anchor="middle" alignment-baseline="text-top" dominant-baseline="text-top">10</tspan></text></g><g><line x1="515.2504134315802" y1="20" x2="515.2504134315802" y2="24"/><text class="" text-anchor="middle" alignment-baseline="text-top" dominant-baseline="text-top" transform="translate(515.2504134315802, 16) rotate(0)"><tspan x="0" y="0em" text-anchor="middle" alignment-baseline="text-top" dominant-baseline="text-top">12</tspan></text></g><g><line x1="549.5782928169052" y1="20" x2="549.5782928169052" y2="24"/><text class="" text-anchor="middle" alignment-baseline="text-top" dominant-baseline="text-top" transform="translate(549.5782928169052, 16) rotate(0)"><tspan x="0" y="0em" text-anchor="middle" alignment-baseline="text-top" dominant-baseline="text-top">14</tspan></text></g><g><line x1="583.9061722022302" y1="20" x2="583.9061722022302" y2="24"/><text class="" text-anchor="middle" alignment-baseline="text-top" dominant-baseline="text-top" transform="translate(583.9061722022302, 16) rotate(0)"><tspan x="0" y="0em" text-anchor="middle" alignment-baseline="text-top" dominant-baseline="text-top">16</tspan></text></g></g><line x1="75" y1="20" x2="610" y2="20"/></g><g class="span x-axis"><g class="tick minor"><g><line x1="111.89783065401116" y1="445" x2="111.89783065401116" y2="443"/></g><g><line x1="120.4798005003424" y1="445" x2="120.4798005003424" y2="443"/></g><g><line x1="129.06177034667365" y1="445" x2="129.06177034667365" y2="443"/></g><g><line x1="146.2257100393362" y1="445" x2="146.2257100393362" y2="443"/></g><g><line x1="154.80767988566743" y1="445" x2="154.80767988566743" y2="443"/></g><g><line x1="163.3896497319987" y1="445" x2="163.3896497319987" y2="443"/></g><g><line x1="180.5535894246612" y1="445" x2="180.5535894246612" y2="443"/></g><g><line x1="189.13555927099247" y1="445" x2="189.13555927099247" y2="443"/></g><g><line x1="197.7175291173237" y1="445" x2="197.7175291173237" y2="443"/></g><g><line x1="214.88146880998625" y1="445" x2="214.88146880998625" y2="443"/></g><g><line x1="223.4634386563175" y1="445" x2="223.4634386563175" y2="443"/></g><g><line x1="232.04540850264874" y1="445" x2="232.04540850264874" y2="443"/></g><g><line x1="249.20934819531126" y1="445" x2="249.20934819531126" y2="443"/></g><g><line x1="257.7913180416425" y1="445" x2="257.7913180416425" y2="443"/></g><g><line x1="266.3732878879738" y1="445" x2="266.3732878879738" y2="443"/></g><g><line x1="283.5372275806363" y1="445" x2="283.5372275806363" y2="443"/></g><g><line x1="292.1191974269675" y1="445" x2="292.1191974269675" y2="443"/></g><g><line x1="300.7011672732988" y1="445" x2="300.7011672732988" y2="443"/></g><g><line x1="317.86510696596133" y1="445" x2="317.86510696596133" y2="443"/></g><g><line x1="326.44707681229255" y1="445" x2="326.44707681229255" y2="443"/></g><g><line x1="335.0290466586238" y1="445" x2="335.0290466586238" y2="443"/></g><g><line x1="352.1929863512863" y1="445" x2="352.1929863512863" y2="443"/></g><g><line x1="360.7749561976176" y1="445" x2="360.7749561976176" y2="443"/></g><g><line x1="369.3569260439489" y1="445" x2="369.3569260439489" y2="443"/></g><g><line x1="386.52086573661137" y1="445" x2="386.52086573661137" y2="443"/></g><g><line x1="395.1028355829426" y1="445" x2="395.1028355829426" y2="443"/></g><g><line x1="403.68480542927387" y1="445" x2="403.68480542927387" y2="443"/></g><g><line x1="420.84874512193636" y1="445" x2="420.84874512193636" y2="443"/></g><g><line x1="429.43071496826764" y1="445" x2="429.43071496826764" y2="443"/></g><g><line x1="438.0126848145989" y1="445" x2="438.0126848145989" y2="443"/></g><g><line x1="455.1766245072614" y1="445" x2="455.1766245072614" y2="443"/></g><g><line x1="463.7585943535927" y1="445" x2="463.7585943535927" y2="443"/></g><g><line x1="472.34056419992396" y1="445" x2="472.34056419992396" y2="443"/></g><g><line x1="489.5045038925864" y1="445" x2="489.5045038925864" y2="443"/></g><g><line x1="498.0864737389177" y1="445" x2="498.0864737389177" y2="443"/></g><g><line x1="506.66844358524895" y1="445" x2="506.66844358524895" y2="443"/></g><g><line x1="523.8323832779115" y1="445" x2="523.8323832779115" y2="443"/></g><g><line x1="532.4143531242428" y1="445" x2="532.4143531242428" y2="443"/></g><g><line x1="540.996322970574" y1="445" x2="540.996322970574" y2="443"/></g><g><line x1="558.1602626632365" y1="445" x2="558.1602626632365" y2="443"/></g><g><line x1="566.7422325095678" y1="445" x2="566.7422325095678" y2="443"/></g><g><line x1="575.324202355899" y1="445" x2="575.324202355899" y2="443"/></g></g><g class="tick major"><g><line x1="103.3158608076799" y1="445" x2="103.3158608076799" y2="441"/><text class="" text-anchor="middle" alignment-baseline="hanging" dominant-baseline="hanging" transform="translate(103.3158608076799, 449) rotate(0)"><tspan x="0" y="0em" text-anchor="middle" alignment-baseline="hanging" dominant-baseline="hanging">-12</tspan></text></g><g><line x1="137.64374019300493" y1="445" x2="137.64374019300493" y2="441"/><text class="" text-anchor="middle" alignment-baseline="hanging" dominant-baseline="hanging" transform="translate(137.64374019300493, 449) rotate(0)"><tspan x="0" y="0em" text-anchor="middle" alignment-baseline="hanging" dominant-baseline="hanging">-10</tspan></text></g><g><line x1="171.97161957832998" y1="445" x2="171.97161957832998" y2="441"/><text class="" text-anchor="middle" alignment-baseline="hanging" dominant-baseline="hanging" transform="translate(171.97161957832998, 449) rotate(0)"><tspan x="0" y="0em" text-anchor="middle" alignment-baseline="hanging" dominant-baseline="hanging">-8</tspan></text></g><g><line x1="206.29949896365497" y1="445" x2="206.29949896365497" y2="441"/><text class="" text-anchor="middle" alignment-baseline="hanging" dominant-baseline="hanging" transform="translate(206.29949896365497, 449) rotate(0)"><tspan x="0" y="0em" text-anchor="middle" alignment-baseline="hanging" dominant-baseline="hanging">-6</tspan></text></g><g><line x1="240.62737834898" y1="445" x2="240.62737834898" y2="441"/><text class="" text-anchor="middle" alignment-baseline="hanging" dominant-baseline="hanging" transform="translate(240.62737834898, 449) rotate(0)"><tspan x="0" y="0em" text-anchor="middle" alignment-baseline="hanging" dominant-baseline="hanging">-4</tspan></text></g><g><line x1="274.95525773430506" y1="445" x2="274.95525773430506" y2="441"/><text class="" text-anchor="middle" alignment-baseline="hanging" dominant-baseline="hanging" transform="translate(274.95525773430506, 449) rotate(0)"><tspan x="0" y="0em" text-anchor="middle" alignment-baseline="hanging" dominant-baseline="hanging">-2</tspan></text></g><g><line x1="309.28313711963006" y1="445" x2="309.28313711963006" y2="441"/><text class="" text-anchor="middle" alignment-baseline="hanging" dominant-baseline="hanging" transform="translate(309.28313711963006, 449) rotate(0)"><tspan x="0" y="0em" text-anchor="middle" alignment-baseline="hanging" dominant-baseline="hanging">0</tspan></text></g><g><line x1="343.6110165049551" y1="445" x2="343.6110165049551" y2="441"/><text class="" text-anchor="middle" alignment-baseline="hanging" dominant-baseline="hanging" transform="translate(343.6110165049551, 449) rotate(0)"><tspan x="0" y="0em" text-anchor="middle" alignment-baseline="hanging" dominant-baseline="hanging">2</tspan></text></g><g><line x1="377.9388958902801" y1="445" x2="377.9388958902801" y2="441"/><text class="" text-anchor="middle" alignment-baseline="hanging" dominant-baseline="hanging" transform="translate(377.9388958902801, 449) rotate(0)"><tspan x="0" y="0em" text-anchor="middle" alignment-baseline="hanging" dominant-baseline="hanging">4</tspan></text></g><g><line x1="412.2667752756051" y1="445" x2="412.2667752756051" y2="441"/><text class="" text-anchor="middle" alignment-baseline="hanging" dominant-baseline="hanging" transform="translate(412.2667752756051, 449) rotate(0)"><tspan x="0" y="0em" text-anchor="middle" alignment-baseline="hanging" dominant-baseline="hanging">6</tspan></text></g><g><line x1="446.59465466093013" y1="445" x2="446.59465466093013" y2="441"/><text class="" text-anchor="middle" alignment-baseline="hanging" dominant-baseline="hanging" transform="translate(446.59465466093013, 449) rotate(0)"><tspan x="0" y="0em" text-anchor="middle" alignment-baseline="hanging" dominant-baseline="hanging">8</tspan></text></g><g><line x1="480.9225340462552" y1="445" x2="480.9225340462552" y2="441"/><text class="" text-anchor="middle" alignment-baseline="hanging" dominant-baseline="hanging" transform="translate(480.9225340462552, 449) rotate(0)"><tspan x="0" y="0em" text-anchor="middle" alignment-baseline="hanging" dominant-baseline="hanging">10</tspan></text></g><g><line x1="515.2504134315802" y1="445" x2="515.2504134315802" y2="441"/><text class="" text-anchor="middle" alignment-baseline="hanging" dominant-baseline="hanging" transform="translate(515.2504134315802, 449) rotate(0)"><tspan x="0" y="0em" text-anchor="middle" alignment-baseline="hanging" dominant-baseline="hanging">12</tspan></text></g><g><line x1="549.5782928169052" y1="445" x2="549.5782928169052" y2="441"/><text class="" text-anchor="middle" alignment-baseline="hanging" dominant-baseline="hanging" transform="translate(549.5782928169052, 449) rotate(0)"><tspan x="0" y="0em" text-anchor="middle" alignment-baseline="hanging" dominant-baseline="hanging">14</tspan></text></g><g><line x1="583.9061722022302" y1="445" x2="583.9061722022302" y2="441"/><text class="" text-anchor="middle" alignment-baseline="hanging" dominant-baseline="hanging" transform="translate(583.9061722022302, 449) rotate(0)"><tspan x="0" y="0em" text-anchor="middle" alignment-baseline="hanging" dominant-baseline="hanging">16</tspan></text></g></g><g class="tick label"><g><text class="" text-anchor="middle" alignment-baseline="hanging" dominant-baseline="hanging" transform="translate(342.5, 465) rotate(0)"><tspan x="0" y="0em" text-anchor="middle" alignment-baseline="hanging" dominant-baseline="hanging"><tspan class="mono" text-anchor="middle" alignment-baseline="hanging" dominant-baseline="hanging">Δ_edo_o_or_45</tspan></tspan></text></g></g><line x1="75" y1="445" x2="610" y2="445"/></g><g class="span y-axis"><g class="tick minor"><g><line x1="75" y1="425.3019662921348" x2="77" y2="425.3019662921348"/></g><g><line x1="75" y1="415.15449438202245" x2="77" y2="415.15449438202245"/></g><g><line x1="75" y1="405.0070224719101" x2="77" y2="405.0070224719101"/></g><g><line x1="75" y1="384.7120786516854" x2="77" y2="384.7120786516854"/></g><g><line x1="75" y1="374.564606741573" x2="77" y2="374.564606741573"/></g><g><line x1="75" y1="364.41713483146066" x2="77" y2="364.41713483146066"/></g><g><line x1="75" y1="344.12219101123594" x2="77" y2="344.12219101123594"/></g><g><line x1="75" y1="333.9747191011236" x2="77" y2="333.9747191011236"/></g><g><line x1="75" y1="323.8272471910112" x2="77" y2="323.8272471910112"/></g><g><line x1="75" y1="303.5323033707865" x2="77" y2="303.5323033707865"/></g><g><line x1="75" y1="293.38483146067415" x2="77" y2="293.38483146067415"/></g><g><line x1="75" y1="283.2373595505618" x2="77" y2="283.2373595505618"/></g><g><line x1="75" y1="262.9424157303371" x2="77" y2="262.9424157303371"/></g><g><line x1="75" y1="252.79494382022474" x2="77" y2="252.79494382022474"/></g><g><line x1="75" y1="242.6474719101124" x2="77" y2="242.6474719101124"/></g><g><line x1="75" y1="222.35252808988764" x2="77" y2="222.35252808988764"/></g><g><line x1="75" y1="212.2050561797753" x2="77" y2="212.2050561797753"/></g><g><line x1="75" y1="202.05758426966295" x2="77" y2="202.05758426966295"/></g><g><line x1="75" y1="181.7626404494382" x2="77" y2="181.7626404494382"/></g><g><line x1="75" y1="171.61516853932585" x2="77" y2="171.61516853932585"/></g><g><line x1="75" y1="161.4676966292135" x2="77" y2="161.4676966292135"/></g><g><line x1="75" y1="141.17275280898878" x2="77" y2="141.17275280898878"/></g><g><line x1="75" y1="131.02528089887642" x2="77" y2="131.02528089887642"/></g><g><line x1="75" y1="120.87780898876406" x2="77" y2="120.87780898876406"/></g><g><line x1="75" y1="100.58286516853934" x2="77" y2="100.58286516853934"/></g><g><line x1="75" y1="90.43539325842698" x2="77" y2="90.43539325842698"/></g><g><line x1="75" y1="80.28792134831463" x2="77" y2="80.28792134831463"/></g><g><line x1="75" y1="59.99297752808991" x2="77" y2="59.99297752808991"/></g><g><line x1="75" y1="49.84550561797755" x2="77" y2="49.84550561797755"/></g><g><line x1="75" y1="39.69803370786519" x2="77" y2="39.69803370786519"/></g></g><g class="tick major"><g><line x1="75" y1="435.44943820224717" x2="79" y2="435.44943820224717"/><text class="" text-anchor="end" alignment-baseline="middle" dominant-baseline="middle" transform="translate(71, 435.44943820224717) rotate(0)"><tspan x="0" y="0em" text-anchor="end" alignment-baseline="middle" dominant-baseline="middle">0</tspan></text></g><g><line x1="75" y1="394.85955056179773" x2="79" y2="394.85955056179773"/><text class="" text-anchor="end" alignment-baseline="middle" dominant-baseline="middle" transform="translate(71, 394.85955056179773) rotate(0)"><tspan x="0" y="0em" text-anchor="end" alignment-baseline="middle" dominant-baseline="middle">10</tspan></text></g><g><line x1="75" y1="354.2696629213483" x2="79" y2="354.2696629213483"/><text class="" text-anchor="end" alignment-baseline="middle" dominant-baseline="middle" transform="translate(71, 354.2696629213483) rotate(0)"><tspan x="0" y="0em" text-anchor="end" alignment-baseline="middle" dominant-baseline="middle">20</tspan></text></g><g><line x1="75" y1="313.67977528089887" x2="79" y2="313.67977528089887"/><text class="" text-anchor="end" alignment-baseline="middle" dominant-baseline="middle" transform="translate(71, 313.67977528089887) rotate(0)"><tspan x="0" y="0em" text-anchor="end" alignment-baseline="middle" dominant-baseline="middle">30</tspan></text></g><g><line x1="75" y1="273.08988764044943" x2="79" y2="273.08988764044943"/><text class="" text-anchor="end" alignment-baseline="middle" dominant-baseline="middle" transform="translate(71, 273.08988764044943) rotate(0)"><tspan x="0" y="0em" text-anchor="end" alignment-baseline="middle" dominant-baseline="middle">40</tspan></text></g><g><line x1="75" y1="232.50000000000003" x2="79" y2="232.50000000000003"/><text class="" text-anchor="end" alignment-baseline="middle" dominant-baseline="middle" transform="translate(71, 232.50000000000003) rotate(0)"><tspan x="0" y="0em" text-anchor="end" alignment-baseline="middle" dominant-baseline="middle">50</tspan></text></g><g><line x1="75" y1="191.9101123595506" x2="79" y2="191.9101123595506"/><text class="" text-anchor="end" alignment-baseline="middle" dominant-baseline="middle" transform="translate(71, 191.9101123595506) rotate(0)"><tspan x="0" y="0em" text-anchor="end" alignment-baseline="middle" dominant-baseline="middle">60</tspan></text></g><g><line x1="75" y1="151.32022471910113" x2="79" y2="151.32022471910113"/><text class="" text-anchor="end" alignment-baseline="middle" dominant-baseline="middle" transform="translate(71, 151.32022471910113) rotate(0)"><tspan x="0" y="0em" text-anchor="end" alignment-baseline="middle" dominant-baseline="middle">70</tspan></text></g><g><line x1="75" y1="110.7303370786517" x2="79" y2="110.7303370786517"/><text class="" text-anchor="end" alignment-baseline="middle" dominant-baseline="middle" transform="translate(71, 110.7303370786517) rotate(0)"><tspan x="0" y="0em" text-anchor="end" alignment-baseline="middle" dominant-baseline="middle">80</tspan></text></g><g><line x1="75" y1="70.14044943820227" x2="79" y2="70.14044943820227"/><text class="" text-anchor="end" alignment-baseline="middle" dominant-baseline="middle" transform="translate(71, 70.14044943820227) rotate(0)"><tspan x="0" y="0em" text-anchor="end" alignment-baseline="middle" dominant-baseline="middle">90</tspan></text></g><g><line x1="75" y1="29.550561797752835" x2="79" y2="29.550561797752835"/><text class="" text-anchor="end" alignment-baseline="middle" dominant-baseline="middle" transform="translate(71, 29.550561797752835) rotate(0)"><tspan x="0" y="0em" text-anchor="end" alignment-baseline="middle" dominant-baseline="middle">1e+2</tspan></text></g></g><g class="tick label"><g><text class="" text-anchor="middle" alignment-baseline="text-top" dominant-baseline="text-top" transform="translate(55, 232.50000000000003) rotate(-90)"><tspan x="0" y="0em" text-anchor="middle" alignment-baseline="text-top" dominant-baseline="text-top"><tspan class="mono" text-anchor="middle" alignment-baseline="text-top" dominant-baseline="text-top">abc41</tspan></tspan></text></g></g><line x1="75" y1="445" x2="75" y2="20"/></g><g class="span y-axis"><g class="tick minor"><g><line x1="610" y1="425.3019662921348" x2="608" y2="425.3019662921348"/></g><g><line x1="610" y1="415.15449438202245" x2="608" y2="415.15449438202245"/></g><g><line x1="610" y1="405.0070224719101" x2="608" y2="405.0070224719101"/></g><g><line x1="610" y1="384.7120786516854" x2="608" y2="384.7120786516854"/></g><g><line x1="610" y1="374.564606741573" x2="608" y2="374.564606741573"/></g><g><line x1="610" y1="364.41713483146066" x2="608" y2="364.41713483146066"/></g><g><line x1="610" y1="344.12219101123594" x2="608" y2="344.12219101123594"/></g><g><line x1="610" y1="333.9747191011236" x2="608" y2="333.9747191011236"/></g><g><line x1="610" y1="323.8272471910112" x2="608" y2="323.8272471910112"/></g><g><line x1="610" y1="303.5323033707865" x2="608" y2="303.5323033707865"/></g><g><line x1="610" y1="293.38483146067415" x2="608" y2="293.38483146067415"/></g><g><line x1="610" y1="283.2373595505618" x2="608" y2="283.2373595505618"/></g><g><line x1="610" y1="262.9424157303371" x2="608" y2="262.9424157303371"/></g><g><line x1="610" y1="252.79494382022474" x2="608" y2="252.79494382022474"/></g><g><line x1="610" y1="242.6474719101124" x2="608" y2="242.6474719101124"/></g><g><line x1="610" y1="222.35252808988764" x2="608" y2="222.35252808988764"/></g><g><line x1="610" y1="212.2050561797753" x2="608" y2="212.2050561797753"/></g><g><line x1="610" y1="202.05758426966295" x2="608" y2="202.05758426966295"/></g><g><line x1="610" y1="181.7626404494382" x2="608" y2="181.7626404494382"/></g><g><line x1="610" y1="171.61516853932585" x2="608" y2="171.61516853932585"/></g><g><line x1="610" y1="161.4676966292135" x2="608" y2="161.4676966292135"/></g><g><line x1="610" y1="141.17275280898878" x2="608" y2="141.17275280898878"/></g><g><line x1="610" y1="131.02528089887642" x2="608" y2="131.02528089887642"/></g><g><line x1="610" y1="120.87780898876406" x2="608" y2="120.87780898876406"/></g><g><line x1="610" y1="100.58286516853934" x2="608" y2="100.58286516853934"/></g><g><line x1="610" y1="90.43539325842698" x2="608" y2="90.43539325842698"/></g><g><line x1="610" y1="80.28792134831463" x2="608" y2="80.28792134831463"/></g><g><line x1="610" y1="59.99297752808991" x2="608" y2="59.99297752808991"/></g><g><line x1="610" y1="49.84550561797755" x2="608" y2="49.84550561797755"/></g><g><line x1="610" y1="39.69803370786519" x2="608" y2="39.69803370786519"/></g></g><g class="tick major"><g><line x1="610" y1="435.44943820224717" x2="606" y2="435.44943820224717"/><text class="" text-anchor="start" alignment-baseline="middle" dominant-baseline="middle" transform="translate(614, 435.44943820224717) rotate(0)"><tspan x="0" y="0em" text-anchor="start" alignment-baseline="middle" dominant-baseline="middle">0</tspan></text></g><g><line x1="610" y1="394.85955056179773" x2="606" y2="394.85955056179773"/><text class="" text-anchor="start" alignment-baseline="middle" dominant-baseline="middle" transform="translate(614, 394.85955056179773) rotate(0)"><tspan x="0" y="0em" text-anchor="start" alignment-baseline="middle" dominant-baseline="middle">10</tspan></text></g><g><line x1="610" y1="354.2696629213483" x2="606" y2="354.2696629213483"/><text class="" text-anchor="start" alignment-baseline="middle" dominant-baseline="middle" transform="translate(614, 354.2696629213483) rotate(0)"><tspan x="0" y="0em" text-anchor="start" alignment-baseline="middle" dominant-baseline="middle">20</tspan></text></g><g><line x1="610" y1="313.67977528089887" x2="606" y2="313.67977528089887"/><text class="" text-anchor="start" alignment-baseline="middle" dominant-baseline="middle" transform="translate(614, 313.67977528089887) rotate(0)"><tspan x="0" y="0em" text-anchor="start" alignment-baseline="middle" dominant-baseline="middle">30</tspan></text></g><g><line x1="610" y1="273.08988764044943" x2="606" y2="273.08988764044943"/><text class="" text-anchor="start" alignment-baseline="middle" dominant-baseline="middle" transform="translate(614, 273.08988764044943) rotate(0)"><tspan x="0" y="0em" text-anchor="start" alignment-baseline="middle" dominant-baseline="middle">40</tspan></text></g><g><line x1="610" y1="232.50000000000003" x2="606" y2="232.50000000000003"/><text class="" text-anchor="start" alignment-baseline="middle" dominant-baseline="middle" transform="translate(614, 232.50000000000003) rotate(0)"><tspan x="0" y="0em" text-anchor="start" alignment-baseline="middle" dominant-baseline="middle">50</tspan></text></g><g><line x1="610" y1="191.9101123595506" x2="606" y2="191.9101123595506"/><text class="" text-anchor="start" alignment-baseline="middle" dominant-baseline="middle" transform="translate(614, 191.9101123595506) rotate(0)"><tspan x="0" y="0em" text-anchor="start" alignment-baseline="middle" dominant-baseline="middle">60</tspan></text></g><g><line x1="610" y1="151.32022471910113" x2="606" y2="151.32022471910113"/><text class="" text-anchor="start" alignment-baseline="middle" dominant-baseline="middle" transform="translate(614, 151.32022471910113) rotate(0)"><tspan x="0" y="0em" text-anchor="start" alignment-baseline="middle" dominant-baseline="middle">70</tspan></text></g><g><line x1="610" y1="110.7303370786517" x2="606" y2="110.7303370786517"/><text class="" text-anchor="start" alignment-baseline="middle" dominant-baseline="middle" transform="translate(614, 110.7303370786517) rotate(0)"><tspan x="0" y="0em" text-anchor="start" alignment-baseline="middle" dominant-baseline="middle">80</tspan></text></g><g><line x1="610" y1="70.14044943820227" x2="606" y2="70.14044943820227"/><text class="" text-anchor="start" alignment-baseline="middle" dominant-baseline="middle" transform="translate(614, 70.14044943820227) rotate(0)"><tspan x="0" y="0em" text-anchor="start" alignment-baseline="middle" dominant-baseline="middle">90</tspan></text></g><g><line x1="610" y1="29.550561797752835" x2="606" y2="29.550561797752835"/><text class="" text-anchor="start" alignment-baseline="middle" dominant-baseline="middle" transform="translate(614, 29.550561797752835) rotate(0)"><tspan x="0" y="0em" text-anchor="start" alignment-baseline="middle" dominant-baseline="middle">1e+2</tspan></text></g></g><line x1="610" y1="445" x2="610" y2="20"/></g></g><g class="context panel legend"><rect class="frame" x="85" y="30" width="95" height="35"/><g class="entry"><g class="scatter"><circle class="marker fill-c0 weak" cx="95" cy="40" r="2.5"/></g><text class="label" text-anchor="start" alignment-baseline="middle" dominant-baseline="middle" transform="translate(105, 40) rotate(0)" dy=".09em"><tspan x="0" y="0em" text-anchor="start" alignment-baseline="middle" dominant-baseline="middle">Controls (0)</tspan></text></g><g class="entry"><g class="scatter"><circle class="marker fill-c1 weak" cx="95" cy="55" r="2.5"/></g><text class="label" text-anchor="start" alignment-baseline="middle" dominant-baseline="middle" transform="translate(105, 55) rotate(0)" dy=".09em"><tspan x="0" y="0em" text-anchor="start" alignment-baseline="middle" dominant-baseline="middle">Patients (18)</tspan></text></g></g><g class="context panel associated-values"><rect class="frame" x="85" y="70" width="48" height="20"/><g class="description"><text class="entry" text-anchor="start" alignment-baseline="middle" dominant-baseline="middle" transform="translate(90, 80) rotate(0)" dy=".09em"><tspan x="0" y="0em" text-anchor="start" alignment-baseline="middle" dominant-baseline="middle">ρ:</tspan></text></g><g class="associated-value"><text class="entry" text-anchor="start" alignment-baseline="middle" dominant-baseline="middle" transform="translate(103, 80) rotate(0)" dy=".09em"><tspan x="0" y="0em" text-anchor="start" alignment-baseline="middle" dominant-baseline="middle">-.6</tspan></text></g></g></g></svg>