<?xml version="1.0" encoding="UTF-8"?>
<svg xmlns="http://www.w3.org/2000/svg" xmlns:xlink="http://www.w3.org/1999/xlink" width="303pt" height="288pt" viewBox="0 0 303 288">
<defs>
<clipPath id="clip-0">
<path clip-rule="nonzero" d="M 41.152344 5.480469 L 299.605469 5.480469 L 299.605469 254.851562 L 41.152344 254.851562 Z M 41.152344 5.480469 "/>
</clipPath>
<clipPath id="clip-1">
<path clip-rule="nonzero" d="M 41.152344 214 L 299.605469 214 L 299.605469 215 L 41.152344 215 Z M 41.152344 214 "/>
</clipPath>
<clipPath id="clip-2">
<path clip-rule="nonzero" d="M 41.152344 155 L 299.605469 155 L 299.605469 157 L 41.152344 157 Z M 41.152344 155 "/>
</clipPath>
<clipPath id="clip-3">
<path clip-rule="nonzero" d="M 41.152344 97 L 299.605469 97 L 299.605469 99 L 41.152344 99 Z M 41.152344 97 "/>
</clipPath>
<clipPath id="clip-4">
<path clip-rule="nonzero" d="M 41.152344 39 L 299.605469 39 L 299.605469 40 L 41.152344 40 Z M 41.152344 39 "/>
</clipPath>
<clipPath id="clip-5">
<path clip-rule="nonzero" d="M 59 5.480469 L 60 5.480469 L 60 254.851562 L 59 254.851562 Z M 59 5.480469 "/>
</clipPath>
<clipPath id="clip-6">
<path clip-rule="nonzero" d="M 124 5.480469 L 125 5.480469 L 125 254.851562 L 124 254.851562 Z M 124 5.480469 "/>
</clipPath>
<clipPath id="clip-7">
<path clip-rule="nonzero" d="M 189 5.480469 L 191 5.480469 L 191 254.851562 L 189 254.851562 Z M 189 5.480469 "/>
</clipPath>
<clipPath id="clip-8">
<path clip-rule="nonzero" d="M 254 5.480469 L 256 5.480469 L 256 254.851562 L 254 254.851562 Z M 254 5.480469 "/>
</clipPath>
<clipPath id="clip-9">
<path clip-rule="nonzero" d="M 41.152344 242 L 299.605469 242 L 299.605469 245 L 41.152344 245 Z M 41.152344 242 "/>
</clipPath>
<clipPath id="clip-10">
<path clip-rule="nonzero" d="M 41.152344 184 L 299.605469 184 L 299.605469 186 L 41.152344 186 Z M 41.152344 184 "/>
</clipPath>
<clipPath id="clip-11">
<path clip-rule="nonzero" d="M 41.152344 126 L 299.605469 126 L 299.605469 128 L 41.152344 128 Z M 41.152344 126 "/>
</clipPath>
<clipPath id="clip-12">
<path clip-rule="nonzero" d="M 41.152344 68 L 299.605469 68 L 299.605469 70 L 41.152344 70 Z M 41.152344 68 "/>
</clipPath>
<clipPath id="clip-13">
<path clip-rule="nonzero" d="M 41.152344 10 L 299.605469 10 L 299.605469 12 L 41.152344 12 Z M 41.152344 10 "/>
</clipPath>
<clipPath id="clip-14">
<path clip-rule="nonzero" d="M 91 5.480469 L 93 5.480469 L 93 254.851562 L 91 254.851562 Z M 91 5.480469 "/>
</clipPath>
<clipPath id="clip-15">
<path clip-rule="nonzero" d="M 156 5.480469 L 158 5.480469 L 158 254.851562 L 156 254.851562 Z M 156 5.480469 "/>
</clipPath>
<clipPath id="clip-16">
<path clip-rule="nonzero" d="M 222 5.480469 L 224 5.480469 L 224 254.851562 L 222 254.851562 Z M 222 5.480469 "/>
</clipPath>
<clipPath id="clip-17">
<path clip-rule="nonzero" d="M 287 5.480469 L 289 5.480469 L 289 254.851562 L 287 254.851562 Z M 287 5.480469 "/>
</clipPath>
<clipPath id="clip-18">
<path clip-rule="nonzero" d="M 41.152344 5.480469 L 299.605469 5.480469 L 299.605469 254.851562 L 41.152344 254.851562 Z M 41.152344 5.480469 "/>
</clipPath>
</defs>
<rect x="-30.3" y="-28.8" width="363.6" height="345.6" fill="rgb(100%, 100%, 100%)" fill-opacity="1"/>
<path fill="none" stroke-width="1.06698" stroke-linecap="round" stroke-linejoin="round" stroke="rgb(100%, 100%, 100%)" stroke-opacity="1" stroke-miterlimit="10" d="M 0 0 L 432 0 L 432 288 L 0 288 Z M 0 0 "/>
<g clip-path="url(#clip-0)">
<path fill-rule="nonzero" fill="rgb(100%, 100%, 100%)" fill-opacity="1" d="M 41.152344 5.476562 L 299.605469 5.476562 L 299.605469 254.847656 L 41.152344 254.847656 Z M 41.152344 5.476562 "/>
</g>
<g clip-path="url(#clip-1)">
<path fill="none" stroke-width="0.533489" stroke-linecap="butt" stroke-linejoin="round" stroke="rgb(92.155457%, 92.155457%, 92.155457%)" stroke-opacity="1" stroke-miterlimit="10" d="M 41.152344 214.402344 L 299.601562 214.402344 "/>
</g>
<g clip-path="url(#clip-2)">
<path fill="none" stroke-width="0.533489" stroke-linecap="butt" stroke-linejoin="round" stroke="rgb(92.155457%, 92.155457%, 92.155457%)" stroke-opacity="1" stroke-miterlimit="10" d="M 41.152344 156.175781 L 299.601562 156.175781 "/>
</g>
<g clip-path="url(#clip-3)">
<path fill="none" stroke-width="0.533489" stroke-linecap="butt" stroke-linejoin="round" stroke="rgb(92.155457%, 92.155457%, 92.155457%)" stroke-opacity="1" stroke-miterlimit="10" d="M 41.152344 97.953125 L 299.601562 97.953125 "/>
</g>
<g clip-path="url(#clip-4)">
<path fill="none" stroke-width="0.533489" stroke-linecap="butt" stroke-linejoin="round" stroke="rgb(92.155457%, 92.155457%, 92.155457%)" stroke-opacity="1" stroke-miterlimit="10" d="M 41.152344 39.726562 L 299.601562 39.726562 "/>
</g>
<g clip-path="url(#clip-5)">
<path fill="none" stroke-width="0.533489" stroke-linecap="butt" stroke-linejoin="round" stroke="rgb(92.155457%, 92.155457%, 92.155457%)" stroke-opacity="1" stroke-miterlimit="10" d="M 59.425781 254.847656 L 59.425781 5.480469 "/>
</g>
<g clip-path="url(#clip-6)">
<path fill="none" stroke-width="0.533489" stroke-linecap="butt" stroke-linejoin="round" stroke="rgb(92.155457%, 92.155457%, 92.155457%)" stroke-opacity="1" stroke-miterlimit="10" d="M 124.691406 254.847656 L 124.691406 5.480469 "/>
</g>
<g clip-path="url(#clip-7)">
<path fill="none" stroke-width="0.533489" stroke-linecap="butt" stroke-linejoin="round" stroke="rgb(92.155457%, 92.155457%, 92.155457%)" stroke-opacity="1" stroke-miterlimit="10" d="M 189.957031 254.847656 L 189.957031 5.480469 "/>
</g>
<g clip-path="url(#clip-8)">
<path fill="none" stroke-width="0.533489" stroke-linecap="butt" stroke-linejoin="round" stroke="rgb(92.155457%, 92.155457%, 92.155457%)" stroke-opacity="1" stroke-miterlimit="10" d="M 255.222656 254.847656 L 255.222656 5.480469 "/>
</g>
<g clip-path="url(#clip-9)">
<path fill="none" stroke-width="1.06698" stroke-linecap="butt" stroke-linejoin="round" stroke="rgb(92.155457%, 92.155457%, 92.155457%)" stroke-opacity="1" stroke-miterlimit="10" d="M 41.152344 243.515625 L 299.601562 243.515625 "/>
</g>
<g clip-path="url(#clip-10)">
<path fill="none" stroke-width="1.06698" stroke-linecap="butt" stroke-linejoin="round" stroke="rgb(92.155457%, 92.155457%, 92.155457%)" stroke-opacity="1" stroke-miterlimit="10" d="M 41.152344 185.289062 L 299.601562 185.289062 "/>
</g>
<g clip-path="url(#clip-11)">
<path fill="none" stroke-width="1.06698" stroke-linecap="butt" stroke-linejoin="round" stroke="rgb(92.155457%, 92.155457%, 92.155457%)" stroke-opacity="1" stroke-miterlimit="10" d="M 41.152344 127.0625 L 299.601562 127.0625 "/>
</g>
<g clip-path="url(#clip-12)">
<path fill="none" stroke-width="1.06698" stroke-linecap="butt" stroke-linejoin="round" stroke="rgb(92.155457%, 92.155457%, 92.155457%)" stroke-opacity="1" stroke-miterlimit="10" d="M 41.152344 68.839844 L 299.601562 68.839844 "/>
</g>
<g clip-path="url(#clip-13)">
<path fill="none" stroke-width="1.06698" stroke-linecap="butt" stroke-linejoin="round" stroke="rgb(92.155457%, 92.155457%, 92.155457%)" stroke-opacity="1" stroke-miterlimit="10" d="M 41.152344 10.613281 L 299.601562 10.613281 "/>
</g>
<g clip-path="url(#clip-14)">
<path fill="none" stroke-width="1.06698" stroke-linecap="butt" stroke-linejoin="round" stroke="rgb(92.155457%, 92.155457%, 92.155457%)" stroke-opacity="1" stroke-miterlimit="10" d="M 92.058594 254.847656 L 92.058594 5.480469 "/>
</g>
<g clip-path="url(#clip-15)">
<path fill="none" stroke-width="1.06698" stroke-linecap="butt" stroke-linejoin="round" stroke="rgb(92.155457%, 92.155457%, 92.155457%)" stroke-opacity="1" stroke-miterlimit="10" d="M 157.324219 254.847656 L 157.324219 5.480469 "/>
</g>
<g clip-path="url(#clip-16)">
<path fill="none" stroke-width="1.06698" stroke-linecap="butt" stroke-linejoin="round" stroke="rgb(92.155457%, 92.155457%, 92.155457%)" stroke-opacity="1" stroke-miterlimit="10" d="M 222.589844 254.847656 L 222.589844 5.480469 "/>
</g>
<g clip-path="url(#clip-17)">
<path fill="none" stroke-width="1.06698" stroke-linecap="butt" stroke-linejoin="round" stroke="rgb(92.155457%, 92.155457%, 92.155457%)" stroke-opacity="1" stroke-miterlimit="10" d="M 287.855469 254.847656 L 287.855469 5.480469 "/>
</g>
<path fill="none" stroke-width="1.06698" stroke-linecap="butt" stroke-linejoin="round" stroke="rgb(0%, 0%, 0%)" stroke-opacity="1" stroke-miterlimit="10" d="M 52.898438 243.515625 L 287.855469 243.515625 "/>
<path fill="none" stroke-width="1.06698" stroke-linecap="butt" stroke-linejoin="round" stroke="rgb(0%, 100%, 0%)" stroke-opacity="1" stroke-miterlimit="10" d="M 52.898438 157.390625 L 79.003906 204.289062 L 105.109375 215.894531 L 157.324219 222.328125 L 287.855469 227.1875 "/>
<path fill="none" stroke-width="1.06698" stroke-linecap="butt" stroke-linejoin="round" stroke="rgb(12.156677%, 46.665955%, 70.587158%)" stroke-opacity="1" stroke-miterlimit="10" d="M 52.898438 103.28125 L 79.003906 159.066406 L 105.109375 176.695312 L 157.324219 193.730469 L 287.855469 209.289062 "/>
<path fill="none" stroke-width="1.06698" stroke-linecap="butt" stroke-linejoin="round" stroke="rgb(100%, 49.803162%, 5.490112%)" stroke-opacity="1" stroke-miterlimit="10" d="M 52.898438 142.351562 L 79.003906 206.808594 L 105.109375 217.109375 L 157.324219 224.15625 L 287.855469 230.84375 "/>
<path fill="none" stroke-width="1.06698" stroke-linecap="butt" stroke-linejoin="round" stroke="rgb(58.03833%, 40.391541%, 74.116516%)" stroke-opacity="1" stroke-miterlimit="10" d="M 52.898438 42.980469 L 79.003906 166.542969 L 105.109375 200.996094 L 157.324219 220.21875 L 287.855469 227.957031 "/>
<path fill="none" stroke-width="1.06698" stroke-linecap="butt" stroke-linejoin="round" stroke="rgb(54.901123%, 33.724976%, 29.411316%)" stroke-opacity="1" stroke-miterlimit="10" d="M 52.898438 159.488281 L 79.003906 205.53125 L 105.109375 213.707031 L 157.324219 221.472656 L 287.855469 228.296875 "/>
<path fill="none" stroke-width="1.06698" stroke-linecap="butt" stroke-linejoin="round" stroke="rgb(9.01947%, 74.508667%, 81.175232%)" stroke-opacity="1" stroke-miterlimit="10" d="M 52.898438 171.269531 L 79.003906 194.128906 L 105.109375 210.953125 L 157.324219 215.5 L 287.855469 225.816406 "/>
<path fill="none" stroke-width="1.06698" stroke-linecap="butt" stroke-linejoin="round" stroke="rgb(100%, 0%, 0%)" stroke-opacity="1" stroke-miterlimit="10" d="M 52.898438 16.8125 L 79.003906 125.871094 L 105.109375 164.078125 L 157.324219 187.496094 L 287.855469 208.878906 "/>
<g clip-path="url(#clip-18)">
<path fill="none" stroke-width="1.06698" stroke-linecap="round" stroke-linejoin="round" stroke="rgb(19.999695%, 19.999695%, 19.999695%)" stroke-opacity="1" stroke-miterlimit="10" d="M 41.152344 5.476562 L 299.605469 5.476562 L 299.605469 254.847656 L 41.152344 254.847656 Z M 41.152344 5.476562 "/>
</g>
<path fill-rule="nonzero" fill="rgb(30.195618%, 30.195618%, 30.195618%)" fill-opacity="1" d="M 23.765625 243.945312 C 23.765625 244.960938 23.582031 245.734375 23.226562 246.265625 C 22.875 246.800781 22.351562 247.0625 21.65625 247.0625 C 20.957031 247.0625 20.4375 246.800781 20.085938 246.277344 C 19.734375 245.746094 19.558594 244.972656 19.558594 243.945312 C 19.558594 242.910156 19.726562 242.128906 20.0625 241.613281 C 20.40625 241.097656 20.945312 240.839844 21.679688 240.839844 C 22.386719 240.839844 22.914062 241.105469 23.25 241.625 C 23.59375 242.148438 23.765625 242.921875 23.765625 243.945312 Z M 22.980469 243.945312 C 22.980469 243.078125 22.878906 242.453125 22.675781 242.058594 C 22.480469 241.660156 22.148438 241.460938 21.679688 241.460938 C 21.203125 241.460938 20.859375 241.65625 20.648438 242.046875 C 20.441406 242.429688 20.34375 243.0625 20.34375 243.945312 C 20.34375 244.808594 20.449219 245.433594 20.660156 245.832031 C 20.871094 246.230469 21.203125 246.429688 21.667969 246.429688 C 22.117188 246.429688 22.453125 246.226562 22.664062 245.820312 C 22.875 245.417969 22.980469 244.789062 22.980469 243.945312 Z M 25.023438 246.980469 L 25.023438 246.042969 L 25.855469 246.042969 L 25.855469 246.980469 Z M 30.753906 243.945312 C 30.753906 244.960938 30.570312 245.734375 30.214844 246.265625 C 29.863281 246.800781 29.339844 247.0625 28.644531 247.0625 C 27.945312 247.0625 27.425781 246.800781 27.074219 246.277344 C 26.722656 245.746094 26.546875 244.972656 26.546875 243.945312 C 26.546875 242.910156 26.710938 242.128906 27.050781 241.613281 C 27.390625 241.097656 27.929688 240.839844 28.667969 240.839844 C 29.375 240.839844 29.902344 241.105469 30.238281 241.625 C 30.578125 242.148438 30.753906 242.921875 30.753906 243.945312 Z M 29.96875 243.945312 C 29.96875 243.078125 29.863281 242.453125 29.664062 242.058594 C 29.464844 241.660156 29.136719 241.460938 28.667969 241.460938 C 28.1875 241.460938 27.847656 241.65625 27.636719 242.046875 C 27.429688 242.429688 27.332031 243.0625 27.332031 243.945312 C 27.332031 244.808594 27.4375 245.433594 27.648438 245.832031 C 27.859375 246.230469 28.191406 246.429688 28.65625 246.429688 C 29.105469 246.429688 29.441406 246.226562 29.652344 245.820312 C 29.863281 245.417969 29.96875 244.789062 29.96875 243.945312 Z M 35.757812 243.945312 C 35.757812 244.960938 35.578125 245.734375 35.21875 246.265625 C 34.867188 246.800781 34.34375 247.0625 33.652344 247.0625 C 32.953125 247.0625 32.433594 246.800781 32.078125 246.277344 C 31.730469 245.746094 31.550781 244.972656 31.550781 243.945312 C 31.550781 242.910156 31.71875 242.128906 32.058594 241.613281 C 32.398438 241.097656 32.9375 240.839844 33.671875 240.839844 C 34.382812 240.839844 34.90625 241.105469 35.242188 241.625 C 35.585938 242.148438 35.757812 242.921875 35.757812 243.945312 Z M 34.972656 243.945312 C 34.972656 243.078125 34.871094 242.453125 34.667969 242.058594 C 34.472656 241.660156 34.140625 241.460938 33.671875 241.460938 C 33.195312 241.460938 32.855469 241.65625 32.640625 242.046875 C 32.4375 242.429688 32.339844 243.0625 32.339844 243.945312 C 32.339844 244.808594 32.441406 245.433594 32.652344 245.832031 C 32.863281 246.230469 33.199219 246.429688 33.660156 246.429688 C 34.113281 246.429688 34.445312 246.226562 34.65625 245.820312 C 34.867188 245.417969 34.972656 244.789062 34.972656 243.945312 Z M 23.765625 185.71875 C 23.765625 186.734375 23.582031 187.507812 23.226562 188.039062 C 22.875 188.570312 22.351562 188.835938 21.65625 188.835938 C 20.957031 188.835938 20.4375 188.574219 20.085938 188.050781 C 19.734375 187.519531 19.558594 186.742188 19.558594 185.71875 C 19.558594 184.679688 19.726562 183.902344 20.0625 183.386719 C 20.40625 182.871094 20.945312 182.613281 21.679688 182.613281 C 22.386719 182.613281 22.914062 182.875 23.25 183.398438 C 23.59375 183.921875 23.765625 184.695312 23.765625 185.71875 Z M 22.980469 185.71875 C 22.980469 184.851562 22.878906 184.222656 22.675781 183.832031 C 22.480469 183.433594 22.148438 183.234375 21.679688 183.234375 C 21.203125 183.234375 20.859375 183.429688 20.648438 183.820312 C 20.441406 184.203125 20.34375 184.835938 20.34375 185.71875 C 20.34375 186.578125 20.449219 187.207031 20.660156 187.605469 C 20.871094 188.003906 21.203125 188.203125 21.667969 188.203125 C 22.117188 188.203125 22.453125 188 22.664062 187.59375 C 22.875 187.1875 22.980469 186.5625 22.980469 185.71875 Z M 25.023438 188.753906 L 25.023438 187.816406 L 25.855469 187.816406 L 25.855469 188.753906 Z M 30.753906 185.71875 C 30.753906 186.734375 30.570312 187.507812 30.214844 188.039062 C 29.863281 188.570312 29.339844 188.835938 28.644531 188.835938 C 27.945312 188.835938 27.425781 188.574219 27.074219 188.050781 C 26.722656 187.519531 26.546875 186.742188 26.546875 185.71875 C 26.546875 184.679688 26.710938 183.902344 27.050781 183.386719 C 27.390625 182.871094 27.929688 182.613281 28.667969 182.613281 C 29.375 182.613281 29.902344 182.875 30.238281 183.398438 C 30.578125 183.921875 30.753906 184.695312 30.753906 185.71875 Z M 29.96875 185.71875 C 29.96875 184.851562 29.863281 184.222656 29.664062 183.832031 C 29.464844 183.433594 29.136719 183.234375 28.667969 183.234375 C 28.1875 183.234375 27.847656 183.429688 27.636719 183.820312 C 27.429688 184.203125 27.332031 184.835938 27.332031 185.71875 C 27.332031 186.578125 27.4375 187.207031 27.648438 187.605469 C 27.859375 188.003906 28.191406 188.203125 28.65625 188.203125 C 29.105469 188.203125 29.441406 188 29.652344 187.59375 C 29.863281 187.1875 29.96875 186.5625 29.96875 185.71875 Z M 35.734375 186.785156 C 35.734375 187.417969 35.542969 187.917969 35.160156 188.285156 C 34.785156 188.652344 34.261719 188.835938 33.589844 188.835938 C 33.027344 188.835938 32.574219 188.714844 32.21875 188.472656 C 31.875 188.222656 31.65625 187.863281 31.5625 187.394531 L 32.347656 187.3125 C 32.511719 187.90625 32.929688 188.203125 33.605469 188.203125 C 34.015625 188.203125 34.339844 188.078125 34.574219 187.828125 C 34.816406 187.578125 34.9375 187.234375 34.9375 186.796875 C 34.9375 186.417969 34.816406 186.105469 34.574219 185.871094 C 34.339844 185.636719 34.027344 185.519531 33.625 185.519531 C 33.417969 185.519531 33.21875 185.554688 33.042969 185.625 C 32.859375 185.6875 32.679688 185.796875 32.5 185.953125 L 31.738281 185.953125 L 31.9375 182.695312 L 35.382812 182.695312 L 35.382812 183.351562 L 32.640625 183.351562 L 32.535156 185.273438 C 32.863281 185.015625 33.277344 184.886719 33.777344 184.886719 C 34.378906 184.886719 34.855469 185.0625 35.207031 185.414062 C 35.558594 185.765625 35.734375 186.222656 35.734375 186.785156 Z M 23.765625 127.496094 C 23.765625 128.511719 23.582031 129.285156 23.226562 129.816406 C 22.875 130.347656 22.351562 130.609375 21.65625 130.609375 C 20.957031 130.609375 20.4375 130.351562 20.085938 129.828125 C 19.734375 129.296875 19.558594 128.519531 19.558594 127.496094 C 19.558594 126.457031 19.726562 125.679688 20.0625 125.160156 C 20.40625 124.648438 20.945312 124.390625 21.679688 124.390625 C 22.386719 124.390625 22.914062 124.652344 23.25 125.171875 C 23.59375 125.699219 23.765625 126.472656 23.765625 127.496094 Z M 22.980469 127.496094 C 22.980469 126.628906 22.878906 126 22.675781 125.609375 C 22.480469 125.210938 22.148438 125.007812 21.679688 125.007812 C 21.203125 125.007812 20.859375 125.207031 20.648438 125.597656 C 20.441406 125.980469 20.34375 126.613281 20.34375 127.496094 C 20.34375 128.355469 20.449219 128.984375 20.660156 129.378906 C 20.871094 129.777344 21.203125 129.976562 21.667969 129.976562 C 22.117188 129.976562 22.453125 129.777344 22.664062 129.371094 C 22.875 128.964844 22.980469 128.339844 22.980469 127.496094 Z M 25.023438 130.527344 L 25.023438 129.589844 L 25.855469 129.589844 L 25.855469 130.527344 Z M 26.875 130.527344 L 26.875 129.871094 L 28.421875 129.871094 L 28.421875 125.210938 L 27.050781 126.191406 L 27.050781 125.453125 L 28.480469 124.472656 L 29.195312 124.472656 L 29.195312 129.871094 L 30.671875 129.871094 L 30.671875 130.527344 Z M 35.757812 127.496094 C 35.757812 128.511719 35.578125 129.285156 35.21875 129.816406 C 34.867188 130.347656 34.34375 130.609375 33.652344 130.609375 C 32.953125 130.609375 32.433594 130.351562 32.078125 129.828125 C 31.730469 129.296875 31.550781 128.519531 31.550781 127.496094 C 31.550781 126.457031 31.71875 125.679688 32.058594 125.160156 C 32.398438 124.648438 32.9375 124.390625 33.671875 124.390625 C 34.382812 124.390625 34.90625 124.652344 35.242188 125.171875 C 35.585938 125.699219 35.757812 126.472656 35.757812 127.496094 Z M 34.972656 127.496094 C 34.972656 126.628906 34.871094 126 34.667969 125.609375 C 34.472656 125.210938 34.140625 125.007812 33.671875 125.007812 C 33.195312 125.007812 32.855469 125.207031 32.640625 125.597656 C 32.4375 125.980469 32.339844 126.613281 32.339844 127.496094 C 32.339844 128.355469 32.441406 128.984375 32.652344 129.378906 C 32.863281 129.777344 33.199219 129.976562 33.660156 129.976562 C 34.113281 129.976562 34.445312 129.777344 34.65625 129.371094 C 34.867188 128.964844 34.972656 128.339844 34.972656 127.496094 Z M 23.765625 69.269531 C 23.765625 70.285156 23.582031 71.058594 23.226562 71.589844 C 22.875 72.121094 22.351562 72.386719 21.65625 72.386719 C 20.957031 72.386719 20.4375 72.125 20.085938 71.601562 C 19.734375 71.070312 19.558594 70.296875 19.558594 69.269531 C 19.558594 68.234375 19.726562 67.453125 20.0625 66.9375 C 20.40625 66.421875 20.945312 66.164062 21.679688 66.164062 C 22.386719 66.164062 22.914062 66.429688 23.25 66.949219 C 23.59375 67.472656 23.765625 68.246094 23.765625 69.269531 Z M 22.980469 69.269531 C 22.980469 68.402344 22.878906 67.777344 22.675781 67.382812 C 22.480469 66.984375 22.148438 66.785156 21.679688 66.785156 C 21.203125 66.785156 20.859375 66.980469 20.648438 67.371094 C 20.441406 67.753906 20.34375 68.386719 20.34375 69.269531 C 20.34375 70.128906 20.449219 70.757812 20.660156 71.15625 C 20.871094 71.554688 21.203125 71.753906 21.667969 71.753906 C 22.117188 71.753906 22.453125 71.550781 22.664062 71.144531 C 22.875 70.742188 22.980469 70.113281 22.980469 69.269531 Z M 25.023438 72.304688 L 25.023438 71.367188 L 25.855469 71.367188 L 25.855469 72.304688 Z M 26.875 72.304688 L 26.875 71.648438 L 28.421875 71.648438 L 28.421875 66.984375 L 27.050781 67.96875 L 27.050781 67.230469 L 28.480469 66.246094 L 29.195312 66.246094 L 29.195312 71.648438 L 30.671875 71.648438 L 30.671875 72.304688 Z M 35.734375 70.335938 C 35.734375 70.96875 35.542969 71.46875 35.160156 71.835938 C 34.785156 72.203125 34.261719 72.386719 33.589844 72.386719 C 33.027344 72.386719 32.574219 72.265625 32.21875 72.023438 C 31.875 71.773438 31.65625 71.414062 31.5625 70.945312 L 32.347656 70.863281 C 32.511719 71.457031 32.929688 71.753906 33.605469 71.753906 C 34.015625 71.753906 34.339844 71.632812 34.574219 71.378906 C 34.816406 71.128906 34.9375 70.789062 34.9375 70.347656 C 34.9375 69.96875 34.816406 69.65625 34.574219 69.421875 C 34.339844 69.1875 34.027344 69.070312 33.625 69.070312 C 33.417969 69.070312 33.21875 69.105469 33.042969 69.175781 C 32.859375 69.238281 32.679688 69.347656 32.5 69.503906 L 31.738281 69.503906 L 31.9375 66.246094 L 35.382812 66.246094 L 35.382812 66.902344 L 32.640625 66.902344 L 32.535156 68.824219 C 32.863281 68.566406 33.277344 68.4375 33.777344 68.4375 C 34.378906 68.4375 34.855469 68.613281 35.207031 68.964844 C 35.558594 69.316406 35.734375 69.773438 35.734375 70.335938 Z M 23.765625 11.046875 C 23.765625 12.0625 23.582031 12.835938 23.226562 13.367188 C 22.875 13.898438 22.351562 14.160156 21.65625 14.160156 C 20.957031 14.160156 20.4375 13.902344 20.085938 13.378906 C 19.734375 12.847656 19.558594 12.070312 19.558594 11.046875 C 19.558594 10.007812 19.726562 9.230469 20.0625 8.714844 C 20.40625 8.199219 20.945312 7.941406 21.679688 7.941406 C 22.386719 7.941406 22.914062 8.203125 23.25 8.722656 C 23.59375 9.25 23.765625 10.023438 23.765625 11.046875 Z M 22.980469 11.046875 C 22.980469 10.179688 22.878906 9.550781 22.675781 9.160156 C 22.480469 8.761719 22.148438 8.5625 21.679688 8.5625 C 21.203125 8.5625 20.859375 8.757812 20.648438 9.148438 C 20.441406 9.53125 20.34375 10.164062 20.34375 11.046875 C 20.34375 11.90625 20.449219 12.535156 20.660156 12.933594 C 20.871094 13.332031 21.203125 13.53125 21.667969 13.53125 C 22.117188 13.53125 22.453125 13.328125 22.664062 12.921875 C 22.875 12.515625 22.980469 11.890625 22.980469 11.046875 Z M 25.023438 14.082031 L 25.023438 13.144531 L 25.855469 13.144531 L 25.855469 14.082031 Z M 26.652344 14.082031 L 26.652344 13.53125 C 26.792969 13.203125 26.96875 12.910156 27.179688 12.652344 C 27.390625 12.394531 27.613281 12.164062 27.847656 11.960938 C 28.082031 11.75 28.308594 11.554688 28.539062 11.375 C 28.761719 11.195312 28.964844 11.019531 29.148438 10.847656 C 29.335938 10.667969 29.480469 10.480469 29.59375 10.285156 C 29.710938 10.089844 29.769531 9.867188 29.769531 9.617188 C 29.769531 9.285156 29.667969 9.035156 29.476562 8.855469 C 29.277344 8.667969 29.007812 8.574219 28.667969 8.574219 C 28.339844 8.574219 28.0625 8.664062 27.847656 8.84375 C 27.636719 9.023438 27.507812 9.273438 27.472656 9.59375 L 26.6875 9.523438 C 26.738281 9.039062 26.945312 8.65625 27.296875 8.375 C 27.652344 8.085938 28.109375 7.941406 28.667969 7.941406 C 29.277344 7.941406 29.746094 8.085938 30.074219 8.375 C 30.402344 8.65625 30.566406 9.0625 30.566406 9.59375 C 30.566406 9.828125 30.511719 10.0625 30.402344 10.296875 C 30.289062 10.53125 30.132812 10.765625 29.921875 11 C 29.710938 11.226562 29.300781 11.582031 28.703125 12.066406 C 28.375 12.339844 28.109375 12.585938 27.917969 12.804688 C 27.71875 13.015625 27.578125 13.222656 27.496094 13.425781 L 30.660156 13.425781 L 30.660156 14.082031 Z M 35.757812 11.046875 C 35.757812 12.0625 35.578125 12.835938 35.21875 13.367188 C 34.867188 13.898438 34.34375 14.160156 33.652344 14.160156 C 32.953125 14.160156 32.433594 13.902344 32.078125 13.378906 C 31.730469 12.847656 31.550781 12.070312 31.550781 11.046875 C 31.550781 10.007812 31.71875 9.230469 32.058594 8.714844 C 32.398438 8.199219 32.9375 7.941406 33.671875 7.941406 C 34.382812 7.941406 34.90625 8.203125 35.242188 8.722656 C 35.585938 9.25 35.757812 10.023438 35.757812 11.046875 Z M 34.972656 11.046875 C 34.972656 10.179688 34.871094 9.550781 34.667969 9.160156 C 34.472656 8.761719 34.140625 8.5625 33.671875 8.5625 C 33.195312 8.5625 32.855469 8.757812 32.640625 9.148438 C 32.4375 9.53125 32.339844 10.164062 32.339844 11.046875 C 32.339844 11.90625 32.441406 12.535156 32.652344 12.933594 C 32.863281 13.332031 33.199219 13.53125 33.660156 13.53125 C 34.113281 13.53125 34.445312 13.328125 34.65625 12.921875 C 34.867188 12.515625 34.972656 11.890625 34.972656 11.046875 Z M 34.972656 11.046875 "/>
<path fill="none" stroke-width="1.06698" stroke-linecap="butt" stroke-linejoin="round" stroke="rgb(19.999695%, 19.999695%, 19.999695%)" stroke-opacity="1" stroke-miterlimit="10" d="M 38.410156 243.515625 L 41.152344 243.515625 "/>
<path fill="none" stroke-width="1.06698" stroke-linecap="butt" stroke-linejoin="round" stroke="rgb(19.999695%, 19.999695%, 19.999695%)" stroke-opacity="1" stroke-miterlimit="10" d="M 38.410156 185.289062 L 41.152344 185.289062 "/>
<path fill="none" stroke-width="1.06698" stroke-linecap="butt" stroke-linejoin="round" stroke="rgb(19.999695%, 19.999695%, 19.999695%)" stroke-opacity="1" stroke-miterlimit="10" d="M 38.410156 127.0625 L 41.152344 127.0625 "/>
<path fill="none" stroke-width="1.06698" stroke-linecap="butt" stroke-linejoin="round" stroke="rgb(19.999695%, 19.999695%, 19.999695%)" stroke-opacity="1" stroke-miterlimit="10" d="M 38.410156 68.839844 L 41.152344 68.839844 "/>
<path fill="none" stroke-width="1.06698" stroke-linecap="butt" stroke-linejoin="round" stroke="rgb(19.999695%, 19.999695%, 19.999695%)" stroke-opacity="1" stroke-miterlimit="10" d="M 38.410156 10.613281 L 41.152344 10.613281 "/>
<path fill="none" stroke-width="1.06698" stroke-linecap="butt" stroke-linejoin="round" stroke="rgb(19.999695%, 19.999695%, 19.999695%)" stroke-opacity="1" stroke-miterlimit="10" d="M 92.058594 257.589844 L 92.058594 254.847656 "/>
<path fill="none" stroke-width="1.06698" stroke-linecap="butt" stroke-linejoin="round" stroke="rgb(19.999695%, 19.999695%, 19.999695%)" stroke-opacity="1" stroke-miterlimit="10" d="M 157.324219 257.589844 L 157.324219 254.847656 "/>
<path fill="none" stroke-width="1.06698" stroke-linecap="butt" stroke-linejoin="round" stroke="rgb(19.999695%, 19.999695%, 19.999695%)" stroke-opacity="1" stroke-miterlimit="10" d="M 222.589844 257.589844 L 222.589844 254.847656 "/>
<path fill="none" stroke-width="1.06698" stroke-linecap="butt" stroke-linejoin="round" stroke="rgb(19.999695%, 19.999695%, 19.999695%)" stroke-opacity="1" stroke-miterlimit="10" d="M 287.855469 257.589844 L 287.855469 254.847656 "/>
<path fill-rule="nonzero" fill="rgb(30.195618%, 30.195618%, 30.195618%)" fill-opacity="1" d="M 86.503906 266.746094 L 86.503906 266.199219 C 86.644531 265.871094 86.820312 265.578125 87.03125 265.320312 C 87.242188 265.0625 87.464844 264.832031 87.699219 264.628906 C 87.933594 264.417969 88.164062 264.222656 88.390625 264.042969 C 88.617188 263.863281 88.820312 263.6875 89 263.515625 C 89.1875 263.335938 89.335938 263.148438 89.445312 262.953125 C 89.5625 262.757812 89.621094 262.535156 89.621094 262.285156 C 89.621094 261.957031 89.523438 261.703125 89.328125 261.523438 C 89.132812 261.335938 88.863281 261.242188 88.519531 261.242188 C 88.191406 261.242188 87.917969 261.332031 87.699219 261.511719 C 87.488281 261.691406 87.363281 261.941406 87.324219 262.261719 L 86.539062 262.191406 C 86.59375 261.707031 86.796875 261.324219 87.148438 261.042969 C 87.507812 260.753906 87.964844 260.609375 88.519531 260.609375 C 89.128906 260.609375 89.597656 260.753906 89.925781 261.042969 C 90.253906 261.324219 90.417969 261.730469 90.417969 262.261719 C 90.417969 262.496094 90.363281 262.730469 90.253906 262.964844 C 90.144531 263.199219 89.984375 263.433594 89.773438 263.667969 C 89.5625 263.894531 89.15625 264.25 88.554688 264.734375 C 88.226562 265.007812 87.964844 265.253906 87.769531 265.472656 C 87.574219 265.683594 87.433594 265.890625 87.347656 266.09375 L 90.511719 266.09375 L 90.511719 266.746094 Z M 91.867188 266.746094 L 91.867188 265.8125 L 92.699219 265.8125 L 92.699219 266.746094 Z M 97.570312 264.78125 C 97.570312 265.414062 97.375 265.914062 96.996094 266.28125 C 96.621094 266.648438 96.097656 266.828125 95.425781 266.828125 C 94.863281 266.828125 94.40625 266.710938 94.054688 266.46875 C 93.707031 266.21875 93.492188 265.859375 93.398438 265.390625 L 94.183594 265.308594 C 94.347656 265.902344 94.761719 266.199219 95.4375 266.199219 C 95.851562 266.199219 96.175781 266.074219 96.410156 265.824219 C 96.648438 265.574219 96.773438 265.230469 96.773438 264.792969 C 96.773438 264.410156 96.648438 264.101562 96.410156 263.867188 C 96.175781 263.632812 95.859375 263.515625 95.460938 263.515625 C 95.25 263.515625 95.054688 263.550781 94.875 263.621094 C 94.691406 263.683594 94.515625 263.792969 94.335938 263.949219 L 93.574219 263.949219 L 93.773438 260.691406 L 97.21875 260.691406 L 97.21875 261.347656 L 94.476562 261.347656 L 94.371094 263.269531 C 94.699219 263.011719 95.113281 262.882812 95.613281 262.882812 C 96.214844 262.882812 96.691406 263.058594 97.042969 263.410156 C 97.394531 263.761719 97.570312 264.21875 97.570312 264.78125 Z M 155.839844 264.78125 C 155.839844 265.414062 155.648438 265.914062 155.265625 266.28125 C 154.890625 266.648438 154.367188 266.828125 153.695312 266.828125 C 153.132812 266.828125 152.675781 266.710938 152.324219 266.46875 C 151.980469 266.21875 151.761719 265.859375 151.667969 265.390625 L 152.453125 265.308594 C 152.617188 265.902344 153.035156 266.199219 153.707031 266.199219 C 154.121094 266.199219 154.445312 266.074219 154.679688 265.824219 C 154.921875 265.574219 155.042969 265.230469 155.042969 264.792969 C 155.042969 264.410156 154.921875 264.101562 154.679688 263.867188 C 154.445312 263.632812 154.128906 263.515625 153.730469 263.515625 C 153.519531 263.515625 153.324219 263.550781 153.144531 263.621094 C 152.964844 263.683594 152.785156 263.792969 152.605469 263.949219 L 151.84375 263.949219 L 152.042969 260.691406 L 155.488281 260.691406 L 155.488281 261.347656 L 152.746094 261.347656 L 152.640625 263.269531 C 152.96875 263.011719 153.382812 262.882812 153.882812 262.882812 C 154.484375 262.882812 154.960938 263.058594 155.3125 263.410156 C 155.664062 263.761719 155.839844 264.21875 155.839844 264.78125 Z M 157.125 266.746094 L 157.125 265.8125 L 157.957031 265.8125 L 157.957031 266.746094 Z M 162.851562 263.714844 C 162.851562 264.730469 162.671875 265.503906 162.3125 266.035156 C 161.960938 266.566406 161.4375 266.828125 160.742188 266.828125 C 160.046875 266.828125 159.523438 266.570312 159.171875 266.046875 C 158.820312 265.515625 158.644531 264.738281 158.644531 263.714844 C 158.644531 262.675781 158.8125 261.898438 159.148438 261.382812 C 159.492188 260.867188 160.03125 260.609375 160.765625 260.609375 C 161.476562 260.609375 162 260.871094 162.335938 261.394531 C 162.679688 261.917969 162.851562 262.691406 162.851562 263.714844 Z M 162.066406 263.714844 C 162.066406 262.847656 161.964844 262.21875 161.761719 261.828125 C 161.566406 261.429688 161.234375 261.230469 160.765625 261.230469 C 160.289062 261.230469 159.945312 261.425781 159.734375 261.816406 C 159.53125 262.199219 159.429688 262.832031 159.429688 263.714844 C 159.429688 264.574219 159.535156 265.203125 159.746094 265.601562 C 159.957031 266 160.292969 266.199219 160.753906 266.199219 C 161.207031 266.199219 161.539062 265.996094 161.75 265.589844 C 161.960938 265.183594 162.066406 264.558594 162.066406 263.714844 Z M 221.042969 261.324219 C 220.421875 262.269531 219.988281 263.011719 219.730469 263.550781 C 219.472656 264.082031 219.277344 264.609375 219.15625 265.132812 C 219.027344 265.648438 218.96875 266.1875 218.96875 266.746094 L 218.160156 266.746094 C 218.160156 265.976562 218.324219 265.164062 218.652344 264.3125 C 218.980469 263.453125 219.523438 262.464844 220.292969 261.347656 L 217.046875 261.347656 L 217.046875 260.691406 L 221.042969 260.691406 Z M 222.394531 266.746094 L 222.394531 265.8125 L 223.226562 265.8125 L 223.226562 266.746094 Z M 228.097656 264.78125 C 228.097656 265.414062 227.90625 265.914062 227.523438 266.28125 C 227.148438 266.648438 226.625 266.828125 225.953125 266.828125 C 225.390625 266.828125 224.933594 266.710938 224.582031 266.46875 C 224.238281 266.21875 224.019531 265.859375 223.925781 265.390625 L 224.710938 265.308594 C 224.875 265.902344 225.292969 266.199219 225.964844 266.199219 C 226.378906 266.199219 226.703125 266.074219 226.9375 265.824219 C 227.179688 265.574219 227.300781 265.230469 227.300781 264.792969 C 227.300781 264.410156 227.179688 264.101562 226.9375 263.867188 C 226.703125 263.632812 226.386719 263.515625 225.988281 263.515625 C 225.777344 263.515625 225.582031 263.550781 225.402344 263.621094 C 225.222656 263.683594 225.042969 263.792969 224.863281 263.949219 L 224.101562 263.949219 L 224.300781 260.691406 L 227.746094 260.691406 L 227.746094 261.347656 L 225.003906 261.347656 L 224.898438 263.269531 C 225.226562 263.011719 225.640625 262.882812 226.140625 262.882812 C 226.742188 262.882812 227.21875 263.058594 227.570312 263.410156 C 227.921875 263.761719 228.097656 264.21875 228.097656 264.78125 Z M 280.007812 266.746094 L 280.007812 266.09375 L 281.554688 266.09375 L 281.554688 261.429688 L 280.183594 262.414062 L 280.183594 261.675781 L 281.613281 260.691406 L 282.328125 260.691406 L 282.328125 266.09375 L 283.804688 266.09375 L 283.804688 266.746094 Z M 288.894531 263.714844 C 288.894531 264.730469 288.714844 265.503906 288.355469 266.035156 C 288.003906 266.566406 287.480469 266.828125 286.785156 266.828125 C 286.089844 266.828125 285.566406 266.570312 285.214844 266.046875 C 284.863281 265.515625 284.6875 264.738281 284.6875 263.714844 C 284.6875 262.675781 284.855469 261.898438 285.191406 261.382812 C 285.535156 260.867188 286.074219 260.609375 286.808594 260.609375 C 287.519531 260.609375 288.042969 260.871094 288.378906 261.394531 C 288.722656 261.917969 288.894531 262.691406 288.894531 263.714844 Z M 288.109375 263.714844 C 288.109375 262.847656 288.007812 262.21875 287.804688 261.828125 C 287.609375 261.429688 287.277344 261.230469 286.808594 261.230469 C 286.332031 261.230469 285.988281 261.425781 285.777344 261.816406 C 285.574219 262.199219 285.472656 262.832031 285.472656 263.714844 C 285.472656 264.574219 285.578125 265.203125 285.789062 265.601562 C 286 266 286.335938 266.199219 286.796875 266.199219 C 287.25 266.199219 287.582031 265.996094 287.792969 265.589844 C 288.003906 265.183594 288.109375 264.558594 288.109375 263.714844 Z M 290.15625 266.746094 L 290.15625 265.8125 L 290.988281 265.8125 L 290.988281 266.746094 Z M 295.878906 263.714844 C 295.878906 264.730469 295.699219 265.503906 295.339844 266.035156 C 294.988281 266.566406 294.464844 266.828125 293.769531 266.828125 C 293.074219 266.828125 292.550781 266.570312 292.199219 266.046875 C 291.847656 265.515625 291.671875 264.738281 291.671875 263.714844 C 291.671875 262.675781 291.839844 261.898438 292.175781 261.382812 C 292.519531 260.867188 293.058594 260.609375 293.792969 260.609375 C 294.503906 260.609375 295.027344 260.871094 295.363281 261.394531 C 295.707031 261.917969 295.878906 262.691406 295.878906 263.714844 Z M 295.09375 263.714844 C 295.09375 262.847656 294.992188 262.21875 294.789062 261.828125 C 294.59375 261.429688 294.261719 261.230469 293.792969 261.230469 C 293.316406 261.230469 292.972656 261.425781 292.761719 261.816406 C 292.558594 262.199219 292.457031 262.832031 292.457031 263.714844 C 292.457031 264.574219 292.5625 265.203125 292.773438 265.601562 C 292.984375 266 293.320312 266.199219 293.78125 266.199219 C 294.234375 266.199219 294.566406 265.996094 294.777344 265.589844 C 294.988281 265.183594 295.09375 264.558594 295.09375 263.714844 Z M 295.09375 263.714844 "/>
<path fill-rule="nonzero" fill="rgb(0%, 0%, 0%)" fill-opacity="1" d="M 129.804688 279.476562 L 129.804688 275.785156 C 129.804688 275.40625 129.765625 275.105469 129.6875 274.894531 C 129.617188 274.683594 129.5 274.53125 129.335938 274.4375 C 129.171875 274.34375 128.929688 274.296875 128.609375 274.296875 C 128.140625 274.296875 127.773438 274.460938 127.507812 274.777344 C 127.242188 275.101562 127.109375 275.546875 127.109375 276.113281 L 127.109375 279.476562 L 126.136719 279.476562 L 126.136719 274.90625 C 126.136719 274.226562 126.125 273.816406 126.101562 273.664062 L 127.015625 273.664062 C 127.023438 273.683594 127.027344 273.730469 127.027344 273.804688 C 127.035156 273.886719 127.039062 273.980469 127.039062 274.085938 C 127.046875 274.191406 127.054688 274.378906 127.0625 274.660156 L 127.074219 274.660156 C 127.300781 274.257812 127.558594 273.96875 127.847656 273.804688 C 128.144531 273.640625 128.507812 273.558594 128.9375 273.558594 C 129.578125 273.558594 130.042969 273.722656 130.332031 274.039062 C 130.628906 274.355469 130.777344 274.871094 130.777344 275.597656 L 130.777344 279.476562 Z M 131.207031 281.667969 L 131.207031 280.964844 L 137.617188 280.964844 L 137.617188 281.667969 Z M 140.351562 279.429688 C 140.03125 279.515625 139.707031 279.558594 139.378906 279.558594 C 138.605469 279.558594 138.21875 279.125 138.21875 278.246094 L 138.21875 274.367188 L 137.539062 274.367188 L 137.539062 273.664062 L 138.253906 273.664062 L 138.535156 272.363281 L 139.179688 272.363281 L 139.179688 273.664062 L 140.257812 273.664062 L 140.257812 274.367188 L 139.179688 274.367188 L 139.179688 278.035156 C 139.179688 278.316406 139.222656 278.515625 139.308594 278.632812 C 139.402344 278.746094 139.5625 278.796875 139.789062 278.796875 C 139.921875 278.796875 140.109375 278.773438 140.351562 278.714844 Z M 141.097656 272.421875 L 141.097656 271.507812 L 142.058594 271.507812 L 142.058594 272.421875 Z M 141.097656 279.476562 L 141.097656 273.664062 L 142.058594 273.664062 L 142.058594 279.476562 Z M 146.484375 279.476562 L 146.484375 275.785156 C 146.484375 275.222656 146.40625 274.835938 146.25 274.625 C 146.101562 274.410156 145.824219 274.296875 145.417969 274.296875 C 145.011719 274.296875 144.6875 274.460938 144.445312 274.777344 C 144.203125 275.09375 144.082031 275.539062 144.082031 276.113281 L 144.082031 279.476562 L 143.121094 279.476562 L 143.121094 274.90625 C 143.121094 274.226562 143.109375 273.816406 143.085938 273.664062 L 144 273.664062 C 144.007812 273.683594 144.011719 273.730469 144.011719 273.804688 C 144.019531 273.886719 144.023438 273.980469 144.023438 274.085938 C 144.03125 274.191406 144.039062 274.378906 144.046875 274.660156 L 144.058594 274.660156 C 144.269531 274.25 144.507812 273.964844 144.773438 273.804688 C 145.046875 273.640625 145.375 273.558594 145.757812 273.558594 C 146.203125 273.558594 146.550781 273.652344 146.800781 273.828125 C 147.058594 274.003906 147.238281 274.28125 147.339844 274.660156 L 147.351562 274.660156 C 147.554688 274.273438 147.796875 273.992188 148.078125 273.816406 C 148.367188 273.648438 148.714844 273.558594 149.121094 273.558594 C 149.707031 273.558594 150.132812 273.722656 150.398438 274.039062 C 150.664062 274.355469 150.796875 274.871094 150.796875 275.597656 L 150.796875 279.476562 L 149.847656 279.476562 L 149.847656 275.785156 C 149.847656 275.222656 149.769531 274.835938 149.613281 274.625 C 149.457031 274.410156 149.179688 274.296875 148.78125 274.296875 C 148.359375 274.296875 148.03125 274.460938 147.796875 274.777344 C 147.5625 275.09375 147.445312 275.539062 147.445312 276.113281 L 147.445312 279.476562 Z M 152.84375 276.769531 C 152.84375 277.445312 152.980469 277.960938 153.253906 278.316406 C 153.527344 278.679688 153.929688 278.855469 154.460938 278.855469 C 154.882812 278.855469 155.21875 278.773438 155.46875 278.609375 C 155.71875 278.441406 155.890625 278.222656 155.984375 277.964844 L 156.828125 278.210938 C 156.484375 279.125 155.695312 279.582031 154.460938 279.582031 C 153.601562 279.582031 152.945312 279.332031 152.492188 278.820312 C 152.046875 278.304688 151.824219 277.542969 151.824219 276.535156 C 151.824219 275.574219 152.046875 274.84375 152.492188 274.332031 C 152.945312 273.816406 153.589844 273.558594 154.425781 273.558594 C 156.136719 273.558594 156.992188 274.589844 156.992188 276.640625 L 156.992188 276.769531 Z M 155.984375 276.03125 C 155.929688 275.421875 155.773438 274.976562 155.515625 274.695312 C 155.257812 274.414062 154.886719 274.273438 154.402344 274.273438 C 153.933594 274.273438 153.5625 274.433594 153.289062 274.742188 C 153.015625 275.058594 152.867188 275.488281 152.84375 276.03125 Z M 157.199219 281.667969 L 157.199219 280.964844 L 163.609375 280.964844 L 163.609375 281.667969 Z M 169.019531 276.546875 C 169.019531 278.574219 168.304688 279.582031 166.875 279.582031 C 165.984375 279.582031 165.382812 279.25 165.070312 278.574219 L 165.046875 278.574219 C 165.0625 278.609375 165.070312 278.914062 165.070312 279.488281 L 165.070312 281.761719 L 164.097656 281.761719 L 164.097656 274.847656 C 164.097656 274.257812 164.089844 273.863281 164.074219 273.664062 L 165 273.664062 C 165.007812 273.683594 165.015625 273.734375 165.023438 273.816406 C 165.03125 273.90625 165.039062 274.039062 165.046875 274.226562 C 165.054688 274.410156 165.058594 274.53125 165.058594 274.601562 L 165.082031 274.601562 C 165.253906 274.246094 165.480469 273.980469 165.761719 273.816406 C 166.042969 273.648438 166.414062 273.558594 166.875 273.558594 C 167.59375 273.558594 168.128906 273.804688 168.480469 274.285156 C 168.839844 274.765625 169.019531 275.515625 169.019531 276.546875 Z M 168 276.558594 C 168 275.757812 167.890625 275.183594 167.671875 274.835938 C 167.453125 274.484375 167.105469 274.308594 166.628906 274.308594 C 166.246094 274.308594 165.945312 274.390625 165.726562 274.554688 C 165.515625 274.714844 165.351562 274.964844 165.234375 275.304688 C 165.125 275.652344 165.070312 276.097656 165.070312 276.640625 C 165.070312 277.410156 165.191406 277.972656 165.433594 278.328125 C 165.675781 278.691406 166.070312 278.867188 166.617188 278.867188 C 167.101562 278.867188 167.453125 278.691406 167.671875 278.339844 C 167.890625 277.988281 168 277.398438 168 276.558594 Z M 175.015625 276.558594 C 175.015625 277.585938 174.785156 278.347656 174.335938 278.84375 C 173.890625 279.335938 173.238281 279.582031 172.390625 279.582031 C 171.535156 279.582031 170.890625 279.324219 170.457031 278.808594 C 170.023438 278.292969 169.8125 277.542969 169.8125 276.558594 C 169.8125 274.5625 170.679688 273.558594 172.425781 273.558594 C 173.316406 273.558594 173.964844 273.804688 174.382812 274.296875 C 174.804688 274.785156 175.015625 275.539062 175.015625 276.558594 Z M 173.996094 276.558594 C 173.996094 275.761719 173.871094 275.1875 173.632812 274.824219 C 173.398438 274.460938 173 274.273438 172.4375 274.273438 C 171.875 274.273438 171.464844 274.460938 171.207031 274.835938 C 170.953125 275.207031 170.832031 275.78125 170.832031 276.558594 C 170.832031 277.332031 170.953125 277.914062 171.207031 278.292969 C 171.453125 278.679688 171.84375 278.867188 172.378906 278.867188 C 172.953125 278.867188 173.367188 278.6875 173.621094 278.316406 C 173.867188 277.941406 173.996094 277.355469 173.996094 276.558594 Z M 176.097656 272.421875 L 176.097656 271.507812 L 177.058594 271.507812 L 177.058594 272.421875 Z M 176.097656 279.476562 L 176.097656 273.664062 L 177.058594 273.664062 L 177.058594 279.476562 Z M 181.777344 279.476562 L 181.777344 275.785156 C 181.777344 275.40625 181.738281 275.105469 181.660156 274.894531 C 181.589844 274.683594 181.472656 274.53125 181.308594 274.4375 C 181.144531 274.34375 180.902344 274.296875 180.582031 274.296875 C 180.113281 274.296875 179.746094 274.460938 179.480469 274.777344 C 179.214844 275.101562 179.082031 275.546875 179.082031 276.113281 L 179.082031 279.476562 L 178.109375 279.476562 L 178.109375 274.90625 C 178.109375 274.226562 178.097656 273.816406 178.074219 273.664062 L 178.988281 273.664062 C 178.996094 273.683594 179 273.730469 179 273.804688 C 179.007812 273.886719 179.011719 273.980469 179.011719 274.085938 C 179.019531 274.191406 179.027344 274.378906 179.035156 274.660156 L 179.046875 274.660156 C 179.273438 274.257812 179.53125 273.96875 179.820312 273.804688 C 180.117188 273.640625 180.480469 273.558594 180.910156 273.558594 C 181.550781 273.558594 182.015625 273.722656 182.304688 274.039062 C 182.601562 274.355469 182.75 274.871094 182.75 275.597656 L 182.75 279.476562 Z M 186.324219 279.429688 C 186 279.515625 185.679688 279.558594 185.351562 279.558594 C 184.578125 279.558594 184.191406 279.125 184.191406 278.246094 L 184.191406 274.367188 L 183.511719 274.367188 L 183.511719 273.664062 L 184.226562 273.664062 L 184.507812 272.363281 L 185.152344 272.363281 L 185.152344 273.664062 L 186.230469 273.664062 L 186.230469 274.367188 L 185.152344 274.367188 L 185.152344 278.035156 C 185.152344 278.316406 185.191406 278.515625 185.28125 278.632812 C 185.375 278.746094 185.53125 278.796875 185.761719 278.796875 C 185.890625 278.796875 186.078125 278.773438 186.324219 278.714844 Z M 191.445312 277.871094 C 191.445312 278.421875 191.238281 278.84375 190.824219 279.136719 C 190.410156 279.4375 189.828125 279.582031 189.078125 279.582031 C 188.359375 279.582031 187.800781 279.464844 187.402344 279.230469 C 187.011719 278.992188 186.757812 278.621094 186.640625 278.117188 L 187.496094 277.941406 C 187.582031 278.257812 187.753906 278.488281 188.011719 278.632812 C 188.269531 278.773438 188.625 278.84375 189.078125 278.84375 C 189.570312 278.84375 189.929688 278.773438 190.15625 278.621094 C 190.382812 278.476562 190.496094 278.246094 190.496094 277.941406 C 190.496094 277.71875 190.417969 277.53125 190.261719 277.390625 C 190.105469 277.246094 189.851562 277.121094 189.5 277.027344 L 188.808594 276.851562 C 188.253906 276.707031 187.859375 276.566406 187.625 276.429688 C 187.390625 276.289062 187.207031 276.125 187.074219 275.925781 C 186.941406 275.734375 186.875 275.492188 186.875 275.199219 C 186.875 274.671875 187.0625 274.269531 187.4375 273.992188 C 187.820312 273.710938 188.371094 273.570312 189.089844 273.570312 C 189.730469 273.570312 190.238281 273.6875 190.613281 273.910156 C 190.996094 274.140625 191.238281 274.503906 191.339844 275 L 190.472656 275.105469 C 190.417969 274.847656 190.273438 274.648438 190.039062 274.507812 C 189.804688 274.367188 189.488281 274.296875 189.089844 274.296875 C 188.652344 274.296875 188.328125 274.367188 188.117188 274.496094 C 187.914062 274.632812 187.8125 274.835938 187.8125 275.105469 C 187.8125 275.269531 187.855469 275.410156 187.941406 275.515625 C 188.027344 275.621094 188.152344 275.710938 188.316406 275.785156 C 188.488281 275.867188 188.84375 275.972656 189.382812 276.101562 C 189.898438 276.230469 190.269531 276.347656 190.496094 276.453125 C 190.722656 276.566406 190.898438 276.6875 191.023438 276.816406 C 191.15625 276.953125 191.257812 277.105469 191.328125 277.273438 C 191.40625 277.449219 191.445312 277.648438 191.445312 277.871094 Z M 192.179688 281.667969 L 192.179688 280.964844 L 198.589844 280.964844 L 198.589844 281.667969 Z M 202.460938 279.476562 L 202.460938 275.785156 C 202.460938 275.222656 202.382812 274.835938 202.226562 274.625 C 202.078125 274.410156 201.800781 274.296875 201.394531 274.296875 C 200.988281 274.296875 200.664062 274.460938 200.421875 274.777344 C 200.179688 275.09375 200.058594 275.539062 200.058594 276.113281 L 200.058594 279.476562 L 199.097656 279.476562 L 199.097656 274.90625 C 199.097656 274.226562 199.085938 273.816406 199.0625 273.664062 L 199.976562 273.664062 C 199.984375 273.683594 199.988281 273.730469 199.988281 273.804688 C 199.996094 273.886719 200 273.980469 200 274.085938 C 200.007812 274.191406 200.015625 274.378906 200.023438 274.660156 L 200.035156 274.660156 C 200.246094 274.25 200.484375 273.964844 200.75 273.804688 C 201.023438 273.640625 201.351562 273.558594 201.734375 273.558594 C 202.179688 273.558594 202.527344 273.652344 202.777344 273.828125 C 203.035156 274.003906 203.214844 274.28125 203.316406 274.660156 L 203.328125 274.660156 C 203.53125 274.273438 203.773438 273.992188 204.054688 273.816406 C 204.34375 273.648438 204.691406 273.558594 205.097656 273.558594 C 205.683594 273.558594 206.109375 273.722656 206.375 274.039062 C 206.640625 274.355469 206.773438 274.871094 206.773438 275.597656 L 206.773438 279.476562 L 205.824219 279.476562 L 205.824219 275.785156 C 205.824219 275.222656 205.746094 274.835938 205.589844 274.625 C 205.433594 274.410156 205.15625 274.296875 204.757812 274.296875 C 204.335938 274.296875 204.007812 274.460938 203.773438 274.777344 C 203.539062 275.09375 203.421875 275.539062 203.421875 276.113281 L 203.421875 279.476562 Z M 208.074219 272.421875 L 208.074219 271.507812 L 209.035156 271.507812 L 209.035156 272.421875 Z M 208.074219 279.476562 L 208.074219 273.664062 L 209.035156 273.664062 L 209.035156 279.476562 Z M 213.769531 279.476562 L 213.769531 275.785156 C 213.769531 275.40625 213.726562 275.105469 213.652344 274.894531 C 213.582031 274.683594 213.464844 274.53125 213.300781 274.4375 C 213.136719 274.34375 212.890625 274.296875 212.574219 274.296875 C 212.105469 274.296875 211.734375 274.460938 211.472656 274.777344 C 211.203125 275.101562 211.074219 275.546875 211.074219 276.113281 L 211.074219 279.476562 L 210.101562 279.476562 L 210.101562 274.90625 C 210.101562 274.226562 210.085938 273.816406 210.0625 273.664062 L 210.976562 273.664062 C 210.984375 273.683594 210.988281 273.730469 210.988281 273.804688 C 210.996094 273.886719 211 273.980469 211 274.085938 C 211.007812 274.191406 211.015625 274.378906 211.027344 274.660156 L 211.039062 274.660156 C 211.261719 274.257812 211.519531 273.96875 211.8125 273.804688 C 212.105469 273.640625 212.46875 273.558594 212.902344 273.558594 C 213.539062 273.558594 214.003906 273.722656 214.296875 274.039062 C 214.589844 274.355469 214.742188 274.871094 214.742188 275.597656 L 214.742188 279.476562 Z M 213.769531 279.476562 "/>
<path fill-rule="nonzero" fill="rgb(0%, 0%, 0%)" fill-opacity="1" d="M 13.4375 203.328125 L 8.386719 203.328125 C 7.824219 203.328125 7.285156 203.316406 6.769531 203.28125 C 7.421875 203.457031 7.925781 203.609375 8.28125 203.75 L 13.4375 205.707031 L 13.4375 206.421875 L 8.28125 208.402344 L 7.367188 208.707031 L 6.769531 208.882812 L 7.367188 208.871094 L 8.386719 208.847656 L 13.4375 208.847656 L 13.4375 209.761719 L 5.867188 209.761719 L 5.867188 208.414062 L 11.117188 206.398438 C 11.328125 206.328125 11.558594 206.265625 11.796875 206.199219 C 12.039062 206.128906 12.214844 206.082031 12.324219 206.058594 C 12.179688 206.03125 11.957031 205.972656 11.667969 205.882812 C 11.382812 205.789062 11.195312 205.730469 11.117188 205.695312 L 5.867188 203.714844 L 5.867188 202.402344 L 13.4375 202.402344 Z M 11.351562 194.832031 C 12.050781 194.832031 12.589844 195.109375 12.96875 195.652344 C 13.351562 196.203125 13.542969 196.972656 13.542969 197.960938 C 13.542969 199.808594 12.90625 200.875 11.621094 201.160156 L 11.421875 200.175781 C 11.875 200.058594 12.214844 199.8125 12.429688 199.4375 C 12.640625 199.0625 12.746094 198.558594 12.746094 197.914062 C 12.746094 197.257812 12.636719 196.753906 12.40625 196.390625 C 12.179688 196.027344 11.84375 195.839844 11.398438 195.839844 C 11.160156 195.839844 10.960938 195.898438 10.800781 196.015625 C 10.644531 196.128906 10.515625 196.285156 10.414062 196.496094 C 10.316406 196.703125 10.234375 196.941406 10.167969 197.222656 C 10.097656 197.503906 10.023438 197.820312 9.945312 198.160156 C 9.8125 198.765625 9.683594 199.222656 9.546875 199.53125 C 9.414062 199.835938 9.265625 200.082031 9.101562 200.257812 C 8.9375 200.441406 8.746094 200.574219 8.527344 200.667969 C 8.3125 200.761719 8.058594 200.808594 7.777344 200.808594 C 7.128906 200.808594 6.628906 200.5625 6.277344 200.070312 C 5.925781 199.574219 5.75 198.863281 5.75 197.9375 C 5.75 197.082031 5.886719 196.425781 6.148438 195.96875 C 6.414062 195.511719 6.863281 195.191406 7.496094 195.007812 L 7.671875 196.015625 C 7.273438 196.128906 6.988281 196.339844 6.804688 196.648438 C 6.617188 196.964844 6.523438 197.398438 6.523438 197.949219 C 6.523438 198.554688 6.625 199.015625 6.828125 199.332031 C 7.035156 199.65625 7.332031 199.8125 7.730469 199.8125 C 7.960938 199.8125 8.148438 199.753906 8.304688 199.625 C 8.453125 199.503906 8.582031 199.328125 8.691406 199.097656 C 8.792969 198.863281 8.921875 198.402344 9.078125 197.703125 C 9.132812 197.46875 9.191406 197.242188 9.242188 197.011719 C 9.296875 196.777344 9.367188 196.554688 9.441406 196.34375 C 9.523438 196.132812 9.613281 195.933594 9.722656 195.746094 C 9.824219 195.558594 9.953125 195.402344 10.097656 195.265625 C 10.246094 195.136719 10.421875 195.03125 10.625 194.949219 C 10.832031 194.875 11.070312 194.832031 11.351562 194.832031 Z M 13.4375 193.765625 L 5.867188 193.765625 L 5.867188 188.023438 L 6.710938 188.023438 L 6.710938 192.734375 L 9.136719 192.734375 L 9.136719 188.339844 L 9.957031 188.339844 L 9.957031 192.734375 L 12.59375 192.734375 L 12.59375 187.800781 L 13.4375 187.800781 Z M 10.519531 179.035156 C 11.546875 179.035156 12.308594 179.261719 12.804688 179.714844 C 13.296875 180.160156 13.542969 180.808594 13.542969 181.660156 C 13.542969 182.511719 13.285156 183.15625 12.769531 183.59375 C 12.253906 184.023438 11.503906 184.238281 10.519531 184.238281 C 8.523438 184.238281 7.519531 183.367188 7.519531 181.625 C 7.519531 180.734375 7.765625 180.082031 8.257812 179.667969 C 8.746094 179.246094 9.496094 179.035156 10.519531 179.035156 Z M 10.519531 180.054688 C 9.722656 180.054688 9.144531 180.175781 8.785156 180.417969 C 8.417969 180.652344 8.234375 181.050781 8.234375 181.613281 C 8.234375 182.175781 8.421875 182.585938 8.796875 182.84375 C 9.167969 183.09375 9.742188 183.21875 10.519531 183.21875 C 11.292969 183.21875 11.875 183.09375 12.253906 182.84375 C 12.636719 182.59375 12.828125 182.203125 12.828125 181.671875 C 12.828125 181.09375 12.648438 180.679688 12.277344 180.429688 C 11.902344 180.179688 11.316406 180.054688 10.519531 180.054688 Z M 8.328125 176.753906 L 13.4375 176.753906 L 13.4375 177.726562 L 8.328125 177.726562 L 8.328125 178.546875 L 7.625 178.546875 L 7.625 177.726562 L 6.96875 177.726562 C 6.4375 177.726562 6.0625 177.609375 5.832031 177.375 C 5.597656 177.140625 5.480469 176.785156 5.480469 176.308594 C 5.480469 176.046875 5.503906 175.816406 5.539062 175.628906 L 6.277344 175.628906 C 6.25 175.789062 6.230469 175.929688 6.230469 176.050781 C 6.230469 176.304688 6.296875 176.480469 6.417969 176.589844 C 6.546875 176.703125 6.769531 176.753906 7.097656 176.753906 L 7.625 176.753906 L 7.625 175.628906 L 8.328125 175.628906 Z M 10.507812 171.238281 C 11.28125 171.238281 11.855469 171.117188 12.230469 170.875 C 12.601562 170.632812 12.78125 170.265625 12.78125 169.773438 C 12.78125 169.429688 12.6875 169.144531 12.5 168.917969 C 12.3125 168.683594 12.027344 168.539062 11.644531 168.484375 L 11.703125 167.5 C 12.265625 167.578125 12.71875 167.820312 13.050781 168.226562 C 13.378906 168.625 13.542969 169.128906 13.542969 169.738281 C 13.542969 170.558594 13.292969 171.183594 12.78125 171.613281 C 12.265625 172.035156 11.515625 172.246094 10.519531 172.246094 C 9.546875 172.246094 8.804688 172.03125 8.292969 171.601562 C 7.777344 171.171875 7.519531 170.554688 7.519531 169.75 C 7.519531 169.15625 7.679688 168.664062 7.988281 168.273438 C 8.292969 167.882812 8.714844 167.636719 9.253906 167.535156 L 9.324219 168.53125 C 9.003906 168.578125 8.75 168.707031 8.5625 168.917969 C 8.371094 169.121094 8.269531 169.410156 8.269531 169.785156 C 8.269531 170.292969 8.441406 170.664062 8.785156 170.898438 C 9.121094 171.125 9.695312 171.238281 10.507812 171.238281 Z M 10.519531 161.058594 C 11.546875 161.058594 12.308594 161.289062 12.804688 161.738281 C 13.296875 162.183594 13.542969 162.835938 13.542969 163.683594 C 13.542969 164.539062 13.285156 165.183594 12.769531 165.617188 C 12.253906 166.050781 11.503906 166.261719 10.519531 166.261719 C 8.523438 166.261719 7.519531 165.394531 7.519531 163.648438 C 7.519531 162.757812 7.765625 162.109375 8.257812 161.691406 C 8.746094 161.269531 9.5 161.058594 10.519531 161.058594 Z M 10.519531 162.078125 C 9.722656 162.078125 9.148438 162.203125 8.785156 162.441406 C 8.421875 162.675781 8.234375 163.074219 8.234375 163.636719 C 8.234375 164.199219 8.421875 164.609375 8.796875 164.867188 C 9.167969 165.121094 9.742188 165.242188 10.519531 165.242188 C 11.292969 165.242188 11.875 165.121094 12.253906 164.867188 C 12.640625 164.621094 12.828125 164.230469 12.828125 163.695312 C 12.828125 163.121094 12.648438 162.707031 12.277344 162.453125 C 11.902344 162.207031 11.316406 162.078125 10.519531 162.078125 Z M 10.730469 159.226562 C 11.40625 159.226562 11.921875 159.089844 12.277344 158.816406 C 12.640625 158.542969 12.816406 158.140625 12.816406 157.609375 C 12.816406 157.1875 12.734375 156.851562 12.570312 156.601562 C 12.402344 156.351562 12.183594 156.179688 11.925781 156.085938 L 12.171875 155.242188 C 13.085938 155.585938 13.542969 156.375 13.542969 157.609375 C 13.542969 158.46875 13.292969 159.125 12.78125 159.578125 C 12.265625 160.023438 11.503906 160.246094 10.496094 160.246094 C 9.535156 160.246094 8.804688 160.023438 8.292969 159.578125 C 7.777344 159.125 7.519531 158.480469 7.519531 157.644531 C 7.519531 155.933594 8.550781 155.078125 10.601562 155.078125 L 10.730469 155.078125 Z M 9.992188 156.085938 C 9.382812 156.140625 8.9375 156.296875 8.65625 156.554688 C 8.375 156.8125 8.234375 157.183594 8.234375 157.667969 C 8.234375 158.136719 8.394531 158.507812 8.703125 158.78125 C 9.019531 159.054688 9.449219 159.203125 9.992188 159.226562 Z M 8.328125 152.773438 L 13.4375 152.773438 L 13.4375 153.746094 L 8.328125 153.746094 L 8.328125 154.566406 L 7.625 154.566406 L 7.625 153.746094 L 6.96875 153.746094 C 6.4375 153.746094 6.0625 153.628906 5.832031 153.394531 C 5.597656 153.160156 5.480469 152.804688 5.480469 152.328125 C 5.480469 152.0625 5.503906 151.835938 5.539062 151.648438 L 6.277344 151.648438 C 6.25 151.804688 6.230469 151.945312 6.230469 152.070312 C 6.230469 152.320312 6.296875 152.5 6.417969 152.609375 C 6.546875 152.71875 6.769531 152.773438 7.097656 152.773438 L 7.625 152.773438 L 7.625 151.648438 L 8.328125 151.648438 Z M 8.328125 149.78125 L 13.4375 149.78125 L 13.4375 150.753906 L 8.328125 150.753906 L 8.328125 151.574219 L 7.625 151.574219 L 7.625 150.753906 L 6.96875 150.753906 C 6.4375 150.753906 6.0625 150.636719 5.832031 150.402344 C 5.597656 150.167969 5.480469 149.8125 5.480469 149.335938 C 5.480469 149.070312 5.503906 148.84375 5.539062 148.65625 L 6.277344 148.65625 C 6.25 148.8125 6.230469 148.953125 6.230469 149.078125 C 6.230469 149.328125 6.296875 149.507812 6.417969 149.617188 C 6.546875 149.726562 6.769531 149.78125 7.097656 149.78125 L 7.625 149.78125 L 7.625 148.65625 L 8.328125 148.65625 Z M 6.382812 147.996094 L 5.46875 147.996094 L 5.46875 147.035156 L 6.382812 147.035156 Z M 13.4375 147.996094 L 7.625 147.996094 L 7.625 147.035156 L 13.4375 147.035156 Z M 10.507812 145.265625 C 11.28125 145.265625 11.855469 145.144531 12.230469 144.902344 C 12.601562 144.664062 12.78125 144.292969 12.78125 143.800781 C 12.78125 143.457031 12.6875 143.175781 12.5 142.945312 C 12.3125 142.710938 12.027344 142.566406 11.644531 142.511719 L 11.703125 141.527344 C 12.265625 141.605469 12.71875 141.851562 13.050781 142.253906 C 13.378906 142.652344 13.542969 143.15625 13.542969 143.765625 C 13.542969 144.585938 13.292969 145.214844 12.78125 145.640625 C 12.265625 146.0625 11.515625 146.273438 10.519531 146.273438 C 9.546875 146.273438 8.804688 146.058594 8.292969 145.628906 C 7.777344 145.203125 7.519531 144.582031 7.519531 143.777344 C 7.519531 143.1875 7.679688 142.695312 7.988281 142.300781 C 8.292969 141.910156 8.714844 141.664062 9.253906 141.5625 L 9.324219 142.558594 C 9.003906 142.605469 8.75 142.734375 8.5625 142.945312 C 8.371094 143.152344 8.269531 143.4375 8.269531 143.8125 C 8.269531 144.324219 8.441406 144.691406 8.785156 144.925781 C 9.121094 145.15625 9.695312 145.265625 10.507812 145.265625 Z M 6.382812 140 L 5.46875 140 L 5.46875 139.039062 L 6.382812 139.039062 Z M 13.4375 140 L 7.625 140 L 7.625 139.039062 L 13.4375 139.039062 Z M 10.730469 137.246094 C 11.40625 137.246094 11.921875 137.113281 12.277344 136.835938 C 12.636719 136.566406 12.816406 136.164062 12.816406 135.628906 C 12.816406 135.207031 12.734375 134.875 12.570312 134.621094 C 12.402344 134.375 12.183594 134.199219 11.925781 134.105469 L 12.171875 133.261719 C 13.085938 133.609375 13.542969 134.398438 13.542969 135.628906 C 13.542969 136.492188 13.292969 137.148438 12.78125 137.597656 C 12.265625 138.042969 11.503906 138.265625 10.496094 138.265625 C 9.535156 138.265625 8.804688 138.042969 8.292969 137.597656 C 7.777344 137.148438 7.519531 136.503906 7.519531 135.664062 C 7.519531 133.953125 8.546875 133.097656 10.601562 133.097656 L 10.730469 133.097656 Z M 9.992188 134.105469 C 9.382812 134.164062 8.9375 134.316406 8.65625 134.574219 C 8.375 134.832031 8.234375 135.207031 8.234375 135.6875 C 8.234375 136.15625 8.394531 136.53125 8.703125 136.800781 C 9.015625 137.078125 9.449219 137.222656 9.992188 137.246094 Z M 13.4375 128.3125 L 9.746094 128.3125 C 9.367188 128.3125 9.066406 128.351562 8.855469 128.429688 C 8.644531 128.5 8.492188 128.617188 8.398438 128.78125 C 8.304688 128.945312 8.257812 129.1875 8.257812 129.507812 C 8.257812 129.976562 8.417969 130.34375 8.738281 130.609375 C 9.0625 130.875 9.507812 131.007812 10.074219 131.007812 L 13.4375 131.007812 L 13.4375 131.980469 L 8.867188 131.980469 C 8.1875 131.980469 7.773438 131.992188 7.625 132.015625 L 7.625 131.101562 C 7.644531 131.09375 7.691406 131.089844 7.765625 131.089844 C 7.847656 131.082031 7.9375 131.078125 8.046875 131.078125 C 8.148438 131.070312 8.339844 131.0625 8.621094 131.054688 L 8.621094 131.042969 C 8.21875 130.816406 7.929688 130.558594 7.765625 130.269531 C 7.601562 129.972656 7.519531 129.609375 7.519531 129.179688 C 7.519531 128.539062 7.679688 128.074219 8 127.785156 C 8.3125 127.488281 8.832031 127.339844 9.558594 127.339844 L 13.4375 127.339844 Z M 13.390625 123.769531 C 13.476562 124.089844 13.519531 124.414062 13.519531 124.742188 C 13.519531 125.515625 13.082031 125.902344 12.207031 125.902344 L 8.328125 125.902344 L 8.328125 126.582031 L 7.625 126.582031 L 7.625 125.867188 L 6.324219 125.585938 L 6.324219 124.941406 L 7.625 124.941406 L 7.625 123.863281 L 8.328125 123.863281 L 8.328125 124.941406 L 11.996094 124.941406 C 12.277344 124.941406 12.476562 124.898438 12.59375 124.8125 C 12.707031 124.71875 12.757812 124.558594 12.757812 124.332031 C 12.757812 124.199219 12.730469 124.011719 12.675781 123.769531 Z M 11.832031 115.652344 C 12.378906 115.652344 12.800781 115.859375 13.097656 116.273438 C 13.398438 116.691406 13.542969 117.269531 13.542969 118.019531 C 13.542969 118.742188 13.425781 119.296875 13.191406 119.695312 C 12.953125 120.089844 12.578125 120.339844 12.078125 120.457031 L 11.902344 119.601562 C 12.214844 119.515625 12.449219 119.34375 12.59375 119.085938 C 12.734375 118.828125 12.804688 118.472656 12.804688 118.019531 C 12.804688 117.527344 12.730469 117.171875 12.582031 116.941406 C 12.4375 116.714844 12.207031 116.601562 11.902344 116.601562 C 11.675781 116.601562 11.492188 116.679688 11.351562 116.835938 C 11.207031 116.996094 11.082031 117.246094 10.988281 117.597656 L 10.8125 118.289062 C 10.667969 118.847656 10.527344 119.238281 10.390625 119.472656 C 10.25 119.707031 10.082031 119.890625 9.886719 120.023438 C 9.695312 120.160156 9.449219 120.222656 9.160156 120.222656 C 8.628906 120.222656 8.230469 120.035156 7.953125 119.660156 C 7.671875 119.28125 7.53125 118.730469 7.53125 118.007812 C 7.53125 117.371094 7.644531 116.859375 7.871094 116.484375 C 8.101562 116.105469 8.464844 115.859375 8.960938 115.757812 L 9.066406 116.625 C 8.808594 116.679688 8.609375 116.824219 8.46875 117.058594 C 8.328125 117.292969 8.257812 117.609375 8.257812 118.007812 C 8.257812 118.449219 8.328125 118.769531 8.457031 118.980469 C 8.59375 119.1875 8.792969 119.285156 9.066406 119.285156 C 9.230469 119.285156 9.367188 119.246094 9.476562 119.15625 C 9.578125 119.070312 9.671875 118.945312 9.746094 118.78125 C 9.828125 118.613281 9.929688 118.253906 10.0625 117.714844 C 10.1875 117.199219 10.304688 116.832031 10.414062 116.601562 C 10.527344 116.375 10.644531 116.199219 10.777344 116.074219 C 10.914062 115.941406 11.066406 115.839844 11.234375 115.769531 C 11.40625 115.695312 11.605469 115.652344 11.832031 115.652344 Z M 10.519531 109.105469 C 11.546875 109.105469 12.308594 109.332031 12.804688 109.785156 C 13.296875 110.230469 13.542969 110.878906 13.542969 111.730469 C 13.542969 112.582031 13.285156 113.226562 12.769531 113.664062 C 12.253906 114.09375 11.503906 114.308594 10.519531 114.308594 C 8.523438 114.308594 7.519531 113.4375 7.519531 111.695312 C 7.519531 110.804688 7.765625 110.152344 8.257812 109.738281 C 8.746094 109.316406 9.496094 109.105469 10.519531 109.105469 Z M 10.519531 110.125 C 9.722656 110.125 9.144531 110.246094 8.785156 110.488281 C 8.417969 110.722656 8.234375 111.121094 8.234375 111.683594 C 8.234375 112.246094 8.421875 112.65625 8.796875 112.914062 C 9.167969 113.164062 9.742188 113.289062 10.519531 113.289062 C 11.292969 113.289062 11.875 113.164062 12.253906 112.914062 C 12.636719 112.664062 12.828125 112.273438 12.828125 111.742188 C 12.828125 111.164062 12.648438 110.75 12.277344 110.5 C 11.902344 110.25 11.316406 110.125 10.519531 110.125 Z M 8.328125 106.8125 L 13.4375 106.8125 L 13.4375 107.785156 L 8.328125 107.785156 L 8.328125 108.605469 L 7.625 108.605469 L 7.625 107.785156 L 6.96875 107.785156 C 6.4375 107.785156 6.0625 107.667969 5.832031 107.433594 C 5.597656 107.199219 5.480469 106.847656 5.480469 106.367188 C 5.480469 106.105469 5.503906 105.875 5.539062 105.6875 L 6.277344 105.6875 C 6.25 105.847656 6.230469 105.988281 6.230469 106.109375 C 6.230469 106.363281 6.296875 106.542969 6.417969 106.648438 C 6.546875 106.761719 6.769531 106.8125 7.097656 106.8125 L 7.625 106.8125 L 7.625 105.6875 L 8.328125 105.6875 Z M 13.390625 102.792969 C 13.476562 103.113281 13.519531 103.4375 13.519531 103.765625 C 13.519531 104.539062 13.082031 104.925781 12.207031 104.925781 L 8.328125 104.925781 L 8.328125 105.605469 L 7.625 105.605469 L 7.625 104.890625 L 6.324219 104.609375 L 6.324219 103.964844 L 7.625 103.964844 L 7.625 102.886719 L 8.328125 102.886719 L 8.328125 103.964844 L 11.996094 103.964844 C 12.277344 103.964844 12.476562 103.921875 12.59375 103.835938 C 12.707031 103.742188 12.757812 103.582031 12.757812 103.355469 C 12.757812 103.222656 12.730469 103.035156 12.675781 102.792969 Z M 10.507812 97.128906 C 12.53125 97.128906 13.542969 97.84375 13.542969 99.273438 C 13.542969 100.164062 13.210938 100.765625 12.535156 101.078125 L 12.535156 101.101562 C 12.566406 101.085938 12.871094 101.078125 13.449219 101.078125 L 15.722656 101.078125 L 15.722656 102.050781 L 8.808594 102.050781 C 8.21875 102.050781 7.820312 102.058594 7.625 102.074219 L 7.625 101.148438 C 7.644531 101.140625 7.695312 101.132812 7.777344 101.125 C 7.867188 101.117188 8 101.109375 8.1875 101.101562 C 8.371094 101.09375 8.492188 101.089844 8.5625 101.089844 L 8.5625 101.066406 C 8.207031 100.894531 7.941406 100.667969 7.777344 100.386719 C 7.609375 100.105469 7.519531 99.734375 7.519531 99.273438 C 7.519531 98.554688 7.761719 98.019531 8.246094 97.667969 C 8.722656 97.308594 9.476562 97.128906 10.507812 97.128906 Z M 10.519531 98.148438 C 9.71875 98.148438 9.144531 98.257812 8.796875 98.476562 C 8.445312 98.695312 8.269531 99.042969 8.269531 99.519531 C 8.269531 99.902344 8.351562 100.203125 8.515625 100.421875 C 8.675781 100.632812 8.925781 100.796875 9.265625 100.914062 C 9.613281 101.023438 10.058594 101.078125 10.601562 101.078125 C 11.371094 101.078125 11.933594 100.957031 12.289062 100.714844 C 12.652344 100.472656 12.828125 100.078125 12.828125 99.53125 C 12.828125 99.046875 12.652344 98.695312 12.300781 98.476562 C 11.949219 98.257812 11.359375 98.148438 10.519531 98.148438 Z M 13.4375 96.042969 L 5.46875 96.042969 L 5.46875 95.070312 L 13.4375 95.070312 Z M 7.625 93.101562 L 11.304688 93.101562 C 11.6875 93.101562 11.992188 93.066406 12.207031 92.996094 C 12.417969 92.921875 12.570312 92.796875 12.664062 92.632812 C 12.753906 92.46875 12.792969 92.230469 12.792969 91.90625 C 12.792969 91.4375 12.636719 91.074219 12.324219 90.804688 C 12.003906 90.535156 11.558594 90.394531 10.988281 90.394531 L 7.625 90.394531 L 7.625 89.433594 L 12.195312 89.433594 C 12.875 89.433594 13.292969 89.421875 13.4375 89.398438 L 13.4375 90.3125 C 13.421875 90.324219 13.375 90.324219 13.296875 90.324219 C 13.222656 90.324219 13.128906 90.332031 13.027344 90.335938 C 12.917969 90.347656 12.722656 90.355469 12.441406 90.359375 L 12.441406 90.371094 C 12.847656 90.601562 13.132812 90.859375 13.296875 91.144531 C 13.460938 91.433594 13.542969 91.796875 13.542969 92.234375 C 13.542969 92.867188 13.386719 93.332031 13.074219 93.628906 C 12.753906 93.929688 12.226562 94.074219 11.492188 94.074219 L 7.625 94.074219 Z M 11.832031 83.675781 C 12.378906 83.675781 12.800781 83.882812 13.097656 84.296875 C 13.398438 84.710938 13.542969 85.292969 13.542969 86.042969 C 13.542969 86.761719 13.425781 87.320312 13.191406 87.71875 C 12.953125 88.109375 12.578125 88.363281 12.078125 88.480469 L 11.902344 87.625 C 12.214844 87.539062 12.449219 87.367188 12.59375 87.109375 C 12.734375 86.851562 12.804688 86.496094 12.804688 86.042969 C 12.804688 85.550781 12.730469 85.191406 12.582031 84.964844 C 12.4375 84.738281 12.207031 84.625 11.902344 84.625 C 11.675781 84.625 11.492188 84.703125 11.351562 84.859375 C 11.207031 85.015625 11.082031 85.269531 10.988281 85.621094 L 10.8125 86.3125 C 10.667969 86.867188 10.527344 87.261719 10.390625 87.496094 C 10.25 87.730469 10.082031 87.914062 9.886719 88.046875 C 9.695312 88.179688 9.449219 88.246094 9.160156 88.246094 C 8.628906 88.246094 8.230469 88.058594 7.953125 87.683594 C 7.671875 87.300781 7.53125 86.75 7.53125 86.03125 C 7.53125 85.390625 7.644531 84.882812 7.871094 84.507812 C 8.101562 84.125 8.464844 83.882812 8.960938 83.78125 L 9.066406 84.648438 C 8.808594 84.703125 8.609375 84.847656 8.46875 85.082031 C 8.328125 85.316406 8.257812 85.632812 8.257812 86.03125 C 8.257812 86.46875 8.328125 86.792969 8.457031 87.003906 C 8.59375 87.207031 8.792969 87.308594 9.066406 87.308594 C 9.230469 87.308594 9.367188 87.265625 9.476562 87.179688 C 9.578125 87.09375 9.671875 86.96875 9.746094 86.804688 C 9.828125 86.632812 9.929688 86.277344 10.0625 85.738281 C 10.1875 85.222656 10.304688 84.851562 10.414062 84.625 C 10.527344 84.398438 10.644531 84.222656 10.777344 84.097656 C 10.914062 83.964844 11.066406 83.863281 11.234375 83.792969 C 11.40625 83.714844 11.605469 83.675781 11.832031 83.675781 Z M 15.628906 82.953125 L 14.925781 82.953125 L 14.925781 76.542969 L 15.628906 76.542969 Z M 10.519531 71.132812 C 11.546875 71.132812 12.308594 71.363281 12.804688 71.8125 C 13.296875 72.257812 13.542969 72.910156 13.542969 73.757812 C 13.542969 74.609375 13.285156 75.253906 12.769531 75.691406 C 12.253906 76.121094 11.503906 76.335938 10.519531 76.335938 C 8.523438 76.335938 7.519531 75.464844 7.519531 73.722656 C 7.519531 72.832031 7.765625 72.183594 8.257812 71.765625 C 8.746094 71.34375 9.496094 71.132812 10.519531 71.132812 Z M 10.519531 72.152344 C 9.722656 72.152344 9.144531 72.277344 8.785156 72.515625 C 8.417969 72.75 8.234375 73.148438 8.234375 73.710938 C 8.234375 74.273438 8.421875 74.683594 8.796875 74.941406 C 9.167969 75.195312 9.742188 75.316406 10.519531 75.316406 C 11.292969 75.316406 11.875 75.195312 12.253906 74.941406 C 12.636719 74.691406 12.828125 74.304688 12.828125 73.769531 C 12.828125 73.191406 12.648438 72.78125 12.277344 72.527344 C 11.902344 72.277344 11.316406 72.152344 10.519531 72.152344 Z M 13.4375 66.359375 L 9.746094 66.359375 C 9.367188 66.359375 9.066406 66.398438 8.855469 66.476562 C 8.644531 66.542969 8.492188 66.664062 8.398438 66.828125 C 8.304688 66.992188 8.257812 67.234375 8.257812 67.554688 C 8.257812 68.023438 8.417969 68.390625 8.738281 68.65625 C 9.0625 68.921875 9.507812 69.054688 10.074219 69.054688 L 13.4375 69.054688 L 13.4375 70.027344 L 8.867188 70.027344 C 8.1875 70.027344 7.773438 70.035156 7.625 70.058594 L 7.625 69.144531 C 7.644531 69.140625 7.691406 69.132812 7.765625 69.132812 C 7.847656 69.128906 7.9375 69.121094 8.046875 69.121094 C 8.148438 69.117188 8.339844 69.109375 8.621094 69.101562 L 8.621094 69.089844 C 8.21875 68.863281 7.929688 68.605469 7.765625 68.316406 C 7.601562 68.019531 7.519531 67.65625 7.519531 67.226562 C 7.519531 66.585938 7.679688 66.121094 8 65.832031 C 8.3125 65.535156 8.832031 65.386719 9.558594 65.386719 L 13.4375 65.386719 Z M 11.832031 59.683594 C 12.378906 59.683594 12.800781 59.890625 13.097656 60.304688 C 13.398438 60.722656 13.542969 61.300781 13.542969 62.050781 C 13.542969 62.773438 13.425781 63.328125 13.191406 63.726562 C 12.953125 64.121094 12.578125 64.371094 12.078125 64.488281 L 11.902344 63.632812 C 12.214844 63.546875 12.449219 63.375 12.59375 63.117188 C 12.734375 62.859375 12.804688 62.503906 12.804688 62.050781 C 12.804688 61.558594 12.730469 61.203125 12.582031 60.972656 C 12.4375 60.746094 12.207031 60.632812 11.902344 60.632812 C 11.675781 60.632812 11.492188 60.710938 11.351562 60.867188 C 11.207031 61.027344 11.082031 61.277344 10.988281 61.628906 L 10.8125 62.320312 C 10.667969 62.878906 10.527344 63.269531 10.390625 63.503906 C 10.25 63.738281 10.082031 63.921875 9.886719 64.054688 C 9.695312 64.191406 9.449219 64.253906 9.160156 64.253906 C 8.628906 64.253906 8.230469 64.066406 7.953125 63.691406 C 7.671875 63.3125 7.53125 62.761719 7.53125 62.039062 C 7.53125 61.402344 7.644531 60.890625 7.871094 60.515625 C 8.101562 60.136719 8.464844 59.890625 8.960938 59.789062 L 9.066406 60.65625 C 8.808594 60.710938 8.609375 60.855469 8.46875 61.089844 C 8.328125 61.324219 8.257812 61.640625 8.257812 62.039062 C 8.257812 62.480469 8.328125 62.800781 8.457031 63.011719 C 8.59375 63.21875 8.792969 63.316406 9.066406 63.316406 C 9.230469 63.316406 9.367188 63.277344 9.476562 63.1875 C 9.578125 63.101562 9.671875 62.976562 9.746094 62.8125 C 9.828125 62.644531 9.929688 62.285156 10.0625 61.746094 C 10.1875 61.230469 10.304688 60.863281 10.414062 60.632812 C 10.527344 60.40625 10.644531 60.230469 10.777344 60.105469 C 10.914062 59.972656 11.066406 59.871094 11.234375 59.800781 C 11.40625 59.722656 11.605469 59.683594 11.832031 59.683594 Z M 10.730469 57.300781 C 11.40625 57.300781 11.921875 57.164062 12.277344 56.890625 C 12.636719 56.617188 12.816406 56.214844 12.816406 55.683594 C 12.816406 55.261719 12.734375 54.925781 12.570312 54.675781 C 12.402344 54.425781 12.183594 54.253906 11.925781 54.160156 L 12.171875 53.316406 C 13.085938 53.660156 13.542969 54.449219 13.542969 55.683594 C 13.542969 56.542969 13.292969 57.199219 12.78125 57.652344 C 12.265625 58.097656 11.503906 58.320312 10.496094 58.320312 C 9.535156 58.320312 8.804688 58.097656 8.292969 57.652344 C 7.777344 57.199219 7.519531 56.554688 7.519531 55.71875 C 7.519531 54.007812 8.546875 53.152344 10.601562 53.152344 L 10.730469 53.152344 Z M 9.992188 54.160156 C 9.382812 54.214844 8.9375 54.371094 8.65625 54.628906 C 8.375 54.886719 8.234375 55.257812 8.234375 55.742188 C 8.234375 56.210938 8.394531 56.582031 8.703125 56.855469 C 9.015625 57.128906 9.449219 57.277344 9.992188 57.300781 Z M 13.390625 49.816406 C 13.476562 50.140625 13.519531 50.460938 13.519531 50.789062 C 13.519531 51.5625 13.082031 51.949219 12.207031 51.949219 L 8.328125 51.949219 L 8.328125 52.628906 L 7.625 52.628906 L 7.625 51.914062 L 6.324219 51.632812 L 6.324219 50.988281 L 7.625 50.988281 L 7.625 49.910156 L 8.328125 49.910156 L 8.328125 50.988281 L 11.996094 50.988281 C 12.277344 50.988281 12.476562 50.949219 12.59375 50.859375 C 12.707031 50.765625 12.757812 50.609375 12.757812 50.378906 C 12.757812 50.246094 12.730469 50.058594 12.675781 49.816406 Z M 13.390625 49.816406 "/>
</svg>
