<?xml version="1.0" encoding="UTF-8"?>
<svg xmlns="http://www.w3.org/2000/svg" xmlns:xlink="http://www.w3.org/1999/xlink" width="303pt" height="288pt" viewBox="0 0 303 288">
<defs>
<clipPath id="clip-0">
<path clip-rule="nonzero" d="M 39.152344 5.480469 L 299.605469 5.480469 L 299.605469 254.851562 L 39.152344 254.851562 Z M 39.152344 5.480469 "/>
</clipPath>
<clipPath id="clip-1">
<path clip-rule="nonzero" d="M 39.152344 234 L 299.605469 234 L 299.605469 236 L 39.152344 236 Z M 39.152344 234 "/>
</clipPath>
<clipPath id="clip-2">
<path clip-rule="nonzero" d="M 39.152344 147 L 299.605469 147 L 299.605469 149 L 39.152344 149 Z M 39.152344 147 "/>
</clipPath>
<clipPath id="clip-3">
<path clip-rule="nonzero" d="M 39.152344 60 L 299.605469 60 L 299.605469 61 L 39.152344 61 Z M 39.152344 60 "/>
</clipPath>
<clipPath id="clip-4">
<path clip-rule="nonzero" d="M 80 5.480469 L 81 5.480469 L 81 254.851562 L 80 254.851562 Z M 80 5.480469 "/>
</clipPath>
<clipPath id="clip-5">
<path clip-rule="nonzero" d="M 139 5.480469 L 141 5.480469 L 141 254.851562 L 139 254.851562 Z M 139 5.480469 "/>
</clipPath>
<clipPath id="clip-6">
<path clip-rule="nonzero" d="M 198 5.480469 L 200 5.480469 L 200 254.851562 L 198 254.851562 Z M 198 5.480469 "/>
</clipPath>
<clipPath id="clip-7">
<path clip-rule="nonzero" d="M 257 5.480469 L 259 5.480469 L 259 254.851562 L 257 254.851562 Z M 257 5.480469 "/>
</clipPath>
<clipPath id="clip-8">
<path clip-rule="nonzero" d="M 39.152344 191 L 299.605469 191 L 299.605469 193 L 39.152344 193 Z M 39.152344 191 "/>
</clipPath>
<clipPath id="clip-9">
<path clip-rule="nonzero" d="M 39.152344 103 L 299.605469 103 L 299.605469 105 L 39.152344 105 Z M 39.152344 103 "/>
</clipPath>
<clipPath id="clip-10">
<path clip-rule="nonzero" d="M 39.152344 16 L 299.605469 16 L 299.605469 18 L 39.152344 18 Z M 39.152344 16 "/>
</clipPath>
<clipPath id="clip-11">
<path clip-rule="nonzero" d="M 50 5.480469 L 52 5.480469 L 52 254.851562 L 50 254.851562 Z M 50 5.480469 "/>
</clipPath>
<clipPath id="clip-12">
<path clip-rule="nonzero" d="M 109 5.480469 L 111 5.480469 L 111 254.851562 L 109 254.851562 Z M 109 5.480469 "/>
</clipPath>
<clipPath id="clip-13">
<path clip-rule="nonzero" d="M 168 5.480469 L 170 5.480469 L 170 254.851562 L 168 254.851562 Z M 168 5.480469 "/>
</clipPath>
<clipPath id="clip-14">
<path clip-rule="nonzero" d="M 228 5.480469 L 230 5.480469 L 230 254.851562 L 228 254.851562 Z M 228 5.480469 "/>
</clipPath>
<clipPath id="clip-15">
<path clip-rule="nonzero" d="M 287 5.480469 L 289 5.480469 L 289 254.851562 L 287 254.851562 Z M 287 5.480469 "/>
</clipPath>
<clipPath id="clip-16">
<path clip-rule="nonzero" d="M 39.152344 5.480469 L 299.605469 5.480469 L 299.605469 254.851562 L 39.152344 254.851562 Z M 39.152344 5.480469 "/>
</clipPath>
</defs>
<rect x="-30.3" y="-28.8" width="363.6" height="345.6" fill="rgb(100%, 100%, 100%)" fill-opacity="1"/>
<path fill="none" stroke-width="1.06698" stroke-linecap="round" stroke-linejoin="round" stroke="rgb(100%, 100%, 100%)" stroke-opacity="1" stroke-miterlimit="10" d="M 0 0 L 432 0 L 432 288 L 0 288 Z M 0 0 "/>
<g clip-path="url(#clip-0)">
<path fill-rule="nonzero" fill="rgb(100%, 100%, 100%)" fill-opacity="1" d="M 39.152344 5.476562 L 299.605469 5.476562 L 299.605469 254.847656 L 39.152344 254.847656 Z M 39.152344 5.476562 "/>
</g>
<g clip-path="url(#clip-1)">
<path fill="none" stroke-width="0.533489" stroke-linecap="butt" stroke-linejoin="round" stroke="rgb(92.155457%, 92.155457%, 92.155457%)" stroke-opacity="1" stroke-miterlimit="10" d="M 39.152344 235.21875 L 299.601562 235.21875 "/>
</g>
<g clip-path="url(#clip-2)">
<path fill="none" stroke-width="0.533489" stroke-linecap="butt" stroke-linejoin="round" stroke="rgb(92.155457%, 92.155457%, 92.155457%)" stroke-opacity="1" stroke-miterlimit="10" d="M 39.152344 147.855469 L 299.601562 147.855469 "/>
</g>
<g clip-path="url(#clip-3)">
<path fill="none" stroke-width="0.533489" stroke-linecap="butt" stroke-linejoin="round" stroke="rgb(92.155457%, 92.155457%, 92.155457%)" stroke-opacity="1" stroke-miterlimit="10" d="M 39.152344 60.496094 L 299.601562 60.496094 "/>
</g>
<g clip-path="url(#clip-4)">
<path fill="none" stroke-width="0.533489" stroke-linecap="butt" stroke-linejoin="round" stroke="rgb(92.155457%, 92.155457%, 92.155457%)" stroke-opacity="1" stroke-miterlimit="10" d="M 80.585938 254.847656 L 80.585938 5.480469 "/>
</g>
<g clip-path="url(#clip-5)">
<path fill="none" stroke-width="0.533489" stroke-linecap="butt" stroke-linejoin="round" stroke="rgb(92.155457%, 92.155457%, 92.155457%)" stroke-opacity="1" stroke-miterlimit="10" d="M 139.78125 254.847656 L 139.78125 5.480469 "/>
</g>
<g clip-path="url(#clip-6)">
<path fill="none" stroke-width="0.533489" stroke-linecap="butt" stroke-linejoin="round" stroke="rgb(92.155457%, 92.155457%, 92.155457%)" stroke-opacity="1" stroke-miterlimit="10" d="M 198.972656 254.847656 L 198.972656 5.480469 "/>
</g>
<g clip-path="url(#clip-7)">
<path fill="none" stroke-width="0.533489" stroke-linecap="butt" stroke-linejoin="round" stroke="rgb(92.155457%, 92.155457%, 92.155457%)" stroke-opacity="1" stroke-miterlimit="10" d="M 258.167969 254.847656 L 258.167969 5.480469 "/>
</g>
<g clip-path="url(#clip-8)">
<path fill="none" stroke-width="1.06698" stroke-linecap="butt" stroke-linejoin="round" stroke="rgb(92.155457%, 92.155457%, 92.155457%)" stroke-opacity="1" stroke-miterlimit="10" d="M 39.152344 191.535156 L 299.601562 191.535156 "/>
</g>
<g clip-path="url(#clip-9)">
<path fill="none" stroke-width="1.06698" stroke-linecap="butt" stroke-linejoin="round" stroke="rgb(92.155457%, 92.155457%, 92.155457%)" stroke-opacity="1" stroke-miterlimit="10" d="M 39.152344 104.175781 L 299.601562 104.175781 "/>
</g>
<g clip-path="url(#clip-10)">
<path fill="none" stroke-width="1.06698" stroke-linecap="butt" stroke-linejoin="round" stroke="rgb(92.155457%, 92.155457%, 92.155457%)" stroke-opacity="1" stroke-miterlimit="10" d="M 39.152344 16.8125 L 299.601562 16.8125 "/>
</g>
<g clip-path="url(#clip-11)">
<path fill="none" stroke-width="1.06698" stroke-linecap="butt" stroke-linejoin="round" stroke="rgb(92.155457%, 92.155457%, 92.155457%)" stroke-opacity="1" stroke-miterlimit="10" d="M 50.988281 254.847656 L 50.988281 5.480469 "/>
</g>
<g clip-path="url(#clip-12)">
<path fill="none" stroke-width="1.06698" stroke-linecap="butt" stroke-linejoin="round" stroke="rgb(92.155457%, 92.155457%, 92.155457%)" stroke-opacity="1" stroke-miterlimit="10" d="M 110.183594 254.847656 L 110.183594 5.480469 "/>
</g>
<g clip-path="url(#clip-13)">
<path fill="none" stroke-width="1.06698" stroke-linecap="butt" stroke-linejoin="round" stroke="rgb(92.155457%, 92.155457%, 92.155457%)" stroke-opacity="1" stroke-miterlimit="10" d="M 169.375 254.847656 L 169.375 5.480469 "/>
</g>
<g clip-path="url(#clip-14)">
<path fill="none" stroke-width="1.06698" stroke-linecap="butt" stroke-linejoin="round" stroke="rgb(92.155457%, 92.155457%, 92.155457%)" stroke-opacity="1" stroke-miterlimit="10" d="M 228.570312 254.847656 L 228.570312 5.480469 "/>
</g>
<g clip-path="url(#clip-15)">
<path fill="none" stroke-width="1.06698" stroke-linecap="butt" stroke-linejoin="round" stroke="rgb(92.155457%, 92.155457%, 92.155457%)" stroke-opacity="1" stroke-miterlimit="10" d="M 287.765625 254.847656 L 287.765625 5.480469 "/>
</g>
<path fill="none" stroke-width="1.06698" stroke-linecap="butt" stroke-linejoin="round" stroke="rgb(0%, 0%, 0%)" stroke-opacity="1" stroke-miterlimit="10" d="M 50.988281 16.8125 L 287.765625 16.8125 "/>
<path fill="none" stroke-width="1.06698" stroke-linecap="butt" stroke-linejoin="round" stroke="rgb(0%, 100%, 0%)" stroke-opacity="1" stroke-miterlimit="10" d="M 50.988281 194.605469 L 110.183594 107.152344 L 169.375 78.28125 L 228.570312 61.292969 L 287.765625 56.972656 "/>
<path fill="none" stroke-width="1.06698" stroke-linecap="butt" stroke-linejoin="round" stroke="rgb(12.156677%, 46.665955%, 70.587158%)" stroke-opacity="1" stroke-miterlimit="10" d="M 50.988281 243.515625 L 110.183594 185.832031 L 169.375 157.515625 L 228.570312 148.222656 L 287.765625 149.316406 "/>
<path fill="none" stroke-width="1.06698" stroke-linecap="butt" stroke-linejoin="round" stroke="rgb(100%, 49.803162%, 5.490112%)" stroke-opacity="1" stroke-miterlimit="10" d="M 50.988281 187.101562 L 110.183594 107.742188 L 169.375 83.109375 L 228.570312 70.523438 L 287.765625 58.351562 "/>
<path fill="none" stroke-width="1.06698" stroke-linecap="butt" stroke-linejoin="round" stroke="rgb(58.03833%, 40.391541%, 74.116516%)" stroke-opacity="1" stroke-miterlimit="10" d="M 50.988281 190.695312 L 110.183594 107.4375 L 169.375 78.699219 L 228.570312 62.566406 L 287.765625 56.90625 "/>
<path fill="none" stroke-width="1.06698" stroke-linecap="butt" stroke-linejoin="round" stroke="rgb(54.901123%, 33.724976%, 29.411316%)" stroke-opacity="1" stroke-miterlimit="10" d="M 50.988281 199.945312 L 110.183594 112.988281 L 169.375 79.460938 L 228.570312 62.851562 L 287.765625 59.082031 "/>
<path fill="none" stroke-width="1.06698" stroke-linecap="butt" stroke-linejoin="round" stroke="rgb(9.01947%, 74.508667%, 81.175232%)" stroke-opacity="1" stroke-miterlimit="10" d="M 50.988281 187.242188 L 110.183594 114.347656 L 169.375 76.894531 L 228.570312 65.460938 L 287.765625 56.082031 "/>
<path fill="none" stroke-width="1.06698" stroke-linecap="butt" stroke-linejoin="round" stroke="rgb(100%, 0%, 0%)" stroke-opacity="1" stroke-miterlimit="10" d="M 50.988281 238.992188 L 110.183594 171.476562 L 169.375 170.347656 L 228.570312 164.1875 L 287.765625 154.125 "/>
<g clip-path="url(#clip-16)">
<path fill="none" stroke-width="1.06698" stroke-linecap="round" stroke-linejoin="round" stroke="rgb(19.999695%, 19.999695%, 19.999695%)" stroke-opacity="1" stroke-miterlimit="10" d="M 39.152344 5.476562 L 299.605469 5.476562 L 299.605469 254.847656 L 39.152344 254.847656 Z M 39.152344 5.476562 "/>
</g>
<path fill-rule="nonzero" fill="rgb(30.195618%, 30.195618%, 30.195618%)" fill-opacity="1" d="M 19.605469 193.007812 L 19.605469 192.316406 L 21.761719 192.316406 L 21.761719 193.007812 Z M 26.765625 191.964844 C 26.765625 192.980469 26.582031 193.753906 26.226562 194.285156 C 25.875 194.816406 25.351562 195.082031 24.65625 195.082031 C 23.957031 195.082031 23.4375 194.820312 23.085938 194.296875 C 22.734375 193.765625 22.558594 192.988281 22.558594 191.964844 C 22.558594 190.925781 22.726562 190.148438 23.0625 189.632812 C 23.40625 189.117188 23.945312 188.859375 24.679688 188.859375 C 25.386719 188.859375 25.914062 189.121094 26.25 189.644531 C 26.59375 190.167969 26.765625 190.941406 26.765625 191.964844 Z M 25.980469 191.964844 C 25.980469 191.097656 25.878906 190.46875 25.675781 190.078125 C 25.480469 189.679688 25.148438 189.480469 24.679688 189.480469 C 24.203125 189.480469 23.859375 189.675781 23.648438 190.066406 C 23.441406 190.449219 23.34375 191.082031 23.34375 191.964844 C 23.34375 192.824219 23.449219 193.453125 23.660156 193.851562 C 23.871094 194.25 24.203125 194.449219 24.667969 194.449219 C 25.117188 194.449219 25.453125 194.246094 25.664062 193.839844 C 25.875 193.433594 25.980469 192.808594 25.980469 191.964844 Z M 28.023438 195 L 28.023438 194.0625 L 28.855469 194.0625 L 28.855469 195 Z M 29.652344 195 L 29.652344 194.449219 C 29.792969 194.121094 29.96875 193.828125 30.179688 193.570312 C 30.390625 193.3125 30.613281 193.082031 30.847656 192.878906 C 31.082031 192.667969 31.308594 192.472656 31.539062 192.292969 C 31.761719 192.113281 31.964844 191.9375 32.148438 191.765625 C 32.335938 191.585938 32.480469 191.398438 32.59375 191.203125 C 32.710938 191.007812 32.769531 190.785156 32.769531 190.535156 C 32.769531 190.207031 32.667969 189.953125 32.476562 189.773438 C 32.277344 189.585938 32.011719 189.492188 31.667969 189.492188 C 31.339844 189.492188 31.0625 189.582031 30.847656 189.761719 C 30.636719 189.941406 30.511719 190.191406 30.472656 190.511719 L 29.6875 190.441406 C 29.738281 189.957031 29.945312 189.574219 30.296875 189.292969 C 30.652344 189.003906 31.109375 188.859375 31.667969 188.859375 C 32.277344 188.859375 32.746094 189.003906 33.074219 189.292969 C 33.402344 189.574219 33.566406 189.980469 33.566406 190.511719 C 33.566406 190.746094 33.511719 190.980469 33.402344 191.214844 C 33.289062 191.449219 33.132812 191.683594 32.921875 191.917969 C 32.710938 192.144531 32.300781 192.5 31.703125 192.984375 C 31.375 193.257812 31.109375 193.503906 30.917969 193.722656 C 30.71875 193.933594 30.578125 194.140625 30.496094 194.34375 L 33.660156 194.34375 L 33.660156 195 Z M 19.605469 105.652344 L 19.605469 104.957031 L 21.761719 104.957031 L 21.761719 105.652344 Z M 26.765625 104.609375 C 26.765625 105.625 26.582031 106.398438 26.226562 106.925781 C 25.875 107.460938 25.351562 107.722656 24.65625 107.722656 C 23.957031 107.722656 23.4375 107.464844 23.085938 106.941406 C 22.734375 106.410156 22.558594 105.632812 22.558594 104.609375 C 22.558594 103.570312 22.726562 102.792969 23.0625 102.277344 C 23.40625 101.761719 23.945312 101.503906 24.679688 101.503906 C 25.386719 101.503906 25.914062 101.765625 26.25 102.285156 C 26.59375 102.8125 26.765625 103.585938 26.765625 104.609375 Z M 25.980469 104.609375 C 25.980469 103.738281 25.878906 103.113281 25.675781 102.722656 C 25.480469 102.324219 25.148438 102.125 24.679688 102.125 C 24.203125 102.125 23.859375 102.320312 23.648438 102.707031 C 23.441406 103.09375 23.34375 103.726562 23.34375 104.609375 C 23.34375 105.46875 23.449219 106.097656 23.660156 106.496094 C 23.871094 106.894531 24.203125 107.09375 24.667969 107.09375 C 25.117188 107.09375 25.453125 106.890625 25.664062 106.484375 C 25.875 106.078125 25.980469 105.453125 25.980469 104.609375 Z M 28.023438 107.644531 L 28.023438 106.707031 L 28.855469 106.707031 L 28.855469 107.644531 Z M 29.875 107.644531 L 29.875 106.988281 L 31.421875 106.988281 L 31.421875 102.324219 L 30.050781 103.308594 L 30.050781 102.566406 L 31.480469 101.582031 L 32.195312 101.582031 L 32.195312 106.988281 L 33.671875 106.988281 L 33.671875 107.644531 Z M 26.765625 17.242188 C 26.765625 18.261719 26.582031 19.035156 26.226562 19.566406 C 25.875 20.097656 25.351562 20.363281 24.65625 20.363281 C 23.957031 20.363281 23.4375 20.101562 23.085938 19.574219 C 22.734375 19.046875 22.558594 18.269531 22.558594 17.242188 C 22.558594 16.207031 22.726562 15.429688 23.0625 14.914062 C 23.40625 14.398438 23.945312 14.136719 24.679688 14.136719 C 25.386719 14.136719 25.914062 14.402344 26.25 14.925781 C 26.59375 15.449219 26.765625 16.222656 26.765625 17.242188 Z M 25.980469 17.242188 C 25.980469 16.378906 25.878906 15.75 25.675781 15.355469 C 25.480469 14.960938 25.148438 14.761719 24.679688 14.761719 C 24.203125 14.761719 23.859375 14.957031 23.648438 15.347656 C 23.441406 15.730469 23.34375 16.363281 23.34375 17.242188 C 23.34375 18.105469 23.449219 18.730469 23.660156 19.132812 C 23.871094 19.53125 24.203125 19.730469 24.667969 19.730469 C 25.117188 19.730469 25.453125 19.527344 25.664062 19.117188 C 25.875 18.714844 25.980469 18.085938 25.980469 17.242188 Z M 28.023438 20.28125 L 28.023438 19.34375 L 28.855469 19.34375 L 28.855469 20.28125 Z M 33.753906 17.242188 C 33.753906 18.261719 33.570312 19.035156 33.214844 19.566406 C 32.863281 20.097656 32.339844 20.363281 31.644531 20.363281 C 30.945312 20.363281 30.425781 20.101562 30.074219 19.574219 C 29.722656 19.046875 29.546875 18.269531 29.546875 17.242188 C 29.546875 16.207031 29.714844 15.429688 30.050781 14.914062 C 30.390625 14.398438 30.933594 14.136719 31.667969 14.136719 C 32.375 14.136719 32.902344 14.402344 33.238281 14.925781 C 33.578125 15.449219 33.753906 16.222656 33.753906 17.242188 Z M 32.96875 17.242188 C 32.96875 16.378906 32.863281 15.75 32.664062 15.355469 C 32.464844 14.960938 32.136719 14.761719 31.667969 14.761719 C 31.1875 14.761719 30.847656 14.957031 30.636719 15.347656 C 30.429688 15.730469 30.332031 16.363281 30.332031 17.242188 C 30.332031 18.105469 30.4375 18.730469 30.648438 19.132812 C 30.859375 19.53125 31.191406 19.730469 31.65625 19.730469 C 32.105469 19.730469 32.441406 19.527344 32.652344 19.117188 C 32.863281 18.714844 32.96875 18.085938 32.96875 17.242188 Z M 32.96875 17.242188 "/>
<path fill="none" stroke-width="1.06698" stroke-linecap="butt" stroke-linejoin="round" stroke="rgb(19.999695%, 19.999695%, 19.999695%)" stroke-opacity="1" stroke-miterlimit="10" d="M 36.410156 191.535156 L 39.152344 191.535156 "/>
<path fill="none" stroke-width="1.06698" stroke-linecap="butt" stroke-linejoin="round" stroke="rgb(19.999695%, 19.999695%, 19.999695%)" stroke-opacity="1" stroke-miterlimit="10" d="M 36.410156 104.175781 L 39.152344 104.175781 "/>
<path fill="none" stroke-width="1.06698" stroke-linecap="butt" stroke-linejoin="round" stroke="rgb(19.999695%, 19.999695%, 19.999695%)" stroke-opacity="1" stroke-miterlimit="10" d="M 36.410156 16.8125 L 39.152344 16.8125 "/>
<path fill="none" stroke-width="1.06698" stroke-linecap="butt" stroke-linejoin="round" stroke="rgb(19.999695%, 19.999695%, 19.999695%)" stroke-opacity="1" stroke-miterlimit="10" d="M 50.988281 257.589844 L 50.988281 254.847656 "/>
<path fill="none" stroke-width="1.06698" stroke-linecap="butt" stroke-linejoin="round" stroke="rgb(19.999695%, 19.999695%, 19.999695%)" stroke-opacity="1" stroke-miterlimit="10" d="M 110.183594 257.589844 L 110.183594 254.847656 "/>
<path fill="none" stroke-width="1.06698" stroke-linecap="butt" stroke-linejoin="round" stroke="rgb(19.999695%, 19.999695%, 19.999695%)" stroke-opacity="1" stroke-miterlimit="10" d="M 169.375 257.589844 L 169.375 254.847656 "/>
<path fill="none" stroke-width="1.06698" stroke-linecap="butt" stroke-linejoin="round" stroke="rgb(19.999695%, 19.999695%, 19.999695%)" stroke-opacity="1" stroke-miterlimit="10" d="M 228.570312 257.589844 L 228.570312 254.847656 "/>
<path fill="none" stroke-width="1.06698" stroke-linecap="butt" stroke-linejoin="round" stroke="rgb(19.999695%, 19.999695%, 19.999695%)" stroke-opacity="1" stroke-miterlimit="10" d="M 287.765625 257.589844 L 287.765625 254.847656 "/>
<path fill-rule="nonzero" fill="rgb(30.195618%, 30.195618%, 30.195618%)" fill-opacity="1" d="M 46.65625 266.746094 L 46.65625 266.09375 L 48.203125 266.09375 L 48.203125 261.429688 L 46.832031 262.414062 L 46.832031 261.675781 L 48.261719 260.691406 L 48.976562 260.691406 L 48.976562 266.09375 L 50.453125 266.09375 L 50.453125 266.746094 Z M 55.53125 263.714844 C 55.53125 264.730469 55.351562 265.503906 54.992188 266.035156 C 54.640625 266.566406 54.117188 266.828125 53.421875 266.828125 C 52.726562 266.828125 52.203125 266.570312 51.851562 266.046875 C 51.5 265.515625 51.324219 264.738281 51.324219 263.714844 C 51.324219 262.675781 51.492188 261.898438 51.828125 261.382812 C 52.171875 260.867188 52.710938 260.609375 53.445312 260.609375 C 54.15625 260.609375 54.679688 260.871094 55.015625 261.394531 C 55.359375 261.917969 55.53125 262.691406 55.53125 263.714844 Z M 54.746094 263.714844 C 54.746094 262.847656 54.644531 262.21875 54.441406 261.828125 C 54.246094 261.429688 53.914062 261.230469 53.445312 261.230469 C 52.96875 261.230469 52.625 261.425781 52.414062 261.816406 C 52.210938 262.199219 52.109375 262.832031 52.109375 263.714844 C 52.109375 264.574219 52.214844 265.203125 52.425781 265.601562 C 52.636719 266 52.972656 266.199219 53.433594 266.199219 C 53.886719 266.199219 54.21875 265.996094 54.429688 265.589844 C 54.640625 265.183594 54.746094 264.558594 54.746094 263.714844 Z M 105.628906 266.746094 L 105.628906 266.199219 C 105.769531 265.871094 105.945312 265.578125 106.15625 265.320312 C 106.367188 265.0625 106.589844 264.832031 106.824219 264.628906 C 107.058594 264.417969 107.289062 264.222656 107.515625 264.042969 C 107.742188 263.863281 107.945312 263.6875 108.125 263.515625 C 108.3125 263.335938 108.460938 263.148438 108.570312 262.953125 C 108.6875 262.757812 108.746094 262.535156 108.746094 262.285156 C 108.746094 261.957031 108.648438 261.703125 108.453125 261.523438 C 108.257812 261.335938 107.988281 261.242188 107.644531 261.242188 C 107.316406 261.242188 107.042969 261.332031 106.824219 261.511719 C 106.613281 261.691406 106.488281 261.941406 106.449219 262.261719 L 105.664062 262.191406 C 105.71875 261.707031 105.921875 261.324219 106.273438 261.042969 C 106.632812 260.753906 107.089844 260.609375 107.644531 260.609375 C 108.253906 260.609375 108.722656 260.753906 109.050781 261.042969 C 109.378906 261.324219 109.542969 261.730469 109.542969 262.261719 C 109.542969 262.496094 109.488281 262.730469 109.378906 262.964844 C 109.269531 263.199219 109.109375 263.433594 108.898438 263.667969 C 108.6875 263.894531 108.28125 264.25 107.679688 264.734375 C 107.351562 265.007812 107.089844 265.253906 106.894531 265.472656 C 106.699219 265.683594 106.558594 265.890625 106.472656 266.09375 L 109.636719 266.09375 L 109.636719 266.746094 Z M 114.730469 263.714844 C 114.730469 264.730469 114.546875 265.503906 114.191406 266.035156 C 113.839844 266.566406 113.3125 266.828125 112.621094 266.828125 C 111.921875 266.828125 111.402344 266.570312 111.050781 266.046875 C 110.699219 265.515625 110.523438 264.738281 110.523438 263.714844 C 110.523438 262.675781 110.6875 261.898438 111.027344 261.382812 C 111.367188 260.867188 111.90625 260.609375 112.644531 260.609375 C 113.351562 260.609375 113.875 260.871094 114.214844 261.394531 C 114.554688 261.917969 114.730469 262.691406 114.730469 263.714844 Z M 113.945312 263.714844 C 113.945312 262.847656 113.839844 262.21875 113.640625 261.828125 C 113.441406 261.429688 113.113281 261.230469 112.644531 261.230469 C 112.164062 261.230469 111.824219 261.425781 111.613281 261.816406 C 111.40625 262.199219 111.308594 262.832031 111.308594 263.714844 C 111.308594 264.574219 111.414062 265.203125 111.625 265.601562 C 111.835938 266 112.167969 266.199219 112.632812 266.199219 C 113.082031 266.199219 113.417969 265.996094 113.628906 265.589844 C 113.839844 265.183594 113.945312 264.558594 113.945312 263.714844 Z M 168.886719 265.074219 C 168.886719 265.636719 168.707031 266.070312 168.347656 266.375 C 167.996094 266.675781 167.488281 266.828125 166.824219 266.828125 C 166.214844 266.828125 165.726562 266.695312 165.359375 266.421875 C 164.992188 266.148438 164.777344 265.738281 164.714844 265.191406 L 165.511719 265.121094 C 165.613281 265.839844 166.050781 266.199219 166.824219 266.199219 C 167.214844 266.199219 167.519531 266.105469 167.738281 265.917969 C 167.964844 265.722656 168.078125 265.433594 168.078125 265.050781 C 168.078125 264.722656 167.949219 264.46875 167.691406 264.289062 C 167.441406 264.101562 167.078125 264.007812 166.601562 264.007812 L 166.167969 264.007812 L 166.167969 263.328125 L 166.578125 263.328125 C 167.007812 263.328125 167.339844 263.238281 167.574219 263.058594 C 167.808594 262.871094 167.925781 262.613281 167.925781 262.285156 C 167.925781 261.964844 167.828125 261.710938 167.632812 261.523438 C 167.445312 261.335938 167.164062 261.242188 166.789062 261.242188 C 166.445312 261.242188 166.167969 261.332031 165.957031 261.511719 C 165.746094 261.683594 165.625 261.925781 165.59375 262.238281 L 164.808594 262.179688 C 164.871094 261.6875 165.078125 261.304688 165.429688 261.03125 C 165.78125 260.75 166.234375 260.609375 166.789062 260.609375 C 167.398438 260.609375 167.871094 260.75 168.207031 261.03125 C 168.542969 261.3125 168.710938 261.703125 168.710938 262.203125 C 168.710938 262.59375 168.601562 262.910156 168.382812 263.152344 C 168.171875 263.394531 167.859375 263.558594 167.445312 263.644531 L 167.445312 263.65625 C 167.898438 263.710938 168.25 263.867188 168.5 264.125 C 168.757812 264.375 168.886719 264.691406 168.886719 265.074219 Z M 173.921875 263.714844 C 173.921875 264.730469 173.738281 265.503906 173.382812 266.035156 C 173.03125 266.566406 172.503906 266.828125 171.8125 266.828125 C 171.113281 266.828125 170.59375 266.570312 170.242188 266.046875 C 169.890625 265.515625 169.714844 264.738281 169.714844 263.714844 C 169.714844 262.675781 169.878906 261.898438 170.21875 261.382812 C 170.5625 260.867188 171.097656 260.609375 171.835938 260.609375 C 172.542969 260.609375 173.066406 260.871094 173.40625 261.394531 C 173.75 261.917969 173.921875 262.691406 173.921875 263.714844 Z M 173.136719 263.714844 C 173.136719 262.847656 173.03125 262.21875 172.832031 261.828125 C 172.632812 261.429688 172.304688 261.230469 171.835938 261.230469 C 171.355469 261.230469 171.015625 261.425781 170.804688 261.816406 C 170.597656 262.199219 170.5 262.832031 170.5 263.714844 C 170.5 264.574219 170.605469 265.203125 170.816406 265.601562 C 171.027344 266 171.359375 266.199219 171.824219 266.199219 C 172.273438 266.199219 172.609375 265.996094 172.820312 265.589844 C 173.03125 265.183594 173.136719 264.558594 173.136719 263.714844 Z M 227.355469 265.378906 L 227.355469 266.746094 L 226.628906 266.746094 L 226.628906 265.378906 L 223.769531 265.378906 L 223.769531 264.78125 L 226.546875 260.691406 L 227.355469 260.691406 L 227.355469 264.769531 L 228.210938 264.769531 L 228.210938 265.378906 Z M 226.628906 261.570312 C 226.621094 261.585938 226.578125 261.660156 226.5 261.792969 C 226.429688 261.925781 226.375 262.019531 226.335938 262.074219 L 224.789062 264.359375 L 224.554688 264.6875 L 224.484375 264.765625 L 226.628906 264.765625 Z M 233.113281 263.714844 C 233.113281 264.730469 232.933594 265.503906 232.574219 266.035156 C 232.222656 266.566406 231.699219 266.828125 231.003906 266.828125 C 230.308594 266.828125 229.785156 266.570312 229.433594 266.046875 C 229.082031 265.515625 228.90625 264.738281 228.90625 263.714844 C 228.90625 262.675781 229.074219 261.898438 229.410156 261.382812 C 229.753906 260.867188 230.292969 260.609375 231.027344 260.609375 C 231.738281 260.609375 232.261719 260.871094 232.597656 261.394531 C 232.941406 261.917969 233.113281 262.691406 233.113281 263.714844 Z M 232.328125 263.714844 C 232.328125 262.847656 232.226562 262.21875 232.023438 261.828125 C 231.828125 261.429688 231.496094 261.230469 231.027344 261.230469 C 230.550781 261.230469 230.207031 261.425781 229.996094 261.816406 C 229.792969 262.199219 229.691406 262.832031 229.691406 263.714844 C 229.691406 264.574219 229.796875 265.203125 230.007812 265.601562 C 230.21875 266 230.554688 266.199219 231.015625 266.199219 C 231.46875 266.199219 231.800781 265.996094 232.011719 265.589844 C 232.222656 265.183594 232.328125 264.558594 232.328125 263.714844 Z M 287.289062 264.78125 C 287.289062 265.414062 287.09375 265.914062 286.714844 266.28125 C 286.339844 266.648438 285.8125 266.828125 285.144531 266.828125 C 284.582031 266.828125 284.125 266.710938 283.773438 266.46875 C 283.425781 266.21875 283.210938 265.859375 283.117188 265.390625 L 283.902344 265.308594 C 284.066406 265.902344 284.480469 266.199219 285.15625 266.199219 C 285.566406 266.199219 285.894531 266.074219 286.128906 265.824219 C 286.367188 265.574219 286.492188 265.230469 286.492188 264.792969 C 286.492188 264.410156 286.367188 264.101562 286.128906 263.867188 C 285.894531 263.632812 285.578125 263.515625 285.179688 263.515625 C 284.96875 263.515625 284.769531 263.550781 284.59375 263.621094 C 284.410156 263.683594 284.230469 263.792969 284.054688 263.949219 L 283.292969 263.949219 L 283.492188 260.691406 L 286.9375 260.691406 L 286.9375 261.347656 L 284.195312 261.347656 L 284.089844 263.269531 C 284.417969 263.011719 284.828125 262.882812 285.332031 262.882812 C 285.929688 262.882812 286.410156 263.058594 286.761719 263.410156 C 287.113281 263.761719 287.289062 264.21875 287.289062 264.78125 Z M 292.308594 263.714844 C 292.308594 264.730469 292.128906 265.503906 291.769531 266.035156 C 291.417969 266.566406 290.894531 266.828125 290.199219 266.828125 C 289.503906 266.828125 288.980469 266.570312 288.628906 266.046875 C 288.277344 265.515625 288.101562 264.738281 288.101562 263.714844 C 288.101562 262.675781 288.269531 261.898438 288.605469 261.382812 C 288.949219 260.867188 289.488281 260.609375 290.222656 260.609375 C 290.933594 260.609375 291.457031 260.871094 291.792969 261.394531 C 292.136719 261.917969 292.308594 262.691406 292.308594 263.714844 Z M 291.523438 263.714844 C 291.523438 262.847656 291.421875 262.21875 291.21875 261.828125 C 291.023438 261.429688 290.691406 261.230469 290.222656 261.230469 C 289.746094 261.230469 289.402344 261.425781 289.191406 261.816406 C 288.988281 262.199219 288.886719 262.832031 288.886719 263.714844 C 288.886719 264.574219 288.992188 265.203125 289.203125 265.601562 C 289.414062 266 289.75 266.199219 290.210938 266.199219 C 290.664062 266.199219 290.996094 265.996094 291.207031 265.589844 C 291.417969 265.183594 291.523438 264.558594 291.523438 263.714844 Z M 291.523438 263.714844 "/>
<path fill-rule="nonzero" fill="rgb(0%, 0%, 0%)" fill-opacity="1" d="M 148.804688 279.476562 L 148.804688 275.785156 C 148.804688 275.40625 148.761719 275.105469 148.6875 274.894531 C 148.617188 274.683594 148.5 274.53125 148.335938 274.4375 C 148.171875 274.34375 147.929688 274.296875 147.609375 274.296875 C 147.140625 274.296875 146.769531 274.460938 146.507812 274.777344 C 146.242188 275.101562 146.109375 275.546875 146.109375 276.113281 L 146.109375 279.476562 L 145.136719 279.476562 L 145.136719 274.90625 C 145.136719 274.226562 145.125 273.816406 145.101562 273.664062 L 146.015625 273.664062 C 146.023438 273.683594 146.027344 273.730469 146.027344 273.804688 C 146.035156 273.886719 146.039062 273.980469 146.039062 274.085938 C 146.046875 274.191406 146.054688 274.378906 146.0625 274.660156 L 146.074219 274.660156 C 146.300781 274.257812 146.558594 273.96875 146.847656 273.804688 C 147.144531 273.640625 147.507812 273.558594 147.9375 273.558594 C 148.578125 273.558594 149.042969 273.722656 149.332031 274.039062 C 149.628906 274.355469 149.777344 274.871094 149.777344 275.597656 L 149.777344 279.476562 Z M 150.203125 281.667969 L 150.203125 280.964844 L 156.613281 280.964844 L 156.613281 281.667969 Z M 162.035156 276.546875 C 162.035156 278.574219 161.320312 279.582031 159.890625 279.582031 C 159 279.582031 158.394531 279.25 158.085938 278.574219 L 158.0625 278.574219 C 158.078125 278.609375 158.085938 278.914062 158.085938 279.488281 L 158.085938 281.761719 L 157.113281 281.761719 L 157.113281 274.847656 C 157.113281 274.257812 157.105469 273.863281 157.089844 273.664062 L 158.015625 273.664062 C 158.023438 273.683594 158.03125 273.734375 158.039062 273.816406 C 158.046875 273.90625 158.054688 274.039062 158.0625 274.226562 C 158.070312 274.410156 158.074219 274.53125 158.074219 274.601562 L 158.097656 274.601562 C 158.269531 274.246094 158.496094 273.980469 158.777344 273.816406 C 159.058594 273.648438 159.429688 273.558594 159.890625 273.558594 C 160.609375 273.558594 161.144531 273.804688 161.496094 274.285156 C 161.855469 274.765625 162.035156 275.515625 162.035156 276.546875 Z M 161.015625 276.558594 C 161.015625 275.757812 160.902344 275.183594 160.6875 274.835938 C 160.46875 274.484375 160.117188 274.308594 159.644531 274.308594 C 159.261719 274.308594 158.957031 274.390625 158.742188 274.554688 C 158.53125 274.714844 158.367188 274.964844 158.25 275.304688 C 158.136719 275.652344 158.085938 276.097656 158.085938 276.640625 C 158.085938 277.410156 158.207031 277.972656 158.449219 278.328125 C 158.6875 278.691406 159.085938 278.867188 159.632812 278.867188 C 160.117188 278.867188 160.46875 278.691406 160.6875 278.339844 C 160.902344 277.988281 161.015625 277.398438 161.015625 276.558594 Z M 164.597656 279.582031 C 164.011719 279.582031 163.570312 279.429688 163.273438 279.125 C 162.984375 278.816406 162.839844 278.394531 162.839844 277.859375 C 162.839844 277.261719 163.035156 276.800781 163.425781 276.476562 C 163.824219 276.148438 164.464844 275.972656 165.347656 275.949219 L 166.648438 275.925781 L 166.648438 275.609375 C 166.648438 275.140625 166.546875 274.808594 166.34375 274.601562 C 166.148438 274.402344 165.835938 274.296875 165.40625 274.296875 C 164.976562 274.296875 164.660156 274.375 164.457031 274.519531 C 164.261719 274.660156 164.144531 274.894531 164.105469 275.210938 L 163.097656 275.128906 C 163.261719 274.085938 164.039062 273.558594 165.429688 273.558594 C 166.15625 273.558594 166.703125 273.730469 167.070312 274.0625 C 167.445312 274.390625 167.632812 274.878906 167.632812 275.515625 L 167.632812 278.011719 C 167.632812 278.304688 167.667969 278.523438 167.738281 278.667969 C 167.816406 278.808594 167.960938 278.878906 168.171875 278.878906 C 168.265625 278.878906 168.371094 278.867188 168.488281 278.84375 L 168.488281 279.441406 C 168.246094 279.503906 167.996094 279.535156 167.738281 279.535156 C 167.386719 279.535156 167.128906 279.441406 166.964844 279.253906 C 166.800781 279.0625 166.707031 278.761719 166.683594 278.363281 L 166.648438 278.363281 C 166.40625 278.808594 166.121094 279.125 165.792969 279.3125 C 165.464844 279.492188 165.066406 279.582031 164.597656 279.582031 Z M 164.820312 278.855469 C 165.171875 278.855469 165.484375 278.78125 165.757812 278.621094 C 166.039062 278.457031 166.257812 278.234375 166.414062 277.953125 C 166.570312 277.671875 166.648438 277.386719 166.648438 277.085938 L 166.648438 276.605469 L 165.59375 276.628906 C 165.140625 276.640625 164.796875 276.6875 164.5625 276.769531 C 164.328125 276.859375 164.148438 276.992188 164.023438 277.167969 C 163.898438 277.351562 163.835938 277.585938 163.835938 277.871094 C 163.835938 278.1875 163.917969 278.429688 164.082031 278.597656 C 164.253906 278.773438 164.5 278.855469 164.820312 278.855469 Z M 171.34375 279.429688 C 171.019531 279.515625 170.699219 279.558594 170.371094 279.558594 C 169.597656 279.558594 169.210938 279.125 169.210938 278.246094 L 169.210938 274.367188 L 168.53125 274.367188 L 168.53125 273.664062 L 169.246094 273.664062 L 169.527344 272.363281 L 170.171875 272.363281 L 170.171875 273.664062 L 171.25 273.664062 L 171.25 274.367188 L 170.171875 274.367188 L 170.171875 278.035156 C 170.171875 278.316406 170.210938 278.515625 170.300781 278.632812 C 170.394531 278.746094 170.550781 278.796875 170.78125 278.796875 C 170.910156 278.796875 171.097656 278.773438 171.34375 278.714844 Z M 172.09375 272.421875 L 172.09375 271.507812 L 173.054688 271.507812 L 173.054688 272.421875 Z M 172.09375 279.476562 L 172.09375 273.664062 L 173.054688 273.664062 L 173.054688 279.476562 Z M 174.847656 276.769531 C 174.847656 277.445312 174.984375 277.960938 175.257812 278.316406 C 175.53125 278.679688 175.933594 278.855469 176.464844 278.855469 C 176.886719 278.855469 177.222656 278.773438 177.472656 278.609375 C 177.722656 278.441406 177.894531 278.222656 177.988281 277.964844 L 178.832031 278.210938 C 178.488281 279.125 177.699219 279.582031 176.464844 279.582031 C 175.605469 279.582031 174.949219 279.332031 174.496094 278.820312 C 174.050781 278.304688 173.828125 277.542969 173.828125 276.535156 C 173.828125 275.574219 174.050781 274.84375 174.496094 274.332031 C 174.949219 273.816406 175.59375 273.558594 176.429688 273.558594 C 178.140625 273.558594 178.996094 274.589844 178.996094 276.640625 L 178.996094 276.769531 Z M 177.988281 276.03125 C 177.933594 275.421875 177.777344 274.976562 177.519531 274.695312 C 177.261719 274.414062 176.890625 274.273438 176.40625 274.273438 C 175.9375 274.273438 175.566406 274.433594 175.292969 274.742188 C 175.019531 275.058594 174.871094 275.488281 174.847656 276.03125 Z M 183.785156 279.476562 L 183.785156 275.785156 C 183.785156 275.40625 183.742188 275.105469 183.667969 274.894531 C 183.597656 274.683594 183.480469 274.53125 183.316406 274.4375 C 183.152344 274.34375 182.910156 274.296875 182.589844 274.296875 C 182.121094 274.296875 181.75 274.460938 181.488281 274.777344 C 181.222656 275.101562 181.089844 275.546875 181.089844 276.113281 L 181.089844 279.476562 L 180.117188 279.476562 L 180.117188 274.90625 C 180.117188 274.226562 180.105469 273.816406 180.082031 273.664062 L 180.996094 273.664062 C 181.003906 273.683594 181.007812 273.730469 181.007812 273.804688 C 181.015625 273.886719 181.019531 273.980469 181.019531 274.085938 C 181.027344 274.191406 181.035156 274.378906 181.042969 274.660156 L 181.054688 274.660156 C 181.28125 274.257812 181.539062 273.96875 181.828125 273.804688 C 182.125 273.640625 182.488281 273.558594 182.917969 273.558594 C 183.558594 273.558594 184.023438 273.722656 184.3125 274.039062 C 184.609375 274.355469 184.757812 274.871094 184.757812 275.597656 L 184.757812 279.476562 Z M 188.324219 279.429688 C 188.003906 279.515625 187.679688 279.558594 187.351562 279.558594 C 186.578125 279.558594 186.191406 279.125 186.191406 278.246094 L 186.191406 274.367188 L 185.511719 274.367188 L 185.511719 273.664062 L 186.226562 273.664062 L 186.507812 272.363281 L 187.152344 272.363281 L 187.152344 273.664062 L 188.230469 273.664062 L 188.230469 274.367188 L 187.152344 274.367188 L 187.152344 278.035156 C 187.152344 278.316406 187.195312 278.515625 187.28125 278.632812 C 187.375 278.746094 187.535156 278.796875 187.761719 278.796875 C 187.894531 278.796875 188.082031 278.773438 188.324219 278.714844 Z M 193.449219 277.871094 C 193.449219 278.421875 193.242188 278.84375 192.828125 279.136719 C 192.414062 279.4375 191.832031 279.582031 191.082031 279.582031 C 190.363281 279.582031 189.804688 279.464844 189.40625 279.230469 C 189.015625 278.992188 188.761719 278.621094 188.644531 278.117188 L 189.5 277.941406 C 189.585938 278.257812 189.757812 278.488281 190.015625 278.632812 C 190.273438 278.773438 190.628906 278.84375 191.082031 278.84375 C 191.574219 278.84375 191.933594 278.773438 192.160156 278.621094 C 192.386719 278.476562 192.5 278.246094 192.5 277.941406 C 192.5 277.71875 192.421875 277.53125 192.265625 277.390625 C 192.109375 277.246094 191.855469 277.121094 191.503906 277.027344 L 190.8125 276.851562 C 190.257812 276.707031 189.863281 276.566406 189.628906 276.429688 C 189.394531 276.289062 189.210938 276.125 189.078125 275.925781 C 188.945312 275.734375 188.878906 275.492188 188.878906 275.199219 C 188.878906 274.671875 189.066406 274.269531 189.441406 273.992188 C 189.824219 273.710938 190.375 273.570312 191.09375 273.570312 C 191.734375 273.570312 192.242188 273.6875 192.617188 273.910156 C 193 274.140625 193.242188 274.503906 193.34375 275 L 192.476562 275.105469 C 192.421875 274.847656 192.277344 274.648438 192.042969 274.507812 C 191.808594 274.367188 191.492188 274.296875 191.09375 274.296875 C 190.65625 274.296875 190.332031 274.367188 190.121094 274.496094 C 189.917969 274.632812 189.816406 274.835938 189.816406 275.105469 C 189.816406 275.269531 189.859375 275.410156 189.945312 275.515625 C 190.03125 275.621094 190.15625 275.710938 190.320312 275.785156 C 190.492188 275.867188 190.847656 275.972656 191.386719 276.101562 C 191.902344 276.230469 192.273438 276.347656 192.5 276.453125 C 192.726562 276.566406 192.902344 276.6875 193.027344 276.816406 C 193.160156 276.953125 193.261719 277.105469 193.332031 277.273438 C 193.410156 277.449219 193.449219 277.648438 193.449219 277.871094 Z M 193.449219 277.871094 "/>
<path fill-rule="nonzero" fill="rgb(0%, 0%, 0%)" fill-opacity="1" d="M 11.304688 202.902344 C 11.980469 202.902344 12.5 203.148438 12.875 203.640625 C 13.25 204.132812 13.4375 204.816406 13.4375 205.691406 L 13.4375 208.761719 L 5.867188 208.761719 L 5.867188 206.007812 C 5.867188 204.234375 6.484375 203.347656 7.707031 203.347656 C 8.152344 203.347656 8.527344 203.472656 8.832031 203.722656 C 9.136719 203.972656 9.34375 204.328125 9.441406 204.789062 C 9.523438 204.1875 9.722656 203.722656 10.050781 203.394531 C 10.378906 203.066406 10.796875 202.902344 11.304688 202.902344 Z M 7.824219 204.378906 C 7.421875 204.378906 7.128906 204.519531 6.957031 204.800781 C 6.777344 205.074219 6.6875 205.476562 6.6875 206.007812 L 6.6875 207.730469 L 9.089844 207.730469 L 9.089844 206.007812 C 9.089844 205.460938 8.992188 205.054688 8.785156 204.789062 C 8.574219 204.515625 8.253906 204.378906 7.824219 204.378906 Z M 11.222656 203.945312 C 10.332031 203.945312 9.886719 204.570312 9.886719 205.820312 L 9.886719 207.730469 L 12.617188 207.730469 L 12.617188 205.738281 C 12.617188 205.113281 12.5 204.660156 12.265625 204.378906 C 12.03125 204.089844 11.6875 203.945312 11.222656 203.945312 Z M 6.382812 201.941406 L 5.46875 201.941406 L 5.46875 200.980469 L 6.382812 200.980469 Z M 13.4375 201.941406 L 7.625 201.941406 L 7.625 200.980469 L 13.4375 200.980469 Z M 13.542969 198.449219 C 13.542969 199.035156 13.390625 199.480469 13.085938 199.773438 C 12.777344 200.066406 12.355469 200.207031 11.820312 200.207031 C 11.21875 200.207031 10.761719 200.015625 10.4375 199.621094 C 10.109375 199.222656 9.933594 198.585938 9.910156 197.699219 L 9.886719 196.398438 L 9.570312 196.398438 C 9.101562 196.398438 8.769531 196.503906 8.5625 196.703125 C 8.363281 196.902344 8.257812 197.214844 8.257812 197.640625 C 8.257812 198.074219 8.335938 198.390625 8.480469 198.589844 C 8.621094 198.789062 8.855469 198.90625 9.171875 198.941406 L 9.089844 199.949219 C 8.046875 199.785156 7.519531 199.011719 7.519531 197.617188 C 7.519531 196.890625 7.691406 196.347656 8.023438 195.976562 C 8.351562 195.601562 8.839844 195.414062 9.476562 195.414062 L 11.972656 195.414062 C 12.265625 195.414062 12.484375 195.378906 12.628906 195.308594 C 12.769531 195.234375 12.839844 195.085938 12.839844 194.875 C 12.839844 194.78125 12.828125 194.675781 12.804688 194.558594 L 13.402344 194.558594 C 13.464844 194.804688 13.496094 195.050781 13.496094 195.308594 C 13.496094 195.660156 13.402344 195.917969 13.214844 196.082031 C 13.023438 196.246094 12.722656 196.339844 12.324219 196.363281 L 12.324219 196.402344 C 12.769531 196.644531 13.085938 196.929688 13.273438 197.257812 C 13.453125 197.582031 13.542969 197.980469 13.542969 198.449219 Z M 12.816406 198.226562 C 12.816406 197.875 12.742188 197.566406 12.582031 197.289062 C 12.417969 197.007812 12.195312 196.792969 11.914062 196.632812 C 11.632812 196.480469 11.347656 196.398438 11.046875 196.398438 L 10.566406 196.398438 L 10.589844 197.453125 C 10.601562 197.910156 10.644531 198.25 10.730469 198.484375 C 10.820312 198.71875 10.949219 198.902344 11.128906 199.023438 C 11.3125 199.152344 11.546875 199.210938 11.832031 199.210938 C 12.144531 199.210938 12.390625 199.128906 12.558594 198.964844 C 12.730469 198.796875 12.816406 198.550781 12.816406 198.226562 Z M 11.832031 189.570312 C 12.378906 189.570312 12.800781 189.777344 13.097656 190.191406 C 13.398438 190.609375 13.542969 191.1875 13.542969 191.9375 C 13.542969 192.660156 13.425781 193.214844 13.191406 193.613281 C 12.953125 194.007812 12.578125 194.257812 12.078125 194.375 L 11.902344 193.519531 C 12.214844 193.433594 12.449219 193.261719 12.59375 193.003906 C 12.734375 192.746094 12.804688 192.390625 12.804688 191.9375 C 12.804688 191.445312 12.730469 191.089844 12.582031 190.859375 C 12.4375 190.632812 12.207031 190.519531 11.902344 190.519531 C 11.675781 190.519531 11.492188 190.597656 11.351562 190.753906 C 11.207031 190.914062 11.082031 191.164062 10.988281 191.515625 L 10.8125 192.207031 C 10.667969 192.765625 10.527344 193.15625 10.390625 193.390625 C 10.25 193.625 10.082031 193.808594 9.886719 193.941406 C 9.695312 194.078125 9.449219 194.140625 9.160156 194.140625 C 8.628906 194.140625 8.230469 193.953125 7.953125 193.578125 C 7.671875 193.199219 7.53125 192.648438 7.53125 191.925781 C 7.53125 191.289062 7.644531 190.777344 7.871094 190.402344 C 8.101562 190.023438 8.464844 189.777344 8.960938 189.675781 L 9.066406 190.542969 C 8.808594 190.597656 8.609375 190.742188 8.46875 190.976562 C 8.328125 191.210938 8.257812 191.527344 8.257812 191.925781 C 8.257812 192.367188 8.328125 192.6875 8.457031 192.898438 C 8.59375 193.105469 8.792969 193.203125 9.066406 193.203125 C 9.230469 193.203125 9.367188 193.164062 9.476562 193.074219 C 9.578125 192.988281 9.671875 192.863281 9.746094 192.699219 C 9.828125 192.53125 9.929688 192.171875 10.0625 191.632812 C 10.1875 191.117188 10.304688 190.75 10.414062 190.519531 C 10.527344 190.292969 10.644531 190.117188 10.777344 189.992188 C 10.914062 189.859375 11.066406 189.757812 11.234375 189.6875 C 11.40625 189.613281 11.605469 189.570312 11.832031 189.570312 Z M 10.519531 180.023438 C 11.546875 180.023438 12.308594 180.25 12.804688 180.703125 C 13.296875 181.148438 13.542969 181.796875 13.542969 182.648438 C 13.542969 183.5 13.285156 184.144531 12.769531 184.582031 C 12.253906 185.011719 11.503906 185.226562 10.519531 185.226562 C 8.523438 185.226562 7.519531 184.355469 7.519531 182.613281 C 7.519531 181.722656 7.765625 181.070312 8.257812 180.65625 C 8.746094 180.234375 9.496094 180.023438 10.519531 180.023438 Z M 10.519531 181.042969 C 9.722656 181.042969 9.144531 181.164062 8.785156 181.40625 C 8.417969 181.640625 8.234375 182.039062 8.234375 182.601562 C 8.234375 183.164062 8.421875 183.574219 8.796875 183.832031 C 9.167969 184.082031 9.742188 184.207031 10.519531 184.207031 C 11.292969 184.207031 11.875 184.082031 12.253906 183.832031 C 12.636719 183.582031 12.828125 183.191406 12.828125 182.660156 C 12.828125 182.082031 12.648438 181.667969 12.277344 181.417969 C 11.902344 181.167969 11.316406 181.042969 10.519531 181.042969 Z M 8.328125 177.742188 L 13.4375 177.742188 L 13.4375 178.714844 L 8.328125 178.714844 L 8.328125 179.535156 L 7.625 179.535156 L 7.625 178.714844 L 6.96875 178.714844 C 6.4375 178.714844 6.0625 178.597656 5.832031 178.363281 C 5.597656 178.128906 5.480469 177.777344 5.480469 177.296875 C 5.480469 177.035156 5.503906 176.804688 5.539062 176.617188 L 6.277344 176.617188 C 6.25 176.777344 6.230469 176.917969 6.230469 177.039062 C 6.230469 177.292969 6.296875 177.472656 6.417969 177.578125 C 6.546875 177.691406 6.769531 177.742188 7.097656 177.742188 L 7.625 177.742188 L 7.625 176.617188 L 8.328125 176.617188 Z M 10.507812 172.226562 C 11.28125 172.226562 11.855469 172.105469 12.230469 171.863281 C 12.601562 171.625 12.78125 171.253906 12.78125 170.761719 C 12.78125 170.417969 12.6875 170.136719 12.5 169.90625 C 12.3125 169.671875 12.027344 169.527344 11.644531 169.472656 L 11.703125 168.488281 C 12.265625 168.566406 12.71875 168.8125 13.050781 169.214844 C 13.378906 169.613281 13.542969 170.117188 13.542969 170.726562 C 13.542969 171.546875 13.292969 172.175781 12.78125 172.601562 C 12.265625 173.023438 11.511719 173.234375 10.519531 173.234375 C 9.542969 173.234375 8.804688 173.019531 8.292969 172.589844 C 7.777344 172.164062 7.519531 171.542969 7.519531 170.738281 C 7.519531 170.148438 7.679688 169.65625 7.988281 169.261719 C 8.292969 168.871094 8.714844 168.625 9.253906 168.523438 L 9.324219 169.519531 C 9.003906 169.566406 8.75 169.695312 8.5625 169.90625 C 8.371094 170.113281 8.269531 170.398438 8.269531 170.773438 C 8.269531 171.285156 8.441406 171.652344 8.785156 171.886719 C 9.121094 172.117188 9.695312 172.226562 10.507812 172.226562 Z M 10.519531 162.050781 C 11.546875 162.050781 12.308594 162.277344 12.804688 162.730469 C 13.296875 163.175781 13.542969 163.824219 13.542969 164.675781 C 13.542969 165.527344 13.285156 166.171875 12.769531 166.609375 C 12.253906 167.039062 11.503906 167.253906 10.519531 167.253906 C 8.523438 167.253906 7.519531 166.382812 7.519531 164.640625 C 7.519531 163.75 7.765625 163.097656 8.257812 162.683594 C 8.746094 162.261719 9.5 162.050781 10.519531 162.050781 Z M 10.519531 163.070312 C 9.722656 163.070312 9.148438 163.191406 8.785156 163.433594 C 8.421875 163.667969 8.234375 164.066406 8.234375 164.628906 C 8.234375 165.191406 8.421875 165.601562 8.796875 165.859375 C 9.167969 166.109375 9.742188 166.234375 10.519531 166.234375 C 11.292969 166.234375 11.875 166.109375 12.253906 165.859375 C 12.640625 165.609375 12.828125 165.21875 12.828125 164.6875 C 12.828125 164.109375 12.648438 163.695312 12.277344 163.445312 C 11.902344 163.195312 11.316406 163.070312 10.519531 163.070312 Z M 10.730469 160.214844 C 11.40625 160.214844 11.921875 160.082031 12.277344 159.804688 C 12.640625 159.53125 12.816406 159.132812 12.816406 158.597656 C 12.816406 158.175781 12.734375 157.84375 12.570312 157.589844 C 12.402344 157.339844 12.183594 157.167969 11.925781 157.074219 L 12.171875 156.230469 C 13.085938 156.578125 13.542969 157.363281 13.542969 158.597656 C 13.542969 159.460938 13.292969 160.117188 12.78125 160.566406 C 12.265625 161.011719 11.503906 161.234375 10.496094 161.234375 C 9.535156 161.234375 8.804688 161.011719 8.292969 160.566406 C 7.777344 160.117188 7.519531 159.472656 7.519531 158.632812 C 7.519531 156.921875 8.546875 156.066406 10.601562 156.066406 L 10.730469 156.066406 Z M 9.992188 157.074219 C 9.382812 157.128906 8.9375 157.285156 8.65625 157.542969 C 8.375 157.800781 8.234375 158.171875 8.234375 158.65625 C 8.234375 159.125 8.394531 159.496094 8.703125 159.769531 C 9.019531 160.046875 9.449219 160.191406 9.992188 160.214844 Z M 8.328125 153.765625 L 13.4375 153.765625 L 13.4375 154.738281 L 8.328125 154.738281 L 8.328125 155.558594 L 7.625 155.558594 L 7.625 154.738281 L 6.96875 154.738281 C 6.4375 154.738281 6.0625 154.621094 5.832031 154.386719 C 5.597656 154.152344 5.480469 153.796875 5.480469 153.320312 C 5.480469 153.054688 5.503906 152.828125 5.539062 152.640625 L 6.277344 152.640625 C 6.25 152.796875 6.230469 152.9375 6.230469 153.0625 C 6.230469 153.3125 6.296875 153.492188 6.417969 153.601562 C 6.546875 153.710938 6.769531 153.765625 7.097656 153.765625 L 7.625 153.765625 L 7.625 152.640625 L 8.328125 152.640625 Z M 8.328125 150.769531 L 13.4375 150.769531 L 13.4375 151.742188 L 8.328125 151.742188 L 8.328125 152.5625 L 7.625 152.5625 L 7.625 151.742188 L 6.96875 151.742188 C 6.4375 151.742188 6.0625 151.625 5.832031 151.390625 C 5.597656 151.15625 5.480469 150.800781 5.480469 150.324219 C 5.480469 150.0625 5.503906 149.832031 5.539062 149.644531 L 6.277344 149.644531 C 6.25 149.804688 6.230469 149.945312 6.230469 150.066406 C 6.230469 150.320312 6.296875 150.496094 6.417969 150.605469 C 6.546875 150.71875 6.769531 150.769531 7.097656 150.769531 L 7.625 150.769531 L 7.625 149.644531 L 8.328125 149.644531 Z M 6.382812 148.984375 L 5.46875 148.984375 L 5.46875 148.023438 L 6.382812 148.023438 Z M 13.4375 148.984375 L 7.625 148.984375 L 7.625 148.023438 L 13.4375 148.023438 Z M 10.507812 146.257812 C 11.28125 146.257812 11.855469 146.136719 12.230469 145.894531 C 12.601562 145.65625 12.78125 145.285156 12.78125 144.792969 C 12.78125 144.449219 12.6875 144.167969 12.5 143.9375 C 12.3125 143.703125 12.027344 143.558594 11.644531 143.503906 L 11.703125 142.519531 C 12.265625 142.597656 12.71875 142.84375 13.050781 143.246094 C 13.378906 143.644531 13.542969 144.148438 13.542969 144.757812 C 13.542969 145.578125 13.292969 146.207031 12.78125 146.632812 C 12.265625 147.054688 11.511719 147.265625 10.519531 147.265625 C 9.542969 147.265625 8.804688 147.050781 8.292969 146.621094 C 7.777344 146.195312 7.519531 145.574219 7.519531 144.769531 C 7.519531 144.179688 7.679688 143.6875 7.988281 143.292969 C 8.292969 142.902344 8.714844 142.65625 9.253906 142.554688 L 9.324219 143.550781 C 9.003906 143.597656 8.75 143.726562 8.5625 143.9375 C 8.371094 144.144531 8.269531 144.429688 8.269531 144.804688 C 8.269531 145.316406 8.441406 145.683594 8.785156 145.917969 C 9.121094 146.148438 9.695312 146.257812 10.507812 146.257812 Z M 6.382812 140.992188 L 5.46875 140.992188 L 5.46875 140.03125 L 6.382812 140.03125 Z M 13.4375 140.992188 L 7.625 140.992188 L 7.625 140.03125 L 13.4375 140.03125 Z M 10.730469 138.25 C 11.40625 138.25 11.921875 138.113281 12.277344 137.839844 C 12.636719 137.566406 12.816406 137.164062 12.816406 136.632812 C 12.816406 136.210938 12.734375 135.875 12.570312 135.625 C 12.402344 135.375 12.183594 135.203125 11.925781 135.109375 L 12.171875 134.265625 C 13.085938 134.609375 13.542969 135.398438 13.542969 136.632812 C 13.542969 137.492188 13.292969 138.148438 12.78125 138.601562 C 12.265625 139.046875 11.503906 139.269531 10.496094 139.269531 C 9.535156 139.269531 8.804688 139.046875 8.292969 138.601562 C 7.777344 138.148438 7.519531 137.503906 7.519531 136.667969 C 7.519531 134.957031 8.546875 134.101562 10.601562 134.101562 L 10.730469 134.101562 Z M 9.992188 135.109375 C 9.382812 135.164062 8.9375 135.320312 8.65625 135.578125 C 8.375 135.835938 8.234375 136.207031 8.234375 136.691406 C 8.234375 137.160156 8.394531 137.53125 8.703125 137.804688 C 9.015625 138.078125 9.449219 138.226562 9.992188 138.25 Z M 13.4375 129.300781 L 9.746094 129.300781 C 9.367188 129.300781 9.066406 129.34375 8.855469 129.417969 C 8.644531 129.488281 8.492188 129.605469 8.398438 129.769531 C 8.304688 129.933594 8.257812 130.175781 8.257812 130.496094 C 8.257812 130.964844 8.417969 131.335938 8.738281 131.597656 C 9.0625 131.863281 9.507812 131.996094 10.074219 131.996094 L 13.4375 131.996094 L 13.4375 132.96875 L 8.867188 132.96875 C 8.1875 132.96875 7.773438 132.980469 7.625 133.003906 L 7.625 132.089844 C 7.644531 132.085938 7.691406 132.078125 7.765625 132.078125 C 7.847656 132.074219 7.9375 132.066406 8.046875 132.066406 C 8.148438 132.0625 8.339844 132.050781 8.621094 132.042969 L 8.621094 132.03125 C 8.21875 131.804688 7.929688 131.546875 7.765625 131.257812 C 7.601562 130.960938 7.519531 130.597656 7.519531 130.167969 C 7.519531 129.53125 7.679688 129.0625 8 128.773438 C 8.3125 128.476562 8.832031 128.328125 9.558594 128.328125 L 13.4375 128.328125 Z M 13.390625 124.761719 C 13.476562 125.082031 13.519531 125.40625 13.519531 125.734375 C 13.519531 126.507812 13.082031 126.894531 12.207031 126.894531 L 8.328125 126.894531 L 8.328125 127.574219 L 7.625 127.574219 L 7.625 126.859375 L 6.324219 126.578125 L 6.324219 125.933594 L 7.625 125.933594 L 7.625 124.855469 L 8.328125 124.855469 L 8.328125 125.933594 L 11.996094 125.933594 C 12.277344 125.933594 12.476562 125.890625 12.59375 125.804688 C 12.707031 125.710938 12.757812 125.550781 12.757812 125.324219 C 12.757812 125.191406 12.730469 125.003906 12.675781 124.761719 Z M 11.832031 116.644531 C 12.378906 116.644531 12.800781 116.851562 13.097656 117.265625 C 13.398438 117.679688 13.542969 118.261719 13.542969 119.011719 C 13.542969 119.730469 13.425781 120.285156 13.191406 120.6875 C 12.953125 121.078125 12.578125 121.332031 12.078125 121.449219 L 11.902344 120.59375 C 12.214844 120.507812 12.449219 120.332031 12.59375 120.078125 C 12.734375 119.816406 12.804688 119.464844 12.804688 119.011719 C 12.804688 118.519531 12.730469 118.160156 12.582031 117.933594 C 12.4375 117.707031 12.207031 117.59375 11.902344 117.59375 C 11.675781 117.59375 11.492188 117.671875 11.351562 117.828125 C 11.207031 117.984375 11.082031 118.238281 10.988281 118.589844 L 10.8125 119.28125 C 10.667969 119.835938 10.527344 120.230469 10.390625 120.464844 C 10.25 120.699219 10.082031 120.882812 9.886719 121.015625 C 9.695312 121.148438 9.449219 121.214844 9.160156 121.214844 C 8.628906 121.214844 8.230469 121.027344 7.953125 120.652344 C 7.671875 120.269531 7.53125 119.71875 7.53125 119 C 7.53125 118.359375 7.644531 117.847656 7.871094 117.472656 C 8.101562 117.09375 8.464844 116.851562 8.960938 116.75 L 9.066406 117.613281 C 8.808594 117.671875 8.609375 117.816406 8.46875 118.050781 C 8.328125 118.285156 8.257812 118.597656 8.257812 119 C 8.257812 119.4375 8.328125 119.761719 8.457031 119.972656 C 8.59375 120.175781 8.792969 120.277344 9.066406 120.277344 C 9.230469 120.277344 9.367188 120.234375 9.476562 120.144531 C 9.578125 120.0625 9.671875 119.9375 9.746094 119.769531 C 9.828125 119.601562 9.929688 119.246094 10.0625 118.707031 C 10.1875 118.191406 10.304688 117.820312 10.414062 117.59375 C 10.527344 117.367188 10.644531 117.191406 10.777344 117.066406 C 10.914062 116.933594 11.066406 116.832031 11.234375 116.761719 C 11.40625 116.683594 11.605469 116.644531 11.832031 116.644531 Z M 10.519531 110.097656 C 11.546875 110.097656 12.308594 110.328125 12.804688 110.777344 C 13.296875 111.222656 13.542969 111.875 13.542969 112.722656 C 13.542969 113.574219 13.285156 114.21875 12.769531 114.65625 C 12.253906 115.085938 11.503906 115.300781 10.519531 115.300781 C 8.523438 115.300781 7.519531 114.429688 7.519531 112.6875 C 7.519531 111.796875 7.765625 111.148438 8.257812 110.730469 C 8.746094 110.308594 9.496094 110.097656 10.519531 110.097656 Z M 10.519531 111.117188 C 9.722656 111.117188 9.144531 111.242188 8.785156 111.480469 C 8.417969 111.714844 8.234375 112.113281 8.234375 112.675781 C 8.234375 113.238281 8.421875 113.648438 8.796875 113.90625 C 9.167969 114.160156 9.742188 114.28125 10.519531 114.28125 C 11.292969 114.28125 11.875 114.160156 12.253906 113.90625 C 12.636719 113.65625 12.828125 113.269531 12.828125 112.734375 C 12.828125 112.15625 12.648438 111.746094 12.277344 111.492188 C 11.902344 111.242188 11.316406 111.117188 10.519531 111.117188 Z M 8.328125 107.808594 L 13.4375 107.808594 L 13.4375 108.777344 L 8.328125 108.777344 L 8.328125 109.601562 L 7.625 109.601562 L 7.625 108.777344 L 6.96875 108.777344 C 6.4375 108.777344 6.0625 108.664062 5.832031 108.425781 C 5.597656 108.195312 5.480469 107.839844 5.480469 107.363281 C 5.480469 107.097656 5.503906 106.871094 5.539062 106.683594 L 6.277344 106.683594 C 6.25 106.839844 6.230469 106.980469 6.230469 107.101562 C 6.230469 107.355469 6.296875 107.535156 6.417969 107.644531 C 6.546875 107.753906 6.769531 107.808594 7.097656 107.808594 L 7.625 107.808594 L 7.625 106.683594 L 8.328125 106.683594 Z M 13.390625 103.792969 C 13.476562 104.113281 13.519531 104.4375 13.519531 104.765625 C 13.519531 105.539062 13.082031 105.925781 12.207031 105.925781 L 8.328125 105.925781 L 8.328125 106.605469 L 7.625 106.605469 L 7.625 105.890625 L 6.324219 105.609375 L 6.324219 104.964844 L 7.625 104.964844 L 7.625 103.886719 L 8.328125 103.886719 L 8.328125 104.964844 L 11.996094 104.964844 C 12.277344 104.964844 12.476562 104.925781 12.59375 104.835938 C 12.707031 104.742188 12.757812 104.582031 12.757812 104.355469 C 12.757812 104.222656 12.730469 104.035156 12.675781 103.792969 Z M 10.507812 98.117188 C 12.53125 98.117188 13.542969 98.832031 13.542969 100.261719 C 13.542969 101.152344 13.210938 101.757812 12.535156 102.066406 L 12.535156 102.089844 C 12.566406 102.074219 12.871094 102.066406 13.449219 102.066406 L 15.722656 102.066406 L 15.722656 103.039062 L 8.808594 103.039062 C 8.21875 103.039062 7.820312 103.050781 7.625 103.0625 L 7.625 102.136719 C 7.644531 102.132812 7.695312 102.121094 7.777344 102.113281 C 7.867188 102.109375 8 102.101562 8.1875 102.089844 C 8.371094 102.085938 8.492188 102.078125 8.5625 102.078125 L 8.5625 102.054688 C 8.207031 101.886719 7.941406 101.65625 7.777344 101.375 C 7.609375 101.09375 7.519531 100.726562 7.519531 100.261719 C 7.519531 99.546875 7.761719 99.007812 8.246094 98.65625 C 8.722656 98.300781 9.476562 98.117188 10.507812 98.117188 Z M 10.519531 99.136719 C 9.71875 99.136719 9.144531 99.25 8.796875 99.464844 C 8.445312 99.683594 8.269531 100.035156 8.269531 100.507812 C 8.269531 100.894531 8.351562 101.195312 8.515625 101.410156 C 8.675781 101.621094 8.925781 101.785156 9.265625 101.902344 C 9.613281 102.015625 10.058594 102.066406 10.601562 102.066406 C 11.371094 102.066406 11.933594 101.945312 12.289062 101.703125 C 12.652344 101.464844 12.828125 101.070312 12.828125 100.519531 C 12.828125 100.039062 12.652344 99.683594 12.300781 99.464844 C 11.949219 99.25 11.359375 99.136719 10.519531 99.136719 Z M 13.4375 97.035156 L 5.46875 97.035156 L 5.46875 96.0625 L 13.4375 96.0625 Z M 7.625 94.09375 L 11.304688 94.09375 C 11.6875 94.09375 11.992188 94.058594 12.207031 93.988281 C 12.417969 93.910156 12.570312 93.789062 12.664062 93.625 C 12.753906 93.460938 12.792969 93.21875 12.792969 92.898438 C 12.792969 92.429688 12.636719 92.0625 12.324219 91.796875 C 12.003906 91.523438 11.558594 91.386719 10.988281 91.386719 L 7.625 91.386719 L 7.625 90.425781 L 12.195312 90.425781 C 12.875 90.425781 13.292969 90.414062 13.4375 90.390625 L 13.4375 91.304688 C 13.421875 91.3125 13.375 91.316406 13.296875 91.316406 C 13.222656 91.316406 13.128906 91.320312 13.027344 91.328125 C 12.917969 91.335938 12.722656 91.34375 12.441406 91.351562 L 12.441406 91.363281 C 12.847656 91.589844 13.132812 91.847656 13.296875 92.136719 C 13.460938 92.425781 13.542969 92.789062 13.542969 93.226562 C 13.542969 93.859375 13.386719 94.324219 13.074219 94.621094 C 12.753906 94.917969 12.226562 95.066406 11.492188 95.066406 L 7.625 95.066406 Z M 11.832031 84.664062 C 12.378906 84.664062 12.800781 84.871094 13.097656 85.285156 C 13.398438 85.703125 13.542969 86.28125 13.542969 87.03125 C 13.542969 87.753906 13.425781 88.308594 13.191406 88.707031 C 12.953125 89.101562 12.578125 89.351562 12.078125 89.46875 L 11.902344 88.613281 C 12.214844 88.527344 12.449219 88.355469 12.59375 88.097656 C 12.734375 87.839844 12.804688 87.488281 12.804688 87.03125 C 12.804688 86.539062 12.730469 86.183594 12.582031 85.953125 C 12.4375 85.726562 12.207031 85.613281 11.902344 85.613281 C 11.675781 85.613281 11.492188 85.695312 11.351562 85.847656 C 11.207031 86.007812 11.082031 86.257812 10.988281 86.609375 L 10.8125 87.300781 C 10.667969 87.859375 10.527344 88.25 10.390625 88.484375 C 10.25 88.71875 10.082031 88.902344 9.886719 89.035156 C 9.695312 89.171875 9.449219 89.234375 9.160156 89.234375 C 8.628906 89.234375 8.230469 89.046875 7.953125 88.671875 C 7.671875 88.292969 7.53125 87.742188 7.53125 87.019531 C 7.53125 86.382812 7.644531 85.871094 7.871094 85.496094 C 8.101562 85.117188 8.464844 84.871094 8.960938 84.769531 L 9.066406 85.636719 C 8.808594 85.695312 8.609375 85.835938 8.46875 86.070312 C 8.328125 86.304688 8.257812 86.621094 8.257812 87.019531 C 8.257812 87.460938 8.328125 87.78125 8.457031 87.992188 C 8.59375 88.199219 8.792969 88.296875 9.066406 88.296875 C 9.230469 88.296875 9.367188 88.257812 9.476562 88.167969 C 9.578125 88.082031 9.671875 87.957031 9.746094 87.792969 C 9.828125 87.625 9.929688 87.265625 10.0625 86.726562 C 10.1875 86.210938 10.304688 85.84375 10.414062 85.613281 C 10.527344 85.390625 10.644531 85.214844 10.777344 85.085938 C 10.914062 84.957031 11.066406 84.851562 11.234375 84.78125 C 11.40625 84.707031 11.605469 84.664062 11.832031 84.664062 Z M 15.628906 83.945312 L 14.925781 83.945312 L 14.925781 77.535156 L 15.628906 77.535156 Z M 10.519531 72.125 C 11.546875 72.125 12.308594 72.355469 12.804688 72.804688 C 13.296875 73.25 13.542969 73.902344 13.542969 74.75 C 13.542969 75.601562 13.285156 76.246094 12.769531 76.683594 C 12.253906 77.113281 11.503906 77.328125 10.519531 77.328125 C 8.523438 77.328125 7.519531 76.457031 7.519531 74.714844 C 7.519531 73.824219 7.765625 73.175781 8.257812 72.757812 C 8.746094 72.335938 9.496094 72.125 10.519531 72.125 Z M 10.519531 73.144531 C 9.722656 73.144531 9.144531 73.269531 8.785156 73.507812 C 8.417969 73.742188 8.234375 74.140625 8.234375 74.703125 C 8.234375 75.265625 8.421875 75.675781 8.796875 75.933594 C 9.167969 76.1875 9.742188 76.308594 10.519531 76.308594 C 11.292969 76.308594 11.875 76.1875 12.253906 75.933594 C 12.636719 75.683594 12.828125 75.296875 12.828125 74.761719 C 12.828125 74.183594 12.648438 73.773438 12.277344 73.519531 C 11.902344 73.269531 11.316406 73.144531 10.519531 73.144531 Z M 13.4375 67.351562 L 9.746094 67.351562 C 9.367188 67.351562 9.066406 67.390625 8.855469 67.46875 C 8.644531 67.539062 8.492188 67.65625 8.398438 67.820312 C 8.304688 67.984375 8.257812 68.226562 8.257812 68.546875 C 8.257812 69.015625 8.417969 69.382812 8.738281 69.648438 C 9.0625 69.914062 9.507812 70.046875 10.074219 70.046875 L 13.4375 70.046875 L 13.4375 71.019531 L 8.867188 71.019531 C 8.1875 71.019531 7.773438 71.03125 7.625 71.054688 L 7.625 70.140625 C 7.644531 70.132812 7.691406 70.128906 7.765625 70.128906 C 7.847656 70.121094 7.9375 70.117188 8.046875 70.117188 C 8.148438 70.109375 8.339844 70.101562 8.621094 70.09375 L 8.621094 70.082031 C 8.21875 69.855469 7.929688 69.597656 7.765625 69.308594 C 7.601562 69.011719 7.519531 68.648438 7.519531 68.21875 C 7.519531 67.578125 7.679688 67.113281 8 66.824219 C 8.3125 66.527344 8.832031 66.378906 9.558594 66.378906 L 13.4375 66.378906 Z M 11.832031 60.675781 C 12.378906 60.675781 12.800781 60.882812 13.097656 61.296875 C 13.398438 61.710938 13.542969 62.289062 13.542969 63.039062 C 13.542969 63.761719 13.425781 64.320312 13.191406 64.714844 C 12.953125 65.109375 12.578125 65.363281 12.078125 65.476562 L 11.902344 64.621094 C 12.214844 64.539062 12.449219 64.363281 12.59375 64.109375 C 12.734375 63.851562 12.804688 63.496094 12.804688 63.039062 C 12.804688 62.550781 12.730469 62.191406 12.582031 61.964844 C 12.4375 61.738281 12.207031 61.621094 11.902344 61.621094 C 11.675781 61.621094 11.492188 61.703125 11.351562 61.859375 C 11.207031 62.015625 11.082031 62.269531 10.988281 62.621094 L 10.8125 63.308594 C 10.667969 63.867188 10.527344 64.257812 10.390625 64.496094 C 10.25 64.726562 10.082031 64.914062 9.886719 65.046875 C 9.695312 65.179688 9.449219 65.246094 9.160156 65.246094 C 8.628906 65.246094 8.230469 65.058594 7.953125 64.683594 C 7.671875 64.300781 7.53125 63.75 7.53125 63.027344 C 7.53125 62.390625 7.644531 61.882812 7.871094 61.507812 C 8.101562 61.125 8.464844 60.882812 8.960938 60.777344 L 9.066406 61.644531 C 8.808594 61.703125 8.609375 61.847656 8.46875 62.082031 C 8.328125 62.316406 8.257812 62.632812 8.257812 63.027344 C 8.257812 63.46875 8.328125 63.789062 8.457031 64.003906 C 8.59375 64.207031 8.792969 64.308594 9.066406 64.308594 C 9.230469 64.308594 9.367188 64.265625 9.476562 64.175781 C 9.578125 64.09375 9.671875 63.964844 9.746094 63.800781 C 9.828125 63.632812 9.929688 63.277344 10.0625 62.738281 C 10.1875 62.222656 10.304688 61.851562 10.414062 61.621094 C 10.527344 61.398438 10.644531 61.222656 10.777344 61.097656 C 10.914062 60.964844 11.066406 60.863281 11.234375 60.789062 C 11.40625 60.714844 11.605469 60.675781 11.832031 60.675781 Z M 10.730469 58.300781 C 11.40625 58.300781 11.921875 58.164062 12.277344 57.890625 C 12.636719 57.617188 12.816406 57.214844 12.816406 56.683594 C 12.816406 56.261719 12.734375 55.925781 12.570312 55.675781 C 12.402344 55.425781 12.183594 55.253906 11.925781 55.160156 L 12.171875 54.316406 C 13.085938 54.664062 13.542969 55.449219 13.542969 56.683594 C 13.542969 57.546875 13.292969 58.203125 12.78125 58.652344 C 12.265625 59.097656 11.503906 59.320312 10.496094 59.320312 C 9.535156 59.320312 8.804688 59.097656 8.292969 58.652344 C 7.777344 58.203125 7.519531 57.558594 7.519531 56.71875 C 7.519531 55.007812 8.546875 54.152344 10.601562 54.152344 L 10.730469 54.152344 Z M 9.992188 55.160156 C 9.382812 55.214844 8.9375 55.371094 8.65625 55.628906 C 8.375 55.886719 8.234375 56.257812 8.234375 56.742188 C 8.234375 57.210938 8.394531 57.582031 8.703125 57.855469 C 9.015625 58.132812 9.449219 58.277344 9.992188 58.300781 Z M 13.390625 50.808594 C 13.476562 51.128906 13.519531 51.453125 13.519531 51.777344 C 13.519531 52.550781 13.082031 52.941406 12.207031 52.941406 L 8.328125 52.941406 L 8.328125 53.621094 L 7.625 53.621094 L 7.625 52.902344 L 6.324219 52.621094 L 6.324219 51.976562 L 7.625 51.976562 L 7.625 50.902344 L 8.328125 50.902344 L 8.328125 51.976562 L 11.996094 51.976562 C 12.277344 51.976562 12.476562 51.9375 12.59375 51.851562 C 12.707031 51.757812 12.757812 51.597656 12.757812 51.371094 C 12.757812 51.238281 12.730469 51.050781 12.675781 50.808594 Z M 13.390625 50.808594 "/>
</svg>
