<?xml version="1.0" encoding="UTF-8"?>
<svg xmlns="http://www.w3.org/2000/svg" xmlns:xlink="http://www.w3.org/1999/xlink" width="303pt" height="288pt" viewBox="0 0 303 288">
<defs>
<clipPath id="clip-0">
<path clip-rule="nonzero" d="M 41.152344 5.480469 L 299.605469 5.480469 L 299.605469 254.851562 L 41.152344 254.851562 Z M 41.152344 5.480469 "/>
</clipPath>
<clipPath id="clip-1">
<path clip-rule="nonzero" d="M 41.152344 203 L 299.605469 203 L 299.605469 205 L 41.152344 205 Z M 41.152344 203 "/>
</clipPath>
<clipPath id="clip-2">
<path clip-rule="nonzero" d="M 41.152344 125 L 299.605469 125 L 299.605469 126 L 41.152344 126 Z M 41.152344 125 "/>
</clipPath>
<clipPath id="clip-3">
<path clip-rule="nonzero" d="M 41.152344 46 L 299.605469 46 L 299.605469 47 L 41.152344 47 Z M 41.152344 46 "/>
</clipPath>
<clipPath id="clip-4">
<path clip-rule="nonzero" d="M 82 5.480469 L 83 5.480469 L 83 254.851562 L 82 254.851562 Z M 82 5.480469 "/>
</clipPath>
<clipPath id="clip-5">
<path clip-rule="nonzero" d="M 140 5.480469 L 142 5.480469 L 142 254.851562 L 140 254.851562 Z M 140 5.480469 "/>
</clipPath>
<clipPath id="clip-6">
<path clip-rule="nonzero" d="M 199 5.480469 L 201 5.480469 L 201 254.851562 L 199 254.851562 Z M 199 5.480469 "/>
</clipPath>
<clipPath id="clip-7">
<path clip-rule="nonzero" d="M 258 5.480469 L 259 5.480469 L 259 254.851562 L 258 254.851562 Z M 258 5.480469 "/>
</clipPath>
<clipPath id="clip-8">
<path clip-rule="nonzero" d="M 41.152344 242 L 299.605469 242 L 299.605469 245 L 41.152344 245 Z M 41.152344 242 "/>
</clipPath>
<clipPath id="clip-9">
<path clip-rule="nonzero" d="M 41.152344 164 L 299.605469 164 L 299.605469 166 L 41.152344 166 Z M 41.152344 164 "/>
</clipPath>
<clipPath id="clip-10">
<path clip-rule="nonzero" d="M 41.152344 85 L 299.605469 85 L 299.605469 87 L 41.152344 87 Z M 41.152344 85 "/>
</clipPath>
<clipPath id="clip-11">
<path clip-rule="nonzero" d="M 41.152344 6 L 299.605469 6 L 299.605469 8 L 41.152344 8 Z M 41.152344 6 "/>
</clipPath>
<clipPath id="clip-12">
<path clip-rule="nonzero" d="M 52 5.480469 L 54 5.480469 L 54 254.851562 L 52 254.851562 Z M 52 5.480469 "/>
</clipPath>
<clipPath id="clip-13">
<path clip-rule="nonzero" d="M 111 5.480469 L 113 5.480469 L 113 254.851562 L 111 254.851562 Z M 111 5.480469 "/>
</clipPath>
<clipPath id="clip-14">
<path clip-rule="nonzero" d="M 169 5.480469 L 171 5.480469 L 171 254.851562 L 169 254.851562 Z M 169 5.480469 "/>
</clipPath>
<clipPath id="clip-15">
<path clip-rule="nonzero" d="M 228 5.480469 L 230 5.480469 L 230 254.851562 L 228 254.851562 Z M 228 5.480469 "/>
</clipPath>
<clipPath id="clip-16">
<path clip-rule="nonzero" d="M 287 5.480469 L 289 5.480469 L 289 254.851562 L 287 254.851562 Z M 287 5.480469 "/>
</clipPath>
<clipPath id="clip-17">
<path clip-rule="nonzero" d="M 41.152344 5.480469 L 299.605469 5.480469 L 299.605469 254.851562 L 41.152344 254.851562 Z M 41.152344 5.480469 "/>
</clipPath>
</defs>
<rect x="-30.3" y="-28.8" width="363.6" height="345.6" fill="rgb(100%, 100%, 100%)" fill-opacity="1"/>
<path fill="none" stroke-width="1.06698" stroke-linecap="round" stroke-linejoin="round" stroke="rgb(100%, 100%, 100%)" stroke-opacity="1" stroke-miterlimit="10" d="M 0 0 L 432 0 L 432 288 L 0 288 Z M 0 0 "/>
<g clip-path="url(#clip-0)">
<path fill-rule="nonzero" fill="rgb(100%, 100%, 100%)" fill-opacity="1" d="M 41.152344 5.476562 L 299.605469 5.476562 L 299.605469 254.847656 L 41.152344 254.847656 Z M 41.152344 5.476562 "/>
</g>
<g clip-path="url(#clip-1)">
<path fill="none" stroke-width="0.533489" stroke-linecap="butt" stroke-linejoin="round" stroke="rgb(92.155457%, 92.155457%, 92.155457%)" stroke-opacity="1" stroke-miterlimit="10" d="M 41.152344 204.117188 L 299.601562 204.117188 "/>
</g>
<g clip-path="url(#clip-2)">
<path fill="none" stroke-width="0.533489" stroke-linecap="butt" stroke-linejoin="round" stroke="rgb(92.155457%, 92.155457%, 92.155457%)" stroke-opacity="1" stroke-miterlimit="10" d="M 41.152344 125.324219 L 299.601562 125.324219 "/>
</g>
<g clip-path="url(#clip-3)">
<path fill="none" stroke-width="0.533489" stroke-linecap="butt" stroke-linejoin="round" stroke="rgb(92.155457%, 92.155457%, 92.155457%)" stroke-opacity="1" stroke-miterlimit="10" d="M 41.152344 46.535156 L 299.601562 46.535156 "/>
</g>
<g clip-path="url(#clip-4)">
<path fill="none" stroke-width="0.533489" stroke-linecap="butt" stroke-linejoin="round" stroke="rgb(92.155457%, 92.155457%, 92.155457%)" stroke-opacity="1" stroke-miterlimit="10" d="M 82.269531 254.847656 L 82.269531 5.480469 "/>
</g>
<g clip-path="url(#clip-5)">
<path fill="none" stroke-width="0.533489" stroke-linecap="butt" stroke-linejoin="round" stroke="rgb(92.155457%, 92.155457%, 92.155457%)" stroke-opacity="1" stroke-miterlimit="10" d="M 141.007812 254.847656 L 141.007812 5.480469 "/>
</g>
<g clip-path="url(#clip-6)">
<path fill="none" stroke-width="0.533489" stroke-linecap="butt" stroke-linejoin="round" stroke="rgb(92.155457%, 92.155457%, 92.155457%)" stroke-opacity="1" stroke-miterlimit="10" d="M 199.746094 254.847656 L 199.746094 5.480469 "/>
</g>
<g clip-path="url(#clip-7)">
<path fill="none" stroke-width="0.533489" stroke-linecap="butt" stroke-linejoin="round" stroke="rgb(92.155457%, 92.155457%, 92.155457%)" stroke-opacity="1" stroke-miterlimit="10" d="M 258.484375 254.847656 L 258.484375 5.480469 "/>
</g>
<g clip-path="url(#clip-8)">
<path fill="none" stroke-width="1.06698" stroke-linecap="butt" stroke-linejoin="round" stroke="rgb(92.155457%, 92.155457%, 92.155457%)" stroke-opacity="1" stroke-miterlimit="10" d="M 41.152344 243.515625 L 299.601562 243.515625 "/>
</g>
<g clip-path="url(#clip-9)">
<path fill="none" stroke-width="1.06698" stroke-linecap="butt" stroke-linejoin="round" stroke="rgb(92.155457%, 92.155457%, 92.155457%)" stroke-opacity="1" stroke-miterlimit="10" d="M 41.152344 164.722656 L 299.601562 164.722656 "/>
</g>
<g clip-path="url(#clip-10)">
<path fill="none" stroke-width="1.06698" stroke-linecap="butt" stroke-linejoin="round" stroke="rgb(92.155457%, 92.155457%, 92.155457%)" stroke-opacity="1" stroke-miterlimit="10" d="M 41.152344 85.929688 L 299.601562 85.929688 "/>
</g>
<g clip-path="url(#clip-11)">
<path fill="none" stroke-width="1.06698" stroke-linecap="butt" stroke-linejoin="round" stroke="rgb(92.155457%, 92.155457%, 92.155457%)" stroke-opacity="1" stroke-miterlimit="10" d="M 41.152344 7.136719 L 299.601562 7.136719 "/>
</g>
<g clip-path="url(#clip-12)">
<path fill="none" stroke-width="1.06698" stroke-linecap="butt" stroke-linejoin="round" stroke="rgb(92.155457%, 92.155457%, 92.155457%)" stroke-opacity="1" stroke-miterlimit="10" d="M 52.898438 254.847656 L 52.898438 5.480469 "/>
</g>
<g clip-path="url(#clip-13)">
<path fill="none" stroke-width="1.06698" stroke-linecap="butt" stroke-linejoin="round" stroke="rgb(92.155457%, 92.155457%, 92.155457%)" stroke-opacity="1" stroke-miterlimit="10" d="M 111.636719 254.847656 L 111.636719 5.480469 "/>
</g>
<g clip-path="url(#clip-14)">
<path fill="none" stroke-width="1.06698" stroke-linecap="butt" stroke-linejoin="round" stroke="rgb(92.155457%, 92.155457%, 92.155457%)" stroke-opacity="1" stroke-miterlimit="10" d="M 170.375 254.847656 L 170.375 5.480469 "/>
</g>
<g clip-path="url(#clip-15)">
<path fill="none" stroke-width="1.06698" stroke-linecap="butt" stroke-linejoin="round" stroke="rgb(92.155457%, 92.155457%, 92.155457%)" stroke-opacity="1" stroke-miterlimit="10" d="M 229.117188 254.847656 L 229.117188 5.480469 "/>
</g>
<g clip-path="url(#clip-16)">
<path fill="none" stroke-width="1.06698" stroke-linecap="butt" stroke-linejoin="round" stroke="rgb(92.155457%, 92.155457%, 92.155457%)" stroke-opacity="1" stroke-miterlimit="10" d="M 287.855469 254.847656 L 287.855469 5.480469 "/>
</g>
<path fill="none" stroke-width="1.06698" stroke-linecap="butt" stroke-linejoin="round" stroke="rgb(0%, 0%, 0%)" stroke-opacity="1" stroke-miterlimit="10" d="M 52.898438 243.515625 L 287.855469 243.515625 "/>
<path fill="none" stroke-width="1.06698" stroke-linecap="butt" stroke-linejoin="round" stroke="rgb(0%, 100%, 0%)" stroke-opacity="1" stroke-miterlimit="10" d="M 52.898438 131.859375 L 111.636719 206.140625 L 170.375 225.808594 L 229.117188 232.09375 L 287.855469 234.648438 "/>
<path fill="none" stroke-width="1.06698" stroke-linecap="butt" stroke-linejoin="round" stroke="rgb(12.156677%, 46.665955%, 70.587158%)" stroke-opacity="1" stroke-miterlimit="10" d="M 52.898438 62.207031 L 111.636719 153.089844 L 170.375 182.1875 L 229.117188 192.6875 L 287.855469 196.8125 "/>
<path fill="none" stroke-width="1.06698" stroke-linecap="butt" stroke-linejoin="round" stroke="rgb(100%, 49.803162%, 5.490112%)" stroke-opacity="1" stroke-miterlimit="10" d="M 52.898438 128.324219 L 111.636719 207.785156 L 170.375 223.476562 L 229.117188 229.976562 L 287.855469 234.140625 "/>
<path fill="none" stroke-width="1.06698" stroke-linecap="butt" stroke-linejoin="round" stroke="rgb(58.03833%, 40.391541%, 74.116516%)" stroke-opacity="1" stroke-miterlimit="10" d="M 52.898438 97.074219 L 111.636719 185.976562 L 170.375 210.605469 L 229.117188 220.765625 L 287.855469 224.824219 "/>
<path fill="none" stroke-width="1.06698" stroke-linecap="butt" stroke-linejoin="round" stroke="rgb(54.901123%, 33.724976%, 29.411316%)" stroke-opacity="1" stroke-miterlimit="10" d="M 52.898438 118.738281 L 111.636719 203.175781 L 170.375 225.101562 L 229.117188 230.589844 L 287.855469 233.992188 "/>
<path fill="none" stroke-width="1.06698" stroke-linecap="butt" stroke-linejoin="round" stroke="rgb(9.01947%, 74.508667%, 81.175232%)" stroke-opacity="1" stroke-miterlimit="10" d="M 52.898438 114.257812 L 111.636719 199.449219 L 170.375 219.84375 L 229.117188 226.769531 L 287.855469 231.078125 "/>
<path fill="none" stroke-width="1.06698" stroke-linecap="butt" stroke-linejoin="round" stroke="rgb(100%, 0%, 0%)" stroke-opacity="1" stroke-miterlimit="10" d="M 52.898438 16.8125 L 111.636719 136.019531 L 170.375 158.167969 L 229.117188 170.976562 L 287.855469 184.703125 "/>
<g clip-path="url(#clip-17)">
<path fill="none" stroke-width="1.06698" stroke-linecap="round" stroke-linejoin="round" stroke="rgb(19.999695%, 19.999695%, 19.999695%)" stroke-opacity="1" stroke-miterlimit="10" d="M 41.152344 5.476562 L 299.605469 5.476562 L 299.605469 254.847656 L 41.152344 254.847656 Z M 41.152344 5.476562 "/>
</g>
<path fill-rule="nonzero" fill="rgb(30.195618%, 30.195618%, 30.195618%)" fill-opacity="1" d="M 23.765625 243.945312 C 23.765625 244.960938 23.582031 245.734375 23.226562 246.265625 C 22.875 246.800781 22.351562 247.0625 21.65625 247.0625 C 20.957031 247.0625 20.4375 246.800781 20.085938 246.277344 C 19.734375 245.746094 19.558594 244.972656 19.558594 243.945312 C 19.558594 242.910156 19.726562 242.128906 20.0625 241.613281 C 20.40625 241.097656 20.945312 240.839844 21.679688 240.839844 C 22.386719 240.839844 22.914062 241.105469 23.25 241.625 C 23.59375 242.148438 23.765625 242.921875 23.765625 243.945312 Z M 22.980469 243.945312 C 22.980469 243.078125 22.878906 242.453125 22.675781 242.058594 C 22.480469 241.660156 22.148438 241.460938 21.679688 241.460938 C 21.203125 241.460938 20.859375 241.65625 20.648438 242.046875 C 20.441406 242.429688 20.34375 243.0625 20.34375 243.945312 C 20.34375 244.808594 20.449219 245.433594 20.660156 245.832031 C 20.871094 246.230469 21.203125 246.429688 21.667969 246.429688 C 22.117188 246.429688 22.453125 246.226562 22.664062 245.820312 C 22.875 245.417969 22.980469 244.789062 22.980469 243.945312 Z M 25.023438 246.980469 L 25.023438 246.042969 L 25.855469 246.042969 L 25.855469 246.980469 Z M 30.753906 243.945312 C 30.753906 244.960938 30.570312 245.734375 30.214844 246.265625 C 29.863281 246.800781 29.339844 247.0625 28.644531 247.0625 C 27.945312 247.0625 27.425781 246.800781 27.074219 246.277344 C 26.722656 245.746094 26.546875 244.972656 26.546875 243.945312 C 26.546875 242.910156 26.710938 242.128906 27.050781 241.613281 C 27.390625 241.097656 27.929688 240.839844 28.667969 240.839844 C 29.375 240.839844 29.902344 241.105469 30.238281 241.625 C 30.578125 242.148438 30.753906 242.921875 30.753906 243.945312 Z M 29.96875 243.945312 C 29.96875 243.078125 29.863281 242.453125 29.664062 242.058594 C 29.464844 241.660156 29.136719 241.460938 28.667969 241.460938 C 28.1875 241.460938 27.847656 241.65625 27.636719 242.046875 C 27.429688 242.429688 27.332031 243.0625 27.332031 243.945312 C 27.332031 244.808594 27.4375 245.433594 27.648438 245.832031 C 27.859375 246.230469 28.191406 246.429688 28.65625 246.429688 C 29.105469 246.429688 29.441406 246.226562 29.652344 245.820312 C 29.863281 245.417969 29.96875 244.789062 29.96875 243.945312 Z M 35.757812 243.945312 C 35.757812 244.960938 35.578125 245.734375 35.21875 246.265625 C 34.867188 246.800781 34.34375 247.0625 33.652344 247.0625 C 32.953125 247.0625 32.433594 246.800781 32.078125 246.277344 C 31.730469 245.746094 31.550781 244.972656 31.550781 243.945312 C 31.550781 242.910156 31.71875 242.128906 32.058594 241.613281 C 32.398438 241.097656 32.9375 240.839844 33.671875 240.839844 C 34.382812 240.839844 34.90625 241.105469 35.242188 241.625 C 35.585938 242.148438 35.757812 242.921875 35.757812 243.945312 Z M 34.972656 243.945312 C 34.972656 243.078125 34.871094 242.453125 34.667969 242.058594 C 34.472656 241.660156 34.140625 241.460938 33.671875 241.460938 C 33.195312 241.460938 32.855469 241.65625 32.640625 242.046875 C 32.4375 242.429688 32.339844 243.0625 32.339844 243.945312 C 32.339844 244.808594 32.441406 245.433594 32.652344 245.832031 C 32.863281 246.230469 33.199219 246.429688 33.660156 246.429688 C 34.113281 246.429688 34.445312 246.226562 34.65625 245.820312 C 34.867188 245.417969 34.972656 244.789062 34.972656 243.945312 Z M 23.765625 165.152344 C 23.765625 166.167969 23.582031 166.941406 23.226562 167.472656 C 22.875 168.003906 22.351562 168.269531 21.65625 168.269531 C 20.957031 168.269531 20.4375 168.007812 20.085938 167.484375 C 19.734375 166.953125 19.558594 166.175781 19.558594 165.152344 C 19.558594 164.113281 19.726562 163.335938 20.0625 162.820312 C 20.40625 162.304688 20.945312 162.046875 21.679688 162.046875 C 22.386719 162.046875 22.914062 162.308594 23.25 162.832031 C 23.59375 163.355469 23.765625 164.128906 23.765625 165.152344 Z M 22.980469 165.152344 C 22.980469 164.285156 22.878906 163.65625 22.675781 163.265625 C 22.480469 162.867188 22.148438 162.667969 21.679688 162.667969 C 21.203125 162.667969 20.859375 162.863281 20.648438 163.253906 C 20.441406 163.636719 20.34375 164.269531 20.34375 165.152344 C 20.34375 166.011719 20.449219 166.640625 20.660156 167.039062 C 20.871094 167.4375 21.203125 167.636719 21.667969 167.636719 C 22.117188 167.636719 22.453125 167.433594 22.664062 167.027344 C 22.875 166.621094 22.980469 165.996094 22.980469 165.152344 Z M 25.023438 168.1875 L 25.023438 167.25 L 25.855469 167.25 L 25.855469 168.1875 Z M 30.753906 165.152344 C 30.753906 166.167969 30.570312 166.941406 30.214844 167.472656 C 29.863281 168.003906 29.339844 168.269531 28.644531 168.269531 C 27.945312 168.269531 27.425781 168.007812 27.074219 167.484375 C 26.722656 166.953125 26.546875 166.175781 26.546875 165.152344 C 26.546875 164.113281 26.710938 163.335938 27.050781 162.820312 C 27.390625 162.304688 27.929688 162.046875 28.667969 162.046875 C 29.375 162.046875 29.902344 162.308594 30.238281 162.832031 C 30.578125 163.355469 30.753906 164.128906 30.753906 165.152344 Z M 29.96875 165.152344 C 29.96875 164.285156 29.863281 163.65625 29.664062 163.265625 C 29.464844 162.867188 29.136719 162.667969 28.667969 162.667969 C 28.1875 162.667969 27.847656 162.863281 27.636719 163.253906 C 27.429688 163.636719 27.332031 164.269531 27.332031 165.152344 C 27.332031 166.011719 27.4375 166.640625 27.648438 167.039062 C 27.859375 167.4375 28.191406 167.636719 28.65625 167.636719 C 29.105469 167.636719 29.441406 167.433594 29.652344 167.027344 C 29.863281 166.621094 29.96875 165.996094 29.96875 165.152344 Z M 35.734375 166.21875 C 35.734375 166.851562 35.542969 167.351562 35.160156 167.71875 C 34.785156 168.085938 34.261719 168.269531 33.589844 168.269531 C 33.027344 168.269531 32.574219 168.148438 32.21875 167.90625 C 31.875 167.65625 31.65625 167.296875 31.5625 166.828125 L 32.347656 166.746094 C 32.511719 167.339844 32.929688 167.636719 33.605469 167.636719 C 34.015625 167.636719 34.339844 167.515625 34.574219 167.261719 C 34.816406 167.011719 34.9375 166.671875 34.9375 166.230469 C 34.9375 165.851562 34.816406 165.539062 34.574219 165.304688 C 34.339844 165.070312 34.027344 164.953125 33.625 164.953125 C 33.417969 164.953125 33.21875 164.988281 33.042969 165.058594 C 32.859375 165.121094 32.679688 165.230469 32.5 165.386719 L 31.738281 165.386719 L 31.9375 162.128906 L 35.382812 162.128906 L 35.382812 162.785156 L 32.640625 162.785156 L 32.535156 164.707031 C 32.863281 164.449219 33.277344 164.320312 33.777344 164.320312 C 34.378906 164.320312 34.855469 164.496094 35.207031 164.847656 C 35.558594 165.199219 35.734375 165.65625 35.734375 166.21875 Z M 23.765625 86.359375 C 23.765625 87.378906 23.582031 88.152344 23.226562 88.683594 C 22.875 89.214844 22.351562 89.480469 21.65625 89.480469 C 20.957031 89.480469 20.4375 89.21875 20.085938 88.691406 C 19.734375 88.164062 19.558594 87.386719 19.558594 86.359375 C 19.558594 85.324219 19.726562 84.546875 20.0625 84.027344 C 20.40625 83.515625 20.945312 83.253906 21.679688 83.253906 C 22.386719 83.253906 22.914062 83.519531 23.25 84.042969 C 23.59375 84.566406 23.765625 85.339844 23.765625 86.359375 Z M 22.980469 86.359375 C 22.980469 85.496094 22.878906 84.867188 22.675781 84.472656 C 22.480469 84.078125 22.148438 83.878906 21.679688 83.878906 C 21.203125 83.878906 20.859375 84.074219 20.648438 84.464844 C 20.441406 84.847656 20.34375 85.480469 20.34375 86.359375 C 20.34375 87.222656 20.449219 87.847656 20.660156 88.246094 C 20.871094 88.648438 21.203125 88.847656 21.667969 88.847656 C 22.117188 88.847656 22.453125 88.644531 22.664062 88.234375 C 22.875 87.832031 22.980469 87.203125 22.980469 86.359375 Z M 25.023438 89.398438 L 25.023438 88.460938 L 25.855469 88.460938 L 25.855469 89.398438 Z M 26.875 89.398438 L 26.875 88.742188 L 28.421875 88.742188 L 28.421875 84.078125 L 27.050781 85.058594 L 27.050781 84.324219 L 28.480469 83.339844 L 29.195312 83.339844 L 29.195312 88.742188 L 30.671875 88.742188 L 30.671875 89.398438 Z M 35.757812 86.359375 C 35.757812 87.378906 35.578125 88.152344 35.21875 88.683594 C 34.867188 89.214844 34.34375 89.480469 33.652344 89.480469 C 32.953125 89.480469 32.433594 89.21875 32.078125 88.691406 C 31.730469 88.164062 31.550781 87.386719 31.550781 86.359375 C 31.550781 85.324219 31.71875 84.546875 32.058594 84.027344 C 32.398438 83.515625 32.9375 83.253906 33.671875 83.253906 C 34.382812 83.253906 34.90625 83.519531 35.242188 84.042969 C 35.585938 84.566406 35.757812 85.339844 35.757812 86.359375 Z M 34.972656 86.359375 C 34.972656 85.496094 34.871094 84.867188 34.667969 84.472656 C 34.472656 84.078125 34.140625 83.878906 33.671875 83.878906 C 33.195312 83.878906 32.855469 84.074219 32.640625 84.464844 C 32.4375 84.847656 32.339844 85.480469 32.339844 86.359375 C 32.339844 87.222656 32.441406 87.847656 32.652344 88.246094 C 32.863281 88.648438 33.199219 88.847656 33.660156 88.847656 C 34.113281 88.847656 34.445312 88.644531 34.65625 88.234375 C 34.867188 87.832031 34.972656 87.203125 34.972656 86.359375 Z M 23.765625 7.566406 C 23.765625 8.585938 23.582031 9.359375 23.226562 9.886719 C 22.875 10.421875 22.351562 10.683594 21.65625 10.683594 C 20.957031 10.683594 20.4375 10.425781 20.085938 9.898438 C 19.734375 9.371094 19.558594 8.59375 19.558594 7.566406 C 19.558594 6.53125 19.726562 5.75 20.0625 5.234375 C 20.40625 4.71875 20.945312 4.460938 21.679688 4.460938 C 22.386719 4.460938 22.914062 4.726562 23.25 5.246094 C 23.59375 5.773438 23.765625 6.546875 23.765625 7.566406 Z M 22.980469 7.566406 C 22.980469 6.699219 22.878906 6.074219 22.675781 5.679688 C 22.480469 5.28125 22.148438 5.082031 21.679688 5.082031 C 21.203125 5.082031 20.859375 5.28125 20.648438 5.667969 C 20.441406 6.054688 20.34375 6.6875 20.34375 7.566406 C 20.34375 8.429688 20.449219 9.054688 20.660156 9.453125 C 20.871094 9.851562 21.203125 10.050781 21.667969 10.050781 C 22.117188 10.050781 22.453125 9.847656 22.664062 9.441406 C 22.875 9.039062 22.980469 8.410156 22.980469 7.566406 Z M 25.023438 10.601562 L 25.023438 9.664062 L 25.855469 9.664062 L 25.855469 10.601562 Z M 26.875 10.601562 L 26.875 9.945312 L 28.421875 9.945312 L 28.421875 5.28125 L 27.050781 6.265625 L 27.050781 5.527344 L 28.480469 4.542969 L 29.195312 4.542969 L 29.195312 9.945312 L 30.671875 9.945312 L 30.671875 10.601562 Z M 35.734375 8.632812 C 35.734375 9.265625 35.542969 9.769531 35.160156 10.132812 C 34.785156 10.503906 34.261719 10.683594 33.589844 10.683594 C 33.027344 10.683594 32.574219 10.566406 32.21875 10.320312 C 31.875 10.074219 31.65625 9.710938 31.5625 9.242188 L 32.347656 9.160156 C 32.511719 9.757812 32.929688 10.050781 33.605469 10.050781 C 34.015625 10.050781 34.339844 9.929688 34.574219 9.675781 C 34.816406 9.429688 34.9375 9.085938 34.9375 8.644531 C 34.9375 8.265625 34.816406 7.953125 34.574219 7.71875 C 34.339844 7.484375 34.027344 7.367188 33.625 7.367188 C 33.417969 7.367188 33.21875 7.402344 33.042969 7.472656 C 32.859375 7.539062 32.679688 7.648438 32.5 7.800781 L 31.738281 7.800781 L 31.9375 4.542969 L 35.382812 4.542969 L 35.382812 5.199219 L 32.640625 5.199219 L 32.535156 7.121094 C 32.863281 6.863281 33.277344 6.734375 33.777344 6.734375 C 34.378906 6.734375 34.855469 6.910156 35.207031 7.261719 C 35.558594 7.613281 35.734375 8.070312 35.734375 8.632812 Z M 35.734375 8.632812 "/>
<path fill="none" stroke-width="1.06698" stroke-linecap="butt" stroke-linejoin="round" stroke="rgb(19.999695%, 19.999695%, 19.999695%)" stroke-opacity="1" stroke-miterlimit="10" d="M 38.410156 243.515625 L 41.152344 243.515625 "/>
<path fill="none" stroke-width="1.06698" stroke-linecap="butt" stroke-linejoin="round" stroke="rgb(19.999695%, 19.999695%, 19.999695%)" stroke-opacity="1" stroke-miterlimit="10" d="M 38.410156 164.722656 L 41.152344 164.722656 "/>
<path fill="none" stroke-width="1.06698" stroke-linecap="butt" stroke-linejoin="round" stroke="rgb(19.999695%, 19.999695%, 19.999695%)" stroke-opacity="1" stroke-miterlimit="10" d="M 38.410156 85.929688 L 41.152344 85.929688 "/>
<path fill="none" stroke-width="1.06698" stroke-linecap="butt" stroke-linejoin="round" stroke="rgb(19.999695%, 19.999695%, 19.999695%)" stroke-opacity="1" stroke-miterlimit="10" d="M 38.410156 7.136719 L 41.152344 7.136719 "/>
<path fill="none" stroke-width="1.06698" stroke-linecap="butt" stroke-linejoin="round" stroke="rgb(19.999695%, 19.999695%, 19.999695%)" stroke-opacity="1" stroke-miterlimit="10" d="M 52.898438 257.589844 L 52.898438 254.847656 "/>
<path fill="none" stroke-width="1.06698" stroke-linecap="butt" stroke-linejoin="round" stroke="rgb(19.999695%, 19.999695%, 19.999695%)" stroke-opacity="1" stroke-miterlimit="10" d="M 111.636719 257.589844 L 111.636719 254.847656 "/>
<path fill="none" stroke-width="1.06698" stroke-linecap="butt" stroke-linejoin="round" stroke="rgb(19.999695%, 19.999695%, 19.999695%)" stroke-opacity="1" stroke-miterlimit="10" d="M 170.375 257.589844 L 170.375 254.847656 "/>
<path fill="none" stroke-width="1.06698" stroke-linecap="butt" stroke-linejoin="round" stroke="rgb(19.999695%, 19.999695%, 19.999695%)" stroke-opacity="1" stroke-miterlimit="10" d="M 229.117188 257.589844 L 229.117188 254.847656 "/>
<path fill="none" stroke-width="1.06698" stroke-linecap="butt" stroke-linejoin="round" stroke="rgb(19.999695%, 19.999695%, 19.999695%)" stroke-opacity="1" stroke-miterlimit="10" d="M 287.855469 257.589844 L 287.855469 254.847656 "/>
<path fill-rule="nonzero" fill="rgb(30.195618%, 30.195618%, 30.195618%)" fill-opacity="1" d="M 48.566406 266.746094 L 48.566406 266.09375 L 50.113281 266.09375 L 50.113281 261.429688 L 48.742188 262.414062 L 48.742188 261.675781 L 50.171875 260.691406 L 50.886719 260.691406 L 50.886719 266.09375 L 52.363281 266.09375 L 52.363281 266.746094 Z M 57.441406 263.714844 C 57.441406 264.730469 57.261719 265.503906 56.902344 266.035156 C 56.550781 266.566406 56.027344 266.828125 55.332031 266.828125 C 54.636719 266.828125 54.113281 266.570312 53.761719 266.046875 C 53.410156 265.515625 53.234375 264.738281 53.234375 263.714844 C 53.234375 262.675781 53.402344 261.898438 53.738281 261.382812 C 54.082031 260.867188 54.621094 260.609375 55.355469 260.609375 C 56.066406 260.609375 56.589844 260.871094 56.925781 261.394531 C 57.269531 261.917969 57.441406 262.691406 57.441406 263.714844 Z M 56.65625 263.714844 C 56.65625 262.847656 56.554688 262.21875 56.351562 261.828125 C 56.15625 261.429688 55.824219 261.230469 55.355469 261.230469 C 54.878906 261.230469 54.535156 261.425781 54.324219 261.816406 C 54.121094 262.199219 54.019531 262.832031 54.019531 263.714844 C 54.019531 264.574219 54.125 265.203125 54.335938 265.601562 C 54.546875 266 54.882812 266.199219 55.34375 266.199219 C 55.796875 266.199219 56.128906 265.996094 56.339844 265.589844 C 56.550781 265.183594 56.65625 264.558594 56.65625 263.714844 Z M 107.082031 266.746094 L 107.082031 266.199219 C 107.222656 265.871094 107.398438 265.578125 107.609375 265.320312 C 107.820312 265.0625 108.042969 264.832031 108.277344 264.628906 C 108.511719 264.417969 108.742188 264.222656 108.96875 264.042969 C 109.195312 263.863281 109.398438 263.6875 109.578125 263.515625 C 109.765625 263.335938 109.914062 263.148438 110.023438 262.953125 C 110.140625 262.757812 110.199219 262.535156 110.199219 262.285156 C 110.199219 261.957031 110.101562 261.703125 109.90625 261.523438 C 109.710938 261.335938 109.441406 261.242188 109.097656 261.242188 C 108.769531 261.242188 108.496094 261.332031 108.277344 261.511719 C 108.066406 261.691406 107.941406 261.941406 107.902344 262.261719 L 107.117188 262.191406 C 107.171875 261.707031 107.375 261.324219 107.726562 261.042969 C 108.085938 260.753906 108.542969 260.609375 109.097656 260.609375 C 109.707031 260.609375 110.175781 260.753906 110.503906 261.042969 C 110.832031 261.324219 110.996094 261.730469 110.996094 262.261719 C 110.996094 262.496094 110.941406 262.730469 110.832031 262.964844 C 110.722656 263.199219 110.5625 263.433594 110.351562 263.667969 C 110.140625 263.894531 109.734375 264.25 109.132812 264.734375 C 108.804688 265.007812 108.542969 265.253906 108.347656 265.472656 C 108.152344 265.683594 108.011719 265.890625 107.925781 266.09375 L 111.089844 266.09375 L 111.089844 266.746094 Z M 116.183594 263.714844 C 116.183594 264.730469 116 265.503906 115.644531 266.035156 C 115.292969 266.566406 114.765625 266.828125 114.074219 266.828125 C 113.375 266.828125 112.855469 266.570312 112.503906 266.046875 C 112.152344 265.515625 111.976562 264.738281 111.976562 263.714844 C 111.976562 262.675781 112.140625 261.898438 112.480469 261.382812 C 112.820312 260.867188 113.359375 260.609375 114.097656 260.609375 C 114.804688 260.609375 115.328125 260.871094 115.667969 261.394531 C 116.007812 261.917969 116.183594 262.691406 116.183594 263.714844 Z M 115.398438 263.714844 C 115.398438 262.847656 115.292969 262.21875 115.09375 261.828125 C 114.894531 261.429688 114.566406 261.230469 114.097656 261.230469 C 113.617188 261.230469 113.277344 261.425781 113.066406 261.816406 C 112.859375 262.199219 112.761719 262.832031 112.761719 263.714844 C 112.761719 264.574219 112.867188 265.203125 113.078125 265.601562 C 113.289062 266 113.621094 266.199219 114.085938 266.199219 C 114.535156 266.199219 114.871094 265.996094 115.082031 265.589844 C 115.292969 265.183594 115.398438 264.558594 115.398438 263.714844 Z M 169.886719 265.074219 C 169.886719 265.636719 169.703125 266.070312 169.347656 266.375 C 168.996094 266.675781 168.484375 266.828125 167.824219 266.828125 C 167.214844 266.828125 166.726562 266.695312 166.359375 266.421875 C 165.992188 266.148438 165.777344 265.738281 165.714844 265.191406 L 166.511719 265.121094 C 166.609375 265.839844 167.050781 266.199219 167.824219 266.199219 C 168.214844 266.199219 168.519531 266.105469 168.738281 265.917969 C 168.964844 265.722656 169.078125 265.433594 169.078125 265.050781 C 169.078125 264.722656 168.949219 264.46875 168.691406 264.289062 C 168.441406 264.101562 168.074219 264.007812 167.601562 264.007812 L 167.167969 264.007812 L 167.167969 263.328125 L 167.578125 263.328125 C 168.003906 263.328125 168.339844 263.238281 168.574219 263.058594 C 168.808594 262.871094 168.925781 262.613281 168.925781 262.285156 C 168.925781 261.964844 168.828125 261.710938 168.632812 261.523438 C 168.445312 261.335938 168.164062 261.242188 167.789062 261.242188 C 167.441406 261.242188 167.167969 261.332031 166.957031 261.511719 C 166.746094 261.683594 166.621094 261.925781 166.59375 262.238281 L 165.808594 262.179688 C 165.871094 261.6875 166.078125 261.304688 166.429688 261.03125 C 166.78125 260.75 167.230469 260.609375 167.789062 260.609375 C 168.398438 260.609375 168.871094 260.75 169.207031 261.03125 C 169.539062 261.3125 169.710938 261.703125 169.710938 262.203125 C 169.710938 262.59375 169.597656 262.910156 169.382812 263.152344 C 169.171875 263.394531 168.859375 263.558594 168.445312 263.644531 L 168.445312 263.65625 C 168.898438 263.710938 169.246094 263.867188 169.5 264.125 C 169.757812 264.375 169.886719 264.691406 169.886719 265.074219 Z M 174.917969 263.714844 C 174.917969 264.730469 174.738281 265.503906 174.378906 266.035156 C 174.027344 266.566406 173.503906 266.828125 172.808594 266.828125 C 172.113281 266.828125 171.589844 266.570312 171.242188 266.046875 C 170.886719 265.515625 170.710938 264.738281 170.710938 263.714844 C 170.710938 262.675781 170.878906 261.898438 171.214844 261.382812 C 171.558594 260.867188 172.097656 260.609375 172.835938 260.609375 C 173.542969 260.609375 174.066406 260.871094 174.402344 261.394531 C 174.746094 261.917969 174.917969 262.691406 174.917969 263.714844 Z M 174.132812 263.714844 C 174.132812 262.847656 174.03125 262.21875 173.828125 261.828125 C 173.632812 261.429688 173.304688 261.230469 172.835938 261.230469 C 172.355469 261.230469 172.011719 261.425781 171.804688 261.816406 C 171.597656 262.199219 171.496094 262.832031 171.496094 263.714844 C 171.496094 264.574219 171.601562 265.203125 171.816406 265.601562 C 172.023438 266 172.359375 266.199219 172.820312 266.199219 C 173.273438 266.199219 173.605469 265.996094 173.816406 265.589844 C 174.027344 265.183594 174.132812 264.558594 174.132812 263.714844 Z M 227.898438 265.378906 L 227.898438 266.746094 L 227.171875 266.746094 L 227.171875 265.378906 L 224.3125 265.378906 L 224.3125 264.78125 L 227.089844 260.691406 L 227.898438 260.691406 L 227.898438 264.769531 L 228.753906 264.769531 L 228.753906 265.378906 Z M 227.171875 261.570312 C 227.160156 261.585938 227.117188 261.660156 227.042969 261.792969 C 226.972656 261.925781 226.914062 262.019531 226.878906 262.074219 L 225.332031 264.359375 L 225.097656 264.6875 L 225.027344 264.765625 L 227.171875 264.765625 Z M 233.660156 263.714844 C 233.660156 264.730469 233.476562 265.503906 233.121094 266.035156 C 232.769531 266.566406 232.246094 266.828125 231.550781 266.828125 C 230.851562 266.828125 230.332031 266.570312 229.980469 266.046875 C 229.628906 265.515625 229.453125 264.738281 229.453125 263.714844 C 229.453125 262.675781 229.621094 261.898438 229.957031 261.382812 C 230.300781 260.867188 230.839844 260.609375 231.574219 260.609375 C 232.285156 260.609375 232.808594 260.871094 233.144531 261.394531 C 233.488281 261.917969 233.660156 262.691406 233.660156 263.714844 Z M 232.875 263.714844 C 232.875 262.847656 232.773438 262.21875 232.570312 261.828125 C 232.375 261.429688 232.042969 261.230469 231.574219 261.230469 C 231.097656 261.230469 230.753906 261.425781 230.542969 261.816406 C 230.335938 262.199219 230.238281 262.832031 230.238281 263.714844 C 230.238281 264.574219 230.34375 265.203125 230.554688 265.601562 C 230.765625 266 231.097656 266.199219 231.5625 266.199219 C 232.011719 266.199219 232.347656 265.996094 232.558594 265.589844 C 232.769531 265.183594 232.875 264.558594 232.875 263.714844 Z M 287.378906 264.78125 C 287.378906 265.414062 287.183594 265.914062 286.804688 266.28125 C 286.429688 266.648438 285.90625 266.828125 285.234375 266.828125 C 284.671875 266.828125 284.214844 266.710938 283.863281 266.46875 C 283.515625 266.21875 283.300781 265.859375 283.207031 265.390625 L 283.992188 265.308594 C 284.15625 265.902344 284.570312 266.199219 285.246094 266.199219 C 285.660156 266.199219 285.984375 266.074219 286.21875 265.824219 C 286.457031 265.574219 286.582031 265.230469 286.582031 264.792969 C 286.582031 264.410156 286.457031 264.101562 286.21875 263.867188 C 285.984375 263.632812 285.667969 263.515625 285.269531 263.515625 C 285.058594 263.515625 284.863281 263.550781 284.683594 263.621094 C 284.5 263.683594 284.324219 263.792969 284.144531 263.949219 L 283.382812 263.949219 L 283.582031 260.691406 L 287.027344 260.691406 L 287.027344 261.347656 L 284.285156 261.347656 L 284.179688 263.269531 C 284.507812 263.011719 284.921875 262.882812 285.421875 262.882812 C 286.023438 262.882812 286.5 263.058594 286.851562 263.410156 C 287.203125 263.761719 287.378906 264.21875 287.378906 264.78125 Z M 292.398438 263.714844 C 292.398438 264.730469 292.21875 265.503906 291.859375 266.035156 C 291.507812 266.566406 290.984375 266.828125 290.289062 266.828125 C 289.59375 266.828125 289.070312 266.570312 288.71875 266.046875 C 288.367188 265.515625 288.191406 264.738281 288.191406 263.714844 C 288.191406 262.675781 288.359375 261.898438 288.695312 261.382812 C 289.039062 260.867188 289.578125 260.609375 290.3125 260.609375 C 291.023438 260.609375 291.546875 260.871094 291.882812 261.394531 C 292.226562 261.917969 292.398438 262.691406 292.398438 263.714844 Z M 291.613281 263.714844 C 291.613281 262.847656 291.511719 262.21875 291.308594 261.828125 C 291.113281 261.429688 290.78125 261.230469 290.3125 261.230469 C 289.835938 261.230469 289.492188 261.425781 289.28125 261.816406 C 289.078125 262.199219 288.976562 262.832031 288.976562 263.714844 C 288.976562 264.574219 289.082031 265.203125 289.292969 265.601562 C 289.503906 266 289.839844 266.199219 290.300781 266.199219 C 290.753906 266.199219 291.085938 265.996094 291.296875 265.589844 C 291.507812 265.183594 291.613281 264.558594 291.613281 263.714844 Z M 291.613281 263.714844 "/>
<path fill-rule="nonzero" fill="rgb(0%, 0%, 0%)" fill-opacity="1" d="M 149.804688 279.476562 L 149.804688 275.785156 C 149.804688 275.40625 149.761719 275.105469 149.6875 274.894531 C 149.617188 274.683594 149.5 274.53125 149.335938 274.4375 C 149.171875 274.34375 148.925781 274.296875 148.609375 274.296875 C 148.140625 274.296875 147.769531 274.460938 147.507812 274.777344 C 147.238281 275.101562 147.109375 275.546875 147.109375 276.113281 L 147.109375 279.476562 L 146.136719 279.476562 L 146.136719 274.90625 C 146.136719 274.226562 146.125 273.816406 146.101562 273.664062 L 147.015625 273.664062 C 147.019531 273.683594 147.027344 273.730469 147.027344 273.804688 C 147.03125 273.886719 147.039062 273.980469 147.039062 274.085938 C 147.042969 274.191406 147.050781 274.378906 147.0625 274.660156 L 147.074219 274.660156 C 147.296875 274.257812 147.554688 273.96875 147.847656 273.804688 C 148.140625 273.640625 148.503906 273.558594 148.9375 273.558594 C 149.574219 273.558594 150.039062 273.722656 150.332031 274.039062 C 150.625 274.355469 150.777344 274.871094 150.777344 275.597656 L 150.777344 279.476562 Z M 151.207031 281.667969 L 151.207031 280.964844 L 157.617188 280.964844 L 157.617188 281.667969 Z M 163.035156 276.546875 C 163.035156 278.574219 162.320312 279.582031 160.890625 279.582031 C 160 279.582031 159.398438 279.25 159.085938 278.574219 L 159.0625 278.574219 C 159.078125 278.609375 159.085938 278.914062 159.085938 279.488281 L 159.085938 281.761719 L 158.113281 281.761719 L 158.113281 274.847656 C 158.113281 274.257812 158.105469 273.863281 158.089844 273.664062 L 159.015625 273.664062 C 159.023438 273.683594 159.03125 273.734375 159.039062 273.816406 C 159.046875 273.90625 159.054688 274.039062 159.0625 274.226562 C 159.070312 274.410156 159.078125 274.53125 159.078125 274.601562 L 159.101562 274.601562 C 159.269531 274.246094 159.5 273.980469 159.78125 273.816406 C 160.0625 273.648438 160.429688 273.558594 160.894531 273.558594 C 161.609375 273.558594 162.148438 273.804688 162.5 274.285156 C 162.855469 274.765625 163.039062 275.515625 163.039062 276.546875 Z M 162.015625 276.558594 C 162.015625 275.757812 161.90625 275.183594 161.6875 274.835938 C 161.46875 274.484375 161.121094 274.308594 160.644531 274.308594 C 160.261719 274.308594 159.960938 274.390625 159.742188 274.554688 C 159.53125 274.714844 159.367188 274.964844 159.25 275.304688 C 159.140625 275.652344 159.085938 276.097656 159.085938 276.640625 C 159.085938 277.410156 159.207031 277.972656 159.449219 278.328125 C 159.691406 278.691406 160.085938 278.867188 160.632812 278.867188 C 161.117188 278.867188 161.46875 278.691406 161.6875 278.339844 C 161.90625 277.988281 162.015625 277.398438 162.015625 276.558594 Z M 165.597656 279.582031 C 165.011719 279.582031 164.570312 279.429688 164.273438 279.125 C 163.984375 278.816406 163.839844 278.394531 163.839844 277.859375 C 163.839844 277.261719 164.03125 276.800781 164.425781 276.476562 C 164.824219 276.148438 165.460938 275.972656 166.347656 275.949219 L 167.648438 275.925781 L 167.648438 275.609375 C 167.648438 275.140625 167.546875 274.808594 167.34375 274.601562 C 167.148438 274.402344 166.832031 274.296875 166.40625 274.296875 C 165.976562 274.296875 165.660156 274.375 165.457031 274.519531 C 165.261719 274.660156 165.144531 274.894531 165.105469 275.210938 L 164.097656 275.128906 C 164.261719 274.085938 165.039062 273.558594 166.429688 273.558594 C 167.15625 273.558594 167.699219 273.730469 168.070312 274.0625 C 168.445312 274.390625 168.632812 274.878906 168.632812 275.515625 L 168.632812 278.011719 C 168.632812 278.304688 168.667969 278.523438 168.738281 278.667969 C 168.8125 278.808594 168.960938 278.878906 169.171875 278.878906 C 169.265625 278.878906 169.371094 278.867188 169.488281 278.84375 L 169.488281 279.441406 C 169.246094 279.503906 168.996094 279.535156 168.738281 279.535156 C 168.386719 279.535156 168.128906 279.441406 167.964844 279.253906 C 167.800781 279.0625 167.707031 278.761719 167.683594 278.363281 L 167.648438 278.363281 C 167.40625 278.808594 167.121094 279.125 166.792969 279.3125 C 166.464844 279.492188 166.066406 279.582031 165.597656 279.582031 Z M 165.820312 278.855469 C 166.171875 278.855469 166.480469 278.78125 166.757812 278.621094 C 167.039062 278.457031 167.253906 278.234375 167.414062 277.953125 C 167.570312 277.671875 167.648438 277.386719 167.648438 277.085938 L 167.648438 276.605469 L 166.59375 276.628906 C 166.140625 276.640625 165.796875 276.6875 165.5625 276.769531 C 165.328125 276.859375 165.144531 276.992188 165.023438 277.167969 C 164.898438 277.351562 164.835938 277.585938 164.835938 277.871094 C 164.835938 278.1875 164.917969 278.429688 165.082031 278.597656 C 165.25 278.773438 165.496094 278.855469 165.820312 278.855469 Z M 172.339844 279.429688 C 172.019531 279.515625 171.695312 279.558594 171.367188 279.558594 C 170.59375 279.558594 170.207031 279.125 170.207031 278.246094 L 170.207031 274.367188 L 169.527344 274.367188 L 169.527344 273.664062 L 170.242188 273.664062 L 170.523438 272.363281 L 171.167969 272.363281 L 171.167969 273.664062 L 172.246094 273.664062 L 172.246094 274.367188 L 171.167969 274.367188 L 171.167969 278.035156 C 171.167969 278.316406 171.210938 278.515625 171.296875 278.632812 C 171.390625 278.746094 171.550781 278.796875 171.777344 278.796875 C 171.910156 278.796875 172.097656 278.773438 172.339844 278.714844 Z M 173.097656 272.421875 L 173.097656 271.507812 L 174.058594 271.507812 L 174.058594 272.421875 Z M 173.097656 279.476562 L 173.097656 273.664062 L 174.058594 273.664062 L 174.058594 279.476562 Z M 175.847656 276.769531 C 175.847656 277.445312 175.984375 277.960938 176.257812 278.316406 C 176.53125 278.679688 176.933594 278.855469 177.464844 278.855469 C 177.886719 278.855469 178.222656 278.773438 178.472656 278.609375 C 178.722656 278.441406 178.894531 278.222656 178.988281 277.964844 L 179.832031 278.210938 C 179.488281 279.125 178.699219 279.582031 177.464844 279.582031 C 176.605469 279.582031 175.949219 279.332031 175.496094 278.820312 C 175.050781 278.304688 174.828125 277.542969 174.828125 276.535156 C 174.828125 275.574219 175.050781 274.84375 175.496094 274.332031 C 175.949219 273.816406 176.59375 273.558594 177.429688 273.558594 C 179.140625 273.558594 179.996094 274.589844 179.996094 276.640625 L 179.996094 276.769531 Z M 178.988281 276.03125 C 178.933594 275.421875 178.777344 274.976562 178.519531 274.695312 C 178.261719 274.414062 177.890625 274.273438 177.40625 274.273438 C 176.9375 274.273438 176.566406 274.433594 176.292969 274.742188 C 176.019531 275.058594 175.871094 275.488281 175.847656 276.03125 Z M 184.785156 279.476562 L 184.785156 275.785156 C 184.785156 275.40625 184.742188 275.105469 184.667969 274.894531 C 184.597656 274.683594 184.480469 274.53125 184.316406 274.4375 C 184.152344 274.34375 183.90625 274.296875 183.589844 274.296875 C 183.121094 274.296875 182.75 274.460938 182.488281 274.777344 C 182.21875 275.101562 182.089844 275.546875 182.089844 276.113281 L 182.089844 279.476562 L 181.117188 279.476562 L 181.117188 274.90625 C 181.117188 274.226562 181.105469 273.816406 181.082031 273.664062 L 181.996094 273.664062 C 182 273.683594 182.007812 273.730469 182.007812 273.804688 C 182.011719 273.886719 182.019531 273.980469 182.019531 274.085938 C 182.023438 274.191406 182.03125 274.378906 182.042969 274.660156 L 182.054688 274.660156 C 182.277344 274.257812 182.535156 273.96875 182.828125 273.804688 C 183.121094 273.640625 183.484375 273.558594 183.917969 273.558594 C 184.554688 273.558594 185.019531 273.722656 185.3125 274.039062 C 185.605469 274.355469 185.757812 274.871094 185.757812 275.597656 L 185.757812 279.476562 Z M 189.324219 279.429688 C 189.003906 279.515625 188.679688 279.558594 188.351562 279.558594 C 187.578125 279.558594 187.191406 279.125 187.191406 278.246094 L 187.191406 274.367188 L 186.511719 274.367188 L 186.511719 273.664062 L 187.226562 273.664062 L 187.507812 272.363281 L 188.152344 272.363281 L 188.152344 273.664062 L 189.230469 273.664062 L 189.230469 274.367188 L 188.152344 274.367188 L 188.152344 278.035156 C 188.152344 278.316406 188.195312 278.515625 188.28125 278.632812 C 188.375 278.746094 188.535156 278.796875 188.761719 278.796875 C 188.894531 278.796875 189.082031 278.773438 189.324219 278.714844 Z M 194.453125 277.871094 C 194.453125 278.421875 194.242188 278.84375 193.832031 279.136719 C 193.414062 279.4375 192.835938 279.582031 192.085938 279.582031 C 191.363281 279.582031 190.808594 279.464844 190.410156 279.230469 C 190.015625 278.992188 189.765625 278.621094 189.648438 278.117188 L 190.503906 277.941406 C 190.585938 278.257812 190.761719 278.488281 191.019531 278.632812 C 191.277344 278.773438 191.628906 278.84375 192.085938 278.84375 C 192.578125 278.84375 192.933594 278.773438 193.164062 278.621094 C 193.386719 278.476562 193.503906 278.246094 193.503906 277.941406 C 193.503906 277.71875 193.421875 277.53125 193.269531 277.390625 C 193.109375 277.246094 192.859375 277.121094 192.507812 277.027344 L 191.816406 276.851562 C 191.257812 276.707031 190.867188 276.566406 190.632812 276.429688 C 190.398438 276.289062 190.210938 276.125 190.082031 275.925781 C 189.945312 275.734375 189.882812 275.492188 189.882812 275.199219 C 189.882812 274.671875 190.070312 274.269531 190.445312 273.992188 C 190.824219 273.710938 191.375 273.570312 192.097656 273.570312 C 192.734375 273.570312 193.246094 273.6875 193.621094 273.910156 C 194 274.140625 194.242188 274.503906 194.347656 275 L 193.480469 275.105469 C 193.425781 274.847656 193.28125 274.648438 193.046875 274.507812 C 192.8125 274.367188 192.496094 274.296875 192.097656 274.296875 C 191.65625 274.296875 191.335938 274.367188 191.125 274.496094 C 190.917969 274.632812 190.820312 274.835938 190.820312 275.105469 C 190.820312 275.269531 190.859375 275.410156 190.949219 275.515625 C 191.03125 275.621094 191.160156 275.710938 191.324219 275.785156 C 191.492188 275.867188 191.851562 275.972656 192.390625 276.101562 C 192.90625 276.230469 193.273438 276.347656 193.503906 276.453125 C 193.726562 276.566406 193.902344 276.6875 194.03125 276.816406 C 194.160156 276.953125 194.265625 277.105469 194.335938 277.273438 C 194.410156 277.449219 194.453125 277.648438 194.453125 277.871094 Z M 194.453125 277.871094 "/>
<path fill-rule="nonzero" fill="rgb(0%, 0%, 0%)" fill-opacity="1" d="M 13.4375 203.328125 L 8.386719 203.328125 C 7.824219 203.328125 7.285156 203.316406 6.769531 203.28125 C 7.421875 203.457031 7.925781 203.609375 8.28125 203.75 L 13.4375 205.707031 L 13.4375 206.421875 L 8.28125 208.402344 L 7.367188 208.707031 L 6.769531 208.882812 L 7.367188 208.871094 L 8.386719 208.847656 L 13.4375 208.847656 L 13.4375 209.761719 L 5.867188 209.761719 L 5.867188 208.414062 L 11.117188 206.398438 C 11.328125 206.328125 11.558594 206.265625 11.796875 206.199219 C 12.039062 206.128906 12.214844 206.082031 12.324219 206.058594 C 12.179688 206.03125 11.957031 205.972656 11.667969 205.882812 C 11.382812 205.789062 11.195312 205.730469 11.117188 205.695312 L 5.867188 203.714844 L 5.867188 202.402344 L 13.4375 202.402344 Z M 11.351562 194.832031 C 12.050781 194.832031 12.589844 195.109375 12.96875 195.652344 C 13.351562 196.203125 13.542969 196.972656 13.542969 197.960938 C 13.542969 199.808594 12.90625 200.875 11.621094 201.160156 L 11.421875 200.175781 C 11.875 200.058594 12.214844 199.8125 12.429688 199.4375 C 12.640625 199.0625 12.746094 198.558594 12.746094 197.914062 C 12.746094 197.257812 12.636719 196.753906 12.40625 196.390625 C 12.179688 196.027344 11.84375 195.839844 11.398438 195.839844 C 11.160156 195.839844 10.960938 195.898438 10.800781 196.015625 C 10.644531 196.128906 10.515625 196.285156 10.414062 196.496094 C 10.316406 196.703125 10.234375 196.941406 10.167969 197.222656 C 10.097656 197.503906 10.023438 197.820312 9.945312 198.160156 C 9.8125 198.765625 9.683594 199.222656 9.546875 199.53125 C 9.414062 199.835938 9.265625 200.082031 9.101562 200.257812 C 8.9375 200.441406 8.746094 200.574219 8.527344 200.667969 C 8.3125 200.761719 8.058594 200.808594 7.777344 200.808594 C 7.128906 200.808594 6.628906 200.5625 6.277344 200.070312 C 5.925781 199.574219 5.75 198.863281 5.75 197.9375 C 5.75 197.082031 5.886719 196.425781 6.148438 195.96875 C 6.414062 195.511719 6.863281 195.191406 7.496094 195.007812 L 7.671875 196.015625 C 7.273438 196.128906 6.988281 196.339844 6.804688 196.648438 C 6.617188 196.964844 6.523438 197.398438 6.523438 197.949219 C 6.523438 198.554688 6.625 199.015625 6.828125 199.332031 C 7.035156 199.65625 7.332031 199.8125 7.730469 199.8125 C 7.960938 199.8125 8.148438 199.753906 8.304688 199.625 C 8.453125 199.503906 8.582031 199.328125 8.691406 199.097656 C 8.792969 198.863281 8.921875 198.402344 9.078125 197.703125 C 9.132812 197.46875 9.191406 197.242188 9.242188 197.011719 C 9.296875 196.777344 9.367188 196.554688 9.441406 196.34375 C 9.523438 196.132812 9.613281 195.933594 9.722656 195.746094 C 9.824219 195.558594 9.953125 195.402344 10.097656 195.265625 C 10.246094 195.136719 10.421875 195.03125 10.625 194.949219 C 10.832031 194.875 11.070312 194.832031 11.351562 194.832031 Z M 13.4375 193.765625 L 5.867188 193.765625 L 5.867188 188.023438 L 6.710938 188.023438 L 6.710938 192.734375 L 9.136719 192.734375 L 9.136719 188.339844 L 9.957031 188.339844 L 9.957031 192.734375 L 12.59375 192.734375 L 12.59375 187.800781 L 13.4375 187.800781 Z M 10.519531 179.035156 C 11.546875 179.035156 12.308594 179.261719 12.804688 179.714844 C 13.296875 180.160156 13.542969 180.808594 13.542969 181.660156 C 13.542969 182.511719 13.285156 183.15625 12.769531 183.59375 C 12.253906 184.023438 11.503906 184.238281 10.519531 184.238281 C 8.523438 184.238281 7.519531 183.367188 7.519531 181.625 C 7.519531 180.734375 7.765625 180.082031 8.257812 179.667969 C 8.746094 179.246094 9.496094 179.035156 10.519531 179.035156 Z M 10.519531 180.054688 C 9.722656 180.054688 9.144531 180.175781 8.785156 180.417969 C 8.417969 180.652344 8.234375 181.050781 8.234375 181.613281 C 8.234375 182.175781 8.421875 182.585938 8.796875 182.84375 C 9.167969 183.09375 9.742188 183.21875 10.519531 183.21875 C 11.292969 183.21875 11.875 183.09375 12.253906 182.84375 C 12.636719 182.59375 12.828125 182.203125 12.828125 181.671875 C 12.828125 181.09375 12.648438 180.679688 12.277344 180.429688 C 11.902344 180.179688 11.316406 180.054688 10.519531 180.054688 Z M 8.328125 176.753906 L 13.4375 176.753906 L 13.4375 177.726562 L 8.328125 177.726562 L 8.328125 178.546875 L 7.625 178.546875 L 7.625 177.726562 L 6.96875 177.726562 C 6.4375 177.726562 6.0625 177.609375 5.832031 177.375 C 5.597656 177.140625 5.480469 176.785156 5.480469 176.308594 C 5.480469 176.046875 5.503906 175.816406 5.539062 175.628906 L 6.277344 175.628906 C 6.25 175.789062 6.230469 175.929688 6.230469 176.050781 C 6.230469 176.304688 6.296875 176.480469 6.417969 176.589844 C 6.546875 176.703125 6.769531 176.753906 7.097656 176.753906 L 7.625 176.753906 L 7.625 175.628906 L 8.328125 175.628906 Z M 10.507812 171.238281 C 11.28125 171.238281 11.855469 171.117188 12.230469 170.875 C 12.601562 170.632812 12.78125 170.265625 12.78125 169.773438 C 12.78125 169.429688 12.6875 169.144531 12.5 168.917969 C 12.3125 168.683594 12.027344 168.539062 11.644531 168.484375 L 11.703125 167.5 C 12.265625 167.578125 12.71875 167.820312 13.050781 168.226562 C 13.378906 168.625 13.542969 169.128906 13.542969 169.738281 C 13.542969 170.558594 13.292969 171.183594 12.78125 171.613281 C 12.265625 172.035156 11.515625 172.246094 10.519531 172.246094 C 9.546875 172.246094 8.804688 172.03125 8.292969 171.601562 C 7.777344 171.171875 7.519531 170.554688 7.519531 169.75 C 7.519531 169.15625 7.679688 168.664062 7.988281 168.273438 C 8.292969 167.882812 8.714844 167.636719 9.253906 167.535156 L 9.324219 168.53125 C 9.003906 168.578125 8.75 168.707031 8.5625 168.917969 C 8.371094 169.121094 8.269531 169.410156 8.269531 169.785156 C 8.269531 170.292969 8.441406 170.664062 8.785156 170.898438 C 9.121094 171.125 9.695312 171.238281 10.507812 171.238281 Z M 10.519531 161.058594 C 11.546875 161.058594 12.308594 161.289062 12.804688 161.738281 C 13.296875 162.183594 13.542969 162.835938 13.542969 163.683594 C 13.542969 164.539062 13.285156 165.183594 12.769531 165.617188 C 12.253906 166.050781 11.503906 166.261719 10.519531 166.261719 C 8.523438 166.261719 7.519531 165.394531 7.519531 163.648438 C 7.519531 162.757812 7.765625 162.109375 8.257812 161.691406 C 8.746094 161.269531 9.5 161.058594 10.519531 161.058594 Z M 10.519531 162.078125 C 9.722656 162.078125 9.148438 162.203125 8.785156 162.441406 C 8.421875 162.675781 8.234375 163.074219 8.234375 163.636719 C 8.234375 164.199219 8.421875 164.609375 8.796875 164.867188 C 9.167969 165.121094 9.742188 165.242188 10.519531 165.242188 C 11.292969 165.242188 11.875 165.121094 12.253906 164.867188 C 12.640625 164.621094 12.828125 164.230469 12.828125 163.695312 C 12.828125 163.121094 12.648438 162.707031 12.277344 162.453125 C 11.902344 162.207031 11.316406 162.078125 10.519531 162.078125 Z M 10.730469 159.226562 C 11.40625 159.226562 11.921875 159.089844 12.277344 158.816406 C 12.640625 158.542969 12.816406 158.140625 12.816406 157.609375 C 12.816406 157.1875 12.734375 156.851562 12.570312 156.601562 C 12.402344 156.351562 12.183594 156.179688 11.925781 156.085938 L 12.171875 155.242188 C 13.085938 155.585938 13.542969 156.375 13.542969 157.609375 C 13.542969 158.46875 13.292969 159.125 12.78125 159.578125 C 12.265625 160.023438 11.503906 160.246094 10.496094 160.246094 C 9.535156 160.246094 8.804688 160.023438 8.292969 159.578125 C 7.777344 159.125 7.519531 158.480469 7.519531 157.644531 C 7.519531 155.933594 8.550781 155.078125 10.601562 155.078125 L 10.730469 155.078125 Z M 9.992188 156.085938 C 9.382812 156.140625 8.9375 156.296875 8.65625 156.554688 C 8.375 156.8125 8.234375 157.183594 8.234375 157.667969 C 8.234375 158.136719 8.394531 158.507812 8.703125 158.78125 C 9.019531 159.054688 9.449219 159.203125 9.992188 159.226562 Z M 8.328125 152.773438 L 13.4375 152.773438 L 13.4375 153.746094 L 8.328125 153.746094 L 8.328125 154.566406 L 7.625 154.566406 L 7.625 153.746094 L 6.96875 153.746094 C 6.4375 153.746094 6.0625 153.628906 5.832031 153.394531 C 5.597656 153.160156 5.480469 152.804688 5.480469 152.328125 C 5.480469 152.0625 5.503906 151.835938 5.539062 151.648438 L 6.277344 151.648438 C 6.25 151.804688 6.230469 151.945312 6.230469 152.070312 C 6.230469 152.320312 6.296875 152.5 6.417969 152.609375 C 6.546875 152.71875 6.769531 152.773438 7.097656 152.773438 L 7.625 152.773438 L 7.625 151.648438 L 8.328125 151.648438 Z M 8.328125 149.78125 L 13.4375 149.78125 L 13.4375 150.753906 L 8.328125 150.753906 L 8.328125 151.574219 L 7.625 151.574219 L 7.625 150.753906 L 6.96875 150.753906 C 6.4375 150.753906 6.0625 150.636719 5.832031 150.402344 C 5.597656 150.167969 5.480469 149.8125 5.480469 149.335938 C 5.480469 149.070312 5.503906 148.84375 5.539062 148.65625 L 6.277344 148.65625 C 6.25 148.8125 6.230469 148.953125 6.230469 149.078125 C 6.230469 149.328125 6.296875 149.507812 6.417969 149.617188 C 6.546875 149.726562 6.769531 149.78125 7.097656 149.78125 L 7.625 149.78125 L 7.625 148.65625 L 8.328125 148.65625 Z M 6.382812 147.996094 L 5.46875 147.996094 L 5.46875 147.035156 L 6.382812 147.035156 Z M 13.4375 147.996094 L 7.625 147.996094 L 7.625 147.035156 L 13.4375 147.035156 Z M 10.507812 145.265625 C 11.28125 145.265625 11.855469 145.144531 12.230469 144.902344 C 12.601562 144.664062 12.78125 144.292969 12.78125 143.800781 C 12.78125 143.457031 12.6875 143.175781 12.5 142.945312 C 12.3125 142.710938 12.027344 142.566406 11.644531 142.511719 L 11.703125 141.527344 C 12.265625 141.605469 12.71875 141.851562 13.050781 142.253906 C 13.378906 142.652344 13.542969 143.15625 13.542969 143.765625 C 13.542969 144.585938 13.292969 145.214844 12.78125 145.640625 C 12.265625 146.0625 11.515625 146.273438 10.519531 146.273438 C 9.546875 146.273438 8.804688 146.058594 8.292969 145.628906 C 7.777344 145.203125 7.519531 144.582031 7.519531 143.777344 C 7.519531 143.1875 7.679688 142.695312 7.988281 142.300781 C 8.292969 141.910156 8.714844 141.664062 9.253906 141.5625 L 9.324219 142.558594 C 9.003906 142.605469 8.75 142.734375 8.5625 142.945312 C 8.371094 143.152344 8.269531 143.4375 8.269531 143.8125 C 8.269531 144.324219 8.441406 144.691406 8.785156 144.925781 C 9.121094 145.15625 9.695312 145.265625 10.507812 145.265625 Z M 6.382812 140 L 5.46875 140 L 5.46875 139.039062 L 6.382812 139.039062 Z M 13.4375 140 L 7.625 140 L 7.625 139.039062 L 13.4375 139.039062 Z M 10.730469 137.246094 C 11.40625 137.246094 11.921875 137.113281 12.277344 136.835938 C 12.636719 136.566406 12.816406 136.164062 12.816406 135.628906 C 12.816406 135.207031 12.734375 134.875 12.570312 134.621094 C 12.402344 134.375 12.183594 134.199219 11.925781 134.105469 L 12.171875 133.261719 C 13.085938 133.609375 13.542969 134.398438 13.542969 135.628906 C 13.542969 136.492188 13.292969 137.148438 12.78125 137.597656 C 12.265625 138.042969 11.503906 138.265625 10.496094 138.265625 C 9.535156 138.265625 8.804688 138.042969 8.292969 137.597656 C 7.777344 137.148438 7.519531 136.503906 7.519531 135.664062 C 7.519531 133.953125 8.546875 133.097656 10.601562 133.097656 L 10.730469 133.097656 Z M 9.992188 134.105469 C 9.382812 134.164062 8.9375 134.316406 8.65625 134.574219 C 8.375 134.832031 8.234375 135.207031 8.234375 135.6875 C 8.234375 136.15625 8.394531 136.53125 8.703125 136.800781 C 9.015625 137.078125 9.449219 137.222656 9.992188 137.246094 Z M 13.4375 128.3125 L 9.746094 128.3125 C 9.367188 128.3125 9.066406 128.351562 8.855469 128.429688 C 8.644531 128.5 8.492188 128.617188 8.398438 128.78125 C 8.304688 128.945312 8.257812 129.1875 8.257812 129.507812 C 8.257812 129.976562 8.417969 130.34375 8.738281 130.609375 C 9.0625 130.875 9.507812 131.007812 10.074219 131.007812 L 13.4375 131.007812 L 13.4375 131.980469 L 8.867188 131.980469 C 8.1875 131.980469 7.773438 131.992188 7.625 132.015625 L 7.625 131.101562 C 7.644531 131.09375 7.691406 131.089844 7.765625 131.089844 C 7.847656 131.082031 7.9375 131.078125 8.046875 131.078125 C 8.148438 131.070312 8.339844 131.0625 8.621094 131.054688 L 8.621094 131.042969 C 8.21875 130.816406 7.929688 130.558594 7.765625 130.269531 C 7.601562 129.972656 7.519531 129.609375 7.519531 129.179688 C 7.519531 128.539062 7.679688 128.074219 8 127.785156 C 8.3125 127.488281 8.832031 127.339844 9.558594 127.339844 L 13.4375 127.339844 Z M 13.390625 123.769531 C 13.476562 124.089844 13.519531 124.414062 13.519531 124.742188 C 13.519531 125.515625 13.082031 125.902344 12.207031 125.902344 L 8.328125 125.902344 L 8.328125 126.582031 L 7.625 126.582031 L 7.625 125.867188 L 6.324219 125.585938 L 6.324219 124.941406 L 7.625 124.941406 L 7.625 123.863281 L 8.328125 123.863281 L 8.328125 124.941406 L 11.996094 124.941406 C 12.277344 124.941406 12.476562 124.898438 12.59375 124.8125 C 12.707031 124.71875 12.757812 124.558594 12.757812 124.332031 C 12.757812 124.199219 12.730469 124.011719 12.675781 123.769531 Z M 11.832031 115.652344 C 12.378906 115.652344 12.800781 115.859375 13.097656 116.273438 C 13.398438 116.691406 13.542969 117.269531 13.542969 118.019531 C 13.542969 118.742188 13.425781 119.296875 13.191406 119.695312 C 12.953125 120.089844 12.578125 120.339844 12.078125 120.457031 L 11.902344 119.601562 C 12.214844 119.515625 12.449219 119.34375 12.59375 119.085938 C 12.734375 118.828125 12.804688 118.472656 12.804688 118.019531 C 12.804688 117.527344 12.730469 117.171875 12.582031 116.941406 C 12.4375 116.714844 12.207031 116.601562 11.902344 116.601562 C 11.675781 116.601562 11.492188 116.679688 11.351562 116.835938 C 11.207031 116.996094 11.082031 117.246094 10.988281 117.597656 L 10.8125 118.289062 C 10.667969 118.847656 10.527344 119.238281 10.390625 119.472656 C 10.25 119.707031 10.082031 119.890625 9.886719 120.023438 C 9.695312 120.160156 9.449219 120.222656 9.160156 120.222656 C 8.628906 120.222656 8.230469 120.035156 7.953125 119.660156 C 7.671875 119.28125 7.53125 118.730469 7.53125 118.007812 C 7.53125 117.371094 7.644531 116.859375 7.871094 116.484375 C 8.101562 116.105469 8.464844 115.859375 8.960938 115.757812 L 9.066406 116.625 C 8.808594 116.679688 8.609375 116.824219 8.46875 117.058594 C 8.328125 117.292969 8.257812 117.609375 8.257812 118.007812 C 8.257812 118.449219 8.328125 118.769531 8.457031 118.980469 C 8.59375 119.1875 8.792969 119.285156 9.066406 119.285156 C 9.230469 119.285156 9.367188 119.246094 9.476562 119.15625 C 9.578125 119.070312 9.671875 118.945312 9.746094 118.78125 C 9.828125 118.613281 9.929688 118.253906 10.0625 117.714844 C 10.1875 117.199219 10.304688 116.832031 10.414062 116.601562 C 10.527344 116.375 10.644531 116.199219 10.777344 116.074219 C 10.914062 115.941406 11.066406 115.839844 11.234375 115.769531 C 11.40625 115.695312 11.605469 115.652344 11.832031 115.652344 Z M 10.519531 109.105469 C 11.546875 109.105469 12.308594 109.332031 12.804688 109.785156 C 13.296875 110.230469 13.542969 110.878906 13.542969 111.730469 C 13.542969 112.582031 13.285156 113.226562 12.769531 113.664062 C 12.253906 114.09375 11.503906 114.308594 10.519531 114.308594 C 8.523438 114.308594 7.519531 113.4375 7.519531 111.695312 C 7.519531 110.804688 7.765625 110.152344 8.257812 109.738281 C 8.746094 109.316406 9.496094 109.105469 10.519531 109.105469 Z M 10.519531 110.125 C 9.722656 110.125 9.144531 110.246094 8.785156 110.488281 C 8.417969 110.722656 8.234375 111.121094 8.234375 111.683594 C 8.234375 112.246094 8.421875 112.65625 8.796875 112.914062 C 9.167969 113.164062 9.742188 113.289062 10.519531 113.289062 C 11.292969 113.289062 11.875 113.164062 12.253906 112.914062 C 12.636719 112.664062 12.828125 112.273438 12.828125 111.742188 C 12.828125 111.164062 12.648438 110.75 12.277344 110.5 C 11.902344 110.25 11.316406 110.125 10.519531 110.125 Z M 8.328125 106.8125 L 13.4375 106.8125 L 13.4375 107.785156 L 8.328125 107.785156 L 8.328125 108.605469 L 7.625 108.605469 L 7.625 107.785156 L 6.96875 107.785156 C 6.4375 107.785156 6.0625 107.667969 5.832031 107.433594 C 5.597656 107.199219 5.480469 106.847656 5.480469 106.367188 C 5.480469 106.105469 5.503906 105.875 5.539062 105.6875 L 6.277344 105.6875 C 6.25 105.847656 6.230469 105.988281 6.230469 106.109375 C 6.230469 106.363281 6.296875 106.542969 6.417969 106.648438 C 6.546875 106.761719 6.769531 106.8125 7.097656 106.8125 L 7.625 106.8125 L 7.625 105.6875 L 8.328125 105.6875 Z M 13.390625 102.792969 C 13.476562 103.113281 13.519531 103.4375 13.519531 103.765625 C 13.519531 104.539062 13.082031 104.925781 12.207031 104.925781 L 8.328125 104.925781 L 8.328125 105.605469 L 7.625 105.605469 L 7.625 104.890625 L 6.324219 104.609375 L 6.324219 103.964844 L 7.625 103.964844 L 7.625 102.886719 L 8.328125 102.886719 L 8.328125 103.964844 L 11.996094 103.964844 C 12.277344 103.964844 12.476562 103.921875 12.59375 103.835938 C 12.707031 103.742188 12.757812 103.582031 12.757812 103.355469 C 12.757812 103.222656 12.730469 103.035156 12.675781 102.792969 Z M 10.507812 97.128906 C 12.53125 97.128906 13.542969 97.84375 13.542969 99.273438 C 13.542969 100.164062 13.210938 100.765625 12.535156 101.078125 L 12.535156 101.101562 C 12.566406 101.085938 12.871094 101.078125 13.449219 101.078125 L 15.722656 101.078125 L 15.722656 102.050781 L 8.808594 102.050781 C 8.21875 102.050781 7.820312 102.058594 7.625 102.074219 L 7.625 101.148438 C 7.644531 101.140625 7.695312 101.132812 7.777344 101.125 C 7.867188 101.117188 8 101.109375 8.1875 101.101562 C 8.371094 101.09375 8.492188 101.089844 8.5625 101.089844 L 8.5625 101.066406 C 8.207031 100.894531 7.941406 100.667969 7.777344 100.386719 C 7.609375 100.105469 7.519531 99.734375 7.519531 99.273438 C 7.519531 98.554688 7.761719 98.019531 8.246094 97.667969 C 8.722656 97.308594 9.476562 97.128906 10.507812 97.128906 Z M 10.519531 98.148438 C 9.71875 98.148438 9.144531 98.257812 8.796875 98.476562 C 8.445312 98.695312 8.269531 99.042969 8.269531 99.519531 C 8.269531 99.902344 8.351562 100.203125 8.515625 100.421875 C 8.675781 100.632812 8.925781 100.796875 9.265625 100.914062 C 9.613281 101.023438 10.058594 101.078125 10.601562 101.078125 C 11.371094 101.078125 11.933594 100.957031 12.289062 100.714844 C 12.652344 100.472656 12.828125 100.078125 12.828125 99.53125 C 12.828125 99.046875 12.652344 98.695312 12.300781 98.476562 C 11.949219 98.257812 11.359375 98.148438 10.519531 98.148438 Z M 13.4375 96.042969 L 5.46875 96.042969 L 5.46875 95.070312 L 13.4375 95.070312 Z M 7.625 93.101562 L 11.304688 93.101562 C 11.6875 93.101562 11.992188 93.066406 12.207031 92.996094 C 12.417969 92.921875 12.570312 92.796875 12.664062 92.632812 C 12.753906 92.46875 12.792969 92.230469 12.792969 91.90625 C 12.792969 91.4375 12.636719 91.074219 12.324219 90.804688 C 12.003906 90.535156 11.558594 90.394531 10.988281 90.394531 L 7.625 90.394531 L 7.625 89.433594 L 12.195312 89.433594 C 12.875 89.433594 13.292969 89.421875 13.4375 89.398438 L 13.4375 90.3125 C 13.421875 90.324219 13.375 90.324219 13.296875 90.324219 C 13.222656 90.324219 13.128906 90.332031 13.027344 90.335938 C 12.917969 90.347656 12.722656 90.355469 12.441406 90.359375 L 12.441406 90.371094 C 12.847656 90.601562 13.132812 90.859375 13.296875 91.144531 C 13.460938 91.433594 13.542969 91.796875 13.542969 92.234375 C 13.542969 92.867188 13.386719 93.332031 13.074219 93.628906 C 12.753906 93.929688 12.226562 94.074219 11.492188 94.074219 L 7.625 94.074219 Z M 11.832031 83.675781 C 12.378906 83.675781 12.800781 83.882812 13.097656 84.296875 C 13.398438 84.710938 13.542969 85.292969 13.542969 86.042969 C 13.542969 86.761719 13.425781 87.320312 13.191406 87.71875 C 12.953125 88.109375 12.578125 88.363281 12.078125 88.480469 L 11.902344 87.625 C 12.214844 87.539062 12.449219 87.367188 12.59375 87.109375 C 12.734375 86.851562 12.804688 86.496094 12.804688 86.042969 C 12.804688 85.550781 12.730469 85.191406 12.582031 84.964844 C 12.4375 84.738281 12.207031 84.625 11.902344 84.625 C 11.675781 84.625 11.492188 84.703125 11.351562 84.859375 C 11.207031 85.015625 11.082031 85.269531 10.988281 85.621094 L 10.8125 86.3125 C 10.667969 86.867188 10.527344 87.261719 10.390625 87.496094 C 10.25 87.730469 10.082031 87.914062 9.886719 88.046875 C 9.695312 88.179688 9.449219 88.246094 9.160156 88.246094 C 8.628906 88.246094 8.230469 88.058594 7.953125 87.683594 C 7.671875 87.300781 7.53125 86.75 7.53125 86.03125 C 7.53125 85.390625 7.644531 84.882812 7.871094 84.507812 C 8.101562 84.125 8.464844 83.882812 8.960938 83.78125 L 9.066406 84.648438 C 8.808594 84.703125 8.609375 84.847656 8.46875 85.082031 C 8.328125 85.316406 8.257812 85.632812 8.257812 86.03125 C 8.257812 86.46875 8.328125 86.792969 8.457031 87.003906 C 8.59375 87.207031 8.792969 87.308594 9.066406 87.308594 C 9.230469 87.308594 9.367188 87.265625 9.476562 87.179688 C 9.578125 87.09375 9.671875 86.96875 9.746094 86.804688 C 9.828125 86.632812 9.929688 86.277344 10.0625 85.738281 C 10.1875 85.222656 10.304688 84.851562 10.414062 84.625 C 10.527344 84.398438 10.644531 84.222656 10.777344 84.097656 C 10.914062 83.964844 11.066406 83.863281 11.234375 83.792969 C 11.40625 83.714844 11.605469 83.675781 11.832031 83.675781 Z M 15.628906 82.953125 L 14.925781 82.953125 L 14.925781 76.542969 L 15.628906 76.542969 Z M 10.519531 71.132812 C 11.546875 71.132812 12.308594 71.363281 12.804688 71.8125 C 13.296875 72.257812 13.542969 72.910156 13.542969 73.757812 C 13.542969 74.609375 13.285156 75.253906 12.769531 75.691406 C 12.253906 76.121094 11.503906 76.335938 10.519531 76.335938 C 8.523438 76.335938 7.519531 75.464844 7.519531 73.722656 C 7.519531 72.832031 7.765625 72.183594 8.257812 71.765625 C 8.746094 71.34375 9.496094 71.132812 10.519531 71.132812 Z M 10.519531 72.152344 C 9.722656 72.152344 9.144531 72.277344 8.785156 72.515625 C 8.417969 72.75 8.234375 73.148438 8.234375 73.710938 C 8.234375 74.273438 8.421875 74.683594 8.796875 74.941406 C 9.167969 75.195312 9.742188 75.316406 10.519531 75.316406 C 11.292969 75.316406 11.875 75.195312 12.253906 74.941406 C 12.636719 74.691406 12.828125 74.304688 12.828125 73.769531 C 12.828125 73.191406 12.648438 72.78125 12.277344 72.527344 C 11.902344 72.277344 11.316406 72.152344 10.519531 72.152344 Z M 13.4375 66.359375 L 9.746094 66.359375 C 9.367188 66.359375 9.066406 66.398438 8.855469 66.476562 C 8.644531 66.542969 8.492188 66.664062 8.398438 66.828125 C 8.304688 66.992188 8.257812 67.234375 8.257812 67.554688 C 8.257812 68.023438 8.417969 68.390625 8.738281 68.65625 C 9.0625 68.921875 9.507812 69.054688 10.074219 69.054688 L 13.4375 69.054688 L 13.4375 70.027344 L 8.867188 70.027344 C 8.1875 70.027344 7.773438 70.035156 7.625 70.058594 L 7.625 69.144531 C 7.644531 69.140625 7.691406 69.132812 7.765625 69.132812 C 7.847656 69.128906 7.9375 69.121094 8.046875 69.121094 C 8.148438 69.117188 8.339844 69.109375 8.621094 69.101562 L 8.621094 69.089844 C 8.21875 68.863281 7.929688 68.605469 7.765625 68.316406 C 7.601562 68.019531 7.519531 67.65625 7.519531 67.226562 C 7.519531 66.585938 7.679688 66.121094 8 65.832031 C 8.3125 65.535156 8.832031 65.386719 9.558594 65.386719 L 13.4375 65.386719 Z M 11.832031 59.683594 C 12.378906 59.683594 12.800781 59.890625 13.097656 60.304688 C 13.398438 60.722656 13.542969 61.300781 13.542969 62.050781 C 13.542969 62.773438 13.425781 63.328125 13.191406 63.726562 C 12.953125 64.121094 12.578125 64.371094 12.078125 64.488281 L 11.902344 63.632812 C 12.214844 63.546875 12.449219 63.375 12.59375 63.117188 C 12.734375 62.859375 12.804688 62.503906 12.804688 62.050781 C 12.804688 61.558594 12.730469 61.203125 12.582031 60.972656 C 12.4375 60.746094 12.207031 60.632812 11.902344 60.632812 C 11.675781 60.632812 11.492188 60.710938 11.351562 60.867188 C 11.207031 61.027344 11.082031 61.277344 10.988281 61.628906 L 10.8125 62.320312 C 10.667969 62.878906 10.527344 63.269531 10.390625 63.503906 C 10.25 63.738281 10.082031 63.921875 9.886719 64.054688 C 9.695312 64.191406 9.449219 64.253906 9.160156 64.253906 C 8.628906 64.253906 8.230469 64.066406 7.953125 63.691406 C 7.671875 63.3125 7.53125 62.761719 7.53125 62.039062 C 7.53125 61.402344 7.644531 60.890625 7.871094 60.515625 C 8.101562 60.136719 8.464844 59.890625 8.960938 59.789062 L 9.066406 60.65625 C 8.808594 60.710938 8.609375 60.855469 8.46875 61.089844 C 8.328125 61.324219 8.257812 61.640625 8.257812 62.039062 C 8.257812 62.480469 8.328125 62.800781 8.457031 63.011719 C 8.59375 63.21875 8.792969 63.316406 9.066406 63.316406 C 9.230469 63.316406 9.367188 63.277344 9.476562 63.1875 C 9.578125 63.101562 9.671875 62.976562 9.746094 62.8125 C 9.828125 62.644531 9.929688 62.285156 10.0625 61.746094 C 10.1875 61.230469 10.304688 60.863281 10.414062 60.632812 C 10.527344 60.40625 10.644531 60.230469 10.777344 60.105469 C 10.914062 59.972656 11.066406 59.871094 11.234375 59.800781 C 11.40625 59.722656 11.605469 59.683594 11.832031 59.683594 Z M 10.730469 57.300781 C 11.40625 57.300781 11.921875 57.164062 12.277344 56.890625 C 12.636719 56.617188 12.816406 56.214844 12.816406 55.683594 C 12.816406 55.261719 12.734375 54.925781 12.570312 54.675781 C 12.402344 54.425781 12.183594 54.253906 11.925781 54.160156 L 12.171875 53.316406 C 13.085938 53.660156 13.542969 54.449219 13.542969 55.683594 C 13.542969 56.542969 13.292969 57.199219 12.78125 57.652344 C 12.265625 58.097656 11.503906 58.320312 10.496094 58.320312 C 9.535156 58.320312 8.804688 58.097656 8.292969 57.652344 C 7.777344 57.199219 7.519531 56.554688 7.519531 55.71875 C 7.519531 54.007812 8.546875 53.152344 10.601562 53.152344 L 10.730469 53.152344 Z M 9.992188 54.160156 C 9.382812 54.214844 8.9375 54.371094 8.65625 54.628906 C 8.375 54.886719 8.234375 55.257812 8.234375 55.742188 C 8.234375 56.210938 8.394531 56.582031 8.703125 56.855469 C 9.015625 57.128906 9.449219 57.277344 9.992188 57.300781 Z M 13.390625 49.816406 C 13.476562 50.140625 13.519531 50.460938 13.519531 50.789062 C 13.519531 51.5625 13.082031 51.949219 12.207031 51.949219 L 8.328125 51.949219 L 8.328125 52.628906 L 7.625 52.628906 L 7.625 51.914062 L 6.324219 51.632812 L 6.324219 50.988281 L 7.625 50.988281 L 7.625 49.910156 L 8.328125 49.910156 L 8.328125 50.988281 L 11.996094 50.988281 C 12.277344 50.988281 12.476562 50.949219 12.59375 50.859375 C 12.707031 50.765625 12.757812 50.609375 12.757812 50.378906 C 12.757812 50.246094 12.730469 50.058594 12.675781 49.816406 Z M 13.390625 49.816406 "/>
</svg>
