<?xml version="1.0" encoding="UTF-8" standalone="no"?>
<!-- Created with Inkscape (http://www.inkscape.org/) -->

<svg
   version="1.1"
   id="svg1"
   width="404"
   height="384"
   viewBox="0 0 404 384"
   sodipodi:docname="softplus_saturation.bias.n_patients-cropped.svg"
   inkscape:version="1.4.2 (ebf0e940, 2025-05-08)"
   xmlns:inkscape="http://www.inkscape.org/namespaces/inkscape"
   xmlns:sodipodi="http://sodipodi.sourceforge.net/DTD/sodipodi-0.dtd"
   xmlns="http://www.w3.org/2000/svg"
   xmlns:svg="http://www.w3.org/2000/svg">
  <defs
     id="defs1">
    <clipPath
       clipPathUnits="userSpaceOnUse"
       id="clipPath4">
      <path
         d="M 36.152,5.48 H 299.605 V 254.851 H 36.152 Z"
         id="path4" />
    </clipPath>
    <clipPath
       clipPathUnits="userSpaceOnUse"
       id="clipPath6">
      <path
         d="m 36.152,221 h 263.453 v 1 H 36.152 Z"
         id="path6" />
    </clipPath>
    <clipPath
       clipPathUnits="userSpaceOnUse"
       id="clipPath8">
      <path
         d="m 36.152,176 h 263.453 v 2 H 36.152 Z"
         id="path8" />
    </clipPath>
    <clipPath
       clipPathUnits="userSpaceOnUse"
       id="clipPath10">
      <path
         d="m 36.152,132 h 263.453 v 2 H 36.152 Z"
         id="path10" />
    </clipPath>
    <clipPath
       clipPathUnits="userSpaceOnUse"
       id="clipPath12">
      <path
         d="m 36.152,88 h 263.453 v 1 H 36.152 Z"
         id="path12" />
    </clipPath>
    <clipPath
       clipPathUnits="userSpaceOnUse"
       id="clipPath14">
      <path
         d="m 36.152,44 h 263.453 v 1 H 36.152 Z"
         id="path14" />
    </clipPath>
    <clipPath
       clipPathUnits="userSpaceOnUse"
       id="clipPath16">
      <path
         d="m 77,5.48 h 2 v 249.371 h -2 z"
         id="path16" />
    </clipPath>
    <clipPath
       clipPathUnits="userSpaceOnUse"
       id="clipPath18">
      <path
         d="m 137,5.48 h 2 v 249.371 h -2 z"
         id="path18" />
    </clipPath>
    <clipPath
       clipPathUnits="userSpaceOnUse"
       id="clipPath20">
      <path
         d="m 197,5.48 h 2 v 249.371 h -2 z"
         id="path20" />
    </clipPath>
    <clipPath
       clipPathUnits="userSpaceOnUse"
       id="clipPath22">
      <path
         d="m 257,5.48 h 1 v 249.371 h -1 z"
         id="path22" />
    </clipPath>
    <clipPath
       clipPathUnits="userSpaceOnUse"
       id="clipPath24">
      <path
         d="m 36.152,242 h 263.453 v 3 H 36.152 Z"
         id="path24" />
    </clipPath>
    <clipPath
       clipPathUnits="userSpaceOnUse"
       id="clipPath26">
      <path
         d="m 36.152,198 h 263.453 v 2 H 36.152 Z"
         id="path26" />
    </clipPath>
    <clipPath
       clipPathUnits="userSpaceOnUse"
       id="clipPath28">
      <path
         d="m 36.152,154 h 263.453 v 2 H 36.152 Z"
         id="path28" />
    </clipPath>
    <clipPath
       clipPathUnits="userSpaceOnUse"
       id="clipPath30">
      <path
         d="m 36.152,110 h 263.453 v 2 H 36.152 Z"
         id="path30" />
    </clipPath>
    <clipPath
       clipPathUnits="userSpaceOnUse"
       id="clipPath32">
      <path
         d="m 36.152,65 h 263.453 v 3 H 36.152 Z"
         id="path32" />
    </clipPath>
    <clipPath
       clipPathUnits="userSpaceOnUse"
       id="clipPath34">
      <path
         d="m 36.152,21 h 263.453 v 2 H 36.152 Z"
         id="path34" />
    </clipPath>
    <clipPath
       clipPathUnits="userSpaceOnUse"
       id="clipPath36">
      <path
         d="m 47,5.48 h 2 v 249.371 h -2 z"
         id="path36" />
    </clipPath>
    <clipPath
       clipPathUnits="userSpaceOnUse"
       id="clipPath38">
      <path
         d="m 107,5.48 h 2 v 249.371 h -2 z"
         id="path38" />
    </clipPath>
    <clipPath
       clipPathUnits="userSpaceOnUse"
       id="clipPath40">
      <path
         d="m 167,5.48 h 2 v 249.371 h -2 z"
         id="path40" />
    </clipPath>
    <clipPath
       clipPathUnits="userSpaceOnUse"
       id="clipPath42">
      <path
         d="m 227,5.48 h 2 v 249.371 h -2 z"
         id="path42" />
    </clipPath>
    <clipPath
       clipPathUnits="userSpaceOnUse"
       id="clipPath44">
      <path
         d="m 287,5.48 h 2 v 249.371 h -2 z"
         id="path44" />
    </clipPath>
    <clipPath
       clipPathUnits="userSpaceOnUse"
       id="clipPath54">
      <path
         d="M 36.152,5.48 H 299.605 V 254.851 H 36.152 Z"
         id="path54" />
    </clipPath>
  </defs>
  <sodipodi:namedview
     id="namedview1"
     pagecolor="#ffffff"
     bordercolor="#000000"
     borderopacity="0.25"
     inkscape:showpageshadow="2"
     inkscape:pageopacity="0.0"
     inkscape:pagecheckerboard="0"
     inkscape:deskcolor="#d1d1d1"
     inkscape:zoom="0.72776445"
     inkscape:cx="294.73822"
     inkscape:cy="151.14781"
     inkscape:window-width="1280"
     inkscape:window-height="747"
     inkscape:window-x="0"
     inkscape:window-y="25"
     inkscape:window-maximized="0"
     inkscape:current-layer="g1">
    <inkscape:page
       x="0"
       y="0"
       inkscape:label="1"
       id="page1"
       width="404"
       height="384"
       margin="0"
       bleed="0" />
  </sodipodi:namedview>
  <g
     id="g1"
     inkscape:groupmode="layer"
     inkscape:label="1">
    <path
       id="path3"
       d="M 36.152,5.477 H 299.605 V 254.848 H 36.152 Z"
       style="display:none;fill:#ffffff;fill-opacity:1;fill-rule:nonzero;stroke:none"
       transform="scale(1.3333333)"
       clip-path="url(#clipPath4)" />
    <path
       id="path5"
       d="m 36.152,221.391 h 263.45"
       style="fill:none;stroke:#ebebeb;stroke-width:0.533489;stroke-linecap:butt;stroke-linejoin:round;stroke-miterlimit:10;stroke-dasharray:none;stroke-opacity:1"
       transform="scale(1.3333333)"
       clip-path="url(#clipPath6)" />
    <path
       id="path7"
       d="m 36.152,177.145 h 263.45"
       style="fill:none;stroke:#ebebeb;stroke-width:0.533489;stroke-linecap:butt;stroke-linejoin:round;stroke-miterlimit:10;stroke-dasharray:none;stroke-opacity:1"
       transform="scale(1.3333333)"
       clip-path="url(#clipPath8)" />
    <path
       id="path9"
       d="m 36.152,132.898 h 263.45"
       style="fill:none;stroke:#ebebeb;stroke-width:0.533489;stroke-linecap:butt;stroke-linejoin:round;stroke-miterlimit:10;stroke-dasharray:none;stroke-opacity:1"
       transform="scale(1.3333333)"
       clip-path="url(#clipPath10)" />
    <path
       id="path11"
       d="m 36.152,88.652 h 263.45"
       style="fill:none;stroke:#ebebeb;stroke-width:0.533489;stroke-linecap:butt;stroke-linejoin:round;stroke-miterlimit:10;stroke-dasharray:none;stroke-opacity:1"
       transform="scale(1.3333333)"
       clip-path="url(#clipPath12)" />
    <path
       id="path13"
       d="m 36.152,44.406 h 263.45"
       style="fill:none;stroke:#ebebeb;stroke-width:0.533489;stroke-linecap:butt;stroke-linejoin:round;stroke-miterlimit:10;stroke-dasharray:none;stroke-opacity:1"
       transform="scale(1.3333333)"
       clip-path="url(#clipPath14)" />
    <path
       id="path15"
       d="M 78.062,254.848 V 5.48"
       style="fill:none;stroke:#ebebeb;stroke-width:0.533489;stroke-linecap:butt;stroke-linejoin:round;stroke-miterlimit:10;stroke-dasharray:none;stroke-opacity:1"
       transform="scale(1.3333333)"
       clip-path="url(#clipPath16)" />
    <path
       id="path17"
       d="M 137.938,254.848 V 5.48"
       style="fill:none;stroke:#ebebeb;stroke-width:0.533489;stroke-linecap:butt;stroke-linejoin:round;stroke-miterlimit:10;stroke-dasharray:none;stroke-opacity:1"
       transform="scale(1.3333333)"
       clip-path="url(#clipPath18)" />
    <path
       id="path19"
       d="M 197.812,254.848 V 5.48"
       style="fill:none;stroke:#ebebeb;stroke-width:0.533489;stroke-linecap:butt;stroke-linejoin:round;stroke-miterlimit:10;stroke-dasharray:none;stroke-opacity:1"
       transform="scale(1.3333333)"
       clip-path="url(#clipPath20)" />
    <path
       id="path21"
       d="M 257.691,254.848 V 5.48"
       style="fill:none;stroke:#ebebeb;stroke-width:0.533489;stroke-linecap:butt;stroke-linejoin:round;stroke-miterlimit:10;stroke-dasharray:none;stroke-opacity:1"
       transform="scale(1.3333333)"
       clip-path="url(#clipPath22)" />
    <path
       id="path23"
       d="m 36.152,243.516 h 263.45"
       style="fill:none;stroke:#ebebeb;stroke-width:1.06698;stroke-linecap:butt;stroke-linejoin:round;stroke-miterlimit:10;stroke-dasharray:none;stroke-opacity:1"
       transform="scale(1.3333333)"
       clip-path="url(#clipPath24)" />
    <path
       id="path25"
       d="m 36.152,199.27 h 263.45"
       style="fill:none;stroke:#ebebeb;stroke-width:1.06698;stroke-linecap:butt;stroke-linejoin:round;stroke-miterlimit:10;stroke-dasharray:none;stroke-opacity:1"
       transform="scale(1.3333333)"
       clip-path="url(#clipPath26)" />
    <path
       id="path27"
       d="m 36.152,155.02 h 263.45"
       style="fill:none;stroke:#ebebeb;stroke-width:1.06698;stroke-linecap:butt;stroke-linejoin:round;stroke-miterlimit:10;stroke-dasharray:none;stroke-opacity:1"
       transform="scale(1.3333333)"
       clip-path="url(#clipPath28)" />
    <path
       id="path29"
       d="m 36.152,110.773 h 263.45"
       style="fill:none;stroke:#ebebeb;stroke-width:1.06698;stroke-linecap:butt;stroke-linejoin:round;stroke-miterlimit:10;stroke-dasharray:none;stroke-opacity:1"
       transform="scale(1.3333333)"
       clip-path="url(#clipPath30)" />
    <path
       id="path31"
       d="m 36.152,66.527 h 263.45"
       style="fill:none;stroke:#ebebeb;stroke-width:1.06698;stroke-linecap:butt;stroke-linejoin:round;stroke-miterlimit:10;stroke-dasharray:none;stroke-opacity:1"
       transform="scale(1.3333333)"
       clip-path="url(#clipPath32)" />
    <path
       id="path33"
       d="m 36.152,22.281 h 263.45"
       style="fill:none;stroke:#ebebeb;stroke-width:1.06698;stroke-linecap:butt;stroke-linejoin:round;stroke-miterlimit:10;stroke-dasharray:none;stroke-opacity:1"
       transform="scale(1.3333333)"
       clip-path="url(#clipPath34)" />
    <path
       id="path35"
       d="M 48.125,254.848 V 5.48"
       style="fill:none;stroke:#ebebeb;stroke-width:1.06698;stroke-linecap:butt;stroke-linejoin:round;stroke-miterlimit:10;stroke-dasharray:none;stroke-opacity:1"
       transform="scale(1.3333333)"
       clip-path="url(#clipPath36)" />
    <path
       id="path37"
       d="M 108,254.848 V 5.48"
       style="fill:none;stroke:#ebebeb;stroke-width:1.06698;stroke-linecap:butt;stroke-linejoin:round;stroke-miterlimit:10;stroke-dasharray:none;stroke-opacity:1"
       transform="scale(1.3333333)"
       clip-path="url(#clipPath38)" />
    <path
       id="path39"
       d="M 167.875,254.848 V 5.48"
       style="fill:none;stroke:#ebebeb;stroke-width:1.06698;stroke-linecap:butt;stroke-linejoin:round;stroke-miterlimit:10;stroke-dasharray:none;stroke-opacity:1"
       transform="scale(1.3333333)"
       clip-path="url(#clipPath40)" />
    <path
       id="path41"
       d="M 227.754,254.848 V 5.48"
       style="fill:none;stroke:#ebebeb;stroke-width:1.06698;stroke-linecap:butt;stroke-linejoin:round;stroke-miterlimit:10;stroke-dasharray:none;stroke-opacity:1"
       transform="scale(1.3333333)"
       clip-path="url(#clipPath42)" />
    <path
       id="path43"
       d="M 287.629,254.848 V 5.48"
       style="fill:none;stroke:#ebebeb;stroke-width:1.06698;stroke-linecap:butt;stroke-linejoin:round;stroke-miterlimit:10;stroke-dasharray:none;stroke-opacity:1"
       transform="scale(1.3333333)"
       clip-path="url(#clipPath44)" />
    <path
       id="path45"
       d="M 48.125,243.516 H 287.629"
       style="fill:none;stroke:#000000;stroke-width:1.06698;stroke-linecap:butt;stroke-linejoin:round;stroke-miterlimit:10;stroke-dasharray:none;stroke-opacity:1"
       transform="scale(1.3333333)" />
    <path
       id="path46"
       d="m 48.125,102.348 59.875,76.89 59.875,19.645 59.879,14.121 59.875,3.609"
       style="fill:none;stroke:#00ff00;stroke-width:1.06698;stroke-linecap:butt;stroke-linejoin:round;stroke-miterlimit:10;stroke-dasharray:none;stroke-opacity:1"
       transform="scale(1.3333333)" />
    <path
       id="path47"
       d="M 48.125,42.484 108,83.875 l 59.875,19.527 59.879,6.758 59.875,-3.523"
       style="fill:none;stroke:#1f77b4;stroke-width:1.06698;stroke-linecap:butt;stroke-linejoin:round;stroke-miterlimit:10;stroke-dasharray:none;stroke-opacity:1"
       transform="scale(1.3333333)" />
    <path
       id="path48"
       d="m 48.125,55.836 59.875,88.976 59.875,24.672 59.879,12.899 59.875,11.613"
       style="fill:none;stroke:#ff7f0e;stroke-width:1.06698;stroke-linecap:butt;stroke-linejoin:round;stroke-miterlimit:10;stroke-dasharray:none;stroke-opacity:1"
       transform="scale(1.3333333)" />
    <path
       id="path49"
       d="m 48.125,106.785 59.875,69.231 59.875,17.464 59.879,15.293 59.875,4.008"
       style="fill:none;stroke:#9467bd;stroke-width:1.06698;stroke-linecap:butt;stroke-linejoin:round;stroke-miterlimit:10;stroke-dasharray:none;stroke-opacity:1"
       transform="scale(1.3333333)" />
    <path
       id="path50"
       d="m 48.125,96.332 59.875,71.59 59.875,30.933 59.879,12.407 59.875,3.398"
       style="fill:none;stroke:#8c564b;stroke-width:1.06698;stroke-linecap:butt;stroke-linejoin:round;stroke-miterlimit:10;stroke-dasharray:none;stroke-opacity:1"
       transform="scale(1.3333333)" />
    <path
       id="path51"
       d="m 48.125,103.25 59.875,68.77 59.875,29.394 59.879,8.77 59.875,8.007"
       style="fill:none;stroke:#17becf;stroke-width:1.06698;stroke-linecap:butt;stroke-linejoin:round;stroke-miterlimit:10;stroke-dasharray:none;stroke-opacity:1"
       transform="scale(1.3333333)" />
    <path
       id="path52"
       d="M 48.125,16.812 108,31.047 l 59.875,-12.59 59.879,10.781 59.875,3.91"
       style="fill:none;stroke:#ff0000;stroke-width:1.06698;stroke-linecap:butt;stroke-linejoin:round;stroke-miterlimit:10;stroke-dasharray:none;stroke-opacity:1"
       transform="scale(1.3333333)" />
    <path
       id="path53"
       d="M 36.152,5.477 H 299.605 V 254.848 H 36.152 Z"
       style="fill:none;stroke:#333333;stroke-width:1.06698;stroke-linecap:round;stroke-linejoin:round;stroke-miterlimit:10;stroke-dasharray:none;stroke-opacity:1"
       transform="scale(1.3333333)"
       clip-path="url(#clipPath54)" />
    <path
       id="path55"
       d="m 4.546875,-3.0351559 c 0,1.0166015 -0.1816406,1.790039 -0.5390625,2.32031246 -0.3515625,0.53320313 -0.8759766,0.796875 -1.5703125,0.796875 -0.6972656,0 -1.21875,-0.26074219 -1.5703125,-0.78515625 C 0.515625,-1.2333981 0.33984375,-2.0097653 0.33984375,-3.0351559 c 0,-1.0371094 0.16699219,-1.8164063 0.50390625,-2.3320313 0.3427734,-0.515625 0.8818359,-0.7734375 1.6171875,-0.7734375 0.7089844,0 1.2333984,0.2636719 1.5703125,0.7851563 0.3427734,0.524414 0.515625,1.2978515 0.515625,2.3203125 z m -0.7851562,0 c 0,-0.8671875 -0.1025391,-1.4941407 -0.3046875,-1.8867188 -0.1962891,-0.3984375 -0.5273438,-0.5976562 -0.9960938,-0.5976562 -0.4775391,0 -0.8203125,0.196289 -1.03125,0.5859375 C 1.2246094,-4.5498044 1.125,-3.9169919 1.125,-3.0351559 c 0,0.8613281 0.1054687,1.4882812 0.3164062,1.8867187 0.2109375,0.39843751 0.5449219,0.59765626 1.0078126,0.59765626 0.4511718,0 0.7851562,-0.20214844 0.9960937,-0.60937496 0.2109375,-0.4042969 0.3164063,-1.03125 0.3164063,-1.875 z M 5.8066406,3.1249999e-7 V -0.93749969 H 6.6386719 V 3.1249999e-7 Z M 11.53418,-3.0351559 c 0,1.0166015 -0.181641,1.790039 -0.539063,2.32031246 -0.351562,0.53320313 -0.875976,0.796875 -1.5703123,0.796875 -0.6972656,0 -1.21875,-0.26074219 -1.5703125,-0.78515625 C 7.5029297,-1.2333981 7.3271484,-2.0097653 7.3271484,-3.0351559 c 0,-1.0371094 0.1669922,-1.8164063 0.5039063,-2.3320313 0.3427734,-0.515625 0.8818359,-0.7734375 1.6171875,-0.7734375 0.7089848,0 1.2333988,0.2636719 1.5703128,0.7851563 0.342773,0.524414 0.515625,1.2978515 0.515625,2.3203125 z m -0.785157,0 c 0,-0.8671875 -0.102539,-1.4941407 -0.304687,-1.8867188 -0.196289,-0.3984375 -0.5273438,-0.5976562 -0.9960938,-0.5976562 -0.4775391,0 -0.8203125,0.196289 -1.03125,0.5859375 -0.2050781,0.383789 -0.3046875,1.0166015 -0.3046875,1.8984375 0,0.8613281 0.1054687,1.4882812 0.3164062,1.8867187 0.2109375,0.39843751 0.5449219,0.59765626 1.0078125,0.59765626 0.4511719,0 0.7851566,-0.20214844 0.9960936,-0.60937496 0.210938,-0.4042969 0.316406,-1.03125 0.316406,-1.875 z M 4.546875,-47.282226 c 0,1.016601 -0.1816406,1.790039 -0.5390625,2.320312 -0.3515625,0.533203 -0.8759766,0.796875 -1.5703125,0.796875 -0.6972656,0 -1.21875,-0.260742 -1.5703125,-0.785156 -0.3515625,-0.530273 -0.52734375,-1.306641 -0.52734375,-2.332031 0,-1.03711 0.16699219,-1.816407 0.50390625,-2.332032 0.3427734,-0.515625 0.8818359,-0.773437 1.6171875,-0.773437 0.7089844,0 1.2333984,0.263672 1.5703125,0.785156 0.3427734,0.524414 0.515625,1.297852 0.515625,2.320313 z m -0.7851562,0 c 0,-0.867188 -0.1025391,-1.494141 -0.3046875,-1.886719 -0.1962891,-0.398438 -0.5273438,-0.597656 -0.9960938,-0.597656 -0.4775391,0 -0.8203125,0.196289 -1.03125,0.585937 C 1.2246094,-48.796875 1.125,-48.164062 1.125,-47.282226 c 0,0.861328 0.1054687,1.488281 0.3164062,1.886718 0.2109375,0.398438 0.5449219,0.597657 1.0078126,0.597657 0.4511718,0 0.7851562,-0.202149 0.9960937,-0.609375 0.2109375,-0.404297 0.3164063,-1.03125 0.3164063,-1.875 z m 2.0449218,3.035156 v -0.9375 h 0.8320313 v 0.9375 z m 1.8486328,0 v -0.65625 h 1.546875 v -4.664063 l -1.3710937,0.984375 v -0.738281 l 1.4296875,-0.984375 h 0.7148437 v 5.402344 h 1.4765621 v 0.65625 z M 4.546875,-91.532226 c 0,1.016601 -0.1816406,1.790039 -0.5390625,2.320312 -0.3515625,0.533203 -0.8759766,0.796875 -1.5703125,0.796875 -0.6972656,0 -1.21875,-0.260742 -1.5703125,-0.785156 -0.3515625,-0.530273 -0.52734375,-1.306641 -0.52734375,-2.332031 0,-1.03711 0.16699219,-1.816407 0.50390625,-2.332032 0.3427734,-0.515625 0.8818359,-0.773437 1.6171875,-0.773437 0.7089844,0 1.2333984,0.263672 1.5703125,0.785156 0.3427734,0.524414 0.515625,1.297852 0.515625,2.320313 z m -0.7851562,0 c 0,-0.867188 -0.1025391,-1.494141 -0.3046875,-1.886719 -0.1962891,-0.398438 -0.5273438,-0.597656 -0.9960938,-0.597656 -0.4775391,0 -0.8203125,0.196289 -1.03125,0.585937 C 1.2246094,-93.046875 1.125,-92.414062 1.125,-91.532226 c 0,0.861328 0.1054687,1.488281 0.3164062,1.886718 0.2109375,0.398438 0.5449219,0.597657 1.0078126,0.597657 0.4511718,0 0.7851562,-0.202149 0.9960937,-0.609375 0.2109375,-0.404297 0.3164063,-1.03125 0.3164063,-1.875 z m 2.0449218,3.035156 v -0.9375 h 0.8320313 v 0.9375 z m 1.6259766,0 v -0.550781 c 0.140625,-0.328125 0.3164062,-0.621094 0.5273437,-0.878907 0.2109375,-0.257812 0.4335938,-0.486328 0.6679688,-0.691406 0.234375,-0.210937 0.4628906,-0.404297 0.6914062,-0.585937 0.225586,-0.178711 0.4277344,-0.354492 0.609375,-0.527344 0.1875001,-0.178711 0.3339841,-0.366211 0.4453121,-0.5625 0.117188,-0.193359 0.175782,-0.416016 0.175782,-0.667969 0,-0.328125 -0.09961,-0.580078 -0.292969,-0.761719 -0.196289,-0.1875 -0.4658204,-0.28125 -0.8085938,-0.28125 -0.328125,0 -0.6035156,0.09082 -0.8203125,0.269532 -0.2109375,0.18164 -0.3369141,0.430664 -0.375,0.75 l -0.7851563,-0.07031 c 0.052734,-0.483398 0.2578125,-0.867187 0.609375,-1.148437 0.3574219,-0.28711 0.8144532,-0.433594 1.3710938,-0.433594 0.6093748,0 1.0781248,0.146484 1.4062498,0.433594 0.328125,0.28125 0.492188,0.688476 0.492188,1.21875 0,0.234375 -0.05566,0.46875 -0.164063,0.703125 -0.111328,0.234375 -0.269531,0.46875 -0.480469,0.703125 -0.210937,0.228515 -0.618164,0.583008 -1.2187496,1.066406 -0.328125,0.275391 -0.5917968,0.521484 -0.7851562,0.738281 -0.1962891,0.210938 -0.3369141,0.418946 -0.421875,0.621094 H 11.44043 v 0.65625 z m -2.8857422,-47.2793 c 0,1.0166 -0.1816406,1.79004 -0.5390625,2.32032 -0.3515625,0.5332 -0.8759766,0.79687 -1.5703125,0.79687 -0.6972656,0 -1.21875,-0.26074 -1.5703125,-0.78516 -0.3515625,-0.53027 -0.52734375,-1.30664 -0.52734375,-2.33203 0,-1.03711 0.16699219,-1.8164 0.50390625,-2.33203 0.3427734,-0.51562 0.8818359,-0.77344 1.6171875,-0.77344 0.7089844,0 1.2333984,0.26368 1.5703125,0.78516 0.3427734,0.52441 0.515625,1.29785 0.515625,2.32031 z m -0.7851562,0 c 0,-0.86718 -0.1025391,-1.49414 -0.3046875,-1.88672 -0.1962891,-0.39843 -0.5273438,-0.59765 -0.9960938,-0.59765 -0.4775391,0 -0.8203125,0.19629 -1.03125,0.58594 -0.2050781,0.38378 -0.3046875,1.0166 -0.3046875,1.89843 0,0.86133 0.1054687,1.48828 0.3164062,1.88672 0.2109375,0.39844 0.5449219,0.59766 1.0078126,0.59766 0.4511718,0 0.7851562,-0.20215 0.9960937,-0.60938 0.2109375,-0.40429 0.3164063,-1.03125 0.3164063,-1.875 z m 2.0449218,3.03516 v -0.9375 h 0.8320313 v 0.9375 z m 5.6923824,-1.67578 c 0,0.5625 -0.18164,0.99609 -0.539062,1.30078 -0.351563,0.30469 -0.861328,0.45703 -1.5234376,0.45703 -0.609375,0 -1.0986328,-0.13476 -1.4648437,-0.41016 -0.3691406,-0.27246 -0.5830078,-0.68261 -0.6445313,-1.23046 l 0.796875,-0.0703 c 0.099609,0.72071 0.5390625,1.07813 1.3125,1.07813 0.3896485,0 0.6943356,-0.0937 0.9140626,-0.28125 0.225586,-0.19336 0.339844,-0.4834 0.339844,-0.86719 0,-0.32812 -0.128907,-0.58008 -0.386719,-0.76172 -0.251953,-0.1875 -0.6152344,-0.28125 -1.0898438,-0.28125 H 8.7802734 v -0.67969 h 0.4101563 c 0.4277344,0 0.7617187,-0.0879 0.9960933,-0.26953 0.234375,-0.1875 0.351563,-0.44531 0.351563,-0.77343 0,-0.31934 -0.09961,-0.57422 -0.292969,-0.76172 -0.1875,-0.1875 -0.4687498,-0.28125 -0.8437498,-0.28125 -0.3457031,0 -0.6210938,0.0908 -0.8320313,0.26953 -0.2109375,0.17285 -0.3339843,0.41601 -0.3632812,0.72656 l -0.7851563,-0.0586 c 0.061524,-0.49219 0.2695313,-0.87305 0.6210938,-1.14844 0.3515625,-0.28125 0.8027344,-0.42188 1.359375,-0.42188 0.6093748,0 1.0810548,0.14063 1.4179688,0.42188 0.333984,0.28125 0.503906,0.67383 0.503906,1.17187 0,0.39258 -0.111328,0.70899 -0.328125,0.94922 -0.210937,0.24317 -0.524414,0.40723 -0.9375,0.49219 v 0.0117 c 0.451172,0.0557 0.802735,0.21094 1.054688,0.46875 0.257812,0.25195 0.386718,0.56836 0.386718,0.94922 z m -6.952148,-45.60645 c 0,1.0166 -0.1816406,1.79004 -0.5390625,2.32032 -0.3515625,0.5332 -0.8759766,0.79687 -1.5703125,0.79687 -0.6972656,0 -1.21875,-0.26074 -1.5703125,-0.78516 -0.3515625,-0.53027 -0.52734375,-1.30664 -0.52734375,-2.33203 0,-1.03711 0.16699219,-1.8164 0.50390625,-2.33203 0.3427734,-0.51562 0.8818359,-0.77344 1.6171875,-0.77344 0.7089844,0 1.2333984,0.26368 1.5703125,0.78516 0.3427734,0.52441 0.515625,1.29785 0.515625,2.32031 z m -0.7851562,0 c 0,-0.86718 -0.1025391,-1.49414 -0.3046875,-1.88672 -0.1962891,-0.39843 -0.5273438,-0.59765 -0.9960938,-0.59765 -0.4775391,0 -0.8203125,0.19629 -1.03125,0.58594 -0.2050781,0.38378 -0.3046875,1.0166 -0.3046875,1.89843 0,0.86133 0.1054687,1.48828 0.3164062,1.88672 0.2109375,0.39844 0.5449219,0.59766 1.0078126,0.59766 0.4511718,0 0.7851562,-0.20215 0.9960937,-0.60938 0.2109375,-0.40429 0.3164063,-1.03125 0.3164063,-1.875 z m 2.0449218,3.03516 v -0.9375 h 0.8320313 v 0.9375 z m 4.9658204,-1.37109 v 1.37109 h -0.726563 v -1.37109 H 7.1865234 v -0.59766 l 2.7773438,-4.08984 h 0.8085938 v 4.07812 h 0.855469 v 0.60938 z m -0.726563,-3.8086 c -0.0088,0.0176 -0.052734,0.0908 -0.1289058,0.22266 -0.070312,0.13476 -0.1259766,0.22851 -0.1640625,0.28125 l -1.546875,2.28515 -0.234375,0.32813 -0.070312,0.082 h 2.1445313 z m -5.499023,-42.10254 c 0,1.0166 -0.1816406,1.79004 -0.5390625,2.32032 -0.3515625,0.5332 -0.8759766,0.79687 -1.5703125,0.79687 -0.6972656,0 -1.21875,-0.26074 -1.5703125,-0.78516 -0.3515625,-0.53027 -0.52734375,-1.30664 -0.52734375,-2.33203 0,-1.03711 0.16699219,-1.8164 0.50390625,-2.33203 0.3427734,-0.51562 0.8818359,-0.77344 1.6171875,-0.77344 0.7089844,0 1.2333984,0.26368 1.5703125,0.78516 0.3427734,0.52441 0.515625,1.29785 0.515625,2.32031 z m -0.7851562,0 c 0,-0.86718 -0.1025391,-1.49414 -0.3046875,-1.88672 -0.1962891,-0.39843 -0.5273438,-0.59765 -0.9960938,-0.59765 -0.4775391,0 -0.8203125,0.19629 -1.03125,0.58594 -0.2050781,0.38378 -0.3046875,1.0166 -0.3046875,1.89843 0,0.86133 0.1054687,1.48828 0.3164062,1.88672 0.2109375,0.39844 0.5449219,0.59766 1.0078126,0.59766 0.4511718,0 0.7851562,-0.20215 0.9960937,-0.60938 0.2109375,-0.40429 0.3164063,-1.03125 0.3164063,-1.875 z m 2.0449218,3.03516 v -0.9375 h 0.8320313 v 0.9375 z m 5.7041014,-1.96875 c 0,0.63281 -0.193359,1.13379 -0.574219,1.5 -0.375,0.36914 -0.899414,0.55078 -1.5703121,0.55078 -0.5625,0 -1.0195312,-0.12012 -1.3710937,-0.36328 -0.3457031,-0.24902 -0.5625,-0.60938 -0.65625,-1.07813 l 0.7851562,-0.082 c 0.1640625,0.59473 0.5800782,0.89063 1.2539063,0.89063 0.4130859,0 0.7382813,-0.12305 0.9726563,-0.375 0.240234,-0.24903 0.363281,-0.5918 0.363281,-1.03125 0,-0.38086 -0.123047,-0.69141 -0.363281,-0.92578 -0.234375,-0.23438 -0.5507813,-0.35157 -0.9492188,-0.35157 -0.2109375,0 -0.4072266,0.0352 -0.5859375,0.10547 -0.1816406,0.0645 -0.3603516,0.17285 -0.5390625,0.32813 H 7.5146484 l 0.1992188,-3.25781 H 11.15918 v 0.65625 H 8.4169922 l -0.1054688,1.92187 c 0.328125,-0.25781 0.741211,-0.38672 1.2421875,-0.38672 0.6005861,0 1.0781251,0.17578 1.4296871,0.52735 0.351563,0.35156 0.527344,0.80859 0.527344,1.37109 z m 0,0"
       style="fill:#4d4d4d;fill-opacity:1;fill-rule:nonzero;stroke:none"
       aria-label="0.0&#10;0.1&#10;0.2&#10;0.3&#10;0.4&#10;0.5"
       transform="matrix(1.3333333,0,0,1.3333333,25.625,329.30859)" />
    <path
       id="path56"
       d="m 33.41,243.516 h 2.742"
       style="fill:none;stroke:#333333;stroke-width:1.06698;stroke-linecap:butt;stroke-linejoin:round;stroke-miterlimit:10;stroke-dasharray:none;stroke-opacity:1"
       transform="scale(1.3333333)" />
    <path
       id="path57"
       d="m 33.41,199.27 h 2.742"
       style="fill:none;stroke:#333333;stroke-width:1.06698;stroke-linecap:butt;stroke-linejoin:round;stroke-miterlimit:10;stroke-dasharray:none;stroke-opacity:1"
       transform="scale(1.3333333)" />
    <path
       id="path58"
       d="m 33.41,155.02 h 2.742"
       style="fill:none;stroke:#333333;stroke-width:1.06698;stroke-linecap:butt;stroke-linejoin:round;stroke-miterlimit:10;stroke-dasharray:none;stroke-opacity:1"
       transform="scale(1.3333333)" />
    <path
       id="path59"
       d="m 33.41,110.773 h 2.742"
       style="fill:none;stroke:#333333;stroke-width:1.06698;stroke-linecap:butt;stroke-linejoin:round;stroke-miterlimit:10;stroke-dasharray:none;stroke-opacity:1"
       transform="scale(1.3333333)" />
    <path
       id="path60"
       d="m 33.41,66.527 h 2.742"
       style="fill:none;stroke:#333333;stroke-width:1.06698;stroke-linecap:butt;stroke-linejoin:round;stroke-miterlimit:10;stroke-dasharray:none;stroke-opacity:1"
       transform="scale(1.3333333)" />
    <path
       id="path61"
       d="m 33.41,22.281 h 2.742"
       style="fill:none;stroke:#333333;stroke-width:1.06698;stroke-linecap:butt;stroke-linejoin:round;stroke-miterlimit:10;stroke-dasharray:none;stroke-opacity:1"
       transform="scale(1.3333333)" />
    <path
       id="path62"
       d="m 48.125,257.59 v -2.742"
       style="fill:none;stroke:#333333;stroke-width:1.06698;stroke-linecap:butt;stroke-linejoin:round;stroke-miterlimit:10;stroke-dasharray:none;stroke-opacity:1"
       transform="scale(1.3333333)" />
    <path
       id="path63"
       d="m 108,257.59 v -2.742"
       style="fill:none;stroke:#333333;stroke-width:1.06698;stroke-linecap:butt;stroke-linejoin:round;stroke-miterlimit:10;stroke-dasharray:none;stroke-opacity:1"
       transform="scale(1.3333333)" />
    <path
       id="path64"
       d="m 167.875,257.59 v -2.742"
       style="fill:none;stroke:#333333;stroke-width:1.06698;stroke-linecap:butt;stroke-linejoin:round;stroke-miterlimit:10;stroke-dasharray:none;stroke-opacity:1"
       transform="scale(1.3333333)" />
    <path
       id="path65"
       d="m 227.754,257.59 v -2.742"
       style="fill:none;stroke:#333333;stroke-width:1.06698;stroke-linecap:butt;stroke-linejoin:round;stroke-miterlimit:10;stroke-dasharray:none;stroke-opacity:1"
       transform="scale(1.3333333)" />
    <path
       id="path66"
       d="m 287.629,257.59 v -2.742"
       style="fill:none;stroke:#333333;stroke-width:1.06698;stroke-linecap:butt;stroke-linejoin:round;stroke-miterlimit:10;stroke-dasharray:none;stroke-opacity:1"
       transform="scale(1.3333333)" />
    <path
       id="path67"
       d="M 0.66796875,9.76875e-4 V -0.65527313 H 2.2148437 V -5.3193356 L 0.84375,-4.3349606 v -0.7382813 l 1.4296875,-0.984375 h 0.7148437 v 5.40234377 H 4.4648437 V 9.76875e-4 Z M 9.5449219,-3.0341794 c 0,1.0166016 -0.1816407,1.7900391 -0.5390625,2.32031252 -0.3515625,0.53320313 -0.8759766,0.796875 -1.5703125,0.796875 -0.6972657,0 -1.21875,-0.26074218 -1.5703125,-0.78515625 C 5.5136719,-1.2324216 5.3378906,-2.0087888 5.3378906,-3.0341794 c 0,-1.0371094 0.1669922,-1.8164062 0.5039063,-2.3320312 0.3427734,-0.515625 0.8818359,-0.7734375 1.6171875,-0.7734375 0.7089843,0 1.2333984,0.2636718 1.5703125,0.7851562 0.3427734,0.5244141 0.515625,1.2978516 0.515625,2.3203125 z m -0.7851563,0 c 0,-0.8671875 -0.102539,-1.4941406 -0.3046875,-1.8867187 -0.196289,-0.3984375 -0.5273437,-0.5976563 -0.9960937,-0.5976563 -0.4775391,0 -0.8203125,0.1962891 -1.03125,0.5859375 -0.2050782,0.3837891 -0.3046875,1.0166016 -0.3046875,1.8984375 0,0.8613281 0.1054687,1.4882813 0.3164062,1.8867188 0.2109375,0.39843747 0.5449219,0.59765622 1.0078125,0.59765622 0.4511719,0 0.7851563,-0.20214843 0.9960938,-0.60937502 0.2109375,-0.4042969 0.3164062,-1.03125 0.3164062,-1.875 z M 60.319336,9.76875e-4 V -0.54980438 c 0.140625,-0.328125 0.316406,-0.62109372 0.527344,-0.87890622 0.210937,-0.2578125 0.433593,-0.4863282 0.667968,-0.6914063 0.234375,-0.2109375 0.462891,-0.4042969 0.691407,-0.5859375 0.225586,-0.1787109 0.427734,-0.3544922 0.609375,-0.5273437 0.1875,-0.178711 0.333984,-0.366211 0.445312,-0.5625 0.117188,-0.1933594 0.175781,-0.4160157 0.175781,-0.6679688 0,-0.328125 -0.09961,-0.5800781 -0.292968,-0.7617187 -0.196289,-0.1875 -0.465821,-0.28125 -0.808594,-0.28125 -0.328125,0 -0.603516,0.09082 -0.820313,0.2695312 -0.210937,0.1816406 -0.336914,0.4306641 -0.375,0.75 l -0.785156,-0.070312 c 0.05273,-0.4833984 0.257813,-0.8671875 0.609375,-1.1484375 0.357422,-0.2871094 0.814453,-0.4335937 1.371094,-0.4335937 0.609375,0 1.078125,0.1464843 1.40625,0.4335937 0.328125,0.28125 0.492187,0.6884766 0.492187,1.21875 0,0.234375 -0.05566,0.46875 -0.164062,0.703125 -0.111328,0.234375 -0.269531,0.46875 -0.480469,0.703125 -0.210937,0.2285156 -0.618164,0.5830078 -1.21875,1.0664063 -0.328125,0.2753906 -0.591797,0.5214843 -0.785156,0.7382812 -0.196289,0.2109375 -0.336914,0.41894534 -0.421875,0.62109377 h 3.164062 V 9.76875e-4 Z M 69.418945,-3.0341794 c 0,1.0166016 -0.18164,1.7900391 -0.539062,2.32031252 -0.351563,0.53320313 -0.875977,0.796875 -1.570313,0.796875 -0.697265,0 -1.21875,-0.26074218 -1.570312,-0.78515625 -0.351563,-0.53027347 -0.527344,-1.30664067 -0.527344,-2.33203127 0,-1.0371094 0.166992,-1.8164062 0.503906,-2.3320312 0.342774,-0.515625 0.881836,-0.7734375 1.617188,-0.7734375 0.708984,0 1.233398,0.2636718 1.570312,0.7851562 0.342774,0.5244141 0.515625,1.2978516 0.515625,2.3203125 z m -0.785156,0 c 0,-0.8671875 -0.102539,-1.4941406 -0.304687,-1.8867187 -0.19629,-0.3984375 -0.527344,-0.5976563 -0.996094,-0.5976563 -0.477539,0 -0.820313,0.1962891 -1.03125,0.5859375 -0.205078,0.3837891 -0.304688,1.0166016 -0.304688,1.8984375 0,0.8613281 0.105469,1.4882813 0.316407,1.8867188 0.210937,0.39843747 0.544921,0.59765622 1.007812,0.59765622 0.451172,0 0.785156,-0.20214843 0.996094,-0.60937502 0.210937,-0.4042969 0.316406,-1.03125 0.316406,-1.875 z m 55.628911,1.359375 c 0,0.5625 -0.18165,0.99609377 -0.53907,1.30078127 -0.35156,0.3046875 -0.86133,0.45703125 -1.52343,0.45703125 -0.60938,0 -1.09864,-0.13476562 -1.46485,-0.41015625 -0.36914,-0.27246093 -0.58301,-0.68261717 -0.64453,-1.23046877 l 0.79688,-0.070312 c 0.0996,0.72070315 0.53906,1.07812502 1.3125,1.07812502 0.38964,0 0.69433,-0.09375 0.91406,-0.28125 0.22558,-0.19335942 0.33984,-0.48339842 0.33984,-0.86718752 0,-0.328125 -0.1289,-0.5800781 -0.38672,-0.7617187 -0.25195,-0.1875 -0.61523,-0.28125 -1.08984,-0.28125 h -0.43359 v -0.6796875 h 0.41015 c 0.42774,0 0.76172,-0.087891 0.9961,-0.2695313 0.23437,-0.1875 0.35156,-0.4453125 0.35156,-0.7734375 0,-0.3193359 -0.0996,-0.5742187 -0.29297,-0.7617187 -0.1875,-0.1875 -0.46875,-0.28125 -0.84375,-0.28125 -0.3457,0 -0.62109,0.09082 -0.83203,0.2695312 -0.21094,0.1728516 -0.33399,0.4160156 -0.36328,0.7265625 l -0.78516,-0.058594 c 0.0615,-0.4921875 0.26953,-0.8730469 0.62109,-1.1484375 0.35157,-0.28125 0.80274,-0.421875 1.35938,-0.421875 0.60937,0 1.08105,0.140625 1.41797,0.421875 0.33398,0.28125 0.5039,0.6738281 0.5039,1.171875 0,0.3925781 -0.11132,0.7089843 -0.32812,0.9492187 -0.21094,0.2431641 -0.52441,0.4072266 -0.9375,0.4921875 v 0.011719 c 0.45117,0.055664 0.80273,0.2109375 1.05469,0.46875 0.25781,0.2519531 0.38672,0.5683593 0.38672,0.9492183 z m 5.0332,-1.359375 c 0,1.0166016 -0.18164,1.7900391 -0.53906,2.32031252 -0.35157,0.53320313 -0.87598,0.796875 -1.57032,0.796875 -0.69726,0 -1.21875,-0.26074218 -1.57031,-0.78515625 -0.35156,-0.53027347 -0.52734,-1.30664067 -0.52734,-2.33203127 0,-1.0371094 0.16699,-1.8164062 0.5039,-2.3320312 0.34278,-0.515625 0.88184,-0.7734375 1.61719,-0.7734375 0.70899,0 1.2334,0.2636718 1.57031,0.7851562 0.34278,0.5244141 0.51563,1.2978516 0.51563,2.3203125 z m -0.78516,0 c 0,-0.8671875 -0.10254,-1.4941406 -0.30469,-1.8867187 -0.19628,-0.3984375 -0.52734,-0.5976563 -0.99609,-0.5976563 -0.47754,0 -0.82031,0.1962891 -1.03125,0.5859375 -0.20508,0.3837891 -0.30469,1.0166016 -0.30469,1.8984375 0,0.8613281 0.10547,1.4882813 0.31641,1.8867188 0.21094,0.39843747 0.54492,0.59765622 1.00781,0.59765622 0.45117,0 0.78516,-0.20214843 0.9961,-0.60937502 0.21093,-0.4042969 0.3164,-1.03125 0.3164,-1.875 z m 54.89942,1.6640625 V 9.76875e-4 h -0.72657 V -1.3701169 h -2.85937 v -0.5976562 l 2.77734,-4.0898438 h 0.8086 v 4.078125 h 0.85546 v 0.609375 z m -0.72657,-3.8085937 c -0.009,0.017578 -0.0527,0.09082 -0.1289,0.2226562 -0.0703,0.1347656 -0.12598,0.2285156 -0.16407,0.28125 l -1.54687,2.2851563 -0.23438,0.328125 -0.0703,0.082031 h 2.14453 z m 6.48633,2.1445312 c 0,1.0166016 -0.18164,1.7900391 -0.53906,2.32031252 -0.35156,0.53320313 -0.87598,0.796875 -1.57031,0.796875 -0.69727,0 -1.21875,-0.26074218 -1.57032,-0.78515625 -0.35156,-0.53027347 -0.52734,-1.30664067 -0.52734,-2.33203127 0,-1.0371094 0.16699,-1.8164062 0.50391,-2.3320312 0.34277,-0.515625 0.88183,-0.7734375 1.61718,-0.7734375 0.70899,0 1.2334,0.2636718 1.57032,0.7851562 0.34277,0.5244141 0.51562,1.2978516 0.51562,2.3203125 z m -0.78515,0 c 0,-0.8671875 -0.10254,-1.4941406 -0.30469,-1.8867187 -0.19629,-0.3984375 -0.52735,-0.5976563 -0.9961,-0.5976563 -0.47753,0 -0.82031,0.1962891 -1.03125,0.5859375 -0.20507,0.3837891 -0.30468,1.0166016 -0.30468,1.8984375 0,0.8613281 0.10547,1.4882813 0.3164,1.8867188 0.21094,0.39843747 0.54492,0.59765622 1.00782,0.59765622 0.45117,0 0.78515,-0.20214843 0.99609,-0.60937502 0.21094,-0.4042969 0.31641,-1.03125 0.31641,-1.875 z m 55.64355,1.0664063 c 0,0.6328125 -0.19336,1.13378904 -0.57422,1.49999997 -0.375,0.36914063 -0.89941,0.55078125 -1.57031,0.55078125 -0.5625,0 -1.01953,-0.12011718 -1.37109,-0.36328125 -0.34571,-0.24902343 -0.5625,-0.609375 -0.65625,-1.07812497 l 0.78515,-0.082031 c 0.16406,0.59472659 0.58008,0.89062502 1.25391,0.89062502 0.41308,0 0.73828,-0.12304687 0.97265,-0.375 0.24024,-0.24902342 0.36329,-0.59179692 0.36329,-1.03125002 0,-0.3808594 -0.12305,-0.6914062 -0.36329,-0.9257812 -0.23437,-0.234375 -0.55078,-0.3515625 -0.94921,-0.3515625 -0.21094,0 -0.40723,0.035156 -0.58594,0.1054687 -0.18164,0.064453 -0.36035,0.1728516 -0.53906,0.328125 h -0.76172 l 0.19922,-3.2578125 h 3.44531 v 0.65625 h -2.74219 l -0.10547,1.921875 c 0.32813,-0.2578125 0.74121,-0.3867187 1.24219,-0.3867187 0.60058,0 1.07812,0.1757812 1.42969,0.5273437 0.35156,0.3515625 0.52734,0.8085938 0.52734,1.3710935 z m 5.02148,-1.0664063 c 0,1.0166016 -0.18164,1.7900391 -0.53906,2.32031252 -0.35156,0.53320313 -0.87597,0.796875 -1.57031,0.796875 -0.69727,0 -1.21875,-0.26074218 -1.57031,-0.78515625 -0.35157,-0.53027347 -0.52735,-1.30664067 -0.52735,-2.33203127 0,-1.0371094 0.167,-1.8164062 0.50391,-2.3320312 0.34277,-0.515625 0.88184,-0.7734375 1.61719,-0.7734375 0.70898,0 1.2334,0.2636718 1.57031,0.7851562 0.34277,0.5244141 0.51562,1.2978516 0.51562,2.3203125 z m -0.78515,0 c 0,-0.8671875 -0.10254,-1.4941406 -0.30469,-1.8867187 -0.19629,-0.3984375 -0.52734,-0.5976563 -0.99609,-0.5976563 -0.47754,0 -0.82032,0.1962891 -1.03125,0.5859375 -0.20508,0.3837891 -0.30469,1.0166016 -0.30469,1.8984375 0,0.8613281 0.10547,1.4882813 0.31641,1.8867188 0.21093,0.39843747 0.54492,0.59765622 1.00781,0.59765622 0.45117,0 0.78515,-0.20214843 0.99609,-0.60937502 0.21094,-0.4042969 0.31641,-1.03125 0.31641,-1.875 z m 0,0"
       style="fill:#4d4d4d;fill-opacity:1;fill-rule:nonzero;stroke:none"
       aria-label="1020304050"
       transform="matrix(1.3333333,0,0,1.3333333,57.5,355.66276)" />
    <path
       id="path68"
       d="M 4.4296875,6.2500135e-8 V -3.6914062 c 0,-0.3808594 -0.041016,-0.6796875 -0.1171875,-0.890625 C 4.242188,-4.7929687 4.125,-4.9453124 3.9609375,-5.0390624 3.796875,-5.1328124 3.5537109,-5.1796874 3.234375,-5.1796874 c -0.46875,0 -0.8378906,0.1611328 -1.1015625,0.4804687 C 1.8662109,-4.3769531 1.734375,-3.9316406 1.734375,-3.3632812 V 6.2500135e-8 H 0.76171875 V -4.5703124 c 0,-0.6796875 -0.0117188,-1.0927735 -0.0351563,-1.2421875 H 1.640625 c 0.00586,0.017578 0.011719,0.064453 0.011719,0.140625 0.00586,0.079102 0.011719,0.1728515 0.011719,0.28125 0.00586,0.102539 0.014648,0.2929687 0.023437,0.5742187 h 0.011719 c 0.225586,-0.4042969 0.4833985,-0.6914062 0.7734376,-0.8554687 0.2958984,-0.1640625 0.6591796,-0.2460938 1.0898437,-0.2460938 0.6386719,0 1.1044922,0.1611328 1.3945312,0.4804688 0.2958985,0.3134765 0.4453125,0.8320312 0.4453125,1.5585937 V 6.2500135e-8 Z M 5.8300781,2.1914063 v -0.703125 h 6.4101559 v 0.703125 z M 17.660156,-2.9296874 c 0,2.02441403 -0.714844,3.03515621 -2.144531,3.03515621 -0.890625,0 -1.494141,-0.33398437 -1.804687,-1.0078125 H 13.6875 c 0.01465,0.0322266 0.02344,0.33691407 0.02344,0.9140625 V 2.2851563 h -0.972657 v -6.9140625 c 0,-0.5917969 -0.0088,-0.9873047 -0.02344,-1.1835937 h 0.925781 c 0.0059,0.017578 0.01465,0.067383 0.02344,0.1523437 0.0059,0.087891 0.01465,0.2226563 0.02344,0.4101563 0.0059,0.1816406 0.01172,0.3046875 0.01172,0.375 h 0.02344 c 0.169922,-0.3574219 0.398438,-0.6210938 0.679688,-0.7851563 0.28125,-0.1699219 0.65039,-0.2578125 1.113281,-0.2578125 0.717773,0 1.253906,0.2431641 1.605469,0.7265625 0.357422,0.4775391 0.539062,1.2304688 0.539062,2.2617188 z m -1.019531,0.011719 c 0,-0.8027344 -0.111328,-1.3769531 -0.328125,-1.7226562 -0.219727,-0.3515625 -0.568359,-0.5273438 -1.042969,-0.5273438 -0.383789,0 -0.685547,0.082031 -0.902343,0.2460938 -0.210938,0.1582031 -0.375,0.4072265 -0.492188,0.75 -0.111328,0.3457031 -0.164062,0.7910156 -0.164062,1.3359375 0,0.7675781 0.120117,1.3300781 0.363281,1.6875 0.240234,0.36035153 0.635742,0.53906246 1.183594,0.53906246 0.483398,0 0.83496,-0.17578125 1.054687,-0.52734376 0.216797,-0.3515625 0.328125,-0.9433594 0.328125,-1.78125 z m 3.583008,3.02343751 c -0.585938,0 -1.028321,-0.15234375 -1.324219,-0.45703125 C 18.609375,-0.66210901 18.46582,-1.083984 18.46582,-1.6171871 c 0,-0.600586 0.19336,-1.0605469 0.585938,-1.3828125 0.398437,-0.328125 1.037109,-0.5039063 1.921875,-0.5273438 l 1.300781,-0.023437 v -0.3164062 c 0,-0.46875 -0.102539,-0.8027344 -0.304687,-1.0078125 -0.19629,-0.2021485 -0.509766,-0.3046875 -0.9375,-0.3046875 -0.430665,0 -0.747071,0.076172 -0.949219,0.2226562 -0.196289,0.140625 -0.313477,0.3720703 -0.351563,0.6914063 l -1.007812,-0.082031 c 0.164062,-1.0458984 0.940429,-1.5703125 2.332031,-1.5703125 0.726563,0 1.271484,0.1699219 1.640625,0.5039063 0.375,0.328125 0.5625,0.8144531 0.5625,1.453125 v 2.4960937 c 0,0.2900391 0.03516,0.50976564 0.105469,0.65625001 0.07617,0.140625 0.222656,0.2109375 0.433594,0.2109375 0.09375,0 0.199218,-0.0117188 0.316406,-0.0351563 v 0.59765625 c -0.243164,0.06152344 -0.492188,0.09375 -0.75,0.09375 -0.351563,0 -0.609375,-0.09375 -0.773438,-0.28125 -0.164062,-0.19335937 -0.257812,-0.4921875 -0.28125,-0.89062506 h -0.03516 c -0.24316,0.44531151 -0.52734,0.76171776 -0.855465,0.94921776 -0.328125,0.17871094 -0.726562,0.26953125 -1.195312,0.26953155 z m 0.222656,-0.7265625 c 0.351563,0 0.662109,-0.0761719 0.9375,-0.234375 0.28125,-0.16406251 0.498047,-0.38671871 0.65625,-0.66796871 0.155273,-0.28125 0.234375,-0.5683594 0.234375,-0.8671875 v -0.4804688 l -1.054687,0.023437 c -0.454102,0.00879 -0.796875,0.055664 -1.03125,0.140625 -0.234375,0.087891 -0.416016,0.2197266 -0.539063,0.3984375 -0.125977,0.1816406 -0.1875,0.4160156 -0.1875,0.703125 0,0.3134766 0.08203,0.5566406 0.246094,0.72656251 0.169922,0.17285157 0.416015,0.2578125 0.738281,0.257813 z m 6.521484,0.57421875 c -0.322265,0.08496094 -0.644531,0.12890625 -0.972656,0.12890625 -0.773437,0 -1.160156,-0.43652343 -1.160156,-1.31250001 v -3.8789062 h -0.679688 v -0.703125 h 0.714844 l 0.28125,-1.3007813 h 0.644531 v 1.3007813 h 1.078125 v 0.703125 h -1.078125 v 3.6679687 c 0,0.28125 0.04102,0.48046876 0.128907,0.59765626 0.09375,0.11132813 0.251953,0.1640625 0.480468,0.1640625 0.131836,0 0.319336,-0.0263672 0.5625,-0.0820313 z m 0.75293,-7.00781246 v -0.9140625 h 0.960938 v 0.9140625 z m 0,7.05468746250013 V -5.8124999 h 0.960938 V 6.2500135e-8 Z M 30.474609,-2.7070312 c 0,0.6738281 0.134766,1.1894531 0.410157,1.546875 0.272461,0.36035158 0.673828,0.53906251 1.207031,0.53906251 0.421875,0 0.755859,-0.0820313 1.007812,-0.24609375 0.249024,-0.16992186 0.421875,-0.38671876 0.515625,-0.64453126 l 0.84375,0.2460938 c -0.345703,0.91406246 -1.133789,1.37109371 -2.367187,1.37109371 -0.861328,0 -1.517578,-0.25195312 -1.96875,-0.76171875 -0.445313,-0.51562496 -0.667969,-1.27734376 -0.667969,-2.28515626 0,-0.9609375 0.222656,-1.6933594 0.667969,-2.203125 0.451172,-0.515625 1.095703,-0.7734375 1.933594,-0.7734375 1.710937,0 2.566406,1.0283203 2.566406,3.0820313 v 0.1289062 z m 3.140625,-0.7382812 c -0.05566,-0.609375 -0.210937,-1.0546875 -0.46875,-1.3359375 -0.257812,-0.28125 -0.629882,-0.421875 -1.113281,-0.421875 -0.46875,0 -0.84082,0.1582031 -1.113281,0.46875 -0.275391,0.3134765 -0.421875,0.7441406 -0.445313,1.2890625 z M 39.410156,6.2500135e-8 V -3.6914062 c 0,-0.3808594 -0.04102,-0.6796875 -0.117187,-0.890625 -0.07031,-0.2109375 -0.1875,-0.3632812 -0.351563,-0.4570312 -0.164062,-0.09375 -0.407226,-0.140625 -0.726562,-0.140625 -0.46875,0 -0.837891,0.1611328 -1.101563,0.4804687 -0.266601,0.3222656 -0.398437,0.7675781 -0.398437,1.3359375 V 6.2500135e-8 H 35.742187 V -4.5703124 c 0,-0.6796875 -0.01172,-1.0927735 -0.03516,-1.2421875 h 0.914063 c 0.0059,0.017578 0.01172,0.064453 0.01172,0.140625 0.0059,0.079102 0.01172,0.1728515 0.01172,0.28125 0.0059,0.102539 0.01465,0.2929687 0.02344,0.5742187 h 0.01172 c 0.225586,-0.4042969 0.483399,-0.6914062 0.773438,-0.8554687 0.295898,-0.1640625 0.65918,-0.2460938 1.089844,-0.2460938 0.638672,0 1.104492,0.1611328 1.394531,0.4804688 0.295898,0.3134765 0.445312,0.8320312 0.445312,1.5585937 V 6.2500135e-8 Z M 43.951172,-0.04687494 c -0.322266,0.08496094 -0.644531,0.12890625 -0.972656,0.12890625 -0.773438,0 -1.160157,-0.43652343 -1.160157,-1.31250001 v -3.8789062 h -0.679687 v -0.703125 h 0.714844 l 0.28125,-1.3007813 h 0.644531 v 1.3007813 h 1.078125 v 0.703125 h -1.078125 v 3.6679687 c 0,0.28125 0.04102,0.48046876 0.128906,0.59765626 0.09375,0.11132813 0.251953,0.1640625 0.480469,0.1640625 0.131836,0 0.319336,-0.0263672 0.5625,-0.0820313 z m 5.124023,-1.55859376 c 0,0.5478516 -0.208008,0.96972658 -0.621093,1.26562501 -0.416016,0.29882813 -0.996094,0.4453125 -1.746094,0.4453125 -0.720703,0 -1.277344,-0.1171875 -1.675781,-0.3515625 -0.392579,-0.24023437 -0.644532,-0.61230468 -0.761719,-1.11328121 l 0.855469,-0.1757813 c 0.08496,0.3134766 0.257812,0.54492189 0.515625,0.69140626 0.257812,0.140625 0.612304,0.2109375 1.066406,0.2109375 0.492187,0 0.849609,-0.0732422 1.078125,-0.22265625 0.225586,-0.14648441 0.339844,-0.37500001 0.339844,-0.67968751 0,-0.2255859 -0.0791,-0.4101562 -0.234375,-0.5507812 -0.158204,-0.1464844 -0.410157,-0.2695313 -0.761719,-0.3632813 l -0.691406,-0.1757812 c -0.556641,-0.1464844 -0.949219,-0.2871094 -1.183594,-0.421875 -0.234375,-0.140625 -0.418946,-0.3076172 -0.550781,-0.5039063 -0.134766,-0.1933594 -0.199219,-0.4365234 -0.199219,-0.7265625 0,-0.5302734 0.1875,-0.9316406 0.5625,-1.2070312 0.380859,-0.28125 0.93164,-0.421875 1.652344,-0.421875 0.638671,0 1.148437,0.1142578 1.523437,0.3398437 0.380859,0.2285156 0.624023,0.5917969 0.726563,1.0898438 l -0.867188,0.1054687 c -0.05566,-0.2578125 -0.199219,-0.4570312 -0.433594,-0.5976562 -0.234375,-0.140625 -0.550781,-0.2109375 -0.949218,-0.2109375 -0.439454,0 -0.761719,0.067383 -0.972657,0.1992187 -0.205078,0.1347656 -0.304687,0.3369141 -0.304687,0.609375 0,0.1640625 0.04102,0.3017578 0.128906,0.4101563 0.08496,0.102539 0.210938,0.1933593 0.375,0.2695312 0.169922,0.079102 0.527344,0.1845703 1.066406,0.3164063 0.515625,0.1259765 0.884766,0.243164 1.113282,0.3515625 0.225585,0.1113281 0.401367,0.2314453 0.527343,0.3632812 0.131836,0.1347656 0.234375,0.2871094 0.304688,0.4570313 0.07617,0.1728515 0.117187,0.3720703 0.117187,0.5976562 z m 0,0"
       style="fill:#000000;fill-opacity:1;fill-rule:nonzero;stroke:none"
       aria-label="n_patients"
       transform="matrix(1.3333333,0,0,1.3333333,190.5,372.63672)" />
    <path
       id="path69"
       d="m 6.7626948,-2.1328129 c 0,0.6738281 -0.2460937,1.19531246 -0.7382812,1.57031246 C 5.5322261,-0.18750044 4.8466792,-4.375e-7 3.9736323,-4.375e-7 H 0.90331981 V -7.5703129 H 3.6572261 c 1.7724609,0 2.6601562,0.6152343 2.6601562,1.8398437 0,0.4453125 -0.1259766,0.8203125 -0.375,1.125 -0.2519531,0.3046875 -0.6064453,0.5097656 -1.0664062,0.609375 0.6005859,0.079102 1.0664062,0.28125 1.3945312,0.609375 0.328125,0.328125 0.4921875,0.7470703 0.4921875,1.2539063 z M 5.2861323,-5.6132817 c 0,-0.4042969 -0.140625,-0.6943359 -0.421875,-0.8671875 C 4.5888667,-6.6591801 4.1874995,-6.7500004 3.6572261,-6.7500004 H 1.9345698 v 2.4023437 h 1.7226563 c 0.5449218,0 0.9521484,-0.099609 1.21875,-0.3046875 0.2724609,-0.2109375 0.4101562,-0.5302734 0.4101562,-0.9609375 z m 0.4335938,3.3984375 c 0,-0.890625 -0.6269532,-1.3359375 -1.875,-1.3359375 H 1.9345698 v 2.73046876 h 1.9921875 c 0.6240234,0 1.078125,-0.1171875 1.359375,-0.35156246 0.2871094,-0.234375 0.4335938,-0.5800782 0.4335938,-1.0429688 z m 2.0039062,-4.8398437 v -0.9140625 h 0.9609375 v 0.9140625 z m 0,7.0546874625 V -5.8125004 H 8.6845698 V -4.375e-7 Z M 11.21289,0.10546831 c -0.585937,0 -1.02832,-0.15234375 -1.3242186,-0.45703125 C 9.5986323,-0.66210981 9.4550776,-1.0839848 9.4550776,-1.6171879 c 0,-0.600586 0.1933594,-1.0605469 0.5859374,-1.3828125 0.398438,-0.328125 1.037109,-0.5039063 1.921875,-0.5273438 l 1.300781,-0.023437 v -0.3164062 c 0,-0.46875 -0.102539,-0.8027344 -0.304687,-1.0078125 -0.196289,-0.2021485 -0.509766,-0.3046875 -0.9375,-0.3046875 -0.430664,0 -0.74707,0.076172 -0.949219,0.2226562 -0.196289,0.140625 -0.313476,0.3720703 -0.351562,0.6914063 l -1.0078129,-0.082031 c 0.1640625,-1.0458984 0.9404299,-1.5703125 2.3320309,-1.5703125 0.726563,0 1.271485,0.1699219 1.640625,0.5039063 0.375,0.328125 0.5625,0.8144531 0.5625,1.453125 v 2.4960937 c 0,0.2900391 0.03516,0.50976564 0.105469,0.65625001 0.07617,0.140625 0.222656,0.2109375 0.433594,0.2109375 0.09375,0 0.199219,-0.0117188 0.316406,-0.0351563 v 0.59765625 c -0.243164,0.06152344 -0.492187,0.09375 -0.75,0.09375 -0.351562,0 -0.609375,-0.09375 -0.773437,-0.28125 -0.164063,-0.19335937 -0.257813,-0.4921875 -0.28125,-0.89062506 h -0.03516 c -0.243164,0.44531256 -0.527343,0.76171881 -0.855468,0.94921881 -0.328122,0.17871019 -0.72656,0.2695305 -1.19531,0.2695305 z m 0.222656,-0.7265625 c 0.351563,0 0.66211,-0.0761719 0.9375,-0.234375 0.28125,-0.16406251 0.498047,-0.38671871 0.65625,-0.66796871 0.155274,-0.28125 0.234375,-0.5683594 0.234375,-0.8671875 v -0.4804688 l -1.054687,0.023437 c -0.454102,0.00879 -0.796875,0.055664 -1.03125,0.140625 -0.234375,0.087891 -0.416016,0.2197266 -0.539063,0.3984375 -0.125976,0.1816406 -0.1875,0.4160156 -0.1875,0.703125 0,0.3134766 0.08203,0.5566406 0.246094,0.72656251 0.169922,0.17285157 0.416016,0.2578125 0.738281,0.257813 z m 8.657227,-0.98437501 c 0,0.5478516 -0.208008,0.96972658 -0.621094,1.26562501 -0.416015,0.29882813 -0.996094,0.4453125 -1.746094,0.4453125 -0.720703,0 -1.277343,-0.1171875 -1.675781,-0.3515625 -0.392578,-0.24023437 -0.644531,-0.61230468 -0.761719,-1.11328121 l 0.855469,-0.1757813 c 0.08496,0.3134766 0.257813,0.54492189 0.515625,0.69140626 0.257813,0.140625 0.612305,0.2109375 1.066406,0.2109375 0.492188,0 0.84961,-0.0732422 1.078125,-0.22265625 0.225586,-0.14648441 0.339844,-0.37500001 0.339844,-0.67968751 0,-0.2255859 -0.0791,-0.4101562 -0.234375,-0.5507812 -0.158203,-0.1464844 -0.410156,-0.2695313 -0.761719,-0.3632813 l -0.691406,-0.1757812 c -0.55664,-0.1464844 -0.949219,-0.2871094 -1.183594,-0.421875 -0.234375,-0.140625 -0.418945,-0.3076172 -0.550781,-0.5039063 -0.134765,-0.1933594 -0.199219,-0.4365234 -0.199219,-0.7265625 0,-0.5302734 0.1875,-0.9316406 0.5625,-1.2070312 0.38086,-0.28125 0.931641,-0.421875 1.652344,-0.421875 0.638672,0 1.148438,0.1142578 1.523438,0.3398437 0.380859,0.2285156 0.624023,0.5917969 0.726562,1.0898438 l -0.867187,0.1054687 c -0.05566,-0.2578125 -0.199219,-0.4570312 -0.433594,-0.5976562 -0.234375,-0.140625 -0.550781,-0.2109375 -0.949219,-0.2109375 -0.439453,0 -0.761719,0.067383 -0.972656,0.1992187 -0.205078,0.1347656 -0.304688,0.3369141 -0.304688,0.609375 0,0.1640625 0.04102,0.3017578 0.128907,0.4101563 0.08496,0.102539 0.210937,0.1933593 0.375,0.2695312 0.169922,0.079102 0.527343,0.1845703 1.066406,0.3164063 0.515625,0.1259765 0.884766,0.243164 1.113281,0.3515625 0.225586,0.1113281 0.401367,0.2314453 0.527344,0.3632812 0.131836,0.1347656 0.234375,0.2871094 0.304687,0.4570313 0.07617,0.1728515 0.117188,0.3720703 0.117188,0.5976562 z m 9.547851,-1.3125 c 0,1.0253906 -0.228515,1.7871094 -0.679687,2.28515626 -0.445313,0.4921875 -1.095703,0.73828125 -1.945313,0.73828125 -0.852539,0 -1.49707,-0.2578125 -1.933593,-0.7734375 -0.430664,-0.51562501 -0.644532,-1.26562501 -0.644532,-2.25000001 0,-1.9980469 0.870118,-3 2.613282,-3 0.890625,0 1.541015,0.2460938 1.957031,0.7382813 0.421875,0.4863281 0.632812,1.2392578 0.632812,2.2617187 z m -1.019531,0 c 0,-0.796875 -0.123047,-1.3740234 -0.363281,-1.734375 -0.234375,-0.3662109 -0.632813,-0.5507812 -1.195313,-0.5507812 -0.5625,0 -0.972656,0.1875 -1.230468,0.5625 -0.251953,0.3691406 -0.375,0.9433593 -0.375,1.7226562 0,0.7734375 0.123047,1.3535156 0.375,1.734375 0.249023,0.38378908 0.638672,0.57421876 1.171875,0.57421876 0.577148,0 0.990234,-0.18164062 1.242187,-0.55078126 0.249024,-0.375 0.375,-0.9609375 0.375,-1.7578125 z m 3.298828,-2.1914062 V -4.375e-7 H 30.947265 V -5.1093754 h -0.820312 v -0.703125 h 0.820312 v -0.65625 c 0,-0.5302735 0.117188,-0.9082032 0.351563,-1.1367188 0.234375,-0.234375 0.588867,-0.3515625 1.066406,-0.3515625 0.263672,0 0.492187,0.020508 0.679687,0.058594 v 0.7382812 c -0.158203,-0.029297 -0.298828,-0.046875 -0.421875,-0.046875 -0.251953,0 -0.430664,0.064453 -0.539062,0.1875 -0.111328,0.1259766 -0.164063,0.3515625 -0.164063,0.6796875 v 0.5273438 h 1.125 v 0.703125 z m 5.516602,2.1796875 c 0,0.7734375 0.120117,1.3476562 0.363281,1.7226562 0.240235,0.36914064 0.609375,0.55078126 1.101563,0.55078126 0.342773,0 0.626953,-0.09375 0.855468,-0.28125 0.234375,-0.18749996 0.37793,-0.47167966 0.433594,-0.85546876 l 0.984375,0.058594 c -0.0791,0.5625 -0.322265,1.01367184 -0.726562,1.34765621 -0.398438,0.328125 -0.902344,0.4921875 -1.511719,0.4921875 -0.820313,0 -1.447266,-0.25195312 -1.875,-0.76171875 C 36.639648,-1.1718754 36.42871,-1.9248051 36.42871,-2.9179692 c 0,-0.9755859 0.213868,-1.7167969 0.644532,-2.2265625 0.427734,-0.515625 1.045898,-0.7734375 1.851562,-0.7734375 0.591797,0 1.083985,0.1582031 1.476563,0.46875 0.389648,0.3046875 0.635742,0.7265625 0.738281,1.265625 l -0.996094,0.070312 c -0.04687,-0.3193359 -0.175781,-0.5742187 -0.386719,-0.7617187 -0.205078,-0.1933594 -0.492187,-0.2929688 -0.867187,-0.2929688 -0.509766,0 -0.878906,0.1728516 -1.113281,0.515625 -0.228516,0.3369141 -0.339844,0.9111328 -0.339844,1.7226568 z m 10.177734,0.011719 c 0,1.0253906 -0.228515,1.7871094 -0.679687,2.28515626 -0.445313,0.4921875 -1.095703,0.73828125 -1.945313,0.73828125 -0.852539,0 -1.49707,-0.2578125 -1.933593,-0.7734375 -0.430665,-0.51562501 -0.644532,-1.26562501 -0.644532,-2.25000001 0,-1.9980469 0.870117,-3 2.613282,-3 0.890625,0 1.541015,0.2460938 1.957031,0.7382813 0.421875,0.4863281 0.632812,1.2392578 0.632812,2.2617187 z m -1.019531,0 c 0,-0.796875 -0.123047,-1.3740234 -0.363281,-1.734375 -0.234375,-0.3662109 -0.632813,-0.5507812 -1.195313,-0.5507812 -0.5625,0 -0.972656,0.1875 -1.230468,0.5625 -0.251954,0.3691406 -0.375,0.9433593 -0.375,1.7226562 0,0.7734375 0.123046,1.3535156 0.375,1.734375 0.249023,0.38378908 0.638671,0.57421876 1.171875,0.57421876 0.577148,0 0.990234,-0.18164062 1.242187,-0.55078126 0.249023,-0.375 0.375,-0.9609375 0.375,-1.7578125 z m 2.853516,0.2109375 c 0,0.6738281 0.134765,1.1894531 0.410156,1.546875 0.272461,0.36035158 0.673828,0.53906251 1.207031,0.53906251 0.421875,0 0.75586,-0.0820313 1.007813,-0.24609375 0.249023,-0.16992186 0.421875,-0.38671876 0.515625,-0.64453126 l 0.84375,0.2460938 c -0.345703,0.91406246 -1.133789,1.37109371 -2.367188,1.37109371 -0.861328,0 -1.517578,-0.25195312 -1.96875,-0.76171875 C 48.651367,-1.1718754 48.42871,-1.9335942 48.42871,-2.9414067 c 0,-0.9609375 0.222657,-1.6933594 0.667969,-2.203125 0.451172,-0.515625 1.095703,-0.7734375 1.933594,-0.7734375 1.710937,0 2.566406,1.0283203 2.566406,3.0820313 v 0.1289062 z m 3.140625,-0.7382812 c -0.05566,-0.609375 -0.210938,-1.0546875 -0.46875,-1.3359375 -0.257813,-0.28125 -0.629883,-0.421875 -1.113282,-0.421875 -0.46875,0 -0.84082,0.1582031 -1.113281,0.46875 -0.27539,0.3134765 -0.421875,0.7441406 -0.445312,1.2890625 z m 3.310547,-1.6640625 V -4.375e-7 H 54.926757 V -5.1093754 h -0.820312 v -0.703125 h 0.820312 v -0.65625 c 0,-0.5302735 0.117188,-0.9082032 0.351563,-1.1367188 0.234375,-0.234375 0.588867,-0.3515625 1.066406,-0.3515625 0.263672,0 0.492188,0.020508 0.679688,0.058594 v 0.7382812 c -0.158204,-0.029297 -0.298829,-0.046875 -0.421875,-0.046875 -0.251954,0 -0.430665,0.064453 -0.539063,0.1875 -0.111328,0.1259766 -0.164062,0.3515625 -0.164062,0.6796875 v 0.5273438 h 1.125 v 0.703125 z m 2.99414,0 V -4.375e-7 H 57.920898 V -5.1093754 h -0.820313 v -0.703125 h 0.820313 v -0.65625 c 0,-0.5302735 0.117187,-0.9082032 0.351562,-1.1367188 0.234375,-0.234375 0.588868,-0.3515625 1.066407,-0.3515625 0.263672,0 0.492187,0.020508 0.679687,0.058594 v 0.7382812 c -0.158203,-0.029297 -0.298828,-0.046875 -0.421875,-0.046875 -0.251953,0 -0.430664,0.064453 -0.539062,0.1875 -0.111328,0.1259766 -0.164063,0.3515625 -0.164063,0.6796875 v 0.5273438 h 1.125 v 0.703125 z m 1.78418,-1.9453125 v -0.9140625 h 0.960937 v 0.9140625 z m 0,7.0546874625 V -5.8125004 h 0.960937 V -4.375e-7 Z M 63.405273,-2.9296879 c 0,0.7734375 0.120117,1.3476562 0.363281,1.7226562 0.240235,0.36914064 0.609375,0.55078126 1.101563,0.55078126 0.342773,0 0.626953,-0.09375 0.855468,-0.28125 0.234375,-0.18749996 0.37793,-0.47167966 0.433594,-0.85546876 l 0.984375,0.058594 c -0.0791,0.5625 -0.322265,1.01367184 -0.726562,1.34765621 -0.398438,0.328125 -0.902344,0.4921875 -1.511719,0.4921875 -0.820313,0 -1.447266,-0.25195312 -1.875,-0.76171875 C 62.608398,-1.1718754 62.39746,-1.9248051 62.39746,-2.9179692 c 0,-0.9755859 0.213868,-1.7167969 0.644532,-2.2265625 0.427734,-0.515625 1.045898,-0.7734375 1.851562,-0.7734375 0.591797,0 1.083985,0.1582031 1.476563,0.46875 0.389648,0.3046875 0.635742,0.7265625 0.738281,1.265625 l -0.996094,0.070312 c -0.04687,-0.3193359 -0.175781,-0.5742187 -0.386719,-0.7617187 -0.205078,-0.1933594 -0.492187,-0.2929688 -0.867187,-0.2929688 -0.509766,0 -0.878906,0.1728516 -1.113281,0.515625 -0.228516,0.3369141 -0.339844,0.9111328 -0.339844,1.7226568 z m 5.267578,-4.125 v -0.9140625 h 0.960938 v 0.9140625 z m 0,7.0546874625 V -5.8125004 h 0.960938 V -4.375e-7 Z M 71.415039,-2.7070317 c 0,0.6738281 0.134765,1.1894531 0.410156,1.546875 0.272461,0.36035158 0.673828,0.53906251 1.207031,0.53906251 0.421875,0 0.755859,-0.0820313 1.007813,-0.24609375 0.249023,-0.16992186 0.421875,-0.38671876 0.515625,-0.64453126 l 0.84375,0.2460938 c -0.345704,0.91406246 -1.13379,1.37109371 -2.367188,1.37109371 -0.861328,0 -1.517578,-0.25195312 -1.96875,-0.76171875 -0.445312,-0.51562496 -0.667969,-1.27734376 -0.667969,-2.28515626 0,-0.9609375 0.222657,-1.6933594 0.667969,-2.203125 0.451172,-0.515625 1.095703,-0.7734375 1.933594,-0.7734375 1.710937,0 2.566406,1.0283203 2.566406,3.0820313 v 0.1289062 z m 3.140625,-0.7382812 c -0.05566,-0.609375 -0.210938,-1.0546875 -0.46875,-1.3359375 -0.257813,-0.28125 -0.629883,-0.421875 -1.113282,-0.421875 -0.46875,0 -0.84082,0.1582031 -1.113281,0.46875 -0.275391,0.3134765 -0.421875,0.7441406 -0.445312,1.2890625 z M 80.362304,-4.375e-7 V -3.6914067 c 0,-0.3808594 -0.04102,-0.6796875 -0.117187,-0.890625 -0.07031,-0.2109375 -0.1875,-0.3632812 -0.351563,-0.4570312 -0.164062,-0.09375 -0.407226,-0.140625 -0.726562,-0.140625 -0.46875,0 -0.837891,0.1611328 -1.101563,0.4804687 -0.266601,0.3222656 -0.398437,0.7675781 -0.398437,1.3359375 V -4.375e-7 H 76.694335 V -4.5703129 c 0,-0.6796875 -0.01172,-1.0927735 -0.03516,-1.2421875 h 0.914063 c 0.0059,0.017578 0.01172,0.064453 0.01172,0.140625 0.0059,0.079102 0.01172,0.1728515 0.01172,0.28125 0.0059,0.102539 0.01465,0.2929687 0.02344,0.5742187 h 0.01172 c 0.225586,-0.4042969 0.483399,-0.6914062 0.773438,-0.8554687 0.295898,-0.1640625 0.65918,-0.2460938 1.089844,-0.2460938 0.638672,0 1.104492,0.1611328 1.394531,0.4804688 0.295898,0.3134765 0.445312,0.8320312 0.445312,1.5585937 V -4.375e-7 Z M 84.90332,-0.04687544 c -0.322266,0.08496094 -0.644531,0.12890625 -0.972656,0.12890625 -0.773438,0 -1.160157,-0.43652343 -1.160157,-1.31250001 V -5.1093754 H 82.09082 v -0.703125 h 0.714844 l 0.28125,-1.3007813 h 0.644531 v 1.3007813 h 1.078125 v 0.703125 h -1.078125 v 3.6679687 c 0,0.28125 0.04102,0.48046876 0.128906,0.59765626 0.09375,0.11132813 0.251953,0.1640625 0.480469,0.1640625 0.131836,0 0.319336,-0.0263672 0.5625,-0.0820313 z m 8.118164,-1.55859376 c 0,0.5478516 -0.208008,0.96972658 -0.621094,1.26562501 -0.416016,0.29882813 -0.996094,0.4453125 -1.746094,0.4453125 -0.720703,0 -1.277343,-0.1171875 -1.675781,-0.3515625 -0.392578,-0.24023437 -0.644531,-0.61230468 -0.761719,-1.11328121 l 0.855469,-0.1757813 c 0.08496,0.3134766 0.257813,0.54492189 0.515625,0.69140626 0.257813,0.140625 0.612305,0.2109375 1.066406,0.2109375 0.492188,0 0.84961,-0.0732422 1.078125,-0.22265625 0.225586,-0.14648441 0.339844,-0.37500001 0.339844,-0.67968751 0,-0.2255859 -0.0791,-0.4101562 -0.234375,-0.5507812 -0.158203,-0.1464844 -0.410156,-0.2695313 -0.761719,-0.3632813 l -0.691406,-0.1757812 c -0.556641,-0.1464844 -0.949219,-0.2871094 -1.183594,-0.421875 -0.234375,-0.140625 -0.418945,-0.3076172 -0.550781,-0.5039063 -0.134766,-0.1933594 -0.199219,-0.4365234 -0.199219,-0.7265625 0,-0.5302734 0.1875,-0.9316406 0.5625,-1.2070312 0.38086,-0.28125 0.931641,-0.421875 1.652344,-0.421875 0.638672,0 1.148438,0.1142578 1.523438,0.3398437 0.380859,0.2285156 0.624023,0.5917969 0.726562,1.0898438 l -0.867187,0.1054687 c -0.05566,-0.2578125 -0.199219,-0.4570312 -0.433594,-0.5976562 -0.234375,-0.140625 -0.550781,-0.2109375 -0.949219,-0.2109375 -0.439453,0 -0.761719,0.067383 -0.972656,0.1992187 -0.205078,0.1347656 -0.304688,0.3369141 -0.304688,0.609375 0,0.1640625 0.04102,0.3017578 0.128907,0.4101563 0.08496,0.102539 0.210937,0.1933593 0.375,0.2695312 0.169921,0.079102 0.527343,0.1845703 1.066406,0.3164063 0.515625,0.1259765 0.884765,0.243164 1.113281,0.3515625 0.225586,0.1113281 0.401367,0.2314453 0.527344,0.3632812 0.131836,0.1347656 0.234375,0.2871094 0.304687,0.4570313 0.07617,0.1728515 0.117188,0.3720703 0.117188,0.5976562 z m 6.544922,-1.3125 c 0,1.0253906 -0.228516,1.7871094 -0.679688,2.28515626 -0.445312,0.4921875 -1.095703,0.73828125 -1.945312,0.73828125 -0.852539,0 -1.497071,-0.2578125 -1.933594,-0.7734375 -0.430664,-0.51562501 -0.644531,-1.26562501 -0.644531,-2.25000001 0,-1.9980469 0.870117,-3 2.613281,-3 0.890625,0 1.541016,0.2460938 1.957031,0.7382813 0.421875,0.4863281 0.632813,1.2392578 0.632813,2.2617187 z m -1.019532,0 c 0,-0.796875 -0.123046,-1.3740234 -0.363281,-1.734375 -0.234375,-0.3662109 -0.632812,-0.5507812 -1.195312,-0.5507812 -0.5625,0 -0.972657,0.1875 -1.230469,0.5625 -0.251953,0.3691406 -0.375,0.9433593 -0.375,1.7226562 0,0.7734375 0.123047,1.3535156 0.375,1.734375 0.249023,0.38378908 0.638672,0.57421876 1.171875,0.57421876 0.577148,0 0.990234,-0.18164062 1.242187,-0.55078126 0.249024,-0.375 0.375,-0.9609375 0.375,-1.7578125 z m 3.310546,-2.1914062 V -4.375e-7 h -0.97265 V -5.1093754 h -0.82032 v -0.703125 h 0.82032 v -0.65625 c 0,-0.5302735 0.11718,-0.9082032 0.35156,-1.1367188 0.23437,-0.234375 0.58886,-0.3515625 1.0664,-0.3515625 0.26368,0 0.49219,0.020508 0.67969,0.058594 v 0.7382812 c -0.1582,-0.029297 -0.29883,-0.046875 -0.42187,-0.046875 -0.25196,0 -0.43067,0.064453 -0.53907,0.1875 -0.11132,0.1259766 -0.16406,0.3515625 -0.16406,0.6796875 v 0.5273438 h 1.125 v 0.703125 z m 4.01367,5.06249996 c -0.32226,0.08496094 -0.64453,0.12890625 -0.97265,0.12890625 -0.77344,0 -1.16016,-0.43652343 -1.16016,-1.31250001 v -3.8789062 h -0.67969 v -0.703125 h 0.71485 l 0.28125,-1.3007813 h 0.64453 v 1.3007813 h 1.07812 v 0.703125 h -1.07812 v 3.6679687 c 0,0.28125 0.041,0.48046876 0.1289,0.59765626 0.0937,0.11132813 0.25196,0.1640625 0.48047,0.1640625 0.13184,0 0.31934,-0.0263672 0.5625,-0.0820313 z m 5.67481,-2.88281246 c 0,2.02441403 -0.71485,3.03515621 -2.14453,3.03515621 -0.89063,0 -1.49414,-0.33398437 -1.80469,-1.0078125 h -0.0234 c 0.0147,0.0322266 0.0234,0.33691407 0.0234,0.9140625 V 2.2851558 h -0.97266 v -6.9140625 c 0,-0.5917969 -0.009,-0.9873047 -0.0234,-1.1835937 h 0.92578 c 0.006,0.017578 0.0147,0.067383 0.0234,0.1523437 0.006,0.087891 0.0146,0.2226563 0.0234,0.4101563 0.006,0.1816406 0.0117,0.3046875 0.0117,0.375 h 0.0234 c 0.16992,-0.3574219 0.39844,-0.6210938 0.67969,-0.7851563 0.28125,-0.1699219 0.65039,-0.2578125 1.11328,-0.2578125 0.71777,0 1.2539,0.2431641 1.60547,0.7265625 0.35742,0.4775391 0.53906,1.2304688 0.53906,2.2617188 z m -1.01953,0.011719 c 0,-0.8027344 -0.11133,-1.3769531 -0.32813,-1.7226562 -0.21972,-0.3515625 -0.56836,-0.5273438 -1.04297,-0.5273438 -0.38379,0 -0.68554,0.082031 -0.90234,0.2460938 -0.21094,0.1582031 -0.375,0.4072265 -0.49219,0.75 -0.11133,0.3457031 -0.16406,0.7910156 -0.16406,1.3359375 0,0.7675781 0.12012,1.3300781 0.36328,1.6875 0.24023,0.36035153 0.63574,0.53906246 1.18359,0.53906246 0.4834,0 0.83497,-0.17578125 1.05469,-0.52734376 0.2168,-0.3515625 0.32813,-0.9433594 0.32813,-1.78125 z M 112.62988,-4.375e-7 V -7.9687504 h 0.97266 V -4.375e-7 Z M 115.57129,-5.8125004 v 3.6796875 c 0,0.383789 0.0352,0.6855468 0.10547,0.9023437 0.0762,0.2109375 0.19922,0.36328126 0.36328,0.45703126 0.16406,0.0878906 0.4043,0.12890625 0.72656,0.12890625 0.46875,0 0.83496,-0.15527343 1.10156,-0.46875001 0.27246,-0.3193359 0.41016,-0.7646484 0.41016,-1.3359375 v -3.3632812 h 0.96094 v 4.5703125 c 0,0.67968746 0.0117,1.09570309 0.0352,1.2421874625 h -0.91406 c -0.009,-0.0146484325 -0.0117,-0.0615234325 -0.0117,-0.1406250025 0,-0.0761719 -0.006,-0.16699218 -0.0117,-0.26953125 -0.009,-0.10839843 -0.0176,-0.3046875 -0.0234,-0.5859375 h -0.0117 c -0.22852,0.40722657 -0.48633,0.69140625 -0.77344,0.85546875 -0.29004,0.1640625 -0.65332,0.24609375 -1.08984,0.24609375 -0.63282,0 -1.09864,-0.15527343 -1.39454,-0.46875 -0.29882,-0.31933593 -0.44531,-0.84667971 -0.44531,-1.58203121 v -3.8671875 z m 9.42773,4.2070312 c 0,0.5478516 -0.208,0.96972658 -0.62109,1.26562501 -0.41602,0.29882813 -0.99609,0.4453125 -1.74609,0.4453125 -0.72071,0 -1.27735,-0.1171875 -1.67579,-0.3515625 -0.39257,-0.24023437 -0.64453,-0.61230468 -0.76171,-1.11328121 l 0.85546,-0.1757813 c 0.085,0.3134766 0.25782,0.54492189 0.51563,0.69140626 0.25781,0.140625 0.6123,0.2109375 1.06641,0.2109375 0.49218,0 0.8496,-0.0732422 1.07812,-0.22265625 0.22559,-0.14648441 0.33984,-0.37500001 0.33984,-0.67968751 0,-0.2255859 -0.0791,-0.4101562 -0.23437,-0.5507812 -0.1582,-0.1464844 -0.41016,-0.2695313 -0.76172,-0.3632813 l -0.69141,-0.1757812 c -0.55664,-0.1464844 -0.94921,-0.2871094 -1.18359,-0.421875 -0.23437,-0.140625 -0.41894,-0.3076172 -0.55078,-0.5039063 -0.13477,-0.1933594 -0.19922,-0.4365234 -0.19922,-0.7265625 0,-0.5302734 0.1875,-0.9316406 0.5625,-1.2070312 0.38086,-0.28125 0.93164,-0.421875 1.65234,-0.421875 0.63868,0 1.14844,0.1142578 1.52344,0.3398437 0.38086,0.2285156 0.62403,0.5917969 0.72656,1.0898438 l -0.86718,0.1054687 c -0.0557,-0.2578125 -0.19922,-0.4570312 -0.4336,-0.5976562 -0.23437,-0.140625 -0.55078,-0.2109375 -0.94922,-0.2109375 -0.43945,0 -0.76171,0.067383 -0.97265,0.1992187 -0.20508,0.1347656 -0.30469,0.3369141 -0.30469,0.609375 0,0.1640625 0.041,0.3017578 0.12891,0.4101563 0.085,0.102539 0.21093,0.1933593 0.375,0.2695312 0.16992,0.079102 0.52734,0.1845703 1.0664,0.3164063 0.51563,0.1259765 0.88477,0.243164 1.11328,0.3515625 0.22559,0.1113281 0.40137,0.2314453 0.52735,0.3632812 0.13183,0.1347656 0.23437,0.2871094 0.30469,0.4570313 0.0762,0.1728515 0.11718,0.3720703 0.11718,0.5976562 z m 0.72071,3.796875 v -0.703125 h 6.41015 v 0.703125 z m 11.26757,-3.796875 c 0,0.5478516 -0.208,0.96972658 -0.62109,1.26562501 -0.41602,0.29882813 -0.99609,0.4453125 -1.74609,0.4453125 -0.72071,0 -1.27735,-0.1171875 -1.67578,-0.3515625 -0.39258,-0.24023437 -0.64454,-0.61230468 -0.76172,-1.11328121 l 0.85547,-0.1757813 c 0.085,0.3134766 0.25781,0.54492189 0.51562,0.69140626 0.25781,0.140625 0.61231,0.2109375 1.06641,0.2109375 0.49218,0 0.84961,-0.0732422 1.07812,-0.22265625 0.22559,-0.14648441 0.33985,-0.37500001 0.33985,-0.67968751 0,-0.2255859 -0.0791,-0.4101562 -0.23438,-0.5507812 -0.1582,-0.1464844 -0.41016,-0.2695313 -0.76172,-0.3632813 l -0.6914,-0.1757812 c -0.55665,-0.1464844 -0.94922,-0.2871094 -1.1836,-0.421875 -0.23437,-0.140625 -0.41894,-0.3076172 -0.55078,-0.5039063 -0.13477,-0.1933594 -0.19922,-0.4365234 -0.19922,-0.7265625 0,-0.5302734 0.1875,-0.9316406 0.5625,-1.2070312 0.38086,-0.28125 0.93164,-0.421875 1.65235,-0.421875 0.63867,0 1.14843,0.1142578 1.52343,0.3398437 0.38086,0.2285156 0.62403,0.5917969 0.72657,1.0898438 l -0.86719,0.1054687 c -0.0557,-0.2578125 -0.19922,-0.4570312 -0.4336,-0.5976562 -0.23437,-0.140625 -0.55078,-0.2109375 -0.94921,-0.2109375 -0.43946,0 -0.76172,0.067383 -0.97266,0.1992187 -0.20508,0.1347656 -0.30469,0.3369141 -0.30469,0.609375 0,0.1640625 0.041,0.3017578 0.12891,0.4101563 0.085,0.102539 0.21094,0.1933593 0.375,0.2695312 0.16992,0.079102 0.52734,0.1845703 1.0664,0.3164063 0.51563,0.1259765 0.88477,0.243164 1.11329,0.3515625 0.22558,0.1113281 0.40136,0.2314453 0.52734,0.3632812 0.13184,0.1347656 0.23437,0.2871094 0.30469,0.4570313 0.0762,0.1728515 0.11718,0.3720703 0.11718,0.5976562 z m 3.12305,1.71093751 c -0.58594,0 -1.02832,-0.15234375 -1.32422,-0.45703125 -0.29004,-0.31054687 -0.43359,-0.73242186 -0.43359,-1.26562496 0,-0.600586 0.19336,-1.0605469 0.58594,-1.3828125 0.39843,-0.328125 1.03711,-0.5039063 1.92187,-0.5273438 l 1.30078,-0.023437 v -0.3164062 c 0,-0.46875 -0.10254,-0.8027344 -0.30469,-1.0078125 -0.19628,-0.2021485 -0.50976,-0.3046875 -0.9375,-0.3046875 -0.43066,0 -0.74707,0.076172 -0.94921,0.2226562 -0.19629,0.140625 -0.31348,0.3720703 -0.35157,0.6914063 l -1.00781,-0.082031 c 0.16406,-1.0458984 0.94043,-1.5703125 2.33203,-1.5703125 0.72656,0 1.27149,0.1699219 1.64063,0.5039063 0.375,0.328125 0.5625,0.8144531 0.5625,1.453125 v 2.4960937 c 0,0.2900391 0.0351,0.50976564 0.10547,0.65625001 0.0762,0.140625 0.22265,0.2109375 0.43359,0.2109375 0.0937,0 0.19922,-0.0117188 0.31641,-0.0351563 v 0.59765625 c -0.24317,0.06152344 -0.49219,0.09375 -0.75,0.09375 -0.35157,0 -0.60938,-0.09375 -0.77344,-0.28125 -0.16406,-0.19335937 -0.25781,-0.4921875 -0.28125,-0.89062506 h -0.0352 c -0.24316,0.44531256 -0.52734,0.76171881 -0.85547,0.94921881 -0.32812,0.17871094 -0.72656,0.26953125 -1.19531,0.26953125 z m 0.22266,-0.7265625 c 0.35156,0 0.66211,-0.0761719 0.9375,-0.234375 0.28125,-0.16406251 0.49804,-0.38671871 0.65625,-0.66796871 0.15527,-0.28125 0.23437,-0.5683594 0.23437,-0.8671875 v -0.4804688 l -1.05469,0.023437 c -0.4541,0.00879 -0.79687,0.055664 -1.03125,0.140625 -0.23437,0.087891 -0.41601,0.2197266 -0.53906,0.3984375 -0.12597,0.1816406 -0.1875,0.4160156 -0.1875,0.703125 0,0.3134766 0.082,0.5566406 0.2461,0.72656251 0.16992,0.17285157 0.41601,0.2578125 0.73828,0.257813 z m 6.52441,0.57421875 c -0.32226,0.08496094 -0.64453,0.12890625 -0.97265,0.12890625 -0.77344,0 -1.16016,-0.43652343 -1.16016,-1.31250001 v -3.8789062 h -0.67969 v -0.703125 h 0.71485 l 0.28125,-1.3007813 h 0.64453 v 1.3007813 h 1.07812 v 0.703125 h -1.07812 v 3.6679687 c 0,0.28125 0.041,0.48046876 0.1289,0.59765626 0.0937,0.11132813 0.25196,0.1640625 0.48047,0.1640625 0.13184,0 0.31934,-0.0263672 0.5625,-0.0820313 z m 1.70215,-5.76562496 v 3.6796875 c 0,0.383789 0.0352,0.6855468 0.10547,0.9023437 0.0762,0.2109375 0.19922,0.36328126 0.36328,0.45703126 0.16406,0.0878906 0.4043,0.12890625 0.72656,0.12890625 0.46875,0 0.83496,-0.15527343 1.10156,-0.46875001 0.27247,-0.3193359 0.41016,-0.7646484 0.41016,-1.3359375 v -3.3632812 h 0.96094 v 4.5703125 c 0,0.67968746 0.0117,1.09570309 0.0351,1.2421874625 h -0.91406 c -0.009,-0.0146484325 -0.0117,-0.0615234325 -0.0117,-0.1406250025 0,-0.0761719 -0.006,-0.16699218 -0.0117,-0.26953125 -0.009,-0.10839843 -0.0176,-0.3046875 -0.0234,-0.5859375 h -0.0117 c -0.22852,0.40722657 -0.48633,0.69140625 -0.77344,0.85546875 -0.29004,0.1640625 -0.65332,0.24609375 -1.08984,0.24609375 -0.63282,0 -1.09864,-0.15527343 -1.39453,-0.46875 -0.29883,-0.31933593 -0.44532,-0.84667971 -0.44532,-1.58203121 V -5.8125004 Z M 153.62793,-4.375e-7 V -4.4648442 c 0,-0.4042969 -0.0117,-0.8554687 -0.0352,-1.3476562 h 0.91407 c 0.0293,0.65625 0.0469,1.0517578 0.0469,1.1835937 h 0.0234 c 0.15527,-0.4921875 0.33105,-0.8261719 0.52734,-1.0078125 0.20215,-0.1875 0.48633,-0.28125 0.85547,-0.28125 0.12305,0 0.25195,0.017578 0.38672,0.046875 v 0.890625 c -0.12598,-0.038086 -0.29883,-0.058594 -0.51563,-0.058594 -0.39843,0 -0.70312,0.1757812 -0.91406,0.5273437 -0.21094,0.3457031 -0.3164,0.8378906 -0.3164,1.4765625 V -4.375e-7 Z m 5.46973,0.1054687475 c -0.58594,0 -1.02832,-0.15234375 -1.32422,-0.45703125 -0.29004,-0.31054687 -0.4336,-0.73242186 -0.4336,-1.26562496 0,-0.600586 0.19336,-1.0605469 0.58594,-1.3828125 0.39844,-0.328125 1.03711,-0.5039063 1.92188,-0.5273438 l 1.30078,-0.023437 v -0.3164062 c 0,-0.46875 -0.10254,-0.8027344 -0.30469,-1.0078125 -0.19629,-0.2021485 -0.50977,-0.3046875 -0.9375,-0.3046875 -0.43066,0 -0.74707,0.076172 -0.94922,0.2226562 -0.19629,0.140625 -0.31348,0.3720703 -0.35156,0.6914063 l -1.00781,-0.082031 c 0.16406,-1.0458984 0.94043,-1.5703125 2.33203,-1.5703125 0.72656,0 1.27148,0.1699219 1.64062,0.5039063 0.375,0.328125 0.5625,0.8144531 0.5625,1.453125 v 2.4960937 c 0,0.2900391 0.0352,0.50976564 0.10547,0.65625001 0.0762,0.140625 0.22266,0.2109375 0.43359,0.2109375 0.0937,0 0.19922,-0.0117188 0.31641,-0.0351563 v 0.59765625 c -0.24316,0.06152344 -0.49219,0.09375 -0.75,0.09375 -0.35156,0 -0.60937,-0.09375 -0.77344,-0.28125 -0.16406,-0.19335937 -0.25781,-0.4921875 -0.28125,-0.89062506 h -0.0352 c -0.24317,0.44531256 -0.52735,0.76171881 -0.85547,0.94921881 -0.32813,0.17871094 -0.72656,0.26953125 -1.19531,0.26953125 z m 0.22265,-0.7265625 c 0.35156,0 0.66211,-0.0761719 0.9375,-0.234375 0.28125,-0.16406251 0.49805,-0.38671871 0.65625,-0.66796871 0.15528,-0.28125 0.23438,-0.5683594 0.23438,-0.8671875 v -0.4804688 l -1.05469,0.023437 c -0.4541,0.00879 -0.79688,0.055664 -1.03125,0.140625 -0.23438,0.087891 -0.41602,0.2197266 -0.53906,0.3984375 -0.12598,0.1816406 -0.1875,0.4160156 -0.1875,0.703125 0,0.3134766 0.082,0.5566406 0.24609,0.72656251 0.16992,0.17285157 0.41602,0.2578125 0.73828,0.257813 z m 6.52149,0.57421875 c -0.32227,0.08496094 -0.64453,0.12890625 -0.97266,0.12890625 -0.77344,0 -1.16016,-0.43652343 -1.16016,-1.31250001 v -3.8789062 h -0.67968 v -0.703125 h 0.71484 l 0.28125,-1.3007813 h 0.64453 v 1.3007813 h 1.07813 v 0.703125 h -1.07813 v 3.6679687 c 0,0.28125 0.041,0.48046876 0.12891,0.59765626 0.0937,0.11132813 0.25195,0.1640625 0.48047,0.1640625 0.13183,0 0.31933,-0.0263672 0.5625,-0.0820313 z m 0.75586,-7.00781246 v -0.9140625 h 0.96093 v 0.9140625 z m 0,7.0546874625 V -5.8125004 h 0.96093 V -4.375e-7 Z M 173.52051,-2.9179692 c 0,1.0253906 -0.22852,1.7871094 -0.67969,2.28515626 -0.44531,0.4921875 -1.0957,0.73828125 -1.94531,0.73828125 -0.85254,0 -1.49707,-0.2578125 -1.9336,-0.7734375 -0.43066,-0.51562501 -0.64453,-1.26562501 -0.64453,-2.25000001 0,-1.9980469 0.87012,-3 2.61328,-3 0.89063,0 1.54102,0.2460938 1.95703,0.7382813 0.42188,0.4863281 0.63282,1.2392578 0.63282,2.2617187 z m -1.01953,0 c 0,-0.796875 -0.12305,-1.3740234 -0.36329,-1.734375 -0.23437,-0.3662109 -0.63281,-0.5507812 -1.19531,-0.5507812 -0.5625,0 -0.97265,0.1875 -1.23047,0.5625 -0.25195,0.3691406 -0.375,0.9433593 -0.375,1.7226562 0,0.7734375 0.12305,1.3535156 0.375,1.734375 0.24903,0.38378908 0.63868,0.57421876 1.17188,0.57421876 0.57715,0 0.99023,-0.18164062 1.24219,-0.55078126 0.24902,-0.375 0.375,-0.9609375 0.375,-1.7578125 z M 178.28418,-4.375e-7 V -3.6914067 c 0,-0.3808594 -0.041,-0.6796875 -0.11719,-0.890625 -0.0703,-0.2109375 -0.1875,-0.3632812 -0.35156,-0.4570312 -0.16406,-0.09375 -0.40723,-0.140625 -0.72656,-0.140625 -0.46875,0 -0.83789,0.1611328 -1.10157,0.4804687 -0.2666,0.3222656 -0.39843,0.7675781 -0.39843,1.3359375 V -4.375e-7 h -0.97266 V -4.5703129 c 0,-0.6796875 -0.0117,-1.0927735 -0.0352,-1.2421875 h 0.91407 c 0.006,0.017578 0.0117,0.064453 0.0117,0.140625 0.006,0.079102 0.0117,0.1728515 0.0117,0.28125 0.006,0.102539 0.0146,0.2929687 0.0234,0.5742187 h 0.0117 c 0.22559,-0.4042969 0.4834,-0.6914062 0.77344,-0.8554687 0.2959,-0.1640625 0.65918,-0.2460938 1.08984,-0.2460938 0.63867,0 1.10449,0.1611328 1.39453,0.4804688 0.2959,0.3134765 0.44532,0.8320312 0.44532,1.5585937 V -4.375e-7 Z m 0,0"
       style="fill:#000000;fill-opacity:1;fill-rule:nonzero;stroke:none"
       aria-label="B&#10;i&#10;a&#10;s&#10; &#10;o&#10;f&#10; &#10;c&#10;o&#10;e&#10;f&#10;f&#10;i&#10;c&#10;i&#10;e&#10;n&#10;t&#10; &#10;s&#10;o&#10;f&#10;t&#10;p&#10;l&#10;u&#10;s&#10;_&#10;s&#10;a&#10;t&#10;u&#10;r&#10;a&#10;t&#10;i&#10;o&#10;n"
       transform="matrix(0,-1.3333333,1.3333333,0,17.917969,293.55208)" />
  </g>
</svg>
