<?xml version="1.0" encoding="UTF-8"?>
<svg xmlns="http://www.w3.org/2000/svg" xmlns:xlink="http://www.w3.org/1999/xlink" width="303pt" height="288pt" viewBox="0 0 303 288">
<defs>
<clipPath id="clip-0">
<path clip-rule="nonzero" d="M 44.152344 5.480469 L 299.605469 5.480469 L 299.605469 254.851562 L 44.152344 254.851562 Z M 44.152344 5.480469 "/>
</clipPath>
<clipPath id="clip-1">
<path clip-rule="nonzero" d="M 44.152344 211 L 299.605469 211 L 299.605469 213 L 44.152344 213 Z M 44.152344 211 "/>
</clipPath>
<clipPath id="clip-2">
<path clip-rule="nonzero" d="M 44.152344 156 L 299.605469 156 L 299.605469 157 L 44.152344 157 Z M 44.152344 156 "/>
</clipPath>
<clipPath id="clip-3">
<path clip-rule="nonzero" d="M 44.152344 100 L 299.605469 100 L 299.605469 101 L 44.152344 101 Z M 44.152344 100 "/>
</clipPath>
<clipPath id="clip-4">
<path clip-rule="nonzero" d="M 44.152344 44 L 299.605469 44 L 299.605469 45 L 44.152344 45 Z M 44.152344 44 "/>
</clipPath>
<clipPath id="clip-5">
<path clip-rule="nonzero" d="M 61 5.480469 L 63 5.480469 L 63 254.851562 L 61 254.851562 Z M 61 5.480469 "/>
</clipPath>
<clipPath id="clip-6">
<path clip-rule="nonzero" d="M 126 5.480469 L 127 5.480469 L 127 254.851562 L 126 254.851562 Z M 126 5.480469 "/>
</clipPath>
<clipPath id="clip-7">
<path clip-rule="nonzero" d="M 190 5.480469 L 192 5.480469 L 192 254.851562 L 190 254.851562 Z M 190 5.480469 "/>
</clipPath>
<clipPath id="clip-8">
<path clip-rule="nonzero" d="M 255 5.480469 L 257 5.480469 L 257 254.851562 L 255 254.851562 Z M 255 5.480469 "/>
</clipPath>
<clipPath id="clip-9">
<path clip-rule="nonzero" d="M 44.152344 239 L 299.605469 239 L 299.605469 241 L 44.152344 241 Z M 44.152344 239 "/>
</clipPath>
<clipPath id="clip-10">
<path clip-rule="nonzero" d="M 44.152344 183 L 299.605469 183 L 299.605469 185 L 44.152344 185 Z M 44.152344 183 "/>
</clipPath>
<clipPath id="clip-11">
<path clip-rule="nonzero" d="M 44.152344 127 L 299.605469 127 L 299.605469 129 L 44.152344 129 Z M 44.152344 127 "/>
</clipPath>
<clipPath id="clip-12">
<path clip-rule="nonzero" d="M 44.152344 72 L 299.605469 72 L 299.605469 74 L 44.152344 74 Z M 44.152344 72 "/>
</clipPath>
<clipPath id="clip-13">
<path clip-rule="nonzero" d="M 44.152344 16 L 299.605469 16 L 299.605469 18 L 44.152344 18 Z M 44.152344 16 "/>
</clipPath>
<clipPath id="clip-14">
<path clip-rule="nonzero" d="M 93 5.480469 L 96 5.480469 L 96 254.851562 L 93 254.851562 Z M 93 5.480469 "/>
</clipPath>
<clipPath id="clip-15">
<path clip-rule="nonzero" d="M 158 5.480469 L 160 5.480469 L 160 254.851562 L 158 254.851562 Z M 158 5.480469 "/>
</clipPath>
<clipPath id="clip-16">
<path clip-rule="nonzero" d="M 222 5.480469 L 225 5.480469 L 225 254.851562 L 222 254.851562 Z M 222 5.480469 "/>
</clipPath>
<clipPath id="clip-17">
<path clip-rule="nonzero" d="M 287 5.480469 L 289 5.480469 L 289 254.851562 L 287 254.851562 Z M 287 5.480469 "/>
</clipPath>
<clipPath id="clip-18">
<path clip-rule="nonzero" d="M 44.152344 5.480469 L 299.605469 5.480469 L 299.605469 254.851562 L 44.152344 254.851562 Z M 44.152344 5.480469 "/>
</clipPath>
</defs>
<rect x="-30.3" y="-28.8" width="363.6" height="345.6" fill="rgb(100%, 100%, 100%)" fill-opacity="1"/>
<path fill="none" stroke-width="1.06698" stroke-linecap="round" stroke-linejoin="round" stroke="rgb(100%, 100%, 100%)" stroke-opacity="1" stroke-miterlimit="10" d="M 0 0 L 432 0 L 432 288 L 0 288 Z M 0 0 "/>
<g clip-path="url(#clip-0)">
<path fill-rule="nonzero" fill="rgb(100%, 100%, 100%)" fill-opacity="1" d="M 44.152344 5.476562 L 299.605469 5.476562 L 299.605469 254.847656 L 44.152344 254.847656 Z M 44.152344 5.476562 "/>
</g>
<g clip-path="url(#clip-1)">
<path fill="none" stroke-width="0.533489" stroke-linecap="butt" stroke-linejoin="round" stroke="rgb(92.155457%, 92.155457%, 92.155457%)" stroke-opacity="1" stroke-miterlimit="10" d="M 44.152344 212.105469 L 299.601562 212.105469 "/>
</g>
<g clip-path="url(#clip-2)">
<path fill="none" stroke-width="0.533489" stroke-linecap="butt" stroke-linejoin="round" stroke="rgb(92.155457%, 92.155457%, 92.155457%)" stroke-opacity="1" stroke-miterlimit="10" d="M 44.152344 156.308594 L 299.601562 156.308594 "/>
</g>
<g clip-path="url(#clip-3)">
<path fill="none" stroke-width="0.533489" stroke-linecap="butt" stroke-linejoin="round" stroke="rgb(92.155457%, 92.155457%, 92.155457%)" stroke-opacity="1" stroke-miterlimit="10" d="M 44.152344 100.511719 L 299.601562 100.511719 "/>
</g>
<g clip-path="url(#clip-4)">
<path fill="none" stroke-width="0.533489" stroke-linecap="butt" stroke-linejoin="round" stroke="rgb(92.155457%, 92.155457%, 92.155457%)" stroke-opacity="1" stroke-miterlimit="10" d="M 44.152344 44.714844 L 299.601562 44.714844 "/>
</g>
<g clip-path="url(#clip-5)">
<path fill="none" stroke-width="0.533489" stroke-linecap="butt" stroke-linejoin="round" stroke="rgb(92.155457%, 92.155457%, 92.155457%)" stroke-opacity="1" stroke-miterlimit="10" d="M 62.214844 254.847656 L 62.214844 5.480469 "/>
</g>
<g clip-path="url(#clip-6)">
<path fill="none" stroke-width="0.533489" stroke-linecap="butt" stroke-linejoin="round" stroke="rgb(92.155457%, 92.155457%, 92.155457%)" stroke-opacity="1" stroke-miterlimit="10" d="M 126.722656 254.847656 L 126.722656 5.480469 "/>
</g>
<g clip-path="url(#clip-7)">
<path fill="none" stroke-width="0.533489" stroke-linecap="butt" stroke-linejoin="round" stroke="rgb(92.155457%, 92.155457%, 92.155457%)" stroke-opacity="1" stroke-miterlimit="10" d="M 191.230469 254.847656 L 191.230469 5.480469 "/>
</g>
<g clip-path="url(#clip-8)">
<path fill="none" stroke-width="0.533489" stroke-linecap="butt" stroke-linejoin="round" stroke="rgb(92.155457%, 92.155457%, 92.155457%)" stroke-opacity="1" stroke-miterlimit="10" d="M 255.738281 254.847656 L 255.738281 5.480469 "/>
</g>
<g clip-path="url(#clip-9)">
<path fill="none" stroke-width="1.06698" stroke-linecap="butt" stroke-linejoin="round" stroke="rgb(92.155457%, 92.155457%, 92.155457%)" stroke-opacity="1" stroke-miterlimit="10" d="M 44.152344 240.007812 L 299.601562 240.007812 "/>
</g>
<g clip-path="url(#clip-10)">
<path fill="none" stroke-width="1.06698" stroke-linecap="butt" stroke-linejoin="round" stroke="rgb(92.155457%, 92.155457%, 92.155457%)" stroke-opacity="1" stroke-miterlimit="10" d="M 44.152344 184.207031 L 299.601562 184.207031 "/>
</g>
<g clip-path="url(#clip-11)">
<path fill="none" stroke-width="1.06698" stroke-linecap="butt" stroke-linejoin="round" stroke="rgb(92.155457%, 92.155457%, 92.155457%)" stroke-opacity="1" stroke-miterlimit="10" d="M 44.152344 128.410156 L 299.601562 128.410156 "/>
</g>
<g clip-path="url(#clip-12)">
<path fill="none" stroke-width="1.06698" stroke-linecap="butt" stroke-linejoin="round" stroke="rgb(92.155457%, 92.155457%, 92.155457%)" stroke-opacity="1" stroke-miterlimit="10" d="M 44.152344 72.613281 L 299.601562 72.613281 "/>
</g>
<g clip-path="url(#clip-13)">
<path fill="none" stroke-width="1.06698" stroke-linecap="butt" stroke-linejoin="round" stroke="rgb(92.155457%, 92.155457%, 92.155457%)" stroke-opacity="1" stroke-miterlimit="10" d="M 44.152344 16.8125 L 299.601562 16.8125 "/>
</g>
<g clip-path="url(#clip-14)">
<path fill="none" stroke-width="1.06698" stroke-linecap="butt" stroke-linejoin="round" stroke="rgb(92.155457%, 92.155457%, 92.155457%)" stroke-opacity="1" stroke-miterlimit="10" d="M 94.46875 254.847656 L 94.46875 5.480469 "/>
</g>
<g clip-path="url(#clip-15)">
<path fill="none" stroke-width="1.06698" stroke-linecap="butt" stroke-linejoin="round" stroke="rgb(92.155457%, 92.155457%, 92.155457%)" stroke-opacity="1" stroke-miterlimit="10" d="M 158.976562 254.847656 L 158.976562 5.480469 "/>
</g>
<g clip-path="url(#clip-16)">
<path fill="none" stroke-width="1.06698" stroke-linecap="butt" stroke-linejoin="round" stroke="rgb(92.155457%, 92.155457%, 92.155457%)" stroke-opacity="1" stroke-miterlimit="10" d="M 223.484375 254.847656 L 223.484375 5.480469 "/>
</g>
<g clip-path="url(#clip-17)">
<path fill="none" stroke-width="1.06698" stroke-linecap="butt" stroke-linejoin="round" stroke="rgb(92.155457%, 92.155457%, 92.155457%)" stroke-opacity="1" stroke-miterlimit="10" d="M 287.992188 254.847656 L 287.992188 5.480469 "/>
</g>
<path fill="none" stroke-width="1.06698" stroke-linecap="butt" stroke-linejoin="round" stroke="rgb(0%, 0%, 0%)" stroke-opacity="1" stroke-miterlimit="10" d="M 55.761719 16.8125 L 287.992188 16.8125 "/>
<path fill="none" stroke-width="1.06698" stroke-linecap="butt" stroke-linejoin="round" stroke="rgb(0%, 100%, 0%)" stroke-opacity="1" stroke-miterlimit="10" d="M 55.761719 135.011719 L 81.566406 130.171875 L 107.367188 132.210938 L 158.976562 144.742188 L 287.992188 140.273438 "/>
<path fill="none" stroke-width="1.06698" stroke-linecap="butt" stroke-linejoin="round" stroke="rgb(12.156677%, 46.665955%, 70.587158%)" stroke-opacity="1" stroke-miterlimit="10" d="M 55.761719 241.007812 L 81.566406 243.515625 L 107.367188 232.71875 L 158.976562 212.949219 L 287.992188 187.914062 "/>
<path fill="none" stroke-width="1.06698" stroke-linecap="butt" stroke-linejoin="round" stroke="rgb(100%, 49.803162%, 5.490112%)" stroke-opacity="1" stroke-miterlimit="10" d="M 55.761719 94.894531 L 81.566406 136.316406 L 107.367188 132.96875 L 158.976562 137.039062 L 287.992188 125.28125 "/>
<path fill="none" stroke-width="1.06698" stroke-linecap="butt" stroke-linejoin="round" stroke="rgb(58.03833%, 40.391541%, 74.116516%)" stroke-opacity="1" stroke-miterlimit="10" d="M 55.761719 108.9375 L 81.566406 136.96875 L 107.367188 132.578125 L 158.976562 137.078125 L 287.992188 134.742188 "/>
<path fill="none" stroke-width="1.06698" stroke-linecap="butt" stroke-linejoin="round" stroke="rgb(54.901123%, 33.724976%, 29.411316%)" stroke-opacity="1" stroke-miterlimit="10" d="M 55.761719 131.445312 L 81.566406 135.410156 L 107.367188 139.667969 L 158.976562 143.617188 L 287.992188 137.40625 "/>
<path fill="none" stroke-width="1.06698" stroke-linecap="butt" stroke-linejoin="round" stroke="rgb(9.01947%, 74.508667%, 81.175232%)" stroke-opacity="1" stroke-miterlimit="10" d="M 55.761719 96 L 81.566406 135.113281 L 107.367188 141.402344 L 158.976562 157.6875 L 287.992188 141.554688 "/>
<path fill="none" stroke-width="1.06698" stroke-linecap="butt" stroke-linejoin="round" stroke="rgb(100%, 0%, 0%)" stroke-opacity="1" stroke-miterlimit="10" d="M 55.761719 220.660156 L 81.566406 217.714844 L 107.367188 214.382812 L 158.976562 209.476562 L 287.992188 183.773438 "/>
<g clip-path="url(#clip-18)">
<path fill="none" stroke-width="1.06698" stroke-linecap="round" stroke-linejoin="round" stroke="rgb(19.999695%, 19.999695%, 19.999695%)" stroke-opacity="1" stroke-miterlimit="10" d="M 44.152344 5.476562 L 299.605469 5.476562 L 299.605469 254.847656 L 44.152344 254.847656 Z M 44.152344 5.476562 "/>
</g>
<path fill-rule="nonzero" fill="rgb(30.195618%, 30.195618%, 30.195618%)" fill-opacity="1" d="M 19.605469 241.480469 L 19.605469 240.789062 L 21.761719 240.789062 L 21.761719 241.480469 Z M 26.765625 240.4375 C 26.765625 241.457031 26.582031 242.230469 26.226562 242.757812 C 25.875 243.292969 25.351562 243.554688 24.65625 243.554688 C 23.957031 243.554688 23.4375 243.296875 23.085938 242.769531 C 22.734375 242.242188 22.558594 241.464844 22.558594 240.4375 C 22.558594 239.402344 22.726562 238.621094 23.0625 238.105469 C 23.40625 237.589844 23.945312 237.332031 24.679688 237.332031 C 25.386719 237.332031 25.914062 237.597656 26.25 238.117188 C 26.59375 238.644531 26.765625 239.417969 26.765625 240.4375 Z M 25.980469 240.4375 C 25.980469 239.570312 25.878906 238.945312 25.675781 238.550781 C 25.480469 238.152344 25.148438 237.953125 24.679688 237.953125 C 24.203125 237.953125 23.859375 238.152344 23.648438 238.539062 C 23.441406 238.925781 23.34375 239.558594 23.34375 240.4375 C 23.34375 241.300781 23.449219 241.925781 23.660156 242.324219 C 23.871094 242.722656 24.203125 242.921875 24.667969 242.921875 C 25.117188 242.921875 25.453125 242.722656 25.664062 242.3125 C 25.875 241.910156 25.980469 241.28125 25.980469 240.4375 Z M 28.023438 243.472656 L 28.023438 242.535156 L 28.855469 242.535156 L 28.855469 243.472656 Z M 29.652344 243.472656 L 29.652344 242.921875 C 29.792969 242.59375 29.96875 242.300781 30.179688 242.042969 C 30.390625 241.785156 30.613281 241.558594 30.847656 241.351562 C 31.082031 241.140625 31.308594 240.949219 31.539062 240.765625 C 31.761719 240.589844 31.964844 240.414062 32.148438 240.238281 C 32.335938 240.0625 32.480469 239.875 32.59375 239.675781 C 32.710938 239.484375 32.769531 239.261719 32.769531 239.007812 C 32.769531 238.679688 32.667969 238.429688 32.476562 238.246094 C 32.277344 238.058594 32.011719 237.964844 31.667969 237.964844 C 31.339844 237.964844 31.0625 238.058594 30.847656 238.234375 C 30.636719 238.417969 30.511719 238.667969 30.472656 238.984375 L 29.6875 238.917969 C 29.738281 238.433594 29.945312 238.050781 30.296875 237.769531 C 30.652344 237.480469 31.109375 237.335938 31.667969 237.335938 C 32.277344 237.335938 32.746094 237.480469 33.074219 237.769531 C 33.402344 238.050781 33.566406 238.457031 33.566406 238.988281 C 33.566406 239.222656 33.511719 239.457031 33.402344 239.691406 C 33.289062 239.925781 33.132812 240.160156 32.921875 240.394531 C 32.710938 240.621094 32.300781 240.976562 31.703125 241.460938 C 31.375 241.734375 31.109375 241.980469 30.917969 242.199219 C 30.71875 242.410156 30.578125 242.617188 30.496094 242.820312 L 33.660156 242.820312 L 33.660156 243.472656 Z M 38.75 240.4375 C 38.75 241.457031 38.570312 242.230469 38.210938 242.757812 C 37.859375 243.292969 37.335938 243.554688 36.640625 243.554688 C 35.945312 243.554688 35.421875 243.296875 35.070312 242.769531 C 34.71875 242.242188 34.542969 241.464844 34.542969 240.4375 C 34.542969 239.402344 34.710938 238.621094 35.046875 238.105469 C 35.390625 237.589844 35.929688 237.332031 36.664062 237.332031 C 37.375 237.332031 37.898438 237.597656 38.234375 238.117188 C 38.578125 238.644531 38.75 239.417969 38.75 240.4375 Z M 37.964844 240.4375 C 37.964844 239.570312 37.863281 238.945312 37.660156 238.550781 C 37.464844 238.152344 37.132812 237.953125 36.664062 237.953125 C 36.1875 237.953125 35.84375 238.152344 35.632812 238.539062 C 35.429688 238.925781 35.328125 239.558594 35.328125 240.4375 C 35.328125 241.300781 35.433594 241.925781 35.644531 242.324219 C 35.855469 242.722656 36.191406 242.921875 36.652344 242.921875 C 37.105469 242.921875 37.4375 242.722656 37.648438 242.3125 C 37.859375 241.910156 37.964844 241.28125 37.964844 240.4375 Z M 19.605469 185.679688 L 19.605469 184.988281 L 21.761719 184.988281 L 21.761719 185.679688 Z M 26.765625 184.636719 C 26.765625 185.65625 26.582031 186.429688 26.226562 186.957031 C 25.875 187.492188 25.351562 187.753906 24.65625 187.753906 C 23.957031 187.753906 23.4375 187.496094 23.085938 186.96875 C 22.734375 186.441406 22.558594 185.664062 22.558594 184.636719 C 22.558594 183.601562 22.726562 182.820312 23.0625 182.304688 C 23.40625 181.789062 23.945312 181.53125 24.679688 181.53125 C 25.386719 181.53125 25.914062 181.796875 26.25 182.316406 C 26.59375 182.84375 26.765625 183.617188 26.765625 184.636719 Z M 25.980469 184.636719 C 25.980469 183.769531 25.878906 183.144531 25.675781 182.75 C 25.480469 182.351562 25.148438 182.152344 24.679688 182.152344 C 24.203125 182.152344 23.859375 182.351562 23.648438 182.738281 C 23.441406 183.125 23.34375 183.757812 23.34375 184.636719 C 23.34375 185.5 23.449219 186.125 23.660156 186.523438 C 23.871094 186.921875 24.203125 187.121094 24.667969 187.121094 C 25.117188 187.121094 25.453125 186.921875 25.664062 186.511719 C 25.875 186.109375 25.980469 185.480469 25.980469 184.636719 Z M 28.023438 187.671875 L 28.023438 186.734375 L 28.855469 186.734375 L 28.855469 187.671875 Z M 29.875 187.671875 L 29.875 187.015625 L 31.421875 187.015625 L 31.421875 182.351562 L 30.050781 183.335938 L 30.050781 182.597656 L 31.480469 181.613281 L 32.195312 181.613281 L 32.195312 187.015625 L 33.671875 187.015625 L 33.671875 187.671875 Z M 38.726562 185.703125 C 38.726562 186.335938 38.535156 186.839844 38.152344 187.203125 C 37.777344 187.574219 37.253906 187.753906 36.582031 187.753906 C 36.019531 187.753906 35.5625 187.636719 35.210938 187.390625 C 34.867188 187.144531 34.648438 186.78125 34.554688 186.3125 L 35.339844 186.230469 C 35.503906 186.828125 35.921875 187.121094 36.59375 187.121094 C 37.007812 187.121094 37.332031 187 37.566406 186.746094 C 37.808594 186.5 37.929688 186.15625 37.929688 185.714844 C 37.929688 185.335938 37.808594 185.023438 37.566406 184.789062 C 37.332031 184.554688 37.015625 184.4375 36.617188 184.4375 C 36.40625 184.4375 36.210938 184.472656 36.03125 184.542969 C 35.851562 184.609375 35.671875 184.71875 35.492188 184.871094 L 34.730469 184.871094 L 34.929688 181.613281 L 38.375 181.613281 L 38.375 182.269531 L 35.632812 182.269531 L 35.527344 184.191406 C 35.855469 183.933594 36.269531 183.804688 36.769531 183.804688 C 37.371094 183.804688 37.847656 183.980469 38.199219 184.332031 C 38.550781 184.683594 38.726562 185.140625 38.726562 185.703125 Z M 19.605469 129.882812 L 19.605469 129.195312 L 21.761719 129.195312 L 21.761719 129.882812 Z M 26.765625 128.839844 C 26.765625 129.859375 26.582031 130.632812 26.226562 131.164062 C 25.875 131.695312 25.351562 131.960938 24.65625 131.960938 C 23.957031 131.960938 23.4375 131.699219 23.085938 131.175781 C 22.734375 130.644531 22.558594 129.867188 22.558594 128.839844 C 22.558594 127.804688 22.726562 127.027344 23.0625 126.507812 C 23.40625 125.996094 23.945312 125.738281 24.679688 125.738281 C 25.386719 125.738281 25.914062 126 26.25 126.523438 C 26.59375 127.046875 26.765625 127.820312 26.765625 128.839844 Z M 25.980469 128.839844 C 25.980469 127.976562 25.878906 127.347656 25.675781 126.957031 C 25.480469 126.558594 25.148438 126.359375 24.679688 126.359375 C 24.203125 126.359375 23.859375 126.554688 23.648438 126.945312 C 23.441406 127.328125 23.34375 127.960938 23.34375 128.839844 C 23.34375 129.703125 23.449219 130.332031 23.660156 130.726562 C 23.871094 131.128906 24.203125 131.328125 24.667969 131.328125 C 25.117188 131.328125 25.453125 131.125 25.664062 130.714844 C 25.875 130.3125 25.980469 129.683594 25.980469 128.839844 Z M 28.023438 131.878906 L 28.023438 130.941406 L 28.855469 130.941406 L 28.855469 131.878906 Z M 29.875 131.878906 L 29.875 131.222656 L 31.421875 131.222656 L 31.421875 126.558594 L 30.050781 127.539062 L 30.050781 126.804688 L 31.480469 125.820312 L 32.195312 125.820312 L 32.195312 131.222656 L 33.671875 131.222656 L 33.671875 131.878906 Z M 38.75 128.839844 C 38.75 129.859375 38.570312 130.632812 38.210938 131.164062 C 37.859375 131.695312 37.335938 131.960938 36.640625 131.960938 C 35.945312 131.960938 35.421875 131.699219 35.070312 131.175781 C 34.71875 130.644531 34.542969 129.867188 34.542969 128.839844 C 34.542969 127.804688 34.710938 127.027344 35.046875 126.507812 C 35.390625 125.996094 35.929688 125.738281 36.664062 125.738281 C 37.375 125.738281 37.898438 126 38.234375 126.523438 C 38.578125 127.046875 38.75 127.820312 38.75 128.839844 Z M 37.964844 128.839844 C 37.964844 127.976562 37.863281 127.347656 37.660156 126.957031 C 37.464844 126.558594 37.132812 126.359375 36.664062 126.359375 C 36.1875 126.359375 35.84375 126.554688 35.632812 126.945312 C 35.429688 127.328125 35.328125 127.960938 35.328125 128.839844 C 35.328125 129.703125 35.433594 130.332031 35.644531 130.726562 C 35.855469 131.128906 36.191406 131.328125 36.652344 131.328125 C 37.105469 131.328125 37.4375 131.125 37.648438 130.714844 C 37.859375 130.3125 37.964844 129.683594 37.964844 128.839844 Z M 19.605469 74.085938 L 19.605469 73.394531 L 21.761719 73.394531 L 21.761719 74.085938 Z M 26.765625 73.042969 C 26.765625 74.058594 26.582031 74.832031 26.226562 75.363281 C 25.875 75.898438 25.351562 76.160156 24.65625 76.160156 C 23.957031 76.160156 23.4375 75.898438 23.085938 75.375 C 22.734375 74.84375 22.558594 74.070312 22.558594 73.042969 C 22.558594 72.007812 22.726562 71.226562 23.0625 70.710938 C 23.40625 70.195312 23.945312 69.9375 24.679688 69.9375 C 25.386719 69.9375 25.914062 70.203125 26.25 70.722656 C 26.59375 71.246094 26.765625 72.019531 26.765625 73.042969 Z M 25.980469 73.042969 C 25.980469 72.175781 25.878906 71.550781 25.675781 71.15625 C 25.480469 70.757812 25.148438 70.558594 24.679688 70.558594 C 24.203125 70.558594 23.859375 70.753906 23.648438 71.144531 C 23.441406 71.527344 23.34375 72.160156 23.34375 73.042969 C 23.34375 73.902344 23.449219 74.53125 23.660156 74.929688 C 23.871094 75.328125 24.203125 75.527344 24.667969 75.527344 C 25.117188 75.527344 25.453125 75.324219 25.664062 74.917969 C 25.875 74.515625 25.980469 73.886719 25.980469 73.042969 Z M 28.023438 76.078125 L 28.023438 75.140625 L 28.855469 75.140625 L 28.855469 76.078125 Z M 33.753906 73.042969 C 33.753906 74.058594 33.570312 74.832031 33.214844 75.363281 C 32.863281 75.898438 32.339844 76.160156 31.644531 76.160156 C 30.945312 76.160156 30.425781 75.898438 30.074219 75.375 C 29.722656 74.84375 29.546875 74.070312 29.546875 73.042969 C 29.546875 72.007812 29.714844 71.226562 30.050781 70.710938 C 30.390625 70.195312 30.933594 69.9375 31.667969 69.9375 C 32.375 69.9375 32.902344 70.203125 33.238281 70.722656 C 33.578125 71.246094 33.753906 72.019531 33.753906 73.042969 Z M 32.96875 73.042969 C 32.96875 72.175781 32.863281 71.550781 32.664062 71.15625 C 32.464844 70.757812 32.136719 70.558594 31.667969 70.558594 C 31.1875 70.558594 30.847656 70.753906 30.636719 71.144531 C 30.429688 71.527344 30.332031 72.160156 30.332031 73.042969 C 30.332031 73.902344 30.4375 74.53125 30.648438 74.929688 C 30.859375 75.328125 31.191406 75.527344 31.65625 75.527344 C 32.105469 75.527344 32.441406 75.324219 32.652344 74.917969 C 32.863281 74.515625 32.96875 73.886719 32.96875 73.042969 Z M 38.726562 74.109375 C 38.726562 74.742188 38.535156 75.242188 38.152344 75.609375 C 37.777344 75.980469 37.253906 76.160156 36.582031 76.160156 C 36.019531 76.160156 35.5625 76.039062 35.210938 75.796875 C 34.867188 75.546875 34.648438 75.1875 34.554688 74.71875 L 35.339844 74.636719 C 35.503906 75.230469 35.921875 75.527344 36.59375 75.527344 C 37.007812 75.527344 37.332031 75.40625 37.566406 75.152344 C 37.808594 74.902344 37.929688 74.5625 37.929688 74.121094 C 37.929688 73.742188 37.808594 73.429688 37.566406 73.195312 C 37.332031 72.960938 37.015625 72.84375 36.617188 72.84375 C 36.40625 72.84375 36.210938 72.878906 36.03125 72.949219 C 35.851562 73.011719 35.671875 73.121094 35.492188 73.277344 L 34.730469 73.277344 L 34.929688 70.019531 L 38.375 70.019531 L 38.375 70.675781 L 35.632812 70.675781 L 35.527344 72.597656 C 35.855469 72.339844 36.269531 72.210938 36.769531 72.210938 C 37.371094 72.210938 37.847656 72.386719 38.199219 72.738281 C 38.550781 73.089844 38.726562 73.546875 38.726562 74.109375 Z M 26.765625 17.246094 C 26.765625 18.261719 26.582031 19.035156 26.226562 19.566406 C 25.875 20.097656 25.351562 20.363281 24.65625 20.363281 C 23.957031 20.363281 23.4375 20.101562 23.085938 19.578125 C 22.734375 19.046875 22.558594 18.269531 22.558594 17.246094 C 22.558594 16.207031 22.726562 15.429688 23.0625 14.914062 C 23.40625 14.398438 23.945312 14.140625 24.679688 14.140625 C 25.386719 14.140625 25.914062 14.402344 26.25 14.925781 C 26.59375 15.449219 26.765625 16.222656 26.765625 17.246094 Z M 25.980469 17.246094 C 25.980469 16.378906 25.878906 15.75 25.675781 15.359375 C 25.480469 14.960938 25.148438 14.761719 24.679688 14.761719 C 24.203125 14.761719 23.859375 14.957031 23.648438 15.347656 C 23.441406 15.730469 23.34375 16.363281 23.34375 17.246094 C 23.34375 18.105469 23.449219 18.734375 23.660156 19.132812 C 23.871094 19.53125 24.203125 19.730469 24.667969 19.730469 C 25.117188 19.730469 25.453125 19.527344 25.664062 19.121094 C 25.875 18.714844 25.980469 18.089844 25.980469 17.246094 Z M 28.023438 20.28125 L 28.023438 19.34375 L 28.855469 19.34375 L 28.855469 20.28125 Z M 33.753906 17.246094 C 33.753906 18.261719 33.570312 19.035156 33.214844 19.566406 C 32.863281 20.097656 32.339844 20.363281 31.644531 20.363281 C 30.945312 20.363281 30.425781 20.101562 30.074219 19.578125 C 29.722656 19.046875 29.546875 18.269531 29.546875 17.246094 C 29.546875 16.207031 29.714844 15.429688 30.050781 14.914062 C 30.390625 14.398438 30.933594 14.140625 31.667969 14.140625 C 32.375 14.140625 32.902344 14.402344 33.238281 14.925781 C 33.578125 15.449219 33.753906 16.222656 33.753906 17.246094 Z M 32.96875 17.246094 C 32.96875 16.378906 32.863281 15.75 32.664062 15.359375 C 32.464844 14.960938 32.136719 14.761719 31.667969 14.761719 C 31.1875 14.761719 30.847656 14.957031 30.636719 15.347656 C 30.429688 15.730469 30.332031 16.363281 30.332031 17.246094 C 30.332031 18.105469 30.4375 18.734375 30.648438 19.132812 C 30.859375 19.53125 31.191406 19.730469 31.65625 19.730469 C 32.105469 19.730469 32.441406 19.527344 32.652344 19.121094 C 32.863281 18.714844 32.96875 18.089844 32.96875 17.246094 Z M 38.757812 17.246094 C 38.757812 18.261719 38.578125 19.035156 38.21875 19.566406 C 37.867188 20.097656 37.34375 20.363281 36.648438 20.363281 C 35.953125 20.363281 35.429688 20.101562 35.078125 19.578125 C 34.726562 19.046875 34.550781 18.269531 34.550781 17.246094 C 34.550781 16.207031 34.71875 15.429688 35.054688 14.914062 C 35.398438 14.398438 35.9375 14.140625 36.671875 14.140625 C 37.382812 14.140625 37.90625 14.402344 38.242188 14.925781 C 38.585938 15.449219 38.757812 16.222656 38.757812 17.246094 Z M 37.972656 17.246094 C 37.972656 16.378906 37.871094 15.75 37.667969 15.359375 C 37.472656 14.960938 37.140625 14.761719 36.671875 14.761719 C 36.195312 14.761719 35.851562 14.957031 35.640625 15.347656 C 35.4375 15.730469 35.335938 16.363281 35.335938 17.246094 C 35.335938 18.105469 35.441406 18.734375 35.652344 19.132812 C 35.863281 19.53125 36.199219 19.730469 36.660156 19.730469 C 37.113281 19.730469 37.445312 19.527344 37.65625 19.121094 C 37.867188 18.714844 37.972656 18.089844 37.972656 17.246094 Z M 37.972656 17.246094 "/>
<path fill="none" stroke-width="1.06698" stroke-linecap="butt" stroke-linejoin="round" stroke="rgb(19.999695%, 19.999695%, 19.999695%)" stroke-opacity="1" stroke-miterlimit="10" d="M 41.410156 240.007812 L 44.152344 240.007812 "/>
<path fill="none" stroke-width="1.06698" stroke-linecap="butt" stroke-linejoin="round" stroke="rgb(19.999695%, 19.999695%, 19.999695%)" stroke-opacity="1" stroke-miterlimit="10" d="M 41.410156 184.207031 L 44.152344 184.207031 "/>
<path fill="none" stroke-width="1.06698" stroke-linecap="butt" stroke-linejoin="round" stroke="rgb(19.999695%, 19.999695%, 19.999695%)" stroke-opacity="1" stroke-miterlimit="10" d="M 41.410156 128.410156 L 44.152344 128.410156 "/>
<path fill="none" stroke-width="1.06698" stroke-linecap="butt" stroke-linejoin="round" stroke="rgb(19.999695%, 19.999695%, 19.999695%)" stroke-opacity="1" stroke-miterlimit="10" d="M 41.410156 72.613281 L 44.152344 72.613281 "/>
<path fill="none" stroke-width="1.06698" stroke-linecap="butt" stroke-linejoin="round" stroke="rgb(19.999695%, 19.999695%, 19.999695%)" stroke-opacity="1" stroke-miterlimit="10" d="M 41.410156 16.8125 L 44.152344 16.8125 "/>
<path fill="none" stroke-width="1.06698" stroke-linecap="butt" stroke-linejoin="round" stroke="rgb(19.999695%, 19.999695%, 19.999695%)" stroke-opacity="1" stroke-miterlimit="10" d="M 94.46875 257.589844 L 94.46875 254.847656 "/>
<path fill="none" stroke-width="1.06698" stroke-linecap="butt" stroke-linejoin="round" stroke="rgb(19.999695%, 19.999695%, 19.999695%)" stroke-opacity="1" stroke-miterlimit="10" d="M 158.976562 257.589844 L 158.976562 254.847656 "/>
<path fill="none" stroke-width="1.06698" stroke-linecap="butt" stroke-linejoin="round" stroke="rgb(19.999695%, 19.999695%, 19.999695%)" stroke-opacity="1" stroke-miterlimit="10" d="M 223.484375 257.589844 L 223.484375 254.847656 "/>
<path fill="none" stroke-width="1.06698" stroke-linecap="butt" stroke-linejoin="round" stroke="rgb(19.999695%, 19.999695%, 19.999695%)" stroke-opacity="1" stroke-miterlimit="10" d="M 287.992188 257.589844 L 287.992188 254.847656 "/>
<path fill-rule="nonzero" fill="rgb(30.195618%, 30.195618%, 30.195618%)" fill-opacity="1" d="M 88.914062 266.746094 L 88.914062 266.199219 C 89.054688 265.871094 89.230469 265.578125 89.441406 265.320312 C 89.652344 265.0625 89.875 264.832031 90.109375 264.628906 C 90.34375 264.417969 90.570312 264.222656 90.800781 264.042969 C 91.023438 263.863281 91.226562 263.6875 91.410156 263.515625 C 91.597656 263.335938 91.742188 263.148438 91.855469 262.953125 C 91.972656 262.757812 92.03125 262.535156 92.03125 262.285156 C 92.03125 261.957031 91.929688 261.703125 91.738281 261.523438 C 91.539062 261.335938 91.269531 261.242188 90.929688 261.242188 C 90.601562 261.242188 90.324219 261.332031 90.109375 261.511719 C 89.898438 261.691406 89.769531 261.941406 89.734375 262.261719 L 88.949219 262.191406 C 89 261.707031 89.207031 261.324219 89.558594 261.042969 C 89.914062 260.753906 90.371094 260.609375 90.929688 260.609375 C 91.539062 260.609375 92.007812 260.753906 92.335938 261.042969 C 92.664062 261.324219 92.828125 261.730469 92.828125 262.261719 C 92.828125 262.496094 92.769531 262.730469 92.664062 262.964844 C 92.550781 263.199219 92.394531 263.433594 92.183594 263.667969 C 91.972656 263.894531 91.5625 264.25 90.964844 264.734375 C 90.636719 265.007812 90.371094 265.253906 90.179688 265.472656 C 89.980469 265.683594 89.839844 265.890625 89.757812 266.09375 L 92.921875 266.09375 L 92.921875 266.746094 Z M 94.273438 266.746094 L 94.273438 265.8125 L 95.105469 265.8125 L 95.105469 266.746094 Z M 99.976562 264.78125 C 99.976562 265.414062 99.785156 265.914062 99.402344 266.28125 C 99.027344 266.648438 98.503906 266.828125 97.832031 266.828125 C 97.269531 266.828125 96.8125 266.710938 96.460938 266.46875 C 96.117188 266.21875 95.898438 265.859375 95.804688 265.390625 L 96.589844 265.308594 C 96.753906 265.902344 97.171875 266.199219 97.84375 266.199219 C 98.257812 266.199219 98.582031 266.074219 98.816406 265.824219 C 99.058594 265.574219 99.179688 265.230469 99.179688 264.792969 C 99.179688 264.410156 99.058594 264.101562 98.816406 263.867188 C 98.582031 263.632812 98.265625 263.515625 97.867188 263.515625 C 97.65625 263.515625 97.460938 263.550781 97.28125 263.621094 C 97.101562 263.683594 96.921875 263.792969 96.742188 263.949219 L 95.980469 263.949219 L 96.179688 260.691406 L 99.625 260.691406 L 99.625 261.347656 L 96.882812 261.347656 L 96.777344 263.269531 C 97.105469 263.011719 97.519531 262.882812 98.019531 262.882812 C 98.621094 262.882812 99.097656 263.058594 99.449219 263.410156 C 99.800781 263.761719 99.976562 264.21875 99.976562 264.78125 Z M 157.484375 264.78125 C 157.484375 265.414062 157.292969 265.914062 156.910156 266.28125 C 156.535156 266.648438 156.011719 266.828125 155.339844 266.828125 C 154.777344 266.828125 154.320312 266.710938 153.96875 266.46875 C 153.625 266.21875 153.40625 265.859375 153.3125 265.390625 L 154.097656 265.308594 C 154.261719 265.902344 154.679688 266.199219 155.351562 266.199219 C 155.765625 266.199219 156.089844 266.074219 156.324219 265.824219 C 156.566406 265.574219 156.6875 265.230469 156.6875 264.792969 C 156.6875 264.410156 156.566406 264.101562 156.324219 263.867188 C 156.089844 263.632812 155.773438 263.515625 155.375 263.515625 C 155.164062 263.515625 154.96875 263.550781 154.789062 263.621094 C 154.609375 263.683594 154.429688 263.792969 154.25 263.949219 L 153.488281 263.949219 L 153.6875 260.691406 L 157.132812 260.691406 L 157.132812 261.347656 L 154.390625 261.347656 L 154.285156 263.269531 C 154.613281 263.011719 155.027344 262.882812 155.527344 262.882812 C 156.128906 262.882812 156.605469 263.058594 156.957031 263.410156 C 157.308594 263.761719 157.484375 264.21875 157.484375 264.78125 Z M 158.777344 266.746094 L 158.777344 265.8125 L 159.609375 265.8125 L 159.609375 266.746094 Z M 164.503906 263.714844 C 164.503906 264.730469 164.324219 265.503906 163.964844 266.035156 C 163.613281 266.566406 163.089844 266.828125 162.394531 266.828125 C 161.699219 266.828125 161.175781 266.570312 160.824219 266.046875 C 160.472656 265.515625 160.296875 264.738281 160.296875 263.714844 C 160.296875 262.675781 160.464844 261.898438 160.800781 261.382812 C 161.144531 260.867188 161.683594 260.609375 162.417969 260.609375 C 163.128906 260.609375 163.652344 260.871094 163.988281 261.394531 C 164.332031 261.917969 164.503906 262.691406 164.503906 263.714844 Z M 163.71875 263.714844 C 163.71875 262.847656 163.617188 262.21875 163.414062 261.828125 C 163.21875 261.429688 162.886719 261.230469 162.417969 261.230469 C 161.941406 261.230469 161.597656 261.425781 161.386719 261.816406 C 161.183594 262.199219 161.082031 262.832031 161.082031 263.714844 C 161.082031 264.574219 161.1875 265.203125 161.398438 265.601562 C 161.609375 266 161.945312 266.199219 162.40625 266.199219 C 162.859375 266.199219 163.191406 265.996094 163.402344 265.589844 C 163.613281 265.183594 163.71875 264.558594 163.71875 263.714844 Z M 221.9375 261.324219 C 221.320312 262.269531 220.882812 263.011719 220.625 263.550781 C 220.367188 264.082031 220.175781 264.609375 220.050781 265.132812 C 219.925781 265.648438 219.863281 266.1875 219.863281 266.746094 L 219.054688 266.746094 C 219.054688 265.976562 219.21875 265.164062 219.546875 264.3125 C 219.875 263.453125 220.421875 262.464844 221.1875 261.347656 L 217.941406 261.347656 L 217.941406 260.691406 L 221.9375 260.691406 Z M 223.292969 266.746094 L 223.292969 265.8125 L 224.125 265.8125 L 224.125 266.746094 Z M 228.996094 264.78125 C 228.996094 265.414062 228.800781 265.914062 228.421875 266.28125 C 228.046875 266.648438 227.523438 266.828125 226.851562 266.828125 C 226.289062 266.828125 225.832031 266.710938 225.480469 266.46875 C 225.132812 266.21875 224.917969 265.859375 224.824219 265.390625 L 225.609375 265.308594 C 225.773438 265.902344 226.1875 266.199219 226.863281 266.199219 C 227.277344 266.199219 227.601562 266.074219 227.835938 265.824219 C 228.074219 265.574219 228.199219 265.230469 228.199219 264.792969 C 228.199219 264.410156 228.074219 264.101562 227.835938 263.867188 C 227.601562 263.632812 227.285156 263.515625 226.886719 263.515625 C 226.675781 263.515625 226.480469 263.550781 226.300781 263.621094 C 226.117188 263.683594 225.941406 263.792969 225.761719 263.949219 L 225 263.949219 L 225.199219 260.691406 L 228.644531 260.691406 L 228.644531 261.347656 L 225.902344 261.347656 L 225.796875 263.269531 C 226.125 263.011719 226.539062 262.882812 227.039062 262.882812 C 227.640625 262.882812 228.117188 263.058594 228.46875 263.410156 C 228.820312 263.761719 228.996094 264.21875 228.996094 264.78125 Z M 280.148438 266.746094 L 280.148438 266.09375 L 281.695312 266.09375 L 281.695312 261.429688 L 280.324219 262.414062 L 280.324219 261.675781 L 281.753906 260.691406 L 282.46875 260.691406 L 282.46875 266.09375 L 283.945312 266.09375 L 283.945312 266.746094 Z M 289.023438 263.714844 C 289.023438 264.730469 288.84375 265.503906 288.484375 266.035156 C 288.132812 266.566406 287.609375 266.828125 286.914062 266.828125 C 286.21875 266.828125 285.695312 266.570312 285.34375 266.046875 C 284.992188 265.515625 284.816406 264.738281 284.816406 263.714844 C 284.816406 262.675781 284.984375 261.898438 285.320312 261.382812 C 285.664062 260.867188 286.203125 260.609375 286.9375 260.609375 C 287.648438 260.609375 288.171875 260.871094 288.507812 261.394531 C 288.851562 261.917969 289.023438 262.691406 289.023438 263.714844 Z M 288.238281 263.714844 C 288.238281 262.847656 288.136719 262.21875 287.933594 261.828125 C 287.738281 261.429688 287.40625 261.230469 286.9375 261.230469 C 286.460938 261.230469 286.117188 261.425781 285.90625 261.816406 C 285.703125 262.199219 285.601562 262.832031 285.601562 263.714844 C 285.601562 264.574219 285.707031 265.203125 285.917969 265.601562 C 286.128906 266 286.464844 266.199219 286.925781 266.199219 C 287.378906 266.199219 287.710938 265.996094 287.921875 265.589844 C 288.132812 265.183594 288.238281 264.558594 288.238281 263.714844 Z M 290.285156 266.746094 L 290.285156 265.8125 L 291.117188 265.8125 L 291.117188 266.746094 Z M 296.019531 263.714844 C 296.019531 264.730469 295.835938 265.503906 295.480469 266.035156 C 295.128906 266.566406 294.601562 266.828125 293.910156 266.828125 C 293.210938 266.828125 292.691406 266.570312 292.339844 266.046875 C 291.988281 265.515625 291.8125 264.738281 291.8125 263.714844 C 291.8125 262.675781 291.976562 261.898438 292.316406 261.382812 C 292.65625 260.867188 293.195312 260.609375 293.933594 260.609375 C 294.640625 260.609375 295.164062 260.871094 295.503906 261.394531 C 295.84375 261.917969 296.019531 262.691406 296.019531 263.714844 Z M 295.234375 263.714844 C 295.234375 262.847656 295.128906 262.21875 294.929688 261.828125 C 294.730469 261.429688 294.402344 261.230469 293.933594 261.230469 C 293.453125 261.230469 293.113281 261.425781 292.902344 261.816406 C 292.695312 262.199219 292.597656 262.832031 292.597656 263.714844 C 292.597656 264.574219 292.703125 265.203125 292.914062 265.601562 C 293.125 266 293.457031 266.199219 293.921875 266.199219 C 294.371094 266.199219 294.707031 265.996094 294.917969 265.589844 C 295.128906 265.183594 295.234375 264.558594 295.234375 263.714844 Z M 295.234375 263.714844 "/>
<path fill-rule="nonzero" fill="rgb(0%, 0%, 0%)" fill-opacity="1" d="M 131.304688 279.476562 L 131.304688 275.785156 C 131.304688 275.40625 131.265625 275.105469 131.1875 274.894531 C 131.117188 274.683594 131 274.53125 130.835938 274.4375 C 130.671875 274.34375 130.429688 274.296875 130.109375 274.296875 C 129.640625 274.296875 129.273438 274.460938 129.007812 274.777344 C 128.742188 275.101562 128.609375 275.546875 128.609375 276.113281 L 128.609375 279.476562 L 127.636719 279.476562 L 127.636719 274.90625 C 127.636719 274.226562 127.625 273.816406 127.601562 273.664062 L 128.515625 273.664062 C 128.523438 273.683594 128.527344 273.730469 128.527344 273.804688 C 128.535156 273.886719 128.539062 273.980469 128.539062 274.085938 C 128.546875 274.191406 128.554688 274.378906 128.5625 274.660156 L 128.574219 274.660156 C 128.800781 274.257812 129.058594 273.96875 129.347656 273.804688 C 129.644531 273.640625 130.007812 273.558594 130.4375 273.558594 C 131.078125 273.558594 131.542969 273.722656 131.832031 274.039062 C 132.128906 274.355469 132.277344 274.871094 132.277344 275.597656 L 132.277344 279.476562 Z M 132.707031 281.667969 L 132.707031 280.964844 L 139.117188 280.964844 L 139.117188 281.667969 Z M 141.851562 279.429688 C 141.53125 279.515625 141.207031 279.558594 140.878906 279.558594 C 140.105469 279.558594 139.71875 279.125 139.71875 278.246094 L 139.71875 274.367188 L 139.039062 274.367188 L 139.039062 273.664062 L 139.753906 273.664062 L 140.035156 272.363281 L 140.679688 272.363281 L 140.679688 273.664062 L 141.757812 273.664062 L 141.757812 274.367188 L 140.679688 274.367188 L 140.679688 278.035156 C 140.679688 278.316406 140.722656 278.515625 140.808594 278.632812 C 140.902344 278.746094 141.0625 278.796875 141.289062 278.796875 C 141.421875 278.796875 141.609375 278.773438 141.851562 278.714844 Z M 142.597656 272.421875 L 142.597656 271.507812 L 143.558594 271.507812 L 143.558594 272.421875 Z M 142.597656 279.476562 L 142.597656 273.664062 L 143.558594 273.664062 L 143.558594 279.476562 Z M 147.984375 279.476562 L 147.984375 275.785156 C 147.984375 275.222656 147.90625 274.835938 147.75 274.625 C 147.601562 274.410156 147.324219 274.296875 146.917969 274.296875 C 146.511719 274.296875 146.1875 274.460938 145.945312 274.777344 C 145.703125 275.09375 145.582031 275.539062 145.582031 276.113281 L 145.582031 279.476562 L 144.621094 279.476562 L 144.621094 274.90625 C 144.621094 274.226562 144.609375 273.816406 144.585938 273.664062 L 145.5 273.664062 C 145.507812 273.683594 145.511719 273.730469 145.511719 273.804688 C 145.519531 273.886719 145.523438 273.980469 145.523438 274.085938 C 145.53125 274.191406 145.539062 274.378906 145.546875 274.660156 L 145.558594 274.660156 C 145.769531 274.25 146.007812 273.964844 146.273438 273.804688 C 146.546875 273.640625 146.875 273.558594 147.257812 273.558594 C 147.703125 273.558594 148.050781 273.652344 148.300781 273.828125 C 148.558594 274.003906 148.738281 274.28125 148.839844 274.660156 L 148.851562 274.660156 C 149.054688 274.273438 149.296875 273.992188 149.578125 273.816406 C 149.867188 273.648438 150.214844 273.558594 150.621094 273.558594 C 151.207031 273.558594 151.632812 273.722656 151.898438 274.039062 C 152.164062 274.355469 152.296875 274.871094 152.296875 275.597656 L 152.296875 279.476562 L 151.347656 279.476562 L 151.347656 275.785156 C 151.347656 275.222656 151.269531 274.835938 151.113281 274.625 C 150.957031 274.410156 150.679688 274.296875 150.28125 274.296875 C 149.859375 274.296875 149.53125 274.460938 149.296875 274.777344 C 149.0625 275.09375 148.945312 275.539062 148.945312 276.113281 L 148.945312 279.476562 Z M 154.34375 276.769531 C 154.34375 277.445312 154.480469 277.960938 154.753906 278.316406 C 155.027344 278.679688 155.429688 278.855469 155.960938 278.855469 C 156.382812 278.855469 156.71875 278.773438 156.96875 278.609375 C 157.21875 278.441406 157.390625 278.222656 157.484375 277.964844 L 158.328125 278.210938 C 157.984375 279.125 157.195312 279.582031 155.960938 279.582031 C 155.101562 279.582031 154.445312 279.332031 153.992188 278.820312 C 153.546875 278.304688 153.324219 277.542969 153.324219 276.535156 C 153.324219 275.574219 153.546875 274.84375 153.992188 274.332031 C 154.445312 273.816406 155.089844 273.558594 155.925781 273.558594 C 157.636719 273.558594 158.492188 274.589844 158.492188 276.640625 L 158.492188 276.769531 Z M 157.484375 276.03125 C 157.429688 275.421875 157.273438 274.976562 157.015625 274.695312 C 156.757812 274.414062 156.386719 274.273438 155.902344 274.273438 C 155.433594 274.273438 155.0625 274.433594 154.789062 274.742188 C 154.515625 275.058594 154.367188 275.488281 154.34375 276.03125 Z M 158.699219 281.667969 L 158.699219 280.964844 L 165.109375 280.964844 L 165.109375 281.667969 Z M 170.519531 276.546875 C 170.519531 278.574219 169.804688 279.582031 168.375 279.582031 C 167.484375 279.582031 166.882812 279.25 166.570312 278.574219 L 166.546875 278.574219 C 166.5625 278.609375 166.570312 278.914062 166.570312 279.488281 L 166.570312 281.761719 L 165.597656 281.761719 L 165.597656 274.847656 C 165.597656 274.257812 165.589844 273.863281 165.574219 273.664062 L 166.5 273.664062 C 166.507812 273.683594 166.515625 273.734375 166.523438 273.816406 C 166.53125 273.90625 166.539062 274.039062 166.546875 274.226562 C 166.554688 274.410156 166.558594 274.53125 166.558594 274.601562 L 166.582031 274.601562 C 166.753906 274.246094 166.980469 273.980469 167.261719 273.816406 C 167.542969 273.648438 167.914062 273.558594 168.375 273.558594 C 169.09375 273.558594 169.628906 273.804688 169.980469 274.285156 C 170.339844 274.765625 170.519531 275.515625 170.519531 276.546875 Z M 169.5 276.558594 C 169.5 275.757812 169.390625 275.183594 169.171875 274.835938 C 168.953125 274.484375 168.605469 274.308594 168.128906 274.308594 C 167.746094 274.308594 167.445312 274.390625 167.226562 274.554688 C 167.015625 274.714844 166.851562 274.964844 166.734375 275.304688 C 166.625 275.652344 166.570312 276.097656 166.570312 276.640625 C 166.570312 277.410156 166.691406 277.972656 166.933594 278.328125 C 167.175781 278.691406 167.570312 278.867188 168.117188 278.867188 C 168.601562 278.867188 168.953125 278.691406 169.171875 278.339844 C 169.390625 277.988281 169.5 277.398438 169.5 276.558594 Z M 176.515625 276.558594 C 176.515625 277.585938 176.285156 278.347656 175.835938 278.84375 C 175.390625 279.335938 174.738281 279.582031 173.890625 279.582031 C 173.035156 279.582031 172.390625 279.324219 171.957031 278.808594 C 171.523438 278.292969 171.3125 277.542969 171.3125 276.558594 C 171.3125 274.5625 172.179688 273.558594 173.925781 273.558594 C 174.816406 273.558594 175.464844 273.804688 175.882812 274.296875 C 176.304688 274.785156 176.515625 275.539062 176.515625 276.558594 Z M 175.496094 276.558594 C 175.496094 275.761719 175.371094 275.1875 175.132812 274.824219 C 174.898438 274.460938 174.5 274.273438 173.9375 274.273438 C 173.375 274.273438 172.964844 274.460938 172.707031 274.835938 C 172.453125 275.207031 172.332031 275.78125 172.332031 276.558594 C 172.332031 277.332031 172.453125 277.914062 172.707031 278.292969 C 172.953125 278.679688 173.34375 278.867188 173.878906 278.867188 C 174.453125 278.867188 174.867188 278.6875 175.121094 278.316406 C 175.367188 277.941406 175.496094 277.355469 175.496094 276.558594 Z M 177.597656 272.421875 L 177.597656 271.507812 L 178.558594 271.507812 L 178.558594 272.421875 Z M 177.597656 279.476562 L 177.597656 273.664062 L 178.558594 273.664062 L 178.558594 279.476562 Z M 183.277344 279.476562 L 183.277344 275.785156 C 183.277344 275.40625 183.238281 275.105469 183.160156 274.894531 C 183.089844 274.683594 182.972656 274.53125 182.808594 274.4375 C 182.644531 274.34375 182.402344 274.296875 182.082031 274.296875 C 181.613281 274.296875 181.246094 274.460938 180.980469 274.777344 C 180.714844 275.101562 180.582031 275.546875 180.582031 276.113281 L 180.582031 279.476562 L 179.609375 279.476562 L 179.609375 274.90625 C 179.609375 274.226562 179.597656 273.816406 179.574219 273.664062 L 180.488281 273.664062 C 180.496094 273.683594 180.5 273.730469 180.5 273.804688 C 180.507812 273.886719 180.511719 273.980469 180.511719 274.085938 C 180.519531 274.191406 180.527344 274.378906 180.535156 274.660156 L 180.546875 274.660156 C 180.773438 274.257812 181.03125 273.96875 181.320312 273.804688 C 181.617188 273.640625 181.980469 273.558594 182.410156 273.558594 C 183.050781 273.558594 183.515625 273.722656 183.804688 274.039062 C 184.101562 274.355469 184.25 274.871094 184.25 275.597656 L 184.25 279.476562 Z M 187.824219 279.429688 C 187.5 279.515625 187.179688 279.558594 186.851562 279.558594 C 186.078125 279.558594 185.691406 279.125 185.691406 278.246094 L 185.691406 274.367188 L 185.011719 274.367188 L 185.011719 273.664062 L 185.726562 273.664062 L 186.007812 272.363281 L 186.652344 272.363281 L 186.652344 273.664062 L 187.730469 273.664062 L 187.730469 274.367188 L 186.652344 274.367188 L 186.652344 278.035156 C 186.652344 278.316406 186.691406 278.515625 186.78125 278.632812 C 186.875 278.746094 187.03125 278.796875 187.261719 278.796875 C 187.390625 278.796875 187.578125 278.773438 187.824219 278.714844 Z M 192.945312 277.871094 C 192.945312 278.421875 192.738281 278.84375 192.324219 279.136719 C 191.910156 279.4375 191.328125 279.582031 190.578125 279.582031 C 189.859375 279.582031 189.300781 279.464844 188.902344 279.230469 C 188.511719 278.992188 188.257812 278.621094 188.140625 278.117188 L 188.996094 277.941406 C 189.082031 278.257812 189.253906 278.488281 189.511719 278.632812 C 189.769531 278.773438 190.125 278.84375 190.578125 278.84375 C 191.070312 278.84375 191.429688 278.773438 191.65625 278.621094 C 191.882812 278.476562 191.996094 278.246094 191.996094 277.941406 C 191.996094 277.71875 191.917969 277.53125 191.761719 277.390625 C 191.605469 277.246094 191.351562 277.121094 191 277.027344 L 190.308594 276.851562 C 189.753906 276.707031 189.359375 276.566406 189.125 276.429688 C 188.890625 276.289062 188.707031 276.125 188.574219 275.925781 C 188.441406 275.734375 188.375 275.492188 188.375 275.199219 C 188.375 274.671875 188.5625 274.269531 188.9375 273.992188 C 189.320312 273.710938 189.871094 273.570312 190.589844 273.570312 C 191.230469 273.570312 191.738281 273.6875 192.113281 273.910156 C 192.496094 274.140625 192.738281 274.503906 192.839844 275 L 191.972656 275.105469 C 191.917969 274.847656 191.773438 274.648438 191.539062 274.507812 C 191.304688 274.367188 190.988281 274.296875 190.589844 274.296875 C 190.152344 274.296875 189.828125 274.367188 189.617188 274.496094 C 189.414062 274.632812 189.3125 274.835938 189.3125 275.105469 C 189.3125 275.269531 189.355469 275.410156 189.441406 275.515625 C 189.527344 275.621094 189.652344 275.710938 189.816406 275.785156 C 189.988281 275.867188 190.34375 275.972656 190.882812 276.101562 C 191.398438 276.230469 191.769531 276.347656 191.996094 276.453125 C 192.222656 276.566406 192.398438 276.6875 192.523438 276.816406 C 192.65625 276.953125 192.757812 277.105469 192.828125 277.273438 C 192.90625 277.449219 192.945312 277.648438 192.945312 277.871094 Z M 193.679688 281.667969 L 193.679688 280.964844 L 200.089844 280.964844 L 200.089844 281.667969 Z M 203.960938 279.476562 L 203.960938 275.785156 C 203.960938 275.222656 203.882812 274.835938 203.726562 274.625 C 203.578125 274.410156 203.300781 274.296875 202.894531 274.296875 C 202.488281 274.296875 202.164062 274.460938 201.921875 274.777344 C 201.679688 275.09375 201.558594 275.539062 201.558594 276.113281 L 201.558594 279.476562 L 200.597656 279.476562 L 200.597656 274.90625 C 200.597656 274.226562 200.585938 273.816406 200.5625 273.664062 L 201.476562 273.664062 C 201.484375 273.683594 201.488281 273.730469 201.488281 273.804688 C 201.496094 273.886719 201.5 273.980469 201.5 274.085938 C 201.507812 274.191406 201.515625 274.378906 201.523438 274.660156 L 201.535156 274.660156 C 201.746094 274.25 201.984375 273.964844 202.25 273.804688 C 202.523438 273.640625 202.851562 273.558594 203.234375 273.558594 C 203.679688 273.558594 204.027344 273.652344 204.277344 273.828125 C 204.535156 274.003906 204.714844 274.28125 204.816406 274.660156 L 204.828125 274.660156 C 205.03125 274.273438 205.273438 273.992188 205.554688 273.816406 C 205.84375 273.648438 206.191406 273.558594 206.597656 273.558594 C 207.183594 273.558594 207.609375 273.722656 207.875 274.039062 C 208.140625 274.355469 208.273438 274.871094 208.273438 275.597656 L 208.273438 279.476562 L 207.324219 279.476562 L 207.324219 275.785156 C 207.324219 275.222656 207.246094 274.835938 207.089844 274.625 C 206.933594 274.410156 206.65625 274.296875 206.257812 274.296875 C 205.835938 274.296875 205.507812 274.460938 205.273438 274.777344 C 205.039062 275.09375 204.921875 275.539062 204.921875 276.113281 L 204.921875 279.476562 Z M 209.574219 272.421875 L 209.574219 271.507812 L 210.535156 271.507812 L 210.535156 272.421875 Z M 209.574219 279.476562 L 209.574219 273.664062 L 210.535156 273.664062 L 210.535156 279.476562 Z M 215.269531 279.476562 L 215.269531 275.785156 C 215.269531 275.40625 215.226562 275.105469 215.152344 274.894531 C 215.082031 274.683594 214.964844 274.53125 214.800781 274.4375 C 214.636719 274.34375 214.390625 274.296875 214.074219 274.296875 C 213.605469 274.296875 213.234375 274.460938 212.972656 274.777344 C 212.703125 275.101562 212.574219 275.546875 212.574219 276.113281 L 212.574219 279.476562 L 211.601562 279.476562 L 211.601562 274.90625 C 211.601562 274.226562 211.585938 273.816406 211.5625 273.664062 L 212.476562 273.664062 C 212.484375 273.683594 212.488281 273.730469 212.488281 273.804688 C 212.496094 273.886719 212.5 273.980469 212.5 274.085938 C 212.507812 274.191406 212.515625 274.378906 212.527344 274.660156 L 212.539062 274.660156 C 212.761719 274.257812 213.019531 273.96875 213.3125 273.804688 C 213.605469 273.640625 213.96875 273.558594 214.402344 273.558594 C 215.039062 273.558594 215.503906 273.722656 215.796875 274.039062 C 216.089844 274.355469 216.242188 274.871094 216.242188 275.597656 L 216.242188 279.476562 Z M 215.269531 279.476562 "/>
<path fill-rule="nonzero" fill="rgb(0%, 0%, 0%)" fill-opacity="1" d="M 11.304688 202.902344 C 11.980469 202.902344 12.5 203.148438 12.875 203.640625 C 13.25 204.132812 13.4375 204.816406 13.4375 205.691406 L 13.4375 208.761719 L 5.867188 208.761719 L 5.867188 206.007812 C 5.867188 204.234375 6.484375 203.347656 7.707031 203.347656 C 8.152344 203.347656 8.527344 203.472656 8.832031 203.722656 C 9.136719 203.972656 9.34375 204.328125 9.441406 204.789062 C 9.523438 204.1875 9.722656 203.722656 10.050781 203.394531 C 10.378906 203.066406 10.796875 202.902344 11.304688 202.902344 Z M 7.824219 204.378906 C 7.421875 204.378906 7.128906 204.519531 6.957031 204.800781 C 6.777344 205.074219 6.6875 205.476562 6.6875 206.007812 L 6.6875 207.730469 L 9.089844 207.730469 L 9.089844 206.007812 C 9.089844 205.460938 8.992188 205.054688 8.785156 204.789062 C 8.574219 204.515625 8.253906 204.378906 7.824219 204.378906 Z M 11.222656 203.945312 C 10.332031 203.945312 9.886719 204.570312 9.886719 205.820312 L 9.886719 207.730469 L 12.617188 207.730469 L 12.617188 205.738281 C 12.617188 205.113281 12.5 204.660156 12.265625 204.378906 C 12.03125 204.089844 11.6875 203.945312 11.222656 203.945312 Z M 6.382812 201.941406 L 5.46875 201.941406 L 5.46875 200.980469 L 6.382812 200.980469 Z M 13.4375 201.941406 L 7.625 201.941406 L 7.625 200.980469 L 13.4375 200.980469 Z M 13.542969 198.449219 C 13.542969 199.035156 13.390625 199.480469 13.085938 199.773438 C 12.777344 200.066406 12.355469 200.207031 11.820312 200.207031 C 11.21875 200.207031 10.761719 200.015625 10.4375 199.621094 C 10.109375 199.222656 9.933594 198.585938 9.910156 197.699219 L 9.886719 196.398438 L 9.570312 196.398438 C 9.101562 196.398438 8.769531 196.503906 8.5625 196.703125 C 8.363281 196.902344 8.257812 197.214844 8.257812 197.640625 C 8.257812 198.074219 8.335938 198.390625 8.480469 198.589844 C 8.621094 198.789062 8.855469 198.90625 9.171875 198.941406 L 9.089844 199.949219 C 8.046875 199.785156 7.519531 199.011719 7.519531 197.617188 C 7.519531 196.890625 7.691406 196.347656 8.023438 195.976562 C 8.351562 195.601562 8.839844 195.414062 9.476562 195.414062 L 11.972656 195.414062 C 12.265625 195.414062 12.484375 195.378906 12.628906 195.308594 C 12.769531 195.234375 12.839844 195.085938 12.839844 194.875 C 12.839844 194.78125 12.828125 194.675781 12.804688 194.558594 L 13.402344 194.558594 C 13.464844 194.804688 13.496094 195.050781 13.496094 195.308594 C 13.496094 195.660156 13.402344 195.917969 13.214844 196.082031 C 13.023438 196.246094 12.722656 196.339844 12.324219 196.363281 L 12.324219 196.402344 C 12.769531 196.644531 13.085938 196.929688 13.273438 197.257812 C 13.453125 197.582031 13.542969 197.980469 13.542969 198.449219 Z M 12.816406 198.226562 C 12.816406 197.875 12.742188 197.566406 12.582031 197.289062 C 12.417969 197.007812 12.195312 196.792969 11.914062 196.632812 C 11.632812 196.480469 11.347656 196.398438 11.046875 196.398438 L 10.566406 196.398438 L 10.589844 197.453125 C 10.601562 197.910156 10.644531 198.25 10.730469 198.484375 C 10.820312 198.71875 10.949219 198.902344 11.128906 199.023438 C 11.3125 199.152344 11.546875 199.210938 11.832031 199.210938 C 12.144531 199.210938 12.390625 199.128906 12.558594 198.964844 C 12.730469 198.796875 12.816406 198.550781 12.816406 198.226562 Z M 11.832031 189.570312 C 12.378906 189.570312 12.800781 189.777344 13.097656 190.191406 C 13.398438 190.609375 13.542969 191.1875 13.542969 191.9375 C 13.542969 192.660156 13.425781 193.214844 13.191406 193.613281 C 12.953125 194.007812 12.578125 194.257812 12.078125 194.375 L 11.902344 193.519531 C 12.214844 193.433594 12.449219 193.261719 12.59375 193.003906 C 12.734375 192.746094 12.804688 192.390625 12.804688 191.9375 C 12.804688 191.445312 12.730469 191.089844 12.582031 190.859375 C 12.4375 190.632812 12.207031 190.519531 11.902344 190.519531 C 11.675781 190.519531 11.492188 190.597656 11.351562 190.753906 C 11.207031 190.914062 11.082031 191.164062 10.988281 191.515625 L 10.8125 192.207031 C 10.667969 192.765625 10.527344 193.15625 10.390625 193.390625 C 10.25 193.625 10.082031 193.808594 9.886719 193.941406 C 9.695312 194.078125 9.449219 194.140625 9.160156 194.140625 C 8.628906 194.140625 8.230469 193.953125 7.953125 193.578125 C 7.671875 193.199219 7.53125 192.648438 7.53125 191.925781 C 7.53125 191.289062 7.644531 190.777344 7.871094 190.402344 C 8.101562 190.023438 8.464844 189.777344 8.960938 189.675781 L 9.066406 190.542969 C 8.808594 190.597656 8.609375 190.742188 8.46875 190.976562 C 8.328125 191.210938 8.257812 191.527344 8.257812 191.925781 C 8.257812 192.367188 8.328125 192.6875 8.457031 192.898438 C 8.59375 193.105469 8.792969 193.203125 9.066406 193.203125 C 9.230469 193.203125 9.367188 193.164062 9.476562 193.074219 C 9.578125 192.988281 9.671875 192.863281 9.746094 192.699219 C 9.828125 192.53125 9.929688 192.171875 10.0625 191.632812 C 10.1875 191.117188 10.304688 190.75 10.414062 190.519531 C 10.527344 190.292969 10.644531 190.117188 10.777344 189.992188 C 10.914062 189.859375 11.066406 189.757812 11.234375 189.6875 C 11.40625 189.613281 11.605469 189.570312 11.832031 189.570312 Z M 10.519531 180.023438 C 11.546875 180.023438 12.308594 180.25 12.804688 180.703125 C 13.296875 181.148438 13.542969 181.796875 13.542969 182.648438 C 13.542969 183.5 13.285156 184.144531 12.769531 184.582031 C 12.253906 185.011719 11.503906 185.226562 10.519531 185.226562 C 8.523438 185.226562 7.519531 184.355469 7.519531 182.613281 C 7.519531 181.722656 7.765625 181.070312 8.257812 180.65625 C 8.746094 180.234375 9.496094 180.023438 10.519531 180.023438 Z M 10.519531 181.042969 C 9.722656 181.042969 9.144531 181.164062 8.785156 181.40625 C 8.417969 181.640625 8.234375 182.039062 8.234375 182.601562 C 8.234375 183.164062 8.421875 183.574219 8.796875 183.832031 C 9.167969 184.082031 9.742188 184.207031 10.519531 184.207031 C 11.292969 184.207031 11.875 184.082031 12.253906 183.832031 C 12.636719 183.582031 12.828125 183.191406 12.828125 182.660156 C 12.828125 182.082031 12.648438 181.667969 12.277344 181.417969 C 11.902344 181.167969 11.316406 181.042969 10.519531 181.042969 Z M 8.328125 177.742188 L 13.4375 177.742188 L 13.4375 178.714844 L 8.328125 178.714844 L 8.328125 179.535156 L 7.625 179.535156 L 7.625 178.714844 L 6.96875 178.714844 C 6.4375 178.714844 6.0625 178.597656 5.832031 178.363281 C 5.597656 178.128906 5.480469 177.777344 5.480469 177.296875 C 5.480469 177.035156 5.503906 176.804688 5.539062 176.617188 L 6.277344 176.617188 C 6.25 176.777344 6.230469 176.917969 6.230469 177.039062 C 6.230469 177.292969 6.296875 177.472656 6.417969 177.578125 C 6.546875 177.691406 6.769531 177.742188 7.097656 177.742188 L 7.625 177.742188 L 7.625 176.617188 L 8.328125 176.617188 Z M 10.507812 172.226562 C 11.28125 172.226562 11.855469 172.105469 12.230469 171.863281 C 12.601562 171.625 12.78125 171.253906 12.78125 170.761719 C 12.78125 170.417969 12.6875 170.136719 12.5 169.90625 C 12.3125 169.671875 12.027344 169.527344 11.644531 169.472656 L 11.703125 168.488281 C 12.265625 168.566406 12.71875 168.8125 13.050781 169.214844 C 13.378906 169.613281 13.542969 170.117188 13.542969 170.726562 C 13.542969 171.546875 13.292969 172.175781 12.78125 172.601562 C 12.265625 173.023438 11.511719 173.234375 10.519531 173.234375 C 9.542969 173.234375 8.804688 173.019531 8.292969 172.589844 C 7.777344 172.164062 7.519531 171.542969 7.519531 170.738281 C 7.519531 170.148438 7.679688 169.65625 7.988281 169.261719 C 8.292969 168.871094 8.714844 168.625 9.253906 168.523438 L 9.324219 169.519531 C 9.003906 169.566406 8.75 169.695312 8.5625 169.90625 C 8.371094 170.113281 8.269531 170.398438 8.269531 170.773438 C 8.269531 171.285156 8.441406 171.652344 8.785156 171.886719 C 9.121094 172.117188 9.695312 172.226562 10.507812 172.226562 Z M 10.519531 162.050781 C 11.546875 162.050781 12.308594 162.277344 12.804688 162.730469 C 13.296875 163.175781 13.542969 163.824219 13.542969 164.675781 C 13.542969 165.527344 13.285156 166.171875 12.769531 166.609375 C 12.253906 167.039062 11.503906 167.253906 10.519531 167.253906 C 8.523438 167.253906 7.519531 166.382812 7.519531 164.640625 C 7.519531 163.75 7.765625 163.097656 8.257812 162.683594 C 8.746094 162.261719 9.5 162.050781 10.519531 162.050781 Z M 10.519531 163.070312 C 9.722656 163.070312 9.148438 163.191406 8.785156 163.433594 C 8.421875 163.667969 8.234375 164.066406 8.234375 164.628906 C 8.234375 165.191406 8.421875 165.601562 8.796875 165.859375 C 9.167969 166.109375 9.742188 166.234375 10.519531 166.234375 C 11.292969 166.234375 11.875 166.109375 12.253906 165.859375 C 12.640625 165.609375 12.828125 165.21875 12.828125 164.6875 C 12.828125 164.109375 12.648438 163.695312 12.277344 163.445312 C 11.902344 163.195312 11.316406 163.070312 10.519531 163.070312 Z M 10.730469 160.214844 C 11.40625 160.214844 11.921875 160.082031 12.277344 159.804688 C 12.640625 159.53125 12.816406 159.132812 12.816406 158.597656 C 12.816406 158.175781 12.734375 157.84375 12.570312 157.589844 C 12.402344 157.339844 12.183594 157.167969 11.925781 157.074219 L 12.171875 156.230469 C 13.085938 156.578125 13.542969 157.363281 13.542969 158.597656 C 13.542969 159.460938 13.292969 160.117188 12.78125 160.566406 C 12.265625 161.011719 11.503906 161.234375 10.496094 161.234375 C 9.535156 161.234375 8.804688 161.011719 8.292969 160.566406 C 7.777344 160.117188 7.519531 159.472656 7.519531 158.632812 C 7.519531 156.921875 8.546875 156.066406 10.601562 156.066406 L 10.730469 156.066406 Z M 9.992188 157.074219 C 9.382812 157.128906 8.9375 157.285156 8.65625 157.542969 C 8.375 157.800781 8.234375 158.171875 8.234375 158.65625 C 8.234375 159.125 8.394531 159.496094 8.703125 159.769531 C 9.019531 160.046875 9.449219 160.191406 9.992188 160.214844 Z M 8.328125 153.765625 L 13.4375 153.765625 L 13.4375 154.738281 L 8.328125 154.738281 L 8.328125 155.558594 L 7.625 155.558594 L 7.625 154.738281 L 6.96875 154.738281 C 6.4375 154.738281 6.0625 154.621094 5.832031 154.386719 C 5.597656 154.152344 5.480469 153.796875 5.480469 153.320312 C 5.480469 153.054688 5.503906 152.828125 5.539062 152.640625 L 6.277344 152.640625 C 6.25 152.796875 6.230469 152.9375 6.230469 153.0625 C 6.230469 153.3125 6.296875 153.492188 6.417969 153.601562 C 6.546875 153.710938 6.769531 153.765625 7.097656 153.765625 L 7.625 153.765625 L 7.625 152.640625 L 8.328125 152.640625 Z M 8.328125 150.769531 L 13.4375 150.769531 L 13.4375 151.742188 L 8.328125 151.742188 L 8.328125 152.5625 L 7.625 152.5625 L 7.625 151.742188 L 6.96875 151.742188 C 6.4375 151.742188 6.0625 151.625 5.832031 151.390625 C 5.597656 151.15625 5.480469 150.800781 5.480469 150.324219 C 5.480469 150.0625 5.503906 149.832031 5.539062 149.644531 L 6.277344 149.644531 C 6.25 149.804688 6.230469 149.945312 6.230469 150.066406 C 6.230469 150.320312 6.296875 150.496094 6.417969 150.605469 C 6.546875 150.71875 6.769531 150.769531 7.097656 150.769531 L 7.625 150.769531 L 7.625 149.644531 L 8.328125 149.644531 Z M 6.382812 148.984375 L 5.46875 148.984375 L 5.46875 148.023438 L 6.382812 148.023438 Z M 13.4375 148.984375 L 7.625 148.984375 L 7.625 148.023438 L 13.4375 148.023438 Z M 10.507812 146.257812 C 11.28125 146.257812 11.855469 146.136719 12.230469 145.894531 C 12.601562 145.65625 12.78125 145.285156 12.78125 144.792969 C 12.78125 144.449219 12.6875 144.167969 12.5 143.9375 C 12.3125 143.703125 12.027344 143.558594 11.644531 143.503906 L 11.703125 142.519531 C 12.265625 142.597656 12.71875 142.84375 13.050781 143.246094 C 13.378906 143.644531 13.542969 144.148438 13.542969 144.757812 C 13.542969 145.578125 13.292969 146.207031 12.78125 146.632812 C 12.265625 147.054688 11.511719 147.265625 10.519531 147.265625 C 9.542969 147.265625 8.804688 147.050781 8.292969 146.621094 C 7.777344 146.195312 7.519531 145.574219 7.519531 144.769531 C 7.519531 144.179688 7.679688 143.6875 7.988281 143.292969 C 8.292969 142.902344 8.714844 142.65625 9.253906 142.554688 L 9.324219 143.550781 C 9.003906 143.597656 8.75 143.726562 8.5625 143.9375 C 8.371094 144.144531 8.269531 144.429688 8.269531 144.804688 C 8.269531 145.316406 8.441406 145.683594 8.785156 145.917969 C 9.121094 146.148438 9.695312 146.257812 10.507812 146.257812 Z M 6.382812 140.992188 L 5.46875 140.992188 L 5.46875 140.03125 L 6.382812 140.03125 Z M 13.4375 140.992188 L 7.625 140.992188 L 7.625 140.03125 L 13.4375 140.03125 Z M 10.730469 138.25 C 11.40625 138.25 11.921875 138.113281 12.277344 137.839844 C 12.636719 137.566406 12.816406 137.164062 12.816406 136.632812 C 12.816406 136.210938 12.734375 135.875 12.570312 135.625 C 12.402344 135.375 12.183594 135.203125 11.925781 135.109375 L 12.171875 134.265625 C 13.085938 134.609375 13.542969 135.398438 13.542969 136.632812 C 13.542969 137.492188 13.292969 138.148438 12.78125 138.601562 C 12.265625 139.046875 11.503906 139.269531 10.496094 139.269531 C 9.535156 139.269531 8.804688 139.046875 8.292969 138.601562 C 7.777344 138.148438 7.519531 137.503906 7.519531 136.667969 C 7.519531 134.957031 8.546875 134.101562 10.601562 134.101562 L 10.730469 134.101562 Z M 9.992188 135.109375 C 9.382812 135.164062 8.9375 135.320312 8.65625 135.578125 C 8.375 135.835938 8.234375 136.207031 8.234375 136.691406 C 8.234375 137.160156 8.394531 137.53125 8.703125 137.804688 C 9.015625 138.078125 9.449219 138.226562 9.992188 138.25 Z M 13.4375 129.300781 L 9.746094 129.300781 C 9.367188 129.300781 9.066406 129.34375 8.855469 129.417969 C 8.644531 129.488281 8.492188 129.605469 8.398438 129.769531 C 8.304688 129.933594 8.257812 130.175781 8.257812 130.496094 C 8.257812 130.964844 8.417969 131.335938 8.738281 131.597656 C 9.0625 131.863281 9.507812 131.996094 10.074219 131.996094 L 13.4375 131.996094 L 13.4375 132.96875 L 8.867188 132.96875 C 8.1875 132.96875 7.773438 132.980469 7.625 133.003906 L 7.625 132.089844 C 7.644531 132.085938 7.691406 132.078125 7.765625 132.078125 C 7.847656 132.074219 7.9375 132.066406 8.046875 132.066406 C 8.148438 132.0625 8.339844 132.050781 8.621094 132.042969 L 8.621094 132.03125 C 8.21875 131.804688 7.929688 131.546875 7.765625 131.257812 C 7.601562 130.960938 7.519531 130.597656 7.519531 130.167969 C 7.519531 129.53125 7.679688 129.0625 8 128.773438 C 8.3125 128.476562 8.832031 128.328125 9.558594 128.328125 L 13.4375 128.328125 Z M 13.390625 124.761719 C 13.476562 125.082031 13.519531 125.40625 13.519531 125.734375 C 13.519531 126.507812 13.082031 126.894531 12.207031 126.894531 L 8.328125 126.894531 L 8.328125 127.574219 L 7.625 127.574219 L 7.625 126.859375 L 6.324219 126.578125 L 6.324219 125.933594 L 7.625 125.933594 L 7.625 124.855469 L 8.328125 124.855469 L 8.328125 125.933594 L 11.996094 125.933594 C 12.277344 125.933594 12.476562 125.890625 12.59375 125.804688 C 12.707031 125.710938 12.757812 125.550781 12.757812 125.324219 C 12.757812 125.191406 12.730469 125.003906 12.675781 124.761719 Z M 11.832031 116.644531 C 12.378906 116.644531 12.800781 116.851562 13.097656 117.265625 C 13.398438 117.679688 13.542969 118.261719 13.542969 119.011719 C 13.542969 119.730469 13.425781 120.285156 13.191406 120.6875 C 12.953125 121.078125 12.578125 121.332031 12.078125 121.449219 L 11.902344 120.59375 C 12.214844 120.507812 12.449219 120.332031 12.59375 120.078125 C 12.734375 119.816406 12.804688 119.464844 12.804688 119.011719 C 12.804688 118.519531 12.730469 118.160156 12.582031 117.933594 C 12.4375 117.707031 12.207031 117.59375 11.902344 117.59375 C 11.675781 117.59375 11.492188 117.671875 11.351562 117.828125 C 11.207031 117.984375 11.082031 118.238281 10.988281 118.589844 L 10.8125 119.28125 C 10.667969 119.835938 10.527344 120.230469 10.390625 120.464844 C 10.25 120.699219 10.082031 120.882812 9.886719 121.015625 C 9.695312 121.148438 9.449219 121.214844 9.160156 121.214844 C 8.628906 121.214844 8.230469 121.027344 7.953125 120.652344 C 7.671875 120.269531 7.53125 119.71875 7.53125 119 C 7.53125 118.359375 7.644531 117.847656 7.871094 117.472656 C 8.101562 117.09375 8.464844 116.851562 8.960938 116.75 L 9.066406 117.613281 C 8.808594 117.671875 8.609375 117.816406 8.46875 118.050781 C 8.328125 118.285156 8.257812 118.597656 8.257812 119 C 8.257812 119.4375 8.328125 119.761719 8.457031 119.972656 C 8.59375 120.175781 8.792969 120.277344 9.066406 120.277344 C 9.230469 120.277344 9.367188 120.234375 9.476562 120.144531 C 9.578125 120.0625 9.671875 119.9375 9.746094 119.769531 C 9.828125 119.601562 9.929688 119.246094 10.0625 118.707031 C 10.1875 118.191406 10.304688 117.820312 10.414062 117.59375 C 10.527344 117.367188 10.644531 117.191406 10.777344 117.066406 C 10.914062 116.933594 11.066406 116.832031 11.234375 116.761719 C 11.40625 116.683594 11.605469 116.644531 11.832031 116.644531 Z M 10.519531 110.097656 C 11.546875 110.097656 12.308594 110.328125 12.804688 110.777344 C 13.296875 111.222656 13.542969 111.875 13.542969 112.722656 C 13.542969 113.574219 13.285156 114.21875 12.769531 114.65625 C 12.253906 115.085938 11.503906 115.300781 10.519531 115.300781 C 8.523438 115.300781 7.519531 114.429688 7.519531 112.6875 C 7.519531 111.796875 7.765625 111.148438 8.257812 110.730469 C 8.746094 110.308594 9.496094 110.097656 10.519531 110.097656 Z M 10.519531 111.117188 C 9.722656 111.117188 9.144531 111.242188 8.785156 111.480469 C 8.417969 111.714844 8.234375 112.113281 8.234375 112.675781 C 8.234375 113.238281 8.421875 113.648438 8.796875 113.90625 C 9.167969 114.160156 9.742188 114.28125 10.519531 114.28125 C 11.292969 114.28125 11.875 114.160156 12.253906 113.90625 C 12.636719 113.65625 12.828125 113.269531 12.828125 112.734375 C 12.828125 112.15625 12.648438 111.746094 12.277344 111.492188 C 11.902344 111.242188 11.316406 111.117188 10.519531 111.117188 Z M 8.328125 107.808594 L 13.4375 107.808594 L 13.4375 108.777344 L 8.328125 108.777344 L 8.328125 109.601562 L 7.625 109.601562 L 7.625 108.777344 L 6.96875 108.777344 C 6.4375 108.777344 6.0625 108.664062 5.832031 108.425781 C 5.597656 108.195312 5.480469 107.839844 5.480469 107.363281 C 5.480469 107.097656 5.503906 106.871094 5.539062 106.683594 L 6.277344 106.683594 C 6.25 106.839844 6.230469 106.980469 6.230469 107.101562 C 6.230469 107.355469 6.296875 107.535156 6.417969 107.644531 C 6.546875 107.753906 6.769531 107.808594 7.097656 107.808594 L 7.625 107.808594 L 7.625 106.683594 L 8.328125 106.683594 Z M 13.390625 103.792969 C 13.476562 104.113281 13.519531 104.4375 13.519531 104.765625 C 13.519531 105.539062 13.082031 105.925781 12.207031 105.925781 L 8.328125 105.925781 L 8.328125 106.605469 L 7.625 106.605469 L 7.625 105.890625 L 6.324219 105.609375 L 6.324219 104.964844 L 7.625 104.964844 L 7.625 103.886719 L 8.328125 103.886719 L 8.328125 104.964844 L 11.996094 104.964844 C 12.277344 104.964844 12.476562 104.925781 12.59375 104.835938 C 12.707031 104.742188 12.757812 104.582031 12.757812 104.355469 C 12.757812 104.222656 12.730469 104.035156 12.675781 103.792969 Z M 10.507812 98.117188 C 12.53125 98.117188 13.542969 98.832031 13.542969 100.261719 C 13.542969 101.152344 13.210938 101.757812 12.535156 102.066406 L 12.535156 102.089844 C 12.566406 102.074219 12.871094 102.066406 13.449219 102.066406 L 15.722656 102.066406 L 15.722656 103.039062 L 8.808594 103.039062 C 8.21875 103.039062 7.820312 103.050781 7.625 103.0625 L 7.625 102.136719 C 7.644531 102.132812 7.695312 102.121094 7.777344 102.113281 C 7.867188 102.109375 8 102.101562 8.1875 102.089844 C 8.371094 102.085938 8.492188 102.078125 8.5625 102.078125 L 8.5625 102.054688 C 8.207031 101.886719 7.941406 101.65625 7.777344 101.375 C 7.609375 101.09375 7.519531 100.726562 7.519531 100.261719 C 7.519531 99.546875 7.761719 99.007812 8.246094 98.65625 C 8.722656 98.300781 9.476562 98.117188 10.507812 98.117188 Z M 10.519531 99.136719 C 9.71875 99.136719 9.144531 99.25 8.796875 99.464844 C 8.445312 99.683594 8.269531 100.035156 8.269531 100.507812 C 8.269531 100.894531 8.351562 101.195312 8.515625 101.410156 C 8.675781 101.621094 8.925781 101.785156 9.265625 101.902344 C 9.613281 102.015625 10.058594 102.066406 10.601562 102.066406 C 11.371094 102.066406 11.933594 101.945312 12.289062 101.703125 C 12.652344 101.464844 12.828125 101.070312 12.828125 100.519531 C 12.828125 100.039062 12.652344 99.683594 12.300781 99.464844 C 11.949219 99.25 11.359375 99.136719 10.519531 99.136719 Z M 13.4375 97.035156 L 5.46875 97.035156 L 5.46875 96.0625 L 13.4375 96.0625 Z M 7.625 94.09375 L 11.304688 94.09375 C 11.6875 94.09375 11.992188 94.058594 12.207031 93.988281 C 12.417969 93.910156 12.570312 93.789062 12.664062 93.625 C 12.753906 93.460938 12.792969 93.21875 12.792969 92.898438 C 12.792969 92.429688 12.636719 92.0625 12.324219 91.796875 C 12.003906 91.523438 11.558594 91.386719 10.988281 91.386719 L 7.625 91.386719 L 7.625 90.425781 L 12.195312 90.425781 C 12.875 90.425781 13.292969 90.414062 13.4375 90.390625 L 13.4375 91.304688 C 13.421875 91.3125 13.375 91.316406 13.296875 91.316406 C 13.222656 91.316406 13.128906 91.320312 13.027344 91.328125 C 12.917969 91.335938 12.722656 91.34375 12.441406 91.351562 L 12.441406 91.363281 C 12.847656 91.589844 13.132812 91.847656 13.296875 92.136719 C 13.460938 92.425781 13.542969 92.789062 13.542969 93.226562 C 13.542969 93.859375 13.386719 94.324219 13.074219 94.621094 C 12.753906 94.917969 12.226562 95.066406 11.492188 95.066406 L 7.625 95.066406 Z M 11.832031 84.664062 C 12.378906 84.664062 12.800781 84.871094 13.097656 85.285156 C 13.398438 85.703125 13.542969 86.28125 13.542969 87.03125 C 13.542969 87.753906 13.425781 88.308594 13.191406 88.707031 C 12.953125 89.101562 12.578125 89.351562 12.078125 89.46875 L 11.902344 88.613281 C 12.214844 88.527344 12.449219 88.355469 12.59375 88.097656 C 12.734375 87.839844 12.804688 87.488281 12.804688 87.03125 C 12.804688 86.539062 12.730469 86.183594 12.582031 85.953125 C 12.4375 85.726562 12.207031 85.613281 11.902344 85.613281 C 11.675781 85.613281 11.492188 85.695312 11.351562 85.847656 C 11.207031 86.007812 11.082031 86.257812 10.988281 86.609375 L 10.8125 87.300781 C 10.667969 87.859375 10.527344 88.25 10.390625 88.484375 C 10.25 88.71875 10.082031 88.902344 9.886719 89.035156 C 9.695312 89.171875 9.449219 89.234375 9.160156 89.234375 C 8.628906 89.234375 8.230469 89.046875 7.953125 88.671875 C 7.671875 88.292969 7.53125 87.742188 7.53125 87.019531 C 7.53125 86.382812 7.644531 85.871094 7.871094 85.496094 C 8.101562 85.117188 8.464844 84.871094 8.960938 84.769531 L 9.066406 85.636719 C 8.808594 85.695312 8.609375 85.835938 8.46875 86.070312 C 8.328125 86.304688 8.257812 86.621094 8.257812 87.019531 C 8.257812 87.460938 8.328125 87.78125 8.457031 87.992188 C 8.59375 88.199219 8.792969 88.296875 9.066406 88.296875 C 9.230469 88.296875 9.367188 88.257812 9.476562 88.167969 C 9.578125 88.082031 9.671875 87.957031 9.746094 87.792969 C 9.828125 87.625 9.929688 87.265625 10.0625 86.726562 C 10.1875 86.210938 10.304688 85.84375 10.414062 85.613281 C 10.527344 85.390625 10.644531 85.214844 10.777344 85.085938 C 10.914062 84.957031 11.066406 84.851562 11.234375 84.78125 C 11.40625 84.707031 11.605469 84.664062 11.832031 84.664062 Z M 15.628906 83.945312 L 14.925781 83.945312 L 14.925781 77.535156 L 15.628906 77.535156 Z M 10.519531 72.125 C 11.546875 72.125 12.308594 72.355469 12.804688 72.804688 C 13.296875 73.25 13.542969 73.902344 13.542969 74.75 C 13.542969 75.601562 13.285156 76.246094 12.769531 76.683594 C 12.253906 77.113281 11.503906 77.328125 10.519531 77.328125 C 8.523438 77.328125 7.519531 76.457031 7.519531 74.714844 C 7.519531 73.824219 7.765625 73.175781 8.257812 72.757812 C 8.746094 72.335938 9.496094 72.125 10.519531 72.125 Z M 10.519531 73.144531 C 9.722656 73.144531 9.144531 73.269531 8.785156 73.507812 C 8.417969 73.742188 8.234375 74.140625 8.234375 74.703125 C 8.234375 75.265625 8.421875 75.675781 8.796875 75.933594 C 9.167969 76.1875 9.742188 76.308594 10.519531 76.308594 C 11.292969 76.308594 11.875 76.1875 12.253906 75.933594 C 12.636719 75.683594 12.828125 75.296875 12.828125 74.761719 C 12.828125 74.183594 12.648438 73.773438 12.277344 73.519531 C 11.902344 73.269531 11.316406 73.144531 10.519531 73.144531 Z M 13.4375 67.351562 L 9.746094 67.351562 C 9.367188 67.351562 9.066406 67.390625 8.855469 67.46875 C 8.644531 67.539062 8.492188 67.65625 8.398438 67.820312 C 8.304688 67.984375 8.257812 68.226562 8.257812 68.546875 C 8.257812 69.015625 8.417969 69.382812 8.738281 69.648438 C 9.0625 69.914062 9.507812 70.046875 10.074219 70.046875 L 13.4375 70.046875 L 13.4375 71.019531 L 8.867188 71.019531 C 8.1875 71.019531 7.773438 71.03125 7.625 71.054688 L 7.625 70.140625 C 7.644531 70.132812 7.691406 70.128906 7.765625 70.128906 C 7.847656 70.121094 7.9375 70.117188 8.046875 70.117188 C 8.148438 70.109375 8.339844 70.101562 8.621094 70.09375 L 8.621094 70.082031 C 8.21875 69.855469 7.929688 69.597656 7.765625 69.308594 C 7.601562 69.011719 7.519531 68.648438 7.519531 68.21875 C 7.519531 67.578125 7.679688 67.113281 8 66.824219 C 8.3125 66.527344 8.832031 66.378906 9.558594 66.378906 L 13.4375 66.378906 Z M 11.832031 60.675781 C 12.378906 60.675781 12.800781 60.882812 13.097656 61.296875 C 13.398438 61.710938 13.542969 62.289062 13.542969 63.039062 C 13.542969 63.761719 13.425781 64.320312 13.191406 64.714844 C 12.953125 65.109375 12.578125 65.363281 12.078125 65.476562 L 11.902344 64.621094 C 12.214844 64.539062 12.449219 64.363281 12.59375 64.109375 C 12.734375 63.851562 12.804688 63.496094 12.804688 63.039062 C 12.804688 62.550781 12.730469 62.191406 12.582031 61.964844 C 12.4375 61.738281 12.207031 61.621094 11.902344 61.621094 C 11.675781 61.621094 11.492188 61.703125 11.351562 61.859375 C 11.207031 62.015625 11.082031 62.269531 10.988281 62.621094 L 10.8125 63.308594 C 10.667969 63.867188 10.527344 64.257812 10.390625 64.496094 C 10.25 64.726562 10.082031 64.914062 9.886719 65.046875 C 9.695312 65.179688 9.449219 65.246094 9.160156 65.246094 C 8.628906 65.246094 8.230469 65.058594 7.953125 64.683594 C 7.671875 64.300781 7.53125 63.75 7.53125 63.027344 C 7.53125 62.390625 7.644531 61.882812 7.871094 61.507812 C 8.101562 61.125 8.464844 60.882812 8.960938 60.777344 L 9.066406 61.644531 C 8.808594 61.703125 8.609375 61.847656 8.46875 62.082031 C 8.328125 62.316406 8.257812 62.632812 8.257812 63.027344 C 8.257812 63.46875 8.328125 63.789062 8.457031 64.003906 C 8.59375 64.207031 8.792969 64.308594 9.066406 64.308594 C 9.230469 64.308594 9.367188 64.265625 9.476562 64.175781 C 9.578125 64.09375 9.671875 63.964844 9.746094 63.800781 C 9.828125 63.632812 9.929688 63.277344 10.0625 62.738281 C 10.1875 62.222656 10.304688 61.851562 10.414062 61.621094 C 10.527344 61.398438 10.644531 61.222656 10.777344 61.097656 C 10.914062 60.964844 11.066406 60.863281 11.234375 60.789062 C 11.40625 60.714844 11.605469 60.675781 11.832031 60.675781 Z M 10.730469 58.300781 C 11.40625 58.300781 11.921875 58.164062 12.277344 57.890625 C 12.636719 57.617188 12.816406 57.214844 12.816406 56.683594 C 12.816406 56.261719 12.734375 55.925781 12.570312 55.675781 C 12.402344 55.425781 12.183594 55.253906 11.925781 55.160156 L 12.171875 54.316406 C 13.085938 54.664062 13.542969 55.449219 13.542969 56.683594 C 13.542969 57.546875 13.292969 58.203125 12.78125 58.652344 C 12.265625 59.097656 11.503906 59.320312 10.496094 59.320312 C 9.535156 59.320312 8.804688 59.097656 8.292969 58.652344 C 7.777344 58.203125 7.519531 57.558594 7.519531 56.71875 C 7.519531 55.007812 8.546875 54.152344 10.601562 54.152344 L 10.730469 54.152344 Z M 9.992188 55.160156 C 9.382812 55.214844 8.9375 55.371094 8.65625 55.628906 C 8.375 55.886719 8.234375 56.257812 8.234375 56.742188 C 8.234375 57.210938 8.394531 57.582031 8.703125 57.855469 C 9.015625 58.132812 9.449219 58.277344 9.992188 58.300781 Z M 13.390625 50.808594 C 13.476562 51.128906 13.519531 51.453125 13.519531 51.777344 C 13.519531 52.550781 13.082031 52.941406 12.207031 52.941406 L 8.328125 52.941406 L 8.328125 53.621094 L 7.625 53.621094 L 7.625 52.902344 L 6.324219 52.621094 L 6.324219 51.976562 L 7.625 51.976562 L 7.625 50.902344 L 8.328125 50.902344 L 8.328125 51.976562 L 11.996094 51.976562 C 12.277344 51.976562 12.476562 51.9375 12.59375 51.851562 C 12.707031 51.757812 12.757812 51.597656 12.757812 51.371094 C 12.757812 51.238281 12.730469 51.050781 12.675781 50.808594 Z M 13.390625 50.808594 "/>
</svg>
